# VPXTOOL table OBJ file
# VPXTOOL OBJ file
# numVerts: 465 numFaces: 534
o p22aoff
v 15.969578 -16.183449 4.993099
v 5.187483 -16.333925 4.993099
v 5.187483 -16.333925 0.141149
v 15.969579 -16.183449 0.141149
v 18.591343 -13.900534 4.9931
v 18.591341 -13.900534 0.141149
v 18.611116 -12.584211 0.141149
v 18.611116 -12.584211 4.9931
v 18.644447 -13.252013 4.9931
v 17.185152 -15.860392 0.141149
v 17.185152 -15.860392 4.9931
v 16.593065 -16.074507 4.9931
v 74.673996 13.292886 0.14115
v 74.23163 14.606206 0.14115
v 74.23163 14.606206 4.993101
v 74.673996 13.292886 4.993102
v 73.844536 10.720417 0.14115
v 74.53108 11.911667 0.14115
v 74.53108 11.911667 4.993101
v 73.844536 10.720417 4.993101
v 3.535849 16.435055 4.9931
v -9.568734 4.657046 4.993099
v 10.331065 -2.577257 4.9931
v 11.579409 -1.472936 4.993099
v 72.57257 9.883178 4.993102
v 72.57257 9.883178 0.14115
v 17.966805 -11.207479 0.141149
v 16.979778 -10.270262 0.141149
v 16.979778 -10.270262 4.9931
v 17.966805 -11.207479 4.9931
v 18.384005 -11.884629 4.9931
v 18.13607 -15.074504 4.9931
v 18.13607 -15.074504 0.141149
v 18.425484 -14.51453 4.9931
v 10.638167 -7.507643 0.141149
v 9.857 -6.112242 0.141149
v 9.856999 -6.112242 4.993099
v 10.638166 -7.507643 4.993099
v 9.720418 -3.793405 4.993099
v -9.732268 3.549169 4.993099
v 73.289734 15.586281 0.14115
v 73.289734 15.586281 4.993101
v -18.464926 13.724937 4.993098
v -18.464924 13.724937 0.141147
v -18.431454 12.408615 0.141147
v -18.431456 12.408615 4.993098
v -15.843161 16.371681 4.993099
v -15.84316 16.371681 0.141148
v -17.12085 15.817905 0.141148
v -17.120852 15.817905 4.993098
v -74.99196 -13.772243 0.141143
v -74.54959 -15.08556 0.141143
v -74.54959 -15.08556 4.993095
v -74.99196 -13.772243 4.993094
v -74.08583 -11.276443 0.141143
v -74.84903 -12.391024 0.141143
v -74.84903 -12.391024 4.993094
v -74.08583 -11.276443 4.993095
v -10.478832 2.447063 0.141148
v -11.071271 1.844475 0.141148
v -11.071272 1.844475 4.993098
v -10.478833 2.447063 4.993098
v -72.89053 -10.592546 4.993095
v -72.89053 -10.592546 0.141144
v -17.804888 11.067377 0.141147
v -16.893106 10.233758 0.141148
v -16.893108 10.233758 4.993098
v -17.80489 11.067377 4.993098
v -18.159975 11.762274 4.993098
v -18.009653 14.898911 4.993098
v -18.009651 14.898911 0.141147
v -10.815269 7.617508 0.141148
v -9.815745 6.129271 0.141148
v -9.815745 6.129271 4.993099
v -10.815269 7.617509 4.993099
v -9.568733 4.657046 0.141148
v 14.602841 16.438694 4.9931
v 9.069345 16.438408 4.9931
v 12.436921 -1.170323 4.993099
v 14.386115 -0.799269 4.9931
v -73.5438 -15.988965 0.141144
v -73.5438 -15.988965 4.993095
v -2.190512 -16.382746 0.141148
v 2.713362 -16.368923 0.141148
v 2.713362 -16.368923 4.993099
v -2.190512 -16.382746 4.993099
v 25.669832 16.411667 4.993102
v 31.203327 16.400301 4.993102
v 31.20333 16.400301 0.14115
v 25.669834 16.411667 0.14115
v 20.136337 16.432846 4.993101
v 20.13634 16.432846 0.14115
v 14.602842 16.438694 0.14115
v 9.069346 16.438408 0.14115
v 3.53585 16.435055 0.14115
v -7.250649 16.40893 4.993099
v -1.997647 16.431702 4.993099
v -1.997647 16.431702 0.14115
v -7.315968 16.408646 0.141149
v 18.990284 0.068173 4.9931
v 14.386116 -0.799269 0.14115
v 18.990284 0.068173 0.14115
v 23.594452 0.966282 4.9931
v 23.594452 0.966283 0.14115
v 28.198618 1.882793 4.993101
v 28.198618 1.882793 0.14115
v 32.802784 2.701166 4.993101
v 32.802784 2.701166 0.14115
v -26.78383 -16.504538 4.993096
v -31.702496 -16.513735 4.993095
v -31.702496 -16.513735 0.141145
v -26.78383 -16.504538 0.141145
v -21.865166 -16.495342 4.993097
v -21.865168 -16.495342 0.141146
v -16.946503 -16.406652 4.993097
v -16.946503 -16.406652 0.141146
v -12.027839 -16.397457 4.993098
v -12.02784 -16.397457 0.141147
v -7.123966 -16.403994 4.993098
v -7.123966 -16.403994 0.141147
v -17.819864 0.168335 4.993097
v -13.873435 0.904858 4.993097
v -13.873434 0.904858 0.141147
v -17.819864 0.168335 0.141147
v -21.766294 -0.568189 4.993097
v -21.766296 -0.568188 0.141146
v -25.712723 -1.352926 4.993096
v -25.712725 -1.352926 0.141146
v -29.659153 -2.161328 4.993096
v -29.659155 -2.161328 0.141145
v -33.605583 -2.947544 4.993095
v -33.605583 -2.947544 0.141145
v 71.967575 16.19352 4.993102
v 71.967575 16.19352 0.14115
v -9.732267 3.549169 0.141148
v 9.632333 -4.783235 4.993099
v 9.632334 -4.783235 0.141149
v 9.720418 -3.793405 0.141149
v 12.030227 -8.496943 4.993099
v 13.797328 -9.169255 4.9931
v 15.667137 -9.710292 4.9931
v -14.784287 9.383679 4.993098
v -12.667535 8.65129 4.993099
v 12.436922 -1.170323 0.14115
v -72.220406 -16.370295 4.993095
v 10.331064 -2.577257 0.14115
v -72.220406 -16.370295 0.141144
v 15.667136 -9.710292 0.141149
v 13.797326 -9.169255 0.141149
v 12.030227 -8.496943 0.141149
v 11.57941 -1.472936 0.14115
v -14.784288 9.383679 0.141148
v -12.667535 8.65129 0.141148
v 6.755282 -3.042374 7.091429
v 6.755281 -3.042377 6.418003
v -6.482682 -3.042372 6.418003
v -6.48268 -3.042372 7.091429
v -6.482681 4.380675 7.09143
v -6.482678 4.380672 6.418004
v 6.755281 4.380672 6.418004
v 6.755283 4.38067 7.091429
v -3.575217 -5.949849 7.091429
v -3.575214 -5.949845 6.418003
v -3.575214 7.288145 6.418004
v -3.575214 7.288148 7.09143
v 3.847814 7.288148 7.09143
v 3.847813 7.288145 6.418004
v 3.847815 -5.949847 6.418002
v 3.847814 -5.949849 7.091428
v -21.766296 -0.568188 0.041146
v -22.128775 1.312549 0.041146
v -26.091686 0.52456 0.041146
v -25.712725 -1.352926 0.041146
v -30.038452 -0.28391 0.041145
v -29.659155 -2.161328 0.041145
v -33.975636 -1.068281 0.041145
v -33.605583 -2.947544 0.041145
v -73.55799 -8.797256 0.041144
v -72.89053 -10.592546 0.041144
v -73.5438 -15.988965 0.041144
v -74.47244 -17.664133 0.041143
v -72.49155 -18.266356 0.041144
v -72.220406 -16.370295 0.041144
v -17.804888 11.067377 0.041147
v -19.348482 9.933412 0.041147
v -17.913618 8.612918 0.041147
v -16.893106 10.233758 0.041148
v -9.815745 6.129271 0.041148
v -11.595295 5.420915 0.041147
v -11.48399 4.638198 0.041148
v -9.568733 4.657046 0.041148
v -74.08583 -11.276443 0.041143
v -75.38444 -9.868544 0.041143
v -76.6471 -11.731085 0.041143
v -74.84903 -12.391024 0.041143
v -76.895546 -13.984207 0.041143
v -74.99196 -13.772243 0.041143
v -76.14968 -16.138317 0.041143
v -74.54959 -15.08556 0.041143
v -15.84316 16.371681 0.041148
v -16.236168 18.246277 0.041148
v -18.211077 17.392698 0.041147
v -17.12085 15.817905 0.041148
v -18.009651 14.898911 0.041147
v -19.622885 15.931403 0.041147
v -20.351925 14.053253 0.041147
v -18.464924 13.724937 0.041147
v -20.295828 11.969675 0.041147
v -18.431454 12.408615 0.041147
v -11.517325 4.243528 0.041148
v -9.732267 3.549169 0.041148
v -10.478832 2.447063 0.041148
v -11.960721 3.66056 0.041147
v -12.086591 3.468573 0.041147
v -11.071271 1.844475 0.041148
v -15.455687 7.58986 0.041148
v -14.784288 9.383679 0.041148
v -1.997647 16.431702 0.04115
v -2.002379 18.347046 0.04115
v -7.32427 18.323978 0.041149
v -7.315968 16.408646 0.041149
v -14.354759 2.758744 0.041147
v -13.873434 0.904858 0.041147
v -13.450426 6.903249 0.041148
v -12.667535 8.65129 0.041148
v -12.112716 6.208538 0.041147
v -10.815269 7.617508 0.041148
v 17.966805 -11.207479 0.041149
v 19.520641 -10.087589 0.041149
v 18.03163 -8.669583 0.041149
v 16.979778 -10.270262 0.041149
v 12.436922 -1.170323 0.04115
v 12.936133 -3.019473 0.04115
v 14.742516 -2.681168 0.04115
v 14.386116 -0.799269 0.04115
v 9.857 -6.112242 0.041149
v 11.663403 -5.475472 0.041149
v 11.546201 -4.707876 0.041149
v 9.632334 -4.783235 0.041149
v 11.57941 -1.472936 0.04115
v 12.550582 -3.123812 0.04115
v 73.844536 10.720417 0.04115
v 75.23846 9.406813 0.04115
v 76.353386 11.321963 0.04115
v 74.53108 11.911667 0.04115
v 10.331064 -2.577257 0.04115
v 11.848932 -3.745436 0.04115
v 76.57758 13.504858 0.04115
v 74.673996 13.292886 0.04115
v 15.667136 -9.710292 0.041149
v 16.310287 -7.906153 0.041149
v 14.404567 -7.352715 0.041149
v 13.797326 -9.169255 0.041149
v 75.86928 15.599513 0.04115
v 74.23163 14.606206 0.04115
v 12.932827 -6.8076 0.041149
v 12.030227 -8.496943 0.041149
v 74.399345 17.147472 0.04115
v 73.289734 15.586281 0.04115
v 12.063334 -6.228008 0.041149
v 10.638167 -7.507643 0.041149
v 72.38147 18.063618 0.04115
v 71.967575 16.19352 0.04115
v 10.331064 -2.577257 0.04115
v 10.331064 -2.577257 0.14115
v 9.720418 -3.793405 0.141149
v 9.720418 -3.793405 0.041149
v 9.632334 -4.783235 0.141149
v 9.632334 -4.783235 0.041149
v 9.857 -6.112242 0.141149
v 9.857 -6.112242 0.041149
v 10.638167 -7.507643 0.141149
v 10.638167 -7.507643 0.041149
v 12.030227 -8.496943 0.141149
v 12.030227 -8.496943 0.041149
v 13.797326 -9.169255 0.141149
v 13.797326 -9.169255 0.041149
v 15.667136 -9.710292 0.141149
v 15.667136 -9.710292 0.041149
v 16.979778 -10.270262 0.141149
v 16.979778 -10.270262 0.041149
v 17.966805 -11.207479 0.141149
v 17.966805 -11.207479 0.041149
v 18.611116 -12.584211 0.141149
v 18.611116 -12.584211 0.041149
v 18.591341 -13.900534 0.141149
v 18.591341 -13.900534 0.041149
v 18.13607 -15.074504 0.141149
v 18.13607 -15.074504 0.041149
v 17.185152 -15.860392 0.141149
v 17.185152 -15.860392 0.041149
v 15.969579 -16.183449 0.141149
v 15.969579 -16.183449 0.041149
v 5.187483 -16.333925 0.141149
v 5.187483 -16.333925 0.041149
v 2.713362 -16.368923 0.141148
v 2.713362 -16.368923 0.041148
v -2.190512 -16.382746 0.141148
v -2.190512 -16.382746 0.041148
v -7.123966 -16.403994 0.141147
v -7.123966 -16.403994 0.041147
v -12.02784 -16.397457 0.141147
v -12.02784 -16.397457 0.041147
v -16.946503 -16.406652 0.141146
v -16.946503 -16.406652 0.041146
v -21.865168 -16.495342 0.141146
v -21.865168 -16.495342 0.041146
v -26.78383 -16.504538 0.141145
v -26.78383 -16.504538 0.041145
v -31.702496 -16.513735 0.141145
v -31.702496 -16.513735 0.041145
v -72.220406 -16.370295 0.141144
v -72.220406 -16.370295 0.041144
v -73.5438 -15.988965 0.141144
v -73.5438 -15.988965 0.041144
v -74.54959 -15.08556 0.141143
v -74.54959 -15.08556 0.041143
v -74.99196 -13.772243 0.141143
v -74.99196 -13.772243 0.041143
v -74.84903 -12.391024 0.141143
v -74.84903 -12.391024 0.041143
v -74.08583 -11.276443 0.141143
v -74.08583 -11.276443 0.041143
v -72.89053 -10.592546 0.141144
v -72.89053 -10.592546 0.041144
v -33.605583 -2.947544 0.141145
v -33.605583 -2.947544 0.041145
v -29.659155 -2.161328 0.141145
v -29.659155 -2.161328 0.041145
v -25.712725 -1.352926 0.141146
v -25.712725 -1.352926 0.041146
v -21.766296 -0.568188 0.141146
v -21.766296 -0.568188 0.041146
v -17.819864 0.168335 0.141147
v -17.819864 0.168335 0.041147
v -17.819864 0.168335 0.041147
v -18.171259 2.051175 0.041146
v -13.873434 0.904858 0.141147
v -13.873434 0.904858 0.041147
v -31.704096 -18.429083 0.041145
v -31.702496 -16.513735 0.041145
v -11.071271 1.844475 0.141148
v -11.071271 1.844475 0.041148
v -10.478832 2.447063 0.141148
v -10.478832 2.447063 0.041148
v -26.780247 -18.419884 0.041145
v -26.78383 -16.504538 0.041145
v -9.732267 3.549169 0.141148
v -9.732267 3.549169 0.041148
v -9.568733 4.657046 0.141148
v -9.568733 4.657046 0.041148
v -21.846111 -18.410597 0.041146
v -21.865168 -16.495342 0.041146
v -9.815745 6.129271 0.141148
v -9.815745 6.129271 0.041148
v -10.815269 7.617508 0.141148
v -10.815269 7.617508 0.041148
v -16.927448 -18.321907 0.041146
v -16.946503 -16.406652 0.041146
v -12.667535 8.65129 0.141148
v -12.667535 8.65129 0.041148
v -14.784288 9.383679 0.141148
v -14.784288 9.383679 0.041148
v -12.027326 -18.312805 0.041147
v -12.02784 -16.397457 0.041147
v -16.893106 10.233758 0.141148
v -16.893106 10.233758 0.041148
v -17.804888 11.067377 0.141147
v -17.804888 11.067377 0.041147
v -7.121118 -18.319342 0.041147
v -7.123966 -16.403994 0.041147
v -18.431454 12.408615 0.141147
v -18.431454 12.408615 0.041147
v -18.464924 13.724937 0.141147
v -18.464924 13.724937 0.041147
v -18.009651 14.898911 0.141147
v -18.009651 14.898911 0.041147
v -2.190512 -16.382746 0.041148
v -2.183688 -18.298084 0.041148
v 2.729607 -18.284204 0.041148
v 2.713362 -16.368923 0.041148
v -17.12085 15.817905 0.141148
v -17.12085 15.817905 0.041148
v -15.84316 16.371681 0.141148
v -15.84316 16.371681 0.041148
v 19.350948 -1.812914 0.04115
v 18.990284 0.068173 0.04115
v -7.315968 16.408646 0.141149
v -7.315968 16.408646 0.041149
v 23.964771 -0.912927 0.04115
v 23.594452 0.966283 0.04115
v -1.997647 16.431702 0.14115
v -1.997647 16.431702 0.04115
v 9.720418 -3.793405 0.041149
v 11.562731 -4.317285 0.041149
v 3.53585 16.435055 0.14115
v 3.53585 16.435055 0.04115
v 28.5532 0.000551 0.04115
v 28.198618 1.882793 0.04115
v 9.069346 16.438408 0.14115
v 9.069346 16.438408 0.04115
v 17.185152 -15.860392 0.041149
v 18.061474 -17.563515 0.041149
v 19.689302 -16.195234 0.041149
v 18.13607 -15.074504 0.041149
v 14.602842 16.438694 0.14115
v 14.602842 16.438694 0.04115
v 33.14057 0.815837 0.04115
v 32.802784 2.701166 0.04115
v 20.13634 16.432846 0.14115
v 20.13634 16.432846 0.04115
v 25.669834 16.411667 0.14115
v 25.669834 16.411667 0.04115
v 31.20333 16.400301 0.14115
v 31.20333 16.400301 0.04115
v 31.210154 18.31564 0.04115
v 31.20333 16.400301 0.04115
v 71.967575 16.19352 0.14115
v 71.967575 16.19352 0.04115
v 73.289734 15.586281 0.14115
v 73.289734 15.586281 0.04115
v 73.28373 8.104745 0.04115
v 72.57257 9.883178 0.04115
v 74.23163 14.606206 0.14115
v 74.23163 14.606206 0.04115
v 25.675467 18.32701 0.04115
v 25.669834 16.411667 0.04115
v 74.673996 13.292886 0.14115
v 74.673996 13.292886 0.04115
v 74.53108 11.911667 0.14115
v 74.53108 11.911667 0.04115
v 20.141016 18.34819 0.04115
v 20.13634 16.432846 0.04115
v 14.603805 18.354044 0.04115
v 14.602842 16.438694 0.04115
v 9.068717 18.353758 0.04115
v 9.069346 16.438408 0.04115
v 73.844536 10.720417 0.14115
v 73.844536 10.720417 0.04115
v 72.57257 9.883178 0.14115
v 72.57257 9.883178 0.04115
v 18.611116 -12.584211 0.041149
v 20.483847 -12.182409 0.041149
v 3.534689 18.350405 0.04115
v 3.53585 16.435055 0.04115
v 32.802784 2.701166 0.14115
v 32.802784 2.701166 0.04115
v 18.591341 -13.900534 0.041149
v 20.471317 -14.266938 0.04115
v 28.198618 1.882793 0.14115
v 28.198618 1.882793 0.04115
v 23.594452 0.966283 0.14115
v 23.594452 0.966283 0.04115
v 5.214394 -18.249086 0.041149
v 5.187483 -16.333925 0.041149
v 18.990284 0.068173 0.14115
v 18.990284 0.068173 0.04115
v 14.386116 -0.799269 0.14115
v 14.386116 -0.799269 0.04115
v 15.969579 -16.183449 0.041149
v 16.23089 -18.08089 0.041149
v 12.436922 -1.170323 0.14115
v 12.436922 -1.170323 0.04115
v 11.57941 -1.472936 0.14115
v 11.57941 -1.472936 0.04115
vt 0.403599 0.10923302
vt 0.468686 0.105598986
vt 0.465655 0.067435026
vt 0.394271 0.071420014
vt 0.387773 0.164356
vt 0.376913 0.13187802
vt 0.376782 0.16673702
vt 0.387654 0.19613999
vt 0.387452 0.18001598
vt 0.386223 0.07997501
vt 0.396261 0.117033005
vt 0.399836 0.11186302
vt 0.005609 0.85202998
vt 0.008538 0.88681102
vt 0.051899 0.85268301
vt 0.049229 0.82097101
vt 0.011101 0.78390503
vt 0.006556 0.81545198
vt 0.050091 0.78762001
vt 0.054236 0.758856
vt 0.478656 0.896842
vt 0.557762 0.61245
vt 0.437636 0.437769
vt 0.430101 0.46443403
vt 0.061914 0.73864
vt 0.019522 0.76173198
vt 0.381048 0.203197
vt 0.387583 0.22801697
vt 0.397501 0.25201297
vt 0.391543 0.22938299
vt 0.389024 0.21303302
vt 0.390521 0.13600999
vt 0.379927 0.100788
vt 0.388774 0.149531
vt 0.429568 0.30117798
vt 0.43474 0.33813202
vt 0.440498 0.352413
vt 0.435782 0.31871998
vt 0.441322 0.408404
vt 0.558749 0.58569902
vt 0.014774 0.91276598
vt 0.057585 0.87634802
vt 0.611464 0.83140397
vt 0.62225 0.86347198
vt 0.622028 0.82861298
vt 0.611262 0.79961997
vt 0.595638 0.89531201
vt 0.604892 0.93356502
vt 0.613351 0.918899
vt 0.60335 0.88194102
vt 0.996496 0.135275
vt 0.993567 0.10049498
vt 0.95002 0.13574302
vt 0.952691 0.167454
vt 0.990497 0.20137
vt 0.99555 0.171853
vt 0.951828 0.20080501
vt 0.947221 0.227718
vt 0.569377 0.56480497
vt 0.573299 0.54884702
vt 0.566832 0.544537
vt 0.563256 0.55908698
vt 0.940006 0.24423099
vt 0.982583 0.219482
vt 0.61788 0.79309303
vt 0.611843 0.77101701
vt 0.601976 0.747105
vt 0.60748 0.76723403
vt 0.609623 0.78401297
vt 0.608716 0.85975099
vt 0.619236 0.894562006
vt 0.571604 0.70173198
vt 0.564987 0.662319
vt 0.559253 0.64799798
vt 0.565287 0.68393302
vt 0.563351 0.623331
vt 0.41185 0.89692998
vt 0.445253 0.896923006
vt 0.424924 0.47174096
vt 0.413158 0.48070097
vt 0.986908 0.076569974
vt 0.943949 0.11392903
vt 0.514503 0.06614202
vt 0.482036 0.066507995
vt 0.483621 0.10475397
vt 0.513223 0.10442102
vt 0.345043 0.89627802
vt 0.31164 0.89600301
vt 0.293414 0.93432301
vt 0.330049 0.93462402
vt 0.378447 0.896789014
vt 0.366684 0.935185015
vt 0.40332 0.93533999
vt 0.439955 0.935332
vt 0.47659 0.93524301
vt 0.543769 0.89621198
vt 0.512059 0.896761
vt 0.513226 0.93515402
vt 0.548436 0.93454403
vt 0.385365 0.50164598
vt 0.404755 0.47883296
vt 0.374272 0.501805
vt 0.357572 0.523332
vt 0.343789 0.52559
vt 0.329778 0.545462
vt 0.313307 0.549861
vt 0.301985 0.56522298
vt 0.282824 0.57153398
vt 0.661681 0.10148001
vt 0.691373 0.10125798
vt 0.709891 0.06267297
vt 0.677327 0.062916994
vt 0.63199 0.101701975
vt 0.644762 0.06316
vt 0.602298 0.10384297
vt 0.612197 0.06550902
vt 0.572606 0.104065
vt 0.579632 0.06575203
vt 0.543004 0.103908
vt 0.547165 0.065579
vt 0.60757 0.50406498
vt 0.583747 0.52184898
vt 0.591851 0.52396297
vt 0.617979 0.504458
vt 0.631393 0.48627996
vt 0.644107 0.484953
vt 0.655216 0.467332
vt 0.670235 0.464171
vt 0.679038 0.44781196
vt 0.696363 0.44276202
vt 0.702861 0.428828
vt 0.722491 0.42194104
vt 0.065566 0.89100999
vt 0.023528 0.928847015
vt 0.564434 0.59399098
vt 0.441854 0.38450396
vt 0.436228 0.37332702
vt 0.435644 0.39954102
vt 0.427379 0.294832
vt 0.416712 0.278598
vt 0.405425 0.26553404
vt 0.589246 0.726579
vt 0.576468 0.70889503
vt 0.417659 0.46900702
vt 0.93596 0.10472101
vt 0.431602 0.43174696
vt 0.978146 0.066471994
vt 0.396273 0.24284601
vt 0.408653 0.25717402
vt 0.420352 0.274979
vt 0.423337 0.460993
vt 0.597882 0.74850398
vt 0.583867 0.729109
vt 0 0
vt 0 0
vt 0 0
vt 0 0
vt 0 0
vt 0 0
vt 0 0
vt 0 0
vt 0 0
vt 0 0
vt 0 0
vt 0 0
vt 0 0
vt 0 0
vt 0 0
vt 0 0
vt 0.140051 0.339787
vt 0.142295 0.340221
vt 0.141772 0.34279
vt 0.139363 0.34187198
vt 0.140884 0.350519
vt 0.136713 0.34935904
vt 0.138295 0.36113203
vt 0.133584 0.35990596
vt 0.109482 0.454463
vt 0.105126 0.452882
vt 0.092761 0.45913696
vt 0.08981 0.462417
vt 0.087048 0.45858502
vt 0.090914 0.45659804
vt 0.125852 0.321616
vt 0.124876 0.31955898
vt 0.126675 0.318146
vt 0.128272 0.32105803
vt 0.141622 0.31569302
vt 0.14202 0.31344998
vt 0.144285 0.314421
vt 0.143322 0.316081
vt 0.10399 0.456321
vt 0.10781 0.458695
vt 0.104649 0.462677
vt 0.101878 0.45903802
vt 0.099783 0.46510196
vt 0.098833 0.460531
vt 0.094403 0.46498
vt 0.095545 0.46061397
vt 0.119728 0.31180203
vt 0.123708 0.31118298
vt 0.123329 0.315148
vt 0.119924 0.315049
vt 0.120475 0.317814
vt 0.123018 0.31777203
vt 0.122775 0.31955302
vt 0.121479 0.320046
vt 0.123518 0.319911
vt 0.123319 0.321279
vt 0.145673 0.315776
vt 0.143936 0.316961
vt 0.144659 0.318254
vt 0.146987 0.31774604
vt 0.147506 0.319408
vt 0.144321 0.31916702
vt 0.13093 0.31555796
vt 0.132395 0.319008
vt 0.10987 0.28103
vt 0.114191 0.27964103
vt 0.117926 0.291669
vt 0.113672 0.29298604
vt 0.147623 0.32545602
vt 0.14362 0.324879
vt 0.135286 0.313722
vt 0.136175 0.317056
vt 0.139051 0.31324697
vt 0.139305 0.31603897
vt 0.030477 0.255812
vt 0.028527 0.25497603
vt 0.028532 0.25326204
vt 0.031341 0.253209
vt 0.036336 0.230573
vt 0.032332 0.22835898
vt 0.03448 0.224172
vt 0.038654 0.22653604
vt 0.029401 0.23740101
vt 0.026596 0.236866
vt 0.027426 0.23456502
vt 0.029923 0.23567301
vt 0.035275 0.23203897
vt 0.031823 0.22948098
vt 0.128492 0.080268025
vt 0.126104 0.074989974
vt 0.132697 0.07356
vt 0.132595 0.07948899
vt 0.032613 0.23386198
vt 0.029976 0.231466
vt 0.139434 0.075046
vt 0.136739 0.080516994
vt 0.031464 0.25017297
vt 0.02784 0.25053596
vt 0.02693 0.246481
vt 0.030922 0.24597001
vt 0.144817 0.07968402
vt 0.139997 0.083305
vt 0.026273 0.24270403
vt 0.029843 0.24239701
vt 0.14748 0.08583301
vt 0.14173 0.08717102
vt 0.026309 0.23965001
vt 0.029432 0.23969603
vt 0.147623 0.092565
vt 0.141966 0.091630995
vt 0.032613 0.23386198
vt 0.032757 0.23381501
vt 0.030794 0.234793
vt 0.030779 0.23488998
vt 0.030041 0.23563498
vt 0.029923 0.23567301
vt 0.029371 0.23734498
vt 0.029401 0.23740101
vt 0.029203 0.23978198
vt 0.029432 0.23969603
vt 0.02986 0.24259603
vt 0.029843 0.24239701
vt 0.031276 0.245983
vt 0.030922 0.24597001
vt 0.03176 0.25016403
vt 0.031464 0.25017297
vt 0.031707 0.25321996
vt 0.031341 0.253209
vt 0.030774 0.25593996
vt 0.030477 0.255812
vt 0.028748 0.258435
vt 0.028479 0.25809896
vt 0.026424 0.259813
vt 0.026371 0.259732
vt 0.02453 0.26165903
vt 0.024443 0.26161802
vt 0.023712 0.26413
vt 0.023565 0.264094
vt 0.023986 0.26683497
vt 0.023803 0.26684403
vt 0.032215 0.29057503
vt 0.031994 0.29063404
vt 0.034128 0.29596996
vt 0.0339 0.29605198
vt 0.03799 0.30666
vt 0.037771 0.30673897
vt 0.041839 0.31738
vt 0.041624 0.31746
vt 0.045729 0.32798803
vt 0.045513 0.328066
vt 0.049579 0.33858204
vt 0.049363 0.33865702
vt 0.053237 0.34917402
vt 0.053024 0.349249
vt 0.057038 0.35965204
vt 0.056827 0.359725
vt 0.060808 0.37009203
vt 0.060592 0.37017202
vt 0.091107 0.45650697
vt 0.090914 0.45659804
vt 0.092913 0.458974
vt 0.092761 0.45913696
vt 0.095613 0.460388
vt 0.095545 0.46061397
vt 0.098807 0.46028
vt 0.098833 0.460531
vt 0.101776 0.45881796
vt 0.101878 0.45903802
vt 0.103818 0.45615602
vt 0.10399 0.456321
vt 0.104728 0.45277798
vt 0.105126 0.452882
vt 0.133283 0.36007404
vt 0.133584 0.35990596
vt 0.136636 0.349181
vt 0.136713 0.34935904
vt 0.139316 0.341227
vt 0.139363 0.34187198
vt 0.139652 0.340218
vt 0.140051 0.339787
vt 0.141278 0.33372498
vt 0.141536 0.333557
vt 0.141536 0.333557
vt 0.145103 0.33444202
vt 0.143554 0.32501698
vt 0.14362 0.324879
vt 0.056517 0.371621
vt 0.060592 0.37017202
vt 0.144534 0.31925297
vt 0.144321 0.31916702
vt 0.144617 0.318371
vt 0.144659 0.318254
vt 0.052759 0.361197
vt 0.056827 0.359725
vt 0.14406 0.316858
vt 0.143936 0.316961
vt 0.143331 0.31610203
vt 0.143322 0.316081
vt 0.048925 0.35070598
vt 0.053024 0.349249
vt 0.141617 0.315543
vt 0.141622 0.31569302
vt 0.139089 0.31576097
vt 0.139305 0.31603897
vt 0.045241 0.340124
vt 0.049363 0.33865702
vt 0.135948 0.31716597
vt 0.136175 0.317056
vt 0.132408 0.31929004
vt 0.132395 0.319008
vt 0.041381 0.32957804
vt 0.045513 0.328066
vt 0.128437 0.321495
vt 0.128272 0.32105803
vt 0.126021 0.321944
vt 0.125852 0.321616
vt 0.037474 0.31897104
vt 0.041624 0.31746
vt 0.123274 0.32152402
vt 0.123319 0.321279
vt 0.121301 0.32012498
vt 0.121479 0.320046
vt 0.1201 0.317855
vt 0.120475 0.317814
vt 0.037771 0.30673897
vt 0.033603 0.30824697
vt 0.029705 0.297549
vt 0.0339 0.29605198
vt 0.119542 0.31499004
vt 0.119924 0.315049
vt 0.119596 0.311814
vt 0.119728 0.31180203
vt 0.040653 0.21387303
vt 0.044892 0.216416
vt 0.113463 0.29302502
vt 0.113672 0.29298604
vt 0.046873 0.20340598
vt 0.051228 0.20598197
vt 0.109643 0.28109598
vt 0.10987 0.28103
vt 0.030779 0.23488998
vt 0.028488 0.23312098
vt 0.105507 0.268641
vt 0.105732 0.268561
vt 0.053082 0.192559
vt 0.057643 0.19513798
vt 0.101257 0.256154
vt 0.101461 0.25607002
vt 0.023565 0.264094
vt 0.019588 0.263399
vt 0.021468 0.259485
vt 0.024443 0.26161802
vt 0.096957 0.24365002
vt 0.09709 0.24361199
vt 0.059224 0.18109298
vt 0.063936 0.18380898
vt 0.092704 0.23101902
vt 0.093029 0.23098701
vt 0.092767 0.217161
vt 0.093212 0.21718901
vt 0.098937 0.20261401
vt 0.099042 0.202712
vt 0.103993 0.204719
vt 0.099042 0.202712
vt 0.141649 0.09160501
vt 0.141966 0.091630995
vt 0.141438 0.087240994
vt 0.14173 0.08717102
vt 0.120583 0.07926601
vt 0.124801 0.083049
vt 0.139758 0.083504975
vt 0.139997 0.083305
vt 0.097981 0.21824002
vt 0.093212 0.21718901
vt 0.136595 0.080820024
vt 0.136739 0.080516994
vt 0.132594 0.079799
vt 0.132595 0.07948899
vt 0.097439 0.23039103
vt 0.093029 0.23098701
vt 0.101308 0.24220502
vt 0.09709 0.24361199
vt 0.10576 0.254566
vt 0.101461 0.25607002
vt 0.128613 0.08054197
vt 0.128492 0.080268025
vt 0.125033 0.08326
vt 0.124801 0.083049
vt 0.028479 0.25809896
vt 0.026887 0.25606704
vt 0.11006 0.267102
vt 0.105732 0.268561
vt 0.064153 0.18394202
vt 0.063936 0.18380898
vt 0.026371 0.259732
vt 0.024472 0.257304
vt 0.057895 0.19528604
vt 0.057643 0.19513798
vt 0.051463 0.20612597
vt 0.051228 0.20598197
vt 0.027773 0.292086
vt 0.031994 0.29063404
vt 0.045143 0.21655297
vt 0.044892 0.216416
vt 0.038891 0.226672
vt 0.038654 0.22653604
vt 0.023803 0.26684403
vt 0.019556 0.26764202
vt 0.036568 0.23071003
vt 0.036336 0.230573
vt 0.035601 0.23220402
vt 0.035275 0.23203897
vn -0.0987 0.7168 -0.6902
vn -0.0099 0.707 -0.7071
vn -0.014 0.9999 0
vn -0.1364 0.9906 0.0014
vn -0.7111 0.1386 -0.6892
vn -0.9815 0.1913 0.0029
vn -0.9777 -0.2098 0.0035
vn -0.7149 -0.1534 -0.6821
vn -0.7086 0.0106 -0.7055
vn -0.4575 0.8892 0.0014
vn -0.3386 0.658 -0.6725
vn -0.1821 0.6853 -0.7051
vn -0.9938 -0.1107 0
vn -0.855 -0.5186 0
vn -0.6415 -0.3891 -0.6611
vn -0.7446 -0.0829 -0.6623
vn -0.7277 0.6858 0
vn -0.9514 0.3079 0
vn -0.7122 0.2304 -0.6631
vn -0.5476 0.516 -0.6587
vn 0.0004 -0.7071 -0.7071
vn 0.6682 0.0066 -0.7439
vn -0.522 0.4018 -0.7523
vn -0.3338 0.5673 -0.7528
vn -0.2774 0.6937 -0.6647
vn -0.3713 0.9285 0
vn -0.8112 -0.5847 0.0024
vn -0.5492 -0.8357 0
vn -0.408 -0.6209 -0.6693
vn -0.5943 -0.4284 -0.6806
vn -0.6434 -0.3011 -0.7038
vn -0.6036 0.4355 -0.6678
vn -0.8109 0.5851 0.0018
vn -0.6615 0.2565 -0.7046
vn -0.7441 -0.6681 0
vn -0.9431 -0.3324 0
vn -0.6264 -0.2208 -0.7476
vn -0.4836 -0.4342 -0.76
vn -0.6343 0.1804 -0.7518
vn 0.6048 -0.2353 -0.7608
vn -0.5793 -0.8151 0
vn -0.4314 -0.6069 -0.6675
vn 0.7354 -0.1279 -0.6655
vn 0.9852 -0.1714 0
vn 0.9734 0.2292 0.0007
vn 0.7238 0.1704 -0.6686
vn 0.1533 -0.7313 -0.6645
vn 0.2052 -0.9787 0
vn 0.5692 -0.8222 0
vn 0.4248 -0.6135 -0.6657
vn 0.9938 0.1107 0
vn 0.8354 0.5496 0
vn 0.6319 0.4157 -0.6541
vn 0.7446 0.0829 -0.6623
vn 0.678 -0.735 0
vn 0.9387 -0.3445 0
vn 0.7088 -0.2601 -0.6557
vn 0.5093 -0.5521 -0.6601
vn 0.7737 -0.6335 0
vn 0.5301 -0.8479 0
vn 0.3423 -0.5476 -0.7635
vn 0.5304 -0.4343 -0.7281
vn 0.258 -0.694 -0.6722
vn 0.3485 -0.9373 0
vn 0.8059 0.592 0.0007
vn 0.5328 0.8462 0
vn 0.3959 0.6288 -0.6692
vn 0.5984 0.4396 -0.6698
vn 0.6415 0.2997 -0.7061
vn 0.6289 -0.4025 -0.6651
vn 0.8422 -0.539 0
vn 0.6774 0.7356 0
vn 0.9291 0.3698 0
vn 0.6062 0.2413 -0.7578
vn 0.4375 0.4751 -0.7635
vn 0.9999 0.0098 0
vn -0.0003 -0.7072 -0.707
vn 0.0002 -0.7071 -0.707
vn -0.1796 0.6654 -0.7245
vn -0.1315 0.6945 -0.7073
vn 0.4848 0.8746 0
vn 0.3642 0.657 -0.66
vn -0.0035 1 0
vn -0.0085 0.9999 0
vn -0.006 0.7083 -0.7058
vn -0.0025 0.7069 -0.7073
vn -0.0021 -0.7069 -0.7073
vn -0.0025 -0.7074 -0.7067
vn -0.0035 -1 0
vn -0.0029 -1 0
vn -0.0017 -0.7074 -0.7068
vn -0.0024 -1 0
vn -0.0005 -1 0
vn 0.0003 -1 0
vn 0.0006 -1 0
vn 0.0031 -0.7071 -0.7071
vn 0.0017 -0.7075 -0.7067
vn 0.0024 -1 0
vn 0.0043 -1 0
vn -0.1333 0.6952 -0.7064
vn -0.1861 0.9825 0
vn -0.1883 0.9821 0
vn -0.1368 0.6942 -0.7067
vn -0.1933 0.9811 0
vn -0.1305 0.6926 -0.7094
vn -0.1851 0.9827 0
vn -0.1247 0.6963 -0.7068
vn -0.1763 0.9843 0
vn -0.0013 0.7071 -0.7071
vn 0.0006 0.7077 -0.7065
vn 0.0008 1 0
vn -0.0019 1 0
vn -0.007 0.7089 -0.7053
vn -0.0099 0.9999 0
vn -0.007 0.7052 -0.7089
vn -0.0099 0.9999 0
vn -0.0002 0.7067 -0.7074
vn -0.0002 1 0
vn -0.001 0.7077 -0.7064
vn -0.0015 1 0
vn 0.1297 -0.6951 -0.7071
vn 0.1736 -0.6686 -0.7231
vn 0.2513 -0.9679 0
vn 0.1834 -0.983 0
vn 0.1341 -0.6956 -0.7058
vn 0.1892 -0.9819 0
vn 0.14 -0.6937 -0.7064
vn 0.1979 -0.9802 0
vn 0.1399 -0.6925 -0.7077
vn 0.198 -0.9802 0
vn 0.1365 -0.6933 -0.7076
vn 0.1932 -0.9811 0
vn -0.1618 -0.7313 -0.6625
vn -0.2161 -0.9763 0
vn 0.932 -0.3625 0
vn -0.6753 -0.0266 -0.737
vn -0.9992 -0.0393 0
vn -0.9619 0.2735 0
vn -0.3186 -0.5963 -0.7368
vn -0.2212 -0.6616 -0.7164
vn -0.2419 -0.6784 -0.6937
vn 0.2498 0.6674 -0.7015
vn 0.2805 0.6262 -0.7274
vn -0.2606 0.9654 0
vn 0.1041 0.7283 -0.6773
vn -0.7925 0.6099 0
vn 0.1415 0.9899 0
vn -0.3358 -0.9419 0
vn -0.317 -0.9484 0
vn -0.4712 -0.882 0
vn -0.507 0.8619 0
vn 0.3505 0.9365 0
vn 0.4087 0.9126 0
vn -0 -1 0
vn -0 -1 0
vn -0 -1 0
vn -0 -1 0
vn 0 1 -0
vn 0 1 -0
vn 0 1 -0
vn 0 1 -0
vn -1 0 -0
vn -1 0 -0
vn -1 0 -0
vn -1 0 -0
vn 1 0 -0
vn 1 0 -0
vn 1 0 -0
vn 1 0 -0
vn 0 -0 -1
vn 0 -0 -1
vn 0 -0 -1
vn 0 -0 -1
vn 0 -0 -1
vn 0 -0 -1
vn 0 -0 -1
vn 0 -0 -1
vn 0 -0 -1
vn 0 -0 -1
vn 0 -0 -1
vn 0 -0 -1
vn 0 -0 -1
vn 0 -0 -1
vn 0 -0 -1
vn 0 -0 -1
vn 0 -0 -1
vn 0 -0 -1
vn 0 -0 -1
vn 0 -0 -1
vn 0 -0 -1
vn 0 -0 -1
vn 0 -0 -1
vn 0 -0 -1
vn 0 -0 -1
vn 0 -0 -1
vn 0 -0 -1
vn 0 -0 -1
vn 0 -0 -1
vn 0 -0 -1
vn 0 -0 -1
vn 0 -0 -1
vn 0 -0 -1
vn 0 -0 -1
vn 0 -0 -1
vn 0 -0 -1
vn 0 -0 -1
vn 0 -0 -1
vn 0 -0 -1
vn 0 -0 -1
vn 0 -0 -1
vn 0 -0 -1
vn 0 -0 -1
vn 0 -0 -1
vn 0 -0 -1
vn 0 -0 -1
vn 0 -0 -1
vn 0 -0 -1
vn 0 -0 -1
vn 0 -0 -1
vn 0 -0 -1
vn 0 -0 -1
vn 0 -0 -1
vn 0 -0 -1
vn 0 -0 -1
vn 0 -0 -1
vn 0 -0 -1
vn 0 -0 -1
vn 0 -0 -1
vn 0 -0 -1
vn 0 -0 -1
vn 0 -0 -1
vn 0 -0 -1
vn 0 -0 -1
vn 0 -0 -1
vn 0 -0 -1
vn 0 -0 -1
vn 0 -0 -1
vn 0 -0 -1
vn 0 -0 -1
vn 0 -0 -1
vn 0 -0 -1
vn 0 -0 -1
vn 0 -0 -1
vn 0 -0 -1
vn 0 -0 -1
vn 0 -0 -1
vn 0 -0 -1
vn 0 -0 -1
vn 0 -0 -1
vn 0 -0 -1
vn 0 -0 -1
vn 0 -0 -1
vn 0 -0 -1
vn 0 -0 -1
vn 0 -0 -1
vn 0 -0 -1
vn 0 -0 -1
vn 0 -0 -1
vn 0 -0 -1
vn 0 -0 -1
vn 0 -0 -1
vn 0 -0 -1
vn 0 -0 -1
vn -0.5905 0.4545 -0.6668
vn -0.7925 0.6099 0
vn -0.9619 0.2735 0
vn -0.7164 0.2037 -0.6673
vn -0.9992 -0.0393 0
vn -0.7331 -0.0288 -0.6794
vn -0.9431 -0.3324 0
vn -0.6996 -0.2466 -0.6706
vn -0.7441 -0.6681 0
vn -0.5584 -0.5014 -0.6609
vn -0.4712 -0.882 0
vn -0.3457 -0.647 -0.6796
vn -0.317 -0.9484 0
vn -0.227 -0.6791 -0.698
vn -0.3358 -0.9419 0
vn -0.2326 -0.6526 -0.721
vn -0.5492 -0.8357 0
vn -0.3637 -0.5535 -0.7492
vn -0.8112 -0.5847 0.0024
vn -0.5353 -0.3858 -0.7514
vn -0.9777 -0.2098 0.0035
vn -0.634 -0.136 -0.7613
vn -0.9815 0.1913 0.0029
vn -0.6502 0.1267 -0.7491
vn -0.8109 0.5851 0.0018
vn -0.5188 0.3743 -0.7685
vn -0.4575 0.8892 0.0014
vn -0.2981 0.5794 -0.7585
vn -0.1364 0.9906 0.0014
vn -0.0924 0.6709 -0.7357
vn -0.014 0.9999 0
vn -0.0099 0.7071 -0.7071
vn -0.0085 0.9999 0
vn -0.006 0.7058 -0.7084
vn -0.0035 1 0
vn -0.0025 0.7073 -0.7069
vn -0.0015 1 0
vn -0.001 0.7064 -0.7077
vn -0.0002 1 0
vn -0.0002 0.7074 -0.7067
vn -0.0099 0.9999 0
vn -0.007 0.7089 -0.7053
vn -0.0099 0.9999 0
vn -0.007 0.7052 -0.7089
vn -0.0019 1 0
vn -0.0013 0.7071 -0.7071
vn 0.0008 1 0
vn 0.0006 0.7065 -0.7077
vn 0.1415 0.9899 0
vn 0.0953 0.6663 -0.7395
vn 0.4848 0.8746 0
vn 0.3145 0.5673 -0.7611
vn 0.8354 0.5496 0
vn 0.534 0.3513 -0.769
vn 0.9938 0.1107 0
vn 0.648 0.0721 -0.7582
vn 0.9387 -0.3445 0
vn 0.6024 -0.2211 -0.7669
vn 0.678 -0.735 0
vn 0.4398 -0.4768 -0.761
vn 0.3485 -0.9373 0
vn 0.2322 -0.6245 -0.7457
vn 0.1932 -0.9811 0
vn 0.1367 -0.6943 -0.7066
vn 0.198 -0.9802 0
vn 0.1401 -0.6937 -0.7065
vn 0.1979 -0.9802 0
vn 0.1398 -0.6925 -0.7078
vn 0.1892 -0.9819 0
vn 0.1335 -0.693 -0.7084
vn 0.1834 -0.983 0
vn 0.1297 -0.6951 -0.7071
vn 0 -0 -1
vn 0 -0 -1
vn 0.2513 -0.9679 0
vn 0.1814 -0.6989 -0.6918
vn 0 -0 -1
vn 0 -0 -1
vn 0.5301 -0.8479 0
vn 0.3991 -0.6383 -0.6582
vn 0.7737 -0.6335 0
vn 0.562 -0.4602 -0.6872
vn 0 -0 -1
vn 0 -0 -1
vn 0.932 -0.3625 0
vn 0.6999 -0.2723 -0.6603
vn 0.9999 0.0098 0
vn 0.739 0.0073 -0.6737
vn 0 -0 -1
vn 0 -0 -1
vn 0.9291 0.3698 0
vn 0.6959 0.277 -0.6625
vn 0.6774 0.7356 0
vn 0.5099 0.5538 -0.6582
vn 0 -0 -1
vn 0 -0 -1
vn 0.4087 0.9126 0
vn 0.2967 0.6624 -0.6878
vn 0.3505 0.9365 0
vn 0.2459 0.6568 -0.7128
vn 0 -0 -1
vn 0 -0 -1
vn 0.5328 0.8462 0
vn 0.3528 0.5603 -0.7494
vn 0.8059 0.592 0.0007
vn 0.5295 0.389 -0.7538
vn 0 -0 -1
vn 0 -0 -1
vn 0.9734 0.2292 0.0007
vn 0.637 0.15 -0.7561
vn 0.9852 -0.1714 0
vn 0.647 -0.1126 -0.7541
vn 0.8422 -0.539 0
vn 0.5528 -0.3538 -0.7545
vn 0 -0 -1
vn 0 -0 -1
vn 0 -0 -1
vn 0 -0 -1
vn 0.5692 -0.8222 0
vn 0.374 -0.5402 -0.7538
vn 0.2052 -0.9787 0
vn 0.1345 -0.6415 -0.7552
vn 0 -0 -1
vn 0 -0 -1
vn 0.0043 -1 0
vn 0.0031 -0.7071 -0.7071
vn 0 -0 -1
vn 0 -0 -1
vn 0.0024 -1 0
vn 0.0017 -0.7067 -0.7075
vn 0 -0 -1
vn 0 -0 -1
vn 0.0006 -1 0
vn 0.0004 -0.7071 -0.7071
vn 0 -0 -1
vn 0 -0 -1
vn 0.0003 -1 0
vn 0.0002 -0.707 -0.7071
vn 0 -0 -1
vn 0 -0 -1
vn 0 -0 -1
vn 0 -0 -1
vn -0.0005 -1 0
vn -0.0003 -0.707 -0.7072
vn 0 -0 -1
vn 0 -0 -1
vn -0.0024 -1 0
vn -0.0017 -0.7068 -0.7074
vn -0.0029 -1 0
vn -0.0021 -0.7073 -0.7069
vn -0.0035 -1 0
vn -0.0025 -0.7067 -0.7074
vn 0 -0 -1
vn 0 -0 -1
vn -0.2161 -0.9763 0
vn -0.141 -0.637 -0.7578
vn -0.5793 -0.8151 0
vn -0.3822 -0.5377 -0.7515
vn 0 -0 -1
vn 0 -0 -1
vn -0.855 -0.5186 0
vn -0.5559 -0.3372 -0.7598
vn 0 -0 -1
vn 0 -0 -1
vn -0.9938 -0.1107 0
vn -0.648 -0.0721 -0.7582
vn -0.9514 0.3079 0
vn -0.6215 0.2011 -0.7571
vn 0 -0 -1
vn 0 -0 -1
vn 0 -0 -1
vn 0 -0 -1
vn 0 -0 -1
vn 0 -0 -1
vn -0.7277 0.6858 0
vn -0.4705 0.4433 -0.7629
vn -0.3713 0.9285 0
vn -0.2434 0.6087 -0.7551
vn 0 -0 -1
vn 0 -0 -1
vn 0 -0 -1
vn 0 -0 -1
vn -0.1763 0.9843 0
vn -0.1246 0.6957 -0.7074
vn 0 -0 -1
vn 0 -0 -1
vn -0.1851 0.9827 0
vn -0.1313 0.6971 -0.7048
vn -0.1933 0.9811 0
vn -0.1366 0.6933 -0.7075
vn 0 -0 -1
vn 0 -0 -1
vn -0.1883 0.9821 0
vn -0.133 0.6937 -0.7078
vn -0.1861 0.9825 0
vn -0.1316 0.6949 -0.7069
vn 0 -0 -1
vn 0 -0 -1
vn -0.2606 0.9654 0
vn -0.1885 0.6983 -0.6905
vn -0.507 0.8619 0
vn -0.378 0.6426 -0.6665
f 156/156/156 155/155/155 154/154/154
f 157/157/157 156/156/156 154/154/154
f 3/3/3 2/2/2 1/1/1
f 4/4/4 3/3/3 1/1/1
f 3/3/3 84/84/84 2/2/2
f 10/10/10 4/4/4 1/1/1
f 84/84/84 85/85/85 2/2/2
f 85/85/85 84/84/84 83/83/83
f 11/11/11 10/10/10 1/1/1
f 33/33/33 10/10/10 11/11/11
f 86/86/86 85/85/85 83/83/83
f 32/32/32 33/33/33 11/11/11
f 6/6/6 33/33/33 32/32/32
f 34/34/34 32/32/32 11/11/11
f 5/5/5 6/6/6 32/32/32
f 34/34/34 5/5/5 32/32/32
f 7/7/7 6/6/6 5/5/5
f 12/12/12 34/34/34 11/11/11
f 34/34/34 12/12/12 5/5/5
f 12/12/12 11/11/11 1/1/1
f 5/5/5 12/12/12 9/9/9
f 1/1/1 9/9/9 12/12/12
f 8/8/8 7/7/7 5/5/5
f 9/9/9 8/8/8 5/5/5
f 8/8/8 31/31/31 7/7/7
f 9/9/9 31/31/31 8/8/8
f 31/31/31 30/30/30 7/7/7
f 31/31/31 9/9/9 30/30/30
f 9/9/9 1/1/1 30/30/30
f 30/30/30 27/27/27 7/7/7
f 30/30/30 29/29/29 27/27/27
f 29/29/29 30/30/30 1/1/1
f 29/29/29 28/28/28 27/27/27
f 28/28/28 29/29/29 148/148/148
f 29/29/29 1/1/1 141/141/141
f 29/29/29 141/141/141 148/148/148
f 141/141/141 140/140/140 148/148/148
f 141/141/141 1/1/1 140/140/140
f 140/140/140 149/149/149 148/148/148
f 140/140/140 1/1/1 139/139/139
f 140/140/140 139/139/139 149/149/149
f 2/2/2 139/139/139 1/1/1
f 139/139/139 150/150/150 149/149/149
f 139/139/139 38/38/38 150/150/150
f 139/139/139 2/2/2 38/38/38
f 38/38/38 35/35/35 150/150/150
f 37/37/37 38/38/38 2/2/2
f 38/38/38 37/37/37 35/35/35
f 85/85/85 37/37/37 2/2/2
f 37/37/37 36/36/36 35/35/35
f 85/85/85 86/86/86 37/37/37
f 37/37/37 136/136/136 36/36/36
f 86/86/86 136/136/136 37/37/37
f 136/136/136 137/137/137 36/36/36
f 138/138/138 137/137/137 136/136/136
f 39/39/39 138/138/138 136/136/136
f 146/146/146 138/138/138 39/39/39
f 136/136/136 86/86/86 62/62/62
f 23/23/23 146/146/146 39/39/39
f 62/62/62 40/40/40 136/136/136
f 40/40/40 39/39/39 136/136/136
f 146/146/146 23/23/23 24/24/24
f 151/151/151 146/146/146 24/24/24
f 22/22/22 23/23/23 39/39/39
f 40/40/40 22/22/22 39/39/39
f 24/24/24 23/23/23 21/21/21
f 23/23/23 22/22/22 21/21/21
f 151/151/151 24/24/24 79/79/79
f 79/79/79 24/24/24 21/21/21
f 144/144/144 151/151/151 79/79/79
f 62/62/62 59/59/59 40/40/40
f 144/144/144 79/79/79 80/80/80
f 59/59/59 135/135/135 40/40/40
f 40/40/40 135/135/135 22/22/22
f 101/101/101 144/144/144 80/80/80
f 135/135/135 76/76/76 22/22/22
f 22/22/22 76/76/76 73/73/73
f 62/62/62 61/61/61 59/59/59
f 86/86/86 61/61/61 62/62/62
f 61/61/61 60/60/60 59/59/59
f 74/74/74 22/22/22 73/73/73
f 74/74/74 73/73/73 72/72/72
f 60/60/60 61/61/61 122/122/122
f 123/123/123 60/60/60 122/122/122
f 75/75/75 74/74/74 72/72/72
f 75/75/75 72/72/72 153/153/153
f 74/74/74 97/97/97 22/22/22
f 97/97/97 74/74/74 75/75/75
f 97/97/97 21/21/21 22/22/22
f 143/143/143 75/75/75 153/153/153
f 143/143/143 153/153/153 152/152/152
f 96/96/96 97/97/97 75/75/75
f 143/143/143 96/96/96 75/75/75
f 95/95/95 21/21/21 97/97/97
f 98/98/98 95/95/95 97/97/97
f 98/98/98 97/97/97 96/96/96
f 95/95/95 94/94/94 21/21/21
f 99/99/99 98/98/98 96/96/96
f 94/94/94 78/78/78 21/21/21
f 78/78/78 79/79/79 21/21/21
f 94/94/94 93/93/93 78/78/78
f 79/79/79 78/78/78 77/77/77
f 93/93/93 77/77/77 78/78/78
f 80/80/80 79/79/79 77/77/77
f 93/93/93 92/92/92 77/77/77
f 80/80/80 77/77/77 100/100/100
f 101/101/101 80/80/80 100/100/100
f 102/102/102 101/101/101 100/100/100
f 92/92/92 91/91/91 77/77/77
f 77/77/77 91/91/91 100/100/100
f 92/92/92 90/90/90 91/91/91
f 102/102/102 100/100/100 103/103/103
f 100/100/100 91/91/91 103/103/103
f 104/104/104 102/102/102 103/103/103
f 90/90/90 87/87/87 91/91/91
f 90/90/90 89/89/89 87/87/87
f 103/103/103 91/91/91 105/105/105
f 104/104/104 103/103/103 105/105/105
f 91/91/91 87/87/87 105/105/105
f 106/106/106 104/104/104 105/105/105
f 89/89/89 88/88/88 87/87/87
f 105/105/105 87/87/87 88/88/88
f 89/89/89 134/134/134 88/88/88
f 106/106/106 105/105/105 107/107/107
f 107/107/107 105/105/105 88/88/88
f 108/108/108 106/106/106 107/107/107
f 134/134/134 133/133/133 88/88/88
f 133/133/133 134/134/134 41/41/41
f 107/107/107 88/88/88 25/25/25
f 108/108/108 107/107/107 25/25/25
f 88/88/88 133/133/133 25/25/25
f 26/26/26 108/108/108 25/25/25
f 42/42/42 133/133/133 41/41/41
f 25/25/25 133/133/133 42/42/42
f 42/42/42 41/41/41 14/14/14
f 17/17/17 26/26/26 25/25/25
f 15/15/15 42/42/42 14/14/14
f 15/15/15 14/14/14 13/13/13
f 25/25/25 42/42/42 20/20/20
f 42/42/42 15/15/15 20/20/20
f 20/20/20 17/17/17 25/25/25
f 16/16/16 15/15/15 13/13/13
f 15/15/15 16/16/16 20/20/20
f 16/16/16 13/13/13 19/19/19
f 16/16/16 19/19/19 20/20/20
f 20/20/20 19/19/19 17/17/17
f 13/13/13 18/18/18 19/19/19
f 19/19/19 18/18/18 17/17/17
f 96/96/96 143/143/143 142/142/142
f 142/142/142 143/143/143 152/152/152
f 47/47/47 96/96/96 142/142/142
f 99/99/99 96/96/96 47/47/47
f 48/48/48 99/99/99 47/47/47
f 67/67/67 142/142/142 152/152/152
f 67/67/67 47/47/47 142/142/142
f 66/66/66 67/67/67 152/152/152
f 49/49/49 48/48/48 47/47/47
f 67/67/67 66/66/66 65/65/65
f 50/50/50 49/49/49 47/47/47
f 71/71/71 49/49/49 50/50/50
f 68/68/68 67/67/67 65/65/65
f 68/68/68 65/65/65 45/45/45
f 70/70/70 71/71/71 50/50/50
f 44/44/44 71/71/71 70/70/70
f 68/68/68 69/69/69 67/67/67
f 69/69/69 47/47/47 67/67/67
f 69/69/69 68/68/68 45/45/45
f 50/50/50 47/47/47 43/43/43
f 70/70/70 50/50/50 43/43/43
f 47/47/47 69/69/69 43/43/43
f 43/43/43 44/44/44 70/70/70
f 45/45/45 44/44/44 43/43/43
f 69/69/69 46/46/46 43/43/43
f 46/46/46 45/45/45 43/43/43
f 46/46/46 69/69/69 45/45/45
f 53/53/53 52/52/52 51/51/51
f 53/53/53 82/82/82 52/52/52
f 82/82/82 81/81/81 52/52/52
f 54/54/54 53/53/53 51/51/51
f 82/82/82 145/145/145 81/81/81
f 82/82/82 53/53/53 145/145/145
f 53/53/53 54/54/54 145/145/145
f 145/145/145 147/147/147 81/81/81
f 54/54/54 51/51/51 57/57/57
f 54/54/54 57/57/57 145/145/145
f 51/51/51 56/56/56 57/57/57
f 57/57/57 56/56/56 55/55/55
f 57/57/57 58/58/58 145/145/145
f 58/58/58 57/57/57 55/55/55
f 147/147/147 145/145/145 110/110/110
f 58/58/58 55/55/55 63/63/63
f 58/58/58 63/63/63 145/145/145
f 145/145/145 63/63/63 110/110/110
f 55/55/55 64/64/64 63/63/63
f 111/111/111 147/147/147 110/110/110
f 64/64/64 132/132/132 63/63/63
f 111/111/111 110/110/110 109/109/109
f 132/132/132 131/131/131 63/63/63
f 63/63/63 131/131/131 110/110/110
f 112/112/112 111/111/111 109/109/109
f 132/132/132 130/130/130 131/131/131
f 110/110/110 131/131/131 129/129/129
f 130/130/130 129/129/129 131/131/131
f 109/109/109 110/110/110 129/129/129
f 130/130/130 128/128/128 129/129/129
f 112/112/112 109/109/109 113/113/113
f 109/109/109 129/129/129 113/113/113
f 114/114/114 112/112/112 113/113/113
f 128/128/128 127/127/127 129/129/129
f 129/129/129 127/127/127 113/113/113
f 128/128/128 126/126/126 127/127/127
f 126/126/126 125/125/125 127/127/127
f 125/125/125 113/113/113 127/127/127
f 126/126/126 124/124/124 125/125/125
f 114/114/114 113/113/113 115/115/115
f 124/124/124 121/121/121 125/125/125
f 125/125/125 121/121/121 113/113/113
f 121/121/121 115/115/115 113/113/113
f 124/124/124 123/123/123 121/121/121
f 116/116/116 114/114/114 115/115/115
f 123/123/123 122/122/122 121/121/121
f 121/121/121 122/122/122 115/115/115
f 116/116/116 115/115/115 117/117/117
f 122/122/122 117/117/117 115/115/115
f 118/118/118 116/116/116 117/117/117
f 122/122/122 61/61/61 117/117/117
f 118/118/118 117/117/117 119/119/119
f 61/61/61 119/119/119 117/117/117
f 120/120/120 118/118/118 119/119/119
f 86/86/86 119/119/119 61/61/61
f 120/120/120 119/119/119 83/83/83
f 119/119/119 86/86/86 83/83/83
f 160/160/160 159/159/159 158/158/158
f 161/161/161 160/160/160 158/158/158
f 164/164/164 163/163/163 162/162/162
f 165/165/165 164/164/164 162/162/162
f 168/168/168 167/167/167 166/166/166
f 169/169/169 168/168/168 166/166/166
f 172/172/172 171/171/171 170/170/170
f 173/173/173 172/172/172 170/170/170
f 170/170/170 171/171/171 336/336/336
f 174/174/174 172/172/172 173/173/173
f 171/171/171 337/337/337 336/336/336
f 175/175/175 174/174/174 173/173/173
f 336/336/336 337/337/337 223/223/223
f 176/176/176 174/174/174 175/175/175
f 337/337/337 222/222/222 223/223/223
f 177/177/177 176/176/176 175/175/175
f 223/223/223 222/222/222 215/215/215
f 178/178/178 176/176/176 177/177/177
f 222/222/222 214/214/214 215/215/215
f 179/179/179 178/178/178 177/177/177
f 215/215/215 214/214/214 212/212/212
f 193/193/193 178/178/178 179/179/179
f 214/214/214 213/213/213 212/212/212
f 192/192/192 193/193/193 179/179/179
f 212/212/212 213/213/213 211/211/211
f 194/194/194 193/193/193 192/192/192
f 213/213/213 210/210/210 211/211/211
f 195/195/195 194/194/194 192/192/192
f 211/211/211 210/210/210 191/191/191
f 196/196/196 194/194/194 195/195/195
f 210/210/210 190/190/190 191/191/191
f 197/197/197 196/196/196 195/195/195
f 191/191/191 190/190/190 188/188/188
f 198/198/198 196/196/196 197/197/197
f 190/190/190 189/189/189 188/188/188
f 199/199/199 198/198/198 197/197/197
f 188/188/188 189/189/189 227/227/227
f 181/181/181 198/198/198 199/199/199
f 189/189/189 226/226/226 227/227/227
f 180/180/180 181/181/181 199/199/199
f 227/227/227 226/226/226 225/225/225
f 182/182/182 181/181/181 180/180/180
f 226/226/226 224/224/224 225/225/225
f 183/183/183 182/182/182 180/180/180
f 225/225/225 224/224/224 217/217/217
f 340/340/340 182/182/182 183/183/183
f 224/224/224 216/216/216 217/217/217
f 341/341/341 340/340/340 183/183/183
f 217/217/217 216/216/216 187/187/187
f 346/346/346 340/340/340 341/341/341
f 216/216/216 186/186/186 187/187/187
f 347/347/347 346/346/346 341/341/341
f 187/187/187 186/186/186 184/184/184
f 352/352/352 346/346/346 347/347/347
f 186/186/186 185/185/185 184/184/184
f 353/353/353 352/352/352 347/347/347
f 184/184/184 185/185/185 209/209/209
f 358/358/358 352/352/352 353/353/353
f 185/185/185 208/208/208 209/209/209
f 359/359/359 358/358/358 353/353/353
f 209/209/209 208/208/208 207/207/207
f 364/364/364 358/358/358 359/359/359
f 208/208/208 206/206/206 207/207/207
f 365/365/365 364/364/364 359/359/359
f 207/207/207 206/206/206 204/204/204
f 370/370/370 364/364/364 365/365/365
f 206/206/206 205/205/205 204/204/204
f 371/371/371 370/370/370 365/365/365
f 204/204/204 205/205/205 203/203/203
f 379/379/379 370/370/370 371/371/371
f 205/205/205 202/202/202 203/203/203
f 378/378/378 379/379/379 371/371/371
f 203/203/203 202/202/202 200/200/200
f 380/380/380 379/379/379 378/378/378
f 202/202/202 201/201/201 200/200/200
f 381/381/381 380/380/380 378/378/378
f 200/200/200 201/201/201 221/221/221
f 454/454/454 380/380/380 381/381/381
f 201/201/201 220/220/220 221/221/221
f 455/455/455 454/454/454 381/381/381
f 221/221/221 220/220/220 218/218/218
f 461/461/461 454/454/454 455/455/455
f 220/220/220 219/219/219 218/218/218
f 460/460/460 461/461/461 455/455/455
f 218/218/218 219/219/219 445/445/445
f 403/403/403 461/461/461 460/460/460
f 219/219/219 444/444/444 445/445/445
f 402/402/402 403/403/403 460/460/460
f 445/445/445 444/444/444 437/437/437
f 404/404/404 403/403/403 402/402/402
f 444/444/444 436/436/436 437/437/437
f 405/405/405 404/404/404 402/402/402
f 437/437/437 436/436/436 435/435/435
f 449/449/449 404/404/404 405/405/405
f 436/436/436 434/434/434 435/435/435
f 448/448/448 449/449/449 405/405/405
f 435/435/435 434/434/434 433/433/433
f 443/443/443 449/449/449 448/448/448
f 434/434/434 432/432/432 433/433/433
f 442/442/442 443/443/443 448/448/448
f 433/433/433 432/432/432 427/427/427
f 229/229/229 443/443/443 442/442/442
f 432/432/432 426/426/426 427/427/427
f 228/228/228 229/229/229 442/442/442
f 427/427/427 426/426/426 417/417/417
f 230/230/230 229/229/229 228/228/228
f 426/426/426 416/416/416 417/417/417
f 231/231/231 230/230/230 228/228/228
f 417/417/417 416/416/416 263/263/263
f 251/251/251 230/230/230 231/231/231
f 416/416/416 262/262/262 263/263/263
f 250/250/250 251/251/251 231/231/231
f 263/263/263 262/262/262 259/259/259
f 252/252/252 251/251/251 250/250/250
f 262/262/262 258/258/258 259/259/259
f 253/253/253 252/252/252 250/250/250
f 259/259/259 258/258/258 255/255/255
f 256/256/256 252/252/252 253/253/253
f 258/258/258 254/254/254 255/255/255
f 257/257/257 256/256/256 253/253/253
f 255/255/255 254/254/254 249/249/249
f 260/260/260 256/256/256 257/257/257
f 254/254/254 248/248/248 249/249/249
f 261/261/261 260/260/260 257/257/257
f 249/249/249 248/248/248 245/245/245
f 237/237/237 260/260/260 261/261/261
f 248/248/248 244/244/244 245/245/245
f 236/236/236 237/237/237 261/261/261
f 245/245/245 244/244/244 242/242/242
f 238/238/238 237/237/237 236/236/236
f 244/244/244 243/243/243 242/242/242
f 239/239/239 238/238/238 236/236/236
f 242/242/242 243/243/243 423/423/423
f 395/395/395 238/238/238 239/239/239
f 243/243/243 422/422/422 423/423/423
f 394/394/394 395/395/395 239/239/239
f 423/423/423 422/422/422 409/409/409
f 247/247/247 395/395/395 394/394/394
f 422/422/422 408/408/408 409/409/409
f 246/246/246 247/247/247 394/394/394
f 409/409/409 408/408/408 399/399/399
f 241/241/241 247/247/247 246/246/246
f 408/408/408 398/398/398 399/399/399
f 240/240/240 241/241/241 246/246/246
f 399/399/399 398/398/398 391/391/391
f 233/233/233 241/241/241 240/240/240
f 398/398/398 390/390/390 391/391/391
f 232/232/232 233/233/233 240/240/240
f 391/391/391 390/390/390 387/387/387
f 234/234/234 233/233/233 232/232/232
f 390/390/390 386/386/386 387/387/387
f 235/235/235 234/234/234 232/232/232
f 387/387/387 386/386/386 235/235/235
f 386/386/386 234/234/234 235/235/235
f 266/266/266 265/265/265 264/264/264
f 267/267/267 266/266/266 264/264/264
f 264/264/264 265/265/265 465/465/465
f 268/268/268 266/266/266 267/267/267
f 265/265/265 464/464/464 465/465/465
f 269/269/269 268/268/268 267/267/267
f 465/465/465 464/464/464 463/463/463
f 270/270/270 268/268/268 269/269/269
f 464/464/464 462/462/462 463/463/463
f 271/271/271 270/270/270 269/269/269
f 463/463/463 462/462/462 459/459/459
f 272/272/272 270/270/270 271/271/271
f 462/462/462 458/458/458 459/459/459
f 273/273/273 272/272/272 271/271/271
f 459/459/459 458/458/458 457/457/457
f 274/274/274 272/272/272 273/273/273
f 458/458/458 456/456/456 457/457/457
f 275/275/275 274/274/274 273/273/273
f 457/457/457 456/456/456 453/453/453
f 276/276/276 274/274/274 275/275/275
f 456/456/456 452/452/452 453/453/453
f 277/277/277 276/276/276 275/275/275
f 453/453/453 452/452/452 451/451/451
f 278/278/278 276/276/276 277/277/277
f 452/452/452 450/450/450 451/451/451
f 279/279/279 278/278/278 277/277/277
f 451/451/451 450/450/450 447/447/447
f 280/280/280 278/278/278 279/279/279
f 450/450/450 446/446/446 447/447/447
f 281/281/281 280/280/280 279/279/279
f 447/447/447 446/446/446 441/441/441
f 282/282/282 280/280/280 281/281/281
f 446/446/446 440/440/440 441/441/441
f 283/283/283 282/282/282 281/281/281
f 441/441/441 440/440/440 439/439/439
f 284/284/284 282/282/282 283/283/283
f 440/440/440 438/438/438 439/439/439
f 285/285/285 284/284/284 283/283/283
f 439/439/439 438/438/438 431/431/431
f 286/286/286 284/284/284 285/285/285
f 438/438/438 430/430/430 431/431/431
f 287/287/287 286/286/286 285/285/285
f 431/431/431 430/430/430 429/429/429
f 288/288/288 286/286/286 287/287/287
f 430/430/430 428/428/428 429/429/429
f 289/289/289 288/288/288 287/287/287
f 429/429/429 428/428/428 425/425/425
f 290/290/290 288/288/288 289/289/289
f 428/428/428 424/424/424 425/425/425
f 291/291/291 290/290/290 289/289/289
f 425/425/425 424/424/424 421/421/421
f 292/292/292 290/290/290 291/291/291
f 424/424/424 420/420/420 421/421/421
f 293/293/293 292/292/292 291/291/291
f 421/421/421 420/420/420 419/419/419
f 294/294/294 292/292/292 293/293/293
f 420/420/420 418/418/418 419/419/419
f 295/295/295 294/294/294 293/293/293
f 419/419/419 418/418/418 415/415/415
f 296/296/296 294/294/294 295/295/295
f 418/418/418 414/414/414 415/415/415
f 297/297/297 296/296/296 295/295/295
f 415/415/415 414/414/414 413/413/413
f 298/298/298 296/296/296 297/297/297
f 414/414/414 412/412/412 413/413/413
f 299/299/299 298/298/298 297/297/297
f 413/413/413 412/412/412 411/411/411
f 300/300/300 298/298/298 299/299/299
f 412/412/412 410/410/410 411/411/411
f 301/301/301 300/300/300 299/299/299
f 411/411/411 410/410/410 407/407/407
f 302/302/302 300/300/300 301/301/301
f 410/410/410 406/406/406 407/407/407
f 303/303/303 302/302/302 301/301/301
f 407/407/407 406/406/406 401/401/401
f 304/304/304 302/302/302 303/303/303
f 406/406/406 400/400/400 401/401/401
f 305/305/305 304/304/304 303/303/303
f 401/401/401 400/400/400 397/397/397
f 306/306/306 304/304/304 305/305/305
f 400/400/400 396/396/396 397/397/397
f 307/307/307 306/306/306 305/305/305
f 397/397/397 396/396/396 393/393/393
f 308/308/308 306/306/306 307/307/307
f 396/396/396 392/392/392 393/393/393
f 309/309/309 308/308/308 307/307/307
f 393/393/393 392/392/392 389/389/389
f 310/310/310 308/308/308 309/309/309
f 392/392/392 388/388/388 389/389/389
f 311/311/311 310/310/310 309/309/309
f 389/389/389 388/388/388 385/385/385
f 312/312/312 310/310/310 311/311/311
f 388/388/388 384/384/384 385/385/385
f 313/313/313 312/312/312 311/311/311
f 385/385/385 384/384/384 383/383/383
f 314/314/314 312/312/312 313/313/313
f 384/384/384 382/382/382 383/383/383
f 315/315/315 314/314/314 313/313/313
f 383/383/383 382/382/382 377/377/377
f 316/316/316 314/314/314 315/315/315
f 382/382/382 376/376/376 377/377/377
f 317/317/317 316/316/316 315/315/315
f 377/377/377 376/376/376 375/375/375
f 318/318/318 316/316/316 317/317/317
f 376/376/376 374/374/374 375/375/375
f 319/319/319 318/318/318 317/317/317
f 375/375/375 374/374/374 373/373/373
f 320/320/320 318/318/318 319/319/319
f 374/374/374 372/372/372 373/373/373
f 321/321/321 320/320/320 319/319/319
f 373/373/373 372/372/372 369/369/369
f 322/322/322 320/320/320 321/321/321
f 372/372/372 368/368/368 369/369/369
f 323/323/323 322/322/322 321/321/321
f 369/369/369 368/368/368 367/367/367
f 324/324/324 322/322/322 323/323/323
f 368/368/368 366/366/366 367/367/367
f 325/325/325 324/324/324 323/323/323
f 367/367/367 366/366/366 363/363/363
f 326/326/326 324/324/324 325/325/325
f 366/366/366 362/362/362 363/363/363
f 327/327/327 326/326/326 325/325/325
f 363/363/363 362/362/362 361/361/361
f 328/328/328 326/326/326 327/327/327
f 362/362/362 360/360/360 361/361/361
f 329/329/329 328/328/328 327/327/327
f 361/361/361 360/360/360 357/357/357
f 330/330/330 328/328/328 329/329/329
f 360/360/360 356/356/356 357/357/357
f 331/331/331 330/330/330 329/329/329
f 357/357/357 356/356/356 355/355/355
f 332/332/332 330/330/330 331/331/331
f 356/356/356 354/354/354 355/355/355
f 333/333/333 332/332/332 331/331/331
f 355/355/355 354/354/354 351/351/351
f 334/334/334 332/332/332 333/333/333
f 354/354/354 350/350/350 351/351/351
f 335/335/335 334/334/334 333/333/333
f 351/351/351 350/350/350 349/349/349
f 338/338/338 334/334/334 335/335/335
f 350/350/350 348/348/348 349/349/349
f 339/339/339 338/338/338 335/335/335
f 349/349/349 348/348/348 345/345/345
f 342/342/342 338/338/338 339/339/339
f 348/348/348 344/344/344 345/345/345
f 343/343/343 342/342/342 339/339/339
f 345/345/345 344/344/344 343/343/343
f 344/344/344 342/342/342 343/343/343
