# VPXTOOL table OBJ file
# VPXTOOL OBJ file
# numVerts: 159 numFaces: 242
o bumperbulb1
v -2.675031 10.972583 -66.85015
v 1.815131 11.140111 -66.84906
v 1.780543 8.80646 -65.875984
v -2.554168 8.66214 -65.876976
v -2.711838 11.359141 -85.98785
v 1.841553 11.532256 -85.98784
v 1.875914 11.747432 -84.3002
v -2.762438 11.571088 -84.3002
v -2.389546 10.009149 -89.415474
v 1.622693 10.161693 -89.415474
v -1.797041 7.527308 -92.4173
v 1.220334 7.642028 -92.4173
v -0.973876 4.079301 -94.490814
v 0.661342 4.14147 -94.490814
v 0.000002 -0.000007 -95.247955
v 2.195878 3.573137 -94.490814
v 4.051927 6.593314 -92.4173
v 5.387891 8.767206 -89.415474
v 6.114585 9.949688 -85.98785
v 6.228676 10.135336 -84.3002
v 6.02871 9.611657 -66.84804
v 5.844024 7.610076 -65.87506
v 9.324228 6.619911 -66.84724
v 9.017646 5.255125 -65.87434
v 9.633178 6.980225 -84.3002
v 11.571117 2.762438 -84.3002
v 11.515389 2.749595 -68.193634
v 9.586451 6.94779 -68.19411
v 9.456729 6.85237 -85.98784
v 8.332833 6.037992 -89.415474
v 6.266649 4.540827 -92.4173
v 3.396111 2.460825 -94.490814
v 4.079317 0.973874 -94.490814
v 7.527332 1.79704 -92.4173
v 10.009174 2.389546 -89.415474
v 11.359171 2.711838 -85.98785
v 11.199973 2.620343 -66.84679
v 10.818259 2.100127 -65.87393
v 11.370378 -1.778151 -66.84675
v 10.971729 -1.374599 -65.8739
v -1.875912 -11.747435 -84.3002
v -6.228675 -10.135336 -84.30021
v -6.197765 -10.088246 -68.19495
v -1.865223 -11.692852 -68.196014
v 11.532282 -1.841546 -85.98784
v 11.747458 -1.875907 -84.3002
v 10.161716 -1.622686 -89.415474
v 7.642047 -1.220332 -92.4173
v 4.141485 -0.661342 -94.490814
v 3.573149 -2.195876 -94.490814
v 6.593329 -4.051919 -92.4173
v 8.767223 -5.387881 -89.415474
v 2.751583 -11.517326 -68.19716
v -1.815131 -11.140111 -66.84906
v 2.675032 -10.972583 -66.85015
v -9.633177 -6.980227 -84.3002
v -9.58645 -6.947791 -68.19411
v -6.02871 -9.611658 -66.84804
v -9.324231 -6.619914 -66.84724
v -11.515388 -2.749596 -68.193634
v -11.199975 -2.620345 -66.84679
v 10.090247 -6.199706 -68.19898
v 10.135352 -6.228648 -84.30021
v 6.980236 -9.633149 -84.3002
v 6.949786 -9.588389 -68.1982
v 11.69486 -1.867168 -68.19939
v 9.812721 -5.905909 -66.8519
v 11.373599 -1.778119 -66.85228
v 2.460835 -3.396108 -94.490814
v 4.540838 -6.266642 -92.4173
v 0.973881 -4.079315 -94.490814
v 1.797046 -7.527325 -92.4173
v 6.758191 -9.134574 -66.85115
v 2.762439 -11.571088 -84.30021
v 2.554169 -8.66214 -65.876976
v 6.500188 -7.199082 -65.87788
v 6.85238 -9.456699 -85.98784
v 2.71184 -11.359141 -85.987854
v 6.038 -8.332806 -89.41547
v 2.389548 -10.009149 -89.41547
v 8.76722 -5.387866 -89.41547
v 9.949704 -6.114558 -85.987854
v -0.661338 -4.141483 -94.490814
v -1.22033 -7.642042 -92.4173
v -2.195873 -3.57315 -94.490814
v -4.051921 -6.593327 -92.4173
v 9.45677 -4.64003 -65.878555
v 10.973803 -1.374573 -65.8789
v 11.532279 -1.841532 -85.98784
v 11.747455 -1.875892 -84.3002
v 10.161712 -1.622671 -89.41547
v -3.396105 -2.460838 -94.490814
v -6.266642 -4.540839 -92.4173
v -4.079312 -0.973887 -94.490814
v -7.527325 -1.797052 -92.4173
v -10.009171 -2.389559 -89.415474
v -8.332828 -6.038004 -89.415474
v -10.818261 -2.100129 -65.87393
v -9.017645 -5.255126 -65.87434
v -9.456728 -6.852371 -85.98784
v -11.35917 -2.71184 -85.987854
v -11.571116 -2.762439 -84.3002
v -8.332832 -6.037992 -89.41547
v -10.009173 -2.389547 -89.41547
v -11.203193 -2.620374 -66.85225
v -11.373596 1.778121 -66.85229
v -10.973801 1.374574 -65.8789
v -10.82033 -2.100152 -65.87887
v -11.747452 1.875894 -84.3002
v -10.135349 6.22865 -84.3002
v -10.090246 6.199707 -68.19898
v -11.694859 1.86717 -68.19939
v -11.359164 -2.711852 -85.98785
v -11.532278 1.841533 -85.98784
v -11.571111 -2.762451 -84.3002
v -10.16171 1.622673 -89.415474
v -7.642042 1.220318 -92.4173
v -4.14148 0.661329 -94.490814
v -3.573145 2.195862 -94.490814
v -6.593325 4.051906 -92.4173
v -8.767219 5.387867 -89.415474
v -9.949702 6.11456 -85.98785
v -9.812719 5.90591 -66.8519
v -9.456768 4.640032 -65.878555
v -6.758189 9.134575 -66.85115
v -6.500186 7.199084 -65.87788
v -6.980233 9.63315 -84.3002
v -2.751582 11.517327 -68.19716
v -6.949784 9.588389 -68.1982
v -6.852377 9.4567 -85.98784
v -6.037999 8.332808 -89.415474
v -4.540834 6.266628 -92.4173
v -2.46083 3.396095 -94.490814
v 1.865224 11.692852 -68.196014
v -11.519337 -2.749629 -68.19935
v -5.387891 -8.767206 -89.41547
v -6.114584 -9.949689 -85.987854
v -5.844024 -7.610077 -65.87506
v -1.780542 -8.806461 -65.87599
v -1.841551 -11.532257 -85.98784
v -1.622692 -10.161694 -89.41547
v 11.69091 -1.867205 -68.193596
v 6.197765 10.088245 -68.19494
v 7.209172 0.951673 -60.48414
v -7.105968 0.951673 -60.48414
v -6.62948 0.382061 -90.00342
v 6.732971 0.37966 -90.00282
v 4.540499 -6.266164 -92.417145
v 1.796909 -7.526752 -92.417145
v 2.389525 -10.009055 -89.41555
v 6.037943 -8.332727 -89.41554
v 6.592837 -4.051607 -92.417145
v 8.767137 -5.387814 -89.41555
v -4.051625 -6.592828 -92.417145
v -6.266184 -4.540493 -92.417145
v -8.332755 -6.037935 -89.41554
v -5.387839 -8.767122 -89.41555
v -1.220244 -7.641464 -92.417145
v -1.622675 -10.161596 -89.41554
vt 0.441006 0.54655498
vt 0.55542 0.544815
vt 0.554393 0.56016302
vt 0.444293 0.561652
vt 0.437231 0.720504
vt 0.55802 0.718661
vt 0.558759 0.700105
vt 0.436144 0.70197898
vt 0.445361 0.768372
vt 0.552499 0.76674002
vt 0.460936 0.824754
vt 0.54192 0.82352602
vt 0.482962 0.88262898
vt 0.526962 0.881963015
vt 0.509166 0.93400401
vt 0.568235 0.88805097
vt 0.617857 0.83476198
vt 0.652934 0.78164703
vt 0.671237 0.73550498
vt 0.673685 0.71722102
vt 0.662668 0.56057298
vt 0.657514 0.57244802
vt 0.746205 0.591354
vt 0.737793 0.59659702
vt 0.763173 0.75063097
vt 0.813576 0.795116
vt 0.802121 0.643291
vt 0.753587 0.60015
vt 0.759399 0.76838797
vt 0.731182 0.81075197
vt 0.677074 0.856713
vt 0.600464 0.89995402
vt 0.61874 0.91584301
vt 0.710547 0.88598198
vt 0.775312 0.84952301
vt 0.809062 0.81217402
vt 0.793294 0.632361
vt 0.782993 0.62886298
vt 0.796956 0.677265
vt 0.786374 0.66427898
vt 0.558759 0.700105
vt 0.673685 0.71722102
vt 0.667448 0.56775302
vt 0.556842 0.55116498
vt 0.812881 0.860098
vt 0.817439 0.84380198
vt 0.778775 0.891983986
vt 0.713276 0.918066025
vt 0.620309 0.933287024
vt 0.604976 0.949627995
vt 0.684992 0.948077977
vt 0.741299 0.93166202
vt 0.438842 0.55299097
vt 0.55542 0.544815
vt 0.441006 0.54655498
vt 0.763173 0.75063097
vt 0.753587 0.60015
vt 0.662668 0.56057298
vt 0.746205 0.591354
vt 0.802121 0.643291
vt 0.793294 0.632361
vt 0.252 0.607894
vt 0.242026 0.758573
vt 0.324846 0.72254598
vt 0.331724 0.572946
vt 0.211781 0.65239102
vt 0.259801 0.598729
vt 0.220758 0.64102602
vt 0.575107 0.962390006
vt 0.630111 0.971487999
vt 0.535252 0.96964699
vt 0.556997 0.984786987
vt 0.337133 0.56551498
vt 0.436144 0.70197898
vt 0.444293 0.561652
vt 0.344196 0.576693
vt 0.327588 0.74074697
vt 0.437231 0.720504
vt 0.34809 0.78628498
vt 0.445361 0.768372
vt 0.27566 0.81767201
vt 0.245994 0.776205
vt 0.491453 0.970308006
vt 0.476687 0.985996008
vt 0.450332 0.964272976
vt 0.401263 0.974936008
vt 0.269481 0.602934
vt 0.231505 0.63631397
vt 0.204843 0.82135099
vt 0.200266 0.80444002
vt 0.239078 0.85765499
vt 0.418117 0.952446997
vt 0.342096 0.95324999
vt 0.39971 0.936618984
vt 0.308184 0.92418599
vt 0.243715 0.90007901
vt 0.288614 0.938495994
vt 0.782993 0.62886298
vt 0.737793 0.59659702
vt 0.759399 0.76838797
vt 0.809062 0.81217402
vt 0.813576 0.795116
vt 0.731182 0.81075197
vt 0.775312 0.84952301
vt 0.22573 0.685888
vt 0.220758 0.64102602
vt 0.231505 0.63631397
vt 0.235883 0.671704
vt 0.200266 0.80444002
vt 0.242026 0.758573
vt 0.252 0.607894
vt 0.211781 0.65239102
vt 0.210152 0.86922997
vt 0.204843 0.82135099
vt 0.205665 0.85307902
vt 0.239078 0.85765499
vt 0.304781 0.892122984
vt 0.397941 0.91917902
vt 0.413123 0.90278703
vt 0.332554 0.86193699
vt 0.27566 0.81767201
vt 0.245994 0.776205
vt 0.259801 0.598729
vt 0.269481 0.602934
vt 0.337133 0.56551498
vt 0.344196 0.576693
vt 0.324846 0.72254598
vt 0.438842 0.55299097
vt 0.331724 0.572946
vt 0.327588 0.74074697
vt 0.34809 0.78628498
vt 0.387384 0.83825898
vt 0.442977 0.889945984
vt 0.556842 0.55116498
vt 0.216951 0.69958
vt 0.652934 0.78164703
vt 0.671237 0.73550498
vt 0.657514 0.57244802
vt 0.554393 0.56016302
vt 0.55802 0.718661
vt 0.552499 0.76674002
vt 0.805867 0.69052398
vt 0.667448 0.56775302
vt 0.693673 0.13874102
vt 0.318703 0.13873899
vt 0.320271 0.436504
vt 0.692283 0.43652403
vt 0.34809 0.78628498
vt 0.445361 0.768372
vt 0.437231 0.720504
vt 0.327588 0.74074697
vt 0.27566 0.81767201
vt 0.245994 0.776205
vt 0.652934 0.78164703
vt 0.731182 0.81075197
vt 0.759399 0.76838797
vt 0.671237 0.73550498
vt 0.552499 0.76674002
vt 0.55802 0.718661
vn -0.1669 0.7203 0.6732
vn 0.1121 0.7282 0.6761
vn 0.0634 0.3948 0.9166
vn -0.095 0.3942 0.9141
vn -0.2248 0.9418 -0.2499
vn 0.1527 0.9561 -0.2499
vn 0.1574 0.9856 -0.0619
vn -0.2317 0.9708 -0.062
vn -0.1998 0.8369 -0.5095
vn 0.1357 0.8497 -0.5095
vn -0.152 0.6366 -0.7561
vn 0.1032 0.6463 -0.7561
vn -0.0848 0.3555 -0.9308
vn 0.0576 0.3609 -0.9308
vn 0 0 -1
vn 0.1914 0.3113 -0.9308
vn 0.3427 0.5576 -0.7561
vn 0.4505 0.7331 -0.5095
vn 0.5069 0.8249 -0.2499
vn 0.5226 0.8503 -0.0619
vn 0.3915 0.6645 0.6365
vn 0.266 0.4201 0.8676
vn 0.665 0.5148 0.5409
vn 0.595 0.3956 0.6996
vn 0.8082 0.5856 -0.0619
vn 0.9708 0.2318 -0.0619
vn 0.9643 0.2333 0.1251
vn 0.7974 0.5854 0.1463
vn 0.7841 0.5681 -0.2499
vn 0.6968 0.5049 -0.5095
vn 0.53 0.384 -0.7561
vn 0.2959 0.2144 -0.9308
vn 0.3555 0.0848 -0.9308
vn 0.6366 0.152 -0.7561
vn 0.8369 0.1998 -0.5095
vn 0.9418 0.2248 -0.2499
vn 0.8913 0.2367 0.3868
vn 0.8612 0.1729 0.4779
vn 0.9559 0.0378 0.2913
vn 0.9267 0.0381 0.3739
vn -0.1574 -0.9856 -0.0619
vn -0.5226 -0.8503 -0.0619
vn -0.511 -0.8421 0.1724
vn -0.1529 -0.9701 0.1885
vn 0.9687 0.0368 -0.2454
vn 0.9974 0.0379 -0.0607
vn 0.8297 -0.0643 -0.5545
vn 0.6463 -0.1032 -0.7561
vn 0.3609 -0.0576 -0.9308
vn 0.3113 -0.1914 -0.9308
vn 0.5486 -0.2695 -0.7914
vn 0.7203 -0.2668 -0.6403
vn 0.2256 -0.9561 0.1869
vn -0.1121 -0.7282 0.6761
vn 0.1669 -0.7203 0.6732
vn -0.8082 -0.5856 -0.0619
vn -0.7974 -0.5854 0.1463
vn -0.3915 -0.6645 0.6365
vn -0.665 -0.5148 0.5409
vn -0.9001 -0.4156 0.1309
vn -0.8016 -0.3914 0.4519
vn 0.8403 -0.5232 0.1418
vn 0.8503 -0.5226 -0.062
vn 0.5856 -0.8082 -0.062
vn 0.5736 -0.8016 0.1682
vn 0.9296 -0.346 0.1267
vn 0.7107 -0.4694 0.5239
vn 0.8426 -0.3324 0.4237
vn 0.2144 -0.2959 -0.9308
vn 0.2962 -0.4088 -0.8632
vn 0.0848 -0.3555 -0.9308
vn 0.1172 -0.4911 -0.8632
vn 0.4442 -0.6395 0.6274
vn 0.2317 -0.9708 -0.062
vn 0.095 -0.3942 0.9141
vn 0.3104 -0.4136 0.8559
vn 0.5681 -0.7841 -0.2499
vn 0.2248 -0.9418 -0.2499
vn 0.5438 -0.7505 -0.3753
vn 0.2152 -0.9015 -0.3753
vn 0.7897 -0.4853 -0.3753
vn 0.8249 -0.5069 -0.2499
vn -0.0576 -0.3609 -0.9308
vn -0.0796 -0.4986 -0.8632
vn -0.1914 -0.3113 -0.9308
vn -0.2644 -0.4302 -0.8632
vn 0.6488 -0.3609 0.67
vn 0.7606 -0.3166 0.5668
vn 0.9091 -0.3367 -0.2454
vn 0.936 -0.3467 -0.0608
vn 0.8715 -0.3228 -0.3691
vn -0.2959 -0.2144 -0.9308
vn -0.5266 -0.3104 -0.7914
vn -0.3555 -0.0848 -0.9308
vn -0.6366 -0.152 -0.7561
vn -0.8224 -0.1271 -0.5545
vn -0.6979 -0.3207 -0.6403
vn -0.709 -0.3644 0.6038
vn -0.595 -0.3956 0.6996
vn -0.7841 -0.5681 -0.2499
vn -0.8809 -0.4047 -0.2454
vn -0.907 -0.4167 -0.0607
vn -0.7505 -0.5438 -0.3753
vn -0.8445 -0.388 -0.3691
vn -0.9564 -0.0377 0.2897
vn -0.9138 0.1657 0.3709
vn -0.8778 0.1122 0.4656
vn -0.9264 -0.0381 0.3747
vn -0.9856 0.1574 -0.062
vn -0.8503 0.5226 -0.062
vn -0.8403 0.5232 0.1418
vn -0.9796 0.1586 0.1232
vn -0.9687 -0.0368 -0.2454
vn -0.9561 0.1527 -0.2499
vn -0.9974 -0.0379 -0.0608
vn -0.8497 0.1357 -0.5095
vn -0.6463 0.1032 -0.7561
vn -0.3609 0.0576 -0.9308
vn -0.3113 0.1914 -0.9308
vn -0.5576 0.3427 -0.7561
vn -0.7331 0.4505 -0.5095
vn -0.8249 0.5069 -0.2499
vn -0.7107 0.4694 0.5239
vn -0.6488 0.3609 0.67
vn -0.4442 0.6395 0.6274
vn -0.3104 0.4136 0.8559
vn -0.5856 0.8082 -0.062
vn -0.2256 0.9561 0.1869
vn -0.5736 0.8016 0.1682
vn -0.5681 0.7841 -0.2499
vn -0.5049 0.6968 -0.5095
vn -0.384 0.53 -0.7561
vn -0.2144 0.2959 -0.9308
vn 0.1529 0.9701 0.1885
vn -0.9927 -0.0379 0.1145
vn -0.4853 -0.7897 -0.3753
vn -0.5069 -0.8249 -0.2499
vn -0.266 -0.4201 0.8676
vn -0.0634 -0.3948 0.9166
vn -0.1527 -0.9561 -0.2499
vn -0.1462 -0.9153 -0.3753
vn 0.9926 0.0379 0.1148
vn 0.511 0.8421 0.1724
vn 0.0001 0.9998 -0.0193
vn 0.0001 0.9998 -0.0193
vn 0.0001 0.9998 -0.0193
vn 0.0001 0.9998 -0.0193
vn 0.447 -0.6169 -0.6477
vn 0.1769 -0.741 -0.6477
vn 0.1769 -0.741 -0.6477
vn 0.447 -0.6169 -0.6477
vn 0.5633 -0.522 -0.6404
vn 0.5633 -0.522 -0.6404
vn -0.3989 -0.6491 -0.6477
vn -0.522 -0.5633 -0.6404
vn -0.522 -0.5633 -0.6404
vn -0.3989 -0.6491 -0.6477
vn -0.1201 -0.7523 -0.6477
vn -0.1201 -0.7523 -0.6477
f 146/146/146 145/145/145 144/144/144
f 147/147/147 146/146/146 144/144/144
f 3/3/3 2/2/2 1/1/1
f 4/4/4 3/3/3 1/1/1
f 3/3/3 22/22/22 2/2/2
f 4/4/4 1/1/1 125/125/125
f 126/126/126 4/4/4 125/125/125
f 22/22/22 21/21/21 2/2/2
f 22/22/22 24/24/24 21/21/21
f 126/126/126 125/125/125 123/123/123
f 124/124/124 126/126/126 123/123/123
f 24/24/24 23/23/23 21/21/21
f 24/24/24 38/38/38 23/23/23
f 124/124/124 123/123/123 106/106/106
f 107/107/107 124/124/124 106/106/106
f 108/108/108 107/107/107 105/105/105
f 107/107/107 106/106/106 105/105/105
f 105/105/105 106/106/106 135/135/135
f 106/106/106 123/123/123 112/112/112
f 106/106/106 112/112/112 135/135/135
f 123/123/123 125/125/125 111/111/111
f 123/123/123 111/111/111 112/112/112
f 112/112/112 109/109/109 135/135/135
f 112/112/112 111/111/111 109/109/109
f 109/109/109 115/115/115 135/135/135
f 115/115/115 109/109/109 113/113/113
f 125/125/125 129/129/129 111/111/111
f 125/125/125 1/1/1 129/129/129
f 109/109/109 114/114/114 113/113/113
f 1/1/1 128/128/128 129/129/129
f 1/1/1 2/2/2 128/128/128
f 113/113/113 114/114/114 96/96/96
f 111/111/111 110/110/110 109/109/109
f 109/109/109 110/110/110 114/114/114
f 129/129/129 127/127/127 111/111/111
f 127/127/127 110/110/110 111/111/111
f 129/129/129 128/128/128 127/127/127
f 110/110/110 122/122/122 114/114/114
f 110/110/110 127/127/127 122/122/122
f 2/2/2 134/134/134 128/128/128
f 2/2/2 21/21/21 134/134/134
f 128/128/128 8/8/8 127/127/127
f 21/21/21 143/143/143 134/134/134
f 21/21/21 23/23/23 143/143/143
f 134/134/134 7/7/7 128/128/128
f 7/7/7 8/8/8 128/128/128
f 134/134/134 143/143/143 7/7/7
f 127/127/127 8/8/8 130/130/130
f 127/127/127 130/130/130 122/122/122
f 8/8/8 7/7/7 5/5/5
f 8/8/8 5/5/5 130/130/130
f 114/114/114 122/122/122 116/116/116
f 114/114/114 116/116/116 96/96/96
f 122/122/122 130/130/130 121/121/121
f 122/122/122 121/121/121 116/116/116
f 130/130/130 5/5/5 131/131/131
f 130/130/130 131/131/131 121/121/121
f 96/96/96 116/116/116 95/95/95
f 116/116/116 121/121/121 117/117/117
f 116/116/116 117/117/117 95/95/95
f 97/97/97 96/96/96 93/93/93
f 96/96/96 95/95/95 93/93/93
f 121/121/121 120/120/120 117/117/117
f 121/121/121 131/131/131 120/120/120
f 95/95/95 117/117/117 94/94/94
f 93/93/93 95/95/95 92/92/92
f 95/95/95 94/94/94 92/92/92
f 117/117/117 120/120/120 118/118/118
f 117/117/117 118/118/118 94/94/94
f 93/93/93 92/92/92 85/85/85
f 86/86/86 93/93/93 85/85/85
f 92/92/92 94/94/94 15/15/15
f 85/85/85 92/92/92 15/15/15
f 94/94/94 118/118/118 15/15/15
f 86/86/86 85/85/85 83/83/83
f 83/83/83 85/85/85 15/15/15
f 84/84/84 86/86/86 83/83/83
f 120/120/120 119/119/119 118/118/118
f 118/118/118 119/119/119 15/15/15
f 84/84/84 83/83/83 71/71/71
f 71/71/71 83/83/83 15/15/15
f 72/72/72 84/84/84 71/71/71
f 120/120/120 132/132/132 119/119/119
f 131/131/131 132/132/132 120/120/120
f 72/72/72 71/71/71 69/69/69
f 69/69/69 71/71/71 15/15/15
f 70/70/70 72/72/72 69/69/69
f 70/70/70 69/69/69 50/50/50
f 50/50/50 69/69/69 15/15/15
f 51/51/51 70/70/70 50/50/50
f 132/132/132 133/133/133 119/119/119
f 119/119/119 133/133/133 15/15/15
f 51/51/51 50/50/50 49/49/49
f 49/49/49 50/50/50 15/15/15
f 48/48/48 51/51/51 49/49/49
f 52/52/52 51/51/51 48/48/48
f 47/47/47 52/52/52 48/48/48
f 48/48/48 49/49/49 33/33/33
f 33/33/33 49/49/49 15/15/15
f 47/47/47 48/48/48 34/34/34
f 34/34/34 48/48/48 33/33/33
f 35/35/35 47/47/47 34/34/34
f 45/45/45 47/47/47 35/35/35
f 34/34/34 33/33/33 32/32/32
f 32/32/32 33/33/33 15/15/15
f 35/35/35 34/34/34 31/31/31
f 31/31/31 34/34/34 32/32/32
f 36/36/36 45/45/45 35/35/35
f 46/46/46 45/45/45 36/36/36
f 31/31/31 32/32/32 16/16/16
f 16/16/16 32/32/32 15/15/15
f 30/30/30 35/35/35 31/31/31
f 36/36/36 35/35/35 30/30/30
f 17/17/17 31/31/31 16/16/16
f 30/30/30 31/31/31 17/17/17
f 14/14/14 16/16/16 15/15/15
f 17/17/17 16/16/16 14/14/14
f 13/13/13 14/14/14 15/15/15
f 133/133/133 13/13/13 15/15/15
f 12/12/12 17/17/17 14/14/14
f 14/14/14 13/13/13 12/12/12
f 13/13/13 133/133/133 11/11/11
f 13/13/13 11/11/11 12/12/12
f 133/133/133 132/132/132 11/11/11
f 18/18/18 17/17/17 12/12/12
f 18/18/18 30/30/30 17/17/17
f 10/10/10 12/12/12 11/11/11
f 10/10/10 18/18/18 12/12/12
f 9/9/9 11/11/11 132/132/132
f 9/9/9 10/10/10 11/11/11
f 131/131/131 9/9/9 132/132/132
f 5/5/5 9/9/9 131/131/131
f 5/5/5 6/6/6 9/9/9
f 6/6/6 10/10/10 9/9/9
f 7/7/7 6/6/6 5/5/5
f 19/19/19 18/18/18 10/10/10
f 6/6/6 19/19/19 10/10/10
f 29/29/29 30/30/30 18/18/18
f 19/19/19 29/29/29 18/18/18
f 29/29/29 36/36/36 30/30/30
f 7/7/7 20/20/20 6/6/6
f 20/20/20 19/19/19 6/6/6
f 143/143/143 20/20/20 7/7/7
f 20/20/20 25/25/25 19/19/19
f 25/25/25 20/20/20 143/143/143
f 25/25/25 29/29/29 19/19/19
f 26/26/26 36/36/36 29/29/29
f 25/25/25 26/26/26 29/29/29
f 26/26/26 46/46/46 36/36/36
f 28/28/28 25/25/25 143/143/143
f 23/23/23 28/28/28 143/143/143
f 27/27/27 26/26/26 25/25/25
f 46/46/46 26/26/26 27/27/27
f 28/28/28 27/27/27 25/25/25
f 142/142/142 46/46/46 27/27/27
f 39/39/39 142/142/142 27/27/27
f 23/23/23 37/37/37 28/28/28
f 37/37/37 27/27/27 28/28/28
f 37/37/37 39/39/39 27/27/27
f 38/38/38 37/37/37 23/23/23
f 40/40/40 39/39/39 37/37/37
f 38/38/38 40/40/40 37/37/37
f 43/43/43 42/42/42 41/41/41
f 41/41/41 42/42/42 140/140/140
f 56/56/56 42/42/42 43/43/43
f 42/42/42 137/137/137 140/140/140
f 42/42/42 56/56/56 137/137/137
f 140/140/140 137/137/137 141/141/141
f 140/140/140 141/141/141 80/80/80
f 137/137/137 136/136/136 141/141/141
f 78/78/78 140/140/140 80/80/80
f 41/41/41 140/140/140 78/78/78
f 78/78/78 80/80/80 79/79/79
f 137/137/137 100/100/100 136/136/136
f 56/56/56 100/100/100 137/137/137
f 100/100/100 103/103/103 136/136/136
f 101/101/101 104/104/104 103/103/103
f 100/100/100 101/101/101 103/103/103
f 102/102/102 101/101/101 100/100/100
f 56/56/56 102/102/102 100/100/100
f 60/60/60 102/102/102 56/56/56
f 57/57/57 60/60/60 56/56/56
f 57/57/57 56/56/56 43/43/43
f 61/61/61 60/60/60 57/57/57
f 59/59/59 61/61/61 57/57/57
f 59/59/59 57/57/57 43/43/43
f 98/98/98 61/61/61 59/59/59
f 99/99/99 98/98/98 59/59/59
f 99/99/99 59/59/59 58/58/58
f 58/58/58 59/59/59 43/43/43
f 138/138/138 99/99/99 58/58/58
f 58/58/58 43/43/43 44/44/44
f 44/44/44 43/43/43 41/41/41
f 138/138/138 58/58/58 54/54/54
f 54/54/54 58/58/58 44/44/44
f 139/139/139 138/138/138 54/54/54
f 44/44/44 41/41/41 53/53/53
f 54/54/54 44/44/44 53/53/53
f 139/139/139 54/54/54 55/55/55
f 55/55/55 54/54/54 53/53/53
f 75/75/75 139/139/139 55/55/55
f 41/41/41 74/74/74 53/53/53
f 74/74/74 41/41/41 78/78/78
f 75/75/75 55/55/55 73/73/73
f 76/76/76 75/75/75 73/73/73
f 55/55/55 53/53/53 65/65/65
f 73/73/73 55/55/55 65/65/65
f 53/53/53 74/74/74 64/64/64
f 65/65/65 53/53/53 64/64/64
f 74/74/74 78/78/78 77/77/77
f 64/64/64 74/74/74 77/77/77
f 77/77/77 78/78/78 79/79/79
f 77/77/77 79/79/79 81/81/81
f 82/82/82 77/77/77 81/81/81
f 64/64/64 77/77/77 82/82/82
f 82/82/82 81/81/81 91/91/91
f 89/89/89 82/82/82 91/91/91
f 63/63/63 82/82/82 89/89/89
f 63/63/63 64/64/64 82/82/82
f 90/90/90 63/63/63 89/89/89
f 65/65/65 64/64/64 62/62/62
f 64/64/64 63/63/63 62/62/62
f 62/62/62 63/63/63 90/90/90
f 73/73/73 65/65/65 62/62/62
f 66/66/66 62/62/62 90/90/90
f 67/67/67 73/73/73 62/62/62
f 67/67/67 62/62/62 66/66/66
f 76/76/76 73/73/73 67/67/67
f 68/68/68 67/67/67 66/66/66
f 87/87/87 76/76/76 67/67/67
f 87/87/87 67/67/67 68/68/68
f 88/88/88 87/87/87 68/68/68
f 150/150/150 149/149/149 148/148/148
f 151/151/151 150/150/150 148/148/148
f 151/151/151 148/148/148 152/152/152
f 153/153/153 151/151/151 152/152/152
f 150/150/150 159/159/159 149/149/149
f 159/159/159 158/158/158 149/149/149
f 159/159/159 157/157/157 158/158/158
f 157/157/157 154/154/154 158/158/158
f 157/157/157 156/156/156 154/154/154
f 156/156/156 155/155/155 154/154/154
