# VPXTOOL table OBJ file
# VPXTOOL OBJ file
# numVerts: 209 numFaces: 174
o sw18p
v 0.127991 1.828869 -0.960883
v 0.304013 2.02 -0.979708
v 0.127991 2.02 -0.979708
v 0.304013 1.828869 -0.960883
v 0.304013 1.645082 -0.905132
v 0.127991 1.645082 -0.905132
v 0.127991 1.475704 -0.814597
v 0.304013 1.475704 -0.814597
v 0.304013 1.327242 -0.692758
v 0.127991 1.327242 -0.692758
v 0.127991 1.205403 -0.544296
v 0.304013 1.205403 -0.544296
v 0.304013 1.114868 -0.374918
v 0.127991 1.114868 -0.374918
v 0.127991 1.059117 -0.191131
v 0.304013 1.059117 -0.191131
v 0.304013 1.040293 -0
v 0.127991 1.040293 0
v 0.127991 1.059117 0.191131
v 0.304013 1.040293 -0
v 0.127991 1.040293 0
v 0.304013 1.059117 0.191131
v 0.304013 1.114868 0.374918
v 0.127991 1.114868 0.374918
v 0.127991 1.205403 0.544296
v 0.304013 1.205403 0.544296
v 0.304013 1.327242 0.692758
v 0.127991 1.327242 0.692758
v 0.127991 1.475704 0.814597
v 0.304013 1.475704 0.814597
v 0.304013 1.645082 0.905132
v 0.127991 1.645082 0.905132
v 0.127991 1.828869 0.960883
v 0.304013 1.828869 0.960883
v 0.304013 2.02 0.979708
v 0.127991 2.02 0.979708
v 0.127991 2.211132 0.960883
v 0.304013 2.211132 0.960883
v 0.304013 2.394918 0.905132
v 0.127991 2.394918 0.905132
v 0.127991 2.564297 0.814597
v 0.304013 2.564297 0.814597
v 0.304013 2.712758 0.692758
v 0.127991 2.712758 0.692758
v 0.127991 2.834597 0.544296
v 0.304013 2.834597 0.544296
v 0.304013 2.925132 0.374918
v 0.127991 2.925132 0.374918
v 0.127991 2.980883 0.191131
v 0.304013 2.980883 0.191131
v 0.304013 2.999708 -0
v 0.127991 2.999708 0
v 0.127991 2.980883 -0.191131
v 0.304013 2.980883 -0.191131
v 0.304013 2.925132 -0.374918
v 0.127991 2.925132 -0.374918
v 0.127991 2.834597 -0.544296
v 0.304013 2.834597 -0.544296
v 0.304013 2.712758 -0.692758
v 0.127991 2.712758 -0.692758
v 0.127991 2.564297 -0.814597
v 0.304013 2.564297 -0.814597
v 0.304013 2.394918 -0.905132
v 0.127991 2.394918 -0.905132
v 0.127991 2.211132 -0.960883
v 0.304013 2.211132 -0.960883
v 0.304013 2.02 -0
v 0.304013 2.02 -0.979708
v 0.304013 1.828869 -0.960883
v 0.304013 1.645082 -0.905132
v 0.304013 1.475704 -0.814597
v 0.304013 1.327242 -0.692758
v 0.304013 1.205403 -0.544296
v 0.304013 1.114868 -0.374918
v 0.304013 1.059117 -0.191131
v 0.304013 1.040293 -0
v 0.304013 1.059117 0.191131
v 0.304013 1.114868 0.374918
v 0.304013 1.205403 0.544296
v 0.304013 1.327242 0.692758
v 0.304013 1.475704 0.814597
v 0.304013 1.645082 0.905132
v 0.304013 1.828869 0.960883
v 0.304013 2.02 0.979708
v 0.304013 2.211132 0.960883
v 0.304013 2.394918 0.905132
v 0.304013 2.564297 0.814597
v 0.304013 2.712758 0.692758
v 0.304013 2.834597 0.544296
v 0.304013 2.925132 0.374918
v 0.304013 2.980883 0.191131
v 0.304013 2.999708 -0
v 0.304013 2.980883 -0.191131
v 0.304013 2.925132 -0.374918
v 0.304013 2.834597 -0.544296
v 0.304013 2.712758 -0.692758
v 0.304013 2.564297 -0.814597
v 0.304013 2.394918 -0.905132
v 0.304013 2.211132 -0.960883
v 0.127991 2.02 -0
v 0.127991 1.828869 -0.960883
v 0.127991 2.02 -0.979708
v 0.127991 1.645082 -0.905132
v 0.127991 1.475704 -0.814597
v 0.127991 1.327242 -0.692758
v 0.127991 1.205403 -0.544296
v 0.127991 1.114868 -0.374918
v 0.127991 1.059117 -0.191131
v 0.127991 1.040293 0
v 0.127991 1.059117 0.191131
v 0.127991 1.114868 0.374918
v 0.127991 1.205403 0.544296
v 0.127991 1.327242 0.692758
v 0.127991 1.475704 0.814597
v 0.127991 1.645082 0.905132
v 0.127991 1.828869 0.960883
v 0.127991 2.02 0.979708
v 0.127991 2.211132 0.960883
v 0.127991 2.394918 0.905132
v 0.127991 2.564297 0.814597
v 0.127991 2.712758 0.692758
v 0.127991 2.834597 0.544296
v 0.127991 2.925132 0.374918
v 0.127991 2.980883 0.191131
v 0.127991 2.999708 0
v 0.127991 2.980883 -0.191131
v 0.127991 2.925132 -0.374918
v 0.127991 2.834597 -0.544296
v 0.127991 2.712758 -0.692758
v 0.127991 2.564297 -0.814597
v 0.127991 2.394918 -0.905132
v 0.127991 2.211132 -0.960883
v 0.127991 2.380266 -0.4
v 0.088 -0.180266 -0.4
v 0.127991 -0.180266 -0.4
v 0.088 2.380266 -0.4
v 0.127991 2.380266 0.4
v 0.088 2.380266 -0.4
v 0.127991 2.380266 -0.4
v 0.088 2.380266 0.4
v 0.088 -0.180266 0.4
v 0.088 2.380266 0.4
v 0.127991 2.380266 0.4
v 0.127991 -0.180266 0.4
v 0.127991 2.380266 -0.4
v 0.127991 -0.180266 0.4
v 0.127991 2.380266 0.4
v 0.127991 -0.180266 -0.4
v 0.088 2.380266 -0.4
v 0.088 2.380266 0.4
v 0.088 -0.180266 0.4
v 0.088 -0.180266 -0.4
v 0.304013 1.935809 -0.203254
v 0.344093 2.02 -0
v 0.304013 2.02 -0.220001
v 0.304013 1.864436 -0.155564
v 0.304013 1.816746 -0.084191
v 0.304013 1.799999 -0
v 0.304013 1.816746 0.084191
v 0.304013 1.864436 0.155564
v 0.304013 1.935809 0.203254
v 0.304013 2.02 0.220001
v 0.304013 2.104191 0.203254
v 0.304013 2.175564 0.155564
v 0.304013 2.223254 0.084191
v 0.304013 2.240001 -0
v 0.304013 2.223254 -0.084191
v 0.304013 2.175564 -0.155564
v 0.304013 2.104191 -0.203254
v -0.024 3.12 -0.42
v -0.264 0.98 -0.42
v -0.024 0.98 -0.42
v -0.264 3.12 -0.42
v -0.024 3.12 0.42
v -0.264 3.12 -0.42
v -0.024 3.12 -0.42
v -0.264 3.12 0.42
v -0.264 0.98 0.42
v -0.264 3.12 0.42
v -0.024 3.12 0.42
v -0.024 0.98 0.42
v -0.024 3.12 -0.42
v -0.024 0.98 0.42
v -0.024 3.12 0.42
v -0.024 0.98 -0.42
v -0.264 0.98 0.42
v -0.024 0.98 0.42
v -0.264 0.98 -0.42
v -0.024 0.98 -0.42
v -0.264 3.14 -0.44
v -0.344 -0.18 -0.44
v -0.264 -0.18 -0.44
v -0.344 3.14 -0.44
v -0.264 3.14 0.44
v -0.344 3.14 -0.44
v -0.264 3.14 -0.44
v -0.344 3.14 0.44
v -0.344 -0.18 0.44
v -0.344 3.14 0.44
v -0.264 3.14 0.44
v -0.264 -0.18 0.44
v -0.264 3.14 -0.44
v -0.264 -0.18 0.44
v -0.264 3.14 0.44
v -0.264 -0.18 -0.44
v -0.344 3.14 -0.44
v -0.344 3.14 0.44
v -0.344 -0.18 0.44
v -0.344 -0.18 -0.44
vt 0.21875 0.37037504
vt 0.25 0.40162504
vt 0.25 0.37037504
vt 0.21875 0.40162504
vt 0.1875 0.40162504
vt 0.1875 0.37037504
vt 0.15625 0.37037504
vt 0.15625 0.40162504
vt 0.125 0.40162504
vt 0.125 0.37037504
vt 0.09375 0.37037504
vt 0.09375 0.40162504
vt 0.0625 0.40162504
vt 0.0625 0.37037504
vt 0.03125 0.37037504
vt 0.03125 0.40162504
vt 0 0.40162504
vt 0 0.37037504
vt 0.96875 0.37037504
vt 1 0.40162504
vt 1 0.37037504
vt 0.96875 0.40162504
vt 0.9375 0.40162504
vt 0.9375 0.37037504
vt 0.90625 0.37037504
vt 0.90625 0.40162504
vt 0.875 0.40162504
vt 0.875 0.37037504
vt 0.84375 0.37037504
vt 0.84375 0.40162504
vt 0.8125 0.40162504
vt 0.8125 0.37037504
vt 0.78125 0.37037504
vt 0.78125 0.40162504
vt 0.75 0.40162504
vt 0.75 0.37037504
vt 0.71875 0.37037504
vt 0.71875 0.40162504
vt 0.6875 0.40162504
vt 0.6875 0.37037504
vt 0.65625 0.37037504
vt 0.65625 0.40162504
vt 0.625 0.40162504
vt 0.625 0.37037504
vt 0.59375 0.37037504
vt 0.59375 0.40162504
vt 0.5625 0.40162504
vt 0.5625 0.37037504
vt 0.53125 0.37037504
vt 0.53125 0.40162504
vt 0.5 0.40162504
vt 0.5 0.37037504
vt 0.46875 0.37037504
vt 0.46875 0.40162504
vt 0.4375 0.40162504
vt 0.4375 0.37037504
vt 0.40625 0.37037504
vt 0.40625 0.40162504
vt 0.375 0.40162504
vt 0.375 0.37037504
vt 0.34375 0.37037504
vt 0.34375 0.40162504
vt 0.3125 0.40162504
vt 0.3125 0.37037504
vt 0.28125 0.37037504
vt 0.28125 0.40162504
vt 0.350544 0.708268
vt 0.640792 0.708268
vt 0.635215 0.65164298
vt 0.618699 0.59719402
vt 0.591877 0.547014
vt 0.555781 0.50303102
vt 0.511797 0.46693504
vt 0.461617 0.440113
vt 0.407169 0.42359602
vt 0.350544 0.418019
vt 0.293919 0.42359602
vt 0.23947 0.440113
vt 0.18929 0.46693504
vt 0.145307 0.50303102
vt 0.109211 0.547014
vt 0.082389 0.59719402
vt 0.065872 0.65164298
vt 0.060295 0.708268
vt 0.065872 0.764893
vt 0.082389 0.819341
vt 0.109211 0.86952102
vt 0.145307 0.91350502
vt 0.18929 0.949600995
vt 0.23947 0.976423025
vt 0.293919 0.9929400086
vt 0.350544 0.9985169768
vt 0.407169 0.9929400086
vt 0.461617 0.976423025
vt 0.511797 0.949600995
vt 0.555781 0.91350502
vt 0.591877 0.86952102
vt 0.618699 0.819341
vt 0.635215 0.764893
vt 0.168852 0.141747
vt 0.034892 0.11510098
vt 0.032268 0.141747
vt 0.042665 0.08947897
vt 0.055287 0.06586498
vt 0.072273 0.045167983
vt 0.09297 0.02818203
vt 0.116584 0.015559971
vt 0.142206 0.007786989
vt 0.168852 0.005163014
vt 0.195499 0.007786989
vt 0.221121 0.015559971
vt 0.244735 0.02818203
vt 0.265432 0.045167983
vt 0.282418 0.06586498
vt 0.29504 0.08947897
vt 0.302813 0.11510098
vt 0.305437 0.141747
vt 0.302813 0.16839397
vt 0.29504 0.19401598
vt 0.282418 0.21763003
vt 0.265432 0.23832703
vt 0.244735 0.25531304
vt 0.221121 0.26793504
vt 0.195499 0.27570796
vt 0.168852 0.278332
vt 0.142206 0.27570796
vt 0.116584 0.26793504
vt 0.09297 0.25531304
vt 0.072273 0.23832703
vt 0.055287 0.21763003
vt 0.042665 0.19401598
vt 0.034892 0.16839397
vt 0.858268 0.80076498
vt 0.872391 0.41958797
vt 0.858268 0.41958797
vt 0.872391 0.80076498
vt 0.739176 0.80076498
vt 0.858172 0.82072097
vt 0.858268 0.80076498
vt 0.739112 0.82072097
vt 0.724978 0.41958797
vt 0.724978 0.80076498
vt 0.739176 0.80076498
vt 0.739176 0.41958797
vt 0.858268 0.80076498
vt 0.739176 0.41958797
vt 0.739176 0.80076498
vt 0.858268 0.41958797
vt 0.872391 0.80076498
vt 0.991483 0.80076498
vt 0.991483 0.41958797
vt 0.872391 0.41958797
vt 0.987454 0.88014197
vt 0.910599 0.91197598
vt 0.993786 0.91197598
vt 0.969421 0.853154
vt 0.942433 0.83512098
vt 0.910599 0.828789
vt 0.878764 0.83512098
vt 0.851776 0.853154
vt 0.833744 0.88014197
vt 0.827411 0.91197598
vt 0.833744 0.943811
vt 0.851776 0.970798016
vt 0.878764 0.988830984
vt 0.910599 0.995163977
vt 0.942433 0.988830984
vt 0.969421 0.970798016
vt 0.987454 0.943811
vt 0.498307 0.320619
vt 0.530374 0.038595974
vt 0.498307 0.038595974
vt 0.530374 0.320619
vt 0.386403 0.320619
vt 0.498307 0.35388398
vt 0.498307 0.320619
vt 0.386403 0.35388398
vt 0.354738 0.038595974
vt 0.354738 0.320619
vt 0.386403 0.320619
vt 0.386403 0.038595974
vt 0.498307 0.320619
vt 0.386403 0.038595974
vt 0.386403 0.320619
vt 0.498307 0.038595974
vt 0.386403 0.006703973
vt 0.386403 0.038595974
vt 0.498307 0.006703973
vt 0.498307 0.038595974
vt 0.572135 0.14829898
vt 0.995664 0.170493
vt 0.995664 0.14829898
vt 0.572135 0.170493
vt 0.572135 0.024883986
vt 0.551487 0.14829898
vt 0.572135 0.14829898
vt 0.551487 0.024883986
vt 0.995664 0.003709972
vt 0.572135 0.003709972
vt 0.572135 0.024883986
vt 0.995664 0.024883986
vt 0.572135 0.14829898
vt 0.995664 0.024883986
vt 0.572135 0.024883986
vt 0.995664 0.14829898
vt 0.572135 0.170493
vt 0.572135 0.29398
vt 0.995664 0.29398
vt 0.995664 0.170493
vn 0 -0.195074 -0.980773
vn 0 0 -0.999969
vn 0 0 -1
vn 0 -0.195074 -0.980773
vn 0 -0.382672 -0.923856
vn 0 -0.382672 -0.923856
vn 0 -0.555559 -0.831446
vn 0 -0.555559 -0.831446
vn 0 -0.707083 -0.707083
vn 0 -0.707083 -0.707083
vn 0 -0.831446 -0.555559
vn 0 -0.831446 -0.555559
vn 0 -0.923856 -0.382672
vn 0 -0.923856 -0.382672
vn 0 -0.980773 -0.195074
vn 0 -0.980773 -0.195074
vn 0 -1 0
vn 0 -1 0
vn 0 -0.980773 0.195074
vn 0 -1 0
vn 0 -1 0
vn 0 -0.980773 0.195074
vn 0 -0.923856 0.382672
vn 0 -0.923856 0.382672
vn 0 -0.831446 0.555559
vn 0 -0.831446 0.555559
vn 0 -0.707083 0.707083
vn 0 -0.707083 0.707083
vn 0 -0.555559 0.831446
vn 0 -0.555559 0.831446
vn 0 -0.382672 0.923856
vn 0 -0.382672 0.923856
vn 0 -0.195074 0.980773
vn 0 -0.195074 0.980773
vn 0 0 1
vn 0 0 0.999969
vn 0 0.195074 0.980773
vn 0 0.195074 0.980773
vn 0 0.382672 0.923856
vn 0 0.382672 0.923856
vn 0 0.555559 0.831446
vn 0 0.555559 0.831446
vn 0 0.707083 0.707083
vn 0 0.707083 0.707083
vn 0 0.831446 0.555559
vn 0 0.831446 0.555559
vn 0 0.923856 0.382672
vn 0 0.923856 0.382672
vn 0 0.980773 0.195074
vn 0 0.980773 0.195074
vn 0 1 0
vn 0 1 0
vn 0 0.980773 -0.195074
vn 0 0.980773 -0.195074
vn 0 0.923856 -0.382672
vn 0 0.923856 -0.382672
vn 0 0.831446 -0.555559
vn 0 0.831446 -0.555559
vn 0 0.707083 -0.707083
vn 0 0.707083 -0.707083
vn 0 0.555559 -0.831446
vn 0 0.555559 -0.831446
vn 0 0.382672 -0.923856
vn 0 0.382672 -0.923856
vn 0 0.195074 -0.980773
vn 0 0.195074 -0.980773
vn 1 0 0
vn 1 0 0
vn 1 0 0
vn 0.999969 0 0
vn 1 0 0
vn 1 0 0
vn 1 0 0
vn 1 0 0
vn 1 0 0
vn 1 0 0
vn 1 0 0
vn 1 0 0
vn 1 0 0
vn 1 0 0
vn 1 0 0
vn 0.999969 0 0
vn 1 0 0
vn 1 0 0
vn 1 0 0
vn 0.999969 0 0
vn 0.999969 0 0
vn 1 0 0
vn 1 0 0
vn 1 0 0
vn 1 0 0
vn 0.999969 0 0
vn 1 0 0
vn 1 0 0
vn 1 0 0
vn 1 0 0
vn 0.999969 0 0
vn 0.999969 0 0
vn 1 0 0
vn -1 0 0
vn -1 0 0
vn -1 0 0
vn -0.999969 0 0
vn -1 0 0
vn -1 0 0
vn -1 0 0
vn -1 0 0
vn -1 0 0
vn -1 0 0
vn -1 0 0
vn -1 0 0
vn -1 0 0
vn -1 0 0
vn -1 0 0
vn -0.999969 0 0
vn -1 0 0
vn -1 0 0
vn -1 0 0
vn -0.999969 0 0
vn -0.999969 0 0
vn -1 0 0
vn -1 0 0
vn -1 0 0
vn -1 0 0
vn -0.999969 0 0
vn -1 0 0
vn -1 0 0
vn -1 0 0
vn -1 0 0
vn -0.999969 0 0
vn -0.999969 0 0
vn -1 0 0
vn 0 0 -1
vn 0 0 -1
vn 0 0 -1
vn 0 0 -1
vn 0 1 0
vn 0 1 0
vn 0 1 0
vn 0 1 0
vn 0 0 1
vn 0 0 1
vn 0 0 1
vn 0 0 1
vn 0.999969 0 0
vn 0.999969 0 0
vn 1 0 0
vn 1 0 0
vn -0.999969 0 0
vn -1 0 0
vn -0.999969 0 0
vn -1 0 0
vn 0.983795 -0.068575 -0.165563
vn 0.999969 0 0
vn 0.983795 0 -0.179205
vn 0.983795 -0.126713 -0.126713
vn 0.983795 -0.165563 -0.068575
vn 0.983795 -0.179205 0
vn 0.983795 -0.165563 0.068575
vn 0.983795 -0.126713 0.126713
vn 0.983795 -0.068575 0.165563
vn 0.983795 0 0.179205
vn 0.983795 0.068575 0.165563
vn 0.983795 0.126713 0.126713
vn 0.983795 0.165563 0.068575
vn 0.983795 0.179205 0
vn 0.983795 0.165563 -0.068575
vn 0.983795 0.126713 -0.126713
vn 0.983795 0.068575 -0.165563
vn 0 0 -0.999969
vn 0 0 -0.999969
vn 0 0 -1
vn 0 0 -1
vn 0 1 0
vn 0 1 0
vn 0 1 0
vn 0 1 0
vn 0 0 0.999969
vn 0 0 1
vn 0 0 0.999969
vn 0 0 1
vn 1 0 0
vn 1 0 0
vn 1 0 0
vn 1 0 0
vn 0 -1 0
vn 0 -1 0
vn 0 -1 0
vn 0 -1 0
vn 0 0 -1
vn 0 0 -1
vn 0 0 -1
vn 0 0 -1
vn 0 1 0
vn 0 1 0
vn 0 1 0
vn 0 1 0
vn 0 0 1
vn 0 0 1
vn 0 0 1
vn 0 0 1
vn 1 0 0
vn 1 0 0
vn 1 0 0
vn 1 0 0
vn -1 0 0
vn -1 0 0
vn -1 0 0
vn -1 0 0
f 135/135/135 134/134/134 133/133/133
f 134/134/134 136/136/136 133/133/133
f 3/3/3 2/2/2 1/1/1
f 2/2/2 4/4/4 1/1/1
f 3/3/3 66/66/66 2/2/2
f 1/1/1 4/4/4 6/6/6
f 65/65/65 66/66/66 3/3/3
f 6/6/6 4/4/4 5/5/5
f 63/63/63 66/66/66 65/65/65
f 6/6/6 5/5/5 7/7/7
f 64/64/64 63/63/63 65/65/65
f 5/5/5 8/8/8 7/7/7
f 64/64/64 62/62/62 63/63/63
f 7/7/7 8/8/8 10/10/10
f 61/61/61 62/62/62 64/64/64
f 10/10/10 8/8/8 9/9/9
f 59/59/59 62/62/62 61/61/61
f 10/10/10 9/9/9 11/11/11
f 60/60/60 59/59/59 61/61/61
f 9/9/9 12/12/12 11/11/11
f 60/60/60 58/58/58 59/59/59
f 11/11/11 12/12/12 14/14/14
f 57/57/57 58/58/58 60/60/60
f 14/14/14 12/12/12 13/13/13
f 55/55/55 58/58/58 57/57/57
f 14/14/14 13/13/13 15/15/15
f 56/56/56 55/55/55 57/57/57
f 13/13/13 16/16/16 15/15/15
f 56/56/56 54/54/54 55/55/55
f 15/15/15 16/16/16 18/18/18
f 18/18/18 16/16/16 17/17/17
f 53/53/53 54/54/54 56/56/56
f 51/51/51 54/54/54 53/53/53
f 52/52/52 51/51/51 53/53/53
f 52/52/52 50/50/50 51/51/51
f 49/49/49 50/50/50 52/52/52
f 47/47/47 50/50/50 49/49/49
f 48/48/48 47/47/47 49/49/49
f 48/48/48 46/46/46 47/47/47
f 45/45/45 46/46/46 48/48/48
f 43/43/43 46/46/46 45/45/45
f 44/44/44 43/43/43 45/45/45
f 44/44/44 42/42/42 43/43/43
f 41/41/41 42/42/42 44/44/44
f 39/39/39 42/42/42 41/41/41
f 40/40/40 39/39/39 41/41/41
f 40/40/40 38/38/38 39/39/39
f 37/37/37 38/38/38 40/40/40
f 35/35/35 38/38/38 37/37/37
f 36/36/36 35/35/35 37/37/37
f 36/36/36 34/34/34 35/35/35
f 33/33/33 34/34/34 36/36/36
f 31/31/31 34/34/34 33/33/33
f 32/32/32 31/31/31 33/33/33
f 32/32/32 30/30/30 31/31/31
f 29/29/29 30/30/30 32/32/32
f 27/27/27 30/30/30 29/29/29
f 28/28/28 27/27/27 29/29/29
f 28/28/28 26/26/26 27/27/27
f 25/25/25 26/26/26 28/28/28
f 23/23/23 26/26/26 25/25/25
f 24/24/24 23/23/23 25/25/25
f 24/24/24 22/22/22 23/23/23
f 19/19/19 22/22/22 24/24/24
f 20/20/20 22/22/22 19/19/19
f 21/21/21 20/20/20 19/19/19
f 69/69/69 68/68/68 67/67/67
f 68/68/68 99/99/99 67/67/67
f 70/70/70 69/69/69 67/67/67
f 99/99/99 98/98/98 67/67/67
f 71/71/71 70/70/70 67/67/67
f 98/98/98 97/97/97 67/67/67
f 72/72/72 71/71/71 67/67/67
f 97/97/97 96/96/96 67/67/67
f 73/73/73 72/72/72 67/67/67
f 96/96/96 95/95/95 67/67/67
f 74/74/74 73/73/73 67/67/67
f 95/95/95 94/94/94 67/67/67
f 75/75/75 74/74/74 67/67/67
f 94/94/94 93/93/93 67/67/67
f 76/76/76 75/75/75 67/67/67
f 93/93/93 92/92/92 67/67/67
f 77/77/77 76/76/76 67/67/67
f 92/92/92 91/91/91 67/67/67
f 78/78/78 77/77/77 67/67/67
f 91/91/91 90/90/90 67/67/67
f 79/79/79 78/78/78 67/67/67
f 90/90/90 89/89/89 67/67/67
f 80/80/80 79/79/79 67/67/67
f 89/89/89 88/88/88 67/67/67
f 81/81/81 80/80/80 67/67/67
f 88/88/88 87/87/87 67/67/67
f 82/82/82 81/81/81 67/67/67
f 87/87/87 86/86/86 67/67/67
f 83/83/83 82/82/82 67/67/67
f 86/86/86 85/85/85 67/67/67
f 84/84/84 83/83/83 67/67/67
f 85/85/85 84/84/84 67/67/67
f 102/102/102 101/101/101 100/100/100
f 132/132/132 102/102/102 100/100/100
f 101/101/101 103/103/103 100/100/100
f 131/131/131 132/132/132 100/100/100
f 103/103/103 104/104/104 100/100/100
f 130/130/130 131/131/131 100/100/100
f 104/104/104 105/105/105 100/100/100
f 129/129/129 130/130/130 100/100/100
f 105/105/105 106/106/106 100/100/100
f 128/128/128 129/129/129 100/100/100
f 106/106/106 107/107/107 100/100/100
f 127/127/127 128/128/128 100/100/100
f 107/107/107 108/108/108 100/100/100
f 126/126/126 127/127/127 100/100/100
f 108/108/108 109/109/109 100/100/100
f 125/125/125 126/126/126 100/100/100
f 109/109/109 110/110/110 100/100/100
f 124/124/124 125/125/125 100/100/100
f 110/110/110 111/111/111 100/100/100
f 123/123/123 124/124/124 100/100/100
f 111/111/111 112/112/112 100/100/100
f 122/122/122 123/123/123 100/100/100
f 112/112/112 113/113/113 100/100/100
f 121/121/121 122/122/122 100/100/100
f 113/113/113 114/114/114 100/100/100
f 120/120/120 121/121/121 100/100/100
f 114/114/114 115/115/115 100/100/100
f 119/119/119 120/120/120 100/100/100
f 115/115/115 116/116/116 100/100/100
f 118/118/118 119/119/119 100/100/100
f 116/116/116 117/117/117 100/100/100
f 117/117/117 118/118/118 100/100/100
f 139/139/139 138/138/138 137/137/137
f 138/138/138 140/140/140 137/137/137
f 143/143/143 142/142/142 141/141/141
f 143/143/143 141/141/141 144/144/144
f 147/147/147 146/146/146 145/145/145
f 146/146/146 148/148/148 145/145/145
f 151/151/151 150/150/150 149/149/149
f 151/151/151 149/149/149 152/152/152
f 155/155/155 154/154/154 153/153/153
f 153/153/153 154/154/154 156/156/156
f 169/169/169 154/154/154 155/155/155
f 156/156/156 154/154/154 157/157/157
f 168/168/168 154/154/154 169/169/169
f 157/157/157 154/154/154 158/158/158
f 167/167/167 154/154/154 168/168/168
f 158/158/158 154/154/154 159/159/159
f 166/166/166 154/154/154 167/167/167
f 159/159/159 154/154/154 160/160/160
f 165/165/165 154/154/154 166/166/166
f 160/160/160 154/154/154 161/161/161
f 164/164/164 154/154/154 165/165/165
f 161/161/161 154/154/154 162/162/162
f 163/163/163 154/154/154 164/164/164
f 162/162/162 154/154/154 163/163/163
f 172/172/172 171/171/171 170/170/170
f 171/171/171 173/173/173 170/170/170
f 176/176/176 175/175/175 174/174/174
f 175/175/175 177/177/177 174/174/174
f 180/180/180 179/179/179 178/178/178
f 180/180/180 178/178/178 181/181/181
f 184/184/184 183/183/183 182/182/182
f 183/183/183 185/185/185 182/182/182
f 188/188/188 187/187/187 186/186/186
f 187/187/187 188/188/188 189/189/189
f 192/192/192 191/191/191 190/190/190
f 191/191/191 193/193/193 190/190/190
f 196/196/196 195/195/195 194/194/194
f 195/195/195 197/197/197 194/194/194
f 200/200/200 199/199/199 198/198/198
f 200/200/200 198/198/198 201/201/201
f 204/204/204 203/203/203 202/202/202
f 203/203/203 205/205/205 202/202/202
f 208/208/208 207/207/207 206/206/206
f 208/208/208 206/206/206 209/209/209
