# VPXTOOL table OBJ file
# VPXTOOL OBJ file
# numVerts: 367 numFaces: 237
o pRamp_Snake
v 197.5191 78.23863 -129.75188
v 174.84245 71.01467 -130.76591
v 197.5191 78.23863 -188.00063
v 270.31012 213.8711 -188.00063
v 270.31012 213.87108 -130.64561
v 272.64532 190.16931 -130.73074
v 83.656586 291.18823 -128.38443
v 65.246956 276.07974 -128.36778
v 132.5534 217.24808 -99.71618
v 269.95117 166.54895 -129.67972
v 179.21124 186.05957 -99.71434
v 177.37009 180.45842 -99.71434
v 93.68575 1257.9648 -48.64692
v 93.23796 1138.5067 -57.995148
v 93.68575 1257.9648 -107.23798
v 38.91391 236.66245 -128.39923
v 121.77483 203.48479 -99.71619
v 124.43755 208.75288 -99.71619
v 121.782234 181.70374 -99.71434
v 38.919464 143.67616 -130.08125
v 125.20546 175.3143 -99.71249
v 30.455732 1003.09814 -69.049446
v 93.23796 1002.7188 -68.98098
v 93.23796 1138.5067 -57.995148
v 120.46104 186.05586 -99.71434
v 32.00637 166.46568 -129.99614
v 121.782234 181.70374 -99.71434
v 65.25436 104.26451 -130.28482
v 83.66213 89.15599 -130.394
v 133.69696 167.20584 -99.71249
v 119.74494 193.27058 -99.71619
v 29.671164 190.16747 -129.92767
v 151.15178 69.01808 -188.00063
v 151.15178 69.01808 -129.6168
v 127.45555 71.01652 -130.60121
v 262.1943 236.20355 -128.78781
v 251.08263 256.98358 -128.68048
v 177.38306 204.73381 -99.71619
v 28.655294 1677.754 -59.00543
v 28.658997 1611.1674 -70.90259
v 30.537153 1611.1145 -12.341122
v 236.12955 275.19336 -128.56763
v 236.12955 275.19336 -188.00064
v 218.65437 291.18268 -130.21265
v 31.13483 747.8429 -92.220184
v 92.21838 747.4765 -92.220184
v 93.23796 1002.7188 -68.98098
v 270.31012 213.87108 -130.64561
v 262.1943 236.20355 -128.78781
v 179.21864 199.12709 -99.71619
v 30.083803 1258.3479 -48.63952
v 29.652658 1258.3479 -105.53376
v 30.083803 1138.8878 -59.073933
v 197.5191 78.23863 -129.75188
v 160.72575 164.55052 -99.71249
v 156.37546 163.23119 -99.712494
v 65.246956 276.07974 -128.36778
v 50.14029 257.6682 -128.37332
v 128.07729 213.40108 -99.71618
v 263.39703 143.67986 -130.84732
v 175.22733 176.4486 -99.71434
v 138.95949 164.54497 -99.71249
v 104.66602 77.92961 -130.5013
v 143.31163 163.22563 -99.712494
v 93.68575 1257.9648 -48.64692
v 93.68575 1257.9648 -107.23798
v 94.00402 1610.7354 -70.90259
v 94.27233 297.19647 -129.84996
v 83.656586 291.18823 -128.38443
v 132.5534 217.24808 -99.71618
v 120.19088 197.80035 -99.71434
v 32.004517 213.86923 -128.44736
v 29.671164 190.16747 -129.92767
v 32.00637 166.46568 -129.99614
v 30.455732 1003.09814 -69.049446
v 28.72561 1003.10187 -127.3463
v 31.13483 747.8429 -92.220184
v 94.27233 297.19647 -129.84996
v 93.9152 297.3963 -188.00064
v 94.5832 468.89325 -176.07294
v 149.1663 162.51878 -99.712494
v 151.15178 69.01808 -129.6168
v 156.37546 163.23119 -99.712494
v 29.265926 747.8522 -150.58734
v 29.278877 469.27625 -176.07294
v 30.033844 469.27444 -114.99122
v 127.520325 309.00018 -128.76007
v 104.66788 302.4072 -129.76854
v 143.30608 221.98878 -99.71804
v 251.08263 256.98358 -128.68048
v 175.23843 208.74547 -99.71619
v 93.23796 1002.7188 -68.98098
v 92.21838 747.4765 -92.220184
v 93.68575 1002.7151 -128.6749
v 174.78323 308.96686 -128.88036
v 155.05241 222.2497 -99.71804
v 160.73685 220.66205 -99.71804
v 30.537153 1611.1145 -12.341122
v 28.658997 1611.1674 -70.90259
v 28.72561 1003.10187 -127.3463
v 29.265926 747.8522 -150.58734
v 31.13483 747.8429 -92.220184
v 29.265926 747.8522 -150.58734
v 30.146717 296.22318 -126.8597
v 94.27233 297.19647 -129.84996
v 92.21838 468.90067 -114.53787
v 151.15549 311.32983 -128.83778
v 151.15549 311.32983 -128.83778
v 150.52263 222.69565 -99.71804
v 29.730377 1678.5867 -1.413579
v 38.919464 143.67616 -130.08125
v 50.145844 122.674126 -130.17935
v 125.20546 175.3143 -99.71249
v 128.09024 171.79854 -99.71434
v 65.25436 104.26451 -130.28482
v 133.69696 167.20584 -99.71249
v 92.21838 468.90067 -114.53787
v 94.5832 468.89325 -176.07294
v 93.68575 747.4672 -152.30083
v 197.5191 78.23863 -129.75188
v 165.98643 167.21324 -99.71249
v 104.66602 77.92961 -130.5013
v 127.45555 71.01652 -130.60121
v 143.31163 163.22563 -99.712494
v 171.6024 213.39183 -99.71618
v 236.12955 275.19336 -128.56763
v 166.00124 217.99564 -99.71803
v 151.15178 69.01808 -129.6168
v 174.84245 71.01467 -130.76591
v 197.65048 302.40906 -130.10161
v 174.78323 308.96686 -128.88036
v 218.65253 291.18265 -188.00064
v 218.65437 291.18268 -130.21265
v 272.64532 190.16931 -130.73074
v 179.92365 191.91425 -99.71434
v 197.65048 302.40906 -130.10161
v 166.00124 217.99564 -99.71803
v 263.39703 143.67986 -130.84732
v 269.95117 166.54895 -129.67972
v 104.66788 302.4072 -129.76854
v 138.50984 219.9515 -99.53486
v 92.43581 1610.74 -12.893466
v 94.00402 1610.7354 -70.90259
v 50.14029 257.6682 -128.37332
v 128.07729 213.40108 -99.71618
v 251.89496 122.86473 -129.80371
v 263.39703 143.67986 -130.84732
v 262.1943 236.20355 -128.78781
v 236.8031 104.52911 -129.76115
v 170.62909 170.84929 -99.71249
v 149.1663 162.51878 -99.712494
v 174.84245 71.01467 -130.76591
v 28.699705 1138.8878 -116.36233
v 31.13483 747.8429 -92.220184
v 30.033844 469.27444 -114.99122
v 92.21838 747.4765 -92.220184
v 30.083803 1258.3479 -48.63952
v 93.68575 1257.9648 -48.64692
v 92.43581 1610.74 -12.893466
v 30.033844 469.27444 -114.99122
v 30.146717 296.22318 -126.8597
v 92.21838 468.90067 -114.53787
v 174.94237 309.74585 -188.00064
v 174.78323 308.96686 -128.88036
v 197.65048 302.40906 -130.10161
v 30.146717 296.22318 -126.8597
v 175.23843 208.74547 -99.71619
v 236.12955 275.19336 -128.56763
v 175.23843 208.74547 -99.71619
v 251.89496 122.86473 -129.80371
v 127.520325 309.00018 -128.76007
v 127.364876 309.77917 -188.00063
v 104.66788 302.4072 -129.76854
v 38.919464 143.67616 -188.00063
v 50.145844 122.674126 -188.00064
v 50.145844 122.674126 -130.17935
v 92.21838 468.90067 -114.53787
v 94.27233 297.19647 -129.84996
v 94.5832 468.89325 -176.07294
v 236.12955 275.19336 -128.56763
v 218.65437 291.18268 -130.21265
v 121.77483 203.48479 -99.71619
v 92.21838 747.4765 -92.220184
v 83.66213 89.15599 -130.394
v 104.66602 302.40903 -188.00063
v 104.66788 302.4072 -129.76854
v 127.45555 71.01652 -188.00064
v 104.66602 77.92961 -188.00064
v 30.083803 1138.8878 -59.073933
v 30.455732 1003.09814 -69.049446
v 170.62909 170.84929 -99.71249
v 165.98643 167.21324 -99.71249
v 92.21838 747.4765 -92.220184
v 93.68575 747.4672 -152.30083
v 83.66213 89.15599 -130.394
v 138.95949 164.54497 -99.71249
v 218.65437 291.18268 -130.21265
v 270.31012 213.87108 -130.64561
v 127.45555 71.01652 -130.60121
v 28.658997 1611.1674 -70.90259
v 29.652658 1258.3479 -105.53376
v 30.146717 296.22318 -126.8597
v 263.39703 143.67986 -188.00063
v 269.95117 166.54895 -188.00064
v 263.39703 143.67986 -130.84732
v 29.671164 190.16747 -129.92767
v 29.671164 190.16747 -188.00063
v 32.00637 166.46568 -129.99614
v 128.09024 171.79854 -94.90206
v 125.20546 175.3143 -94.90021
v 269.95117 166.54895 -129.67972
v 262.1943 236.20355 -188.00064
v 262.1943 236.20355 -128.78781
v 30.146717 296.22318 -126.8597
v 28.455452 296.7801 -188.00064
v 29.671164 190.16747 -129.92767
v 94.27233 297.19647 -129.84996
v 132.5534 217.24808 -99.71618
v 236.8031 104.52911 -129.76115
v 218.65807 89.16154 -130.86214
v 236.8031 104.52911 -188.00064
v 93.9152 297.3963 -188.00064
v 94.27233 297.19647 -129.84996
v 38.919464 143.67616 -130.08125
v 50.145844 122.674126 -130.17935
v 151.15178 69.01808 -188.00063
v 174.84245 71.01467 -188.00063
v 174.84245 71.01467 -130.76591
v 197.64862 302.40903 -188.00064
v 65.25436 104.26451 -130.28482
v 65.25436 104.26451 -188.00064
v 83.66213 89.15599 -130.394
v 32.00637 166.46568 -188.00063
v 30.455732 1003.09814 -69.049446
v 93.23796 1002.7188 -68.98098
v 28.699705 1138.8878 -116.36233
v 28.72561 1003.10187 -127.3463
v 104.66788 302.4072 -129.76854
v 83.66213 89.15599 -188.00064
v 83.66213 89.15599 -130.394
v 251.08263 256.98358 -188.00063
v 236.12955 275.19336 -188.00064
v 251.08263 256.98358 -128.68048
v 92.43581 1610.74 -12.893466
v 94.00402 1610.7354 -70.90259
v 94.01143 1677.3265 -59.00543
v 272.64532 190.16933 -188.00064
v 151.15549 311.32983 -188.00064
v 151.15549 311.32983 -128.83778
v 270.31012 213.8711 -188.00063
v 218.65807 89.16154 -130.86214
v 218.65253 89.15599 -188.00064
v 29.730377 1678.5867 -1.413579
v 30.537153 1611.1145 -12.341122
v 93.68575 1677.2526 -1.757754
v 104.66602 77.92961 -130.5013
v 251.89496 122.86473 -188.00064
v 263.39703 143.67986 -130.84732
v 269.95117 166.54895 -129.67972
v 272.64532 190.16931 -130.73074
v 218.65253 291.18265 -188.00064
v 50.145844 122.674126 -130.17935
v 128.09024 171.79854 -99.71434
v 262.1943 236.20355 -128.78781
v 30.083803 1138.8878 -59.073933
v 93.23796 1138.5067 -57.995148
v 93.68575 1257.9648 -48.64692
v 65.25436 104.26451 -130.28482
v 151.15549 311.32983 -128.83778
v 218.65807 89.16154 -130.86214
v 92.21838 747.4765 -92.220184
v 93.68575 747.4672 -152.30083
v 93.68575 1002.7151 -128.6749
v 236.12955 275.19336 -128.56763
v 174.84245 71.01467 -130.76591
v 128.07729 213.40108 -99.71618
v 32.004517 213.86923 -128.44736
v 29.671164 190.16747 -129.92767
v 151.15549 311.32983 -128.83778
v 127.520325 309.00018 -128.76007
v 150.52263 222.69565 -99.71804
v 93.23796 1138.5067 -57.995148
v 93.23796 1002.7188 -68.98098
v 94.08359 1138.503 -118.7993
v 269.95117 166.54895 -129.67972
v 30.537153 1611.1145 -12.341122
v 92.43581 1610.74 -12.893466
v 30.083803 1138.8878 -59.073933
v 30.455732 1003.09814 -69.049446
v 94.27233 297.19647 -129.84996
v 30.146717 296.22318 -126.8597
v 93.68575 1677.2526 -1.757754
v 94.08359 1138.503 -118.7993
v 93.68575 1257.9648 -107.23798
v 128.09024 171.79854 -99.71434
v 218.65807 89.16154 -130.86214
v 165.98643 167.21324 -99.71249
v 156.37546 163.23119 -94.900215
v 149.1663 162.51878 -94.900215
v 30.083803 1138.8878 -59.073933
v 93.68575 1257.9648 -48.64692
v 127.520325 309.00018 -128.76007
v 179.92365 191.91425 -99.71434
v 251.89496 122.86473 -129.80371
v 263.39703 143.67986 -130.84732
v 92.43581 1610.74 -12.893466
v 93.68575 1677.2526 -1.757754
v 151.15178 69.01808 -129.6168
v 174.84245 71.01467 -130.76591
v 29.278877 469.27625 -176.07294
v 127.520325 309.00018 -128.76007
v 132.5534 217.24808 -94.9039
v 179.92365 191.91425 -94.90206
v 120.19088 197.80035 -94.90206
v 121.77483 203.48479 -94.90391
v 160.72575 164.55052 -94.90021
v 160.73685 220.66205 -94.90576
v 179.21124 186.05957 -94.90206
v 138.95949 164.54497 -99.71249
v 138.95949 164.54497 -94.90021
v 133.69696 167.20584 -99.71249
v 155.05241 222.2497 -94.90576
v 175.22733 176.4486 -94.90206
v 171.6024 213.39183 -99.71618
v 171.6024 213.39183 -94.9039
v 133.69696 167.20584 -94.90021
v 121.782234 181.70374 -94.90206
v 175.23843 208.74547 -99.71619
v 175.23843 208.74547 -94.90391
v 177.38306 204.73381 -99.71619
v 177.38306 204.73381 -94.90391
v 124.43755 208.75288 -94.90391
v 143.30608 221.98878 -94.90576
v 120.46104 186.05586 -94.90206
v 119.74494 193.27058 -94.90391
v 166.00124 217.99564 -94.905754
v 179.21864 199.12709 -94.90391
v 119.74494 193.27058 -99.71619
v 170.62909 170.84929 -99.71249
v 170.62909 170.84929 -94.90021
v 143.31163 163.22563 -99.712494
v 143.31163 163.22563 -94.900215
v 165.98643 167.21324 -94.90021
v 160.72575 164.55052 -99.71249
v 177.37009 180.45842 -94.90206
v 138.50984 219.9515 -94.72258
v 150.52263 222.69565 -94.90576
v 155.05241 222.2497 -99.71804
v 128.07729 213.40108 -94.9039
v 236.8031 104.52911 -129.76115
v 177.37009 180.45842 -94.90206
v 175.23843 208.74547 -99.71619
v 128.07729 213.40108 -94.9039
v 150.52263 222.69565 -94.90576
v 179.21864 199.12709 -94.90391
v 160.72575 164.55052 -99.71249
v 138.50984 219.9515 -99.53486
v 132.5534 217.24808 -94.9039
v 251.89496 122.86473 -188.00064
v 94.00402 1610.7354 -70.90259
v 93.68575 1257.9648 -107.23798
v 29.652658 1258.3479 -105.53376
v 94.00402 1610.7354 -70.90259
v 94.01143 1677.3265 -59.00543
v 28.658997 1611.1674 -70.90259
v 94.01143 1677.3265 -59.00543
v 94.00402 1610.7354 -70.90259
vt 0 0
vt 0 0
vt 0.049492 0.19655299
vt 0.136798 0.26687503
vt 0.14043 0.235026
vt 0.129679 0.23354697
vt 0.213235 0.156609
vt 0.204964 0.14183801
vt 0.162185 0.17339498
vt 0.119879 0.22904897
vt 0.141005 0.18937302
vt 0.138631 0.18775702
vt 0.765259 0.14602202
vt 0.701042 0.147398
vt 0.761994 0.17809701
vt 0.183317 0.122201025
vt 0.15708 0.16583097
vt 0.159262 0.16797501
vt 0.145935 0.16276199
vt 0.13052 0.117567
vt 0.143088 0.1634
vt 0.623006 0.11449599
vt 0.623715 0.14790797
vt 0.698836 0.145841
vt 0.148874 0.162678
vt 0.143141 0.11515999
vt 0.145935 0.16276199
vt 0.107875 0.126876
vt 0.099017 0.13373
vt 0.137934 0.16609097
vt 0.151773 0.16316998
vt 0.155885 0.114301026
vt 0.046463 0.15567803
vt 0.083953 0.16171801
vt 0.08627 0.15059602
vt 0.151116 0.23367798
vt 0.16145 0.232184
vt 0.149232 0.19138002
vt 0.99212 0.073786974
vt 0.956394 0.07478398
vt 0.962963 0.104559004
vt 0.171931 0.23010498
vt 0.184386 0.25871098
vt 0.181416 0.22495502
vt 0.480258 0.11356199
vt 0.480039 0.148319
vt 0.623715 0.14790797
vt 0.140599 0.233661
vt 0.151116 0.23367798
vt 0.14639 0.19122201
vt 0.764365 0.109088
vt 0.759695 0.078749
vt 0.700322 0.110985994
vt 0.08573 0.18585002
vt 0.133162 0.17820501
vt 0.133069 0.17548299
vt 0.204964 0.14183801
vt 0.19486 0.13029802
vt 0.160992 0.17054099
vt 0.110309 0.224038
vt 0.136589 0.18575299
vt 0.136 0.16803503
vt 0.092329 0.14186698
vt 0.134513 0.17030501
vt 0.765259 0.14602202
vt 0.761994 0.17809701
vt 0.95589 0.17202002
vt 0.214259 0.16318202
vt 0.213235 0.156609
vt 0.162185 0.17339498
vt 0.154549 0.164195
vt 0.170359 0.11659902
vt 0.155885 0.114301026
vt 0.143141 0.11515999
vt 0.622907 0.11289102
vt 0.619775 0.08233398
vt 0.480243 0.111925006
vt 0.217189 0.16518497
vt 0.238976 0.186548
vt 0.328676 0.18988699
vt 0.133524 0.172818
vt 0.08553 0.16201401
vt 0.133069 0.17548299
vt 0.479431 0.080981016
vt 0.32286 0.077785015
vt 0.324187 0.11278802
vt 0.208141 0.18849802
vt 0.212879 0.17497498
vt 0.162575 0.179192
vt 0.16145 0.232184
vt 0.152014 0.191015
vt 0.623691 0.14952397
vt 0.480031 0.15000796
vt 0.622047 0.18167603
vt 0.196452 0.20916998
vt 0.160698 0.18468499
vt 0.159045 0.18693799
vt 0.960432 0.10457802
vt 0.953855 0.07479501
vt 0.619775 0.08233398
vt 0.479431 0.080981016
vt 0.480243 0.111925006
vt 0.479431 0.080981016
vt 0.217148 0.118597984
vt 0.214206 0.16369903
vt 0.326336 0.15517402
vt 0.202745 0.19971198
vt 0.202745 0.19971198
vt 0.161895 0.18208098
vt 0.998292 0.10354602
vt 0.13052 0.117567
vt 0.118579 0.121472
vt 0.143088 0.1634
vt 0.140359 0.16452098
vt 0.107875 0.126876
vt 0.137934 0.16609097
vt 0.326449 0.15696597
vt 0.328972 0.189551
vt 0.479939 0.183994
vt 0.08573 0.18585002
vt 0.1338 0.180888
vt 0.092329 0.14186698
vt 0.087844 0.151169
vt 0.134513 0.17030501
vt 0.154625 0.19012898
vt 0.171394 0.22886902
vt 0.156978 0.18874598
vt 0.08553 0.16201401
vt 0.084855 0.17382699
vt 0.189074 0.21722001
vt 0.196452 0.20916998
vt 0.198279 0.25089097
vt 0.181416 0.22495502
vt 0.130081 0.232189
vt 0.143622 0.190543
vt 0.189074 0.21722001
vt 0.156978 0.18874598
vt 0.110309 0.224038
vt 0.119879 0.22904897
vt 0.212879 0.17497498
vt 0.162681 0.17616099
vt 0.961136 0.14058298
vt 0.95589 0.17202002
vt 0.19486 0.13029802
vt 0.160992 0.17054099
vt 0.101699 0.217026
vt 0.110309 0.224038
vt 0.151116 0.23367798
vt 0.094367 0.208018
vt 0.134957 0.18343496
vt 0.133524 0.172818
vt 0.084855 0.17382699
vt 0.696839 0.080532014
vt 0.480258 0.11356199
vt 0.324271 0.11466402
vt 0.480039 0.148319
vt 0.764508 0.110701025
vt 0.765322 0.14439797
vt 0.961253 0.13899499
vt 0.324271 0.11466402
vt 0.217148 0.118597984
vt 0.326336 0.15517402
vt 0.220807 0.22950697
vt 0.197521 0.20998597
vt 0.189993 0.21819603
vt 0.217271 0.11846197
vt 0.152014 0.191015
vt 0.171394 0.22886902
vt 0.152014 0.191015
vt 0.101699 0.217026
vt 0.209394 0.18897802
vt 0.234433 0.20355302
vt 0.21415 0.17533201
vt 0.109404 0.08386803
vt 0.091546 0.09058702
vt 0.117598 0.12015903
vt 0.326449 0.15696597
vt 0.217189 0.16518497
vt 0.328676 0.18988699
vt 0.171394 0.22886902
vt 0.180674 0.22383398
vt 0.15708 0.16583097
vt 0.480039 0.148319
vt 0.099017 0.13373
vt 0.237145 0.19115698
vt 0.21415 0.17533201
vt 0.048182 0.13796699
vt 0.053604 0.12350899
vt 0.698189 0.11264598
vt 0.623006 0.11449599
vt 0.134957 0.18343496
vt 0.1338 0.180888
vt 0.480031 0.15000796
vt 0.479939 0.183994
vt 0.099017 0.13373
vt 0.136 0.16803503
vt 0.180674 0.22383398
vt 0.140599 0.233661
vt 0.087844 0.151169
vt 0.953855 0.07479501
vt 0.759695 0.078749
vt 0.217236 0.118354976
vt 0.091218 0.25649
vt 0.105642 0.26241398
vt 0.109472 0.22529799
vt 0.156301 0.112782
vt 0.146675 0.078498006
vt 0.142704 0.113655984
vt 0.140359 0.16452098
vt 0.143088 0.1634
vt 0.119254 0.23037899
vt 0.153112 0.26658797
vt 0.151189 0.23503399
vt 0.218369 0.11647302
vt 0.215597 0.078682005
vt 0.156301 0.112782
vt 0.215093 0.16295701
vt 0.162448 0.174689
vt 0.093144 0.20895803
vt 0.087549 0.19814003
vt 0.066003 0.23365599
vt 0.237651 0.18701899
vt 0.215761 0.166646
vt 0.129802 0.116136014
vt 0.117598 0.12015903
vt 0.046463 0.15567803
vt 0 0
vt 0 0
vt 0.210438 0.24093002
vt 0.106662 0.125714
vt 0.075573 0.099702
vt 0.097624 0.13274503
vt 0.128328 0.080039024
vt 0.623006 0.11449599
vt 0.623715 0.14790797
vt 0.694595 0.08059001
vt 0.619775 0.08233398
vt 0.212879 0.17497498
vt 0.062727 0.110879004
vt 0.097624 0.13274503
vt 0.16917 0.264032
vt 0.184386 0.25871098
vt 0.161761 0.23350102
vt 0.963638 0.14047503
vt 0.958412 0.17190003
vt 0.994022 0.171121
vt 0.120908 0.26559
vt 0.228787 0.21675998
vt 0.203925 0.200356
vt 0.136798 0.26687503
vt 0.087549 0.19814003
vt 0.056172 0.21641898
vt 0.998528 0.10512698
vt 0.963151 0.10613698
vt 0.99914 0.13806099
vt 0.090816 0.141074
vt 0.077856 0.247253
vt 0.109472 0.22529799
vt 0.119879 0.22904897
vt 0.130081 0.232189
vt 0.198279 0.25089097
vt 0.118579 0.121472
vt 0.140359 0.16452098
vt 0.151189 0.23503399
vt 0.700429 0.11258799
vt 0.701077 0.14578497
vt 0.765322 0.14439797
vt 0.106662 0.125714
vt 0.203925 0.200356
vt 0.088938 0.19745803
vt 0.480031 0.15000796
vt 0.479939 0.183994
vt 0.622047 0.18167603
vt 0.171931 0.23010498
vt 0 0
vt 0.160992 0.17054099
vt 0.170359 0.11659902
vt 0.155997 0.114712
vt 0.202745 0.19971198
vt 0.208141 0.18849802
vt 0.161895 0.18208098
vt 0.698801 0.14745301
vt 0.623691 0.14952397
vt 0.696774 0.17958802
vt 0.119254 0.23037899
vt 0.960621 0.106157005
vt 0.961253 0.13899499
vt 0.698082 0.111046016
vt 0.622907 0.11289102
vt 0.214438 0.163338
vt 0.217365 0.11827099
vt 0.998972 0.13965398
vt 0.699019 0.17953098
vt 0.761994 0.17809701
vt 0.140359 0.16452098
vt 0.088938 0.19745803
vt 0.1338 0.180888
vt 0.133069 0.17548299
vt 0.133524 0.172818
vt 0.700429 0.11258799
vt 0.765322 0.14439797
vt 0.208141 0.18849802
vt 0.143622 0.190543
vt 0.100661 0.218166
vt 0.109472 0.22529799
vt 0.963755 0.138888
vt 0.99914 0.13806099
vt 0.083953 0.16171801
vt 0 0
vt 0.32286 0.077785015
vt 0.209394 0.18897802
vt 0.162448 0.174689
vt 0.143622 0.190543
vt 0.154549 0.164195
vt 0.15708 0.16583097
vt 0.133162 0.17820501
vt 0.159045 0.18693799
vt 0.141005 0.18937302
vt 0.136 0.16803503
vt 0.136 0.16803503
vt 0.137934 0.16609097
vt 0.160698 0.18468499
vt 0.136589 0.18575299
vt 0.154625 0.19012898
vt 0.154625 0.19012898
vt 0.137934 0.16609097
vt 0.145935 0.16276199
vt 0.152014 0.191015
vt 0.152014 0.191015
vt 0.149232 0.19138002
vt 0.149232 0.19138002
vt 0.159262 0.16797501
vt 0.162575 0.179192
vt 0.148874 0.162678
vt 0.151773 0.16316998
vt 0.156978 0.18874598
vt 0.14639 0.19122201
vt 0.151773 0.16316998
vt 0.134957 0.18343496
vt 0.134957 0.18343496
vt 0.134513 0.17030501
vt 0.134513 0.17030501
vt 0.1338 0.180888
vt 0.133162 0.17820501
vt 0.138631 0.18775702
vt 0.162681 0.17616099
vt 0.161895 0.18208098
vt 0.160698 0.18468499
vt 0.160992 0.17054099
vt 0.093144 0.20895803
vt 0.138631 0.18775702
vt 0.152014 0.191015
vt 0.160992 0.17054099
vt 0.161895 0.18208098
vt 0.14639 0.19122201
vt 0.133162 0.17820501
vt 0.162681 0.17616099
vt 0.162185 0.17339498
vt 0.077856 0.247253
vt 0 0
vt 0.761994 0.17809701
vt 0.759695 0.078749
vt 0 0
vt 0 0
vt 0.956394 0.07478398
vt 0 0
vt 0 0
vn -0.3115 0.749 -0.5848
vn -0.1635 0.8152 -0.5555
vn -0.3826 0.9239 -0
vn -0.9752 -0.2215 -0
vn -0.8161 -0.1641 -0.5541
vn -0.8283 -0.0042 -0.5603
vn 0.039 -0.1997 -0.9791
vn 0.089 -0.0888 -0.9921
vn 0.4282 -0.6614 -0.6158
vn -0.7952 0.1616 -0.5844
vn -0.7759 0.1731 -0.6067
vn -0.7333 0.3156 -0.6022
vn -0.7088 0.0667 -0.7022
vn -0.6967 0.0546 -0.7153
vn -0.8935 -0.0449 0.4468
vn 0.1086 -0.045 -0.9931
vn 0.7408 -0.2871 -0.6073
vn 0.6705 -0.4263 -0.6072
vn 0.7371 0.3054 -0.6029
vn 0.7594 0.3172 -0.5681
vn 0.6631 0.4434 -0.603
vn 0.6962 0.0618 -0.7152
vn -0.7028 0.0615 -0.7087
vn -0.6967 0.0546 -0.7153
vn 0.7829 0.1559 -0.6023
vn 0.807 0.1625 -0.5677
vn 0.737 0.3054 -0.6029
vn 0.5788 0.5846 -0.5686
vn 0.4547 0.6853 -0.5688
vn 0.4341 0.6668 -0.6058
vn 0.7964 0.0032 -0.6048
vn 0.818 0.0445 -0.5735
vn 0.0001 1 -0
vn -0.0019 0.8109 -0.5853
vn 0.1648 0.8102 -0.5625
vn -0.7494 -0.3102 -0.585
vn -0.6835 -0.4537 -0.5718
vn -0.732 -0.313 -0.6052
vn 0.7572 -0.1101 0.6439
vn 0.7091 -0.097 0.6985
vn 0.6993 0.0966 -0.7083
vn -0.5768 -0.5709 -0.5842
vn -0.7257 -0.688 -0
vn -0.4681 -0.6896 -0.5525
vn 0.6962 0.0613 -0.7152
vn -0.6992 0.069 -0.7116
vn -0.7028 0.0629 -0.7086
vn -0.8161 -0.164 -0.5541
vn -0.7499 -0.3086 -0.5851
vn -0.7783 -0.1606 -0.607
vn 0.7058 0.0675 -0.7052
vn 0.8983 -0.0447 0.437
vn 0.7065 0.0534 -0.7057
vn -0.3184 0.7458 -0.5851
vn -0.2961 0.7387 -0.6055
vn -0.1554 0.7792 -0.6072
vn 0.0891 -0.0888 -0.9921
vn 0.1037 -0.0692 -0.9922
vn 0.5746 -0.549 -0.607
vn -0.7677 0.3212 -0.5546
vn -0.663 0.4403 -0.6055
vn 0.2974 0.7415 -0.6015
vn 0.3124 0.7607 -0.5689
vn 0.1645 0.7814 -0.6019
vn -0.7089 0.0667 -0.7022
vn -0.8935 -0.0448 0.4467
vn -0.7076 -0.098 0.6998
vn -0.1324 -0.4167 -0.8993
vn 0.039 -0.1996 -0.9791
vn 0.4283 -0.6614 -0.6157
vn 0.7825 -0.1467 -0.6051
vn 0.3035 -0.0008 -0.9528
vn 0.8177 0.0511 -0.5734
vn 0.807 0.1625 -0.5678
vn 0.6962 0.0618 -0.7152
vn 0.9995 0.004 -0.0298
vn 0.6962 0.0614 -0.7152
vn -0.1323 -0.4168 -0.8993
vn -0.5118 -0.8591 0.0002
vn -0.9994 -0.0032 -0.0337
vn 0.0105 0.7934 -0.6086
vn -0.0019 0.8108 -0.5853
vn -0.1553 0.7792 -0.6072
vn 0.9995 0.0018 -0.0307
vn 0.9999 0.0009 -0.0141
vn 0.7068 0.0526 -0.7055
vn 0.1637 -0.7969 -0.5815
vn 0.3149 -0.7625 -0.5651
vn 0.1858 -0.7643 -0.6175
vn -0.6866 -0.4492 -0.5716
vn -0.6672 -0.4351 -0.6046
vn -0.7028 0.063 -0.7086
vn -0.6992 0.0617 -0.7122
vn -1 0.0039 -0.0088
vn -0.1653 -0.7976 -0.5801
vn -0.1467 -0.7844 -0.6026
vn -0.2909 -0.7429 -0.6029
vn 0.6992 0.0966 -0.7083
vn 0.7091 -0.097 0.6984
vn 0.9995 0.004 -0.0299
vn 0.9995 0.0019 -0.0306
vn 0.6962 0.0613 -0.7152
vn 0.9995 0.0018 -0.0306
vn 0.6908 0.0314 -0.7224
vn -0.1323 -0.4168 -0.8993
vn -0.691 0.0506 -0.7211
vn -0.0046 -0.8206 -0.5714
vn 0.0005 -0.8205 -0.5716
vn -0.0003 -0.7966 -0.6046
vn 0.6643 0.1273 -0.7366
vn 0.7587 0.319 -0.568
vn 0.6827 0.4592 -0.5684
vn 0.6631 0.4435 -0.603
vn 0.5636 0.5638 -0.6036
vn 0.5797 0.5836 -0.5686
vn 0.4341 0.6667 -0.6058
vn -0.691 0.0505 -0.7211
vn -0.9994 -0.0032 -0.0337
vn -0.9997 0.002 -0.0254
vn -0.3115 0.749 -0.5848
vn -0.4268 0.6703 -0.607
vn 0.3064 0.7634 -0.5686
vn 0.1648 0.8102 -0.5625
vn 0.1645 0.7815 -0.6019
vn -0.5675 -0.5544 -0.6088
vn -0.5768 -0.5709 -0.5842
vn -0.4328 -0.6679 -0.6055
vn -0.0019 0.8109 -0.5853
vn -0.1636 0.8152 -0.5556
vn -0.3269 -0.7604 -0.5613
vn -0.1654 -0.7976 -0.5801
vn -0.5777 -0.8163 -0
vn -0.468 -0.6897 -0.5525
vn -0.8284 -0.0113 -0.5601
vn -0.7951 0.007 -0.6064
vn -0.3269 -0.7603 -0.5613
vn -0.4327 -0.6679 -0.6055
vn -0.7684 0.3193 -0.5546
vn -0.7955 0.1601 -0.5845
vn 0.3222 -0.7593 -0.5655
vn 0.3266 -0.7486 -0.5771
vn -0.7066 0.0966 -0.701
vn -0.7076 -0.0979 0.6998
vn 0.1038 -0.0692 -0.9922
vn 0.5745 -0.549 -0.607
vn -0.6818 0.4484 -0.578
vn -0.7684 0.3194 -0.5546
vn -0.7505 -0.3074 -0.585
vn -0.5719 0.5809 -0.5792
vn -0.554 0.567 -0.6096
vn 0.0106 0.7934 -0.6086
vn -0.1588 0.8162 -0.5555
vn 0.9997 -0.0006 -0.0249
vn 0.6962 0.0543 -0.7158
vn 0.7068 0.0526 -0.7055
vn -0.6992 0.0617 -0.7123
vn 0.7058 0.0675 -0.7052
vn -0.7089 0.0754 -0.7013
vn -0.7066 0.0967 -0.701
vn 0.7068 0.0446 -0.706
vn 0.6908 0.0315 -0.7224
vn -0.691 0.0505 -0.7211
vn -0.1844 -0.9828 -0.0084
vn -0.1653 -0.7976 -0.5801
vn -0.3269 -0.7603 -0.5613
vn 0.6908 0.0314 -0.7224
vn -0.6673 -0.435 -0.6046
vn -0.5777 -0.5701 -0.5842
vn -0.6672 -0.4351 -0.6045
vn -0.6828 0.4467 -0.5781
vn 0.1638 -0.7968 -0.5816
vn 0.1884 -0.9821 -0.0033
vn 0.3149 -0.7626 -0.5651
vn 0.9239 0.3827 -0
vn 0.8315 0.5556 -0
vn 0.6827 0.4592 -0.5684
vn -0.691 0.0506 -0.7211
vn -0.1324 -0.4168 -0.8993
vn -0.9994 -0.0031 -0.0336
vn -0.5768 -0.5709 -0.5843
vn -0.468 -0.6897 -0.5525
vn 0.7408 -0.2872 -0.6073
vn -0.6992 0.0616 -0.7123
vn 0.4547 0.6853 -0.5689
vn 0.368 -0.9298 -0.0025
vn 0.3148 -0.7626 -0.5651
vn 0.1882 0.9821 -0
vn 0.3827 0.9239 -0
vn 0.7065 0.0486 -0.7061
vn 0.6962 0.0619 -0.7152
vn -0.554 0.567 -0.6095
vn -0.4268 0.6704 -0.607
vn -0.6992 0.0616 -0.7123
vn -0.9997 0.002 -0.0255
vn 0.4545 0.6855 -0.5688
vn 0.2974 0.7414 -0.6015
vn -0.462 -0.694 -0.5523
vn -0.8165 -0.1623 -0.554
vn 0.1649 0.8102 -0.5625
vn 0.709 -0.097 0.6985
vn 0.8984 -0.0448 0.437
vn 0.6908 0.0314 -0.7224
vn -0.9242 0.382 -0
vn -0.9808 0.1951 -0
vn -0.7684 0.3193 -0.5547
vn 0.8177 0.0511 -0.5733
vn 0.9985 0.0548 -0
vn 0.807 0.1625 -0.5677
vn 0.7068 0.7074 -0
vn 0.8312 0.5559 -0
vn -0.7955 0.1601 -0.5845
vn -0.9132 -0.4076 -0
vn -0.75 -0.3086 -0.5851
vn 0.6908 0.0314 -0.7224
vn 0.9997 -0.0008 -0.0232
vn 0.8177 0.0511 -0.5734
vn -0.1324 -0.4167 -0.8993
vn 0.4283 -0.6614 -0.6157
vn -0.5719 0.5809 -0.5792
vn -0.4627 0.6913 -0.555
vn -0.7121 0.7021 -0
vn -0.5118 -0.8591 0.0002
vn -0.1324 -0.4168 -0.8993
vn 0.7594 0.3172 -0.5681
vn 0.6827 0.4591 -0.5684
vn -0 1 -0
vn -0.195 0.9808 -0
vn -0.1636 0.8152 -0.5555
vn -0.391 -0.9204 -0
vn 0.5797 0.5836 -0.5686
vn 0.7071 0.7071 -0
vn 0.4548 0.6853 -0.5689
vn 0.9808 0.1951 -0
vn 0.6961 0.0608 -0.7153
vn -0.7028 0.063 -0.7086
vn 0.9997 -0.0006 -0.0249
vn 0.9995 0.0041 -0.0298
vn 0.3148 -0.7626 -0.5651
vn 0.5556 0.8315 -0
vn 0.4547 0.6853 -0.5689
vn -0.8313 -0.5558 -0
vn -0.7258 -0.6879 -0
vn -0.6835 -0.4537 -0.5718
vn -0.7066 0.0967 -0.701
vn -0.7076 -0.0979 0.6998
vn -0.7488 -0.109 0.6538
vn -1 0.0077 -0
vn -0.0047 -1 -0.0051
vn -0.0046 -0.8207 -0.5714
vn -0.9751 -0.2215 -0
vn -0.4628 0.6913 -0.555
vn -0.5562 0.8311 -0
vn 0.6643 0.1273 -0.7366
vn 0.6993 0.0966 -0.7083
vn -0.6653 0.1333 -0.7346
vn 0.3124 0.7607 -0.5689
vn -0.8272 0.5619 -0
vn -0.7684 0.3193 -0.5546
vn -0.7954 0.1601 -0.5845
vn -0.8283 -0.0042 -0.5603
vn -0.5777 -0.8162 -0
vn 0.6827 0.4592 -0.5683
vn 0.5636 0.5639 -0.6037
vn -0.7499 -0.3086 -0.5851
vn 0.7065 0.0534 -0.7057
vn -0.6967 0.0592 -0.7149
vn -0.7089 0.0666 -0.7022
vn 0.5798 0.5836 -0.5686
vn -0.0046 -0.8206 -0.5714
vn -0.4589 0.6939 -0.5549
vn -0.6992 0.0616 -0.7122
vn -0.9997 0.0019 -0.0255
vn -1 0.0039 -0.0087
vn -0.5768 -0.5709 -0.5843
vn -0.1636 0.8152 -0.5556
vn 0.5745 -0.5491 -0.607
vn 0.3035 -0.0007 -0.9528
vn 0.8177 0.051 -0.5734
vn -0.0046 -0.8207 -0.5714
vn 0.1637 -0.7969 -0.5816
vn -0.0003 -0.7965 -0.6046
vn -0.6967 0.0546 -0.7153
vn -0.7028 0.0629 -0.7086
vn -0.9999 -0 -0.013
vn -0.7954 0.1601 -0.5845
vn 0.6993 0.0966 -0.7083
vn -0.7066 0.0966 -0.701
vn 0.7065 0.0534 -0.7057
vn 0.6962 0.0619 -0.7152
vn -0.1324 -0.4168 -0.8993
vn 0.6908 0.0314 -0.7224
vn -0.6653 0.1334 -0.7346
vn -0.9999 -0.0001 -0.013
vn -0.8935 -0.0449 0.4467
vn 0.5636 0.5638 -0.6037
vn -0.4628 0.6912 -0.555
vn -0.4269 0.6703 -0.607
vn -0.1952 0.9808 -0
vn 0.0108 0.9999 -0
vn 0.7065 0.0533 -0.7057
vn -0.7088 0.0666 -0.7022
vn 0.1697 -0.7954 -0.5818
vn -0.7951 0.0071 -0.6064
vn -0.6818 0.4484 -0.578
vn -0.7684 0.3194 -0.5546
vn -0.7066 0.0966 -0.701
vn -0.6652 0.1334 -0.7346
vn -0.0019 0.8108 -0.5853
vn -0.1635 0.8152 -0.5556
vn 0.9999 0.0009 -0.014
vn 0.1637 -0.7969 -0.5815
vn 0.5369 -0.8436 -0
vn -0.9999 0.0118 -0
vn 0.9829 -0.1839 -0
vn 0.9324 -0.3615 -0
vn -0.3723 0.9281 -0
vn -0.3622 -0.9321 -0
vn -0.976 0.2176 -0
vn 0.2975 0.7414 -0.6015
vn 0.3721 0.9282 -0
vn 0.4342 0.6667 -0.6058
vn -0.1842 -0.9829 -0
vn -0.8314 0.5557 -0
vn -0.5675 -0.5544 -0.6087
vn -0.7155 -0.6986 -0
vn 0.5457 0.838 -0
vn 0.9237 0.3832 -0
vn -0.6673 -0.4351 -0.6046
vn -0.8378 -0.5459 -0
vn -0.732 -0.3129 -0.6052
vn -0.9196 -0.3928 -0
vn 0.844 -0.5364 -0
vn 0.2487 -0.9686 -0
vn 0.9807 0.1956 -0
vn 1 0.0004 -0
vn -0.5467 -0.8373 -0
vn -0.9787 -0.2054 -0
vn 0.7964 0.0031 -0.6048
vn -0.5541 0.567 -0.6095
vn -0.6989 0.7153 -0
vn 0.1646 0.7815 -0.6019
vn 0.2058 0.9786 -0
vn -0.5367 0.8438 -0
vn -0.296 0.7387 -0.6056
vn -0.9194 0.3933 -0
vn 0.4022 -0.9156 -0
vn -0.0002 -1 -0
vn -0.1466 -0.7844 -0.6026
vn 0.7231 -0.6908 -0
vn -0.5719 0.5808 -0.5792
vn -0.9194 0.3932 -0
vn -0.6673 -0.4351 -0.6045
vn 0.723 -0.6908 -0
vn -0.0003 -1 -0
vn -0.9787 -0.2055 -0
vn -0.2961 0.7387 -0.6056
vn 0.3266 -0.7485 -0.5771
vn 0.5369 -0.8436 -0
vn -0.8272 0.562 -0
vn -0.7076 -0.0979 0.6998
vn -0.8935 -0.0448 0.4468
vn 0.8983 -0.0527 0.4362
vn -0.7076 -0.098 0.6997
vn -0.7489 -0.1118 0.6532
vn 0.7091 -0.097 0.6984
vn -0.7488 -0.1091 0.6538
vn -0.7076 -0.0979 0.6997
f 30/30/30 29/29/29 28/28/28
f 3/3/3 2/2/2 1/1/1
f 251/251/251 3/3/3 1/1/1
f 251/251/251 252/252/252 3/3/3
f 221/221/221 252/252/252 251/251/251
f 3/3/3 227/227/227 275/275/275
f 228/228/228 227/227/227 226/226/226
f 309/309/309 226/226/226 308/308/308
f 221/221/221 220/220/220 219/219/219
f 304/304/304 221/221/221 350/350/350
f 304/304/304 359/359/359 221/221/221
f 305/305/305 257/257/257 304/304/304
f 258/258/258 203/203/203 257/257/257
f 205/205/205 204/204/204 203/203/203
f 205/205/205 285/285/285 204/204/204
f 6/6/6 204/204/204 211/211/211
f 6/6/6 247/247/247 204/204/204
f 6/6/6 4/4/4 247/247/247
f 6/6/6 5/5/5 4/4/4
f 5/5/5 212/212/212 250/250/250
f 5/5/5 213/213/213 212/212/212
f 264/264/264 241/241/241 212/212/212
f 213/213/213 243/243/243 241/241/241
f 243/243/243 242/242/242 241/241/241
f 243/243/243 274/274/274 242/242/242
f 9/9/9 8/8/8 7/7/7
f 7/7/7 291/291/291 290/290/290
f 9/9/9 276/276/276 8/8/8
f 276/276/276 353/353/353 332/332/332
f 8/8/8 202/202/202 69/69/69
f 70/70/70 69/69/69 68/68/68
f 70/70/70 358/358/358 349/349/349
f 70/70/70 349/349/349 59/59/59
f 59/59/59 58/58/58 57/57/57
f 59/59/59 332/332/332 18/18/18
f 18/18/18 332/332/332 315/315/315
f 18/18/18 315/315/315 182/182/182
f 71/71/71 182/182/182 315/315/315
f 71/71/71 315/315/315 314/314/314
f 71/71/71 16/16/16 182/182/182
f 18/18/18 17/17/17 16/16/16
f 71/71/71 314/314/314 335/335/335
f 71/71/71 335/335/335 338/338/338
f 145/145/145 18/18/18 144/144/144
f 18/18/18 16/16/16 144/144/144
f 144/144/144 166/166/166 8/8/8
f 16/16/16 166/166/166 144/144/144
f 166/166/166 16/16/16 72/72/72
f 71/71/71 277/277/277 16/16/16
f 278/278/278 166/166/166 277/277/277
f 31/31/31 72/72/72 71/71/71
f 31/31/31 73/73/73 277/277/277
f 25/25/25 74/74/74 73/73/73
f 25/25/25 31/31/31 335/335/335
f 25/25/25 32/32/32 31/31/31
f 25/25/25 335/335/335 334/334/334
f 25/25/25 334/334/334 327/327/327
f 25/25/25 327/327/327 27/27/27
f 27/27/27 26/26/26 25/25/25
f 27/27/27 20/20/20 26/26/26
f 21/21/21 27/27/27 327/327/327
f 21/21/21 20/20/20 19/19/19
f 295/295/295 112/112/112 21/21/21
f 113/113/113 112/112/112 111/111/111
f 113/113/113 327/327/327 210/210/210
f 113/113/113 209/209/209 295/295/295
f 113/113/113 210/210/210 209/209/209
f 321/321/321 209/209/209 326/326/326
f 321/321/321 320/320/320 319/319/319
f 116/116/116 326/326/326 320/320/320
f 319/319/319 320/320/320 342/342/342
f 116/116/116 263/263/263 209/209/209
f 263/263/263 115/115/115 262/262/262
f 116/116/116 115/115/115 114/114/114
f 62/62/62 184/184/184 116/116/116
f 62/62/62 342/342/342 341/341/341
f 64/64/64 63/63/63 62/62/62
f 64/64/64 342/342/342 299/299/299
f 196/196/196 63/63/63 195/195/195
f 151/151/151 299/299/299 298/298/298
f 124/124/124 299/299/299 151/151/151
f 124/124/124 123/123/123 122/122/122
f 151/151/151 82/82/82 123/123/123
f 81/81/81 199/199/199 124/124/124
f 83/83/83 82/82/82 81/81/81
f 151/151/151 298/298/298 56/56/56
f 56/56/56 129/129/129 128/128/128
f 56/56/56 298/298/298 316/316/316
f 356/356/356 316/316/316 343/343/343
f 56/56/56 316/316/316 55/55/55
f 56/56/56 55/55/55 54/54/54
f 56/56/56 120/120/120 152/152/152
f 121/121/121 120/120/120 55/55/55
f 297/297/297 296/296/296 120/120/120
f 344/344/344 343/343/343 297/297/297
f 297/297/297 343/343/343 340/340/340
f 121/121/121 149/149/149 270/270/270
f 192/192/192 340/340/340 339/339/339
f 192/192/192 191/191/191 149/149/149
f 191/191/191 340/340/340 323/323/323
f 150/150/150 146/146/146 149/149/149
f 191/191/191 323/323/323 61/61/61
f 61/61/61 147/147/147 146/146/146
f 150/150/150 61/61/61 170/170/170
f 61/61/61 323/323/323 345/345/345
f 61/61/61 345/345/345 12/12/12
f 61/61/61 12/12/12 60/60/60
f 12/12/12 139/139/139 138/138/138
f 12/12/12 351/351/351 318/318/318
f 12/12/12 318/318/318 11/11/11
f 12/12/12 11/11/11 10/10/10
f 11/11/11 318/318/318 313/313/313
f 11/11/11 313/313/313 135/135/135
f 135/135/135 313/313/313 355/355/355
f 303/303/303 259/259/259 11/11/11
f 135/135/135 260/260/260 259/259/259
f 135/135/135 48/48/48 134/134/134
f 50/50/50 49/49/49 48/48/48
f 135/135/135 50/50/50 198/198/198
f 303/303/303 337/337/337 50/50/50
f 50/50/50 337/337/337 331/331/331
f 50/50/50 331/331/331 38/38/38
f 50/50/50 38/38/38 148/148/148
f 38/38/38 91/91/91 90/90/90
f 38/38/38 37/37/37 36/36/36
f 167/167/167 126/126/126 37/37/37
f 330/330/330 331/331/331 329/329/329
f 330/330/330 329/329/329 328/328/328
f 352/352/352 329/329/329 325/325/325
f 169/169/169 325/325/325 324/324/324
f 169/169/169 125/125/125 168/168/168
f 125/125/125 325/325/325 336/336/336
f 127/127/127 126/126/126 125/125/125
f 125/125/125 336/336/336 127/127/127
f 127/127/127 181/181/181 180/180/180
f 127/127/127 336/336/336 317/317/317
f 127/127/127 130/130/130 197/197/197
f 127/127/127 317/317/317 97/97/97
f 97/97/97 131/131/131 130/130/130
f 97/97/97 317/317/317 322/322/322
f 137/137/137 97/97/97 136/136/136
f 97/97/97 322/322/322 96/96/96
f 97/97/97 96/96/96 95/95/95
f 96/96/96 107/107/107 95/95/95
f 96/96/96 322/322/322 347/347/347
f 348/348/348 347/347/347 281/281/281
f 281/281/281 280/280/280 279/279/279
f 96/96/96 109/109/109 108/108/108
f 109/109/109 354/354/354 333/333/333
f 109/109/109 89/89/89 302/302/302
f 109/109/109 333/333/333 89/89/89
f 357/357/357 89/89/89 333/333/333
f 89/89/89 88/88/88 87/87/87
f 89/89/89 141/141/141 140/140/140
f 141/141/141 333/333/333 346/346/346
f 141/141/141 346/346/346 312/312/312
f 141/141/141 312/312/312 218/218/218
f 141/141/141 218/218/218 217/217/217
f 141/141/141 217/217/217 238/238/238
f 15/15/15 14/14/14 13/13/13
f 143/143/143 13/13/13 142/142/142
f 294/294/294 293/293/293 14/14/14
f 24/24/24 23/23/23 22/22/22
f 24/24/24 190/190/190 189/189/189
f 35/35/35 34/34/34 33/33/33
f 35/35/35 33/33/33 187/187/187
f 35/35/35 187/187/187 188/188/188
f 35/35/35 188/188/188 256/256/256
f 256/256/256 188/188/188 239/239/239
f 256/256/256 239/239/239 240/240/240
f 240/240/240 239/239/239 231/231/231
f 232/232/232 231/231/231 230/230/230
f 268/268/268 231/231/231 175/175/175
f 268/268/268 175/175/175 176/176/176
f 176/176/176 175/175/175 174/174/174
f 225/225/225 174/174/174 224/224/224
f 224/224/224 174/174/174 233/233/233
f 224/224/224 233/233/233 208/208/208
f 208/208/208 233/233/233 207/207/207
f 208/208/208 207/207/207 206/206/206
f 216/216/216 207/207/207 215/215/215
f 216/216/216 215/215/215 214/214/214
f 214/214/214 215/215/215 310/310/310
f 214/214/214 85/85/85 86/86/86
f 86/86/86 85/85/85 84/84/84
f 86/86/86 103/103/103 102/102/102
f 102/102/102 101/101/101 100/100/100
f 41/41/41 40/40/40 39/39/39
f 41/41/41 39/39/39 110/110/110
f 365/365/365 364/364/364 39/39/39
f 44/44/44 43/43/43 42/42/42
f 133/133/133 132/132/132 43/43/43
f 133/133/133 229/229/229 261/261/261
f 133/133/133 165/165/165 229/229/229
f 165/165/165 163/163/163 229/229/229
f 165/165/165 164/164/164 163/163/163
f 164/164/164 248/248/248 163/163/163
f 164/164/164 269/269/269 248/248/248
f 249/249/249 172/172/172 248/248/248
f 269/269/269 311/311/311 172/172/172
f 173/173/173 172/172/172 171/171/171
f 186/186/186 185/185/185 172/172/172
f 223/223/223 185/185/185 173/173/173
f 223/223/223 222/222/222 185/185/185
f 47/47/47 46/46/46 45/45/45
f 235/235/235 45/45/45 234/234/234
f 53/53/53 52/52/52 51/51/51
f 53/53/53 153/153/153 52/52/52
f 200/200/200 52/52/52 360/360/360
f 51/51/51 201/201/201 200/200/200
f 51/51/51 99/99/99 98/98/98
f 367/367/367 366/366/366 99/99/99
f 67/67/67 66/66/66 65/65/65
f 77/77/77 76/76/76 75/75/75
f 75/75/75 237/237/237 236/236/236
f 289/289/289 236/236/236 288/288/288
f 80/80/80 79/79/79 78/78/78
f 94/94/94 93/93/93 92/92/92
f 284/284/284 94/94/94 92/92/92
f 284/284/284 283/283/283 282/282/282
f 106/106/106 105/105/105 104/104/104
f 183/183/183 106/106/106 155/155/155
f 156/156/156 155/155/155 154/154/154
f 119/119/119 118/118/118 117/117/117
f 159/159/159 158/158/158 157/157/157
f 301/301/301 300/300/300 157/157/157
f 287/287/287 157/157/157 286/286/286
f 162/162/162 161/161/161 160/160/160
f 179/179/179 178/178/178 177/177/177
f 194/194/194 177/177/177 193/193/193
f 246/246/246 245/245/245 244/244/244
f 246/246/246 244/244/244 292/292/292
f 255/255/255 254/254/254 253/253/253
f 307/307/307 306/306/306 254/254/254
f 267/267/267 266/266/266 265/265/265
f 273/273/273 272/272/272 271/271/271
f 363/363/363 362/362/362 361/361/361
