# VPXTOOL table OBJ file
# VPXTOOL OBJ file
# numVerts: 169 numFaces: 238
o p22a
v 15.991052 -16.33938 5.143223
v 5.189644 -16.487713 5.146911
v 5.190539 -16.55142 0.141149
v 15.999254 -16.39893 0.140529
v 18.74603 -13.930682 5.143019
v 18.804836 -13.942143 0.139888
v 18.823788 -12.538583 0.139606
v 18.766632 -12.550846 5.141475
v 18.79858 -13.254329 5.146562
v 17.28467 -16.053804 0.14052
v 17.2588 -16.003527 5.13939
v 16.63268 -16.223574 5.146471
v 74.890175 13.316959 0.14115
v 74.4176 14.71901 0.14115
v 74.37117 14.690846 5.136893
v 74.835976 13.310923 5.137159
v 74.00283 10.571239 0.14115
v 74.73802 11.844697 0.14115
v 74.68599 11.861537 5.137333
v 73.963646 10.608169 5.136369
v 3.535756 16.588861 5.146906
v -9.714089 4.655615 5.154909
v 10.444622 -2.664653 5.156744
v 11.652006 -1.596343 5.156847
v 72.63291 9.732281 5.137677
v 72.653336 9.681211 0.14115
v 18.143263 -11.0803 0.140113
v 17.099232 -10.088482 0.141149
v 17.06853 -10.135202 5.138685
v 18.096083 -11.114303 5.141147
v 18.523962 -11.81913 5.146185
v 18.26736 -15.169236 5.138365
v 18.31246 -15.201779 0.140369
v 18.569382 -14.570335 5.146371
v 10.800016 -7.362323 0.141149
v 10.062143 -6.039927 0.141149
v 9.993245 -6.064214 5.155714
v 10.743354 -7.413198 5.158413
v 9.858384 -3.832637 5.15662
v -9.863832 3.600345 5.158583
v 73.41574 15.763577 0.14115
v 73.38356 15.718299 5.13829
v -18.624884 13.752768 5.137846
v -18.67922 13.762223 0.141147
v -18.643179 12.358768 0.140831
v -18.588903 12.371546 5.138525
v -15.876512 16.53076 5.137649
v -15.887792 16.584568 0.141148
v -17.244661 15.996746 0.141148
v -17.213245 15.951363 5.137894
v -75.20814 -13.796314 0.141143
v -74.7313 -15.205115 0.141143
v -74.68704 -15.175992 5.135374
v -75.15394 -13.790279 5.137151
v -74.23331 -11.116557 0.141143
v -75.05323 -12.316078 0.141143
v -75.003204 -12.334436 5.135715
v -74.19661 -11.156341 5.136677
v -10.647122 2.584873 0.141148
v -11.186574 2.028915 0.141148
v -11.145735 1.963586 5.159173
v -10.594193 2.54153 5.151468
v -72.94665 -10.441597 5.139307
v -72.96633 -10.388665 0.141144
v -17.980185 10.938599 0.140832
v -17.009 10.049688 0.141148
v -16.979229 10.096978 5.138659
v -17.935053 10.971755 5.138794
v -18.299524 11.697083 5.146686
v -18.14646 14.986468 5.137774
v -18.192856 15.016165 0.141147
v -10.962612 7.4575 0.141148
v -10.017838 6.048827 0.141148
v -9.947602 6.076785 5.157937
v -10.910424 7.514174 5.159172
v -9.786238 4.654905 0.141148
v 14.602919 16.592527 5.14688
v 9.069294 16.592228 5.146893
v 12.475998 -1.315069 5.15069
v 14.414727 -0.950344 5.146953
v -73.649254 -16.179205 0.141144
v -73.623024 -16.131878 5.136665
v -2.189737 -16.60026 0.141148
v 2.715207 -16.586432 0.141148
v 2.714669 -16.523003 5.146629
v -2.189965 -16.536516 5.146942
v 25.670284 16.56543 5.146951
v 31.203876 16.55418 5.146834
v 31.204105 16.617815 0.14115
v 25.670475 16.62918 0.14115
v 20.136713 16.58672 5.14684
v 20.136871 16.65036 0.14115
v 14.602951 16.65621 0.14115
v 9.069275 16.655924 0.14115
v 3.535718 16.65257 0.14115
v -7.251316 16.562735 5.146905
v -1.998027 16.585598 5.146814
v -1.998185 16.649216 0.14115
v -7.316911 16.62616 0.141149
v 19.019276 -0.083037 5.146749
v 14.426591 -1.012986 0.14115
v 19.031242 -0.145452 0.14115
v 23.624207 0.815286 5.146813
v 23.636507 0.752872 0.14115
v 28.227 1.732143 5.147413
v 28.238886 1.669037 0.14115
v 32.82992 2.549704 5.146841
v 32.841145 2.48706 0.14115
v -26.783545 -16.658344 5.146903
v -31.702623 -16.667673 5.14677
v -31.702677 -16.731249 0.141145
v -26.783424 -16.722052 0.141145
v -21.86363 -16.649534 5.146509
v -21.863003 -16.712847 0.141146
v -16.944977 -16.560055 5.1473
v -16.94434 -16.624157 0.141146
v -12.027798 -16.551186 5.146983
v -12.027781 -16.614971 0.141147
v -7.123737 -16.557938 5.146767
v -7.123642 -16.62151 0.141147
v -17.848082 0.319531 5.146904
v -13.911193 1.050289 5.150378
v -13.928096 1.115394 0.141147
v -17.85977 0.382158 0.141147
v -21.795456 -0.416879 5.146616
v -21.80746 -0.354604 0.141146
v -25.743181 -1.202022 5.146762
v -25.755764 -1.139711 0.141146
v -29.689583 -2.010697 5.147035
v -29.702229 -1.94812 0.141145
v -33.635277 -2.796742 5.147011
v -33.64761 -2.734127 0.141145
v 72.002785 16.352598 5.137212
v 72.01458 16.405895 0.14115
v -9.934986 3.628023 0.141148
v 9.779229 -4.777451 5.153414
v 9.84968 -4.774677 0.141149
v 9.929639 -3.852899 0.141149
v 12.09953 -8.367231 5.153364
v 13.845438 -9.025334 5.148936
v 15.719746 -9.562717 5.143987
v -14.838625 9.238503 5.145689
v -12.728541 8.515072 5.151325
v 12.493615 -1.380321 0.14115
v -72.24306 -16.528708 5.140421
v 10.50344 -2.709921 0.14115
v -72.2512 -16.585619 0.141144
v 15.740175 -9.505406 0.141149
v 13.866287 -8.962961 0.141149
v 12.13273 -8.305094 0.141149
v 11.6897 -1.660416 0.14115
v -14.860535 9.179966 0.141148
v -12.756443 8.452775 0.141148
v -6.471347 7.283727 6.432892
v -6.471354 -5.94917 6.432894
v -6.471353 -5.94917 7.091508
v -6.471353 7.283727 7.091506
v -6.471354 -5.94917 6.432894
v 6.761487 -5.94917 6.432896
v 6.761489 -5.949171 7.09151
v -6.471353 -5.94917 7.091508
v 6.761487 -5.94917 6.432896
v 6.76149 7.283726 6.432892
v 6.761491 7.283726 7.091507
v 6.761489 -5.949171 7.09151
v 6.76149 7.283726 6.432892
v -6.471347 7.283727 6.432892
v -6.471353 7.283727 7.091506
v 6.761491 7.283726 7.091507
vt 0.403599 0.10923302
vt 0.468686 0.105598986
vt 0.465655 0.067435026
vt 0.394271 0.071420014
vt 0.387773 0.164356
vt 0.376913 0.13187802
vt 0.376782 0.16673702
vt 0.387654 0.19613999
vt 0.387452 0.18001598
vt 0.386223 0.07997501
vt 0.396261 0.117033005
vt 0.399836 0.11186302
vt 0.005609 0.85202998
vt 0.008538 0.88681102
vt 0.051899 0.85268301
vt 0.049229 0.82097101
vt 0.011101 0.78390503
vt 0.006556 0.81545198
vt 0.050091 0.78762001
vt 0.054236 0.758856
vt 0.478656 0.896842
vt 0.557762 0.61245
vt 0.437636 0.437769
vt 0.430101 0.46443403
vt 0.061914 0.73864
vt 0.019522 0.76173198
vt 0.381048 0.203197
vt 0.387583 0.22801697
vt 0.397501 0.25201297
vt 0.391543 0.22938299
vt 0.389024 0.21303302
vt 0.390521 0.13600999
vt 0.379927 0.100788
vt 0.388774 0.149531
vt 0.429568 0.30117798
vt 0.43474 0.33813202
vt 0.440498 0.352413
vt 0.435782 0.31871998
vt 0.441322 0.408404
vt 0.558749 0.58569902
vt 0.014774 0.91276598
vt 0.057585 0.87634802
vt 0.611464 0.83140397
vt 0.62225 0.86347198
vt 0.622028 0.82861298
vt 0.611262 0.79961997
vt 0.595638 0.89531201
vt 0.604892 0.93356502
vt 0.613351 0.918899
vt 0.60335 0.88194102
vt 0.996496 0.135275
vt 0.993567 0.10049498
vt 0.95002 0.13574302
vt 0.952691 0.167454
vt 0.990497 0.20137
vt 0.99555 0.171853
vt 0.951828 0.20080501
vt 0.947221 0.227718
vt 0.569377 0.56480497
vt 0.573299 0.54884702
vt 0.566832 0.544537
vt 0.563256 0.55908698
vt 0.940006 0.24423099
vt 0.982583 0.219482
vt 0.61788 0.79309303
vt 0.611843 0.77101701
vt 0.601976 0.747105
vt 0.60748 0.76723403
vt 0.609623 0.78401297
vt 0.608716 0.85975099
vt 0.619236 0.894562006
vt 0.571604 0.70173198
vt 0.564987 0.662319
vt 0.559253 0.64799798
vt 0.565287 0.68393302
vt 0.563351 0.623331
vt 0.41185 0.89692998
vt 0.445253 0.896923006
vt 0.424924 0.47174096
vt 0.413158 0.48070097
vt 0.986908 0.076569974
vt 0.943949 0.11392903
vt 0.514503 0.06614202
vt 0.482036 0.066507995
vt 0.483621 0.10475397
vt 0.513223 0.10442102
vt 0.345043 0.89627802
vt 0.31164 0.89600301
vt 0.293414 0.93432301
vt 0.330049 0.93462402
vt 0.378447 0.896789014
vt 0.366684 0.935185015
vt 0.40332 0.93533999
vt 0.439955 0.935332
vt 0.47659 0.93524301
vt 0.543769 0.89621198
vt 0.512059 0.896761
vt 0.513226 0.93515402
vt 0.548436 0.93454403
vt 0.385365 0.50164598
vt 0.404755 0.47883296
vt 0.374272 0.501805
vt 0.357572 0.523332
vt 0.343789 0.52559
vt 0.329778 0.545462
vt 0.313307 0.549861
vt 0.301985 0.56522298
vt 0.282824 0.57153398
vt 0.661681 0.10148001
vt 0.691373 0.10125798
vt 0.709891 0.06267297
vt 0.677327 0.062916994
vt 0.63199 0.101701975
vt 0.644762 0.06316
vt 0.602298 0.10384297
vt 0.612197 0.06550902
vt 0.572606 0.104065
vt 0.579632 0.06575203
vt 0.543004 0.103908
vt 0.547165 0.065579
vt 0.60757 0.50406498
vt 0.583747 0.52184898
vt 0.591851 0.52396297
vt 0.617979 0.504458
vt 0.631393 0.48627996
vt 0.644107 0.484953
vt 0.655216 0.467332
vt 0.670235 0.464171
vt 0.679038 0.44781196
vt 0.696363 0.44276202
vt 0.702861 0.428828
vt 0.722491 0.42194104
vt 0.065566 0.89100999
vt 0.023528 0.928847015
vt 0.564434 0.59399098
vt 0.441854 0.38450396
vt 0.436228 0.37332702
vt 0.435644 0.39954102
vt 0.427379 0.294832
vt 0.416712 0.278598
vt 0.405425 0.26553404
vt 0.589246 0.726579
vt 0.576468 0.70889503
vt 0.417659 0.46900702
vt 0.93596 0.10472101
vt 0.431602 0.43174696
vt 0.978146 0.066471994
vt 0.396273 0.24284601
vt 0.408653 0.25717402
vt 0.420352 0.274979
vt 0.423337 0.460993
vt 0.597882 0.74850398
vt 0.583867 0.729109
vt 0 0
vt 0 0
vt 0 0
vt 0 0
vt 0 0
vt 0 0
vt 0 0
vt 0 0
vt 0 0
vt 0 0
vt 0 0
vt 0 0
vt 0 0
vt 0 0
vt 0 0
vt 0 0
vn -0.0981 0.7136 -0.6936
vn -0.0095 0.7027 -0.7114
vn -0.014 0.9998 -0.0125
vn -0.1368 0.9905 -0.0094
vn -0.7111 0.1404 -0.689
vn -0.9815 0.1912 -0.0061
vn -0.9778 -0.2096 -0.0051
vn -0.7288 -0.1556 -0.6668
vn -0.7046 0.0096 -0.7095
vn -0.4583 0.8887 -0.0088
vn -0.3459 0.6621 -0.6647
vn -0.1802 0.6809 -0.7098
vn -0.9938 -0.1107 -0.0109
vn -0.855 -0.5184 -0.011
vn -0.6389 -0.387 -0.6648
vn -0.7413 -0.0824 -0.6661
vn -0.7277 0.6858 -0.0109
vn -0.9513 0.308 -0.0109
vn -0.7089 0.2294 -0.667
vn -0.5454 0.5137 -0.6623
vn 0.0001 -0.7028 -0.7114
vn 0.6644 0.0064 -0.7473
vn -0.518 0.3977 -0.7573
vn -0.3285 0.5614 -0.7595
vn -0.2763 0.6901 -0.6689
vn -0.3715 0.9284 -0.0114
vn -0.8119 -0.5838 -0.007
vn -0.5496 -0.8353 -0.0116
vn -0.4078 -0.6181 -0.672
vn -0.5911 -0.4268 -0.6844
vn -0.6345 -0.299 -0.7127
vn -0.6076 0.4433 -0.659
vn -0.811 0.585 -0.0081
vn -0.6568 0.254 -0.71
vn -0.7435 -0.6685 -0.0148
vn -0.9437 -0.3305 -0.0146
vn -0.6214 -0.2177 -0.7526
vn -0.4783 -0.4289 -0.7663
vn -0.6279 0.1788 -0.7574
vn 0.5971 -0.2315 -0.768
vn -0.5793 -0.815 -0.011
vn -0.429 -0.6038 -0.6718
vn 0.7328 -0.1285 -0.6681
vn 0.9852 -0.1712 -0.011
vn 0.9733 0.2293 -0.0099
vn 0.7233 0.1688 -0.6696
vn 0.1533 -0.7281 -0.6681
vn 0.2051 -0.9787 -0.0115
vn 0.5691 -0.8221 -0.011
vn 0.4241 -0.6109 -0.6684
vn 0.9938 0.1107 -0.0107
vn 0.8353 0.5497 -0.0108
vn 0.6298 0.4138 -0.6573
vn 0.7414 0.0826 -0.6659
vn 0.6784 -0.7346 -0.0109
vn 0.9387 -0.3446 -0.0108
vn 0.7063 -0.2587 -0.659
vn 0.5081 -0.549 -0.6636
vn 0.7751 -0.6317 -0.0143
vn 0.5332 -0.8458 -0.0146
vn 0.3392 -0.538 -0.7717
vn 0.5314 -0.4315 -0.7289
vn 0.2573 -0.6899 -0.6766
vn 0.3488 -0.9371 -0.0115
vn 0.8061 0.5917 -0.01
vn 0.5329 0.8461 -0.0115
vn 0.3944 0.626 -0.6727
vn 0.595 0.4393 -0.6729
vn 0.6366 0.2982 -0.7112
vn 0.6269 -0.4013 -0.6677
vn 0.8422 -0.539 -0.011
vn 0.6761 0.7366 -0.015
vn 0.9296 0.3682 -0.015
vn 0.6007 0.2378 -0.7632
vn 0.4328 0.4693 -0.7697
vn 0.9998 0.0107 -0.0146
vn -0.0005 -0.7027 -0.7114
vn -0.0003 -0.7028 -0.7114
vn -0.1767 0.6627 -0.7277
vn -0.1305 0.6905 -0.7114
vn 0.4855 0.8742 -0.011
vn 0.3639 0.6537 -0.6635
vn -0.0035 0.9999 -0.0127
vn -0.0085 0.9999 -0.0127
vn -0.0055 0.704 -0.7102
vn -0.0025 0.7025 -0.7116
vn -0.002 -0.7024 -0.7118
vn -0.0026 -0.7031 -0.7111
vn -0.0035 -0.9999 -0.0122
vn -0.0029 -0.9999 -0.0127
vn -0.0017 -0.7029 -0.7113
vn -0.0024 -0.9999 -0.0127
vn -0.0005 -0.9999 -0.0127
vn 0.0003 -0.9999 -0.0127
vn 0.0006 -0.9999 -0.0127
vn 0.0032 -0.703 -0.7112
vn 0.0013 -0.7032 -0.711
vn 0.0024 -0.9999 -0.0127
vn 0.0043 -0.9999 -0.0122
vn -0.1324 0.6908 -0.7108
vn -0.1854 0.9825 -0.0129
vn -0.1883 0.982 -0.0127
vn -0.1359 0.6898 -0.7111
vn -0.1933 0.981 -0.0127
vn -0.1296 0.688 -0.714
vn -0.1851 0.9826 -0.0128
vn -0.1241 0.692 -0.7111
vn -0.1763 0.9843 -0.0122
vn -0.0013 0.7026 -0.7116
vn 0.0006 0.7033 -0.7109
vn 0.0008 0.9999 -0.0124
vn -0.0018 0.9999 -0.0127
vn -0.007 0.7044 -0.7097
vn -0.0099 0.9998 -0.0127
vn -0.0068 0.7007 -0.7134
vn -0.0099 0.9998 -0.0127
vn 0.0003 0.7024 -0.7118
vn -0.0002 0.9999 -0.0127
vn -0.0007 0.7035 -0.7107
vn -0.0015 0.9999 -0.0127
vn 0.1289 -0.6908 -0.7114
vn 0.1718 -0.6645 -0.7272
vn 0.2494 -0.9683 -0.0136
vn 0.1831 -0.983 -0.0129
vn 0.1332 -0.6912 -0.7102
vn 0.1892 -0.9818 -0.0127
vn 0.1391 -0.6894 -0.7109
vn 0.1979 -0.9801 -0.0127
vn 0.139 -0.688 -0.7122
vn 0.198 -0.9801 -0.0127
vn 0.1357 -0.6889 -0.712
vn 0.1932 -0.9811 -0.0123
vn -0.1609 -0.7278 -0.6666
vn -0.2159 -0.9763 -0.0115
vn 0.9315 -0.3634 -0.0147
vn -0.6714 -0.0256 -0.7406
vn -0.9991 -0.0402 -0.0143
vn -0.9623 0.2716 -0.0146
vn -0.316 -0.5919 -0.7414
vn -0.2205 -0.6573 -0.7206
vn -0.242 -0.6742 -0.6977
vn 0.249 0.663 -0.706
vn 0.2785 0.6218 -0.7319
vn -0.2566 0.9664 -0.0136
vn 0.1043 0.724 -0.6818
vn -0.7924 0.6098 -0.0148
vn 0.142 0.9898 -0.0116
vn -0.3353 -0.942 -0.0121
vn -0.3155 -0.9488 -0.0131
vn -0.4688 -0.8832 -0.014
vn -0.5039 0.8636 -0.0145
vn 0.3497 0.9368 -0.0124
vn 0.4061 0.9137 -0.0137
vn 1 -0 0
vn 1 -0 0
vn 1 -0 0
vn 1 -0 0
vn 0 1 0
vn 0 1 0
vn 0 1 0
vn 0 1 0
vn -1 0 0
vn -1 0 0
vn -1 0 0
vn -1 0 0
vn -0 -1 -0
vn -0 -1 -0
vn -0 -1 -0
vn -0 -1 -0
f 156/156/156 155/155/155 154/154/154
f 157/157/157 156/156/156 154/154/154
f 3/3/3 2/2/2 1/1/1
f 4/4/4 3/3/3 1/1/1
f 3/3/3 84/84/84 2/2/2
f 10/10/10 4/4/4 1/1/1
f 84/84/84 85/85/85 2/2/2
f 85/85/85 84/84/84 83/83/83
f 11/11/11 10/10/10 1/1/1
f 33/33/33 10/10/10 11/11/11
f 86/86/86 85/85/85 83/83/83
f 32/32/32 33/33/33 11/11/11
f 6/6/6 33/33/33 32/32/32
f 34/34/34 32/32/32 11/11/11
f 5/5/5 6/6/6 32/32/32
f 34/34/34 5/5/5 32/32/32
f 7/7/7 6/6/6 5/5/5
f 12/12/12 34/34/34 11/11/11
f 34/34/34 12/12/12 5/5/5
f 12/12/12 11/11/11 1/1/1
f 5/5/5 12/12/12 9/9/9
f 1/1/1 9/9/9 12/12/12
f 8/8/8 7/7/7 5/5/5
f 9/9/9 8/8/8 5/5/5
f 8/8/8 31/31/31 7/7/7
f 9/9/9 31/31/31 8/8/8
f 31/31/31 30/30/30 7/7/7
f 31/31/31 9/9/9 30/30/30
f 9/9/9 1/1/1 30/30/30
f 30/30/30 27/27/27 7/7/7
f 30/30/30 29/29/29 27/27/27
f 29/29/29 30/30/30 1/1/1
f 29/29/29 28/28/28 27/27/27
f 28/28/28 29/29/29 148/148/148
f 29/29/29 1/1/1 141/141/141
f 29/29/29 141/141/141 148/148/148
f 141/141/141 140/140/140 148/148/148
f 141/141/141 1/1/1 140/140/140
f 140/140/140 149/149/149 148/148/148
f 140/140/140 1/1/1 139/139/139
f 140/140/140 139/139/139 149/149/149
f 2/2/2 139/139/139 1/1/1
f 139/139/139 150/150/150 149/149/149
f 139/139/139 38/38/38 150/150/150
f 139/139/139 2/2/2 38/38/38
f 38/38/38 35/35/35 150/150/150
f 37/37/37 38/38/38 2/2/2
f 38/38/38 37/37/37 35/35/35
f 85/85/85 37/37/37 2/2/2
f 37/37/37 36/36/36 35/35/35
f 85/85/85 86/86/86 37/37/37
f 37/37/37 136/136/136 36/36/36
f 86/86/86 136/136/136 37/37/37
f 136/136/136 137/137/137 36/36/36
f 138/138/138 137/137/137 136/136/136
f 39/39/39 138/138/138 136/136/136
f 146/146/146 138/138/138 39/39/39
f 136/136/136 86/86/86 62/62/62
f 23/23/23 146/146/146 39/39/39
f 62/62/62 40/40/40 136/136/136
f 40/40/40 39/39/39 136/136/136
f 146/146/146 23/23/23 24/24/24
f 151/151/151 146/146/146 24/24/24
f 22/22/22 23/23/23 39/39/39
f 40/40/40 22/22/22 39/39/39
f 24/24/24 23/23/23 21/21/21
f 23/23/23 22/22/22 21/21/21
f 151/151/151 24/24/24 79/79/79
f 79/79/79 24/24/24 21/21/21
f 144/144/144 151/151/151 79/79/79
f 62/62/62 59/59/59 40/40/40
f 144/144/144 79/79/79 80/80/80
f 59/59/59 135/135/135 40/40/40
f 40/40/40 135/135/135 22/22/22
f 101/101/101 144/144/144 80/80/80
f 135/135/135 76/76/76 22/22/22
f 22/22/22 76/76/76 73/73/73
f 62/62/62 61/61/61 59/59/59
f 86/86/86 61/61/61 62/62/62
f 61/61/61 60/60/60 59/59/59
f 74/74/74 22/22/22 73/73/73
f 74/74/74 73/73/73 72/72/72
f 60/60/60 61/61/61 122/122/122
f 123/123/123 60/60/60 122/122/122
f 75/75/75 74/74/74 72/72/72
f 75/75/75 72/72/72 153/153/153
f 74/74/74 97/97/97 22/22/22
f 97/97/97 74/74/74 75/75/75
f 97/97/97 21/21/21 22/22/22
f 143/143/143 75/75/75 153/153/153
f 143/143/143 153/153/153 152/152/152
f 96/96/96 97/97/97 75/75/75
f 143/143/143 96/96/96 75/75/75
f 95/95/95 21/21/21 97/97/97
f 98/98/98 95/95/95 97/97/97
f 98/98/98 97/97/97 96/96/96
f 95/95/95 94/94/94 21/21/21
f 99/99/99 98/98/98 96/96/96
f 94/94/94 78/78/78 21/21/21
f 78/78/78 79/79/79 21/21/21
f 94/94/94 93/93/93 78/78/78
f 79/79/79 78/78/78 77/77/77
f 93/93/93 77/77/77 78/78/78
f 80/80/80 79/79/79 77/77/77
f 93/93/93 92/92/92 77/77/77
f 80/80/80 77/77/77 100/100/100
f 101/101/101 80/80/80 100/100/100
f 102/102/102 101/101/101 100/100/100
f 92/92/92 91/91/91 77/77/77
f 77/77/77 91/91/91 100/100/100
f 92/92/92 90/90/90 91/91/91
f 102/102/102 100/100/100 103/103/103
f 100/100/100 91/91/91 103/103/103
f 104/104/104 102/102/102 103/103/103
f 90/90/90 87/87/87 91/91/91
f 90/90/90 89/89/89 87/87/87
f 103/103/103 91/91/91 105/105/105
f 104/104/104 103/103/103 105/105/105
f 91/91/91 87/87/87 105/105/105
f 106/106/106 104/104/104 105/105/105
f 89/89/89 88/88/88 87/87/87
f 105/105/105 87/87/87 88/88/88
f 89/89/89 134/134/134 88/88/88
f 106/106/106 105/105/105 107/107/107
f 107/107/107 105/105/105 88/88/88
f 108/108/108 106/106/106 107/107/107
f 134/134/134 133/133/133 88/88/88
f 133/133/133 134/134/134 41/41/41
f 107/107/107 88/88/88 25/25/25
f 108/108/108 107/107/107 25/25/25
f 88/88/88 133/133/133 25/25/25
f 26/26/26 108/108/108 25/25/25
f 42/42/42 133/133/133 41/41/41
f 25/25/25 133/133/133 42/42/42
f 42/42/42 41/41/41 14/14/14
f 17/17/17 26/26/26 25/25/25
f 15/15/15 42/42/42 14/14/14
f 15/15/15 14/14/14 13/13/13
f 25/25/25 42/42/42 20/20/20
f 42/42/42 15/15/15 20/20/20
f 20/20/20 17/17/17 25/25/25
f 16/16/16 15/15/15 13/13/13
f 15/15/15 16/16/16 20/20/20
f 16/16/16 13/13/13 19/19/19
f 16/16/16 19/19/19 20/20/20
f 20/20/20 19/19/19 17/17/17
f 13/13/13 18/18/18 19/19/19
f 19/19/19 18/18/18 17/17/17
f 96/96/96 143/143/143 142/142/142
f 142/142/142 143/143/143 152/152/152
f 47/47/47 96/96/96 142/142/142
f 99/99/99 96/96/96 47/47/47
f 48/48/48 99/99/99 47/47/47
f 67/67/67 142/142/142 152/152/152
f 67/67/67 47/47/47 142/142/142
f 66/66/66 67/67/67 152/152/152
f 49/49/49 48/48/48 47/47/47
f 67/67/67 66/66/66 65/65/65
f 50/50/50 49/49/49 47/47/47
f 71/71/71 49/49/49 50/50/50
f 68/68/68 67/67/67 65/65/65
f 68/68/68 65/65/65 45/45/45
f 70/70/70 71/71/71 50/50/50
f 44/44/44 71/71/71 70/70/70
f 68/68/68 69/69/69 67/67/67
f 69/69/69 47/47/47 67/67/67
f 69/69/69 68/68/68 45/45/45
f 50/50/50 47/47/47 43/43/43
f 70/70/70 50/50/50 43/43/43
f 47/47/47 69/69/69 43/43/43
f 43/43/43 44/44/44 70/70/70
f 45/45/45 44/44/44 43/43/43
f 69/69/69 46/46/46 43/43/43
f 46/46/46 45/45/45 43/43/43
f 46/46/46 69/69/69 45/45/45
f 53/53/53 52/52/52 51/51/51
f 53/53/53 82/82/82 52/52/52
f 82/82/82 81/81/81 52/52/52
f 54/54/54 53/53/53 51/51/51
f 82/82/82 145/145/145 81/81/81
f 82/82/82 53/53/53 145/145/145
f 53/53/53 54/54/54 145/145/145
f 145/145/145 147/147/147 81/81/81
f 54/54/54 51/51/51 57/57/57
f 54/54/54 57/57/57 145/145/145
f 51/51/51 56/56/56 57/57/57
f 57/57/57 56/56/56 55/55/55
f 57/57/57 58/58/58 145/145/145
f 58/58/58 57/57/57 55/55/55
f 147/147/147 145/145/145 110/110/110
f 58/58/58 55/55/55 63/63/63
f 58/58/58 63/63/63 145/145/145
f 145/145/145 63/63/63 110/110/110
f 55/55/55 64/64/64 63/63/63
f 111/111/111 147/147/147 110/110/110
f 64/64/64 132/132/132 63/63/63
f 111/111/111 110/110/110 109/109/109
f 132/132/132 131/131/131 63/63/63
f 63/63/63 131/131/131 110/110/110
f 112/112/112 111/111/111 109/109/109
f 132/132/132 130/130/130 131/131/131
f 110/110/110 131/131/131 129/129/129
f 130/130/130 129/129/129 131/131/131
f 109/109/109 110/110/110 129/129/129
f 130/130/130 128/128/128 129/129/129
f 112/112/112 109/109/109 113/113/113
f 109/109/109 129/129/129 113/113/113
f 114/114/114 112/112/112 113/113/113
f 128/128/128 127/127/127 129/129/129
f 129/129/129 127/127/127 113/113/113
f 128/128/128 126/126/126 127/127/127
f 126/126/126 125/125/125 127/127/127
f 125/125/125 113/113/113 127/127/127
f 126/126/126 124/124/124 125/125/125
f 114/114/114 113/113/113 115/115/115
f 124/124/124 121/121/121 125/125/125
f 125/125/125 121/121/121 113/113/113
f 121/121/121 115/115/115 113/113/113
f 124/124/124 123/123/123 121/121/121
f 116/116/116 114/114/114 115/115/115
f 123/123/123 122/122/122 121/121/121
f 121/121/121 122/122/122 115/115/115
f 116/116/116 115/115/115 117/117/117
f 122/122/122 117/117/117 115/115/115
f 118/118/118 116/116/116 117/117/117
f 122/122/122 61/61/61 117/117/117
f 118/118/118 117/117/117 119/119/119
f 61/61/61 119/119/119 117/117/117
f 120/120/120 118/118/118 119/119/119
f 86/86/86 119/119/119 61/61/61
f 120/120/120 119/119/119 83/83/83
f 119/119/119 86/86/86 83/83/83
f 160/160/160 159/159/159 158/158/158
f 161/161/161 160/160/160 158/158/158
f 164/164/164 163/163/163 162/162/162
f 165/165/165 164/164/164 162/162/162
f 168/168/168 167/167/167 166/166/166
f 169/169/169 168/168/168 166/166/166
