# VPXTOOL table OBJ file
# VPXTOOL OBJ file
# numVerts: 40 numFaces: 20
o sw36p
v 22.99997 5.500006 1.181183
v 22.99997 5.499994 76.68117
v -23.00003 5.499994 76.68117
v -23.00003 5.500006 1.181175
v -24 -5.499994 0.181168
v -24 -5.500006 76.68117
v 23.99997 -5.500006 76.68117
v 23.99997 -5.499994 0.181168
v -24 4.500006 0.181175
v -24 4.499994 76.68117
v -24 -5.500006 76.68117
v -24 -5.499994 0.181168
v 23.99997 4.500006 0.181175
v -24 4.500006 0.181175
v -24 -5.499994 0.181168
v 23.99997 -5.499994 0.181168
v 22.99997 5.499994 76.68117
v -24 4.499994 76.68117
v -23.00003 5.499994 76.68117
v 23.99997 4.499994 76.68117
v -24 -5.500006 76.68117
v -24 4.499994 76.68117
v 23.99997 4.499994 76.68117
v 23.99997 -5.500006 76.68117
v 23.99997 -5.499994 0.181168
v 23.99997 -5.500006 76.68117
v 23.99997 4.499994 76.68117
v 23.99997 4.500006 0.181175
v 22.99997 5.500006 1.181183
v 23.99997 4.500006 0.181175
v 23.99997 4.499994 76.68117
v 22.99997 5.499994 76.68117
v 22.99997 5.500006 1.181183
v -24 4.500006 0.181175
v 23.99997 4.500006 0.181175
v -23.00003 5.500006 1.181175
v -23.00003 5.500006 1.181175
v -23.00003 5.499994 76.68117
v -24 4.499994 76.68117
v -24 4.500006 0.181175
vt 1 0.88440198
vt 1 0
vt 0.45102 0
vt 0.45102 0.88440198
vt 0.054948 0.438182
vt 0.054948 0.935305
vt 0.379303 0.935305
vt 0.379303 0.438182
vt 0.037509 0.319062
vt 0.383481 0.31906104
vt 0.383481 0.276309
vt 0.037509 0.276309
vt 0.285165 0.241243
vt 0.041607 0.241243
vt 0.041607 0.19327599
vt 0.285165 0.19327599
vt 0.2805 0.13917899
vt 0.041564 0.13389301
vt 0.046648 0.13917899
vt 0.285583 0.13389301
vt 0.028494 0.02690798
vt 0.028494 0.079771996
vt 0.272513 0.079771996
vt 0.272513 0.02690798
vt 0.041141 0.401101
vt 0.378431 0.401101
vt 0.378431 0.359421
vt 0.041141 0.359421
vt 0.293162 0.16039503
vt 0.296557 0.15277702
vt 0.036803 0.15277702
vt 0.036803 0.16039503
vt 0.080814 0.106435
vt 0.213605 0.11405301
vt 0.077989 0.11405301
vt 0.210779 0.106435
vt 0.293162 0.16039503
vt 0.036803 0.16039503
vt 0.036803 0.16801202
vt 0.296557 0.16801202
vn -0 1 0
vn -0 1 0
vn -0 1 0
vn -0 1 0
vn 0 -1 -0
vn 0 -1 -0
vn 0 -1 -0
vn 0 -1 -0
vn -1 0 0
vn -1 0 0
vn -1 0 0
vn -1 0 0
vn 0 0 -1
vn 0 0 -1
vn 0 0 -1
vn 0 0 -1
vn 0 0 1
vn 0 0 1
vn 0 0 1
vn 0 0 1
vn 0 0 1
vn 0 0 1
vn 0 0 1
vn 0 0 1
vn 1 0 0
vn 1 0 0
vn 1 0 0
vn 1 0 0
vn 0.7071 0.7071 0
vn 0.7071 0.7071 0
vn 0.7071 0.7071 0
vn 0.7071 0.7071 0
vn 0 0.7071 -0.7071
vn 0 0.7071 -0.7071
vn 0 0.7071 -0.7071
vn 0 0.7071 -0.7071
vn -0.7071 0.7071 0
vn -0.7071 0.7071 0
vn -0.7071 0.7071 0
vn -0.7071 0.7071 0
f 3/3/3 2/2/2 1/1/1
f 4/4/4 3/3/3 1/1/1
f 7/7/7 6/6/6 5/5/5
f 8/8/8 7/7/7 5/5/5
f 11/11/11 10/10/10 9/9/9
f 12/12/12 11/11/11 9/9/9
f 15/15/15 14/14/14 13/13/13
f 16/16/16 15/15/15 13/13/13
f 19/19/19 18/18/18 17/17/17
f 17/17/17 18/18/18 20/20/20
f 23/23/23 22/22/22 21/21/21
f 24/24/24 23/23/23 21/21/21
f 27/27/27 26/26/26 25/25/25
f 28/28/28 27/27/27 25/25/25
f 31/31/31 30/30/30 29/29/29
f 32/32/32 31/31/31 29/29/29
f 35/35/35 34/34/34 33/33/33
f 33/33/33 34/34/34 36/36/36
f 39/39/39 38/38/38 37/37/37
f 40/40/40 39/39/39 37/37/37
