# VPXTOOL table OBJ file
# VPXTOOL OBJ file
# numVerts: 174 numFaces: 58
o pScoop
v -38.92206 -11.932851 -61.91692
v -38.93402 -4.683826 -66.68909
v 39.146057 -4.683826 -66.68909
v -38.92206 -11.932851 -61.91692
v 39.146057 -4.683826 -66.68909
v 38.60559 -11.932851 -61.91692
v 39.132385 2.967908 -70.71001
v 39.146057 -4.683826 -66.68909
v -38.93402 -4.683826 -66.68909
v 39.132385 2.967908 -70.71001
v -38.93402 -4.683826 -66.68909
v -38.947998 2.967908 -70.71002
v 38.55896 10.890271 -73.90935
v 39.132385 2.967908 -70.71001
v -38.947998 2.967908 -70.71002
v 38.55896 10.890271 -73.90935
v -38.947998 2.967908 -70.71002
v -38.961792 10.890271 -73.90935
v 39.10211 19.888502 -76.2242
v 38.55896 10.890271 -73.90935
v -38.961792 10.890271 -73.90935
v 39.10211 19.888502 -76.2242
v -38.961792 10.890271 -73.90935
v -38.976074 19.888502 -76.2242
v -38.992676 28.329176 -77.602745
v 39.10211 19.888502 -76.2242
v -38.976074 19.888502 -76.2242
v -38.992676 28.329176 -77.602745
v 39.08789 28.329176 -77.602745
v 39.10211 19.888502 -76.2242
v 38.49066 37.79756 -78.89307
v 39.08789 28.329176 -77.602745
v -38.992676 28.329176 -77.602745
v 38.49066 37.79756 -78.89307
v -38.992676 28.329176 -77.602745
v -39.00885 37.79756 -78.89307
v 38.60559 -11.932851 -61.91692
v -38.910156 -17.721914 -56.439735
v -38.92206 -11.932851 -61.91692
v 38.60559 -11.932851 -61.91692
v 39.188843 -17.721914 -56.436035
v -38.910156 -17.721914 -56.439735
v -39.038513 69.02565 -80.1821
v 38.830933 69.02565 -80.1821
v 38.49066 37.79756 -78.89307
v -39.038513 69.02565 -80.1821
v 38.49066 37.79756 -78.89307
v -39.00885 37.79756 -78.89307
v 39.212708 -31.708252 0.090011
v 38.6709 -31.708258 39.27591
v -38.86548 -31.708258 39.33512
v -38.86548 -31.708258 39.33512
v 38.6709 -31.708258 39.27591
v 38.938477 -30.172798 46.461014
v 39.212708 -31.708252 0.090011
v -38.86548 -31.708258 39.33512
v -39.14154 -31.708252 0.090011
v -38.86548 -31.708258 39.33512
v 38.938477 -30.172798 46.461014
v -38.869385 -30.172798 46.461014
v -38.869385 -30.172798 46.461014
v 38.938477 -30.172798 46.461014
v 38.660645 -27.21009 53.333397
v 39.212708 -31.708252 0.090011
v -39.14154 -31.708252 0.090011
v -38.793762 -31.82452 -22.12777
v -38.869385 -30.172798 46.461014
v 38.660645 -27.21009 53.333397
v -38.874756 -27.21009 53.333397
v 39.212708 -31.708252 0.090011
v -38.793762 -31.82452 -22.12777
v 38.67212 -31.82452 -22.12777
v -38.874756 -27.21009 53.333397
v 38.660645 -27.21009 53.333397
v 39.19696 -22.795359 59.857903
v -38.865845 -31.110529 -29.964209
v 38.67212 -31.82452 -22.12777
v -38.793762 -31.82452 -22.12777
v -38.874756 -27.21009 53.333397
v 39.19696 -22.795359 59.857903
v -38.34021 -22.795359 59.857903
v -38.865845 -31.110529 -29.964209
v 38.6709 -31.110529 -29.910551
v 38.67212 -31.82452 -22.12777
v -38.34021 -22.795359 59.857903
v 39.19696 -22.795359 59.857903
v 38.916077 -17.345713 65.594154
v 38.669006 -29.329767 -37.088257
v 38.6709 -31.110529 -29.910551
v -38.865845 -31.110529 -29.964209
v -38.34021 -22.795359 59.857903
v 38.916077 -17.345713 65.594154
v -38.890137 -17.345713 65.594154
v 38.669006 -29.329767 -37.088257
v -38.865845 -31.110529 -29.964209
v -38.869385 -29.329767 -37.088257
v -38.890137 -17.345713 65.594154
v 38.916077 -17.345713 65.594154
v 38.630737 -11.260265 70.97143
v 39.205322 -26.883354 -43.95324
v 38.669006 -29.329767 -37.088257
v -38.869385 -29.329767 -37.088257
v -38.890137 -17.345713 65.594154
v 38.630737 -11.260265 70.97143
v -38.629456 -11.260265 70.971436
v 39.205322 -26.883354 -43.95324
v -38.869385 -29.329767 -37.088257
v -38.874756 -26.883354 -43.95324
v 39.16577 -4.698925 76.09887
v -38.629456 -11.260265 70.971436
v 38.630737 -11.260265 70.97143
v 39.124817 -22.581778 -50.324165
v 39.205322 -26.883354 -43.95324
v -38.874756 -26.883354 -43.95324
v 39.16577 -4.698925 76.09887
v -38.912476 -4.698925 76.09887
v -38.629456 -11.260265 70.971436
v 39.124817 -22.581778 -50.324165
v -38.874756 -26.883354 -43.95324
v -38.81012 -22.581778 -50.324165
v 39.188843 -17.721914 -56.436035
v 39.124817 -22.581778 -50.324165
v -38.81012 -22.581778 -50.324165
v 39.188843 -17.721914 -56.436035
v -38.81012 -22.581778 -50.324165
v -38.910156 -17.721914 -56.439735
v -38.912476 -4.698925 76.09887
v 39.16577 -4.698925 76.09887
v 38.60028 2.62395 80.1235
v -38.912476 -4.698925 76.09887
v 38.60028 2.62395 80.1235
v -38.926514 2.62395 80.1235
v -38.926514 2.62395 80.1235
v 38.60028 2.62395 80.1235
v 38.580505 11.040697 82.94535
v -38.926514 2.62395 80.1235
v 38.580505 11.040697 82.94535
v -38.665466 11.040697 82.94535
v -38.665466 11.040697 82.94535
v 38.580505 11.040697 82.94535
v 39.12372 19.585924 85.65619
v -38.665466 11.040697 82.94535
v 39.12372 19.585924 85.65619
v -38.95636 19.585924 85.65619
v 39.12372 19.585924 85.65619
v -38.972595 28.315844 87.02364
v -38.95636 19.585924 85.65619
v 39.12372 19.585924 85.65619
v 38.538147 28.315844 87.02364
v -38.972595 28.315844 87.02364
v -38.972595 28.315844 87.02364
v 38.538147 28.315844 87.02364
v 38.512146 77.07884 87.023636
v -38.972595 28.315844 87.02364
v 38.512146 77.07884 87.023636
v -38.81317 77.115524 87.02364
v -39.14154 -31.708252 0.090011
v -38.81317 77.115524 87.02364
v -39.088806 77.11554 0.090011
v -39.14154 -31.708252 0.090011
v -39.14148 -31.708265 87.02363
v -38.81317 77.115524 87.02364
v -38.81317 77.115524 87.02364
v 38.512146 77.07884 87.023636
v 39.542053 77.11554 0.090011
v -38.81317 77.115524 87.02364
v 39.542053 77.11554 0.090011
v -39.088806 77.11554 0.090011
v 38.512146 77.07884 87.023636
v 39.212708 -31.708252 0.090011
v 39.542053 77.11554 0.090011
v 38.512146 77.07884 87.023636
v 39.213196 -31.708265 87.02363
v 39.212708 -31.708252 0.090011
vt 1.165495 0.625813
vt 1.191808 0.652503
vt 0.865565 0.695244
vt 1.165495 0.625813
vt 0.865565 0.695244
vt 0.892049 0.66375798
vt 0.830648 0.71813798
vt 0.865565 0.695244
vt 1.191808 0.652503
vt 0.830648 0.71813798
vt 1.191808 0.652503
vt 1.224459 0.67104203
vt 0.788923 0.726255
vt 0.830648 0.71813798
vt 1.224459 0.67104203
vt 0.788923 0.726255
vt 1.224459 0.67104203
vt 1.261889 0.67682803
vt 0.738989 0.715755
vt 0.788923 0.726255
vt 1.261889 0.67682803
vt 0.738989 0.715755
vt 1.261889 0.67682803
vt 0.307231 0.66716403
vt 0.340796 0.64423698
vt 0.738989 0.715755
vt 0.307231 0.66716403
vt 0.340796 0.64423698
vt 0.702874 0.689538
vt 0.738989 0.715755
vt 0.673048 0.650824
vt 0.702874 0.689538
vt 0.340796 0.64423698
vt 0.673048 0.650824
vt 0.340796 0.64423698
vt 0.370281 0.610085
vt 0.892049 0.66375798
vt 1.145128 0.595016
vt 1.165495 0.625813
vt 0.892049 0.66375798
vt 0.91126 0.62865198
vt 1.145128 0.595016
vt 0.370316 0.61009002
vt 0.672999 0.65081698
vt 0.673048 0.650824
vt 0.370316 0.61009002
vt 0.673048 0.650824
vt 0.370281 0.610085
vt 0.9503 0.46015596
vt 0.946974 0.491207
vt 1.101199 0.467795
vt 1.101199 0.467795
vt 0.946974 0.491207
vt 0.942039 0.523754
vt 0.9503 0.46015596
vt 1.101199 0.467795
vt 1.100124 0.46166897
vt 1.101199 0.467795
vt 0.942039 0.523754
vt 1.108331 0.49867904
vt 1.108331 0.49867904
vt 0.942039 0.523754
vt 0.934986 0.557671
vt 0.964073 0.32025898
vt 1.098428 0.45105302
vt 1.100125 0.46166897
vt 1.108331 0.49867904
vt 0.934986 0.557671
vt 1.11755 0.53041297
vt 0.964073 0.32025898
vt 1.100125 0.46166897
vt 0.950299 0.46015596
vt 1.11755 0.53041297
vt 0.934986 0.557671
vt 0.925088 0.592821
vt 1.101201 0.467795
vt 0.950299 0.46015596
vt 1.100125 0.46166897
vt 1.11755 0.53041297
vt 0.925088 0.592821
vt 1.12951 0.562746
vt 1.101201 0.467795
vt 0.946972 0.49120796
vt 0.950299 0.46015596
vt 1.12951 0.562746
vt 0.925088 0.592821
vt 0.911275 0.62865
vt 0.942035 0.523754
vt 0.946972 0.49120796
vt 1.101201 0.467795
vt 1.12951 0.562746
vt 0.911275 0.62865
vt 1.145117 0.59501702
vt 0.942035 0.523754
vt 1.101201 0.467795
vt 1.108334 0.49867904
vt 1.145117 0.59501702
vt 0.911275 0.62865
vt 0.892034 0.66376102
vt 0.934979 0.55767202
vt 0.942035 0.523754
vt 1.108334 0.49867904
vt 1.145117 0.59501702
vt 0.892034 0.66376102
vt 1.165505 0.62581098
vt 0.934979 0.55767202
vt 1.108334 0.49867904
vt 1.117554 0.53041202
vt 0.865552 0.69524598
vt 1.165505 0.62581098
vt 0.892034 0.66376102
vt 0.925078 0.59282202
vt 0.934979 0.55767202
vt 1.117554 0.53041202
vt 0.865552 0.69524598
vt 1.191818 0.652502
vt 1.165505 0.62581098
vt 0.925078 0.59282202
vt 1.117554 0.53041202
vt 1.129517 0.56274498
vt 0.91126 0.62865198
vt 0.925078 0.59282202
vt 1.129517 0.56274498
vt 0.91126 0.62865198
vt 1.129517 0.56274498
vt 1.145128 0.595016
vt 1.191818 0.652502
vt 0.865552 0.69524598
vt 0.830636 0.718139
vt 1.191818 0.652502
vt 0.830636 0.718139
vt 1.224468 0.671041
vt 1.224468 0.671041
vt 0.830636 0.718139
vt 0.788911 0.726256
vt 1.224468 0.671041
vt 0.788911 0.726256
vt 1.261896 0.676827
vt 1.261896 0.676827
vt 0.788911 0.726256
vt 0.738997 0.715756
vt 1.261896 0.676827
vt 0.738997 0.715756
vt 0.307225 0.667163
vt 0.738997 0.715756
vt 0.340792 0.64423698
vt 0.307225 0.667163
vt 0.738997 0.715756
vt 0.702879 0.68953902
vt 0.340792 0.64423698
vt 0.340792 0.64423698
vt 0.702879 0.68953902
vt 0.673053 0.65082502
vt 0.340792 0.64423698
vt 0.673053 0.65082502
vt 0.370279 0.610085
vt 1.075339 0.440167
vt 0.379008 0.134054
vt 0.379049 0.13407099
vt 1.075339 0.440167
vt 0.31061 0.12606901
vt 0.379008 0.134054
vt 0.38455 0.134085
vt 0.695705 0.17585498
vt 0.863684 0.14447796
vt 0.38455 0.134085
vt 0.863684 0.14447796
vt 1.142932 0.10548502
vt 0.697627 0.17638499
vt 0.962244 0.319951
vt 0.862822 0.145572
vt 0.697627 0.17638499
vt 0.753281 0.17549801
vt 0.951073 0.46409
vn -0.1204 0.597 0.7931
vn -0.118 0.495 0.8608
vn 0.1175 0.4951 0.8608
vn -0.1228 0.6137 0.7799
vn 0.1153 0.5137 0.8502
vn 0.1169 0.6144 0.7803
vn 0.1155 0.411 0.9043
vn 0.1172 0.5135 0.8501
vn -0.1182 0.5136 0.8499
vn 0.1153 0.4106 0.9045
vn -0.1183 0.5132 0.8501
vn -0.116 0.4108 0.9043
vn 0.1136 0.3284 0.9377
vn 0.1149 0.4306 0.8952
vn -0.1159 0.4309 0.8949
vn 0.114 0.3203 0.9404
vn -0.1153 0.4236 0.8985
vn -0.1133 0.3211 0.9403
vn 0.1114 0.1906 0.9753
vn 0.1137 0.2944 0.9489
vn -0.1137 0.2942 0.949
vn 0.1105 0.1956 0.9744
vn -0.1145 0.2991 0.9473
vn -0.1125 0.1962 0.9741
vn -0.1107 0.1102 0.9877
vn 0.1103 0.2108 0.9713
vn -0.1128 0.2113 0.9709
vn -0.1107 0.1105 0.9877
vn 0.1089 0.1119 0.9877
vn 0.1103 0.211 0.9712
vn 0.1093 0.1512 0.9825
vn 0.1085 0.2014 0.9735
vn -0.111 0.2003 0.9734
vn 0.1114 0.1341 0.9847
vn -0.1091 0.1833 0.977
vn -0.108 0.1343 0.985
vn 0.1168 0.6348 0.7638
vn -0.1247 0.6818 0.7208
vn -0.1228 0.6342 0.7634
vn 0.1196 0.6143 0.78
vn 0.1211 0.6629 0.7389
vn -0.1221 0.6629 0.7387
vn -0.1252 0.058 0.9904
vn 0.1657 0.105 0.9806
vn 0.1115 0.0197 0.9936
vn -0.1189 0.0753 0.9901
vn 0.1179 0.0363 0.9924
vn -0.1036 0.0411 0.9938
vn -0.1193 0.9911 -0.0598
vn 0.1438 0.9713 -0.1895
vn -0.0786 0.9808 -0.1783
vn -0.0787 0.9896 -0.1207
vn 0.1436 0.9808 -0.1321
vn 0.1371 0.946 -0.2938
vn -0.1307 0.9756 -0.1764
vn -0.09 0.9519 -0.293
vn -0.0473 0.9832 -0.1761
vn -0.0797 0.9905 -0.1124
vn 0.1362 0.9485 -0.286
vn -0.1246 0.9501 -0.286
vn -0.1247 0.9426 -0.3099
vn 0.136 0.9411 -0.3094
vn 0.1341 0.8817 -0.4523
vn -0.0024 0.9949 -0.1011
vn 0.0026 0.9952 -0.0981
vn -0.1337 0.9909 0.017
vn -0.1239 0.9395 -0.3195
vn 0.1349 0.877 -0.4612
vn -0.1215 0.8786 -0.4618
vn -0.0023 0.995 -0.0997
vn -0.1342 0.9908 0.0178
vn 0.1354 0.9903 0.0299
vn -0.1216 0.8258 -0.5506
vn 0.1349 0.8245 -0.5495
vn 0.1337 0.7348 -0.665
vn -0.1339 0.9602 0.2451
vn 0.1352 0.9802 0.1446
vn -0.1341 0.9822 0.1319
vn -0.1354 0.8915 -0.4323
vn 0.1199 0.8199 -0.5598
vn -0.1333 0.8184 -0.5589
vn -0.1247 0.9813 0.1465
vn 0.1404 0.9765 0.1633
vn 0.145 0.9884 0.044
vn -0.1333 0.7999 -0.5852
vn 0.1197 0.8012 -0.5863
vn 0.1167 0.7106 -0.6938
vn 0.1375 0.939 0.3152
vn 0.1401 0.9787 0.1501
vn -0.1246 0.9831 0.1342
vn -0.121 0.7239 -0.6792
vn 0.1289 0.6199 -0.7741
vn -0.1177 0.6211 -0.7748
vn 0.1376 0.9385 0.3168
vn -0.1246 0.9829 0.136
vn -0.1241 0.9403 0.317
vn -0.1179 0.7111 -0.6932
vn 0.1285 0.7099 -0.6925
vn 0.1256 0.6147 -0.7787
vn 0.1357 0.8734 0.4676
vn 0.1376 0.9354 0.3257
vn -0.1241 0.9372 0.3258
vn -0.1229 0.7403 -0.661
vn 0.1208 0.6487 -0.7514
vn -0.1196 0.649 -0.7513
vn 0.1288 0.9056 0.4041
vn -0.131 0.9573 0.2577
vn -0.1287 0.9057 0.4038
vn 0.1194 0.5137 -0.8496
vn -0.1196 0.615 -0.7794
vn 0.1209 0.6148 -0.7794
vn 0.1266 0.7998 0.5867
vn 0.1288 0.8777 0.4617
vn -0.1288 0.8776 0.4617
vn 0.1182 0.5203 -0.8458
vn -0.1185 0.5204 -0.8457
vn -0.1205 0.6209 -0.7746
vn 0.1266 0.7997 0.5869
vn -0.129 0.8775 0.4619
vn -0.1265 0.7998 0.5868
vn 0.1241 0.7561 0.6425
vn 0.1265 0.7998 0.5868
vn -0.1265 0.7999 0.5866
vn 0.1239 0.7566 0.642
vn -0.1267 0.8004 0.5859
vn -0.1238 0.7567 0.6419
vn -0.1185 0.5758 -0.809
vn 0.1176 0.5757 -0.8091
vn 0.1158 0.4773 -0.8711
vn -0.1127 0.5296 -0.8407
vn 0.1219 0.4269 -0.8961
vn -0.1101 0.428 -0.897
vn -0.1103 0.3691 -0.9228
vn 0.1217 0.3684 -0.9216
vn 0.1201 0.2637 -0.9571
vn -0.116 0.4112 -0.9041
vn 0.1146 0.308 -0.9445
vn -0.1138 0.3083 -0.9445
vn -0.1138 0.3015 -0.9467
vn 0.1147 0.3013 -0.9466
vn 0.1118 0.1972 -0.974
vn -0.1147 0.3083 -0.9444
vn 0.1106 0.2043 -0.9726
vn -0.1126 0.2053 -0.9722
vn 0.1106 0.2042 -0.9727
vn -0.1109 0.104 -0.9884
vn -0.113 0.2053 -0.9722
vn 0.1162 0.2557 -0.9597
vn 0.1147 0.1576 -0.9808
vn -0.105 0.1567 -0.982
vn -0.1143 0.0228 -0.9932
vn 0.1146 0.0518 -0.9921
vn 0.0144 0.3627 -0.9318
vn -0.1225 0.086 -0.9887
vn 0.0494 0.4026 -0.914
vn -0.1089 0.3907 -0.9141
vn 1 -0.0047 0.0063
vn 0.9703 -0.1093 0.2157
vn 0.9703 -0.1146 -0.213
vn 1 -0.0048 0.0068
vn 0.9863 0.0039 0.1648
vn 0.9702 -0.1137 0.2138
vn 0.113 -0.9686 0.2213
vn -0.1139 -0.9685 0.2212
vn -0.1115 -0.9721 -0.2066
vn 0.1113 -0.9686 0.2222
vn -0.1132 -0.972 -0.2057
vn 0.1137 -0.9721 -0.2051
vn -0.9704 -0.11 0.215
vn -0.9716 0.1552 -0.1787
vn -0.9703 -0.114 -0.2133
vn -0.9704 -0.1125 0.2138
vn -0.9865 0.0044 0.1637
vn -0.9971 0.0606 0.045
f 3/3/3 2/2/2 1/1/1
f 6/6/6 5/5/5 4/4/4
f 9/9/9 8/8/8 7/7/7
f 12/12/12 11/11/11 10/10/10
f 15/15/15 14/14/14 13/13/13
f 18/18/18 17/17/17 16/16/16
f 21/21/21 20/20/20 19/19/19
f 24/24/24 23/23/23 22/22/22
f 27/27/27 26/26/26 25/25/25
f 30/30/30 29/29/29 28/28/28
f 33/33/33 32/32/32 31/31/31
f 36/36/36 35/35/35 34/34/34
f 39/39/39 38/38/38 37/37/37
f 42/42/42 41/41/41 40/40/40
f 45/45/45 44/44/44 43/43/43
f 48/48/48 47/47/47 46/46/46
f 51/51/51 50/50/50 49/49/49
f 54/54/54 53/53/53 52/52/52
f 57/57/57 56/56/56 55/55/55
f 60/60/60 59/59/59 58/58/58
f 63/63/63 62/62/62 61/61/61
f 66/66/66 65/65/65 64/64/64
f 69/69/69 68/68/68 67/67/67
f 72/72/72 71/71/71 70/70/70
f 75/75/75 74/74/74 73/73/73
f 78/78/78 77/77/77 76/76/76
f 81/81/81 80/80/80 79/79/79
f 84/84/84 83/83/83 82/82/82
f 87/87/87 86/86/86 85/85/85
f 90/90/90 89/89/89 88/88/88
f 93/93/93 92/92/92 91/91/91
f 96/96/96 95/95/95 94/94/94
f 99/99/99 98/98/98 97/97/97
f 102/102/102 101/101/101 100/100/100
f 105/105/105 104/104/104 103/103/103
f 108/108/108 107/107/107 106/106/106
f 111/111/111 110/110/110 109/109/109
f 114/114/114 113/113/113 112/112/112
f 117/117/117 116/116/116 115/115/115
f 120/120/120 119/119/119 118/118/118
f 123/123/123 122/122/122 121/121/121
f 126/126/126 125/125/125 124/124/124
f 129/129/129 128/128/128 127/127/127
f 132/132/132 131/131/131 130/130/130
f 135/135/135 134/134/134 133/133/133
f 138/138/138 137/137/137 136/136/136
f 141/141/141 140/140/140 139/139/139
f 144/144/144 143/143/143 142/142/142
f 147/147/147 146/146/146 145/145/145
f 150/150/150 149/149/149 148/148/148
f 153/153/153 152/152/152 151/151/151
f 156/156/156 155/155/155 154/154/154
f 159/159/159 158/158/158 157/157/157
f 162/162/162 161/161/161 160/160/160
f 165/165/165 164/164/164 163/163/163
f 168/168/168 167/167/167 166/166/166
f 171/171/171 170/170/170 169/169/169
f 174/174/174 173/173/173 172/172/172
