# VPXTOOL table OBJ file
# VPXTOOL OBJ file
# numVerts: 657 numFaces: 698
o kickerCup1
v 0.13712 0.005193 0.610953
v 0.140158 -0.01994 0.63612
v 0.128993 -0.073484 0.610897
v 0.108981 0.066979 0.636035
v 0.102334 0.074814 0.610935
v 0.045574 0.111285 0.636035
v 0.046133 0.110058 0.610956
v -0.017058 0.118487 0.610981
v -0.018835 0.116712 0.636035
v -0.080039 0.094497 0.636015
v -0.100762 0.077823 0.610903
v -0.123189 0.043059 0.636033
v -0.141031 -0.017848 0.610934
v -0.139995 -0.035709 0.635988
v -0.116893 -0.095015 0.610955
v -0.103703 -0.113539 0.636093
v -0.081405 -0.132752 0.610947
v -0.034204 -0.156402 0.636054
v -0.017061 -0.159551 0.610981
v 0.045574 -0.15235 0.636035
v 0.073851 -0.139847 0.610945
v 0.108546 -0.108477 0.636058
v -0.028473 -0.539091 0.361906
v -0.028515 -0.86037 0.610953
v -0.028515 -0.828519 0.071509
v -0.028515 -0.53547 0.610953
v -0.02852 -0.857148 0.081923
v 0.021645 -0.82656 0.072252
v 0.02163 -0.540434 0.361681
v 0.300717 0.338068 0.209938
v 0.350877 0.337086 0.610953
v 0.350866 0.338819 0.211338
v 0.300717 0.337086 0.610953
v 0.350877 0.443849 0.174038
v 0.3508 0.533796 0.115532
v 0.300723 0.532514 0.115706
v 0.300717 0.437334 0.177285
v 0.300717 0.437334 0.177285
v 0.300717 0.538638 0.610953
v -0.351363 0.338068 0.209938
v -0.301203 0.337086 0.610953
v -0.301214 0.338819 0.211338
v -0.351363 0.337086 0.610953
v -0.301203 0.443851 0.174037
v -0.301238 0.532141 0.115333
v -0.351345 0.533901 0.115538
v -0.351363 0.437334 0.177285
v -0.301203 0.443851 0.174037
v -0.301203 0.538638 0.610953
v 0.350877 0.337086 0.610953
v 0.300717 0.337086 0.610953
v 0.13712 0.005193 0.610953
v 0.128993 -0.073484 0.610897
v 0.021645 -0.86037 0.610953
v 0.021645 -0.53547 0.610953
v 0.102334 0.074814 0.610935
v 0.300717 0.538638 0.610953
v 0.046133 0.110058 0.610956
v -0.017058 0.118487 0.610981
v -0.301203 0.538638 0.610953
v -0.100762 0.077823 0.610903
v -0.301203 0.337086 0.610953
v -0.141031 -0.017848 0.610934
v -0.351363 0.337086 0.610953
v -0.028515 -0.53547 0.610953
v -0.116893 -0.095015 0.610955
v -0.081405 -0.132752 0.610947
v -0.017061 -0.159551 0.610981
v 0.073851 -0.139847 0.610945
v -0.028515 -0.86037 0.610953
v 0.021645 -0.86037 0.636033
v 0.021645 -0.86037 0.610953
v 0.350877 0.337086 0.636033
v -0.351363 0.337086 0.636033
v -0.028515 -0.86037 0.610953
v -0.028515 -0.86037 0.636033
v -0.351363 0.538638 0.636033
v -0.351363 0.437334 0.177285
v 0.350877 0.538638 0.636033
v 0.350877 0.443849 0.174038
v -0.123189 0.043059 0.636033
v -0.139995 -0.035709 0.635988
v -0.351363 0.337086 0.636033
v -0.080039 0.094497 0.636015
v -0.351363 0.538638 0.636033
v -0.018835 0.116712 0.636035
v 0.350877 0.538638 0.636033
v 0.045574 0.111285 0.636035
v 0.108981 0.066979 0.636035
v 0.350877 0.337086 0.636033
v 0.140158 -0.01994 0.63612
v 0.021645 -0.86037 0.636033
v 0.108546 -0.108477 0.636058
v 0.045574 -0.15235 0.636035
v -0.034204 -0.156402 0.636054
v -0.028515 -0.86037 0.636033
v -0.103703 -0.113539 0.636093
v 0.021645 -0.53547 0.610953
v 0.021645 -0.86037 0.610953
v 0.021652 -0.854228 0.078166
v -0.028515 -0.86037 0.610953
v 0.021645 -0.86037 0.636033
v -0.028515 -0.86037 0.636033
v 0.021645 -0.86037 0.610953
v 0.156344 -0.338188 0.545618
v 0.557168 -0.106996 0.595778
v 0.557168 -0.106995 0.545618
v -0.224872 -0.558435 0.595778
v -0.132988 -0.505311 0.545618
v -0.224872 -0.558435 0.545618
v -0.651232 0.180056 0.545618
v -0.224872 -0.558435 0.595778
v -0.224872 -0.558435 0.545618
v -0.651232 0.180056 0.595778
v -0.224872 -0.558435 0.595778
v 0.281972 0.297476 0.595778
v 0.557168 -0.106996 0.595778
v -0.27982 0.297476 0.595778
v -0.370108 0.297476 0.595778
v 0.323696 0.297476 0.595778
v 0.281972 0.369524 0.595778
v -0.27982 0.394605 0.595778
v 0.130808 0.631496 0.595778
v -0.651232 0.180056 0.595778
v -0.370108 0.342393 0.595778
v 0.130808 0.631497 0.545618
v 0.281972 0.588405 0.545618
v 0.281972 0.369524 0.545618
v 0.260474 0.979377 0.545611
v 0.518747 0.868248 0.545635
v 0.37226 0.588405 0.545618
v 0.701048 0.726599 0.545618
v 0.824418 0.581724 0.545619
v 0.37226 0.297476 0.545618
v 0.918269 0.415506 0.545618
v 0.97928 0.234007 0.545619
v 0.557168 -0.106995 0.545618
v 1.004542 0.045209 0.545618
v 0.993737 -0.145996 0.545618
v 0.947099 -0.330657 0.545618
v 0.865879 -0.504055 0.545618
v 0.753555 -0.658714 0.545619
v 0.156344 -0.338188 0.545618
v 0.615926 -0.787412 0.545618
v 0.45343 -0.890216 0.545618
v 0.275949 -0.959285 0.545618
v 0.076843 -0.922335 0.545609
v 0.143804 -0.986619 0.545618
v 0.323696 0.297476 0.545618
v -0.007368 -0.997599 0.545618
v 0.024866 -0.961415 0.545613
v -0.029794 -0.959538 0.545612
v -0.077096 -0.918391 0.545613
v -0.141652 -0.986619 0.545618
v -0.224872 -0.558435 0.545618
v -0.132988 -0.505311 0.545618
v -0.290037 -0.954517 0.545618
v -0.873192 -0.487443 0.545619
v -0.651232 0.180056 0.545618
v -0.764086 -0.643946 0.545618
v -0.864921 0.514893 0.545619
v -0.370108 0.342393 0.545618
v -0.959241 0.309409 0.545613
v -0.787576 0.626709 0.545618
v -0.370108 0.588405 0.545618
v -0.685143 0.739549 0.545618
v -0.58078 0.823701 0.545618
v -0.451319 0.903015 0.545618
v -0.27982 0.588405 0.545618
v -0.27376 0.972446 0.545618
v -0.085391 1.007019 0.545618
v 0.048728 1.008609 0.545618
v -0.27982 0.394605 0.545618
v -1.001571 0.062969 0.545618
v -0.994215 -0.126701 0.545618
v -0.950789 -0.313863 0.545618
v -0.627522 -0.776614 0.545618
v -0.466305 -0.882467 0.545619
v -0.370108 0.588405 0.495458
v -0.27982 0.588405 0.545618
v -0.27982 0.588405 0.495458
v -0.370108 0.588405 0.545618
v 0.37226 0.588405 0.495458
v 0.37226 0.297476 0.545618
v 0.37226 0.297476 0.495458
v 0.37226 0.588405 0.545618
v 0.281972 0.588405 0.495458
v 0.37226 0.588405 0.545618
v 0.37226 0.588405 0.495458
v 0.281972 0.588405 0.545618
v -0.067204 -0.933416 -0.006552
v -0.084305 -0.880821 0.005463
v -0.013642 -0.963723 -0.006142
v 0.034982 -0.957516 -0.006142
v 0.072269 -0.925885 -0.005275
v 0.084351 -0.884542 0.00468
v 0.110213 -0.688413 0.164882
v 0.110288 -0.688395 0.495458
v 0.156344 -0.338188 0.545618
v 0.202843 0.035063 0.495467
v 0.202824 0.010858 0.545618
v -0.109625 -0.690316 0.165236
v -0.109276 -0.688167 0.495458
v -0.132988 -0.505311 0.545618
v -0.200538 0.010667 0.495458
v -0.199145 0.039801 0.545606
v 0.009521 -0.997599 -0.006142
v -0.141652 -0.986619 -0.006142
v -0.013642 -0.963723 -0.006142
v 0.034982 -0.957516 -0.006142
v 0.143804 -0.986619 -0.006142
v 0.292196 -0.954515 -0.006142
v 0.468451 -0.882467 -0.006143
v 0.473617 -0.80081 -0.005962
v 0.629207 -0.776974 -0.006141
v 0.707851 -0.610103 -0.006004
v 0.727256 -0.685887 -0.006142
v 0.824723 -0.568147 -0.006141
v 0.867901 -0.345837 -0.005971
v 0.918558 -0.40186 -0.006143
v 0.97928 -0.221134 -0.006142
v 0.937389 -0.049092 -0.006
v 1.004547 -0.032246 -0.006142
v 0.986066 0.215997 -0.006139
v 0.890217 0.217718 -0.003313
v 0.816584 0.468091 -0.005977
v 0.886516 0.48276 -0.006161
v 0.754295 0.670839 -0.006142
v 0.547025 0.779155 -0.006261
v 0.614239 0.801737 -0.006141
v 0.453465 0.90301 -0.00614
v 0.167421 0.927006 -0.005931
v 0.275919 0.972443 -0.006141
v 0.087546 1.007019 -0.006141
v -0.046576 1.008609 -0.006142
v -0.175052 0.930503 -0.006054
v -0.25831 0.97938 -0.006136
v -0.505116 0.793113 -0.005961
v -0.466357 0.895257 -0.00614
v -0.58078 0.823701 -0.006142
v -0.697389 0.727903 -0.006143
v -0.734968 0.587636 -0.005979
v -0.787576 0.626709 -0.006142
v -0.873379 0.500229 -0.006141
v -0.881208 0.317463 -0.006005
v -0.950896 0.326374 -0.006142
v -0.994208 0.139615 -0.006142
v -0.936599 0.018978 -0.005982
v -1.001575 -0.050051 -0.006142
v -0.959148 -0.296898 -0.006137
v -0.888203 -0.283633 -0.00598
v -0.773585 -0.517919 -0.005962
v -0.834708 -0.552106 -0.006162
v -0.685091 -0.72679 -0.006143
v -0.563255 -0.742618 -0.005986
v -0.484145 -0.875926 -0.006141
v -0.36274 -0.834682 -0.003596
v -0.273794 -0.959283 -0.006142
v -0.181792 0.091201 0.495458
v -0.14365 0.148557 0.545756
v -0.119145 0.169639 0.49532
v -0.03449 0.206088 0.545725
v -0.003143 0.209256 0.49539
v 0.066247 0.19721 0.545618
v 0.096006 0.184451 0.495458
v 0.135461 0.156827 0.545619
v 0.158666 0.132209 0.495459
v 0.184173 0.090973 0.545618
v -0.27982 0.297476 0.495458
v -0.003143 0.209256 0.49539
v -0.27982 0.588405 0.495458
v -0.119145 0.169639 0.49532
v -0.298869 0.643742 0.495458
v -0.370108 0.588405 0.495458
v -0.193864 0.682341 0.495458
v -0.493046 0.508444 0.495458
v -0.370108 0.297476 0.495458
v -0.406816 0.579513 0.495458
v -0.181792 0.091201 0.495458
v -0.200538 0.010667 0.495458
v 0.37226 0.297476 0.495458
v 0.507468 0.496084 0.495459
v 0.37226 0.588405 0.495458
v 0.603543 0.371406 0.495458
v 0.31531 0.636973 0.495458
v 0.281972 0.588405 0.495458
v 0.410108 0.578829 0.495458
v 0.281972 0.297476 0.495458
v 0.167991 0.690845 0.495458
v 0.158666 0.132209 0.495459
v 0.096006 0.184451 0.495458
v -0.186568 -0.671523 0.495458
v -0.109276 -0.688167 0.495458
v -0.305323 -0.627738 0.495458
v -0.439091 -0.543342 0.495458
v -0.566996 -0.412239 0.495456
v -0.662788 -0.230234 0.495458
v -0.699191 -0.069055 0.495458
v -0.701392 0.042345 0.495458
v -0.68499 0.166101 0.495458
v -0.649864 0.273309 0.495458
v -0.592363 0.385956 0.495458
v -0.070031 0.70724 0.495458
v 0.041204 0.708789 0.495458
v 0.652472 0.272169 0.495458
v 0.690395 0.151943 0.495458
v 0.202843 0.035063 0.495467
v 0.705333 -0.006346 0.495458
v 0.69374 -0.116572 0.495458
v 0.66201 -0.237185 0.495458
v 0.613712 -0.339327 0.495458
v 0.542297 -0.444386 0.495458
v 0.464372 -0.522868 0.495458
v 0.362376 -0.598147 0.495458
v 0.219439 -0.663258 0.495458
v 0.110288 -0.688395 0.495458
v -0.852716 -0.264542 0.00508
v -0.730252 -0.532255 0.001221
v -0.767203 -0.41958 0.016706
v -0.887601 -0.079509 0.00558
v -0.887759 0.124762 0.004287
v -0.241892 0.867069 0.005673
v 0.685763 0.581809 0.004777
v 0.80282 0.405729 0.005296
v -0.053936 0.89807 0.005407
v 0.11016 0.894337 0.005004
v 0.233748 0.869221 0.004848
v 0.349299 0.830141 0.004791
v 0.488094 0.75342 0.00673
v 0.600012 0.669842 0.004679
v 0.897029 0.039742 0.003721
v 0.884213 -0.129601 0.006279
v 0.843592 -0.29176 0.005372
v 0.76498 -0.458484 0.005494
v 0.860746 0.187933 0.016004
v -0.651021 -0.581991 0.016231
v -0.533998 -0.708885 0.005584
v -0.383029 -0.783054 0.016372
v -0.228722 -0.856599 0.005411
v -0.814875 0.400793 0.000766
v -0.677279 0.590768 0.005396
v -0.498561 0.762457 0.000983
v -0.839577 0.257525 0.016708
v -0.774527 0.418457 0.01616
v -0.592859 0.651624 0.016942
v -0.420366 0.777221 0.016648
v 0.622717 -0.638486 0.004331
v 0.467314 -0.768678 0.001719
v 0.292151 -0.842862 0.003753
v 0.668696 -0.564712 0.015694
v 0.479637 -0.727267 0.017702
v 0.209048 -0.844041 0.017968
v -0.109625 -0.690316 0.165236
v -0.296196 -0.632385 0.164604
v -0.430462 -0.550603 0.164839
v -0.541344 -0.44346 0.164695
v -0.612016 -0.338187 0.164858
v -0.66191 -0.230393 0.165173
v -0.698026 -0.083258 0.164721
v -0.701392 0.042345 0.164858
v -0.68724 0.157515 0.164506
v -0.649864 0.273309 0.164858
v -0.59781 0.37785 0.164666
v -0.500767 0.501284 0.164607
v -0.406816 0.579513 0.164858
v -0.306621 0.640387 0.165041
v -0.193864 0.682341 0.164858
v -0.075467 0.707138 0.164606
v 0.073332 0.707153 0.164879
v 0.197156 0.682113 0.164858
v 0.306699 0.641626 0.16504
v 0.410108 0.578829 0.164858
v 0.504096 0.500224 0.164326
v 0.597149 0.381762 0.164883
v 0.652472 0.272169 0.164858
v 0.688438 0.162249 0.164588
v 0.705823 0.00392 0.164927
v 0.69374 -0.116571 0.164858
v 0.665311 -0.228986 0.164809
v 0.613712 -0.339327 0.164858
v 0.548493 -0.437299 0.164809
v 0.464372 -0.522867 0.164858
v 0.371181 -0.593124 0.164957
v 0.227847 -0.660899 0.164597
v 0.110213 -0.688413 0.164882
v -0.186568 -0.671523 0.495458
v -0.296196 -0.632385 0.164604
v -0.305323 -0.627738 0.495458
v -0.430462 -0.550603 0.164839
v -0.439091 -0.543342 0.495458
v -0.541344 -0.44346 0.164695
v -0.566996 -0.412239 0.495456
v -0.612016 -0.338187 0.164858
v -0.662788 -0.230234 0.495458
v -0.66191 -0.230393 0.165173
v -0.698026 -0.083258 0.164721
v -0.699191 -0.069055 0.495458
v -0.701392 0.042345 0.164858
v -0.701392 0.042345 0.495458
v -0.68724 0.157515 0.164506
v -0.68499 0.166101 0.495458
v -0.649864 0.273309 0.164858
v -0.649864 0.273309 0.495458
v -0.59781 0.37785 0.164666
v -0.592363 0.385956 0.495458
v -0.500767 0.501284 0.164607
v -0.493046 0.508444 0.495458
v -0.406816 0.579513 0.164858
v -0.406816 0.579513 0.495458
v -0.306621 0.640387 0.165041
v -0.298869 0.643742 0.495458
v -0.193864 0.682341 0.164858
v -0.193864 0.682341 0.495458
v -0.075467 0.707138 0.164606
v -0.070031 0.70724 0.495458
v 0.073332 0.707153 0.164879
v 0.041204 0.708789 0.495458
v 0.167991 0.690845 0.495458
v 0.197156 0.682113 0.164858
v 0.306699 0.641626 0.16504
v 0.31531 0.636973 0.495458
v 0.410108 0.578829 0.164858
v 0.410108 0.578829 0.495458
v 0.504096 0.500224 0.164326
v 0.507468 0.496084 0.495459
v 0.597149 0.381762 0.164883
v 0.603543 0.371406 0.495458
v 0.652472 0.272169 0.164858
v 0.652472 0.272169 0.495458
v 0.688438 0.162249 0.164588
v 0.690395 0.151943 0.495458
v 0.705823 0.00392 0.164927
v 0.705333 -0.006346 0.495458
v 0.69374 -0.116571 0.164858
v 0.69374 -0.116572 0.495458
v 0.665311 -0.228986 0.164809
v 0.66201 -0.237185 0.495458
v 0.613712 -0.339327 0.164858
v 0.613712 -0.339327 0.495458
v 0.548493 -0.437299 0.164809
v 0.542297 -0.444386 0.495458
v 0.464372 -0.522867 0.164858
v 0.464372 -0.522868 0.495458
v 0.371181 -0.593124 0.164957
v 0.362376 -0.598147 0.495458
v 0.227847 -0.660899 0.164597
v 0.219439 -0.663258 0.495458
v 0.110213 -0.688413 0.164882
v 0.110288 -0.688395 0.495458
v 1.004542 0.045209 0.545618
v 1.004547 -0.032246 -0.006142
v 0.993737 -0.145996 0.545618
v 0.986066 0.215997 -0.006139
v 0.97928 0.234007 0.545619
v 0.918269 0.415506 0.545618
v 0.886516 0.48276 -0.006161
v 0.824418 0.581724 0.545619
v 0.754295 0.670839 -0.006142
v 0.701048 0.726599 0.545618
v 0.614239 0.801737 -0.006141
v 0.518747 0.868248 0.545635
v 0.453465 0.90301 -0.00614
v 0.260474 0.979377 0.545611
v 0.275919 0.972443 -0.006141
v 0.087546 1.007019 -0.006141
v 0.048728 1.008609 0.545618
v -0.085391 1.007019 0.545618
v -0.046576 1.008609 -0.006142
v -0.25831 0.97938 -0.006136
v -0.27376 0.972446 0.545618
v -0.451319 0.903015 0.545618
v -0.466357 0.895257 -0.00614
v -0.58078 0.823701 0.545618
v -0.58078 0.823701 -0.006142
v -0.685143 0.739549 0.545618
v -0.697389 0.727903 -0.006143
v -0.787576 0.626709 0.545618
v -0.787576 0.626709 -0.006142
v -0.864921 0.514893 0.545619
v -0.873379 0.500229 -0.006141
v -0.959241 0.309409 0.545613
v -0.950896 0.326374 -0.006142
v -0.994208 0.139615 -0.006142
v -1.001571 0.062969 0.545618
v -1.001575 -0.050051 -0.006142
v -0.994215 -0.126701 0.545618
v -0.959148 -0.296898 -0.006137
v -0.950789 -0.313863 0.545618
v -0.873192 -0.487443 0.545619
v -0.834708 -0.552106 -0.006162
v -0.764086 -0.643946 0.545618
v -0.685091 -0.72679 -0.006143
v -0.627522 -0.776614 0.545618
v -0.484145 -0.875926 -0.006141
v -0.466305 -0.882467 0.545619
v -0.290037 -0.954517 0.545618
v -0.273794 -0.959283 -0.006142
v -0.141652 -0.986619 0.545618
v -0.141652 -0.986619 -0.006142
v -0.007368 -0.997599 0.545618
v 0.009521 -0.997599 -0.006142
v 0.143804 -0.986619 0.545618
v 0.143804 -0.986619 -0.006142
v 0.275949 -0.959285 0.545618
v 0.292196 -0.954515 -0.006142
v 0.45343 -0.890216 0.545618
v 0.468451 -0.882467 -0.006143
v 0.615926 -0.787412 0.545618
v 0.629207 -0.776974 -0.006141
v 0.753555 -0.658714 0.545619
v 0.727256 -0.685887 -0.006142
v 0.824723 -0.568147 -0.006141
v 0.865879 -0.504055 0.545618
v 0.918558 -0.40186 -0.006143
v 0.947099 -0.330657 0.545618
v 0.97928 -0.221134 -0.006142
v 0.281972 0.297476 0.595778
v 0.323696 0.297476 0.545618
v 0.323696 0.297476 0.595778
v 0.281972 0.297476 0.495458
v 0.37226 0.297476 0.495458
v 0.37226 0.297476 0.545618
v -0.27982 0.297476 0.495458
v -0.370108 0.297476 0.595778
v -0.370108 0.297476 0.495458
v -0.27982 0.297476 0.595778
v -0.370108 0.342393 0.545618
v -0.370108 0.297476 0.595778
v -0.370108 0.342393 0.595778
v -0.370108 0.297476 0.495458
v -0.370108 0.588405 0.495458
v -0.370108 0.588405 0.545618
v 0.156344 -0.338188 0.545618
v -0.022318 -0.144179 0.545255
v -0.132988 -0.505311 0.545618
v 0.068446 -0.129061 0.545618
v -0.102049 -0.104414 0.545618
v -0.199145 0.039801 0.545606
v -0.141823 -0.043634 0.545618
v -0.148815 0.028539 0.545618
v -0.121383 0.095399 0.545618
v -0.14365 0.148557 0.545756
v -0.066462 0.142104 0.545618
v -0.03449 0.206088 0.545725
v 0.00456 0.157919 0.545618
v 0.066247 0.19721 0.545618
v 0.074514 0.138993 0.545619
v 0.135461 0.156827 0.545619
v 0.138585 0.072424 0.545316
v 0.184173 0.090973 0.545618
v 0.202824 0.010858 0.545618
v 0.150977 -0.01532 0.545618
v 0.123481 -0.082653 0.545618
v 0.281972 0.369524 0.545618
v 0.281972 0.297476 0.595778
v 0.281972 0.369524 0.595778
v 0.281972 0.297476 0.495458
v 0.281972 0.588405 0.495458
v 0.281972 0.588405 0.545618
v 0.130808 0.631496 0.595778
v 0.281972 0.369524 0.545618
v 0.281972 0.369524 0.595778
v 0.130808 0.631497 0.545618
v 0.323696 0.297476 0.595778
v 0.557168 -0.106995 0.545618
v 0.557168 -0.106996 0.595778
v 0.323696 0.297476 0.545618
v -0.27982 0.297476 0.595778
v -0.27982 0.394605 0.545618
v -0.27982 0.394605 0.595778
v -0.27982 0.297476 0.495458
v -0.27982 0.588405 0.495458
v -0.27982 0.588405 0.545618
v 0.130808 0.631497 0.545618
v -0.27982 0.394605 0.595778
v -0.27982 0.394605 0.545618
v 0.130808 0.631496 0.595778
v -0.651232 0.180056 0.595778
v -0.370108 0.342393 0.545618
v -0.370108 0.342393 0.595778
v -0.651232 0.180056 0.545618
v -0.131577 0.054601 0.57069
v -0.133539 -0.027883 0.570698
v -0.136844 -0.011045 0.395138
v -0.128195 0.057474 0.395138
v -0.07999 0.121567 0.395129
v -0.062294 0.132493 0.570691
v -0.007588 0.144261 0.395138
v 0.00974 0.14426 0.570698
v 0.064284 0.13256 0.395148
v 0.082066 0.121603 0.570708
v 0.123065 0.073265 0.395138
v 0.130399 0.057396 0.570698
v 0.140019 0.006629 0.395139
v 0.138989 -0.010955 0.570699
v 0.11753 -0.073853 0.39515
v 0.113617 -0.075065 0.570698
v 0.059933 -0.119502 0.570698
v 0.03118 -0.130752 0.395094
v -0.028996 -0.130757 0.570725
v -0.057781 -0.119502 0.395138
v -0.10025 -0.08859 0.570699
v -0.111494 -0.075 0.395138
v -0.136844 -0.011045 0.395138
v 0.140019 0.006629 0.395139
v -0.128195 0.057474 0.395138
v 0.11753 -0.073853 0.39515
v -0.111494 -0.075 0.395138
v 0.123065 0.073265 0.395138
v -0.07999 0.121567 0.395129
v 0.064284 0.13256 0.395148
v -0.007588 0.144261 0.395138
v 0.138989 -0.010955 0.570699
v 0.150968 0.028539 0.570698
v 0.130399 0.057396 0.570698
v 0.143976 -0.043634 0.570698
v 0.111385 0.111764 0.570995
v 0.082066 0.121603 0.570708
v 0.034146 0.154321 0.570698
v 0.00974 0.14426 0.570698
v -0.060904 0.14759 0.570634
v -0.062294 0.132493 0.570691
v -0.13696 0.070906 0.570981
v -0.131577 0.054601 0.57069
v -0.148824 -0.01532 0.570698
v -0.133539 -0.027883 0.570698
v -0.121329 -0.082653 0.570698
v -0.10025 -0.08859 0.570699
v -0.066221 -0.129103 0.570698
v -0.028996 -0.130757 0.570725
v 0.00456 -0.144822 0.570698
v 0.059933 -0.119502 0.570698
v 0.092102 -0.115904 0.571057
v 0.113617 -0.075065 0.570698
v 0.150977 -0.01532 0.545618
v 0.138585 0.072424 0.545316
v 0.150968 0.028539 0.570698
v 0.143976 -0.043634 0.570698
v 0.123481 -0.082653 0.545618
v 0.092102 -0.115904 0.571057
v 0.068446 -0.129061 0.545618
v 0.00456 -0.144822 0.570698
v -0.022318 -0.144179 0.545255
v -0.066221 -0.129103 0.570698
v -0.102049 -0.104414 0.545618
v -0.121329 -0.082653 0.570698
v -0.141823 -0.043634 0.545618
v -0.148824 -0.01532 0.570698
v -0.148815 0.028539 0.545618
v -0.13696 0.070906 0.570981
v -0.121383 0.095399 0.545618
v -0.060904 0.14759 0.570634
v -0.066462 0.142104 0.545618
v 0.00456 0.157919 0.545618
v 0.034146 0.154321 0.570698
v 0.074514 0.138993 0.545619
v 0.111385 0.111764 0.570995
vt 0.6563 0.607
vt 0.6557 0.59039998
vt 0.6617 0.5553
vt 0.675 0.64749998
vt 0.6795 0.6527
vt 0.7167 0.677
vt 0.7159 0.67729998
vt 0.7581 0.68120003
vt 0.7595 0.6818
vt 0.7996 0.66540003
vt 0.8122 0.6537
vt 0.8295 0.6326
vt 0.8382 0.59179997
vt 0.8377 0.58020002
vt 0.8253 0.5403
vt 0.8156 0.5287
vt 0.8015 0.515
vt 0.7693 0.501
vt 0.7581 0.4989
vt 0.7167 0.5032
vt 0.6988 0.51270002
vt 0.6753 0.5323
vt 0.7662 0.2371
vt 0.7662 0.023699999
vt 0.7662 0.044799984
vt 0.7662 0.24269998
vt 0.7662 0.02759999
vt 0.7322 0.046000004
vt 0.7085 0.23729998
vt 0.5433 0.83270001
vt 0.5094 0.8312
vt 0.5094 0.83289999
vt 0.5433 0.8312
vt 0.5094 0.903
vt 0.5094 0.962800026
vt 0.5433 0.96179998
vt 0.5433 0.898500025
vt 0.5433 0.898500025
vt 0.5433 0.96719998
vt 0.9847 0.83270001
vt 0.9507 0.8312
vt 0.9507 0.83289999
vt 0.9847 0.8312
vt 0.9507 0.903
vt 0.9507 0.962000012
vt 0.9847 0.962300003
vt 0.9847 0.898500025
vt 0.9507 0.903
vt 0.9507 0.96719998
vt 0.5094 0.8312
vt 0.5433 0.8312
vt 0.6563 0.607
vt 0.6617 0.5553
vt 0.7322 0.023699999
vt 0.7322 0.24269998
vt 0.6795 0.6527
vt 0.5433 0.96719998
vt 0.7159 0.67729998
vt 0.7581 0.68120003
vt 0.9507 0.96719998
vt 0.8122 0.6537
vt 0.9507 0.8312
vt 0.8382 0.59179997
vt 0.9847 0.8312
vt 0.7662 0.24269998
vt 0.8253 0.5403
vt 0.8015 0.515
vt 0.7581 0.4989
vt 0.6988 0.51270002
vt 0.7662 0.023699999
vt 0.7322 0.023699999
vt 0.7322 0.023699999
vt 0.5094 0.8312
vt 0.9847 0.8312
vt 0.7662 0.023699999
vt 0.7662 0.023699999
vt 0.9847 0.96719998
vt 0.9847 0.898500025
vt 0.5094 0.96719998
vt 0.5094 0.903
vt 0.8295 0.6326
vt 0.8377 0.58020002
vt 0.9847 0.8312
vt 0.7996 0.66540003
vt 0.9847 0.96719998
vt 0.7595 0.6818
vt 0.5094 0.96719998
vt 0.7167 0.677
vt 0.675 0.64749998
vt 0.5094 0.8312
vt 0.6557 0.59039998
vt 0.7322 0.023699999
vt 0.6753 0.5323
vt 0.7167 0.5032
vt 0.7693 0.501
vt 0.7662 0.023699999
vt 0.8156 0.5287
vt 0.7322 0.24269998
vt 0.7322 0.023699999
vt 0.7322 0.029399991
vt 0.7662 0.023699999
vt 0.7322 0.023699999
vt 0.7662 0.023699999
vt 0.7322 0.023699999
vt 0.2177 0.33319998
vt 0.121 0.44490004
vt 0.121 0.44490004
vt 0.3097 0.22679996
vt 0.2875 0.25240004
vt 0.3097 0.22679996
vt 0.4126 0.58359998
vt 0.3097 0.22679996
vt 0.3097 0.22679996
vt 0.4126 0.58359998
vt 0.3097 0.22679996
vt 0.1874 0.64029998
vt 0.121 0.44490004
vt 0.3229 0.64029998
vt 0.3447 0.64029998
vt 0.1774 0.64029998
vt 0.1874 0.67510003
vt 0.3229 0.6872
vt 0.2239 0.8017
vt 0.4126 0.58359998
vt 0.3447 0.662
vt 0.2239 0.8017
vt 0.1874 0.7809
vt 0.1874 0.67510003
vt 0.193 0.966799974
vt 0.1308 0.91409999
vt 0.1656 0.7809
vt 0.0866 0.847
vt 0.0569 0.77710003
vt 0.1656 0.64029998
vt 0.0343 0.6969
vt 0.0196 0.6095
vt 0.121 0.44490004
vt 0.0135 0.5184
vt 0.0161 0.42620003
vt 0.0274 0.3372
vt 0.0469 0.2536
vt 0.074 0.17910004
vt 0.2177 0.33319998
vt 0.1071 0.116999984
vt 0.1462 0.067499995
vt 0.189 0.03399998
vt 0.2379 0.05309999
vt 0.2207 0.019900024
vt 0.1774 0.64029998
vt 0.2572 0.015600026
vt 0.2491 0.0334
vt 0.2619 0.03369999
vt 0.2732 0.055299997
vt 0.2896 0.019900024
vt 0.3097 0.22679996
vt 0.2875 0.25240004
vt 0.3253 0.036300004
vt 0.4657 0.26160002
vt 0.4126 0.58359998
vt 0.4394 0.18620002
vt 0.4637 0.7449
vt 0.3447 0.662
vt 0.4854 0.6452
vt 0.4455 0.79939997
vt 0.3447 0.7809
vt 0.4204 0.85320002
vt 0.3956 0.894599974
vt 0.3641 0.93199998
vt 0.3229 0.7809
vt 0.3214 0.965499997
vt 0.276 0.98210001
vt 0.2436 0.98390001
vt 0.3229 0.6872
vt 0.4966 0.527
vt 0.4949 0.43560004
vt 0.4843 0.34529996
vt 0.4066 0.12220001
vt 0.3677 0.07120001
vt 0.3447 0.7809
vt 0.3229 0.7809
vt 0.3229 0.7809
vt 0.3447 0.7809
vt 0.1656 0.7809
vt 0.1656 0.64029998
vt 0.1656 0.64029998
vt 0.1656 0.7809
vt 0.1874 0.7809
vt 0.1656 0.7809
vt 0.1656 0.7809
vt 0.1874 0.7809
vt 0.2709 0.047500014
vt 0.2758 0.07160002
vt 0.2586 0.03189999
vt 0.2472 0.034799993
vt 0.2385 0.051100016
vt 0.2349 0.07200003
vt 0.2288 0.16400003
vt 0.2288 0.16400003
vt 0.2177 0.33319998
vt 0.2079 0.51319999
vt 0.207 0.5018
vt 0.2818 0.16409999
vt 0.2818 0.16409999
vt 0.2875 0.25240004
vt 0.3034 0.50169998
vt 0.3023 0.5155
vt 0.2531 0.015600026
vt 0.2896 0.019900024
vt 0.2586 0.03189999
vt 0.2472 0.034799993
vt 0.2207 0.019900024
vt 0.185 0.036300004
vt 0.1426 0.07120001
vt 0.1417 0.111500025
vt 0.1039 0.12199998
vt 0.0861 0.20429999
vt 0.08 0.16530001
vt 0.0568 0.2227
vt 0.0469 0.33019996
vt 0.0342 0.30289996
vt 0.0196 0.39
vt 0.0315 0.4731
vt 0.0135 0.48109996
vt 0.019 0.60039997
vt 0.041 0.602
vt 0.0601 0.7209
vt 0.0426 0.7288
vt 0.0738 0.82010001
vt 0.1263 0.8649
vt 0.1075 0.88319999
vt 0.1462 0.93199998
vt 0.2152 0.94239998
vt 0.189 0.965499997
vt 0.2343 0.98210001
vt 0.2667 0.98390001
vt 0.297 0.94019997
vt 0.3174 0.966799974
vt 0.3769 0.87840003
vt 0.3677 0.92830002
vt 0.3956 0.894599974
vt 0.4234 0.84759998
vt 0.4315 0.77859998
vt 0.4455 0.79939997
vt 0.4657 0.7378
vt 0.467 0.64920002
vt 0.4844 0.65399998
vt 0.4949 0.564
vt 0.4797 0.5057
vt 0.4966 0.47249997
vt 0.4854 0.3542
vt 0.4689 0.3602
vt 0.4414 0.24730003
vt 0.4558 0.23119998
vt 0.4204 0.14630002
vt 0.3904 0.14050001
vt 0.3715 0.07620001
vt 0.3425 0.09439999
vt 0.3214 0.03399998
vt 0.2989 0.5403
vt 0.2893 0.5668
vt 0.2835 0.5768
vt 0.2636 0.59399998
vt 0.2562 0.5955
vt 0.2396 0.59109998
vt 0.2325 0.58490002
vt 0.2231 0.57160002
vt 0.2175 0.5599
vt 0.2114 0.5402
vt 0.3229 0.64029998
vt 0.2562 0.5955
vt 0.3229 0.7809
vt 0.2835 0.5768
vt 0.3274 0.80680001
vt 0.3447 0.7809
vt 0.3022 0.82630002
vt 0.3741 0.74159998
vt 0.3447 0.64029998
vt 0.3536 0.7766
vt 0.2989 0.5403
vt 0.3034 0.50169998
vt 0.1656 0.64029998
vt 0.1333 0.7356
vt 0.1656 0.7809
vt 0.1102 0.6756
vt 0.1796 0.8035
vt 0.1874 0.7809
vt 0.1565 0.77630001
vt 0.1874 0.64029998
vt 0.215 0.82950002
vt 0.2175 0.5599
vt 0.2325 0.58490002
vt 0.3004 0.17229998
vt 0.2818 0.16409999
vt 0.3289 0.19419998
vt 0.3611 0.23479998
vt 0.3912 0.29900002
vt 0.4148 0.3857
vt 0.4237 0.4634
vt 0.4247 0.51709998
vt 0.4202 0.57669997
vt 0.4122 0.6286
vt 0.3979 0.68260002
vt 0.2723 0.83740002
vt 0.2455 0.8391
vt 0.098 0.62809998
vt 0.0893 0.56980002
vt 0.2079 0.51319999
vt 0.0857 0.4936
vt 0.0881 0.4403
vt 0.0962 0.38240004
vt 0.1074 0.3327
vt 0.125 0.28250003
vt 0.1434 0.24400002
vt 0.1682 0.20840001
vt 0.2026 0.1771
vt 0.2288 0.16400003
vt 0.4608 0.3703
vt 0.4297 0.24239999
vt 0.4376 0.29620004
vt 0.469 0.4604
vt 0.4683 0.55699998
vt 0.3137 0.91350001
vt 0.0904 0.7777
vt 0.0625 0.69129997
vt 0.2689 0.929799974
vt 0.2287 0.92790002
vt 0.1987 0.916999996
vt 0.1708 0.8969
vt 0.1374 0.8588
vt 0.1118 0.82389998
vt 0.039 0.51880002
vt 0.0437 0.43369997
vt 0.0533 0.35510004
vt 0.0718 0.27600002
vt 0.0486 0.58710003
vt 0.4119 0.21649998
vt 0.3836 0.1541
vt 0.3475 0.11949998
vt 0.3108 0.083899975
vt 0.4509 0.68910003
vt 0.4201 0.78109998
vt 0.375 0.8628
vt 0.4575 0.6207
vt 0.4417 0.698
vt 0.3982 0.81089997
vt 0.3562 0.87019998
vt 0.1052 0.18559998
vt 0.1431 0.12690002
vt 0.1855 0.09109998
vt 0.0947 0.22500002
vt 0.1398 0.14569998
vt 0.2051 0.0891
vt 0.2818 0.16409999
vt 0.3267 0.19209999
vt 0.3589 0.23150003
vt 0.3856 0.2831
vt 0.4031 0.33319998
vt 0.4147 0.3855
vt 0.4232 0.4566
vt 0.4247 0.51709998
vt 0.4207 0.5726
vt 0.4122 0.6286
vt 0.3992 0.6786
vt 0.3758 0.73799998
vt 0.3536 0.7766
vt 0.3292 0.805
vt 0.3022 0.82630002
vt 0.2736 0.83719999
vt 0.2378 0.8373
vt 0.2079 0.82620001
vt 0.1817 0.80559999
vt 0.1565 0.77630001
vt 0.1342 0.7374
vt 0.1117 0.6806
vt 0.098 0.62809998
vt 0.0899 0.5748
vt 0.0857 0.4986
vt 0.0881 0.4403
vt 0.0954 0.38639998
vt 0.1074 0.3327
vt 0.1235 0.28610003
vt 0.1434 0.24400002
vt 0.1661 0.21099997
vt 0.2006 0.1785
vt 0.2288 0.16400003
vt 0.3004 0.17229998
vt 0.3267 0.19209999
vt 0.3289 0.19419998
vt 0.3589 0.23150003
vt 0.3611 0.23479998
vt 0.3856 0.2831
vt 0.3912 0.29900002
vt 0.4031 0.33319998
vt 0.4148 0.3857
vt 0.4147 0.3855
vt 0.4232 0.4566
vt 0.4237 0.4634
vt 0.4247 0.51709998
vt 0.4247 0.51709998
vt 0.4207 0.5726
vt 0.4202 0.57669997
vt 0.4122 0.6286
vt 0.4122 0.6286
vt 0.3992 0.6786
vt 0.3979 0.68260002
vt 0.3758 0.73799998
vt 0.3741 0.74159998
vt 0.3536 0.7766
vt 0.3536 0.7766
vt 0.3292 0.805
vt 0.3274 0.80680001
vt 0.3022 0.82630002
vt 0.3022 0.82630002
vt 0.2736 0.83719999
vt 0.2723 0.83740002
vt 0.2378 0.8373
vt 0.2455 0.8391
vt 0.215 0.82950002
vt 0.2079 0.82620001
vt 0.1817 0.80559999
vt 0.1796 0.8035
vt 0.1565 0.77630001
vt 0.1565 0.77630001
vt 0.1342 0.7374
vt 0.1333 0.7356
vt 0.1117 0.6806
vt 0.1102 0.6756
vt 0.098 0.62809998
vt 0.098 0.62809998
vt 0.0899 0.5748
vt 0.0893 0.56980002
vt 0.0857 0.4986
vt 0.0857 0.4936
vt 0.0881 0.4403
vt 0.0881 0.4403
vt 0.0954 0.38639998
vt 0.0962 0.38240004
vt 0.1074 0.3327
vt 0.1074 0.3327
vt 0.1235 0.28610003
vt 0.125 0.28250003
vt 0.1434 0.24400002
vt 0.1434 0.24400002
vt 0.1661 0.21099997
vt 0.1682 0.20840001
vt 0.2006 0.1785
vt 0.2026 0.1771
vt 0.2288 0.16400003
vt 0.2288 0.16400003
vt 0.0135 0.5184
vt 0.0135 0.48109996
vt 0.0161 0.42620003
vt 0.019 0.60039997
vt 0.0196 0.6095
vt 0.0343 0.6969
vt 0.0426 0.7288
vt 0.0569 0.77710003
vt 0.0738 0.82010001
vt 0.0866 0.847
vt 0.1075 0.88319999
vt 0.1308 0.91409999
vt 0.1462 0.93199998
vt 0.193 0.966799974
vt 0.189 0.965499997
vt 0.2343 0.98210001
vt 0.2436 0.98390001
vt 0.276 0.98210001
vt 0.2667 0.98390001
vt 0.3174 0.966799974
vt 0.3214 0.965499997
vt 0.3641 0.93199998
vt 0.3677 0.92830002
vt 0.3956 0.894599974
vt 0.3956 0.894599974
vt 0.4204 0.85320002
vt 0.4234 0.84759998
vt 0.4455 0.79939997
vt 0.4455 0.79939997
vt 0.4637 0.7449
vt 0.4657 0.7378
vt 0.4854 0.6452
vt 0.4844 0.65399998
vt 0.4949 0.564
vt 0.4966 0.527
vt 0.4966 0.47249997
vt 0.4949 0.43560004
vt 0.4854 0.3542
vt 0.4843 0.34529996
vt 0.4657 0.26160002
vt 0.4558 0.23119998
vt 0.4394 0.18620002
vt 0.4204 0.14630002
vt 0.4066 0.12220001
vt 0.3715 0.07620001
vt 0.3677 0.07120001
vt 0.3253 0.036300004
vt 0.3214 0.03399998
vt 0.2896 0.019900024
vt 0.2896 0.019900024
vt 0.2572 0.015600026
vt 0.2531 0.015600026
vt 0.2207 0.019900024
vt 0.2207 0.019900024
vt 0.189 0.03399998
vt 0.185 0.036300004
vt 0.1462 0.067499995
vt 0.1426 0.07120001
vt 0.1071 0.116999984
vt 0.1039 0.12199998
vt 0.074 0.17910004
vt 0.08 0.16530001
vt 0.0568 0.2227
vt 0.0469 0.2536
vt 0.0342 0.30289996
vt 0.0274 0.3372
vt 0.0196 0.39
vt 0.1874 0.64029998
vt 0.1774 0.64029998
vt 0.1774 0.64029998
vt 0.1874 0.64029998
vt 0.1656 0.64029998
vt 0.1656 0.64029998
vt 0.3229 0.64029998
vt 0.3447 0.64029998
vt 0.3447 0.64029998
vt 0.3229 0.64029998
vt 0.3447 0.662
vt 0.3447 0.64029998
vt 0.3447 0.662
vt 0.3447 0.64029998
vt 0.3447 0.7809
vt 0.3447 0.7809
vt 0.2177 0.33319998
vt 0.2606 0.4292
vt 0.2875 0.25240004
vt 0.2391 0.43509996
vt 0.2797 0.4469
vt 0.3023 0.5155
vt 0.2892 0.4759
vt 0.2908 0.51029998
vt 0.2843 0.54220003
vt 0.2893 0.5668
vt 0.2712 0.56440002
vt 0.2636 0.59399998
vt 0.2543 0.5719
vt 0.2396 0.59109998
vt 0.2377 0.5629
vt 0.2231 0.57160002
vt 0.223 0.5306
vt 0.2114 0.5402
vt 0.207 0.5018
vt 0.2195 0.4893
vt 0.226 0.4573
vt 0.1874 0.67510003
vt 0.1874 0.64029998
vt 0.1874 0.67510003
vt 0.1874 0.64029998
vt 0.1874 0.7809
vt 0.1874 0.7809
vt 0.2239 0.8017
vt 0.1874 0.67510003
vt 0.1874 0.67510003
vt 0.2239 0.8017
vt 0.1774 0.64029998
vt 0.121 0.44490004
vt 0.121 0.44490004
vt 0.1774 0.64029998
vt 0.3229 0.64029998
vt 0.3229 0.6872
vt 0.3229 0.6872
vt 0.3229 0.64029998
vt 0.3229 0.7809
vt 0.3229 0.7809
vt 0.2239 0.8017
vt 0.3229 0.6872
vt 0.3229 0.6872
vt 0.2239 0.8017
vt 0.4126 0.58359998
vt 0.3447 0.662
vt 0.3447 0.662
vt 0.4126 0.58359998
vt 0.2858 0.522
vt 0.2872 0.4834
vt 0.2879 0.49150002
vt 0.2859 0.524
vt 0.2739 0.55299997
vt 0.2698 0.55800003
vt 0.2572 0.56629997
vt 0.2531 0.56629997
vt 0.2406 0.5581
vt 0.2364 0.55299997
vt 0.2262 0.5316
vt 0.2244 0.524
vt 0.2222 0.49979997
vt 0.2224 0.49150002
vt 0.2284 0.4626
vt 0.2284 0.46099997
vt 0.2412 0.43980002
vt 0.2482 0.4361
vt 0.2621 0.4361
vt 0.2692 0.43980002
vt 0.2792 0.45449996
vt 0.2819 0.46099997
vt 0.2879 0.49150002
vt 0.2222 0.49979997
vt 0.2859 0.524
vt 0.2284 0.4626
vt 0.2819 0.46099997
vt 0.2262 0.5316
vt 0.2739 0.55299997
vt 0.2406 0.5581
vt 0.2572 0.56629997
vt 0.2224 0.49150002
vt 0.2195 0.51029998
vt 0.2244 0.524
vt 0.2211 0.4759
vt 0.2294 0.54909998
vt 0.2364 0.55299997
vt 0.2473 0.57020003
vt 0.2531 0.56629997
vt 0.2695 0.56519997
vt 0.2698 0.55800003
vt 0.2874 0.5299
vt 0.2858 0.522
vt 0.2908 0.4893
vt 0.2872 0.4834
vt 0.2843 0.4573
vt 0.2792 0.45449996
vt 0.2712 0.43509996
vt 0.2621 0.4361
vt 0.2543 0.42760003
vt 0.2412 0.43980002
vt 0.2339 0.4425
vt 0.2284 0.46099997
vt 0.2195 0.4893
vt 0.223 0.5306
vt 0.2195 0.51029998
vt 0.2211 0.4759
vt 0.226 0.4573
vt 0.2339 0.4425
vt 0.2391 0.43509996
vt 0.2543 0.42760003
vt 0.2606 0.4292
vt 0.2712 0.43509996
vt 0.2797 0.4469
vt 0.2843 0.4573
vt 0.2892 0.4759
vt 0.2908 0.4893
vt 0.2908 0.51029998
vt 0.2874 0.5299
vt 0.2843 0.54220003
vt 0.2695 0.56519997
vt 0.2712 0.56440002
vt 0.2543 0.5719
vt 0.2473 0.57020003
vt 0.2377 0.5629
vt 0.2294 0.54909998
vn -0.9676 -0.2422 -0.0719
vn -0.999 0.0227 0.0377
vn -0.9246 0.3627 -0.117
vn -0.8034 -0.5953 -0.0129
vn -0.7124 -0.7017 -0.0088
vn -0.3329 -0.9429 0.0099
vn -0.3427 -0.9387 0.0376
vn 0.1285 -0.9916 -0.0148
vn 0.1413 -0.9881 -0.0611
vn 0.5126 -0.8535 0.0941
vn 0.7334 -0.6798 -0.0074
vn 0.9008 -0.4111 0.1396
vn 0.997 -0.0756 -0.0145
vn 0.9864 0.1623 0.0247
vn 0.8738 0.4842 -0.0454
vn 0.7461 0.6654 -0.0231
vn 0.5536 0.83 -0.0683
vn 0.2753 0.9614 0.0015
vn 0.0669 0.9977 -0.0131
vn -0.2744 0.9572 0.0919
vn -0.5354 0.8434 -0.0453
vn -0.7792 0.6212 0.084
vn -0.624 0.7204 -0.3027
vn -1 0.0001 -0.0001
vn -0.6121 0.1787 -0.7703
vn -0.7038 0.7103 -0.0104
vn -0.5921 -0.6707 -0.4468
vn 0.6146 0.234 -0.7534
vn 0.6406 0.7069 -0.3
vn -0.5906 -0.6413 -0.4899
vn 0.9197 -0.3927 -0.0008
vn 0.6033 -0.6502 -0.4618
vn -0.7066 -0.7077 -0.0017
vn 0.0001 -0.4518 -0.8921
vn 0.5504 0.4085 -0.7282
vn -0.5596 0.3812 -0.7359
vn 0.0048 -0.4293 -0.9031
vn -1 0 -0
vn -0.3128 0.9498 -0.0039
vn -0.5905 -0.6413 -0.4899
vn 0.7066 -0.7077 -0.0018
vn 0.6033 -0.6502 -0.4618
vn -0.9203 -0.3913 -0.0008
vn -0.0049 -0.4511 -0.8925
vn 0.5585 0.3685 -0.7432
vn -0.5493 0.4027 -0.7322
vn 0.0044 -0.4271 -0.9042
vn 1 0.0002 -0.0001
vn 0.3129 0.9498 -0.0038
vn 0 0 -1
vn 0.0001 -0 -1
vn -0.0009 0.0006 -1
vn 0.0001 -0 -1
vn -0 -0.0001 -1
vn -0.0004 0 -1
vn 0 0 -1
vn 0 0 -1
vn -0.0003 0.0002 -1
vn 0.0002 0.0002 -1
vn 0 0 -1
vn 0 0.0001 -1
vn -0.0002 0 -1
vn -0.0002 -0.0001 -1
vn 0 0 -1
vn 0 0 -1
vn 0.002 0.0004 -1
vn 0 0 -1
vn 0.0001 -0 -1
vn -0.0008 0.0001 -1
vn 0 0 -1
vn 0.9642 -0.2651 0
vn 0.9642 -0.2651 0
vn 0.991 -0.1338 0
vn -0.9913 -0.1313 0
vn -0.9655 -0.2603 0
vn -0.9655 -0.2603 0
vn -0.7062 0.708 -0.0045
vn -1 0.0001 -0
vn 0.7062 0.708 -0.0047
vn 1 0.0004 -0.0001
vn -0.0003 -0.0002 1
vn -0.0001 -0 1
vn 0.0001 -0 1
vn -0 -0 1
vn -0 -0 1
vn -0.0001 -0.0001 1
vn -0 -0 1
vn -0 -0 1
vn -0.0004 0.0004 1
vn -0 -0 1
vn 0.0002 0 1
vn -0 -0 1
vn -0.0022 0.0002 1
vn -0.0001 -0 1
vn 0.0004 -0 1
vn -0 -0 1
vn -0.0028 -0.0004 1
vn 0.7038 0.7103 -0.0109
vn 0.0017 -1 -0.0032
vn 0.594 -0.6183 -0.5147
vn 0 -1 -0.003
vn 0 -1 0
vn 0 -1 0
vn 1 0 -0
vn 0.5 -0.866 -0.0003
vn 0.4997 -0.8662 -0.0002
vn 0.4996 -0.8662 -0
vn 0.5001 -0.866 -0.0001
vn 0.5 -0.866 0.0001
vn 0.5005 -0.8657 0
vn -0.866 -0.5 -0
vn -0.866 -0.5 -0
vn -0.866 -0.5 -0
vn -0.866 -0.5 -0
vn -0 -0 1
vn -0 -0 1
vn -0 -0 1
vn -0 -0 1
vn -0 -0 1
vn -0 -0 1
vn -0 -0 1
vn -0 -0 1
vn -0 -0 1
vn -0 -0 1
vn -0 -0 1
vn -0 -0 1
vn -0 -0 1
vn -0 -0 1
vn -0 -0 1
vn -0 -0 1
vn -0 -0 1
vn -0 -0 1
vn -0 -0 1
vn -0 -0 1
vn -0 -0 1
vn -0 -0 1
vn -0 -0 1
vn -0 -0 1
vn -0 -0 1
vn -0 -0 1
vn -0 -0 1
vn -0 -0 1
vn -0 -0 1
vn -0 -0 1
vn -0 -0 1
vn -0 -0 1
vn -0.5152 0.3021 0.802
vn -0 0.0001 1
vn -0 -0 1
vn -0 0.0001 1
vn -0.1857 0.5861 0.7887
vn 0.2258 0.5737 0.7873
vn 0.535 0.2896 0.7936
vn -0 0.0001 1
vn -0 -0 1
vn -0 -0 1
vn -0 -0 1
vn -0 -0 1
vn -0 -0 1
vn -0 -0 1
vn -0 -0 1
vn -0 -0 1
vn -0 -0 1
vn -0 -0 1
vn -0 -0 1
vn -0 -0 1
vn -0 -0 1
vn -0 -0 1
vn -0 -0 1
vn -0 -0 1
vn -0 -0 1
vn -0 -0 1
vn -0 -0 1
vn -0 -0 1
vn -0 -0 1
vn -0 -0 1
vn -0 -0 1
vn -0 -0 1
vn 0 -1 0
vn 0 -1 0
vn 0 -1 0
vn 0 -1 0
vn -1 0 -0
vn -1 0 -0
vn -1 0 -0
vn -1 0 -0
vn 0 -1 0
vn 0 -1 0
vn 0 -1 0
vn 0 -1 0
vn 0.4363 0.4185 -0.7966
vn 0.6146 0.4393 -0.6552
vn 0.1924 0.9813 0.0062
vn -0.4034 0.915 0.0029
vn -0.4952 0.3959 -0.7733
vn -0.6306 0.4298 -0.6463
vn -0.9906 0.1365 -0.0045
vn -0.9904 0.1371 -0.018
vn -0.9915 0.1274 0.0256
vn -0.9896 -0.1438 0.0037
vn -1 0.0033 0.0012
vn 0.8291 0.5591 0.0032
vn 0.9168 0.3992 -0.0113
vn 0.9916 0.1295 -0.0063
vn 0.9996 0.0045 -0.0263
vn 0.9852 -0.1696 -0.0262
vn 0.0033 0.001 -1
vn -0.0011 -0.0062 -1
vn 0.0089 0.0061 -0.9999
vn 0.0385 -0.0244 -0.999
vn -0.0021 0.0118 -0.9999
vn -0.0029 0.0078 -1
vn -0.0022 0.0028 -1
vn -0.0566 0.0991 -0.9935
vn -0.0014 0.0016 -1
vn -0.0795 0.0716 -0.9943
vn -0.0015 0.0014 -1
vn -0.0016 0.0011 -1
vn -0.1115 0.0494 -0.9925
vn -0.0022 0.0011 -1
vn -0.002 0.0004 -1
vn -0.1149 0.0056 -0.9934
vn -0.0021 0 -1
vn -0.0249 -0.0042 -0.9997
vn -0.2356 -0.0637 -0.9698
vn -0.1026 -0.0595 -0.9929
vn -0.0024 -0.0012 -1
vn 0 -0.0006 -1
vn -0.0625 -0.0824 -0.9946
vn 0.0013 0.0016 -1
vn -0.0005 0.0004 -1
vn -0.0243 -0.1187 -0.9926
vn -0.0009 -0.0026 -1
vn -0.0001 -0.0028 -1
vn 0.0003 -0.0018 -1
vn 0.0176 -0.1077 -0.994
vn 0.0003 -0.0014 -1
vn 0.0552 -0.0915 -0.9943
vn 0.001 -0.0021 -1
vn 0.0016 -0.0021 -1
vn 0.0016 -0.0016 -1
vn 0.0903 -0.069 -0.9935
vn 0.002 -0.0015 -1
vn 0.0018 -0.0009 -1
vn 0.0868 -0.0319 -0.9957
vn 0.0019 -0.0006 -1
vn 0.002 -0.0004 -1
vn 0.1088 -0.0037 -0.9941
vn 0.0022 0.0002 -1
vn 0.0021 0.0006 -1
vn 0.1199 0.0401 -0.992
vn 0.0952 0.0558 -0.9939
vn 0.0024 0.0016 -1
vn 0.0016 0.0016 -1
vn 0.0713 0.0905 -0.9933
vn 0.0135 0.0143 -0.9998
vn 0.0843 0.2083 -0.9744
vn -0.0009 0.017 -0.9999
vn 0.8978 -0.4387 -0.0384
vn 0.7211 -0.6924 -0.0219
vn 0.5578 -0.8299 -0.0124
vn 0.2168 -0.9761 0.0107
vn 0.0168 -0.9998 0.011
vn -0.3004 -0.9538 0.0008
vn -0.462 -0.8866 0.0213
vn -0.6638 -0.7479 -0.0109
vn -0.7915 -0.6108 0.0218
vn -0.9063 -0.4223 0.0179
vn -0.0002 0 -1
vn 0.0001 0.0001 -1
vn -0.0001 0 -1
vn -0.0005 0.0005 -1
vn 0 0 -1
vn 0 0 -1
vn 0 0 -1
vn 0 0 -1
vn 0 0 -1
vn 0 0 -1
vn -0.0004 -0.0002 -1
vn 0 0 -1
vn 0 0 -1
vn 0 0 -1
vn 0 0 -1
vn 0 0 -1
vn 0 0 -1
vn 0.0001 -0 -1
vn 0 0 -1
vn 0.0001 -0 -1
vn 0 0.0001 -1
vn 0 0 -1
vn 0.0003 -0.0005 -1
vn 0 0 -1
vn 0 0 -1
vn 0 0 -1
vn 0 0 -1
vn 0 0 -1
vn 0 0 -1
vn 0 0 -1
vn 0 0 -1
vn 0 0 -1
vn 0 0 -1
vn 0 0 -1
vn 0 0.0001 -1
vn 0 0.0001 -1
vn 0 0 -1
vn 0 0 -1
vn 0 0 -1
vn 0 0 -1
vn 0 0 -1
vn 0 0 -1
vn 0 0 -1
vn 0 0 -1
vn 0 0 -1
vn 0 0 -1
vn 0 0 -1
vn 0 0 -1
vn 0.43 0.1389 -0.8921
vn 0.278 0.2174 -0.9357
vn 0.5965 0.3142 -0.7386
vn 0.4761 0.0543 -0.8777
vn 0.4718 -0.0672 -0.8791
vn 0.148 -0.4528 -0.8793
vn -0.3961 -0.3287 -0.8574
vn -0.4309 -0.1957 -0.8809
vn 0.0194 -0.4969 -0.8676
vn -0.041 -0.4661 -0.8838
vn -0.1263 -0.4567 -0.8806
vn -0.1952 -0.4772 -0.8568
vn -0.2381 -0.3786 -0.8944
vn -0.3083 -0.3392 -0.8887
vn -0.48 -0.0426 -0.8762
vn -0.4781 0.08 -0.8746
vn -0.435 0.1497 -0.8879
vn -0.4198 0.2516 -0.872
vn -0.5635 -0.1237 -0.8168
vn 0.4595 0.4332 -0.7753
vn 0.2659 0.3601 -0.8942
vn 0.2597 0.5147 -0.8171
vn 0.1461 0.5007 -0.8532
vn 0.3506 -0.1723 -0.9205
vn 0.3493 -0.3092 -0.8845
vn 0.1936 -0.2751 -0.9417
vn 0.6591 -0.1933 -0.7268
vn 0.5087 -0.2885 -0.8112
vn 0.4374 -0.5043 -0.7446
vn 0.291 -0.5802 -0.7607
vn -0.3172 0.3493 -0.8817
vn -0.1761 0.2996 -0.9377
vn -0.1902 0.5504 -0.8129
vn -0.5398 0.4393 -0.7181
vn -0.3345 0.4833 -0.809
vn -0.1408 0.6438 -0.7521
vn 0.1665 0.6178 -0.7685
vn 0.2699 0.5835 -0.766
vn 0.3935 0.5107 -0.7644
vn 0.4973 0.4143 -0.7623
vn 0.5618 0.3185 -0.7635
vn 0.6035 0.2155 -0.7677
vn 0.636 0.083 -0.7672
vn 0.6403 -0.028 -0.7677
vn 0.6245 -0.1418 -0.768
vn 0.5987 -0.2438 -0.763
vn 0.5445 -0.341 -0.7663
vn 0.4555 -0.4493 -0.7685
vn 0.3793 -0.5271 -0.7605
vn 0.2815 -0.5805 -0.764
vn 0.1772 -0.6156 -0.7679
vn 0.0668 -0.6382 -0.767
vn -0.0637 -0.6378 -0.7676
vn -0.1782 -0.6189 -0.765
vn -0.2776 -0.5803 -0.7657
vn -0.3742 -0.5202 -0.7677
vn -0.4577 -0.4455 -0.7694
vn -0.5377 -0.3452 -0.7692
vn -0.5999 -0.2375 -0.764
vn -0.6348 -0.1396 -0.76
vn -0.6418 -0.0068 -0.7669
vn -0.6314 0.1144 -0.767
vn -0.6074 0.2172 -0.7641
vn -0.5619 0.3116 -0.7663
vn -0.4978 0.4092 -0.7647
vn -0.4258 0.4866 -0.7628
vn -0.3364 0.5533 -0.7621
vn -0.2101 0.6056 -0.7675
vn -0.1415 0.63 -0.7636
vn 0.2799 0.96 -0.0015
vn 0.4144 0.9101 0.0065
vn 0.4423 0.8969 -0.0031
vn 0.611 0.7917 0.0009
vn 0.6282 0.778 -0.0059
vn 0.7645 0.6446 0.0046
vn 0.8077 0.5895 -0.0103
vn 0.8731 0.4876 0.0027
vn 0.9393 0.343 -0.008
vn 0.9437 0.3308 0.0023
vn 0.9911 0.1334 0.0012
vn 0.9929 0.1187 -0.0027
vn 0.9988 -0.0485 0.0009
vn 0.9985 -0.055 -0.0013
vn 0.9766 -0.215 0.0004
vn 0.9747 -0.2234 -0.0015
vn 0.9258 -0.3779 0.0006
vn 0.9237 -0.3832 -0.0014
vn 0.8456 -0.5338 0.0007
vn 0.8384 -0.5451 -0.0031
vn 0.717 -0.6971 0.001
vn 0.7089 -0.7053 -0.002
vn 0.5808 -0.814 0.0007
vn 0.5762 -0.8173 -0.0013
vn 0.4364 -0.8998 0.0003
vn 0.4291 -0.9033 -0.0015
vn 0.2772 -0.9608 0.0005
vn 0.2727 -0.9621 -0.0011
vn 0.1033 -0.9947 -0.0001
vn 0.1031 -0.9947 0.0003
vn -0.0972 -0.9953 0.0031
vn -0.0582 -0.9983 -0.0008
vn -0.2443 -0.9697 -0.0048
vn -0.2781 -0.9605 0.0009
vn -0.4325 -0.9016 -0.002
vn -0.4365 -0.8997 -0.0019
vn -0.5814 -0.8136 0.0005
vn -0.5852 -0.8109 -0.0012
vn -0.7178 -0.6963 -0.0002
vn -0.7237 -0.6901 -0.0028
vn -0.8431 -0.5377 0.0011
vn -0.8493 -0.5278 -0.0015
vn -0.9246 -0.381 0.0013
vn -0.9277 -0.3734 -0.0015
vn -0.9772 -0.2123 0.0008
vn -0.98 -0.1991 -0.0031
vn -1 -0.0048 0.0014
vn -1 0.0068 -0.0028
vn -0.9848 0.1735 0.0006
vn -0.9838 0.179 -0.0013
vn -0.9422 0.335 0.0003
vn -0.9392 0.3434 -0.0015
vn -0.8714 0.4906 0.0006
vn -0.8687 0.4954 -0.0014
vn -0.7767 0.6299 0.0002
vn -0.7709 0.637 -0.0015
vn -0.6594 0.7518 0.0007
vn -0.655 0.7556 -0.0014
vn -0.5183 0.8552 0.0011
vn -0.507 0.862 -0.0029
vn -0.3292 0.9443 0.0009
vn -0.3199 0.9475 -0.0024
vn -0.2271 0.9739 0.0009
vn -0.2244 0.9745 -0
vn 0.9992 0.0384 0.0053
vn 0.9995 -0.0302 -0.0074
vn 0.9885 -0.1513 0.0062
vn 0.9768 0.2138 -0.0076
vn 0.9735 0.2287 0.0045
vn 0.9146 0.4044 0.0032
vn 0.8845 0.4664 -0.009
vn 0.8194 0.5731 0.0068
vn 0.7538 0.657 -0.0076
vn 0.6917 0.7221 0.0076
vn 0.6111 0.7915 -0.0063
vn 0.5086 0.861 0.0089
vn 0.4481 0.894 -0.0033
vn 0.2671 0.9636 0.0061
vn 0.2754 0.9613 -0.0044
vn 0.0933 0.9956 -0.0009
vn 0.059 0.9983 0.0013
vn -0.0933 0.9956 0.0009
vn -0.059 0.9983 -0.0013
vn -0.2589 0.9659 -0.0029
vn -0.2754 0.9613 0.0044
vn -0.4448 0.8956 0.0013
vn -0.4551 0.8904 -0.0012
vn -0.5768 0.8169 0.001
vn -0.5832 0.8124 -0.0009
vn -0.6856 0.728 0.0009
vn -0.6933 0.7207 -0.0009
vn -0.7836 0.6213 0.001
vn -0.7883 0.6153 -0.0009
vn -0.8685 0.4957 0.0012
vn -0.874 0.4859 -0.0012
vn -0.9546 0.2979 0.0043
vn -0.9474 0.32 -0.0045
vn -0.9911 0.1331 -0.0053
vn -0.9979 0.0648 0.0074
vn -0.9979 -0.0648 -0.0074
vn -0.991 -0.1334 0.0048
vn -0.9518 -0.3066 -0.0076
vn -0.9472 -0.3205 0.0045
vn -0.872 -0.4894 0.0027
vn -0.8358 -0.549 -0.009
vn -0.7616 -0.648 0.0063
vn -0.6822 -0.7311 -0.0089
vn -0.6255 -0.7802 0.0053
vn -0.4843 -0.8749 -0.0043
vn -0.4642 -0.8857 0.005
vn -0.2967 -0.955 0.0005
vn -0.2853 -0.9584 -0.0005
vn -0.1461 -0.9893 0.0009
vn -0.1385 -0.9904 -0.0009
vn -0.0056 -1 0.0016
vn 0.0056 -1 -0.0016
vn 0.1385 -0.9904 0.0009
vn 0.1461 -0.9893 -0.0009
vn 0.2825 -0.9593 0.0007
vn 0.2963 -0.9551 -0.0012
vn 0.4507 -0.8927 0.0021
vn 0.4656 -0.885 -0.0018
vn 0.6113 -0.7914 0.0017
vn 0.6187 -0.7856 0.0005
vn 0.7484 -0.6632 0.0043
vn 0.7251 -0.6887 -0.0006
vn 0.8234 -0.5675 -0.0051
vn 0.8612 -0.5082 0.0062
vn 0.9135 -0.4068 -0.0062
vn 0.9418 -0.336 0.0062
vn 0.974 -0.2266 -0.0062
vn 0 1 0
vn 0 1 0
vn 0 1 0
vn 0 1 0
vn 0 1 0
vn 0 1 0
vn 0 1 0
vn 0 1 0
vn 0 1 0
vn 0 1 0
vn 1 0 -0
vn 1 0 -0
vn 1 0 -0
vn 1 0 -0
vn 1 0 -0
vn 1 0 -0
vn 0.001 -0.0005 -1
vn -0.0008 0.0002 -1
vn -0.0004 -0.0007 -1
vn 0.0018 0.0008 -1
vn -0.0013 0.0001 -1
vn -0.0001 0.0004 -1
vn 0.0039 0.0025 -1
vn 0.0002 -0 -1
vn -0.0012 0.0017 -1
vn -0.0015 0.0021 -1
vn -0.0013 0.0022 -1
vn -0.0009 0.0019 -1
vn -0.0006 0.0013 -1
vn -0.0002 0.0003 -1
vn -0.0003 0.001 -1
vn 0.0006 0.0025 -1
vn 0.0036 0.0018 -1
vn 0.0056 0.0025 -1
vn 0.002 -0.0011 -1
vn 0.0006 -0.0011 -1
vn 0 0 -1
vn 1 0 -0
vn 1 0 -0
vn 1 0 -0
vn 1 0 -0
vn 1 0 -0
vn 1 0 -0
vn 0.8661 0.4998 0
vn 0.8661 0.4998 0
vn 0.8661 0.4998 0
vn 0.8658 0.5004 0
vn 0.8661 0.4999 0
vn 0.8661 0.4999 0
vn 0.8661 0.4999 0
vn 0.8661 0.4999 0
vn -1 0 -0
vn -1 0 -0
vn -1 0 -0
vn -1 0 -0
vn -1 0 -0
vn -1 0 -0
vn -0.4997 0.8662 0
vn -0.4997 0.8662 0
vn -0.4997 0.8662 0
vn -0.4997 0.8662 0
vn -0.5001 0.866 0
vn -0.5001 0.866 0
vn -0.5001 0.866 0
vn -0.5001 0.866 0
vn -0.9319 0.3622 0.0164
vn -0.9714 -0.2368 0.0154
vn -0.9921 -0.1248 -0.0123
vn -0.9255 0.3786 -0.0125
vn -0.5828 0.8126 -0.0111
vn -0.4754 0.8796 0.0181
vn -0.0668 0.9976 -0.0176
vn 0.0669 0.9976 0.0176
vn 0.4535 0.8911 -0.0156
vn 0.579 0.8151 0.0173
vn 0.8708 0.4913 -0.0175
vn 0.9271 0.3746 0.0156
vn 0.9999 -0.0096 -0.0143
vn 0.9919 -0.1261 0.0128
vn 0.8097 -0.5865 -0.021
vn 0.808 -0.589 0.0133
vn 0.4069 -0.9133 0.0158
vn 0.174 -0.7432 -0.6461
vn -0.2074 -0.9779 0.0253
vn -0.3052 -0.6885 -0.6579
vn -0.7211 -0.6926 0.0206
vn -0.81 -0.5863 -0.0144
vn 0 0 -1
vn -0 -0.0001 -1
vn 0 0 -1
vn 0 0.0001 -1
vn 0.0001 -0 -1
vn 0 0 -1
vn -0 -0.0001 -1
vn 0.0001 0.0002 -1
vn 0.0001 -0 -1
vn -0.0001 0 -1
vn 0.001 0.0007 -1
vn 0.0129 0.0092 -0.9999
vn 0.0011 -0.0011 -1
vn 0.0137 0.0113 -0.9998
vn 0.0166 0.0226 -0.9996
vn 0.0009 0.0006 -1
vn 0.0007 -0.0017 -1
vn 0.0003 -0.0037 -1
vn -0.0009 -0.003 -1
vn -0.0171 0.0114 -0.9998
vn -0.0249 0.0086 -0.9997
vn -0.0013 0.0002 -1
vn 0 0 -1
vn 0 0 -1
vn 0.0001 0.0001 -1
vn 0.0007 0.0008 -1
vn 0.0007 0.0032 -1
vn 0.0003 -0.0003 -1
vn 0.0132 -0.0269 -0.9995
vn 0.0134 -0.0171 -0.9998
vn 0.0171 -0.0168 -0.9997
vn -0.9922 0.123 -0.0222
vn -0.8965 -0.4291 -0.1108
vn -0.9855 -0.1483 0.0821
vn -0.9355 0.3526 0.0221
vn -0.808 0.5809 -0.0982
vn -0.6035 0.7967 0.0321
vn -0.3824 0.9224 -0.0536
vn -0.0898 0.9946 0.0527
vn 0.1633 0.986 -0.0331
vn 0.4457 0.8897 0.0985
vn 0.6646 0.747 -0.0207
vn 0.8168 0.5759 0.0348
vn 0.9377 0.3456 -0.0349
vn 0.9921 0.1236 0.0233
vn 0.9861 -0.1377 -0.093
vn 0.9061 -0.4224 0.0222
vn 0.76 -0.6396 -0.1151
vn 0.3979 -0.9168 0.035
vn 0.4832 -0.8714 0.0844
vn 0.0121 -0.9958 -0.0903
vn -0.2276 -0.9737 0.0099
vn -0.4881 -0.8691 -0.0798
vn -0.718 -0.6869 0.1122
f 113/113/113 112/112/112 111/111/111
f 111/111/111 112/112/112 114/114/114
f 3/3/3 2/2/2 1/1/1
f 1/1/1 2/2/2 4/4/4
f 3/3/3 22/22/22 2/2/2
f 1/1/1 4/4/4 5/5/5
f 21/21/21 22/22/22 3/3/3
f 5/5/5 4/4/4 6/6/6
f 21/21/21 20/20/20 22/22/22
f 5/5/5 6/6/6 7/7/7
f 19/19/19 20/20/20 21/21/21
f 7/7/7 6/6/6 8/8/8
f 19/19/19 18/18/18 20/20/20
f 8/8/8 6/6/6 9/9/9
f 17/17/17 18/18/18 19/19/19
f 8/8/8 9/9/9 10/10/10
f 17/17/17 16/16/16 18/18/18
f 8/8/8 10/10/10 11/11/11
f 15/15/15 16/16/16 17/17/17
f 11/11/11 10/10/10 12/12/12
f 15/15/15 14/14/14 16/16/16
f 11/11/11 12/12/12 13/13/13
f 13/13/13 14/14/14 15/15/15
f 13/13/13 12/12/12 14/14/14
f 25/25/25 24/24/24 23/23/23
f 23/23/23 24/24/24 26/26/26
f 24/24/24 25/25/25 27/27/27
f 98/98/98 23/23/23 26/26/26
f 25/25/25 100/100/100 27/27/27
f 29/29/29 23/23/23 98/98/98
f 29/29/29 98/98/98 104/104/104
f 100/100/100 99/99/99 27/27/27
f 27/27/27 99/99/99 101/101/101
f 101/101/101 99/99/99 102/102/102
f 101/101/101 102/102/102 103/103/103
f 28/28/28 104/104/104 100/100/100
f 29/29/29 104/104/104 28/28/28
f 25/25/25 28/28/28 100/100/100
f 29/29/29 28/28/28 23/23/23
f 23/23/23 28/28/28 25/25/25
f 32/32/32 31/31/31 30/30/30
f 72/72/72 31/31/31 71/71/71
f 71/71/71 31/31/31 73/73/73
f 37/37/37 32/32/32 30/30/30
f 73/73/73 31/31/31 79/79/79
f 37/37/37 34/34/34 32/32/32
f 80/80/80 31/31/31 32/32/32
f 36/36/36 34/34/34 37/37/37
f 79/79/79 31/31/31 80/80/80
f 30/30/30 31/31/31 33/33/33
f 33/33/33 38/38/38 30/30/30
f 36/36/36 35/35/35 34/34/34
f 80/80/80 35/35/35 79/79/79
f 39/39/39 38/38/38 33/33/33
f 39/39/39 36/36/36 38/38/38
f 39/39/39 35/35/35 36/36/36
f 39/39/39 79/79/79 35/35/35
f 49/49/49 79/79/79 39/39/39
f 49/49/49 77/77/77 79/79/79
f 49/49/49 46/46/46 77/77/77
f 77/77/77 46/46/46 78/78/78
f 43/43/43 77/77/77 78/78/78
f 74/74/74 77/77/77 43/43/43
f 43/43/43 78/78/78 40/40/40
f 43/43/43 75/75/75 74/74/74
f 74/74/74 75/75/75 76/76/76
f 40/40/40 41/41/41 43/43/43
f 45/45/45 46/46/46 49/49/49
f 42/42/42 41/41/41 40/40/40
f 49/49/49 48/48/48 45/45/45
f 41/41/41 48/48/48 49/49/49
f 41/41/41 42/42/42 48/48/48
f 46/46/46 45/45/45 44/44/44
f 47/47/47 42/42/42 40/40/40
f 46/46/46 44/44/44 47/47/47
f 47/47/47 44/44/44 42/42/42
f 52/52/52 51/51/51 50/50/50
f 51/51/51 52/52/52 56/56/56
f 52/52/52 50/50/50 53/53/53
f 51/51/51 56/56/56 57/57/57
f 53/53/53 50/50/50 54/54/54
f 57/57/57 56/56/56 58/58/58
f 53/53/53 54/54/54 55/55/55
f 58/58/58 59/59/59 57/57/57
f 55/55/55 69/69/69 53/53/53
f 57/57/57 59/59/59 60/60/60
f 55/55/55 68/68/68 69/69/69
f 59/59/59 61/61/61 60/60/60
f 65/65/65 68/68/68 55/55/55
f 60/60/60 61/61/61 62/62/62
f 65/65/65 67/67/67 68/68/68
f 62/62/62 61/61/61 63/63/63
f 66/66/66 67/67/67 65/65/65
f 65/65/65 63/63/63 66/66/66
f 62/62/62 63/63/63 64/64/64
f 64/64/64 63/63/63 65/65/65
f 65/65/65 70/70/70 64/64/64
f 83/83/83 82/82/82 81/81/81
f 83/83/83 81/81/81 84/84/84
f 96/96/96 82/82/82 83/83/83
f 83/83/83 84/84/84 85/85/85
f 97/97/97 82/82/82 96/96/96
f 85/85/85 84/84/84 86/86/86
f 95/95/95 97/97/97 96/96/96
f 85/85/85 86/86/86 87/87/87
f 92/92/92 95/95/95 96/96/96
f 87/87/87 86/86/86 88/88/88
f 92/92/92 94/94/94 95/95/95
f 87/87/87 88/88/88 89/89/89
f 92/92/92 93/93/93 94/94/94
f 87/87/87 89/89/89 90/90/90
f 92/92/92 91/91/91 93/93/93
f 89/89/89 91/91/91 90/90/90
f 90/90/90 91/91/91 92/92/92
f 107/107/107 106/106/106 105/105/105
f 105/105/105 106/106/106 108/108/108
f 105/105/105 108/108/108 109/109/109
f 109/109/109 108/108/108 110/110/110
f 117/117/117 116/116/116 115/115/115
f 117/117/117 120/120/120 116/116/116
f 115/115/115 116/116/116 118/118/118
f 116/116/116 121/121/121 118/118/118
f 118/118/118 121/121/121 122/122/122
f 122/122/122 121/121/121 123/123/123
f 115/115/115 118/118/118 119/119/119
f 119/119/119 124/124/124 115/115/115
f 125/125/125 124/124/124 119/119/119
f 128/128/128 127/127/127 126/126/126
f 126/126/126 127/127/127 129/129/129
f 129/129/129 127/127/127 130/130/130
f 172/172/172 126/126/126 129/129/129
f 130/130/130 127/127/127 131/131/131
f 171/171/171 126/126/126 172/172/172
f 130/130/130 131/131/131 132/132/132
f 132/132/132 131/131/131 133/133/133
f 133/133/133 131/131/131 134/134/134
f 133/133/133 134/134/134 135/135/135
f 135/135/135 134/134/134 136/136/136
f 171/171/171 169/169/169 126/126/126
f 169/169/169 173/173/173 126/126/126
f 170/170/170 169/169/169 171/171/171
f 168/168/168 169/169/169 170/170/170
f 168/168/168 165/165/165 169/169/169
f 167/167/167 165/165/165 168/168/168
f 166/166/166 165/165/165 167/167/167
f 164/164/164 165/165/165 166/166/166
f 164/164/164 162/162/162 165/165/165
f 161/161/161 162/162/162 164/164/164
f 162/162/162 161/161/161 159/159/159
f 159/159/159 161/161/161 163/163/163
f 159/159/159 163/163/163 174/174/174
f 159/159/159 174/174/174 175/175/175
f 175/175/175 176/176/176 159/159/159
f 159/159/159 176/176/176 158/158/158
f 159/159/159 158/158/158 155/155/155
f 155/155/155 158/158/158 160/160/160
f 155/155/155 160/160/160 177/177/177
f 177/177/177 178/178/178 155/155/155
f 155/155/155 178/178/178 157/157/157
f 153/153/153 155/155/155 157/157/157
f 156/156/156 155/155/155 153/153/153
f 153/153/153 157/157/157 154/154/154
f 150/150/150 153/153/153 154/154/154
f 134/134/134 149/149/149 137/137/137
f 136/136/136 134/134/134 137/137/137
f 136/136/136 137/137/137 138/138/138
f 138/138/138 137/137/137 139/139/139
f 139/139/139 137/137/137 140/140/140
f 140/140/140 137/137/137 141/141/141
f 141/141/141 137/137/137 142/142/142
f 142/142/142 137/137/137 143/143/143
f 142/142/142 143/143/143 144/144/144
f 144/144/144 143/143/143 145/145/145
f 145/145/145 143/143/143 146/146/146
f 146/146/146 143/143/143 147/147/147
f 146/146/146 147/147/147 148/148/148
f 148/148/148 147/147/147 150/150/150
f 150/150/150 147/147/147 151/151/151
f 150/150/150 151/151/151 152/152/152
f 152/152/152 153/153/153 150/150/150
f 152/152/152 151/151/151 193/193/193
f 151/151/151 194/194/194 193/193/193
f 151/151/151 147/147/147 194/194/194
f 152/152/152 193/193/193 191/191/191
f 191/191/191 153/153/153 152/152/152
f 147/147/147 195/195/195 194/194/194
f 192/192/192 153/153/153 191/191/191
f 153/153/153 192/192/192 202/202/202
f 153/153/153 202/202/202 203/203/203
f 153/153/153 203/203/203 204/204/204
f 203/203/203 202/202/202 386/386/386
f 204/204/204 203/203/203 205/205/205
f 386/386/386 202/202/202 387/387/387
f 204/204/204 205/205/205 206/206/206
f 386/386/386 387/387/387 388/388/388
f 206/206/206 205/205/205 259/259/259
f 388/388/388 387/387/387 389/389/389
f 206/206/206 259/259/259 260/260/260
f 388/388/388 389/389/389 390/390/390
f 260/260/260 259/259/259 261/261/261
f 390/390/390 389/389/389 391/391/391
f 260/260/260 261/261/261 262/262/262
f 390/390/390 391/391/391 392/392/392
f 262/262/262 261/261/261 263/263/263
f 392/392/392 391/391/391 393/393/393
f 262/262/262 263/263/263 264/264/264
f 392/392/392 393/393/393 394/394/394
f 264/264/264 263/263/263 265/265/265
f 394/394/394 393/393/393 395/395/395
f 264/264/264 265/265/265 266/266/266
f 394/394/394 395/395/395 396/396/396
f 266/266/266 265/265/265 267/267/267
f 394/394/394 396/396/396 397/397/397
f 266/266/266 267/267/267 268/268/268
f 397/397/397 396/396/396 398/398/398
f 268/268/268 267/267/267 200/200/200
f 397/397/397 398/398/398 399/399/399
f 268/268/268 200/200/200 201/201/201
f 399/399/399 398/398/398 400/400/400
f 200/200/200 199/199/199 201/201/201
f 399/399/399 400/400/400 401/401/401
f 198/198/198 199/199/199 200/200/200
f 401/401/401 400/400/400 402/402/402
f 198/198/198 147/147/147 199/199/199
f 401/401/401 402/402/402 403/403/403
f 197/197/197 147/147/147 198/198/198
f 403/403/403 402/402/402 404/404/404
f 196/196/196 147/147/147 197/197/197
f 403/403/403 404/404/404 405/405/405
f 405/405/405 404/404/404 406/406/406
f 405/405/405 406/406/406 407/407/407
f 407/407/407 406/406/406 408/408/408
f 407/407/407 408/408/408 409/409/409
f 409/409/409 408/408/408 410/410/410
f 409/409/409 410/410/410 411/411/411
f 411/411/411 410/410/410 412/412/412
f 411/411/411 412/412/412 413/413/413
f 413/413/413 412/412/412 414/414/414
f 413/413/413 414/414/414 415/415/415
f 415/415/415 414/414/414 416/416/416
f 415/415/415 416/416/416 417/417/417
f 417/417/417 416/416/416 418/418/418
f 418/418/418 416/416/416 419/419/419
f 418/418/418 419/419/419 420/420/420
f 418/418/418 420/420/420 421/421/421
f 421/421/421 420/420/420 422/422/422
f 421/421/421 422/422/422 423/423/423
f 423/423/423 422/422/422 424/424/424
f 423/423/423 424/424/424 425/425/425
f 425/425/425 424/424/424 426/426/426
f 425/425/425 426/426/426 427/427/427
f 427/427/427 426/426/426 428/428/428
f 427/427/427 428/428/428 429/429/429
f 429/429/429 428/428/428 430/430/430
f 429/429/429 430/430/430 431/431/431
f 431/431/431 430/430/430 432/432/432
f 431/431/431 432/432/432 433/433/433
f 433/433/433 432/432/432 434/434/434
f 433/433/433 434/434/434 435/435/435
f 435/435/435 434/434/434 436/436/436
f 435/435/435 436/436/436 437/437/437
f 437/437/437 436/436/436 438/438/438
f 437/437/437 438/438/438 439/439/439
f 439/439/439 438/438/438 440/440/440
f 439/439/439 440/440/440 441/441/441
f 441/441/441 440/440/440 442/442/442
f 441/441/441 442/442/442 443/443/443
f 443/443/443 442/442/442 444/444/444
f 443/443/443 444/444/444 445/445/445
f 445/445/445 444/444/444 446/446/446
f 445/445/445 446/446/446 447/447/447
f 447/447/447 446/446/446 448/448/448
f 447/447/447 448/448/448 449/449/449
f 147/147/147 196/196/196 195/195/195
f 211/211/211 195/195/195 212/212/212
f 212/212/212 195/195/195 213/213/213
f 207/207/207 195/195/195 211/211/211
f 213/213/213 195/195/195 214/214/214
f 213/213/213 214/214/214 215/215/215
f 210/210/210 195/195/195 207/207/207
f 207/207/207 209/209/209 210/210/210
f 207/207/207 191/191/191 209/209/209
f 208/208/208 191/191/191 207/207/207
f 258/258/258 191/191/191 208/208/208
f 349/349/349 195/195/195 196/196/196
f 349/349/349 214/214/214 195/195/195
f 258/258/258 257/257/257 191/191/191
f 256/256/256 257/257/257 258/258/258
f 352/352/352 349/349/349 196/196/196
f 385/385/385 352/352/352 196/196/196
f 384/384/384 352/352/352 385/385/385
f 384/384/384 349/349/349 352/352/352
f 383/383/383 349/349/349 384/384/384
f 256/256/256 255/255/255 257/257/257
f 254/254/254 255/255/255 256/256/256
f 383/383/383 351/351/351 349/349/349
f 254/254/254 252/252/252 255/255/255
f 253/253/253 252/252/252 254/254/254
f 250/250/250 252/252/252 253/253/253
f 349/349/349 351/351/351 348/348/348
f 348/348/348 214/214/214 349/349/349
f 383/383/383 347/347/347 351/351/351
f 351/351/351 347/347/347 348/348/348
f 382/382/382 347/347/347 383/383/383
f 348/348/348 216/216/216 214/214/214
f 347/347/347 216/216/216 348/348/348
f 215/215/215 214/214/214 216/216/216
f 215/215/215 216/216/216 217/217/217
f 217/217/217 216/216/216 218/218/218
f 382/382/382 350/350/350 347/347/347
f 381/381/381 350/350/350 382/382/382
f 347/347/347 350/350/350 334/334/334
f 381/381/381 334/334/334 350/350/350
f 334/334/334 216/216/216 347/347/347
f 380/380/380 334/334/334 381/381/381
f 379/379/379 334/334/334 380/380/380
f 218/218/218 216/216/216 219/219/219
f 219/219/219 216/216/216 334/334/334
f 218/218/218 219/219/219 220/220/220
f 379/379/379 333/333/333 334/334/334
f 333/333/333 219/219/219 334/334/334
f 378/378/378 333/333/333 379/379/379
f 220/220/220 219/219/219 221/221/221
f 378/378/378 332/332/332 333/333/333
f 332/332/332 219/219/219 333/333/333
f 377/377/377 332/332/332 378/378/378
f 221/221/221 219/219/219 222/222/222
f 222/222/222 219/219/219 332/332/332
f 221/221/221 222/222/222 223/223/223
f 223/223/223 222/222/222 224/224/224
f 377/377/377 331/331/331 332/332/332
f 331/331/331 222/222/222 332/332/332
f 377/377/377 335/335/335 331/331/331
f 376/376/376 335/335/335 377/377/377
f 225/225/225 222/222/222 331/331/331
f 331/331/331 335/335/335 225/225/225
f 224/224/224 222/222/222 225/225/225
f 376/376/376 324/324/324 335/335/335
f 225/225/225 335/335/335 324/324/324
f 375/375/375 324/324/324 376/376/376
f 374/374/374 324/324/324 375/375/375
f 224/224/224 225/225/225 226/226/226
f 225/225/225 324/324/324 226/226/226
f 224/224/224 226/226/226 227/227/227
f 227/227/227 226/226/226 228/228/228
f 374/374/374 323/323/323 324/324/324
f 324/324/324 323/323/323 226/226/226
f 373/373/373 323/323/323 374/374/374
f 228/228/228 226/226/226 229/229/229
f 229/229/229 226/226/226 323/323/323
f 228/228/228 229/229/229 230/230/230
f 373/373/373 330/330/330 323/323/323
f 330/330/330 229/229/229 323/323/323
f 372/372/372 330/330/330 373/373/373
f 230/230/230 229/229/229 231/231/231
f 372/372/372 329/329/329 330/330/330
f 329/329/329 229/229/229 330/330/330
f 371/371/371 329/329/329 372/372/372
f 328/328/328 229/229/229 329/329/329
f 371/371/371 328/328/328 329/329/329
f 231/231/231 229/229/229 232/232/232
f 232/232/232 229/229/229 328/328/328
f 231/231/231 232/232/232 233/233/233
f 233/233/233 232/232/232 234/234/234
f 371/371/371 327/327/327 328/328/328
f 327/327/327 232/232/232 328/328/328
f 370/370/370 327/327/327 371/371/371
f 234/234/234 232/232/232 235/235/235
f 370/370/370 326/326/326 327/327/327
f 326/326/326 232/232/232 327/327/327
f 369/369/369 326/326/326 370/370/370
f 235/235/235 232/232/232 236/236/236
f 236/236/236 232/232/232 326/326/326
f 235/235/235 236/236/236 237/237/237
f 369/369/369 325/325/325 326/326/326
f 325/325/325 236/236/236 326/326/326
f 368/368/368 325/325/325 369/369/369
f 237/237/237 236/236/236 238/238/238
f 237/237/237 238/238/238 239/239/239
f 239/239/239 238/238/238 240/240/240
f 240/240/240 238/238/238 241/241/241
f 322/322/322 236/236/236 325/325/325
f 368/368/368 322/322/322 325/325/325
f 238/238/238 236/236/236 322/322/322
f 367/367/367 322/322/322 368/368/368
f 366/366/366 322/322/322 367/367/367
f 241/241/241 238/238/238 242/242/242
f 241/241/241 242/242/242 243/243/243
f 243/243/243 242/242/242 244/244/244
f 366/366/366 346/346/346 322/322/322
f 365/365/365 346/346/346 366/366/366
f 342/342/342 238/238/238 322/322/322
f 346/346/346 342/342/342 322/322/322
f 342/342/342 242/242/242 238/238/238
f 365/365/365 345/345/345 346/346/346
f 346/346/346 345/345/345 342/342/342
f 364/364/364 345/345/345 365/365/365
f 345/345/345 341/341/341 342/342/342
f 364/364/364 341/341/341 345/345/345
f 341/341/341 242/242/242 342/342/342
f 363/363/363 341/341/341 364/364/364
f 244/244/244 242/242/242 245/245/245
f 244/244/244 245/245/245 246/246/246
f 246/246/246 245/245/245 247/247/247
f 363/363/363 344/344/344 341/341/341
f 362/362/362 344/344/344 363/363/363
f 340/340/340 242/242/242 341/341/341
f 341/341/341 344/344/344 340/340/340
f 340/340/340 245/245/245 242/242/242
f 362/362/362 343/343/343 344/344/344
f 344/344/344 343/343/343 340/340/340
f 361/361/361 343/343/343 362/362/362
f 343/343/343 321/321/321 340/340/340
f 361/361/361 321/321/321 343/343/343
f 321/321/321 245/245/245 340/340/340
f 360/360/360 321/321/321 361/361/361
f 247/247/247 245/245/245 248/248/248
f 321/321/321 248/248/248 245/245/245
f 247/247/247 248/248/248 249/249/249
f 249/249/249 248/248/248 250/250/250
f 360/360/360 320/320/320 321/321/321
f 320/320/320 248/248/248 321/321/321
f 359/359/359 320/320/320 360/360/360
f 250/250/250 248/248/248 251/251/251
f 251/251/251 248/248/248 320/320/320
f 250/250/250 251/251/251 252/252/252
f 359/359/359 317/317/317 320/320/320
f 317/317/317 251/251/251 320/320/320
f 252/252/252 251/251/251 317/317/317
f 358/358/358 317/317/317 359/359/359
f 318/318/318 252/252/252 317/317/317
f 252/252/252 318/318/318 255/255/255
f 358/358/358 319/319/319 317/317/317
f 318/318/318 317/317/317 319/319/319
f 357/357/357 319/319/319 358/358/358
f 356/356/356 319/319/319 357/357/357
f 318/318/318 337/337/337 255/255/255
f 356/356/356 336/336/336 319/319/319
f 319/319/319 336/336/336 318/318/318
f 318/318/318 336/336/336 337/337/337
f 355/355/355 336/336/336 356/356/356
f 355/355/355 337/337/337 336/336/336
f 337/337/337 257/257/257 255/255/255
f 355/355/355 338/338/338 337/337/337
f 337/337/337 338/338/338 257/257/257
f 354/354/354 338/338/338 355/355/355
f 257/257/257 338/338/338 339/339/339
f 354/354/354 339/339/339 338/338/338
f 257/257/257 339/339/339 191/191/191
f 353/353/353 339/339/339 354/354/354
f 339/339/339 192/192/192 191/191/191
f 339/339/339 353/353/353 192/192/192
f 181/181/181 180/180/180 179/179/179
f 179/179/179 180/180/180 182/182/182
f 185/185/185 184/184/184 183/183/183
f 183/183/183 184/184/184 186/186/186
f 189/189/189 188/188/188 187/187/187
f 187/187/187 188/188/188 190/190/190
f 271/271/271 270/270/270 269/269/269
f 269/269/269 270/270/270 272/272/272
f 269/269/269 272/272/272 279/279/279
f 269/269/269 279/279/279 277/277/277
f 277/277/277 279/279/279 280/280/280
f 271/271/271 303/303/303 270/270/270
f 275/275/275 303/303/303 271/271/271
f 271/271/271 273/273/273 275/275/275
f 270/270/270 303/303/303 304/304/304
f 274/274/274 273/273/273 271/271/271
f 304/304/304 289/289/289 270/270/270
f 274/274/274 278/278/278 273/273/273
f 274/274/274 276/276/276 278/278/278
f 277/277/277 276/276/276 274/274/274
f 277/277/277 302/302/302 276/276/276
f 301/301/301 302/302/302 277/277/277
f 277/277/277 300/300/300 301/301/301
f 280/280/280 300/300/300 277/277/277
f 280/280/280 299/299/299 300/300/300
f 280/280/280 298/298/298 299/299/299
f 280/280/280 297/297/297 298/298/298
f 280/280/280 296/296/296 297/297/297
f 280/280/280 295/295/295 296/296/296
f 294/294/294 295/295/295 280/280/280
f 280/280/280 292/292/292 294/294/294
f 293/293/293 292/292/292 280/280/280
f 286/286/286 270/270/270 289/289/289
f 289/289/289 285/285/285 286/286/286
f 288/288/288 270/270/270 286/286/286
f 286/286/286 285/285/285 283/283/283
f 288/288/288 291/291/291 270/270/270
f 283/283/283 285/285/285 287/287/287
f 288/288/288 290/290/290 291/291/291
f 283/283/283 287/287/287 282/282/282
f 281/281/281 290/290/290 288/288/288
f 283/283/283 282/282/282 281/281/281
f 281/281/281 282/282/282 284/284/284
f 281/281/281 284/284/284 305/305/305
f 281/281/281 305/305/305 306/306/306
f 307/307/307 290/290/290 281/281/281
f 281/281/281 306/306/306 307/307/307
f 306/306/306 308/308/308 307/307/307
f 307/307/307 308/308/308 309/309/309
f 307/307/307 309/309/309 310/310/310
f 310/310/310 311/311/311 307/307/307
f 307/307/307 311/311/311 312/312/312
f 312/312/312 313/313/313 307/307/307
f 307/307/307 313/313/313 314/314/314
f 314/314/314 315/315/315 307/307/307
f 307/307/307 315/315/315 316/316/316
f 452/452/452 451/451/451 450/450/450
f 452/452/452 516/516/516 451/451/451
f 450/450/450 451/451/451 453/453/453
f 515/515/515 516/516/516 452/452/452
f 450/450/450 453/453/453 454/454/454
f 515/515/515 514/514/514 516/516/516
f 454/454/454 453/453/453 455/455/455
f 513/513/513 514/514/514 515/515/515
f 455/455/455 453/453/453 456/456/456
f 513/513/513 512/512/512 514/514/514
f 455/455/455 456/456/456 457/457/457
f 510/510/510 512/512/512 513/513/513
f 457/457/457 456/456/456 458/458/458
f 510/510/510 511/511/511 512/512/512
f 457/457/457 458/458/458 459/459/459
f 510/510/510 509/509/509 511/511/511
f 459/459/459 458/458/458 460/460/460
f 508/508/508 509/509/509 510/510/510
f 459/459/459 460/460/460 461/461/461
f 508/508/508 507/507/507 509/509/509
f 461/461/461 460/460/460 462/462/462
f 506/506/506 507/507/507 508/508/508
f 461/461/461 462/462/462 463/463/463
f 506/506/506 505/505/505 507/507/507
f 463/463/463 462/462/462 464/464/464
f 504/504/504 505/505/505 506/506/506
f 463/463/463 464/464/464 465/465/465
f 504/504/504 503/503/503 505/505/505
f 463/463/463 465/465/465 466/466/466
f 502/502/502 503/503/503 504/504/504
f 466/466/466 465/465/465 467/467/467
f 502/502/502 501/501/501 503/503/503
f 467/467/467 465/465/465 468/468/468
f 500/500/500 501/501/501 502/502/502
f 467/467/467 468/468/468 469/469/469
f 500/500/500 499/499/499 501/501/501
f 467/467/467 469/469/469 470/470/470
f 498/498/498 499/499/499 500/500/500
f 470/470/470 469/469/469 471/471/471
f 498/498/498 497/497/497 499/499/499
f 471/471/471 469/469/469 472/472/472
f 496/496/496 497/497/497 498/498/498
f 471/471/471 472/472/472 473/473/473
f 496/496/496 494/494/494 497/497/497
f 473/473/473 472/472/472 474/474/474
f 495/495/495 494/494/494 496/496/496
f 473/473/473 474/474/474 475/475/475
f 493/493/493 494/494/494 495/495/495
f 475/475/475 474/474/474 476/476/476
f 493/493/493 492/492/492 494/494/494
f 475/475/475 476/476/476 477/477/477
f 491/491/491 492/492/492 493/493/493
f 477/477/477 476/476/476 478/478/478
f 491/491/491 490/490/490 492/492/492
f 477/477/477 478/478/478 479/479/479
f 489/489/489 490/490/490 491/491/491
f 479/479/479 478/478/478 480/480/480
f 489/489/489 487/487/487 490/490/490
f 479/479/479 480/480/480 481/481/481
f 488/488/488 487/487/487 489/489/489
f 481/481/481 480/480/480 482/482/482
f 486/486/486 487/487/487 488/488/488
f 481/481/481 482/482/482 483/483/483
f 486/486/486 485/485/485 487/487/487
f 481/481/481 483/483/483 484/484/484
f 484/484/484 485/485/485 486/486/486
f 484/484/484 483/483/483 485/485/485
f 519/519/519 518/518/518 517/517/517
f 517/517/517 518/518/518 520/520/520
f 520/520/520 518/518/518 521/521/521
f 521/521/521 518/518/518 522/522/522
f 525/525/525 524/524/524 523/523/523
f 523/523/523 524/524/524 526/526/526
f 529/529/529 528/528/528 527/527/527
f 527/527/527 528/528/528 530/530/530
f 527/527/527 530/530/530 531/531/531
f 531/531/531 532/532/532 527/527/527
f 535/535/535 534/534/534 533/533/533
f 533/533/533 534/534/534 536/536/536
f 535/535/535 537/537/537 534/534/534
f 553/553/553 533/533/533 536/536/536
f 538/538/538 537/537/537 535/535/535
f 553/553/553 551/551/551 533/533/533
f 538/538/538 539/539/539 537/537/537
f 552/552/552 551/551/551 553/553/553
f 539/539/539 538/538/538 540/540/540
f 549/549/549 551/551/551 552/552/552
f 540/540/540 538/538/538 541/541/541
f 549/549/549 550/550/550 551/551/551
f 541/541/541 538/538/538 542/542/542
f 549/549/549 548/548/548 550/550/550
f 541/541/541 542/542/542 543/543/543
f 547/547/547 548/548/548 549/549/549
f 543/543/543 542/542/542 544/544/544
f 547/547/547 546/546/546 548/548/548
f 543/543/543 544/544/544 545/545/545
f 545/545/545 546/546/546 547/547/547
f 545/545/545 544/544/544 546/546/546
f 556/556/556 555/555/555 554/554/554
f 554/554/554 555/555/555 557/557/557
f 554/554/554 557/557/557 558/558/558
f 558/558/558 559/559/559 554/554/554
f 562/562/562 561/561/561 560/560/560
f 560/560/560 561/561/561 563/563/563
f 566/566/566 565/565/565 564/564/564
f 564/564/564 565/565/565 567/567/567
f 570/570/570 569/569/569 568/568/568
f 568/568/568 569/569/569 571/571/571
f 571/571/571 569/569/569 572/572/572
f 572/572/572 569/569/569 573/573/573
f 576/576/576 575/575/575 574/574/574
f 574/574/574 575/575/575 577/577/577
f 580/580/580 579/579/579 578/578/578
f 578/578/578 579/579/579 581/581/581
f 584/584/584 583/583/583 582/582/582
f 584/584/584 582/582/582 585/585/585
f 603/603/603 583/583/583 584/584/584
f 585/585/585 582/582/582 586/586/586
f 603/603/603 602/602/602 583/583/583
f 586/586/586 582/582/582 587/587/587
f 601/601/601 602/602/602 603/603/603
f 586/586/586 587/587/587 588/588/588
f 601/601/601 600/600/600 602/602/602
f 588/588/588 587/587/587 589/589/589
f 588/588/588 589/589/589 590/590/590
f 590/590/590 589/589/589 591/591/591
f 590/590/590 591/591/591 592/592/592
f 592/592/592 591/591/591 593/593/593
f 592/592/592 593/593/593 594/594/594
f 594/594/594 593/593/593 595/595/595
f 594/594/594 595/595/595 596/596/596
f 596/596/596 595/595/595 597/597/597
f 596/596/596 597/597/597 598/598/598
f 596/596/596 598/598/598 599/599/599
f 599/599/599 598/598/598 600/600/600
f 599/599/599 600/600/600 601/601/601
f 601/601/601 607/607/607 599/599/599
f 608/608/608 607/607/607 601/601/601
f 604/604/604 607/607/607 608/608/608
f 604/604/604 605/605/605 607/607/607
f 606/606/606 605/605/605 604/604/604
f 605/605/605 606/606/606 609/609/609
f 609/609/609 606/606/606 610/610/610
f 609/609/609 610/610/610 611/611/611
f 611/611/611 610/610/610 612/612/612
f 615/615/615 614/614/614 613/613/613
f 613/613/613 614/614/614 616/616/616
f 614/614/614 615/615/615 617/617/617
f 616/616/616 634/634/634 613/613/613
f 617/617/617 615/615/615 618/618/618
f 633/633/633 634/634/634 616/616/616
f 617/617/617 618/618/618 619/619/619
f 633/633/633 632/632/632 634/634/634
f 619/619/619 618/618/618 620/620/620
f 631/631/631 632/632/632 633/633/633
f 619/619/619 620/620/620 621/621/621
f 631/631/631 630/630/630 632/632/632
f 621/621/621 620/620/620 622/622/622
f 629/629/629 630/630/630 631/631/631
f 621/621/621 622/622/622 623/623/623
f 629/629/629 628/628/628 630/630/630
f 623/623/623 622/622/622 624/624/624
f 627/627/627 628/628/628 629/629/629
f 623/623/623 624/624/624 625/625/625
f 627/627/627 626/626/626 628/628/628
f 625/625/625 624/624/624 626/626/626
f 625/625/625 626/626/626 627/627/627
f 637/637/637 636/636/636 635/635/635
f 637/637/637 635/635/635 638/638/638
f 657/657/657 636/636/636 637/637/637
f 638/638/638 635/635/635 639/639/639
f 657/657/657 656/656/656 636/636/636
f 638/638/638 639/639/639 640/640/640
f 655/655/655 656/656/656 657/657/657
f 640/640/640 639/639/639 641/641/641
f 655/655/655 654/654/654 656/656/656
f 640/640/640 641/641/641 642/642/642
f 652/652/652 654/654/654 655/655/655
f 642/642/642 641/641/641 643/643/643
f 652/652/652 653/653/653 654/654/654
f 642/642/642 643/643/643 644/644/644
f 652/652/652 651/651/651 653/653/653
f 644/644/644 643/643/643 645/645/645
f 650/650/650 651/651/651 652/652/652
f 644/644/644 645/645/645 646/646/646
f 650/650/650 649/649/649 651/651/651
f 646/646/646 645/645/645 647/647/647
f 648/648/648 649/649/649 650/650/650
f 646/646/646 647/647/647 648/648/648
f 648/648/648 647/647/647 649/649/649
