# VPXTOOL table OBJ file
# VPXTOOL OBJ file
# numVerts: 423 numFaces: 380
o Primitive4
v -0.202664 0.023999 -0.428356
v -0.171757 0.023999 -0.428021
v -0.202664 0.023999 -0.353442
v -0.127913 0.023999 -0.427544
v -0.075443 0.023999 -0.426974
v -0.018661 0.023999 -0.426357
v 0.038121 0.023999 -0.42574
v 0.09059 0.023999 -0.425169
v 0.134434 0.023999 -0.424693
v 0.165341 0.023999 -0.424357
v 0.165341 0.023999 -0.349779
v -0.202664 0.023999 -0.247168
v -0.099681 0.023999 -0.312179
v -0.019316 0.023999 -0.312138
v -0.0073 0.023999 -0.312132
v 0.00117 0.023999 -0.312127
v 0.165341 0.023999 -0.243982
v -0.099493 0.023999 -0.271339
v -0.091211 0.023999 -0.312175
v -0.091211 0.023999 -0.312175
v -0.033695 0.023999 -0.312145
v -0.079196 0.023999 -0.312168
v -0.091211 0.023999 -0.312175
v -0.019316 0.023999 -0.312138
v -0.033695 0.023999 -0.312145
v -0.049256 0.023999 -0.312153
v -0.064817 0.023999 -0.312161
v 0.001035 0.023999 -0.271224
v -0.099228 0.023999 -0.213404
v 0.000845 0.023999 -0.2132
v -0.202664 0.023999 -0.119989
v 0.165341 0.023999 -0.117372
v -0.09891 0.023999 -0.144071
v 0.000617 0.023999 -0.143761
v -0.098566 0.023999 -0.06904
v 0.00037 0.023999 -0.068615
v -0.202664 0.023999 0.017644
v 0.165341 0.023999 0.019643
v -0.098222 0.023999 0.005991
v 0.000123 0.023999 0.006532
v -0.097904 0.023999 0.075324
v -0.000105 0.023999 0.075971
v -0.202664 0.023999 0.155277
v 0.165341 0.023999 0.156659
v -0.097638 0.023999 0.133259
v -0.000296 0.023999 0.133996
v -0.097451 0.023999 0.174099
v -0.00043 0.023999 0.174898
v -0.202664 0.023999 0.282457
v 0.165341 0.023999 0.283268
v -0.092996 0.023999 0.174167
v -0.086676 0.023999 0.174262
v -0.079113 0.023999 0.174377
v -0.070928 0.023999 0.1745
v -0.062744 0.023999 0.174623
v -0.05518 0.023999 0.174737
v -0.04886 0.023999 0.174832
v -0.044405 0.023999 0.174899
v -0.040712 0.023999 0.174898
v -0.035473 0.023999 0.174898
v -0.029203 0.023999 0.174898
v -0.022418 0.023999 0.174898
v -0.015632 0.023999 0.174898
v -0.009363 0.023999 0.174898
v -0.004123 0.023999 0.174898
v -0.044405 0.023999 0.199156
v -0.044405 0.023999 0.199159
v -0.044405 0.023999 0.233567
v -0.044405 0.023999 0.233575
v -0.044405 0.023999 0.274747
v -0.044405 0.023999 0.27476
v -0.044405 0.023999 0.319311
v -0.044405 0.023999 0.319332
v -0.202664 0.023999 0.38873
v 0.165341 0.023999 0.389065
v -0.044405 0.023999 0.363876
v -0.044405 0.023999 0.363903
v -0.044405 0.023999 0.405055
v -0.044405 0.023999 0.405089
v -0.202664 0.023999 0.463643
v 0.165341 0.023999 0.463643
v -0.044405 0.023999 0.439466
v -0.044405 0.023999 0.439504
v -0.044405 0.023999 0.463723
v 0.028105 0.023999 0.463721
v -0.044405 0.023999 0.463763
v 0.060468 0.023999 0.463703
v 0.092831 0.023999 0.463684
v 0.147726 0.023999 0.463653
v -0.189373 0.023999 0.46365
v -0.170518 0.023999 0.46366
v 0.122736 0.023999 0.463668
v -0.147954 0.023999 0.463672
v -0.123535 0.023999 0.463684
v -0.099116 0.023999 0.463697
v -0.076552 0.023999 0.463709
v -0.057697 0.023999 0.463718
v -0.001801 0.023999 0.463739
v -0.02679 0.023999 0.463754
v -0.202664 -0.000001 -0.428356
v -0.202664 -0.000001 -0.353442
v -0.171757 -0.000001 -0.428021
v -0.127913 -0.000001 -0.427544
v -0.075443 -0.000001 -0.426974
v -0.018661 -0.000001 -0.426357
v 0.038121 -0.000001 -0.42574
v 0.09059 -0.000001 -0.425169
v 0.134434 -0.000001 -0.424693
v 0.165341 -0.000001 -0.424357
v 0.165341 -0.000001 -0.349779
v -0.202664 -0.000001 -0.247168
v -0.099681 -0.000001 -0.312179
v -0.019316 -0.000001 -0.312138
v -0.0073 -0.000001 -0.312132
v 0.00117 -0.000001 -0.312127
v 0.165341 -0.000001 -0.243982
v -0.099493 -0.000001 -0.271339
v -0.099681 -0.000001 -0.312179
v -0.091211 -0.000001 -0.312175
v -0.019316 -0.000001 -0.312138
v -0.091211 -0.000001 -0.312175
v -0.079196 -0.000001 -0.312168
v -0.033695 -0.000001 -0.312145
v -0.091211 -0.000001 -0.312175
v -0.033695 -0.000001 -0.312145
v -0.019316 -0.000001 -0.312138
v -0.064817 -0.000001 -0.312161
v -0.049256 -0.000001 -0.312153
v -0.079196 -0.000001 -0.312168
v -0.049256 -0.000001 -0.312153
v -0.033695 -0.000001 -0.312145
v 0.001035 -0.000001 -0.271224
v -0.099228 -0.000001 -0.213404
v 0.000845 -0.000001 -0.2132
v -0.202664 -0.000001 -0.119989
v 0.165341 -0.000001 -0.117372
v -0.09891 -0.000001 -0.144071
v 0.000617 -0.000001 -0.143761
v -0.098566 -0.000001 -0.06904
v 0.00037 -0.000001 -0.068615
v -0.202664 -0.000001 0.017644
v 0.165341 -0.000001 0.019643
v -0.098222 -0.000001 0.005991
v 0.000123 -0.000001 0.006532
v -0.097904 -0.000001 0.075324
v -0.000105 -0.000001 0.075971
v -0.202664 -0.000001 0.155277
v 0.165341 -0.000001 0.156659
v -0.097638 -0.000001 0.133259
v -0.000296 -0.000001 0.133996
v -0.097451 -0.000001 0.174099
v -0.00043 -0.000001 0.174898
v -0.202664 -0.000001 0.282457
v 0.165341 -0.000001 0.283268
v -0.092996 -0.000001 0.174167
v -0.086676 -0.000001 0.174262
v -0.079113 -0.000001 0.174377
v -0.070928 -0.000001 0.1745
v -0.062744 -0.000001 0.174623
v -0.05518 -0.000001 0.174737
v -0.04886 -0.000001 0.174832
v -0.044405 -0.000001 0.174899
v -0.040712 -0.000001 0.174898
v -0.044405 -0.000001 0.174899
v -0.035473 -0.000001 0.174898
v -0.029203 -0.000001 0.174898
v -0.022418 -0.000001 0.174898
v -0.015632 -0.000001 0.174898
v -0.009363 -0.000001 0.174898
v -0.004123 -0.000001 0.174898
v -0.044405 -0.000001 0.199156
v -0.044405 -0.000001 0.199159
v -0.044405 -0.000001 0.233567
v -0.044405 -0.000001 0.233575
v -0.044405 -0.000001 0.274747
v -0.044405 -0.000001 0.27476
v -0.044405 -0.000001 0.319311
v -0.044405 -0.000001 0.319332
v -0.202664 -0.000001 0.38873
v 0.165341 -0.000001 0.389065
v -0.044405 -0.000001 0.363876
v -0.044405 -0.000001 0.363903
v -0.044405 -0.000001 0.405055
v -0.044405 -0.000001 0.405089
v -0.202664 -0.000001 0.463643
v 0.165341 -0.000001 0.463643
v -0.044405 -0.000001 0.439466
v -0.044405 -0.000001 0.439504
v -0.044405 -0.000001 0.463723
v -0.044405 -0.000001 0.463763
v 0.028105 -0.000001 0.463721
v 0.060468 -0.000001 0.463703
v 0.092831 -0.000001 0.463684
v 0.147726 -0.000001 0.463653
v -0.202664 -0.000001 0.463643
v -0.189373 -0.000001 0.46365
v -0.044405 -0.000001 0.463723
v -0.189373 -0.000001 0.46365
v -0.170518 -0.000001 0.46366
v 0.122736 -0.000001 0.463668
v -0.147954 -0.000001 0.463672
v -0.123535 -0.000001 0.463684
v -0.099116 -0.000001 0.463697
v -0.076552 -0.000001 0.463709
v -0.057697 -0.000001 0.463718
v -0.001801 -0.000001 0.463739
v -0.02679 -0.000001 0.463754
v 0.165341 -0.000001 -0.243982
v 0.165341 0.023999 -0.243982
v 0.165341 0.023999 -0.349779
v 0.165341 -0.000001 -0.117372
v 0.165341 0.023999 -0.117372
v 0.165341 -0.000001 0.019643
v 0.165341 0.023999 0.019643
v 0.165341 -0.000001 0.156659
v 0.165341 0.023999 0.156659
v 0.165341 -0.000001 0.283268
v 0.165341 0.023999 0.283268
v 0.165341 -0.000001 0.389065
v 0.165341 0.023999 0.389065
v 0.165341 -0.000001 0.463643
v 0.165341 0.023999 0.463643
v 0.147726 -0.000001 0.463653
v 0.147726 0.023999 0.463653
v 0.165341 0.023999 0.463643
v 0.122736 -0.000001 0.463668
v 0.122736 0.023999 0.463668
v 0.092831 -0.000001 0.463684
v 0.092831 0.023999 0.463684
v 0.060468 -0.000001 0.463703
v 0.060468 0.023999 0.463703
v 0.028105 -0.000001 0.463721
v 0.028105 0.023999 0.463721
v -0.001801 -0.000001 0.463739
v -0.001801 0.023999 0.463739
v -0.02679 -0.000001 0.463754
v -0.02679 0.023999 0.463754
v -0.044405 -0.000001 0.463763
v -0.044405 0.023999 0.463763
v -0.044405 -0.000001 0.463763
v -0.044405 0.023999 0.439504
v -0.044405 0.023999 0.463763
v -0.044405 -0.000001 0.439504
v -0.044405 0.023999 0.405089
v -0.044405 -0.000001 0.405089
v -0.044405 0.023999 0.363903
v -0.044405 -0.000001 0.363903
v -0.044405 0.023999 0.319332
v -0.044405 -0.000001 0.319332
v -0.044405 0.023999 0.27476
v -0.044405 -0.000001 0.27476
v -0.044405 0.023999 0.233575
v -0.044405 -0.000001 0.233575
v -0.044405 0.023999 0.199159
v -0.044405 -0.000001 0.199159
v -0.044405 0.023999 0.174899
v -0.044405 -0.000001 0.174899
v -0.040712 0.023999 0.174898
v -0.044405 0.023999 0.174899
v -0.035473 -0.000001 0.174898
v -0.035473 0.023999 0.174898
v -0.029203 -0.000001 0.174898
v -0.029203 0.023999 0.174898
v -0.022418 -0.000001 0.174898
v -0.022418 0.023999 0.174898
v -0.015632 -0.000001 0.174898
v -0.015632 0.023999 0.174898
v -0.009363 -0.000001 0.174898
v -0.009363 0.023999 0.174898
v -0.004123 -0.000001 0.174898
v -0.004123 0.023999 0.174898
v -0.00043 -0.000001 0.174898
v -0.00043 0.023999 0.174898
v -0.00043 -0.000001 0.174898
v -0.000296 0.023999 0.133996
v -0.00043 0.023999 0.174898
v -0.000296 -0.000001 0.133996
v -0.000105 0.023999 0.075971
v -0.000105 -0.000001 0.075971
v 0.000123 0.023999 0.006532
v 0.000123 -0.000001 0.006532
v 0.00037 0.023999 -0.068615
v 0.00037 -0.000001 -0.068615
v 0.000617 0.023999 -0.143761
v 0.000617 -0.000001 -0.143761
v 0.000845 0.023999 -0.2132
v 0.000845 -0.000001 -0.2132
v 0.001035 0.023999 -0.271224
v 0.001035 -0.000001 -0.271224
v 0.00117 0.023999 -0.312127
v 0.00117 -0.000001 -0.312127
v -0.0073 0.023999 -0.312132
v 0.00117 0.023999 -0.312127
v -0.0073 -0.000001 -0.312132
v -0.019316 0.023999 -0.312138
v -0.019316 -0.000001 -0.312138
v -0.033695 0.023999 -0.312145
v -0.033695 -0.000001 -0.312145
v -0.049256 0.023999 -0.312153
v -0.049256 -0.000001 -0.312153
v -0.064817 0.023999 -0.312161
v -0.064817 -0.000001 -0.312161
v -0.079196 0.023999 -0.312168
v -0.079196 -0.000001 -0.312168
v -0.091211 0.023999 -0.312175
v -0.091211 -0.000001 -0.312175
v -0.099681 0.023999 -0.312179
v -0.099493 -0.000001 -0.271339
v -0.099493 0.023999 -0.271339
v -0.099681 0.023999 -0.312179
v -0.099228 -0.000001 -0.213404
v -0.099228 0.023999 -0.213404
v -0.09891 -0.000001 -0.144071
v -0.09891 0.023999 -0.144071
v -0.098566 -0.000001 -0.06904
v -0.098566 0.023999 -0.06904
v -0.098222 -0.000001 0.005991
v -0.098222 0.023999 0.005991
v -0.097904 -0.000001 0.075324
v -0.097904 0.023999 0.075324
v -0.097638 -0.000001 0.133259
v -0.097638 0.023999 0.133259
v -0.097451 -0.000001 0.174099
v -0.097451 0.023999 0.174099
v -0.092996 -0.000001 0.174167
v -0.092996 0.023999 0.174167
v -0.097451 0.023999 0.174099
v -0.086676 -0.000001 0.174262
v -0.086676 0.023999 0.174262
v -0.079113 -0.000001 0.174377
v -0.079113 0.023999 0.174377
v -0.070928 -0.000001 0.1745
v -0.070928 0.023999 0.1745
v -0.062744 -0.000001 0.174623
v -0.062744 0.023999 0.174623
v -0.05518 -0.000001 0.174737
v -0.05518 0.023999 0.174737
v -0.04886 -0.000001 0.174832
v -0.04886 0.023999 0.174832
v -0.044405 -0.000001 0.174899
v -0.044405 0.023999 0.174899
v -0.044405 -0.000001 0.199156
v -0.044405 0.023999 0.199156
v -0.044405 0.023999 0.174899
v -0.044405 -0.000001 0.233567
v -0.044405 0.023999 0.233567
v -0.044405 -0.000001 0.274747
v -0.044405 0.023999 0.274747
v -0.044405 -0.000001 0.319311
v -0.044405 0.023999 0.319311
v -0.044405 -0.000001 0.363876
v -0.044405 0.023999 0.363876
v -0.044405 -0.000001 0.405055
v -0.044405 0.023999 0.405055
v -0.044405 -0.000001 0.439466
v -0.044405 0.023999 0.439466
v -0.044405 -0.000001 0.463723
v -0.044405 0.023999 0.463723
v -0.044405 -0.000001 0.463723
v -0.057697 0.023999 0.463718
v -0.044405 0.023999 0.463723
v -0.057697 -0.000001 0.463718
v -0.076552 0.023999 0.463709
v -0.076552 -0.000001 0.463709
v -0.099116 0.023999 0.463697
v -0.099116 -0.000001 0.463697
v -0.123535 0.023999 0.463684
v -0.123535 -0.000001 0.463684
v -0.147954 0.023999 0.463672
v -0.147954 -0.000001 0.463672
v -0.170518 0.023999 0.46366
v -0.170518 -0.000001 0.46366
v -0.189373 0.023999 0.46365
v -0.189373 -0.000001 0.46365
v -0.202664 0.023999 0.463643
v -0.202664 -0.000001 0.463643
v -0.202664 0.023999 0.38873
v -0.202664 0.023999 0.463643
v -0.202664 -0.000001 0.38873
v -0.202664 0.023999 0.282457
v -0.202664 -0.000001 0.282457
v -0.202664 0.023999 0.155277
v -0.202664 -0.000001 0.155277
v -0.202664 0.023999 0.017644
v -0.202664 -0.000001 0.017644
v -0.202664 0.023999 -0.119989
v -0.202664 -0.000001 -0.119989
v -0.202664 0.023999 -0.247168
v -0.202664 -0.000001 -0.247168
v -0.202664 0.023999 -0.353442
v -0.202664 -0.000001 -0.353442
v -0.202664 0.023999 -0.428356
v -0.171757 -0.000001 -0.428021
v -0.171757 0.023999 -0.428021
v -0.202664 0.023999 -0.428356
v -0.127913 -0.000001 -0.427544
v -0.127913 0.023999 -0.427544
v -0.075443 -0.000001 -0.426974
v -0.075443 0.023999 -0.426974
v -0.018661 -0.000001 -0.426357
v -0.018661 0.023999 -0.426357
v 0.038121 -0.000001 -0.42574
v 0.038121 0.023999 -0.42574
v 0.09059 -0.000001 -0.425169
v 0.09059 0.023999 -0.425169
v 0.134434 -0.000001 -0.424693
v 0.134434 0.023999 -0.424693
v 0.165341 -0.000001 -0.424357
v 0.165341 0.023999 -0.424357
v 0.165341 -0.000001 -0.349779
v 0.165341 0.023999 -0.424357
v 0.165341 -0.000001 0.463643
v -0.044405 -0.000001 0.174899
v -0.040712 -0.000001 0.174898
v 0.00117 -0.000001 -0.312127
v -0.099681 -0.000001 -0.312179
v -0.099681 -0.000001 -0.312179
v -0.097451 -0.000001 0.174099
v -0.044405 -0.000001 0.174899
v -0.202664 -0.000001 0.463643
v -0.202664 -0.000001 -0.428356
v -0.202664 -0.000001 -0.428356
v 0.165341 -0.000001 -0.424357
vt 0.431893 0.04169202
vt 0.399278 0.041945994
vt 0.43165 0.12074298
vt 0.353013 0.042307973
vt 0.297645 0.042738974
vt 0.237727 0.04320699
vt 0.17781 0.043673992
vt 0.122442 0.044106007
vt 0.076176 0.044466972
vt 0.043563 0.044721007
vt 0.04332 0.12341702
vt 0.431306 0.23288202
vt 0.322849 0.16394901
vt 0.238048 0.16373199
vt 0.22537 0.16369998
vt 0.216432 0.16367698
vt 0.042978 0.235053
vt 0.322519 0.20704299
vt 0.313912 0.16392702
vt 0.905769 0.67706102
vt 0.905924 0.61637002
vt 0.905802 0.66438198
vt 0.040687 0.04169202
vt 0.040687 0.04169202
vt 0.040687 0.04169202
vt 0.905881 0.63278902
vt 0.90584 0.64920902
vt 0.216442 0.20683801
vt 0.322052 0.268175
vt 0.216454 0.268067
vt 0.430895 0.367081
vt 0.042568 0.36865103
vt 0.321492 0.34133303
vt 0.21647 0.341339
vt 0.320885 0.42050397
vt 0.216488 0.42063296
vt 0.430449 0.51231003
vt 0.042124 0.51323003
vt 0.32028 0.499676
vt 0.216505 0.499928
vt 0.319719 0.57283503
vt 0.216521 0.573201
vt 0.430004 0.65754002
vt 0.041681 0.657807
vt 0.319252 0.63396698
vt 0.216534 0.63443
vt 0.318923 0.67706102
vt 0.216544 0.67759103
vt 0.429591 0.79174
vt 0.041272 0.79140502
vt 0.314221 0.677117
vt 0.307552 0.677198
vt 0.299571 0.677293
vt 0.290935 0.67739803
vt 0.282297 0.6775
vt 0.274316 0.677597
vt 0.267647 0.677675
vt 0.262946 0.677733
vt 0.259048 0.67772102
vt 0.25352 0.67770302
vt 0.246904 0.67768198
vt 0.239745 0.677661
vt 0.232584 0.677639
vt 0.225969 0.677621
vt 0.22044 0.677603
vt 0.262867 0.70332998
vt 0.262867 0.703332
vt 0.262756 0.73963797
vt 0.262756 0.73964798
vt 0.262622 0.78309101
vt 0.262623 0.783108
vt 0.262478 0.830118
vt 0.262478 0.83013803
vt 0.429249 0.90387797
vt 0.040929 0.90304202
vt 0.262334 0.87713897
vt 0.262334 0.877168
vt 0.262201 0.92059201
vt 0.262201 0.920629025
vt 0.429005 0.982927024
vt 0.040687 0.981737018
vt 0.26209 0.956905007
vt 0.262089 0.956942976
vt 0.262011 0.982500017
vt 0.185499 0.982262015
vt 0.262011 0.982541978
vt 0.15135 0.982137024
vt 0.1172 0.982015014
vt 0.059276 0.981800973
vt 0.41498 0.982891023
vt 0.395085 0.982840002
vt 0.085644 0.98190099
vt 0.371275 0.98277998
vt 0.345509 0.98271501
vt 0.319742 0.982649028
vt 0.295932 0.982587993
vt 0.276036 0.982537985
vt 0.217055 0.982376993
vt 0.243423 0.982475996
vt 0.823098 0.982926011
vt 0.822855 0.90387702
vt 0.790484 0.982671976
vt 0.744218 0.98231101
vt 0.68885 0.981878996
vt 0.628933 0.981411994
vt 0.569014 0.980944991
vt 0.513647 0.980512023
vt 0.467381 0.98015201
vt 0.434768 0.979897976
vt 0.434525 0.90120202
vt 0.822512 0.79173797
vt 0.714054 0.86066902
vt 0.629253 0.86088699
vt 0.616574 0.860919
vt 0.607637 0.860942
vt 0.434183 0.78956503
vt 0.713724 0.81757599
vt 0.714054 0.86066902
vt 0.705117 0.86069202
vt 0.629253 0.86088699
vt 0.905769 0.55567902
vt 0.905803 0.568357
vt 0.905925 0.61637002
vt 0.040687 0.04169202
vt 0.040687 0.04169202
vt 0.040687 0.04169202
vt 0.90584 0.58353102
vt 0.905882 0.59995002
vt 0.905803 0.568357
vt 0.905882 0.59995002
vt 0.905925 0.61637002
vt 0.607647 0.81778198
vt 0.713256 0.75644302
vt 0.60766 0.756553
vt 0.8221 0.657538
vt 0.433774 0.655968
vt 0.712697 0.683286
vt 0.607676 0.68328
vt 0.71209 0.604114
vt 0.607693 0.60398602
vt 0.821654 0.512308
vt 0.433331 0.51138997
vt 0.711485 0.52494198
vt 0.60771 0.52468997
vt 0.710925 0.451783
vt 0.607726 0.45141804
vt 0.821209 0.367078
vt 0.432886 0.36681104
vt 0.710457 0.390652
vt 0.607739 0.39019
vt 0.710127 0.347557
vt 0.607749 0.34702802
vt 0.820797 0.23287898
vt 0.432477 0.233212
vt 0.705426 0.34750104
vt 0.698757 0.34741902
vt 0.690777 0.34732604
vt 0.682139 0.34722102
vt 0.673502 0.347117
vt 0.665522 0.34702098
vt 0.658852 0.346942
vt 0.65415 0.34688497
vt 0.650254 0.34689903
vt 0.65415 0.34688604
vt 0.644725 0.34691596
vt 0.638109 0.346936
vt 0.630949 0.34695804
vt 0.623789 0.34697902
vt 0.617174 0.346999
vt 0.611646 0.347017
vt 0.654072 0.32129002
vt 0.654071 0.32128596
vt 0.653961 0.284979
vt 0.65396 0.284971
vt 0.653828 0.24152601
vt 0.653828 0.241512
vt 0.653684 0.19450301
vt 0.653684 0.19448102
vt 0.820453 0.12073803
vt 0.432134 0.12157601
vt 0.653539 0.14747798
vt 0.653539 0.14744902
vt 0.653406 0.10402602
vt 0.653405 0.103989005
vt 0.82021 0.04169202
vt 0.431893 0.042882025
vt 0.653295 0.067713976
vt 0.653294 0.06767601
vt 0.653216 0.042119026
vt 0.653216 0.04207599
vt 0.576703 0.042357028
vt 0.542554 0.042479992
vt 0.508405 0.04260397
vt 0.450481 0.04281801
vt 0.82021 0.04169202
vt 0.806185 0.041727006
vt 0.653216 0.042119026
vt 0.806185 0.041727006
vt 0.786289 0.041777015
vt 0.476849 0.042719007
vt 0.76248 0.041840017
vt 0.736713 0.041903973
vt 0.710947 0.041970015
vt 0.687137 0.042029977
vt 0.667241 0.042081
vt 0.60826 0.042240977
vt 0.634627 0.042142987
vt 0.851894 0.23210096
vt 0.877218 0.23202199
vt 0.876876 0.12038702
vt 0.852304 0.36569798
vt 0.877628 0.36562002
vt 0.852747 0.51027602
vt 0.878072 0.510199
vt 0.853191 0.654854
vt 0.878515 0.654777
vt 0.8536 0.78845102
vt 0.878925 0.788374
vt 0.853943 0.90008801
vt 0.879268 0.90000999
vt 0.854184 0.978783011
vt 0.879509 0.978707016
vt 0.933366 0.35215604
vt 0.958691 0.35207796
vt 0.958633 0.33349097
vt 0.933447 0.378524
vt 0.958771 0.37844598
vt 0.933544 0.41007996
vt 0.958868 0.410002
vt 0.933648 0.44422996
vt 0.958973 0.444152
vt 0.933753 0.478379
vt 0.959078 0.478301
vt 0.93385 0.50993598
vt 0.959175 0.509857
vt 0.933931 0.536304
vt 0.959256 0.53622597
vt 0.933988 0.554892
vt 0.959313 0.55481398
vt 0.904833 0.860564
vt 0.879587 0.83489001
vt 0.879509 0.860488
vt 0.904912 0.83496797
vt 0.879698 0.79857498
vt 0.905023 0.79865098
vt 0.879832 0.75511599
vt 0.905157 0.75519401
vt 0.879976 0.708084
vt 0.905301 0.708162
vt 0.880121 0.661053
vt 0.905446 0.66113198
vt 0.880254 0.617593
vt 0.905579 0.617671
vt 0.880365 0.58127803
vt 0.90569 0.581357
vt 0.880444 0.55567902
vt 0.958393 0.90613598
vt 0.933056 0.90231699
vt 0.933068 0.906214
vt 0.958364 0.89671099
vt 0.933039 0.896788
vt 0.958344 0.89009601
vt 0.933019 0.89017302
vt 0.958321 0.882936
vt 0.932997 0.88301301
vt 0.9583 0.875777006
vt 0.932975 0.875854015
vt 0.958279 0.86916101
vt 0.932955 0.86923802
vt 0.958262 0.86363202
vt 0.932938 0.86370999
vt 0.958251 0.85973603
vt 0.932926 0.85981297
vt 0.904833 0.55567902
vt 0.879641 0.51244098
vt 0.879509 0.555601
vt 0.904966 0.512518
vt 0.879829 0.451213
vt 0.905153 0.45129
vt 0.880054 0.37794
vt 0.905379 0.37801898
vt 0.880297 0.298647
vt 0.905621 0.298724
vt 0.88054 0.219352
vt 0.905865 0.21942902
vt 0.880765 0.14608002
vt 0.906089 0.14615798
vt 0.880952 0.08485198
vt 0.906277 0.08492899
vt 0.881085 0.04169202
vt 0.933635 0.226996
vt 0.958933 0.23601103
vt 0.95896 0.22707403
vt 0.933608 0.235933
vt 0.958894 0.24869001
vt 0.933569 0.24861199
vt 0.958847 0.26386297
vt 0.933522 0.263785
vt 0.958797 0.28028202
vt 0.933472 0.280205
vt 0.958746 0.29670203
vt 0.933422 0.296624
vt 0.9587 0.311875
vt 0.933375 0.31179702
vt 0.958661 0.324553
vt 0.933336 0.324475
vt 0.958634 0.33349097
vt 0.906542 0.08486402
vt 0.931866 0.084786
vt 0.931734 0.04169202
vt 0.906729 0.145998
vt 0.932054 0.14591998
vt 0.906954 0.219158
vt 0.932279 0.21907997
vt 0.907197 0.29833102
vt 0.932522 0.298253
vt 0.907439 0.377504
vt 0.932764 0.37742496
vt 0.907664 0.45066297
vt 0.932988 0.450585
vt 0.907852 0.511797
vt 0.933176 0.51172
vt 0.907984 0.554892
vt 0.933309 0.55481398
vt 0.904991 0.911843
vt 0.879666 0.91192001
vt 0.87968 0.91662103
vt 0.90497 0.905173
vt 0.879646 0.905251026
vt 0.904946 0.89719099
vt 0.879621 0.89726901
vt 0.904919 0.88855398
vt 0.879595 0.888632
vt 0.904893 0.879917026
vt 0.879568 0.87999499
vt 0.904868 0.87193602
vt 0.879543 0.87201297
vt 0.904848 0.86526603
vt 0.879523 0.86534399
vt 0.904833 0.860564
vt 0.879509 0.86064202
vt 0.933782 0.58049
vt 0.959106 0.580566
vt 0.959185 0.55497003
vt 0.933671 0.6168
vt 0.958996 0.616876
vt 0.933537 0.66025102
vt 0.958862 0.66032898
vt 0.933393 0.707276
vt 0.958718 0.707353
vt 0.933249 0.75429899
vt 0.958574 0.75437802
vt 0.933115 0.79775399
vt 0.95844 0.79782999
vt 0.933004 0.83406103
vt 0.958329 0.83414203
vt 0.932926 0.85965902
vt 0.95825 0.85973603
vt 0.933309 0.04176998
vt 0.958677 0.05571699
vt 0.958634 0.04169202
vt 0.933352 0.055796027
vt 0.958738 0.07561302
vt 0.933413 0.075690985
vt 0.958811 0.09942299
vt 0.933486 0.0995
vt 0.95889 0.125189
vt 0.933565 0.12526703
vt 0.958969 0.15095603
vt 0.933644 0.151034
vt 0.959042 0.17476499
vt 0.933717 0.17484403
vt 0.959103 0.19466102
vt 0.933778 0.19473898
vt 0.959146 0.208686
vt 0.85131 0.982927024
vt 0.825743 0.903955996
vt 0.825985 0.983006
vt 0.851068 0.90387797
vt 0.825399 0.79181701
vt 0.850724 0.79174101
vt 0.824987 0.65761602
vt 0.850312 0.657538
vt 0.824542 0.51238698
vt 0.849867 0.51231003
vt 0.824096 0.367158
vt 0.849421 0.367081
vt 0.823684 0.23295802
vt 0.849009 0.23288
vt 0.823341 0.12081897
vt 0.848665 0.12074101
vt 0.823098 0.04176998
vt 0.932826 0.91061598
vt 0.907501 0.910694
vt 0.907601 0.94330901
vt 0.932684 0.86435002
vt 0.907359 0.86442798
vt 0.932514 0.808981
vt 0.907189 0.80905801
vt 0.93233 0.749061
vt 0.907005 0.749139
vt 0.932146 0.689142
vt 0.906822 0.68922
vt 0.931976 0.63377303
vt 0.906652 0.633851
vt 0.931835 0.58750802
vt 0.90651 0.58758402
vt 0.931735 0.554892
vt 0.90641 0.554969
vt 0.851551 0.12046498
vt 0.876634 0.04169202
vt 0.933309 0.33356798
vt 0.905769 0.555757
vt 0.958381 0.902239025
vt 0.90641 0.04176998
vt 0.933309 0.333413
vt 0.90641 0.04176998
vt 0.905005 0.91654301
vt 0.93386 0.554892
vt 0.933821 0.20876402
vt 0.848423 0.04169202
vt 0.932926 0.943230987
vt 0.85131 0.04176998
vn -0 1 0
vn -0 1 0
vn -0 1 0
vn -0 1 0
vn -0 1 0
vn -0 1 0
vn -0 1 0
vn -0 1 0
vn -0 1 0
vn -0 1 0
vn -0 1 0
vn -0 1 0
vn -0 1 0
vn -0 1 0
vn -0 1 0
vn -0 1 0
vn -0 1 0
vn -0 1 0
vn -0 1 0
vn -0 1 0
vn -0 1 0
vn -0 1 0
vn 0 -1 -0
vn 0 -1 -0
vn 0 -1 -0
vn -0 1 0
vn -0 1 0
vn -0 1 0
vn -0 1 0
vn -0 1 0
vn -0 1 0
vn -0 1 0
vn -0 1 0
vn -0 1 0
vn -0 1 0
vn -0 1 0
vn -0 1 0
vn -0 1 0
vn -0 1 0
vn -0 1 0
vn -0 1 0
vn -0 1 0
vn -0 1 0
vn -0 1 0
vn -0 1 0
vn -0 1 0
vn -0 1 0
vn -0 1 0
vn -0 1 0
vn -0 1 0
vn -0 1 0
vn -0 1 0
vn -0 1 0
vn -0 1 0
vn -0 1 0
vn -0 1 0
vn -0 1 0
vn -0 1 0
vn -0 1 0
vn -0 1 0
vn -0 1 0
vn -0 1 0
vn -0 1 0
vn -0 1 0
vn -0 1 0
vn -0 1 0
vn -0 1 0
vn -0 1 0
vn -0 1 0
vn -0 1 0
vn -0 1 0
vn -0 1 0
vn -0 1 0
vn -0 1 0
vn -0 1 0
vn -0 1 0
vn -0 1 0
vn -0 1 0
vn -0 1 0
vn -0 1 0
vn -0 1 0
vn -0 1 0
vn -0 1 0
vn -0 1 0
vn -0 1 0
vn -0 1 0
vn -0 1 0
vn -0 1 0
vn -0 1 0
vn -0 1 0
vn -0 1 0
vn -0 1 0
vn -0 1 0
vn -0 1 0
vn -0 1 0
vn -0 1 0
vn -0 1 0
vn -0 1 0
vn -0 1 0
vn 0 -1 -0
vn 0 -1 -0
vn 0 -1 -0
vn 0 -1 -0
vn 0 -1 -0
vn 0 -1 -0
vn 0 -1 -0
vn 0 -1 -0
vn 0 -1 -0
vn 0 -1 -0
vn 0 -1 -0
vn 0 -1 -0
vn 0 -1 -0
vn 0 -1 -0
vn 0 -1 -0
vn 0 -1 -0
vn 0 -1 -0
vn 0 -1 -0
vn 0 -1 -0.000001
vn 0 -1 -0.000001
vn 0 -1 -0.000001
vn 0 -1 -0
vn 0 -1 -0
vn 0 -1 -0
vn 0 1 -0.000008
vn 0 1 -0.000008
vn 0 1 -0.000008
vn 0 -1 -0
vn 0 -1 -0
vn -0 -1 0.000002
vn -0 -1 0.000002
vn -0 -1 0.000002
vn 0 -1 -0
vn 0 -1 -0
vn 0 -1 -0
vn 0 -1 -0
vn 0 -1 -0
vn 0 -1 -0
vn 0 -1 -0
vn 0 -1 -0
vn 0 -1 -0
vn 0 -1 -0
vn 0 -1 -0
vn 0 -1 -0
vn 0 -1 -0
vn 0 -1 -0
vn 0 -1 -0
vn 0 -1 -0
vn 0 -1 -0
vn 0 -1 -0
vn 0 -1 -0
vn 0 -1 -0
vn 0 -1 -0
vn 0 -1 -0
vn 0 -1 -0
vn 0 -1 -0
vn 0 -1 -0
vn 0 -1 -0
vn 0 -1 -0
vn 0 -1 -0
vn 0 -1 -0
vn 0 -1 -0
vn 0 -1 -0
vn 0 -1 -0
vn 0 -1 -0
vn 0 -1 -0
vn 0 -1 -0
vn 0 -1 -0
vn 0 -1 -0
vn 0 -1 -0
vn 0 -1 -0
vn 0 -1 -0
vn 0 -1 -0
vn 0 -1 -0
vn 0 -1 -0
vn 0 -1 -0
vn 0 -1 -0
vn 0 -1 -0
vn 0 -1 -0
vn 0 -1 -0
vn 0 -1 -0
vn 0 -1 -0
vn 0 -1 -0
vn 0 -1 -0
vn 0 -1 -0
vn 0 -1 -0
vn 0 -1 -0
vn 0 -1 -0
vn 0 -1 -0
vn 0 -1 -0
vn 0 -1 -0
vn 0 -1 -0
vn 0 -1 -0
vn 0 -1 -0
vn 0 -1 -0
vn -0 -1 0.000001
vn -0 -1 0.000001
vn -0 -1 0.000001
vn 0 -1 -0
vn 0 -1 -0
vn 0 -1 -0
vn 0 -1 -0
vn 0 -1 -0
vn 0 -1 -0
vn 0 -1 -0
vn 0 -1 -0
vn 0 -1 -0
vn 0 -1 -0
vn 1 0 0
vn 1 0 0
vn 1 0 0
vn 1 0 0
vn 0.999969 0 0
vn 0.999969 0 0
vn 0.999969 0 0
vn 0.999969 0 0
vn 1 0 0
vn 1 0 0
vn 1 0 0
vn 1 0 0
vn 0.999969 0 0
vn 1 0 0
vn 0.999969 0 0
vn 0.000549 0 0.999969
vn 0.000549 0 0.999969
vn 0.000549 0 0.999969
vn 0.000549 0 0.999969
vn 0.000549 0 0.999969
vn 0.000549 0 0.999969
vn 0.000549 0 0.999969
vn 0.000549 0 0.999969
vn 0.000549 0 0.999969
vn 0.00058 0 0.999969
vn 0.00058 0 0.999969
vn 0.00058 0 0.999969
vn 0.00058 0 0.999969
vn 0.000549 0 0.999969
vn 0.000549 0 0.999969
vn 0.000549 0 0.999969
vn 0.000549 0 0.999969
vn -1 0 0
vn -1 0 0
vn -0.999969 0 0
vn -1 0 0
vn -1 0 0
vn -1 0 0
vn -1 0 0
vn -1 0 0
vn -1 0 0
vn -1 0 0
vn -1 0 0
vn -1 0 0
vn -0.999969 0 0
vn -1 0 0
vn -1 0 0
vn -1 0 0
vn -1 0 0
vn -0.000244 0 -0.999969
vn -0.000122 0 -1
vn -0.000244 0 -0.999969
vn 0 0 -1
vn 0 0 -1
vn 0 0 -0.999969
vn 0 0 -0.999969
vn 0 0 -0.999969
vn 0 0 -0.999969
vn 0 0 -0.999969
vn 0 0 -1
vn 0 0 -0.999969
vn 0 0 -0.999969
vn 0 0 -0.999969
vn 0 0 -1
vn 0 0 -1
vn 0 0 -1
vn -0.999969 0 -0.003265
vn -0.999969 0 -0.003265
vn -0.999969 0 -0.003265
vn -0.999969 0 -0.003265
vn -0.999969 0 -0.003265
vn -0.999969 0 -0.003265
vn -0.999969 0 -0.003265
vn -0.999969 0 -0.003265
vn -0.999969 0 -0.003265
vn -0.999969 0 -0.003265
vn -0.999969 0 -0.003265
vn -0.999969 0 -0.003265
vn -0.999969 0 -0.003265
vn -0.999969 0 -0.003265
vn -0.999969 0 -0.003265
vn -0.999969 0 -0.003265
vn -0.999969 0 -0.003265
vn -0.000549 0 0.999969
vn -0.000549 0 0.999969
vn -0.000549 0 0.999969
vn -0.000549 0 0.999969
vn -0.000519 0 0.999969
vn -0.000519 0 0.999969
vn -0.000488 0 0.999969
vn -0.000488 0 0.999969
vn -0.000488 0 0.999969
vn -0.000488 0 0.999969
vn -0.000488 0 0.999969
vn -0.000488 0 0.999969
vn -0.000519 0 0.999969
vn -0.000519 0 0.999969
vn -0.000519 0 0.999969
vn -0.000519 0 0.999969
vn -0.000488 0 0.999969
vn 0.999969 0 -0.004578
vn 0.999969 0 -0.004578
vn 0.999969 0 -0.004578
vn 0.999969 0 -0.004578
vn 0.999969 0 -0.004578
vn 0.999969 0 -0.004578
vn 0.999969 0 -0.004578
vn 0.999969 0 -0.004578
vn 0.999969 0 -0.004578
vn 0.999969 0 -0.004578
vn 0.999969 0 -0.004578
vn 0.999969 0 -0.004578
vn 0.999969 0 -0.004578
vn 0.999969 0 -0.004578
vn 0.999969 0 -0.004578
vn 0.999969 0 -0.004578
vn 0.999969 0 -0.004578
vn 0.015107 0 -0.999878
vn 0.015107 0 -0.999878
vn 0.015107 0 -0.999878
vn 0.015107 0 -0.999878
vn 0.015107 0 -0.999878
vn 0.015046 0 -0.999878
vn 0.015046 0 -0.999878
vn 0.015015 0 -0.999878
vn 0.015015 0 -0.999878
vn 0.015046 0 -0.999878
vn 0.015046 0 -0.999878
vn 0.015046 0 -0.999878
vn 0.015015 0 -0.999878
vn 0.015046 0 -0.999878
vn 0.015046 0 -0.999878
vn 0.015107 0 -0.999878
vn 0.015107 0 -0.999878
vn 1 0 0
vn 1 0 0
vn 1 0 0
vn 1 0 0
vn 1 0 0
vn 1 0 0
vn 1 0 0
vn 1 0 0
vn 1 0 0
vn 1 0 0
vn 1 0 0
vn 1 0 0
vn 1 0 0
vn 1 0 0
vn 1 0 0
vn 1 0 0
vn 1 0 0
vn -0.000366 0 0.999969
vn -0.000427 0 0.999969
vn -0.000366 0 0.999969
vn -0.000427 0 0.999969
vn -0.000488 0 0.999969
vn -0.000488 0 0.999969
vn -0.000519 0 0.999969
vn -0.000519 0 0.999969
vn -0.000519 0 0.999969
vn -0.000519 0 0.999969
vn -0.000519 0 0.999969
vn -0.000519 0 0.999969
vn -0.000488 0 0.999969
vn -0.000488 0 0.999969
vn -0.000488 0 0.999969
vn -0.000488 0 0.999969
vn -0.000488 0 0.999969
vn -1 0 0
vn -1 0 0
vn -0.999969 0 0
vn -1 0 0
vn -1 0 0
vn -1 0 0
vn -1 0 0
vn -1 0 0
vn -1 0 0
vn -1 0 0
vn -1 0 0
vn -1 0 0
vn -1 0 0
vn -1 0 0
vn -1 0 0
vn -1 0 0
vn -1 0 0
vn 0.010834 0 -0.999939
vn 0.010834 0 -0.999939
vn 0.010834 0 -0.999939
vn 0.010865 0 -0.999939
vn 0.010865 0 -0.999939
vn 0.010865 0 -0.999939
vn 0.010865 0 -0.999939
vn 0.010865 0 -0.999939
vn 0.010865 0 -0.999939
vn 0.010865 0 -0.999939
vn 0.010865 0 -0.999939
vn 0.010865 0 -0.999939
vn 0.010865 0 -0.999939
vn 0.010865 0 -0.999939
vn 0.010865 0 -0.999939
vn 0.010865 0 -0.999939
vn 0.010865 0 -0.999939
vn 1 0 0
vn 1 0 0
vn 0.000549 0 0.999969
vn -0.999969 0 0
vn -0.000122 0 -1
vn -0.999969 0 -0.003265
vn -0.000519 0 0.999969
vn 0.999969 0 -0.004578
vn 0.015107 0 -0.999878
vn 1 0 0
vn -0.000488 0 0.999969
vn -1 0 0
vn 0.010834 0 -0.999939
vn 0.999969 0 0
f 25/25/25 24/24/24 23/23/23
f 3/3/3 2/2/2 1/1/1
f 3/3/3 4/4/4 2/2/2
f 3/3/3 5/5/5 4/4/4
f 3/3/3 6/6/6 5/5/5
f 3/3/3 7/7/7 6/6/6
f 3/3/3 8/8/8 7/7/7
f 3/3/3 9/9/9 8/8/8
f 3/3/3 10/10/10 9/9/9
f 3/3/3 11/11/11 10/10/10
f 11/11/11 3/3/3 13/13/13
f 13/13/13 3/3/3 12/12/12
f 12/12/12 18/18/18 13/13/13
f 12/12/12 29/29/29 18/18/18
f 31/31/31 29/29/29 12/12/12
f 31/31/31 33/33/33 29/29/29
f 31/31/31 35/35/35 33/33/33
f 37/37/37 35/35/35 31/31/31
f 37/37/37 39/39/39 35/35/35
f 37/37/37 41/41/41 39/39/39
f 43/43/43 41/41/41 37/37/37
f 43/43/43 45/45/45 41/41/41
f 43/43/43 47/47/47 45/45/45
f 49/49/49 47/47/47 43/43/43
f 49/49/49 51/51/51 47/47/47
f 49/49/49 52/52/52 51/51/51
f 49/49/49 53/53/53 52/52/52
f 49/49/49 54/54/54 53/53/53
f 49/49/49 55/55/55 54/54/54
f 49/49/49 56/56/56 55/55/55
f 49/49/49 57/57/57 56/56/56
f 19/19/19 14/14/14 13/13/13
f 13/13/13 14/14/14 11/11/11
f 14/14/14 15/15/15 11/11/11
f 15/15/15 16/16/16 11/11/11
f 16/16/16 17/17/17 11/11/11
f 28/28/28 17/17/17 16/16/16
f 30/30/30 17/17/17 28/28/28
f 30/30/30 32/32/32 17/17/17
f 34/34/34 32/32/32 30/30/30
f 36/36/36 32/32/32 34/34/34
f 36/36/36 38/38/38 32/32/32
f 40/40/40 38/38/38 36/36/36
f 42/42/42 38/38/38 40/40/40
f 42/42/42 44/44/44 38/38/38
f 46/46/46 44/44/44 42/42/42
f 48/48/48 44/44/44 46/46/46
f 48/48/48 50/50/50 44/44/44
f 49/49/49 58/58/58 57/57/57
f 58/58/58 50/50/50 48/48/48
f 58/58/58 48/48/48 65/65/65
f 58/58/58 65/65/65 64/64/64
f 58/58/58 64/64/64 63/63/63
f 58/58/58 63/63/63 62/62/62
f 58/58/58 62/62/62 61/61/61
f 58/58/58 61/61/61 60/60/60
f 58/58/58 60/60/60 59/59/59
f 67/67/67 50/50/50 58/58/58
f 69/69/69 50/50/50 67/67/67
f 49/49/49 66/66/66 58/58/58
f 71/71/71 50/50/50 69/69/69
f 49/49/49 68/68/68 66/66/66
f 73/73/73 50/50/50 71/71/71
f 49/49/49 70/70/70 68/68/68
f 73/73/73 75/75/75 50/50/50
f 49/49/49 72/72/72 70/70/70
f 77/77/77 75/75/75 73/73/73
f 74/74/74 72/72/72 49/49/49
f 79/79/79 75/75/75 77/77/77
f 74/74/74 76/76/76 72/72/72
f 79/79/79 81/81/81 75/75/75
f 74/74/74 78/78/78 76/76/76
f 83/83/83 81/81/81 79/79/79
f 80/80/80 78/78/78 74/74/74
f 80/80/80 82/82/82 78/78/78
f 89/89/89 81/81/81 83/83/83
f 80/80/80 84/84/84 82/82/82
f 90/90/90 84/84/84 80/80/80
f 91/91/91 84/84/84 90/90/90
f 93/93/93 84/84/84 91/91/91
f 94/94/94 84/84/84 93/93/93
f 95/95/95 84/84/84 94/94/94
f 96/96/96 84/84/84 95/95/95
f 97/97/97 84/84/84 96/96/96
f 88/88/88 92/92/92 89/89/89
f 88/88/88 89/89/89 83/83/83
f 87/87/87 88/88/88 83/83/83
f 85/85/85 87/87/87 83/83/83
f 86/86/86 85/85/85 83/83/83
f 86/86/86 98/98/98 85/85/85
f 86/86/86 99/99/99 98/98/98
f 22/22/22 21/21/21 20/20/20
f 26/26/26 21/21/21 22/22/22
f 27/27/27 26/26/26 22/22/22
f 102/102/102 101/101/101 100/100/100
f 103/103/103 101/101/101 102/102/102
f 104/104/104 101/101/101 103/103/103
f 105/105/105 101/101/101 104/104/104
f 106/106/106 101/101/101 105/105/105
f 107/107/107 101/101/101 106/106/106
f 108/108/108 101/101/101 107/107/107
f 109/109/109 101/101/101 108/108/108
f 110/110/110 101/101/101 109/109/109
f 110/110/110 112/112/112 101/101/101
f 112/112/112 111/111/111 101/101/101
f 113/113/113 112/112/112 110/110/110
f 117/117/117 111/111/111 112/112/112
f 114/114/114 113/113/113 110/110/110
f 133/133/133 111/111/111 117/117/117
f 115/115/115 114/114/114 110/110/110
f 133/133/133 135/135/135 111/111/111
f 116/116/116 115/115/115 110/110/110
f 137/137/137 135/135/135 133/133/133
f 116/116/116 132/132/132 115/115/115
f 139/139/139 135/135/135 137/137/137
f 116/116/116 134/134/134 132/132/132
f 139/139/139 141/141/141 135/135/135
f 136/136/136 134/134/134 116/116/116
f 143/143/143 141/141/141 139/139/139
f 136/136/136 138/138/138 134/134/134
f 145/145/145 141/141/141 143/143/143
f 136/136/136 140/140/140 138/138/138
f 145/145/145 147/147/147 141/141/141
f 142/142/142 140/140/140 136/136/136
f 149/149/149 147/147/147 145/145/145
f 142/142/142 144/144/144 140/140/140
f 151/151/151 147/147/147 149/149/149
f 142/142/142 146/146/146 144/144/144
f 148/148/148 146/146/146 142/142/142
f 148/148/148 150/150/150 146/146/146
f 148/148/148 152/152/152 150/150/150
f 151/151/151 153/153/153 147/147/147
f 154/154/154 152/152/152 148/148/148
f 155/155/155 153/153/153 151/151/151
f 156/156/156 153/153/153 155/155/155
f 157/157/157 153/153/153 156/156/156
f 158/158/158 153/153/153 157/157/157
f 159/159/159 153/153/153 158/158/158
f 160/160/160 153/153/153 159/159/159
f 161/161/161 153/153/153 160/160/160
f 162/162/162 153/153/153 161/161/161
f 171/171/171 153/153/153 162/162/162
f 173/173/173 153/153/153 171/171/171
f 175/175/175 153/153/153 173/173/173
f 177/177/177 153/153/153 175/175/175
f 177/177/177 179/179/179 153/153/153
f 181/181/181 179/179/179 177/177/177
f 183/183/183 179/179/179 181/181/181
f 183/183/183 185/185/185 179/179/179
f 187/187/187 185/185/185 183/183/183
f 189/189/189 185/185/185 187/187/187
f 189/189/189 205/205/205 204/204/204
f 189/189/189 204/204/204 203/203/203
f 189/189/189 203/203/203 202/202/202
f 189/189/189 202/202/202 201/201/201
f 189/189/189 201/201/201 199/199/199
f 189/189/189 199/199/199 198/198/198
f 154/154/154 174/174/174 172/172/172
f 154/154/154 176/176/176 174/174/174
f 154/154/154 178/178/178 176/176/176
f 154/154/154 172/172/172 164/164/164
f 180/180/180 178/178/178 154/154/154
f 154/154/154 164/164/164 152/152/152
f 180/180/180 182/182/182 178/178/178
f 152/152/152 164/164/164 170/170/170
f 180/180/180 184/184/184 182/182/182
f 170/170/170 164/164/164 169/169/169
f 186/186/186 184/184/184 180/180/180
f 169/169/169 164/164/164 168/168/168
f 186/186/186 188/188/188 184/184/184
f 168/168/168 164/164/164 167/167/167
f 167/167/167 164/164/164 166/166/166
f 166/166/166 164/164/164 165/165/165
f 165/165/165 164/164/164 163/163/163
f 186/186/186 194/194/194 188/188/188
f 200/200/200 193/193/193 194/194/194
f 194/194/194 193/193/193 188/188/188
f 193/193/193 192/192/192 188/188/188
f 192/192/192 191/191/191 188/188/188
f 191/191/191 190/190/190 188/188/188
f 206/206/206 190/190/190 191/191/191
f 207/207/207 190/190/190 206/206/206
f 120/120/120 119/119/119 118/118/118
f 123/123/123 122/122/122 121/121/121
f 128/128/128 127/127/127 122/122/122
f 126/126/126 125/125/125 124/124/124
f 131/131/131 130/130/130 129/129/129
f 197/197/197 196/196/196 195/195/195
f 210/210/210 209/209/209 208/208/208
f 208/208/208 209/209/209 211/211/211
f 410/410/410 210/210/210 208/208/208
f 209/209/209 212/212/212 211/211/211
f 411/411/411 210/210/210 410/410/410
f 423/423/423 411/411/411 410/410/410
f 211/211/211 212/212/212 213/213/213
f 212/212/212 214/214/214 213/213/213
f 213/213/213 214/214/214 215/215/215
f 214/214/214 216/216/216 215/215/215
f 215/215/215 216/216/216 217/217/217
f 216/216/216 218/218/218 217/217/217
f 217/217/217 218/218/218 219/219/219
f 218/218/218 220/220/220 219/219/219
f 219/219/219 220/220/220 221/221/221
f 220/220/220 222/222/222 221/221/221
f 225/225/225 224/224/224 223/223/223
f 412/412/412 225/225/225 223/223/223
f 223/223/223 224/224/224 226/226/226
f 224/224/224 227/227/227 226/226/226
f 226/226/226 227/227/227 228/228/228
f 227/227/227 229/229/229 228/228/228
f 228/228/228 229/229/229 230/230/230
f 229/229/229 231/231/231 230/230/230
f 230/230/230 231/231/231 232/232/232
f 231/231/231 233/233/233 232/232/232
f 232/232/232 233/233/233 234/234/234
f 233/233/233 235/235/235 234/234/234
f 234/234/234 235/235/235 236/236/236
f 235/235/235 237/237/237 236/236/236
f 236/236/236 237/237/237 238/238/238
f 237/237/237 239/239/239 238/238/238
f 242/242/242 241/241/241 240/240/240
f 241/241/241 243/243/243 240/240/240
f 241/241/241 244/244/244 243/243/243
f 244/244/244 245/245/245 243/243/243
f 244/244/244 246/246/246 245/245/245
f 246/246/246 247/247/247 245/245/245
f 246/246/246 248/248/248 247/247/247
f 248/248/248 249/249/249 247/247/247
f 248/248/248 250/250/250 249/249/249
f 250/250/250 251/251/251 249/249/249
f 250/250/250 252/252/252 251/251/251
f 252/252/252 253/253/253 251/251/251
f 252/252/252 254/254/254 253/253/253
f 254/254/254 255/255/255 253/253/253
f 254/254/254 256/256/256 255/255/255
f 256/256/256 413/413/413 255/255/255
f 259/259/259 258/258/258 257/257/257
f 258/258/258 414/414/414 257/257/257
f 414/414/414 258/258/258 260/260/260
f 258/258/258 261/261/261 260/260/260
f 260/260/260 261/261/261 262/262/262
f 261/261/261 263/263/263 262/262/262
f 262/262/262 263/263/263 264/264/264
f 263/263/263 265/265/265 264/264/264
f 264/264/264 265/265/265 266/266/266
f 265/265/265 267/267/267 266/266/266
f 266/266/266 267/267/267 268/268/268
f 267/267/267 269/269/269 268/268/268
f 268/268/268 269/269/269 270/270/270
f 269/269/269 271/271/271 270/270/270
f 270/270/270 271/271/271 272/272/272
f 271/271/271 273/273/273 272/272/272
f 276/276/276 275/275/275 274/274/274
f 275/275/275 277/277/277 274/274/274
f 275/275/275 278/278/278 277/277/277
f 278/278/278 279/279/279 277/277/277
f 278/278/278 280/280/280 279/279/279
f 280/280/280 281/281/281 279/279/279
f 280/280/280 282/282/282 281/281/281
f 282/282/282 283/283/283 281/281/281
f 282/282/282 284/284/284 283/283/283
f 284/284/284 285/285/285 283/283/283
f 284/284/284 286/286/286 285/285/285
f 286/286/286 287/287/287 285/285/285
f 286/286/286 288/288/288 287/287/287
f 288/288/288 289/289/289 287/287/287
f 288/288/288 290/290/290 289/289/289
f 290/290/290 415/415/415 289/289/289
f 293/293/293 292/292/292 291/291/291
f 292/292/292 294/294/294 291/291/291
f 292/292/292 295/295/295 294/294/294
f 295/295/295 296/296/296 294/294/294
f 295/295/295 297/297/297 296/296/296
f 297/297/297 298/298/298 296/296/296
f 297/297/297 299/299/299 298/298/298
f 299/299/299 300/300/300 298/298/298
f 299/299/299 301/301/301 300/300/300
f 301/301/301 302/302/302 300/300/300
f 301/301/301 303/303/303 302/302/302
f 303/303/303 304/304/304 302/302/302
f 303/303/303 305/305/305 304/304/304
f 305/305/305 306/306/306 304/304/304
f 305/305/305 307/307/307 306/306/306
f 307/307/307 416/416/416 306/306/306
f 310/310/310 309/309/309 308/308/308
f 417/417/417 310/310/310 308/308/308
f 308/308/308 309/309/309 311/311/311
f 309/309/309 312/312/312 311/311/311
f 311/311/311 312/312/312 313/313/313
f 312/312/312 314/314/314 313/313/313
f 313/313/313 314/314/314 315/315/315
f 314/314/314 316/316/316 315/315/315
f 315/315/315 316/316/316 317/317/317
f 316/316/316 318/318/318 317/317/317
f 317/317/317 318/318/318 319/319/319
f 318/318/318 320/320/320 319/319/319
f 319/319/319 320/320/320 321/321/321
f 320/320/320 322/322/322 321/321/321
f 321/321/321 322/322/322 323/323/323
f 322/322/322 324/324/324 323/323/323
f 327/327/327 326/326/326 325/325/325
f 418/418/418 327/327/327 325/325/325
f 325/325/325 326/326/326 328/328/328
f 326/326/326 329/329/329 328/328/328
f 328/328/328 329/329/329 330/330/330
f 329/329/329 331/331/331 330/330/330
f 330/330/330 331/331/331 332/332/332
f 331/331/331 333/333/333 332/332/332
f 332/332/332 333/333/333 334/334/334
f 333/333/333 335/335/335 334/334/334
f 334/334/334 335/335/335 336/336/336
f 335/335/335 337/337/337 336/336/336
f 336/336/336 337/337/337 338/338/338
f 337/337/337 339/339/339 338/338/338
f 338/338/338 339/339/339 340/340/340
f 339/339/339 341/341/341 340/340/340
f 344/344/344 343/343/343 342/342/342
f 419/419/419 344/344/344 342/342/342
f 342/342/342 343/343/343 345/345/345
f 343/343/343 346/346/346 345/345/345
f 345/345/345 346/346/346 347/347/347
f 346/346/346 348/348/348 347/347/347
f 347/347/347 348/348/348 349/349/349
f 348/348/348 350/350/350 349/349/349
f 349/349/349 350/350/350 351/351/351
f 350/350/350 352/352/352 351/351/351
f 351/351/351 352/352/352 353/353/353
f 352/352/352 354/354/354 353/353/353
f 353/353/353 354/354/354 355/355/355
f 354/354/354 356/356/356 355/355/355
f 355/355/355 356/356/356 357/357/357
f 356/356/356 358/358/358 357/357/357
f 361/361/361 360/360/360 359/359/359
f 360/360/360 362/362/362 359/359/359
f 360/360/360 363/363/363 362/362/362
f 363/363/363 364/364/364 362/362/362
f 363/363/363 365/365/365 364/364/364
f 365/365/365 366/366/366 364/364/364
f 365/365/365 367/367/367 366/366/366
f 367/367/367 368/368/368 366/366/366
f 367/367/367 369/369/369 368/368/368
f 369/369/369 370/370/370 368/368/368
f 369/369/369 371/371/371 370/370/370
f 371/371/371 372/372/372 370/370/370
f 371/371/371 373/373/373 372/372/372
f 373/373/373 374/374/374 372/372/372
f 373/373/373 375/375/375 374/374/374
f 375/375/375 420/420/420 374/374/374
f 378/378/378 377/377/377 376/376/376
f 377/377/377 379/379/379 376/376/376
f 377/377/377 380/380/380 379/379/379
f 380/380/380 381/381/381 379/379/379
f 380/380/380 382/382/382 381/381/381
f 382/382/382 383/383/383 381/381/381
f 382/382/382 384/384/384 383/383/383
f 384/384/384 385/385/385 383/383/383
f 384/384/384 386/386/386 385/385/385
f 386/386/386 387/387/387 385/385/385
f 386/386/386 388/388/388 387/387/387
f 388/388/388 389/389/389 387/387/387
f 388/388/388 390/390/390 389/389/389
f 390/390/390 391/391/391 389/389/389
f 390/390/390 392/392/392 391/391/391
f 392/392/392 421/421/421 391/391/391
f 395/395/395 394/394/394 393/393/393
f 422/422/422 395/395/395 393/393/393
f 393/393/393 394/394/394 396/396/396
f 394/394/394 397/397/397 396/396/396
f 396/396/396 397/397/397 398/398/398
f 397/397/397 399/399/399 398/398/398
f 398/398/398 399/399/399 400/400/400
f 399/399/399 401/401/401 400/400/400
f 400/400/400 401/401/401 402/402/402
f 401/401/401 403/403/403 402/402/402
f 402/402/402 403/403/403 404/404/404
f 403/403/403 405/405/405 404/404/404
f 404/404/404 405/405/405 406/406/406
f 405/405/405 407/407/407 406/406/406
f 406/406/406 407/407/407 408/408/408
f 407/407/407 409/409/409 408/408/408
