# VPXTOOL table OBJ file
# VPXTOOL OBJ file
# numVerts: 250 numFaces: 198
o PinCab_Backbox
v 0.163422 1.715906 0.282545
v -1.12709 1.715906 0.282551
v -1.127093 1.74359 -0.183226
v 0.163422 1.743572 -0.183201
v -1.127912 0.403148 -0.096331
v -0.804708 0.403148 -0.096331
v -0.158298 0.403148 -0.096331
v 0.164906 0.403148 -0.096331
v 0.164906 0.767045 -0.072517
v -1.127912 0.767045 -0.072517
v -1.130298 0.777245 -0.056312
v 0.167388 0.777245 -0.056312
v 0.167388 0.778463 -0.056173
v 0.167388 0.776948 -0.055796
v -1.130298 0.778463 -0.056173
v -1.130298 0.776948 -0.055796
v 0.167388 0.778645 -0.055602
v -1.130298 0.776321 -0.045102
v -1.130298 0.778645 -0.055602
v 0.167388 0.776321 -0.045102
v 0.167388 0.778017 -0.044899
v -1.130298 0.775914 -0.044129
v -1.130298 0.778017 -0.044899
v 0.167388 0.775914 -0.044129
v -1.130298 0.777234 -0.042691
v 0.167388 0.775217 -0.043862
v 0.167388 0.777233 -0.042691
v -1.130298 0.775217 -0.043862
v -1.130298 0.775145 -0.041672
v -1.130298 0.752922 -0.045407
v 0.167388 0.775145 -0.041672
v 0.167388 0.752922 -0.045407
v 0.167388 0.752849 -0.043217
v -1.130298 0.751067 -0.04502
v -1.130298 0.75285 -0.043217
v 0.167388 0.751066 -0.045019
v 0.167388 0.751718 -0.042982
v -1.130298 0.749567 -0.043708
v -1.130298 0.751719 -0.042982
v 0.167388 0.749567 -0.043707
v 0.167388 0.750806 -0.042184
v 0.167388 0.748619 -0.0417
v -1.130298 0.750806 -0.042184
v -1.130298 0.748619 -0.041701
v 0.167388 0.75023 -0.040962
v -1.130298 0.748391 -0.04009
v -1.130298 0.75023 -0.040962
v 0.167388 0.748391 -0.04009
v 0.167388 0.750091 -0.03998
v -1.130298 0.748135 -0.030067
v 0.167388 0.748135 -0.030067
v -1.130298 0.750091 -0.03998
v 0.167388 0.749836 -0.029974
v -1.130298 0.749836 -0.029974
v 0.163421 0.391953 0.203539
v -1.127092 0.39197 0.203545
v -1.12709 1.680094 0.280414
v 0.163421 0.356276 0.201409
v -1.127092 0.356276 0.201415
v -1.162856 0.356276 0.201415
v -1.127092 0.39197 0.203545
v -1.162856 0.391969 0.203568
v 0.163422 1.680078 0.280407
v 0.199186 0.391953 0.203538
v 0.199187 1.680078 0.280407
v 0.163422 1.715906 0.282545
v 0.199187 1.715779 0.282538
v -1.12709 1.715906 0.282551
v -1.162856 1.715906 0.282551
v -1.162856 1.680095 0.280414
v -1.127092 0.39197 0.203545
v -1.162856 0.391969 0.203568
v -1.12709 1.680094 0.280414
v -0.158298 0.767045 -0.072517
v 0.164906 0.767045 -0.072517
v 0.164906 0.764725 -0.037356
v -0.158298 0.764725 -0.037356
v 0.164907 0.400841 -0.061361
v -0.804708 0.764725 -0.037356
v 0.164906 0.403148 -0.096331
v -0.804708 0.767045 -0.072517
v -0.158298 0.403148 -0.096331
v -1.127913 0.764725 -0.037356
v -0.158298 0.400841 -0.061361
v -1.127912 0.767045 -0.072517
v -0.804708 0.403148 -0.096331
v -1.127912 0.400841 -0.061361
v -0.804708 0.400841 -0.061361
v -1.127912 0.403148 -0.096331
v 0.158296 1.70282 0.014983
v 0.158296 0.743718 -0.042116
v 0.157831 0.743721 -0.042217
v 0.158708 1.702813 0.015246
v 0.157831 1.702822 0.014882
v 0.158708 0.743712 -0.041853
v 0.143318 1.702803 0.015646
v 0.1593 1.702791 0.016098
v 0.143318 0.743702 -0.041454
v 0.1593 0.74369 -0.041001
v 0.142854 0.743789 -0.044873
v 0.159463 1.702772 0.016863
v 0.142853 1.70289 0.012226
v 0.159463 0.74367 -0.040236
v 0.157884 0.743809 -0.045671
v 0.159778 1.702427 0.0304
v 0.159778 0.743325 -0.026699
v 0.157884 1.70291 0.011429
v 0.15931 1.702903 0.011711
v 0.15931 0.743802 -0.045388
v 0.161081 1.702872 0.012938
v 0.161081 0.74377 -0.044161
v 0.162274 1.702825 0.014761
v 0.162274 0.743724 -0.042338
v 0.162736 1.702774 0.016765
v 0.162736 0.743673 -0.040334
v 0.163134 1.702338 0.033874
v 0.163134 0.743237 -0.023226
v -1.12704 1.699253 0.033865
v -1.12704 0.74015 -0.023226
v -1.126642 0.740586 -0.040334
v -1.126642 1.699689 0.016757
v -1.12618 0.740637 -0.042338
v -1.126181 1.69974 0.014753
v -1.124988 0.740683 -0.044161
v -1.124988 1.699787 0.01293
v -1.123217 0.740714 -0.045388
v -1.123217 1.699818 0.011703
v -1.121791 0.740722 -0.045671
v -1.121791 1.699825 0.01142
v -1.10676 1.699805 0.012218
v -1.10676 0.740701 -0.044873
v -1.107224 1.699718 0.015637
v -1.107224 0.740614 -0.041454
v -1.11165 0.740628 -0.041972
v -1.11165 1.699731 0.015119
v -1.121737 0.740634 -0.042217
v -1.121738 1.699737 0.014874
v -1.122202 1.699734 0.014975
v -1.122202 0.740631 -0.042116
v -1.122615 1.699728 0.015238
v -1.122615 0.740624 -0.041853
v -1.123206 1.699706 0.01609
v -1.123206 0.740603 -0.041001
v -1.123369 1.699687 0.016855
v -1.123369 0.740583 -0.040236
v -1.123684 1.699342 0.030392
v -1.123684 0.740238 -0.026699
v 0.199193 1.707625 -0.181217
v 0.163422 1.707616 -0.181059
v 0.163421 0.410288 -0.103709
v 0.199194 0.410288 -0.103709
v 0.163422 1.707616 -0.181059
v 0.163422 1.743572 -0.183201
v -1.127093 1.74359 -0.183226
v -1.12709 1.707634 -0.181084
v -1.162856 1.743701 -0.183232
v -1.162856 1.707634 -0.181084
v -1.127092 0.410305 -0.103708
v -1.162856 0.410305 -0.103708
v -1.129846 1.69303 -0.149276
v -1.129846 1.689313 -0.14688
v 0.164393 1.689313 -0.146881
v -1.129846 1.686643 -0.143317
v 0.164393 1.69303 -0.149276
v 0.164393 1.686644 -0.143318
v -1.129846 1.697448 -0.150236
v -1.129846 1.663525 -0.064044
v 0.164393 1.697448 -0.150236
v 0.164393 1.663525 -0.064044
v 0.164393 1.703854 -0.150445
v -1.129846 1.703854 -0.150445
v -1.129846 1.662299 -0.056195
v 0.164393 1.662299 -0.056196
v 0.164393 1.668158 -0.056196
v -1.129846 1.668158 -0.056195
v -1.129846 1.663601 0.009554
v 0.164393 1.663601 0.009554
v -1.127092 0.374363 -0.101665
v -1.127092 0.356276 0.201415
v 0.163421 0.356276 0.201409
v 0.163421 0.374363 -0.101642
v 0.163421 0.391953 0.203539
v 0.199186 0.391953 0.203538
v 0.199193 0.35625 0.201437
v 0.163421 0.356276 0.201409
v 0.199193 0.35625 0.201437
v 0.199186 0.374363 -0.101642
v 0.163421 0.374363 -0.101642
v 0.163421 0.356276 0.201409
v -1.162856 1.680095 0.280414
v -1.162856 1.707634 -0.181084
v -1.162856 1.743701 -0.183232
v -1.162856 1.715906 0.282551
v -1.162856 0.391969 0.203568
v -1.162856 0.410305 -0.103708
v -1.162856 0.356276 0.201415
v -1.162856 0.374397 -0.101667
v 0.163422 1.743572 -0.183201
v 0.199187 1.743572 -0.183201
v 0.199187 1.715779 0.282538
v 0.163422 1.715906 0.282545
v 0.199187 1.743572 -0.183201
v 0.163422 1.743572 -0.183201
v 0.163422 1.707616 -0.181059
v 0.199193 1.707625 -0.181217
v 0.163421 0.374363 -0.101642
v 0.163421 0.410288 -0.103709
v -1.127092 0.410305 -0.103708
v -1.127092 0.374363 -0.101665
v 0.163422 1.682832 0.234261
v 0.163422 1.707616 -0.181059
v -1.12709 1.707634 -0.181084
v -1.12709 1.682848 0.234264
v 0.199186 0.391953 0.203538
v 0.199187 1.680078 0.280407
v 0.199193 1.707625 -0.181217
v 0.199194 0.410288 -0.103709
v 0.199193 0.35625 0.201437
v 0.199186 0.374363 -0.101642
v 0.199187 1.743572 -0.183201
v 0.199193 1.707625 -0.181217
v 0.199187 1.715779 0.282538
v -1.162856 0.410305 -0.103708
v -1.162856 0.374397 -0.101667
v -1.127092 0.374363 -0.101665
v -1.127092 0.410305 -0.103708
v -1.162856 0.374397 -0.101667
v -1.162856 0.356276 0.201415
v -1.127092 0.356276 0.201415
v -1.127092 0.374363 -0.101665
v -1.12709 1.715906 0.282551
v -1.162856 1.715906 0.282551
v -1.162856 1.743701 -0.183232
v -1.127093 1.74359 -0.183226
v 0.199194 0.410288 -0.103709
v 0.163421 0.410288 -0.103709
v 0.163421 0.374363 -0.101642
v 0.199186 0.374363 -0.101642
v -1.12709 1.707634 -0.181084
v -1.127092 0.410305 -0.103708
v -1.127092 0.39197 0.203545
v -1.12709 1.682848 0.234264
v 0.163422 1.707616 -0.181059
v 0.163422 1.682832 0.234261
v 0.163421 0.391953 0.203539
v 0.163421 0.410288 -0.103709
v 0.163421 0.410288 -0.103709
v 0.163421 0.391953 0.203539
v -1.127092 0.39197 0.203545
v -1.127092 0.410305 -0.103708
vt 0.580773 0.07602501
vt 0.580772 0.246593
vt 0.683157 0.24659401
vt 0.683151 0.07602501
vt 0.391336 0.560192
vt 0.391336 0.66645402
vt 0.391336 0.87897998
vt 0.391336 0.985243022
vt 0.631131 0.985243022
vt 0.631131 0.560192
vt 0.765039 0.41227996
vt 0.258756 0.41227996
vt 0.25861 0.415442
vt 0.258906 0.409118
vt 0.764894 0.415442
vt 0.76519 0.409118
vt 0.25846 0.41860402
vt 0.765271 0.40595496
vt 0.764743 0.41860402
vt 0.258988 0.40595496
vt 0.258379 0.42176604
vt 0.765419 0.402794
vt 0.764662 0.42176604
vt 0.259135 0.402794
vt 0.764738 0.42492902
vt 0.259283 0.39963198
vt 0.258455 0.42492902
vt 0.765568 0.39963198
vt 0.764814 0.428092
vt 0.76557 0.39646804
vt 0.258532 0.428092
vt 0.259285 0.39646804
vt 0.25853 0.43125498
vt 0.765711 0.39330602
vt 0.764812 0.43125498
vt 0.259426 0.39330697
vt 0.258607 0.43441796
vt 0.765852 0.390144
vt 0.764889 0.43441796
vt 0.259566 0.390145
vt 0.258462 0.43758
vt 0.25949 0.38698196
vt 0.764743 0.43758
vt 0.765775 0.38698196
vt 0.258316 0.44074202
vt 0.765918 0.38382
vt 0.764598 0.44074202
vt 0.259633 0.38382
vt 0.258169 0.44390297
vt 0.766005 0.38065696
vt 0.259719 0.38065696
vt 0.764451 0.44390297
vt 0.258083 0.447066
vt 0.764365 0.447066
vt 0.397173 0.24659699
vt 0.471362 0.24659503
vt 0.572924 0.076039016
vt 0.289751 0.25132096
vt 0.572924 0.25132096
vt 0.580772 0.25132096
vt 0.471362 0.24659503
vt 0.580772 0.24659503
vt 0.289751 0.07604098
vt 0.281903 0.24659699
vt 0.281903 0.07604098
vt 0.289751 0.071298
vt 0.281903 0.07131398
vt 0.572924 0.071298
vt 0.580772 0.071298
vt 0.580772 0.076039016
vt 0.471362 0.24659503
vt 0.580772 0.24659503
vt 0.572924 0.076039016
vt 0.631131 0.87897998
vt 0.631131 0.985243022
vt 0.649187 0.995009005
vt 0.647398 0.87885302
vt 0.373274 0.995660007
vt 0.644874 0.66708398
vt 0.391336 0.985243022
vt 0.631131 0.66645402
vt 0.391336 0.87897998
vt 0.645505 0.55303
vt 0.374836 0.878823996
vt 0.631131 0.560192
vt 0.391336 0.66645402
vt 0.375134 0.553218
vt 0.374693 0.666192
vt 0.391336 0.560192
vt 0.283406 0.35586703
vt 0.726568 0.35586703
vt 0.726637 0.352
vt 0.283334 0.359734
vt 0.283475 0.352
vt 0.726496 0.359734
vt 0.283446 0.348132
vt 0.283253 0.36360097
vt 0.726609 0.348132
vt 0.726416 0.36360097
vt 0.726727 0.344266
vt 0.283174 0.367468
vt 0.283564 0.344266
vt 0.726336 0.367468
vt 0.726755 0.340398
vt 0.282938 0.37133396
vt 0.726101 0.37133396
vt 0.283592 0.340398
vt 0.283541 0.33653104
vt 0.726704 0.33653104
vt 0.283392 0.332664
vt 0.726554 0.332664
vt 0.283172 0.32879698
vt 0.726335 0.32879698
vt 0.282916 0.32493
vt 0.726078 0.32493
vt 0.282648 0.320984
vt 0.72581 0.32098496
vt 0.731095 0.26188803
vt 0.283671 0.26188803
vt 0.2834 0.265871
vt 0.730824 0.265872
vt 0.283302 0.26977503
vt 0.730726 0.269776
vt 0.283207 0.27367902
vt 0.730631 0.27368104
vt 0.28312 0.277583
vt 0.730544 0.27758503
vt 0.283048 0.281488
vt 0.730472 0.281489
vt 0.730498 0.285394
vt 0.283074 0.285392
vt 0.730761 0.28929698
vt 0.283337 0.28929603
vt 0.283265 0.29320097
vt 0.730689 0.29320204
vt 0.283205 0.297105
vt 0.730629 0.29710603
vt 0.730687 0.30101
vt 0.283261 0.301009
vt 0.730827 0.304915
vt 0.283403 0.30491304
vt 0.731044 0.308819
vt 0.283621 0.30881798
vt 0.731307 0.31272304
vt 0.283881 0.31272197
vt 0.731573 0.316626
vt 0.284146 0.316625
vt 0.040283 0.47785103
vt 0.064574 0.477845
vt 0.06461 0.036572993
vt 0.040318 0.03657198
vt 0.064574 0.477845
vt 0.064573 0.490075
vt 0.940927 0.490099
vt 0.940926 0.47786903
vt 0.965212 0.49013698
vt 0.965213 0.47787
vt 0.940962 0.036596
vt 0.965249 0.036597013
vt 0.775634 0.540321
vt 0.775535 0.53641403
vt 0.103885 0.53641403
vt 0.7757 0.532507
vt 0.103984 0.540321
vt 0.104049 0.532507
vt 0.775732 0.54422802
vt 0.775599 0.51471102
vt 0.104082 0.54422802
vt 0.103948 0.51471102
vt 0.103935 0.54813498
vt 0.775585 0.54813498
vt 0.775509 0.51080298
vt 0.103858 0.51080298
vt 0.10401 0.50689602
vt 0.77566 0.50689602
vt 0.77566 0.49549496
vt 0.10401 0.49549603
vt 0.68316 0.24659503
vt 0.749783 0.24659401
vt 0.749777 0.07602602
vt 0.683161 0.07602602
vt 0.397173 0.24659699
vt 0.281903 0.24659699
vt 0.281901 0.251324
vt 0.289751 0.25132096
vt 0.749783 0.071298
vt 0.683161 0.07129902
vt 0.683161 0.07602602
vt 0.749777 0.07602602
vt 0.98918 0.984003007
vt 0.692642 0.984041989
vt 0.689895 0.99554801
vt 0.989187 0.9955090284
vt 0.988978 0.570157
vt 0.791535 0.57018298
vt 0.988957 0.55869
vt 0.794208 0.558726
vt 0.683151 0.07602501
vt 0.683151 0.071298
vt 0.580773 0.071298
vt 0.580773 0.07602501
vt 0.040286 0.49007404
vt 0.064573 0.490075
vt 0.064574 0.477845
vt 0.040283 0.47785103
vt 0.064611 0.024353981
vt 0.06461 0.036572993
vt 0.940962 0.036596
vt 0.940963 0.024371982
vt 0.227021 0.45691502
vt 0.064574 0.477845
vt 0.940926 0.47786903
vt 0.782906 0.45691502
vt 0.015032 0.572573
vt 0.014815 0.985019028
vt 0.310431 0.98505801
vt 0.211788 0.572599
vt 0.015019 0.561141
vt 0.209107 0.561175
vt 0.31306 0.9964900017
vt 0.310431 0.98505801
vt 0.014809 0.996450007
vt 0.965249 0.036597013
vt 0.96525 0.024384975
vt 0.940963 0.024371982
vt 0.940962 0.036596
vt 0.68316 0.25132203
vt 0.749783 0.25132096
vt 0.749783 0.24659401
vt 0.68316 0.24659503
vt 0.580772 0.246593
vt 0.580772 0.25132
vt 0.68316 0.25132
vt 0.683157 0.24659401
vt 0.040318 0.03657198
vt 0.06461 0.036572993
vt 0.064611 0.024353981
vt 0.040324 0.024353981
vt 0.940926 0.47786903
vt 0.940962 0.036596
vt 0.782806 0.059047997
vt 0.782906 0.45691502
vt 0.064574 0.477845
vt 0.227021 0.45691502
vt 0.232052 0.05920601
vt 0.06461 0.036572993
vt 0.06461 0.036572993
vt 0.232052 0.05920601
vt 0.782806 0.059047997
vt 0.940962 0.036596
vn 0 0.9982 0.0593
vn 0 0.9982 0.0593
vn 0 0.9982 0.0593
vn 0 0.9982 0.0593
vn 0 0.0653 -0.9979
vn 0 -0.0653 0.9979
vn 0 0.0653 -0.9979
vn 0 0.0653 -0.9979
vn 0 0.0653 -0.9979
vn 0 0.0653 -0.9979
vn 0 -0.4505 -0.8928
vn 0 -0.4499 -0.8931
vn 0 0.635 -0.7725
vn 0 -0.9581 -0.2863
vn 0 0.6351 -0.7724
vn 0 -0.9581 -0.2864
vn 0 0.9922 -0.1246
vn 0 -0.9743 -0.2254
vn 0 0.9922 -0.1247
vn 0 -0.9743 -0.2255
vn 0 0.9801 0.1986
vn 0 -0.6963 -0.7178
vn 0 0.9801 0.1984
vn 0 -0.6963 -0.7178
vn 0 0.7459 0.666
vn 0 -0.1488 -0.9889
vn 0 0.7459 0.6661
vn 0 -0.1482 -0.989
vn 0 0.1911 0.9816
vn 0 -0.0682 -0.9977
vn 0 0.1912 0.9815
vn 0 -0.0684 -0.9977
vn 0 0.0678 0.9977
vn 0 -0.4459 -0.8951
vn 0 0.0678 0.9977
vn 0 -0.4462 -0.8949
vn 0 0.4456 0.8952
vn 0 -0.7984 -0.6022
vn 0 0.4454 0.8954
vn 0 -0.7982 -0.6024
vn 0 0.7983 0.6022
vn -0 -0.9578 -0.2874
vn 0 0.7982 0.6024
vn 0 -0.958 -0.2869
vn 0 0.9581 0.2865
vn 0 -0.9966 -0.083
vn 0 0.9581 0.2864
vn 0 -0.9965 -0.083
vn 0 0.9966 0.0829
vn 0 -0.9997 -0.0255
vn 0 -0.9997 -0.0255
vn 0 0.9966 0.0829
vn 0 0.9997 0.0255
vn 0 0.9997 0.0255
vn 0 -0.0596 0.9982
vn 0 -0.0596 0.9982
vn 0 -0.0596 0.9982
vn 0 -0.0596 0.9982
vn 0 -0.0596 0.9982
vn 0.0003 -0.0599 0.9982
vn 0.0003 -0.0599 0.9982
vn 0.0004 -0.06 0.9982
vn 0 -0.0596 0.9982
vn 0 -0.0596 0.9982
vn 0 -0.0596 0.9982
vn 0 -0.0596 0.9982
vn 0 -0.0596 0.9982
vn 0 -0.0596 0.9982
vn 0 -0.0596 0.9982
vn 0 -0.0596 0.9982
vn 0.0003 -0.0596 0.9982
vn 0.0003 -0.0596 0.9982
vn 0.0003 -0.0596 0.9982
vn 0 0.752 -0.6591
vn 0.5773 0.614 -0.5382
vn 0.7071 0.7056 0.0466
vn 0 0.9978 0.0658
vn 0.7071 -0.7056 -0.0466
vn 0 0.9978 0.0658
vn 0.5776 -0.538 -0.6139
vn 0 0.752 -0.6591
vn -0 -0.6592 -0.7519
vn -0.7071 0.7056 0.0465
vn 0 -0.9978 -0.0658
vn -0.5773 0.614 -0.5382
vn -0 -0.6592 -0.7519
vn -0.7071 -0.7056 -0.0465
vn 0 -0.9978 -0.0658
vn -0.5774 -0.5382 -0.6139
vn -0.3815 -0.0549 0.9227
vn -0.3792 -0.055 0.9237
vn -0.0801 -0.0592 0.995
vn -0.6951 -0.0427 0.7176
vn -0.0803 -0.0592 0.995
vn -0.6909 -0.043 0.7217
vn -0.6304 -0.0461 0.7749
vn -0.9192 -0.0234 0.3931
vn -0.6449 -0.0454 0.7629
vn -0.9161 -0.0238 0.4002
vn -0.7624 0.0385 -0.646
vn -0.9934 -0.0068 0.1142
vn -0.7781 0.0373 -0.627
vn -0.993 -0.007 0.1181
vn 0.0712 0.0593 -0.9957
vn -0.9997 -0.0014 0.0232
vn -0.9997 -0.0014 0.0232
vn 0.0716 0.0593 -0.9957
vn 0.3915 0.0547 -0.9186
vn 0.3886 0.0548 -0.9198
vn 0.7184 0.0413 -0.6944
vn 0.7142 0.0416 -0.6987
vn 0.9212 0.0231 -0.3884
vn 0.9185 0.0235 -0.3948
vn 0.9925 0.0073 -0.1222
vn 0.9919 0.0075 -0.1266
vn 0.9997 0.0014 -0.0232
vn 0.9997 0.0014 -0.0232
vn -0.9997 0.0014 -0.0232
vn -0.9997 0.0014 -0.0232
vn -0.9919 0.0075 -0.1266
vn -0.9925 0.0073 -0.122
vn -0.9185 0.0235 -0.3946
vn -0.9213 0.0231 -0.3882
vn -0.7143 0.0416 -0.6986
vn -0.7184 0.0413 -0.6944
vn -0.3886 0.0547 -0.9198
vn -0.3918 0.0547 -0.9184
vn -0.0712 0.0593 -0.9957
vn -0.0716 0.0593 -0.9957
vn 0.778 0.0373 -0.6271
vn 0.7624 0.0385 -0.646
vn 0.6054 -0.0473 0.7945
vn 0.6202 -0.0466 0.7831
vn -0.0703 -0.0593 0.9958
vn -0.0704 -0.0593 0.9958
vn 0.0938 -0.0591 0.9938
vn 0.0943 -0.0591 0.9938
vn 0.3813 -0.0549 0.9228
vn 0.3789 -0.055 0.9238
vn 0.6951 -0.0427 0.7176
vn 0.6908 -0.043 0.7218
vn 0.9194 -0.0234 0.3927
vn 0.9162 -0.0238 0.3999
vn 0.9934 -0.0068 0.1141
vn 0.993 -0.007 0.1181
vn 0.9997 -0.0014 0.0232
vn 0.9997 -0.0014 0.0232
vn -0.0022 -0.0596 -0.9982
vn -0.0021 -0.0596 -0.9982
vn -0.0022 -0.0596 -0.9982
vn -0.0022 -0.0596 -0.9982
vn 0 -0.0595 -0.9982
vn 0 -0.0595 -0.9982
vn 0 -0.0595 -0.9982
vn 0 -0.0595 -0.9982
vn 0 -0.0595 -0.9982
vn 0 -0.0595 -0.9982
vn 0 -0.0595 -0.9982
vn 0 -0.0595 -0.9982
vn -0 -0.3832 -0.9237
vn -0 -0.6817 -0.7316
vn 0 -0.6818 -0.7316
vn 0 -0.8945 -0.447
vn 0 -0.3831 -0.9237
vn 0 -0.8946 -0.4469
vn 0 -0.123 -0.9924
vn 0 -0.976 -0.2176
vn 0 -0.123 -0.9924
vn 0 -0.976 -0.2176
vn 0 -0.0326 -0.9995
vn 0 -0.0326 -0.9995
vn 0 -0.7597 0.6503
vn 0 -0.7597 0.6502
vn 0 -0.7311 0.6822
vn 0 -0.7311 0.6822
vn -0 -0.9976 -0.0691
vn -0 -0.9976 -0.0691
vn 0 -0.9982 -0.0596
vn 0 -0.9982 -0.0596
vn 0 -0.9982 -0.0596
vn 0 -0.9982 -0.0596
vn -0.0004 -0.0592 0.9982
vn 0 -0.0587 0.9983
vn -0.0004 -0.0592 0.9982
vn -0.0008 -0.0596 0.9982
vn -0.0003 -0.9982 -0.0596
vn -0.0003 -0.9982 -0.0596
vn -0.0001 -0.9982 -0.0597
vn -0.0003 -0.9982 -0.0596
vn -1 0 0
vn -1 0 0
vn -1 0 0
vn -1 0 0
vn -1 0 0
vn -1 0 0
vn -1 0 0
vn -1 0 0
vn 0.0017 0.9982 0.0594
vn 0.0017 0.9982 0.0594
vn 0.0018 0.9982 0.0594
vn 0.0018 0.9982 0.0594
vn -0.0022 -0.0573 -0.9984
vn -0.0022 -0.0573 -0.9984
vn -0.0022 -0.0573 -0.9984
vn -0.0022 -0.0573 -0.9984
vn 0 -0.0571 -0.9984
vn 0 -0.057 -0.9984
vn 0 -0.0571 -0.9984
vn 0 -0.0571 -0.9984
vn 0 -0.9982 -0.0596
vn 0 -0.9982 -0.0596
vn 0 -0.9982 -0.0596
vn 0 -0.9982 -0.0596
vn 1 0.0001 0
vn 1 -0 0
vn 1 -0 0
vn 1 -0.0001 -0
vn 1 -0.0003 -0
vn 1 -0.0002 -0
vn 1 0.0002 0
vn 1 0.0002 0
vn 1 -0 0
vn 0 -0.0567 -0.9984
vn 0 -0.0567 -0.9984
vn 0 -0.0567 -0.9984
vn 0 -0.0568 -0.9984
vn -0.0009 -0.9982 -0.0596
vn 0 -0.9982 -0.0597
vn -0.0001 -0.9982 -0.0597
vn -0.0006 -0.9982 -0.0596
vn 0.0013 0.9982 0.0595
vn 0.0015 0.9982 0.0595
vn 0.0015 0.9982 0.0595
vn 0.0015 0.9982 0.0595
vn 0 -0.0574 -0.9983
vn 0 -0.0574 -0.9983
vn 0 -0.0574 -0.9983
vn 0 -0.0574 -0.9983
vn 1 -0 0
vn 1 -0 0
vn 1 -0 0
vn 1 -0 0
vn -1 0 0
vn -1 0 0
vn -1 0 0
vn -1 0 0
vn 0 0.9982 0.0596
vn 0 0.9982 0.0596
vn 0 0.9982 0.0596
vn 0 0.9982 0.0596
f 3/3/3 2/2/2 1/1/1
f 4/4/4 3/3/3 1/1/1
f 7/7/7 6/6/6 5/5/5
f 8/8/8 7/7/7 5/5/5
f 9/9/9 8/8/8 5/5/5
f 10/10/10 9/9/9 5/5/5
f 13/13/13 12/12/12 11/11/11
f 11/11/11 12/12/12 14/14/14
f 15/15/15 13/13/13 11/11/11
f 16/16/16 11/11/11 14/14/14
f 17/17/17 13/13/13 15/15/15
f 18/18/18 16/16/16 14/14/14
f 19/19/19 17/17/17 15/15/15
f 20/20/20 18/18/18 14/14/14
f 21/21/21 17/17/17 19/19/19
f 18/18/18 20/20/20 22/22/22
f 23/23/23 21/21/21 19/19/19
f 20/20/20 24/24/24 22/22/22
f 23/23/23 25/25/25 21/21/21
f 24/24/24 26/26/26 22/22/22
f 25/25/25 27/27/27 21/21/21
f 26/26/26 28/28/28 22/22/22
f 25/25/25 29/29/29 27/27/27
f 30/30/30 28/28/28 26/26/26
f 29/29/29 31/31/31 27/27/27
f 32/32/32 30/30/30 26/26/26
f 31/31/31 29/29/29 33/33/33
f 34/34/34 30/30/30 32/32/32
f 29/29/29 35/35/35 33/33/33
f 36/36/36 34/34/34 32/32/32
f 33/33/33 35/35/35 37/37/37
f 38/38/38 34/34/34 36/36/36
f 35/35/35 39/39/39 37/37/37
f 40/40/40 38/38/38 36/36/36
f 37/37/37 39/39/39 41/41/41
f 38/38/38 40/40/40 42/42/42
f 39/39/39 43/43/43 41/41/41
f 44/44/44 38/38/38 42/42/42
f 41/41/41 43/43/43 45/45/45
f 46/46/46 44/44/44 42/42/42
f 43/43/43 47/47/47 45/45/45
f 48/48/48 46/46/46 42/42/42
f 45/45/45 47/47/47 49/49/49
f 50/50/50 46/46/46 48/48/48
f 51/51/51 50/50/50 48/48/48
f 47/47/47 52/52/52 49/49/49
f 49/49/49 52/52/52 53/53/53
f 52/52/52 54/54/54 53/53/53
f 57/57/57 56/56/56 55/55/55
f 58/58/58 55/55/55 56/56/56
f 59/59/59 58/58/58 56/56/56
f 59/59/59 61/61/61 60/60/60
f 61/61/61 62/62/62 60/60/60
f 63/63/63 57/57/57 55/55/55
f 63/63/63 55/55/55 64/64/64
f 65/65/65 63/63/63 64/64/64
f 67/67/67 66/66/66 65/65/65
f 66/66/66 63/63/63 65/65/65
f 66/66/66 68/68/68 63/63/63
f 68/68/68 57/57/57 63/63/63
f 57/57/57 68/68/68 69/69/69
f 70/70/70 57/57/57 69/69/69
f 73/73/73 70/70/70 71/71/71
f 70/70/70 72/72/72 71/71/71
f 76/76/76 75/75/75 74/74/74
f 77/77/77 76/76/76 74/74/74
f 75/75/75 76/76/76 78/78/78
f 77/77/77 74/74/74 79/79/79
f 80/80/80 75/75/75 78/78/78
f 74/74/74 81/81/81 79/79/79
f 82/82/82 80/80/80 78/78/78
f 79/79/79 81/81/81 83/83/83
f 84/84/84 82/82/82 78/78/78
f 81/81/81 85/85/85 83/83/83
f 86/86/86 82/82/82 84/84/84
f 83/83/83 85/85/85 87/87/87
f 88/88/88 86/86/86 84/84/84
f 88/88/88 87/87/87 86/86/86
f 85/85/85 89/89/89 87/87/87
f 87/87/87 89/89/89 86/86/86
f 92/92/92 91/91/91 90/90/90
f 94/94/94 92/92/92 90/90/90
f 93/93/93 90/90/90 91/91/91
f 92/92/92 94/94/94 96/96/96
f 95/95/95 93/93/93 91/91/91
f 98/98/98 92/92/92 96/96/96
f 93/93/93 95/95/95 97/97/97
f 100/100/100 98/98/98 96/96/96
f 95/95/95 99/99/99 97/97/97
f 102/102/102 100/100/100 96/96/96
f 97/97/97 99/99/99 101/101/101
f 104/104/104 100/100/100 102/102/102
f 99/99/99 103/103/103 101/101/101
f 107/107/107 104/104/104 102/102/102
f 101/101/101 103/103/103 105/105/105
f 103/103/103 106/106/106 105/105/105
f 107/107/107 108/108/108 104/104/104
f 108/108/108 109/109/109 104/104/104
f 109/109/109 108/108/108 110/110/110
f 111/111/111 109/109/109 110/110/110
f 110/110/110 112/112/112 111/111/111
f 112/112/112 113/113/113 111/111/111
f 112/112/112 114/114/114 113/113/113
f 114/114/114 115/115/115 113/113/113
f 114/114/114 116/116/116 115/115/115
f 116/116/116 117/117/117 115/115/115
f 120/120/120 119/119/119 118/118/118
f 121/121/121 120/120/120 118/118/118
f 122/122/122 120/120/120 121/121/121
f 123/123/123 122/122/122 121/121/121
f 124/124/124 122/122/122 123/123/123
f 125/125/125 124/124/124 123/123/123
f 126/126/126 124/124/124 125/125/125
f 127/127/127 126/126/126 125/125/125
f 128/128/128 126/126/126 127/127/127
f 129/129/129 128/128/128 127/127/127
f 129/129/129 130/130/130 128/128/128
f 130/130/130 131/131/131 128/128/128
f 131/131/131 130/130/130 132/132/132
f 133/133/133 131/131/131 132/132/132
f 133/133/133 132/132/132 134/134/134
f 132/132/132 135/135/135 134/134/134
f 136/136/136 134/134/134 135/135/135
f 137/137/137 136/136/136 135/135/135
f 137/137/137 138/138/138 136/136/136
f 138/138/138 139/139/139 136/136/136
f 138/138/138 140/140/140 139/139/139
f 140/140/140 141/141/141 139/139/139
f 140/140/140 142/142/142 141/141/141
f 142/142/142 143/143/143 141/141/141
f 142/142/142 144/144/144 143/143/143
f 144/144/144 145/145/145 143/143/143
f 145/145/145 144/144/144 146/146/146
f 147/147/147 145/145/145 146/146/146
f 150/150/150 149/149/149 148/148/148
f 151/151/151 150/150/150 148/148/148
f 154/154/154 153/153/153 152/152/152
f 155/155/155 154/154/154 152/152/152
f 154/154/154 155/155/155 156/156/156
f 155/155/155 157/157/157 156/156/156
f 157/157/157 155/155/155 158/158/158
f 159/159/159 157/157/157 158/158/158
f 162/162/162 161/161/161 160/160/160
f 161/161/161 162/162/162 163/163/163
f 164/164/164 162/162/162 160/160/160
f 162/162/162 165/165/165 163/163/163
f 164/164/164 160/160/160 166/166/166
f 163/163/163 165/165/165 167/167/167
f 168/168/168 164/164/164 166/166/166
f 165/165/165 169/169/169 167/167/167
f 168/168/168 166/166/166 170/170/170
f 166/166/166 171/171/171 170/170/170
f 167/167/167 169/169/169 172/172/172
f 169/169/169 173/173/173 172/172/172
f 173/173/173 174/174/174 172/172/172
f 174/174/174 175/175/175 172/172/172
f 176/176/176 175/175/175 174/174/174
f 177/177/177 176/176/176 174/174/174
f 180/180/180 179/179/179 178/178/178
f 181/181/181 180/180/180 178/178/178
f 184/184/184 183/183/183 182/182/182
f 185/185/185 184/184/184 182/182/182
f 188/188/188 187/187/187 186/186/186
f 189/189/189 188/188/188 186/186/186
f 192/192/192 191/191/191 190/190/190
f 193/193/193 192/192/192 190/190/190
f 194/194/194 190/190/190 191/191/191
f 195/195/195 194/194/194 191/191/191
f 194/194/194 195/195/195 196/196/196
f 195/195/195 197/197/197 196/196/196
f 200/200/200 199/199/199 198/198/198
f 201/201/201 200/200/200 198/198/198
f 204/204/204 203/203/203 202/202/202
f 205/205/205 204/204/204 202/202/202
f 208/208/208 207/207/207 206/206/206
f 209/209/209 208/208/208 206/206/206
f 212/212/212 211/211/211 210/210/210
f 213/213/213 212/212/212 210/210/210
f 216/216/216 215/215/215 214/214/214
f 217/217/217 216/216/216 214/214/214
f 214/214/214 218/218/218 217/217/217
f 218/218/218 219/219/219 217/217/217
f 222/222/222 215/215/215 220/220/220
f 215/215/215 221/221/221 220/220/220
f 225/225/225 224/224/224 223/223/223
f 226/226/226 225/225/225 223/223/223
f 229/229/229 228/228/228 227/227/227
f 230/230/230 229/229/229 227/227/227
f 233/233/233 232/232/232 231/231/231
f 234/234/234 233/233/233 231/231/231
f 237/237/237 236/236/236 235/235/235
f 238/238/238 237/237/237 235/235/235
f 241/241/241 240/240/240 239/239/239
f 242/242/242 241/241/241 239/239/239
f 245/245/245 244/244/244 243/243/243
f 246/246/246 245/245/245 243/243/243
f 249/249/249 248/248/248 247/247/247
f 250/250/250 249/249/249 247/247/247
