# VPXTOOL table OBJ file
# VPXTOOL OBJ file
# numVerts: 606 numFaces: 904
o bumperbase3
v -18.642305 8.215122 0
v -18.642794 8.215483 -18.634052
v -20.661776 10.32736 -18.634052
v -20.659945 10.327236 -0.000001
v 26.797209 -0.004669 -20.794052
v 26.797209 -0.004675 -62.482048
v 25.885221 6.927515 -62.48205
v 25.885221 6.927521 -20.794054
v 24.281765 24.260885 -72.20206
v 24.281765 24.260881 -79.11406
v 17.171963 29.715532 -79.11406
v 17.171963 29.715536 -72.20206
v 23.209316 13.387666 -20.794056
v 23.209316 13.387656 -62.48205
v 18.951748 18.935326 -62.482056
v 18.951748 18.935392 -20.794058
v 11.760829 23.886553 -62.482056
v 11.760768 23.886562 -20.79406
v 13.402675 23.192656 -20.79406
v 13.402675 23.19265 -62.482056
v 18.844389 11.071509 -0.000001
v 18.844755 11.071259 -18.634052
v 17.272734 9.570222 -18.634052
v 17.272612 9.570106 -0
v -13.588536 31.1388 -79.11406
v -12.317296 26.041271 -79.11406
v -9.244115 27.680614 -79.11406
v -9.736669 30.074657 -79.11406
v -9.253083 -27.678398 -79.114044
v -8.451203 -25.056206 -79.114044
v -11.759614 -23.88726 -79.114044
v -12.325715 -26.037956 -79.114044
v 20.769196 -20.765303 -58.594044
v 22.481903 -22.47776 -65.46365
v 15.895415 -27.527626 -65.46365
v 14.684478 -25.430464 -58.594044
v -11.751927 23.890398 -62.482056
v -13.394017 23.19691 -62.482056
v -13.394017 23.196985 -20.79406
v -11.751927 23.890408 -20.79406
v 23.204987 -13.395782 -20.794048
v 18.945648 -18.94211 -20.794046
v 18.945648 -18.942116 -62.48204
v 23.204987 -13.395787 -62.482044
v 20.775906 20.757965 -18.634056
v 14.692714 25.425018 -18.634056
v 14.692714 25.425009 -58.59406
v 20.775906 20.757956 -58.59406
v -12.317296 26.041275 -69.351654
v -11.751927 23.890392 -79.11406
v -4.873082 22.131363 -68.31406
v -8.443089 25.058243 -68.31406
v -8.443089 25.058239 -79.11406
v -4.873082 22.13136 -79.11406
v -25.884066 -6.928209 -62.482044
v -28.01877 -7.4995 -69.351654
v -25.1221 -14.492298 -69.35165
v -23.20816 -13.388291 -62.482044
v 20.507904 -20.50413 -69.351654
v 25.11856 -14.500404 -69.351654
v 13.395171 -23.197609 -62.48204
v 14.499785 -25.110575 -69.351654
v 28.017485 -7.508583 -69.35166
v 29.731232 -17.163187 -72.20204
v 33.162502 -8.887428 -72.20205
v -29.735626 -17.153616 -72.20204
v -24.28061 -24.261587 -72.20204
v -20.513336 -20.497488 -69.35165
v 17.162384 -29.72172 -72.20204
v 24.273895 -24.26945 -72.20204
v -14.498631 25.109934 -69.351654
v -27.842012 3.964424 -79.11405
v -26.796297 0.003975 -79.11405
v -26.796175 0.003978 -69.72027
v -27.842012 3.964427 -69.48498
v -30.767244 -6.871574 -79.11405
v -33.337254 -7.558769 -79.11405
v -33.337254 -7.558767 -72.20205
v -30.767244 -6.871572 -70.77834
v -33.16422 -8.876699 -72.20205
v -26.796053 0.004042 -62.482048
v -27.843294 -3.956104 -67.35996
v -33.334812 7.568919 -72.20205
v -30.764986 6.88087 -70.77834
v -28.016329 7.507946 -69.35165
v -33.16135 8.886728 -72.20205
v 12.31845 -26.041924 -79.114044
v 13.58969 -31.139387 -79.114044
v 13.58969 -31.139383 -72.20204
v 12.31845 -26.04192 -69.351654
v 14.507899 25.105246 -69.35166
v 12.326869 26.037247 -69.35166
v -6.721409 19.354692 -62.482002
v -6.721409 19.354687 -79.11406
v 28.019926 7.498863 -69.351654
v 25.123196 14.491661 -69.35166
v -23.20383 13.395156 -62.48205
v -18.944492 18.941418 -62.482056
v -20.506748 20.503428 -69.351654
v -25.117405 14.499767 -69.351654
v -29.730015 17.162546 -72.20206
v 29.736782 17.152914 -72.20206
v 20.514553 20.496847 -69.35166
v 29.736782 17.15291 -79.11406
v -11.759614 -23.887255 -62.48204
v -12.325715 -26.037952 -69.35165
v -14.506745 -25.105886 -69.35165
v -13.401521 -23.193287 -62.48204
v 11.753081 -23.890978 -62.48204
v 11.753081 -23.890965 -20.794044
v 6.722564 -19.35532 -20.794046
v 6.722564 -19.355333 -62.481987
v -6.727632 -19.353184 -20.794046
v -11.759614 -23.887241 -20.794044
v -6.727693 -19.353197 -62.48199
v -26.796114 0.003979 -67.68316
v -27.842012 3.964428 -67.35996
v 33.335964 -7.56956 -79.11405
v 30.766142 -6.881511 -79.11405
v 30.766142 -6.881508 -70.77834
v 33.335964 -7.569558 -72.20205
v 27.84445 3.955407 -67.35996
v 27.84445 3.955406 -69.4741
v 30.7684 6.870934 -70.77834
v -27.843294 -3.956105 -69.47657
v -27.843294 -3.956108 -79.11405
v -6.727693 -19.353203 -79.114044
v -0.002229 -17.512316 -62.48199
v -0.002229 -17.512321 -79.114044
v 6.722564 -19.35534 -79.114044
v -17.170807 -29.716177 -72.20204
v -13.598603 -31.135 -72.20204
v -25.881868 6.935926 -62.48205
v -24.2728 24.268747 -72.20206
v 26.797453 -0.004619 -79.11405
v 27.84445 3.955403 -79.11405
v 26.79733 -0.004677 -69.701164
v 26.79727 -0.004677 -67.8711
v 27.843168 -3.965065 -67.35996
v 27.843168 -3.965065 -69.4741
v -0.002229 -17.512316 -62.48199
v -0.002229 -17.512321 -79.114044
v 11.753081 -23.890984 -79.114044
v -18.950592 -18.935963 -62.48204
v -17.161228 29.721079 -72.20206
v 13.599757 31.13442 -72.20206
v 6.728848 19.352505 -20.794058
v 6.728848 19.352495 -62.482006
v -33.334812 7.568916 -79.11405
v -30.764986 6.880867 -79.11405
v 27.843168 -3.965068 -79.11405
v 30.7684 6.87087 -79.11405
v -13.598603 -31.135004 -79.114044
v 0.003445 17.511675 -62.482
v 0.003445 17.51167 -79.11406
v 6.728848 19.35249 -79.11406
v 12.326869 26.037243 -79.11406
v 11.760829 23.886547 -79.11406
v -6.721409 19.354702 -20.794058
v 4.874298 -22.132072 -79.114044
v -0.002839 -21.008476 -79.114044
v 8.444243 -25.058952 -79.114044
v 13.599757 31.134417 -79.11406
v 9.747584 30.071484 -79.11406
v 9.254237 27.677624 -79.11406
v -9.735693 36.338757 -79.11407
v 9.74856 36.335583 -79.11407
v -18.813145 32.58198 -79.11406
v -17.161228 29.721075 -79.11406
v 24.273895 -24.269453 -79.114044
v 17.162384 -29.721724 -79.114044
v 18.8143 -32.582695 -79.114044
v 26.610382 -26.605513 -79.114044
v 29.731232 -17.16319 -79.114044
v 32.593044 -18.81529 -79.114044
v 33.162502 -8.88743 -79.11405
v 36.35452 -9.742838 -79.11405
v -33.16135 8.886726 -79.11405
v -36.353306 9.742195 -79.11405
v 36.35763 9.730429 -79.11405
v 33.16537 8.875998 -79.11405
v 33.338406 7.558125 -79.11405
v 37.638577 -0.006388 -79.11405
v 33.337185 -0.005717 -79.11405
v -33.336033 0.005073 -79.11405
v -37.637424 0.005744 -79.11405
v -36.35648 -9.731071 -79.11405
v -33.16422 -8.876701 -79.11405
v 32.599148 18.804094 -79.11406
v -32.597935 -18.804743 -79.114044
v -29.735626 -17.15362 -79.114044
v 26.618984 26.596209 -79.11406
v -26.617828 -26.596918 -79.114044
v -24.28061 -24.261591 -79.114044
v 18.824856 32.57588 -79.11406
v -17.170807 -29.71618 -79.114044
v -18.8237 -32.57653 -79.114044
v -9.747406 -36.336296 -79.11404
v -9.74643 -30.072197 -79.114044
v 9.737823 -30.07537 -79.114044
v 9.736847 -36.33947 -79.11404
v 9.245269 -27.681389 -79.114044
v 8.452357 25.055553 -79.11406
v 4.881435 22.129772 -79.11406
v 0.003994 21.007824 -79.11406
v -4.88028 -22.130424 -79.114044
v -0.002839 -21.008476 -79.114044
v -3.42118 -5.921811 -64.84946
v -5.925791 -5.921812 -64.84946
v -5.925791 -5.921798 -20.79405
v -3.42118 -5.921798 -20.79405
v 0.001527 5.925657 -20.794054
v 2.060813 5.925659 -20.794054
v 6.728848 19.352505 -20.794058
v 0.003384 17.511684 -20.794058
v -2.0575 5.925644 -64.84946
v 0.001527 5.925644 -64.84946
v 0.001527 5.925657 -20.794054
v -2.0575 5.925657 -20.794054
v 2.918088 5.925657 -20.794054
v 11.760768 23.886562 -20.79406
v -10.264681 2.750689 -64.84946
v -10.264687 5.925642 -64.84946
v -10.264687 5.925656 -20.794054
v -10.264681 2.750702 -20.794052
v 3.424893 5.925656 -20.794054
v 13.402675 23.192656 -20.79406
v 2.060813 5.925646 -64.84946
v 2.918088 5.925644 -64.84946
v 2.918088 5.925657 -20.794054
v 2.060813 5.925659 -20.794054
v 5.931361 5.925656 -20.794054
v 18.951748 18.935392 -20.794058
v 3.419784 -5.921816 -64.84946
v 2.913543 -5.921816 -64.84946
v 2.913543 -5.921803 -20.79405
v 3.419784 -5.921803 -20.79405
v 10.273514 5.925659 -20.794054
v 23.209316 13.387666 -20.794056
v -0.000372 -5.921815 -64.84946
v -2.058094 -5.921816 -64.84946
v -2.058094 -5.921803 -20.79405
v -0.000372 -5.921802 -20.79405
v 10.258158 5.9168 -20.794054
v 10.258158 2.745075 -20.794052
v 25.885221 6.927521 -20.794054
v -5.926407 5.925643 -64.84946
v -3.421184 5.925645 -64.84946
v -3.421184 5.925658 -20.794054
v -5.926407 5.925656 -20.794054
v 10.258157 -0.001958 -20.794052
v 26.797209 -0.004669 -20.794052
v -10.264681 -2.74773 -20.794052
v -10.26468 0.001383 -20.794052
v -26.796053 0.004055 -20.794052
v -25.884066 -6.928195 -20.79405
v 10.273514 5.925645 -64.84946
v 10.258158 5.916787 -64.84946
v 10.258158 5.9168 -20.794054
v 10.273514 5.925659 -20.794054
v -10.264667 -5.9218 -20.79405
v -23.20816 -13.388278 -20.794048
v 10.258159 -5.921815 -64.84946
v 5.923114 -5.921815 -64.84946
v 5.923114 -5.921802 -20.79405
v 10.258159 -5.921802 -20.79405
v -5.925791 -5.921798 -20.79405
v -18.950592 -18.93595 -20.794046
v 5.931361 5.925643 -64.84946
v 5.931361 5.925656 -20.794054
v -3.42118 -5.921798 -20.79405
v -13.401521 -23.193274 -20.794044
v -2.914748 -5.921815 -64.84946
v -2.914748 -5.921802 -20.79405
v -2.914748 -5.921802 -20.79405
v -11.759614 -23.887241 -20.794044
v -2.914556 5.925642 -64.84946
v -2.914556 5.925655 -20.794054
v -2.058094 -5.921803 -20.79405
v -6.727632 -19.353184 -20.794046
v 2.057117 -5.921815 -64.84946
v 2.057117 -5.921802 -20.79405
v -0.000372 -5.921802 -20.79405
v -0.002229 -17.512302 -20.794046
v 3.424893 5.925642 -64.84946
v 3.424893 5.925656 -20.794054
v 28.374418 -7.604222 -58.594048
v 30.714323 -8.231237 -65.46366
v 27.536346 -15.896216 -65.46365
v 25.438568 -14.685154 -58.594048
v 15.904323 27.521812 -65.46367
v 22.489162 22.469872 -65.46367
v 31.7991 -0.005469 -65.46366
v 37.638577 -0.006385 -68.31405
v 36.35452 -9.742834 -68.31405
v 32.593044 -18.815287 -68.31404
v 26.610382 -26.605509 -68.31404
v 18.8143 -32.58269 -68.31404
v -9.74643 -30.072193 -68.27139
v -9.747406 -36.336292 -68.31403
v -9.74643 -30.072191 -65.46365
v -9.244115 27.680693 -18.634058
v -9.244115 27.68068 -58.59406
v -8.443089 25.058243 -58.59407
v -8.443089 25.058256 -18.634056
v -4.873082 22.131376 -18.634056
v -4.873082 22.131363 -58.59407
v -9.244115 27.680618 -68.31404
v -9.736669 30.074661 -68.322205
v 0.003994 21.007841 -18.634056
v 0.003994 21.007828 -58.594055
v -29.375399 0.00447 -58.594048
v -31.797945 0.004773 -65.46366
v -30.713167 8.230603 -65.46366
v -28.373262 7.603591 -58.594055
v -27.53513 15.895521 -65.46367
v -25.437412 14.684525 -58.594055
v 30.716948 8.220666 -65.46366
v 36.35763 9.730433 -68.31405
v 27.54147 15.886618 -65.46367
v 32.599148 18.804098 -68.31406
v 26.618984 26.596212 -68.31406
v 18.824856 32.575882 -68.31406
v 9.737823 -30.075365 -65.46365
v 9.245269 -27.681381 -58.594044
v 9.737823 -30.075367 -68.2133
v 9.736847 -36.339466 -68.31403
v -9.253083 -27.678394 -68.31403
v -8.451203 -25.056185 -18.63404
v -8.451203 -25.056198 -58.59404
v -9.253083 -27.67839 -58.594048
v -9.253083 -27.678377 -18.634039
v 8.444243 -25.058931 -18.63404
v 9.245269 -27.681368 -18.634039
v 8.444243 -25.058945 -58.594032
v 29.376554 -0.00504 -58.594055
v 28.37686 7.594387 -58.59406
v 25.443325 14.676231 -58.594055
v -20.76804 20.764723 -58.59406
v -22.480747 22.477123 -65.46367
v -15.894261 27.526928 -65.46367
v -14.683324 25.429762 -58.59406
v 4.874298 -22.132051 -18.63404
v 4.874298 -22.132065 -58.59404
v 9.747584 30.071487 -68.25934
v 9.748621 36.335587 -68.314064
v 9.747584 30.07149 -65.46367
v -18.813145 32.581985 -68.31406
v -9.735693 36.33876 -68.314064
v -9.736669 30.074663 -65.46367
v -0.002839 -21.008469 -58.59404
v 4.874298 -22.132067 -65.46365
v -0.002839 -21.00847 -65.463646
v -0.002839 -21.008455 -18.63404
v -4.88028 -22.130404 -18.63404
v -0.002839 -21.008455 -18.63404
v -0.002839 -21.008469 -58.59404
v -4.88028 -22.130417 -58.59404
v 9.245269 -27.681385 -68.31404
v 9.245269 -27.681383 -65.46365
v 8.444243 -25.058947 -65.46365
v -28.375704 -7.595078 -58.594044
v -30.715792 -8.2213 -65.46366
v -25.44217 -14.676926 -58.594048
v -27.540314 -15.887317 -65.46365
v -20.77475 -20.758593 -58.594044
v -22.488007 -22.470509 -65.46365
v -14.69156 -25.425707 -58.594044
v -15.903169 -27.52251 -65.46365
v -37.637424 0.005748 -68.31405
v -36.353306 9.742199 -68.31405
v -32.591892 18.814646 -68.31406
v -26.609226 26.604868 -68.31406
v -18.8237 -32.576527 -68.31404
v 8.452357 25.055557 -58.594055
v 8.452357 25.05556 -65.46368
v 9.254237 27.67769 -65.46367
v 9.254237 27.677689 -68.31406
v 14.684478 -25.43039 -18.63404
v 9.254237 27.67775 -58.594055
v 9.254237 27.677763 -18.634058
v -13.588536 31.138803 -72.20206
v 33.338406 7.558128 -72.20205
v -25.44217 -14.676912 -18.634043
v -20.77475 -20.75858 -18.63404
v -28.375704 -7.595065 -18.634047
v -29.375399 0.004483 -18.634048
v -36.35648 -9.731068 -68.31405
v 19.771633 15.233131 -0.000002
v 19.771755 15.232637 -18.634056
v 19.722256 13.059725 -18.634052
v 19.721828 13.060097 -0.000001
v -17.481964 -18.830046 0.000005
v -17.48233 -18.829746 -18.634045
v -18.984833 -17.258213 -18.634045
v -18.98349 -17.258268 0.000005
v 13.320582 19.766577 -0.000004
v 13.319423 19.764069 -18.634058
v 15.49496 19.71164 -18.634056
v 15.495326 19.715368 -0.000004
v -28.373262 7.603604 -18.63405
v -25.437412 14.684534 -18.634054
v -8.21439 10.041112 -0
v -8.213902 10.040862 -18.634054
v -10.326267 8.023771 -18.634052
v -10.32645 8.023655 0
v 28.37686 7.594392 -18.63405
v 25.443325 14.676302 -18.634054
v -23.20383 13.395165 -20.794056
v -18.944492 18.941431 -20.794058
v 11.084133 9.712623 -0
v 11.083706 9.712922 -18.634054
v 9.581203 11.284516 -18.634054
v 9.582607 11.2844 -0.000001
v -32.591892 18.814642 -79.11406
v -26.609226 26.604864 -79.11406
v 13.04965 -6.956445 0.000001
v 13.048124 -6.95993 -18.634048
v 15.971464 -7.030365 -18.634048
v 15.972013 -7.025292 0.000001
v -13.050022 6.968174 0.000001
v -13.050022 6.968779 -18.634052
v -15.97031 7.036222 -18.634052
v -15.970188 7.035496 0.000001
v -20.4744 18.64926 -0.000003
v -20.478062 18.649319 -18.634056
v -18.364841 20.667263 -18.634058
v -18.361729 20.66928 -0.000004
v -29.730015 17.162542 -79.11406
v -24.2728 24.268744 -79.11406
v -26.617828 -26.596914 -68.31404
v -32.597935 -18.804739 -68.31404
v 21.718292 -13.048424 0.000003
v 21.718414 -13.04904 -18.634048
v 21.651886 -15.968841 -18.634047
v 21.651276 -15.968469 0.000004
v 13.395171 -23.197603 -20.794044
v 25.438568 -14.685148 -18.634043
v 20.769196 -20.76529 -18.63404
v 33.16537 8.875999 -72.20205
v 25.883024 -6.936621 -62.482044
v 4.874298 -22.132069 -68.31404
v 8.444243 -25.058949 -68.31404
v -21.71677 13.050877 -0.000001
v -21.720554 13.051725 -18.634052
v -21.656895 15.974756 -18.634054
v -21.652073 15.973114 -0.000002
v 0.003994 21.007828 -68.314064
v -11.080904 -9.707973 0.000002
v -11.081514 -9.710786 -18.634047
v -9.58005 -11.283418 -18.634047
v -9.579561 -11.28213 0.000003
v 0.003384 17.511684 -20.794058
v -13.401521 -23.193274 -20.794044
v 28.374418 -7.604156 -18.634047
v -26.796053 0.004055 -20.794052
v -25.881868 6.93594 -20.794054
v 20.47226 -18.640528 0.000005
v 20.472748 -18.640778 -18.634045
v 18.360321 -20.657928 -18.634043
v 18.360199 -20.658045 0.000006
v 6.969817 -15.630822 0.000004
v 6.966094 -15.629912 -18.634045
v 7.029814 -12.706939 -18.634047
v 7.034575 -12.708581 0.000003
v 8.452357 25.055557 -68.31406
v 4.881435 22.129776 -68.314064
v -14.683324 25.429775 -18.634056
v 17.485134 18.834631 -0.000003
v 17.484524 18.831879 -18.634056
v 18.985989 17.259247 -18.634056
v 18.986477 17.260534 -0.000003
v -10.040868 20.472813 -0.000004
v -10.041661 20.469084 -18.634054
v -8.024082 18.355925 -18.634056
v -8.023411 18.35764 -0.000003
v -25.884066 -6.928195 -20.79405
v -23.20816 -13.388278 -20.794048
v -0.002229 -17.512302 -20.794046
v 18.64578 -8.208825 0.000002
v 18.644987 -8.212554 -18.634048
v 20.662565 -10.325773 -18.634048
v 20.663237 -10.323997 0.000002
v 8.212248 -10.032372 0.000002
v 8.208525 -10.032378 -18.634047
v 10.321806 -8.014373 -18.634048
v 10.324919 -8.012353 0.000002
v 15.245754 8.784705 -0
v 15.245754 8.785066 -18.634052
v 13.072536 8.835298 -18.634054
v 13.072598 8.834815 -0
v -15.636998 21.725126 -0.000004
v -15.638524 21.721828 -18.634056
v -12.715184 21.651333 -18.634056
v -12.714696 21.6564 -0.000004
v -20.76804 20.764736 -18.634056
v -19.769989 -15.231358 0.000004
v -19.772797 -15.230684 -18.634045
v -19.725372 -13.055391 -18.634048
v -19.721832 -13.056675 0.000003
v -8.794405 -13.309535 0.000003
v -8.794283 -13.310029 -18.634047
v -8.843782 -15.482881 -18.634043
v -8.844271 -15.482631 0.000004
v -6.968357 15.63321 -0.000002
v -6.968235 15.632659 -18.634056
v -7.034763 12.71292 -18.634054
v -7.035373 12.713231 -0.000001
v 25.883024 -6.936615 -20.79405
v -9.721712 -17.471218 0.000005
v -9.721346 -17.471346 -18.634043
v -11.293305 -18.972445 -18.634043
v -11.293489 -18.97256 0.000005
v -8.451203 -25.056202 -68.31403
v -4.88028 -22.13042 -68.31404
v -0.002839 -21.008472 -68.31404
v -18.950592 -18.93595 -20.794046
v -14.691499 -25.425694 -18.63404
v -0.002229 -17.512302 -20.794046
v 29.376554 -0.005034 -18.634048
v 10.044402 -20.46658 0.000006
v 10.043853 -20.466158 -18.634047
v 8.02487 -18.354342 -18.634045
v 8.026701 -18.354519 0.000005
v -0.002839 -21.008472 -68.31404
v -13.320283 -19.757963 0.000005
v -13.320283 -19.757603 -18.634043
v -15.493501 -19.70737 -18.634045
v -15.49344 -19.707853 0.000005
v 9.720669 17.477573 -0.000003
v 9.717922 17.477629 -18.634058
v 11.290553 18.979338 -18.634058
v 11.292872 18.980808 -0.000003
v -18.84543 -11.065089 0.000003
v -18.848177 -11.065034 -18.634048
v -17.275484 -9.563264 -18.634048
v -17.273165 -9.561793 0.000002
v 8.796108 13.311316 -0.000001
v 8.793301 13.312043 -18.634054
v 8.840664 15.487214 -18.634058
v 8.844265 15.485999 -0.000002
v -15.245455 -8.776027 0.000002
v -15.246553 -8.778596 -18.63405
v -13.071077 -8.831025 -18.634047
v -13.070711 -8.827235 0.000002
v 15.636626 -21.713465 0.000006
v 15.636626 -21.712921 -18.634045
v 12.716399 -21.645477 -18.634045
v 12.71646 -21.646143 0.000006
v 4.881435 22.12979 -18.634056
v 4.881435 22.129776 -58.594055
v 8.452357 25.05557 -18.634056
v -9.244115 27.68062 -65.46367
v -8.443089 25.058245 -65.46367
v 0.003994 21.00783 -65.46368
v 4.881435 22.129778 -65.46368
v -9.253083 -27.678392 -65.46365
v -4.873082 22.131365 -65.46367
v -8.451203 -25.0562 -65.46365
v -0.002839 -21.00847 -65.463646
v -4.88028 -22.130419 -65.463646
v -11.081514 -9.710786 -18.634047
v -11.080904 -9.707973 0.000002
v -8.213902 10.040862 -18.634054
v -8.21439 10.041112 -0
v 11.083706 9.712922 -18.634054
v 11.084133 9.712623 -0
v 8.208525 -10.032378 -18.634047
v 8.212248 -10.032372 0.000002
v -10.264667 -5.921813 -64.84946
v -10.264667 -5.9218 -20.79405
v -6.721409 19.354702 -20.794058
v -2.0575 5.925657 -20.794054
v -11.751927 23.890408 -20.79406
v -13.394017 23.196985 -20.79406
v -3.421184 5.925658 -20.794054
v -2.914556 5.925655 -20.794054
v 10.258158 2.745061 -64.84946
v 10.258157 -0.001971 -64.84946
v 10.258157 -0.001958 -20.794052
v 10.258158 2.745075 -20.794052
v -18.944492 18.941431 -20.794058
v -23.20383 13.395165 -20.794056
v -10.264687 5.925656 -20.794054
v -5.926407 5.925656 -20.794054
v -25.881868 6.93594 -20.794054
v -10.264681 2.750702 -20.794052
v 10.258158 -2.749259 -64.84946
v 10.258158 -2.749245 -20.794052
v -10.264681 -2.747744 -64.84946
v -10.264681 -2.74773 -20.794052
v 6.722564 -19.35532 -20.794046
v 2.057117 -5.921802 -20.79405
v 13.395171 -23.197603 -20.794044
v 18.945648 -18.94211 -20.794046
v 5.923114 -5.921802 -20.79405
v 3.419784 -5.921803 -20.79405
v 11.753081 -23.890965 -20.794044
v 2.913543 -5.921803 -20.79405
v -10.26468 0.00137 -64.84946
v -10.26468 0.001383 -20.794052
v 23.204987 -13.395782 -20.794048
v 10.258159 -5.921802 -20.79405
v 25.883024 -6.936615 -20.79405
v 10.258158 -2.749245 -20.794052
v 0.000577 -0.00029 -64.84946
vt 0.131747 0.668954
vt 0.13175 0.78859502
vt 0.160597 0.78859597
vt 0.160587 0.668954
vt 0.728204 0.62738103
vt 0.734132 0.406914
vt 0.696745 0.40595
vt 0.691533 0.626423
vt 0.628463 0.338412
vt 0.631044 0.31295002
vt 0.598537 0.308626
vt 0.595974 0.333718
vt 0.654846 0.625525
vt 0.659552 0.40396297
vt 0.622394 0.40112197
vt 0.618149 0.62477398
vt 0.575 0.397209
vt 0.572262 0.62416703
vt 0.581393 0.62429202
vt 0.584706 0.397555
vt 0.771644 0.81723899
vt 0.771665 0.936881006
vt 0.793126 0.93687898
vt 0.793105 0.81723702
vt 0.416375 0.305196
vt 0.438324 0.31409097
vt 0.440767 0.30061603
vt 0.432054 0.297157
vt 0.07933 0.30790102
vt 0.067575 0.31207502
vt 0.075054 0.32561004
vt 0.082458 0.321777
vt 0.849516 0.21270299
vt 0.846076 0.245471
vt 0.880501 0.25131
vt 0.886953 0.21787298
vt 0.423527 0.39687896
vt 0.413782 0.397242
vt 0.416984 0.624431
vt 0.426143 0.624349
vt 0.801529 0.629336
vt 0.838169 0.63047898
vt 0.846012 0.40750098
vt 0.808731 0.40813303
vt 0.628741 0.010488987
vt 0.590632 0.010703981
vt 0.59219 0.21124303
vt 0.629388 0.20775199
vt 0.422421 0.35662603
vt 0.445609 0.31740403
vt 0.477202 0.25818598
vt 0.456834 0.25912297
vt 0.452155 0.30410898
vt 0.474127 0.30753803
vt 0.226166 0.40722203
vt 0.22506 0.37018597
vt 0.188527 0.37060297
vt 0.188688 0.407198
vt 0.845071 0.370808
vt 0.809036 0.37172902
vt 0.883856 0.40626597
vt 0.882528 0.367118
vt 0.772748 0.371175
vt 0.809284 0.345591
vt 0.777975 0.345284
vt 0.188414 0.34440804
vt 0.15392 0.342762
vt 0.152297 0.369384
vt 0.876479 0.34151804
vt 0.843634 0.34446
vt 0.409925 0.358199
vt 0.27363 0.334005
vt 0.262074 0.335864
vt 0.262866 0.36997402
vt 0.282585 0.368989
vt 0.23972 0.328489
vt 0.232259 0.320691
vt 0.224376 0.34415102
vt 0.228139 0.355712
vt 0.219913 0.344154
vt 0.263753 0.40621603
vt 0.242849 0.38057303
vt 0.300048 0.34237397
vt 0.296838 0.354074
vt 0.300591 0.368352
vt 0.30449 0.342171
vt 0.914481 0.32409298
vt 0.891896 0.314043
vt 0.88809 0.34025097
vt 0.89519 0.36630404
vt 0.588438 0.35878503
vt 0.575907 0.35722303
vt 0.461797 0.39985096
vt 0.471213 0.321783
vt 0.697552 0.36913002
vt 0.661294 0.367692
vt 0.338618 0.40342498
vt 0.375926 0.40070903
vt 0.372887 0.36404502
vt 0.336942 0.366966
vt 0.335795 0.34084702
vt 0.66249 0.34173596
vt 0.625497 0.364626
vt 0.665037 0.31521904
vt 0.103279 0.405177
vt 0.101775 0.36461198
vt 0.114555 0.36548698
vt 0.113058 0.40496802
vt 0.893553 0.40649998
vt 0.883922 0.63225698
vt 0.919752 0.633914
vt 0.931359 0.41189504
vt 0.07679 0.63483697
vt 0.112919 0.633052
vt 0.065073 0.410572
vt 0.263094 0.37936103
vt 0.283359 0.379582
vt 0.765812 0.32188904
vt 0.758344 0.329615
vt 0.769739 0.356757
vt 0.773535 0.34526098
vt 0.714679 0.38035
vt 0.715484 0.36986303
vt 0.701331 0.354913
vt 0.243104 0.36998498
vt 0.250441 0.33453202
vt 0.048037 0.331244
vt 0.967068 0.41583502
vt 0.979043 0.335495
vt 0.947862 0.33345103
vt 0.120801 0.33967602
vt 0.109106 0.33832502
vt 0.301301 0.40533197
vt 0.370007 0.337853
vt 0.736042 0.336864
vt 0.724533 0.33496702
vt 0.73512 0.37091
vt 0.734892 0.379278
vt 0.755019 0.38145196
vt 0.754788 0.37093103
vt 0.027969 0.41484404
vt 0.016745 0.332268
vt 0.921686 0.327861
vt 0.151169 0.40637004
vt 0.402499 0.33306396
vt 0.584547 0.331784
vt 0.536274 0.62405598
vt 0.536575 0.399768
vt 0.29114 0.319389
vt 0.284056 0.32748997
vt 0.74764 0.335586
vt 0.714174 0.32843697
vt 0.105451 0.31181204
vt 0.499353 0.40091503
vt 0.498397 0.323793
vt 0.526019 0.32246602
vt 0.559478 0.314367
vt 0.552125 0.31775796
vt 0.462196 0.624134
vt 0.950903 0.31904697
vt 0.975333 0.31978202
vt 0.929021 0.31470096
vt 0.582315 0.30563998
vt 0.565521 0.29741
vt 0.556991 0.30069
vt 0.419885 0.286677
vt 0.580021 0.28698504
vt 0.39766 0.298083
vt 0.400204 0.30796504
vt 0.842446 0.318487
vt 0.875369 0.31607604
vt 0.873249 0.306006
vt 0.842189 0.30683398
vt 0.808248 0.319162
vt 0.808062 0.306916
vt 0.771744 0.32072902
vt 0.772006 0.307549
vt 0.297012 0.317935
vt 0.296623 0.304753
vt 0.701725 0.30569
vt 0.701277 0.318848
vt 0.707135 0.32032597
vt 0.736932 0.303451
vt 0.736474 0.32110798
vt 0.261699 0.32004
vt 0.261337 0.30234003
vt 0.226125 0.30624902
vt 0.226304 0.31949103
vt 0.665865 0.303091
vt 0.189932 0.305314
vt 0.189669 0.31757104
vt 0.631925 0.30136204
vt 0.155607 0.30514896
vt 0.155262 0.31690598
vt 0.601224 0.29877996
vt 0.12211 0.31407797
vt 0.124377 0.303962
vt 0.102297 0.292911
vt 0.08791 0.304186
vt 0.909356 0.30676603
vt 0.895294 0.295376
vt 0.917761 0.31061196
vt 0.545351 0.304277
vt 0.523124 0.307939
vt 0.498519 0.309514
vt 0.045123 0.316571
vt 0.020834 0.31672
vt 0.488779 0.480349
vt 0.48084 0.480349
vt 0.48084 0.619995
vt 0.488779 0.619995
vt 0.916848 0.802113
vt 0.917911 0.79503101
vt 0.879997 0.77878898
vt 0.882053 0.80194402
vt 0.493102 0.480349
vt 0.499628 0.480349
vt 0.499628 0.619995
vt 0.493102 0.619995
vt 0.919276 0.79307401
vt 0.872695 0.765418
vt 0.467087 0.480349
vt 0.467087 0.480349
vt 0.467087 0.619995
vt 0.467087 0.619995
vt 0.919466 0.79161298
vt 0.875239 0.760768
vt 0.506156 0.480349
vt 0.508873 0.480349
vt 0.508873 0.619995
vt 0.506156 0.619995
vt 0.919467 0.78507102
vt 0.886145 0.747469
vt 0.510464 0.480349
vt 0.508859 0.480349
vt 0.508859 0.619995
vt 0.510464 0.619995
vt 0.919441 0.77331501
vt 0.900295 0.73694402
vt 0.499622 0.480349
vt 0.4931 0.480349
vt 0.4931 0.619995
vt 0.499622 0.619995
vt 0.919463 0.77335799
vt 0.927617 0.77359498
vt 0.916911 0.730017
vt 0.480838 0.480349
vt 0.488779 0.480349
vt 0.488779 0.619995
vt 0.480838 0.619995
vt 0.934785 0.77351898
vt 0.935011 0.72727698
vt 0.941692 0.83081102
vt 0.934524 0.830894
vt 0.93433 0.87710601
vt 0.952416 0.87434798
vt 0.532188 0.480349
vt 0.53214 0.480349
vt 0.53214 0.619995
vt 0.532188 0.619995
vt 0.949844 0.83104199
vt 0.96901 0.86741197
vt 0.53214 0.480349
vt 0.518399 0.480349
vt 0.518399 0.619995
vt 0.53214 0.619995
vt 0.949809 0.81930101
vt 0.983137 0.85688901
vt 0.518425 0.480349
vt 0.518425 0.619995
vt 0.949805 0.81277001
vt 0.994024 0.84360498
vt 0.490384 0.480349
vt 0.490384 0.619995
vt 0.949995 0.811311
vt 0.996565 0.83895499
vt 0.490385 0.480349
vt 0.490385 0.619995
vt 0.951358 0.80935699
vt 0.989267 0.825593
vt 0.506144 0.480349
vt 0.506144 0.619995
vt 0.95242 0.80229002
vt 0.987214 0.802468
vt 0.51048 0.480349
vt 0.51048 0.619995
vt 0.775967 0.20758098
vt 0.774806 0.240951
vt 0.810783 0.24274004
vt 0.812642 0.20962703
vt 0.597022 0.24441898
vt 0.631273 0.24032801
vt 0.738538 0.239227
vt 0.737877 0.26642096
vt 0.773938 0.26743102
vt 0.809619 0.268521
vt 0.843821 0.27009702
vt 0.8747 0.272475
vt 0.084019 0.26813304
vt 0.098957 0.27612996
vt 0.088383 0.25615597
vt 0.437987 0.009872019
vt 0.438137 0.21328598
vt 0.452215 0.21247202
vt 0.451914 0.009936988
vt 0.475347 0.010065019
vt 0.475431 0.21169698
vt 0.445359 0.26016796
vt 0.436494 0.261962
vt 0.500713 0.010231972
vt 0.500111 0.21173102
vt 0.259411 0.20467901
vt 0.260021 0.23798501
vt 0.29632 0.238163
vt 0.29607 0.20479
vt 0.332218 0.23840702
vt 0.332671 0.20530301
vt 0.702274 0.239223
vt 0.701852 0.265639
vt 0.666396 0.23929203
vt 0.66629 0.264948
vt 0.632285 0.26481402
vt 0.601653 0.26555598
vt 0.90994 0.25885403
vt 0.917832 0.221991
vt 0.914054 0.270679
vt 0.898959 0.27868903
vt 0.074685 0.26677597
vt 0.062496 0.015664995
vt 0.066743 0.21904004
vt 0.081012 0.21939701
vt 0.075621 0.015335023
vt 0.937316 0.017614007
vt 0.924141 0.017237008
vt 0.9322 0.22175503
vt 0.73931 0.205975
vt 0.702666 0.20592898
vt 0.666085 0.20632702
vt 0.369444 0.20678604
vt 0.367336 0.23961002
vt 0.401569 0.24378097
vt 0.406939 0.21032101
vt 0.960796 0.018257022
vt 0.955716 0.2216
vt 0.563074 0.26190197
vt 0.577397 0.270383
vt 0.567797 0.25038302
vt 0.396588 0.265554
vt 0.419181 0.27001202
vt 0.431228 0.249372
vt 0.980851 0.22202003
vt 0.956077 0.25560796
vt 0.979981 0.25627398
vt 0.986229 0.018940985
vt 0.039103 0.016233027
vt 0.013771 0.016840994
vt 0.018622 0.21910203
vt 0.043448 0.21884102
vt 0.923411 0.269749
vt 0.921635 0.25687099
vt 0.934401 0.25590503
vt 0.222727 0.206092
vt 0.223696 0.239505
vt 0.186028 0.207919
vt 0.187656 0.241059
vt 0.149158 0.210738
vt 0.152308 0.243523
vt 0.111765 0.21558297
vt 0.117838 0.248999
vt 0.260551 0.26523304
vt 0.296633 0.264643
vt 0.332219 0.26415896
vt 0.366198 0.264288
vt 0.123372 0.27023697
vt 0.547694 0.213036
vt 0.544068 0.24636197
vt 0.556508 0.24785197
vt 0.553979 0.26025498
vt 0.895928 0.016216993
vt 0.561658 0.21403897
vt 0.562543 0.010725975
vt 0.413895 0.33117104
vt 0.698166 0.34324396
vt 0.180067 0.011424005
vt 0.141905 0.012880027
vt 0.218277 0.01018703
vt 0.256542 0.009261012
vt 0.224408 0.266033
vt 0.728723 0.817244
vt 0.728746 0.93688601
vt 0.750205 0.93688297
vt 0.750184 0.81724203
vt 0.683749 0.66957402
vt 0.683742 0.78921598
vt 0.70521 0.789217
vt 0.705211 0.66957498
vt 0.642816 0.817258
vt 0.642853 0.93690002
vt 0.664339 0.936894
vt 0.664294 0.81725198
vt 0.294822 0.008919001
vt 0.333103 0.008919001
vt 0.016391 0.668954
vt 0.01639 0.78859502
vt 0.045229 0.78859502
vt 0.045229 0.668954
vt 0.704996 0.010455012
vt 0.666851 0.010351002
vt 0.343307 0.62581402
vt 0.380128 0.624991
vt 0.513979 0.817285
vt 0.514003 0.93692702
vt 0.53547 0.93692398
vt 0.535441 0.81728297
vt 0.332587 0.30235398
vt 0.366608 0.30053604
vt 0.074441 0.81401402
vt 0.074425 0.93365598
vt 0.103297 0.93365598
vt 0.103302 0.81401497
vt 0.074068 0.668953
vt 0.074068 0.78859502
vt 0.102909 0.78859502
vt 0.102908 0.668953
vt 0.24716 0.66894603
vt 0.247181 0.78858697
vt 0.276031 0.78858
vt 0.27602 0.668939
vt 0.333397 0.314552
vt 0.367478 0.31211698
vt 0.154337 0.268205
vt 0.188631 0.26688397
vt 0.189878 0.81402898
vt 0.189845 0.933671
vt 0.21868 0.93367702
vt 0.218717 0.81403601
vt 0.874831 0.631876
vt 0.819535 0.01315403
vt 0.85771 0.014661014
vt 0.693735 0.34302902
vt 0.77151 0.40801597
vt 0.955901 0.26904202
vt 0.935084 0.26912904
vt 0.189432 0.668954
vt 0.189457 0.78859502
vt 0.218323 0.788593
vt 0.218292 0.66895097
vt 0.499967 0.25798798
vt 0.512037 0.66956502
vt 0.512046 0.78920698
vt 0.533514 0.789208
vt 0.533515 0.66956598
vt 0.499247 0.62403
vt 0.122098 0.632666
vt 0.781361 0.011862993
vt 0.26963 0.62780702
vt 0.306473 0.626781
vt 0.247554 0.81404102
vt 0.247516 0.93368298
vt 0.276354 0.933689
vt 0.276392 0.81404698
vt 0.420595 0.814076
vt 0.420582 0.933718026
vt 0.449449 0.933721006
vt 0.449454 0.81407899
vt 0.543008 0.259207
vt 0.522727 0.258285
vt 0.409728 0.0096129775
vt 0.685779 0.817249
vt 0.685818 0.936890006
vt 0.707285 0.93688798
vt 0.707256 0.81724602
vt 0.362603 0.66892302
vt 0.362627 0.78856498
vt 0.391474 0.78856403
vt 0.391463 0.66892302
vt 0.232779 0.62883198
vt 0.195909 0.62992102
vt 0.039645 0.636733
vt 0.132172 0.81401801
vt 0.132159 0.93365997
vt 0.161006 0.93366498
vt 0.161033 0.81402302
vt 0.016729 0.81401801
vt 0.016713 0.93365902
vt 0.045564 0.933658004
vt 0.045589 0.81401598
vt 0.814567 0.81723398
vt 0.814588 0.936876
vt 0.83605 0.93687397
vt 0.836029 0.81723201
vt 0.304871 0.668931
vt 0.304893 0.78857303
vt 0.333764 0.788567
vt 0.333733 0.668926
vt 0.37139 0.009196997
vt 0.726677 0.669576
vt 0.726686 0.78921801
vt 0.748169 0.789217
vt 0.748154 0.669576
vt 0.554981 0.669567
vt 0.554975 0.78920901
vt 0.576434 0.78921002
vt 0.576442 0.66956902
vt 0.420309 0.66892302
vt 0.420312 0.78856498
vt 0.449148 0.78856498
vt 0.449147 0.66892302
vt 0.764872 0.62833
vt 0.597902 0.66957003
vt 0.597893 0.78921098
vt 0.619354 0.78921199
vt 0.619363 0.66957098
vt 0.063531 0.26597798
vt 0.042875 0.26571202
vt 0.979237 0.26996803
vt 0.159029 0.631159
vt 0.103751 0.014380991
vt 0.956523 0.635678
vt 0.743178 0.0108780265
vt 0.36291 0.81406403
vt 0.362876 0.933705986
vt 0.391723 0.93371302
vt 0.39175 0.814071
vt 0.019248 0.266021
vt 0.640825 0.669572
vt 0.640816 0.789213
vt 0.662279 0.78921402
vt 0.662287 0.669573
vt 0.599868 0.817271
vt 0.599905 0.93691301
vt 0.621375 0.93690598
vt 0.621345 0.81726402
vt 0.769637 0.66957402
vt 0.769644 0.78921503
vt 0.791114 0.78921199
vt 0.791115 0.66957098
vt 0.556908 0.81728
vt 0.556947 0.936922014
vt 0.578429 0.93691802
vt 0.578384 0.817276
vt 0.812586 0.669568
vt 0.812593 0.78920901
vt 0.834078 0.78920698
vt 0.834064 0.66956598
vt 0.305231 0.81405199
vt 0.305194 0.933694005
vt 0.334034 0.933700025
vt 0.334071 0.814058
vt 0.526061 0.010424018
vt 0.524649 0.21213603
vt 0.549442 0.010621011
vt 0.442992 0.24760002
vt 0.455701 0.246153
vt 0.500014 0.244757
vt 0.523151 0.24520499
vt 0.076779 0.253978
vt 0.476841 0.24509001
vt 0.064287 0.25299203
vt 0.019042 0.25245798
vt 0.042894 0.25236297
vt 0.855557 0.78920698
vt 0.855549 0.66956502
vt 0.477984 0.78856498
vt 0.477984 0.66892302
vt 0.857514 0.93687099
vt 0.857491 0.81722999
vt 0.478307 0.933721006
vt 0.478323 0.81408
vt 0.467087 0.480349
vt 0.467087 0.619995
vt 0.879249 0.825181
vt 0.917684 0.80923498
vt 0.871792 0.83855498
vt 0.874348 0.84325302
vt 0.919241 0.81268698
vt 0.919055 0.81121701
vt 0.53214 0.480349
vt 0.53214 0.480349
vt 0.53214 0.619995
vt 0.53214 0.619995
vt 0.88534 0.856727
vt 0.899567 0.86734998
vt 0.919127 0.83102101
vt 0.91922 0.81925797
vt 0.916226 0.87432998
vt 0.92734 0.83080697
vt 0.53214 0.480349
vt 0.53214 0.619995
vt 0.467087 0.480349
vt 0.467087 0.619995
vt 0.990029 0.779261
vt 0.951589 0.79518098
vt 0.994943 0.761199
vt 0.983976 0.74772102
vt 0.950066 0.78516799
vt 0.950037 0.79173303
vt 0.997491 0.76590002
vt 0.950222 0.79320198
vt 0.467087 0.480349
vt 0.467087 0.619995
vt 0.969768 0.737082
vt 0.950171 0.77341402
vt 0.953119 0.73007798
vt 0.941966 0.77361602
vt 0.499625 0.480349
vn -0.5744 -0.8186 0
vn -0.5744 -0.8186 0
vn -0.8437 -0.5367 0.0001
vn -0.8437 -0.5367 0.0001
vn -0.7342 0.0001 -0.6789
vn -0.9959 0.0002 -0.0907
vn -0.9539 -0.2555 -0.157
vn -0.7093 -0.19 -0.6789
vn -0.614 -0.6141 -0.4959
vn -0.4773 -0.4774 -0.7377
vn -0.3323 -0.5854 -0.7394
vn -0.4303 -0.7553 -0.4943
vn -0.6359 -0.3671 -0.6789
vn -0.8553 -0.4938 -0.157
vn -0.6983 -0.6984 -0.1569
vn -0.5192 -0.5192 -0.6789
vn 0.2195 -0.9714 -0.0905
vn 0.1323 -0.786 -0.6039
vn -0.369 -0.634 -0.6796
vn -0.4973 -0.8532 -0.157
vn 0.8185 -0.5745 0
vn 0.8185 -0.5745 0
vn 0.5362 -0.844 0
vn 0.5362 -0.844 0
vn -0.1793 -0.3492 -0.9197
vn -0.6864 -0.1758 -0.7057
vn 0.6747 0.172 -0.7178
vn 0.6792 0.0691 -0.7306
vn 0.6746 -0.1722 -0.7178
vn 0.5214 -0.3495 -0.7784
vn -0.6503 0.3964 -0.648
vn -0.6863 0.176 -0.7057
vn 0.6964 -0.697 0.171
vn 0.5174 -0.5178 0.6813
vn 0.3658 -0.6341 0.6812
vn 0.4923 -0.8535 0.171
vn -0.2198 -0.9713 -0.0905
vn 0.4971 -0.8534 -0.157
vn 0.3688 -0.6341 -0.6796
vn -0.1325 -0.7859 -0.6039
vn -0.6357 0.3674 -0.6789
vn -0.519 0.5194 -0.6789
vn -0.698 0.6986 -0.1569
vn -0.8551 0.4941 -0.157
vn 0.707 0.7071 0
vn 0.5 0.866 0
vn 0.4926 0.8533 0.171
vn 0.6966 0.6967 0.171
vn -0.6222 -0.6594 -0.422
vn -0.6504 -0.3962 -0.648
vn 0.4409 0.8975 0
vn 0.8308 0.5566 0
vn 0.5215 0.3493 -0.7784
vn 0.2853 0.581 -0.7622
vn 0.9539 0.2555 -0.157
vn 0.7685 0.1552 -0.6207
vn 0.6533 0.3772 -0.6564
vn 0.8553 0.4938 -0.157
vn -0.5332 0.5337 -0.6563
vn -0.6532 0.3775 -0.6564
vn -0.4971 0.8534 -0.157
vn -0.3789 0.6536 -0.6551
vn -0.7684 0.1556 -0.6207
vn -0.7519 0.4345 -0.4959
vn -0.8387 0.2249 -0.4959
vn 0.752 0.4342 -0.4959
vn 0.614 0.6141 -0.4959
vn 0.5334 0.5335 -0.6563
vn -0.43 0.7554 -0.4943
vn -0.6138 0.6143 -0.4959
vn 0.3789 -0.6536 -0.6551
vn 0.6565 0.3779 -0.6528
vn 0.7566 -0.0001 -0.6539
vn 1 -0.0002 0
vn 0.9289 0.3121 -0.1991
vn 0.3779 -0.656 -0.6533
vn 0.3808 -0.2547 -0.8889
vn 0.7892 -0.4607 -0.406
vn 0.6961 -0.4351 -0.5711
vn 0.8388 0.2246 -0.4959
vn 0.9959 -0.0002 -0.0907
vn 0.9668 -0.058 -0.2488
vn 0.7894 0.4604 -0.406
vn 0.6962 0.4349 -0.571
vn 0.7687 -0.1551 -0.6205
vn 0.8387 -0.2249 -0.4959
vn 0.6864 0.1758 -0.7057
vn 0.1793 0.3493 -0.9197
vn 0.3726 0.8332 -0.4086
vn 0.6222 0.6594 -0.422
vn -0.3791 -0.6535 -0.6551
vn 0.6219 -0.6596 -0.422
vn -0.4799 -0.8773 0
vn -0.3612 -0.6601 -0.6586
vn -0.7685 -0.1554 -0.6207
vn -0.6533 -0.3772 -0.6564
vn 0.8551 -0.4941 -0.157
vn 0.698 -0.6986 -0.1569
vn 0.5332 -0.5337 -0.6563
vn 0.6532 -0.3775 -0.6564
vn 0.7519 -0.4345 -0.4959
vn -0.752 -0.4342 -0.4959
vn -0.5334 -0.5335 -0.6563
vn -0.5846 -0.3376 -0.7377
vn -0.2195 0.9714 -0.0905
vn -0.6219 0.6596 -0.422
vn 0.3791 0.6535 -0.655
vn 0.4973 0.8532 -0.157
vn 0.2199 0.9713 -0.0905
vn 0.1325 0.7859 -0.6039
vn 0.3102 0.5671 -0.763
vn 0.4799 0.8773 0
vn -0.3101 0.5672 -0.763
vn -0.1323 0.786 -0.6039
vn -0.4797 0.8774 0
vn 1 -0.0002 0
vn 0.9668 0.058 -0.2487
vn -0.3809 -0.2546 -0.8888
vn -0.3781 -0.6559 -0.6533
vn -0.6962 -0.4348 -0.5711
vn -0.7894 -0.4604 -0.406
vn -0.9668 0.058 -0.2489
vn -0.929 0.3116 -0.1997
vn -0.6961 0.435 -0.5711
vn 0.9289 -0.3118 -0.1996
vn 0.6564 -0.3782 -0.6528
vn -0.3609 0.6602 -0.6586
vn 0.0002 1 0
vn 0.0001 0.758 -0.6522
vn 0.3611 0.6601 -0.6586
vn 0.4302 0.7553 -0.4943
vn -0.3723 0.8333 -0.4086
vn 0.9539 -0.2558 -0.157
vn 0.6138 -0.6143 -0.4959
vn -0.7566 0.0001 -0.6539
vn -0.6564 0.3782 -0.6528
vn -1 0.0002 0
vn -1 0.0002 0
vn -0.9668 -0.0576 -0.2489
vn -0.929 -0.3113 -0.1997
vn 0.0002 1 0
vn 0.0001 0.758 -0.6522
vn 0.6504 0.3962 -0.648
vn 0.6983 0.6984 -0.1569
vn 0.43 -0.7554 -0.4943
vn 0.3723 -0.8333 -0.4086
vn 0.3101 -0.5672 -0.763
vn 0.4797 -0.8774 0
vn 0.3809 0.2546 -0.8889
vn 0.3781 0.6559 -0.6533
vn -0.6565 -0.3779 -0.6528
vn -0.3779 0.656 -0.6533
vn -0.1792 0.3493 -0.9197
vn -0.0002 -1 0
vn -0.0001 -0.758 -0.6522
vn 0.3609 -0.6602 -0.6586
vn 0.6863 -0.176 -0.7057
vn 0.6503 -0.3964 -0.648
vn -0.3103 -0.5671 -0.763
vn -0.2854 -0.581 -0.7622
vn -0.0001 -0.6484 -0.7613
vn -0.5215 -0.3493 -0.7784
vn 0.1792 -0.3493 -0.9197
vn -0.6792 0.0693 -0.7306
vn -0.6746 0.1722 -0.7178
vn 0.4606 0.689 -0.5595
vn -0.4604 0.6892 -0.5595
vn -0.3669 0.636 -0.6789
vn 0.3321 -0.5856 -0.7394
vn -0.4772 0.4776 -0.7377
vn -0.3321 0.5856 -0.7394
vn 0.3669 -0.636 -0.6789
vn 0.519 -0.5194 -0.6789
vn -0.5845 0.3377 -0.7377
vn 0.6357 -0.3674 -0.6789
vn -0.652 0.1748 -0.7377
vn 0.7092 -0.1902 -0.6789
vn 0.652 -0.1748 -0.7377
vn -0.7092 0.1902 -0.6789
vn 0.7093 0.19 -0.6789
vn -0.6521 -0.1746 -0.7377
vn -0.3808 0.2547 -0.8888
vn 0.7342 -0.0001 -0.6789
vn 0 0 -1
vn 0 0 -1
vn -0.7342 0.0001 -0.6789
vn -0.7093 -0.19 -0.6789
vn 0.6521 0.1746 -0.7377
vn 0.6359 0.3671 -0.6789
vn -0.6359 -0.3671 -0.6789
vn 0.5846 0.3376 -0.7377
vn 0.5192 0.5192 -0.6789
vn -0.5192 -0.5192 -0.6789
vn 0.4773 0.4774 -0.7377
vn 0.3671 0.6359 -0.6789
vn 0.3323 0.5854 -0.7394
vn -0.3671 -0.6359 -0.6789
vn 0.4604 -0.6892 -0.5595
vn 0.6792 -0.0693 -0.7306
vn -0.6792 -0.0691 -0.7306
vn -0.4606 -0.689 -0.5595
vn -0.6747 -0.172 -0.7178
vn -0.5213 0.3495 -0.7784
vn -0.2852 0.5811 -0.7622
vn 0.0001 0.6484 -0.7613
vn 0.2852 -0.5811 -0.7622
vn -0.0001 -0.6484 -0.7613
vn 0 -0.7071 -0.7071
vn 0 -0.7071 -0.7071
vn 0 -0.7071 -0.7071
vn 0 -0.7071 -0.7071
vn 0 0.7071 -0.7071
vn 0 0.7071 -0.7071
vn 0.3101 -0.5672 -0.763
vn -0.0001 -0.636 -0.7717
vn 0 0.7071 -0.7071
vn 0 0.7071 -0.7071
vn 0 0.7071 -0.7071
vn 0 0.7071 -0.7071
vn 0 0.7071 -0.7071
vn 0.1323 -0.786 -0.6039
vn -0.7071 0 -0.7071
vn -0.5773 0.5773 -0.5773
vn -0.3015 0.3015 -0.9045
vn -0.7071 0 -0.7071
vn 0 0.7071 -0.7071
vn -0.369 -0.634 -0.6796
vn 0 0.7071 -0.7071
vn 0 0.7071 -0.7071
vn 0 0.7071 -0.7071
vn 0 0.7071 -0.7071
vn 0 0.7071 -0.7071
vn -0.5192 -0.5192 -0.6789
vn 0 -0.7071 -0.7071
vn 0 -0.7071 -0.7071
vn 0 -0.7071 -0.7071
vn 0 -0.7071 -0.7071
vn 0.1349 0.0361 -0.9902
vn -0.6359 -0.3671 -0.6789
vn 0 -0.7071 -0.7071
vn 0 -0.7071 -0.7071
vn 0 -0.7071 -0.7071
vn 0 -0.7071 -0.7071
vn 0.6862 -0.3963 -0.6099
vn 0.7071 0 -0.7071
vn -0.7093 -0.19 -0.6789
vn 0 0.7071 -0.7071
vn 0 0.7071 -0.7071
vn 0 0.7071 -0.7071
vn 0 0.7071 -0.7071
vn 0.7071 0 -0.7071
vn -0.7342 0.0001 -0.6789
vn -0.7071 0 -0.7071
vn -0.7071 0 -0.7071
vn 0.7342 -0.0001 -0.6789
vn 0.7093 0.19 -0.6789
vn 0.8121 0.2174 -0.5414
vn 0.4716 -0.2724 -0.8386
vn 0.6862 -0.3963 -0.6099
vn 0.1349 0.0361 -0.9902
vn -0.3015 -0.3015 -0.9045
vn 0.6359 0.3671 -0.6789
vn 0.5773 -0.5773 -0.5773
vn 0 -0.7071 -0.7071
vn 0 -0.7071 -0.7071
vn 0.3015 -0.3015 -0.9045
vn 0 -0.7071 -0.7071
vn 0.5192 0.5192 -0.6789
vn 0 0.7071 -0.7071
vn 0 0.7071 -0.7071
vn 0 -0.7071 -0.7071
vn 0.369 0.634 -0.6796
vn 0 -0.7071 -0.7071
vn 0 -0.7071 -0.7071
vn 0 -0.7071 -0.7071
vn -0.1323 0.786 -0.6039
vn 0 0.7071 -0.7071
vn 0 0.7071 -0.7071
vn 0 -0.7071 -0.7071
vn -0.3101 0.5672 -0.763
vn 0 -0.7071 -0.7071
vn 0 -0.7071 -0.7071
vn 0 -0.7071 -0.7071
vn 0.0001 0.636 -0.7717
vn 0 0.7071 -0.7071
vn 0 0.7071 -0.7071
vn 0.9516 -0.2553 0.1711
vn 0.707 -0.1896 0.6813
vn 0.6338 -0.3662 0.6813
vn 0.8531 -0.4929 0.1711
vn 0.366 0.634 0.6812
vn 0.5176 0.5177 0.6813
vn 0.732 -0.0001 0.6813
vn 0.8596 -0.0001 0.5109
vn 0.8303 -0.2227 0.5109
vn 0.7443 -0.4301 0.5108
vn 0.6076 -0.6081 0.5108
vn 0.4295 -0.7446 0.5108
vn 0.9948 -0.1015 0
vn 0.4708 -0.7698 0.4309
vn 0.649 -0.5893 0.4811
vn 0.4268 0.9043 0
vn 0.4896 0.8633 0.122
vn 0.8354 0.5496 0
vn 0.8308 0.5566 0
vn 0.4409 0.8975 0
vn 0.4409 0.8975 0
vn 0.969 0.2471 0
vn 0.9948 0.1012 0
vn 0.0002 1 0
vn 0.0002 1 0
vn -0.9852 0.0002 0.1711
vn -0.732 0.0001 0.6813
vn -0.707 0.1896 0.6813
vn -0.9516 0.2553 0.1711
vn -0.6338 0.3662 0.6813
vn -0.8531 0.4929 0.1711
vn 0.707 0.1894 0.6813
vn 0.8303 0.2224 0.5109
vn 0.6339 0.366 0.6813
vn 0.7445 0.4299 0.5108
vn 0.6078 0.6079 0.5108
vn 0.4298 0.7445 0.5108
vn -0.6492 -0.5891 0.4811
vn -0.4896 -0.8633 0.122
vn -0.9948 -0.1012 0
vn -0.4711 -0.7696 0.4309
vn 0.9689 -0.2474 0
vn 0.8306 -0.5568 0
vn 0.8352 -0.5499 0
vn 0.4893 -0.8635 0.122
vn 0.4265 -0.9044 0
vn -0.8308 -0.5566 0
vn -0.4268 -0.9043 0
vn -0.8354 -0.5496 0
vn 0.9852 -0.0002 0.1711
vn 0.9517 0.255 0.1711
vn 0.8532 0.4927 0.1711
vn -0.6964 0.697 0.171
vn -0.5174 0.5178 0.6813
vn -0.3658 0.6341 0.6812
vn -0.4923 0.8535 0.171
vn -0.4409 -0.8975 0
vn -0.4409 -0.8975 0
vn -0.9948 0.1015 0
vn -0.4708 0.7698 0.4309
vn -0.649 0.5893 0.4811
vn -0.4295 0.7446 0.5108
vn 0.4711 0.7696 0.4309
vn 0.6492 0.5891 0.4811
vn -0.0002 -1 0
vn -0.4409 -0.8975 0
vn -0.0002 -1 0
vn -0.0002 -1 0
vn 0.4406 -0.8977 0
vn -0.0002 -1 0
vn -0.0002 -1 0
vn 0.4406 -0.8977 0
vn -0.969 -0.2471 0
vn -0.9665 -0.2565 0
vn -0.8308 -0.5566 0
vn -0.9517 -0.255 0.1711
vn -0.707 -0.1894 0.6813
vn -0.8532 -0.4927 0.1711
vn -0.6339 -0.366 0.6813
vn -0.6966 -0.6967 0.171
vn -0.5176 -0.5177 0.6813
vn -0.4926 -0.8533 0.171
vn -0.366 -0.634 0.6812
vn -0.8596 0.0001 0.5109
vn -0.8303 0.2227 0.5109
vn -0.7443 0.4301 0.5108
vn -0.6076 0.6081 0.5108
vn -0.4298 -0.7445 0.5108
vn -0.8352 0.5499 0
vn -0.8306 0.5568 0
vn -0.9665 0.2568 0
vn -0.9689 0.2474 0
vn 0.4997 -0.8662 0
vn -0.4893 0.8635 0.122
vn -0.4265 0.9044 0
vn -0.3726 -0.8332 -0.4086
vn -0.7892 0.4606 -0.406
vn -0.866 -0.5 0
vn -0.707 -0.7071 0
vn -0.9659 -0.2588 0
vn -1 0.0002 0
vn -0.8303 -0.2224 0.5109
vn 0.985 0.1726 0
vn 0.985 0.1725 0
vn 0.976 -0.2174 0
vn 0.976 -0.2174 0
vn -0.5744 -0.8186 0
vn -0.5744 -0.8186 0
vn -0.8437 -0.5367 0.0001
vn -0.8437 -0.5367 0.0001
vn -0.1719 0.9851 -0.0001
vn -0.1719 0.9851 -0.0001
vn 0.2184 0.9758 -0.0002
vn 0.2184 0.9759 -0.0002
vn -0.9658 0.2591 0
vn -0.8658 0.5003 0
vn 0.8185 -0.5745 0
vn 0.8185 -0.5745 0
vn 0.5363 -0.844 0
vn 0.5363 -0.844 0
vn 0.9659 0.2588 0
vn 0.866 0.5 0
vn 0.6357 -0.3674 -0.6789
vn 0.519 -0.5194 -0.6789
vn -0.5744 -0.8186 0
vn -0.5744 -0.8186 0
vn -0.8437 -0.5367 0.0001
vn -0.8437 -0.5367 0.0001
vn -0.6357 0.3674 -0.6789
vn -0.519 0.5194 -0.6789
vn -0.1719 0.9851 -0.0002
vn -0.1719 0.9851 -0.0002
vn 0.2184 0.9758 -0.0002
vn 0.2184 0.9759 -0.0002
vn 0.1724 -0.985 0
vn 0.1724 -0.985 0
vn -0.2176 -0.976 0
vn -0.2176 -0.976 0
vn -0.8188 0.5741 0.0002
vn -0.8188 0.5741 0.0002
vn -0.5363 0.844 0
vn -0.5362 0.8441 0
vn 0.5845 -0.3377 -0.7377
vn 0.4772 -0.4776 -0.7377
vn -0.6078 -0.6079 0.5108
vn -0.7445 -0.4299 0.5108
vn 0.985 0.1725 0
vn 0.985 0.1725 0
vn 0.976 -0.2174 0
vn 0.976 -0.2174 0
vn -0.3688 0.6341 -0.6796
vn 0.8658 -0.5003 0
vn 0.7068 -0.7074 0
vn -0.8388 -0.2246 -0.4959
vn -0.9539 0.2558 -0.157
vn -0.4409 -0.8975 0
vn -0.8308 -0.5566 0
vn -0.9848 -0.1733 0.0002
vn -0.9849 -0.1733 0.0002
vn -0.9762 0.2167 0.0002
vn -0.9762 0.2167 0.0002
vn 0.0002 1 0
vn 0.575 0.8181 -0.0001
vn 0.575 0.8181 -0.0001
vn 0.8441 0.5361 -0.0001
vn 0.8441 0.5361 -0.0001
vn -0.0001 -0.636 -0.7717
vn 0.369 0.634 -0.6796
vn 0.9658 -0.2591 0
vn 0.7342 -0.0001 -0.6789
vn 0.7092 -0.1902 -0.6789
vn 0.8185 -0.5745 0
vn 0.8185 -0.5745 0
vn 0.5363 -0.844 0
vn 0.5363 -0.844 0
vn -0.9848 -0.1733 0.0002
vn -0.9849 -0.1733 0.0002
vn -0.9762 0.2167 0.0002
vn -0.9762 0.2167 0.0002
vn -0.8306 0.5568 0
vn -0.4406 0.8977 0
vn -0.4997 0.8662 0
vn 0.575 0.8181 -0.0001
vn 0.575 0.8181 -0.0001
vn 0.8441 0.5361 -0.0001
vn 0.8441 0.5361 -0.0001
vn 0.575 0.8181 -0.0002
vn 0.575 0.8181 -0.0002
vn 0.8441 0.5361 -0.0001
vn 0.8441 0.5361 -0.0001
vn 0.7093 0.19 -0.6789
vn 0.6359 0.3671 -0.6789
vn 0.0001 0.636 -0.7717
vn 0.575 0.8181 -0.0002
vn 0.575 0.8181 -0.0002
vn 0.8441 0.5361 -0.0001
vn 0.8441 0.5361 -0.0001
vn -0.8188 0.5741 0.0002
vn -0.8188 0.5741 0.0002
vn -0.5363 0.844 0
vn -0.5362 0.8441 0
vn 0.1724 -0.985 0
vn 0.1724 -0.985 0
vn -0.2176 -0.976 0
vn -0.2176 -0.976 0
vn -0.1719 0.9851 -0.0002
vn -0.1719 0.9851 -0.0002
vn 0.2184 0.9758 -0.0002
vn 0.2184 0.9758 -0.0002
vn -0.7068 0.7074 0
vn -0.9848 -0.1733 0.0001
vn -0.9849 -0.1733 0.0001
vn -0.9762 0.2167 0.0002
vn -0.9762 0.2167 0.0002
vn 0.985 0.1725 0
vn 0.985 0.1725 0
vn 0.976 -0.2174 0
vn 0.976 -0.2174 0
vn 0.985 0.1725 0
vn 0.985 0.1725 0
vn 0.976 -0.2174 0
vn 0.976 -0.2174 0
vn -0.7092 0.1902 -0.6789
vn 0.8185 -0.5745 0
vn 0.8185 -0.5745 0
vn 0.5363 -0.844 0
vn 0.5363 -0.844 0
vn 0.8306 -0.5568 0
vn 0.4406 -0.8977 0
vn -0.0002 -1 0
vn 0.5192 0.5192 -0.6789
vn -0.5 -0.866 0
vn 0.0001 0.636 -0.7717
vn 1 -0.0002 0
vn -0.5744 -0.8186 0
vn -0.5744 -0.8186 0
vn -0.8437 -0.5367 0.0001
vn -0.8437 -0.5367 0.0001
vn -0.0002 -1 0
vn 0.1724 -0.985 0
vn 0.1724 -0.985 0
vn -0.2176 -0.976 0
vn -0.2176 -0.976 0
vn -0.8188 0.5741 0.0001
vn -0.8188 0.5741 0.0001
vn -0.5363 0.844 0
vn -0.5362 0.8441 0
vn -0.8188 0.5741 0.0001
vn -0.8188 0.5741 0.0001
vn -0.5363 0.844 0
vn -0.5362 0.8441 0
vn -0.9848 -0.1733 0.0001
vn -0.9849 -0.1733 0.0001
vn -0.9762 0.2167 0.0002
vn -0.9762 0.2167 0.0002
vn -0.1719 0.9851 -0.0001
vn -0.1719 0.9851 -0.0001
vn 0.2184 0.9758 -0.0002
vn 0.2184 0.9759 -0.0002
vn 0.1724 -0.985 0
vn 0.1724 -0.985 0
vn -0.2176 -0.976 0
vn -0.2176 -0.976 0
vn -0.4406 0.8977 0
vn -0.4406 0.8977 0
vn -0.8306 0.5568 0
vn 0.9665 0.2565 0
vn 0.8308 0.5566 0
vn 0.0002 1 0
vn -0.4406 0.8977 0
vn 0.9665 -0.2568 0
vn 0.4409 0.8975 0
vn 0.8306 -0.5568 0
vn -0.0002 -1 0
vn 0.4406 -0.8977 0
vn 0.575 0.8181 -0.0001
vn 0.575 0.8181 -0.0001
vn 0.8185 -0.5745 0
vn 0.8185 -0.5745 0
vn -0.5744 -0.8186 0
vn -0.5744 -0.8186 0
vn -0.8188 0.5741 0.0002
vn -0.8188 0.5741 0.0002
vn -0.5773 -0.5773 -0.5773
vn -0.3015 -0.3015 -0.9045
vn -0.3103 -0.5671 -0.763
vn 0 0.7071 -0.7071
vn -0.1325 -0.7859 -0.6039
vn 0.3688 -0.6341 -0.6796
vn 0 0.7071 -0.7071
vn 0 0.7071 -0.7071
vn 0.7071 0 -0.7071
vn 0.7071 0 -0.7071
vn 0.7071 0 -0.7071
vn 0.7071 0 -0.7071
vn 0.519 -0.5194 -0.6789
vn 0.6357 -0.3674 -0.6789
vn -0.3015 0.3015 -0.9045
vn 0 0.7071 -0.7071
vn 0.7092 -0.1902 -0.6789
vn -0.7071 0 -0.7071
vn 0.7071 0 -0.7071
vn 0.7071 0 -0.7071
vn -0.7071 0 -0.7071
vn -0.7071 0 -0.7071
vn 0.3102 0.5671 -0.763
vn 0 -0.7071 -0.7071
vn -0.3688 0.6341 -0.6796
vn -0.519 0.5194 -0.6789
vn 0 -0.7071 -0.7071
vn 0 -0.7071 -0.7071
vn 0.1325 0.7859 -0.6039
vn 0 -0.7071 -0.7071
vn -0.7071 0 -0.7071
vn -0.7071 0 -0.7071
vn -0.6357 0.3674 -0.6789
vn 0.3015 -0.3015 -0.9045
vn -0.7092 0.1902 -0.6789
vn 0.7071 0 -0.7071
vn 0 0 -1
f 405/405/405 404/404/404 403/403/403
f 406/406/406 405/405/405 403/403/403
f 422/422/422 405/405/405 406/406/406
f 421/421/421 422/422/422 406/406/406
f 423/423/423 422/422/422 421/421/421
f 424/424/424 423/423/423 421/421/421
f 2/2/2 423/423/423 424/424/424
f 1/1/1 2/2/2 424/424/424
f 3/3/3 2/2/2 1/1/1
f 4/4/4 3/3/3 1/1/1
f 445/445/445 3/3/3 4/4/4
f 444/444/444 445/445/445 4/4/4
f 446/446/446 445/445/445 444/444/444
f 447/447/447 446/446/446 444/444/444
f 426/426/426 446/446/446 447/447/447
f 425/425/425 426/426/426 447/447/447
f 427/427/427 426/426/426 425/425/425
f 428/428/428 427/427/427 425/425/425
f 493/493/493 427/427/427 428/428/428
f 492/492/492 493/493/493 428/428/428
f 494/494/494 493/493/493 492/492/492
f 495/495/495 494/494/494 492/492/492
f 474/474/474 494/494/494 495/495/495
f 473/473/473 474/474/474 495/495/495
f 475/475/475 474/474/474 473/473/473
f 476/476/476 475/475/475 473/473/473
f 506/506/506 475/475/475 476/476/476
f 505/505/505 506/506/506 476/476/476
f 507/507/507 506/506/506 505/505/505
f 508/508/508 507/507/507 505/505/505
f 564/564/564 507/507/507 508/508/508
f 565/565/565 564/564/564 508/508/508
f 7/7/7 6/6/6 5/5/5
f 8/8/8 7/7/7 5/5/5
f 6/6/6 441/441/441 5/5/5
f 441/441/441 509/509/509 5/5/5
f 14/14/14 7/7/7 8/8/8
f 13/13/13 14/14/14 8/8/8
f 441/441/441 44/44/44 509/509/509
f 44/44/44 41/41/41 509/509/509
f 15/15/15 14/14/14 13/13/13
f 16/16/16 15/15/15 13/13/13
f 44/44/44 43/43/43 41/41/41
f 43/43/43 42/42/42 41/41/41
f 20/20/20 15/15/15 16/16/16
f 19/19/19 20/20/20 16/16/16
f 43/43/43 61/61/61 42/42/42
f 61/61/61 437/437/437 42/42/42
f 20/20/20 19/19/19 17/17/17
f 19/19/19 18/18/18 17/17/17
f 17/17/17 18/18/18 147/147/147
f 20/20/20 91/91/91 15/15/15
f 20/20/20 17/17/17 91/91/91
f 15/15/15 103/103/103 14/14/14
f 91/91/91 103/103/103 15/15/15
f 148/148/148 17/17/17 147/147/147
f 148/148/148 147/147/147 453/453/453
f 103/103/103 96/96/96 14/14/14
f 14/14/14 96/96/96 7/7/7
f 154/154/154 148/148/148 453/453/453
f 154/154/154 453/453/453 159/159/159
f 96/96/96 95/95/95 7/7/7
f 7/7/7 95/95/95 6/6/6
f 103/103/103 9/9/9 96/96/96
f 96/96/96 102/102/102 95/95/95
f 9/9/9 102/102/102 96/96/96
f 91/91/91 12/12/12 103/103/103
f 12/12/12 9/9/9 103/103/103
f 17/17/17 92/92/92 91/91/91
f 146/146/146 12/12/12 91/91/91
f 92/92/92 146/146/146 91/91/91
f 157/157/157 92/92/92 17/17/17
f 146/146/146 92/92/92 157/157/157
f 146/146/146 163/163/163 12/12/12
f 163/163/163 146/146/146 157/157/157
f 12/12/12 11/11/11 9/9/9
f 163/163/163 11/11/11 12/12/12
f 158/158/158 157/157/157 17/17/17
f 158/158/158 17/17/17 148/148/148
f 164/164/164 163/163/163 157/157/157
f 156/156/156 158/158/158 148/148/148
f 156/156/156 148/148/148 154/154/154
f 165/165/165 157/157/157 158/158/158
f 165/165/165 164/164/164 157/157/157
f 203/203/203 158/158/158 156/156/156
f 203/203/203 165/165/165 158/158/158
f 164/164/164 167/167/167 163/163/163
f 11/11/11 163/163/163 167/167/167
f 164/164/164 165/165/165 345/345/345
f 346/346/346 167/167/167 164/164/164
f 345/345/345 346/346/346 164/164/164
f 165/165/165 378/378/378 345/345/345
f 378/378/378 165/165/165 203/203/203
f 347/347/347 346/346/346 345/345/345
f 345/345/345 378/378/378 347/347/347
f 167/167/167 346/346/346 323/323/323
f 466/466/466 378/378/378 203/203/203
f 195/195/195 167/167/167 323/323/323
f 195/195/195 11/11/11 167/167/167
f 204/204/204 203/203/203 156/156/156
f 203/203/203 204/204/204 466/466/466
f 11/11/11 195/195/195 192/192/192
f 377/377/377 378/378/378 466/466/466
f 378/378/378 377/377/377 347/347/347
f 10/10/10 11/11/11 192/192/192
f 11/11/11 10/10/10 9/9/9
f 192/192/192 195/195/195 322/322/322
f 195/195/195 323/323/323 322/322/322
f 10/10/10 104/104/104 9/9/9
f 104/104/104 102/102/102 9/9/9
f 10/10/10 192/192/192 189/189/189
f 104/104/104 10/10/10 189/189/189
f 192/192/192 322/322/322 321/321/321
f 189/189/189 192/192/192 321/321/321
f 102/102/102 104/104/104 440/440/440
f 102/102/102 440/440/440 95/95/95
f 104/104/104 189/189/189 180/180/180
f 104/104/104 181/181/181 440/440/440
f 181/181/181 104/104/104 180/180/180
f 189/189/189 321/321/321 319/319/319
f 180/180/180 189/189/189 319/319/319
f 440/440/440 181/181/181 383/383/383
f 95/95/95 440/440/440 124/124/124
f 440/440/440 383/383/383 124/124/124
f 181/181/181 182/182/182 383/383/383
f 182/182/182 181/181/181 180/180/180
f 124/124/124 383/383/383 152/152/152
f 383/383/383 182/182/182 152/152/152
f 124/124/124 123/123/123 95/95/95
f 123/123/123 124/124/124 152/152/152
f 182/182/182 180/180/180 183/183/183
f 123/123/123 122/122/122 95/95/95
f 95/95/95 122/122/122 6/6/6
f 183/183/183 180/180/180 294/294/294
f 180/180/180 319/319/319 294/294/294
f 122/122/122 138/138/138 6/6/6
f 138/138/138 122/122/122 123/123/123
f 184/184/184 182/182/182 183/183/183
f 182/182/182 184/184/184 152/152/152
f 136/136/136 123/123/123 152/152/152
f 184/184/184 136/136/136 152/152/152
f 123/123/123 136/136/136 135/135/135
f 184/184/184 135/135/135 136/136/136
f 137/137/137 138/138/138 123/123/123
f 137/137/137 123/123/123 135/135/135
f 138/138/138 139/139/139 6/6/6
f 139/139/139 138/138/138 137/137/137
f 137/137/137 135/135/135 151/151/151
f 151/151/151 135/135/135 184/184/184
f 140/140/140 139/139/139 137/137/137
f 140/140/140 137/137/137 151/151/151
f 139/139/139 63/63/63 6/6/6
f 63/63/63 441/441/441 6/6/6
f 139/139/139 140/140/140 120/120/120
f 120/120/120 140/140/140 151/151/151
f 63/63/63 139/139/139 120/120/120
f 119/119/119 151/151/151 184/184/184
f 119/119/119 120/120/120 151/151/151
f 118/118/118 119/119/119 184/184/184
f 120/120/120 119/119/119 118/118/118
f 184/184/184 183/183/183 177/177/177
f 118/118/118 184/184/184 177/177/177
f 177/177/177 183/183/183 294/294/294
f 121/121/121 120/120/120 118/118/118
f 63/63/63 120/120/120 121/121/121
f 177/177/177 176/176/176 118/118/118
f 121/121/121 118/118/118 176/176/176
f 295/295/295 177/177/177 294/294/294
f 65/65/65 121/121/121 176/176/176
f 65/65/65 63/63/63 121/121/121
f 177/177/177 175/175/175 176/176/176
f 175/175/175 177/177/177 295/295/295
f 176/176/176 174/174/174 65/65/65
f 175/175/175 174/174/174 176/176/176
f 65/65/65 64/64/64 63/63/63
f 174/174/174 64/64/64 65/65/65
f 63/63/63 60/60/60 441/441/441
f 64/64/64 60/60/60 63/63/63
f 60/60/60 44/44/44 441/441/441
f 174/174/174 170/170/170 64/64/64
f 60/60/60 59/59/59 44/44/44
f 59/59/59 43/43/43 44/44/44
f 64/64/64 70/70/70 60/60/60
f 70/70/70 59/59/59 60/60/60
f 170/170/170 70/70/70 64/64/64
f 59/59/59 62/62/62 43/43/43
f 62/62/62 61/61/61 43/43/43
f 70/70/70 69/69/69 59/59/59
f 69/69/69 62/62/62 59/59/59
f 170/170/170 171/171/171 70/70/70
f 171/171/171 69/69/69 70/70/70
f 173/173/173 170/170/170 174/174/174
f 175/175/175 173/173/173 174/174/174
f 172/172/172 171/171/171 170/170/170
f 173/173/173 172/172/172 170/170/170
f 173/173/173 175/175/175 296/296/296
f 296/296/296 175/175/175 295/295/295
f 172/172/172 173/173/173 297/297/297
f 297/297/297 173/173/173 296/296/296
f 172/172/172 201/201/201 171/171/171
f 296/296/296 295/295/295 288/288/288
f 171/171/171 88/88/88 69/69/69
f 201/201/201 88/88/88 171/171/171
f 295/295/295 294/294/294 293/293/293
f 288/288/288 295/295/295 293/293/293
f 294/294/294 319/319/319 293/293/293
f 88/88/88 89/89/89 69/69/69
f 69/69/69 89/89/89 62/62/62
f 319/319/319 318/318/318 293/293/293
f 319/319/319 321/321/321 318/318/318
f 89/89/89 90/90/90 62/62/62
f 321/321/321 320/320/320 318/318/318
f 321/321/321 322/322/322 320/320/320
f 293/293/293 318/318/318 336/336/336
f 288/288/288 293/293/293 336/336/336
f 318/318/318 320/320/320 337/337/337
f 318/318/318 337/337/337 336/336/336
f 322/322/322 292/292/292 320/320/320
f 322/322/322 323/323/323 292/292/292
f 320/320/320 338/338/338 337/337/337
f 320/320/320 292/292/292 338/338/338
f 336/336/336 337/337/337 520/520/520
f 337/337/337 338/338/338 407/407/407
f 337/337/337 407/407/407 520/520/520
f 338/338/338 408/408/408 407/407/407
f 287/287/287 336/336/336 520/520/520
f 287/287/287 288/288/288 336/336/336
f 455/455/455 287/287/287 520/520/520
f 338/338/338 48/48/48 408/408/408
f 292/292/292 48/48/48 338/338/338
f 48/48/48 45/45/45 408/408/408
f 323/323/323 291/291/291 292/292/292
f 292/292/292 291/291/291 48/48/48
f 323/323/323 346/346/346 291/291/291
f 346/346/346 347/347/347 291/291/291
f 48/48/48 47/47/47 45/45/45
f 291/291/291 47/47/47 48/48/48
f 47/47/47 46/46/46 45/45/45
f 291/291/291 347/347/347 380/380/380
f 47/47/47 291/291/291 380/380/380
f 46/46/46 47/47/47 380/380/380
f 381/381/381 46/46/46 380/380/380
f 347/347/347 377/377/377 380/380/380
f 552/552/552 381/381/381 380/380/380
f 377/377/377 375/375/375 380/380/380
f 375/375/375 552/552/552 380/380/380
f 377/377/377 376/376/376 375/375/375
f 376/376/376 377/377/377 466/466/466
f 375/375/375 551/551/551 552/552/552
f 551/551/551 550/550/550 552/552/552
f 376/376/376 556/556/556 375/375/375
f 556/556/556 551/551/551 375/375/375
f 466/466/466 467/467/467 376/376/376
f 467/467/467 556/556/556 376/376/376
f 204/204/204 467/467/467 466/466/466
f 551/551/551 311/311/311 550/550/550
f 311/311/311 310/310/310 550/550/550
f 556/556/556 555/555/555 551/551/551
f 555/555/555 311/311/311 551/551/551
f 467/467/467 448/448/448 556/556/556
f 448/448/448 555/555/555 556/556/556
f 204/204/204 205/205/205 467/467/467
f 205/205/205 448/448/448 467/467/467
f 311/311/311 307/307/307 310/310/310
f 307/307/307 306/306/306 310/310/310
f 555/555/555 558/558/558 311/311/311
f 558/558/558 307/307/307 311/311/311
f 448/448/448 51/51/51 555/555/555
f 51/51/51 558/558/558 555/555/555
f 205/205/205 54/54/54 448/448/448
f 54/54/54 51/51/51 448/448/448
f 205/205/205 204/204/204 155/155/155
f 54/54/54 205/205/205 155/155/155
f 204/204/204 156/156/156 155/155/155
f 155/155/155 156/156/156 154/154/154
f 54/54/54 53/53/53 51/51/51
f 155/155/155 154/154/154 93/93/93
f 93/93/93 154/154/154 159/159/159
f 94/94/94 54/54/54 155/155/155
f 94/94/94 155/155/155 93/93/93
f 53/53/53 54/54/54 94/94/94
f 93/93/93 159/159/159 37/37/37
f 159/159/159 40/40/40 37/37/37
f 50/50/50 94/94/94 93/93/93
f 50/50/50 53/53/53 94/94/94
f 37/37/37 50/50/50 93/93/93
f 40/40/40 39/39/39 37/37/37
f 53/53/53 52/52/52 51/51/51
f 51/51/51 52/52/52 558/558/558
f 39/39/39 38/38/38 37/37/37
f 38/38/38 39/39/39 410/410/410
f 52/52/52 554/554/554 558/558/558
f 558/558/558 554/554/554 307/307/307
f 98/98/98 38/38/38 410/410/410
f 98/98/98 410/410/410 409/409/409
f 37/37/37 38/38/38 71/71/71
f 71/71/71 38/38/38 98/98/98
f 97/97/97 98/98/98 409/409/409
f 97/97/97 409/409/409 457/457/457
f 49/49/49 37/37/37 71/71/71
f 50/50/50 37/37/37 49/49/49
f 99/99/99 71/71/71 98/98/98
f 99/99/99 98/98/98 97/97/97
f 382/382/382 49/49/49 71/71/71
f 133/133/133 97/97/97 457/457/457
f 133/133/133 457/457/457 456/456/456
f 26/26/26 50/50/50 49/49/49
f 49/49/49 382/382/382 26/26/26
f 27/27/27 53/53/53 50/50/50
f 26/26/26 27/27/27 50/50/50
f 52/52/52 53/53/53 27/27/27
f 382/382/382 25/25/25 26/26/26
f 27/27/27 26/26/26 25/25/25
f 145/145/145 382/382/382 71/71/71
f 25/25/25 382/382/382 145/145/145
f 145/145/145 71/71/71 99/99/99
f 308/308/308 52/52/52 27/27/27
f 554/554/554 52/52/52 308/308/308
f 28/28/28 27/27/27 25/25/25
f 27/27/27 28/28/28 308/308/308
f 169/169/169 25/25/25 145/145/145
f 553/553/553 554/554/554 308/308/308
f 134/134/134 145/145/145 99/99/99
f 169/169/169 145/145/145 134/134/134
f 100/100/100 99/99/99 97/97/97
f 134/134/134 99/99/99 100/100/100
f 100/100/100 97/97/97 133/133/133
f 308/308/308 309/309/309 553/553/553
f 28/28/28 309/309/309 308/308/308
f 304/304/304 554/554/554 553/553/553
f 554/554/554 304/304/304 307/307/307
f 307/307/307 304/304/304 306/306/306
f 304/304/304 305/305/305 306/306/306
f 305/305/305 304/304/304 302/302/302
f 309/309/309 350/350/350 553/553/553
f 553/553/553 350/350/350 304/304/304
f 304/304/304 303/303/303 302/302/302
f 350/350/350 303/303/303 304/304/304
f 468/468/468 302/302/302 303/303/303
f 342/342/342 468/468/468 303/303/303
f 303/303/303 350/350/350 342/342/342
f 468/468/468 342/342/342 496/496/496
f 309/309/309 349/349/349 350/350/350
f 349/349/349 309/309/309 28/28/28
f 350/350/350 341/341/341 342/342/342
f 350/350/350 349/349/349 341/341/341
f 342/342/342 339/339/339 496/496/496
f 342/342/342 341/341/341 339/339/339
f 496/496/496 339/339/339 402/402/402
f 166/166/166 349/349/349 28/28/28
f 25/25/25 166/166/166 28/28/28
f 25/25/25 169/169/169 166/166/166
f 339/339/339 317/317/317 402/402/402
f 402/402/402 317/317/317 401/401/401
f 349/349/349 166/166/166 348/348/348
f 349/349/349 348/348/348 341/341/341
f 341/341/341 340/340/340 339/339/339
f 341/341/341 348/348/348 340/340/340
f 339/339/339 340/340/340 317/317/317
f 166/166/166 168/168/168 348/348/348
f 169/169/169 168/168/168 166/166/166
f 348/348/348 373/373/373 340/340/340
f 348/348/348 168/168/168 373/373/373
f 340/340/340 316/316/316 317/317/317
f 340/340/340 373/373/373 316/316/316
f 317/317/317 315/315/315 401/401/401
f 317/317/317 316/316/316 315/315/315
f 401/401/401 315/315/315 387/387/387
f 169/169/169 430/430/430 168/168/168
f 430/430/430 169/169/169 134/134/134
f 168/168/168 416/416/416 373/373/373
f 430/430/430 416/416/416 168/168/168
f 373/373/373 372/372/372 316/316/316
f 373/373/373 416/416/416 372/372/372
f 430/430/430 134/134/134 101/101/101
f 101/101/101 134/134/134 100/100/100
f 430/430/430 429/429/429 416/416/416
f 429/429/429 430/430/430 101/101/101
f 416/416/416 415/415/415 372/372/372
f 429/429/429 415/415/415 416/416/416
f 316/316/316 372/372/372 314/314/314
f 316/316/316 314/314/314 315/315/315
f 372/372/372 415/415/415 371/371/371
f 372/372/372 371/371/371 314/314/314
f 315/315/315 314/314/314 312/312/312
f 315/315/315 312/312/312 387/387/387
f 314/314/314 371/371/371 313/313/313
f 314/314/314 313/313/313 312/312/312
f 312/312/312 362/362/362 387/387/387
f 362/362/362 386/386/386 387/387/387
f 313/313/313 363/363/363 312/312/312
f 363/363/363 362/362/362 312/312/312
f 362/362/362 364/364/364 386/386/386
f 364/364/364 384/384/384 386/386/386
f 363/363/363 365/365/365 362/362/362
f 365/365/365 364/364/364 362/362/362
f 364/364/364 366/366/366 384/384/384
f 366/366/366 385/385/385 384/384/384
f 365/365/365 367/367/367 364/364/364
f 367/367/367 366/366/366 364/364/364
f 366/366/366 368/368/368 385/385/385
f 368/368/368 518/518/518 385/385/385
f 367/367/367 369/369/369 366/366/366
f 369/369/369 368/368/368 366/366/366
f 518/518/518 368/368/368 331/331/331
f 368/368/368 369/369/369 331/331/331
f 332/332/332 518/518/518 331/331/331
f 332/332/332 331/331/331 329/329/329
f 431/431/431 367/367/367 365/365/365
f 331/331/331 330/330/330 329/329/329
f 432/432/432 365/365/365 363/363/363
f 432/432/432 431/431/431 365/365/365
f 330/330/330 358/358/358 329/329/329
f 358/358/358 355/355/355 329/329/329
f 357/357/357 356/356/356 355/355/355
f 358/358/358 357/357/357 355/355/355
f 560/560/560 357/357/357 358/358/358
f 561/561/561 560/560/560 358/358/358
f 561/561/561 358/358/358 330/330/330
f 525/525/525 560/560/560 561/561/561
f 559/559/559 561/561/561 330/330/330
f 515/515/515 525/525/525 561/561/561
f 515/515/515 561/561/561 559/559/559
f 207/207/207 525/525/525 515/515/515
f 559/559/559 330/330/330 557/557/557
f 557/557/557 330/330/330 331/331/331
f 514/514/514 515/515/515 559/559/559
f 559/559/559 557/557/557 514/514/514
f 206/206/206 207/207/207 515/515/515
f 206/206/206 515/515/515 514/514/514
f 142/142/142 207/207/207 206/206/206
f 301/301/301 557/557/557 331/331/331
f 369/369/369 301/301/301 331/331/331
f 557/557/557 328/328/328 514/514/514
f 328/328/328 557/557/557 301/301/301
f 30/30/30 206/206/206 514/514/514
f 514/514/514 328/328/328 30/30/30
f 127/127/127 142/142/142 206/206/206
f 127/127/127 206/206/206 30/30/30
f 142/142/142 127/127/127 141/141/141
f 328/328/328 29/29/29 30/30/30
f 127/127/127 115/115/115 141/141/141
f 141/141/141 115/115/115 479/479/479
f 115/115/115 113/113/113 479/479/479
f 31/31/31 127/127/127 30/30/30
f 127/127/127 31/31/31 115/115/115
f 31/31/31 30/30/30 29/29/29
f 115/115/115 105/105/105 113/113/113
f 31/31/31 105/105/105 115/115/115
f 105/105/105 114/114/114 113/113/113
f 454/454/454 114/114/114 105/105/105
f 32/32/32 31/31/31 29/29/29
f 31/31/31 32/32/32 105/105/105
f 29/29/29 328/328/328 299/299/299
f 299/299/299 328/328/328 301/301/301
f 108/108/108 454/454/454 105/105/105
f 454/454/454 108/108/108 517/517/517
f 301/301/301 300/300/300 299/299/299
f 300/300/300 301/301/301 369/369/369
f 199/199/199 29/29/29 299/299/299
f 299/299/299 300/300/300 199/199/199
f 32/32/32 29/29/29 199/199/199
f 374/374/374 300/300/300 369/369/369
f 374/374/374 369/369/369 367/367/367
f 431/431/431 374/374/374 367/367/367
f 300/300/300 198/198/198 199/199/199
f 198/198/198 300/300/300 374/374/374
f 153/153/153 32/32/32 199/199/199
f 199/199/199 198/198/198 153/153/153
f 197/197/197 374/374/374 431/431/431
f 197/197/197 198/198/198 374/374/374
f 193/193/193 197/197/197 431/431/431
f 193/193/193 431/431/431 432/432/432
f 198/198/198 197/197/197 196/196/196
f 153/153/153 198/198/198 196/196/196
f 197/197/197 193/193/193 194/194/194
f 196/196/196 197/197/197 194/194/194
f 190/190/190 193/193/193 432/432/432
f 194/194/194 193/193/193 191/191/191
f 193/193/193 190/190/190 191/191/191
f 196/196/196 194/194/194 67/67/67
f 194/194/194 191/191/191 67/67/67
f 153/153/153 196/196/196 131/131/131
f 131/131/131 196/196/196 67/67/67
f 153/153/153 132/132/132 32/32/32
f 132/132/132 153/153/153 131/131/131
f 132/132/132 106/106/106 32/32/32
f 32/32/32 106/106/106 105/105/105
f 106/106/106 132/132/132 107/107/107
f 105/105/105 106/106/106 107/107/107
f 132/132/132 131/131/131 107/107/107
f 108/108/108 105/105/105 107/107/107
f 107/107/107 131/131/131 68/68/68
f 131/131/131 67/67/67 68/68/68
f 108/108/108 107/107/107 144/144/144
f 107/107/107 68/68/68 144/144/144
f 108/108/108 144/144/144 517/517/517
f 517/517/517 144/144/144 478/478/478
f 144/144/144 58/58/58 478/478/478
f 144/144/144 68/68/68 58/58/58
f 478/478/478 58/58/58 477/477/477
f 68/68/68 67/67/67 57/57/57
f 68/68/68 57/57/57 58/58/58
f 58/58/58 55/55/55 477/477/477
f 58/58/58 57/57/57 55/55/55
f 477/477/477 55/55/55 456/456/456
f 67/67/67 66/66/66 57/57/57
f 191/191/191 66/66/66 67/67/67
f 57/57/57 56/56/56 55/55/55
f 57/57/57 66/66/66 56/56/56
f 55/55/55 81/81/81 456/456/456
f 55/55/55 56/56/56 81/81/81
f 81/81/81 133/133/133 456/456/456
f 66/66/66 191/191/191 80/80/80
f 66/66/66 80/80/80 56/56/56
f 191/191/191 188/188/188 80/80/80
f 191/191/191 190/190/190 188/188/188
f 56/56/56 80/80/80 79/79/79
f 80/80/80 188/188/188 78/78/78
f 80/80/80 78/78/78 79/79/79
f 190/190/190 187/187/187 188/188/188
f 188/188/188 77/77/77 78/78/78
f 77/77/77 188/188/188 187/187/187
f 79/79/79 78/78/78 76/76/76
f 78/78/78 77/77/77 76/76/76
f 82/82/82 56/56/56 79/79/79
f 56/56/56 82/82/82 81/81/81
f 125/125/125 79/79/79 76/76/76
f 125/125/125 82/82/82 79/79/79
f 76/76/76 77/77/77 185/185/185
f 77/77/77 187/187/187 185/185/185
f 126/126/126 125/125/125 76/76/76
f 126/126/126 76/76/76 185/185/185
f 125/125/125 126/126/126 73/73/73
f 73/73/73 126/126/126 185/185/185
f 82/82/82 125/125/125 74/74/74
f 74/74/74 125/125/125 73/73/73
f 82/82/82 116/116/116 81/81/81
f 116/116/116 82/82/82 74/74/74
f 74/74/74 73/73/73 72/72/72
f 73/73/73 185/185/185 72/72/72
f 74/74/74 75/75/75 116/116/116
f 75/75/75 74/74/74 72/72/72
f 116/116/116 117/117/117 81/81/81
f 75/75/75 117/117/117 116/116/116
f 85/85/85 133/133/133 81/81/81
f 117/117/117 85/85/85 81/81/81
f 85/85/85 100/100/100 133/133/133
f 101/101/101 100/100/100 85/85/85
f 75/75/75 84/84/84 117/117/117
f 75/75/75 72/72/72 84/84/84
f 84/84/84 85/85/85 117/117/117
f 72/72/72 185/185/185 150/150/150
f 72/72/72 150/150/150 84/84/84
f 86/86/86 101/101/101 85/85/85
f 429/429/429 101/101/101 86/86/86
f 85/85/85 84/84/84 83/83/83
f 86/86/86 85/85/85 83/83/83
f 84/84/84 150/150/150 149/149/149
f 83/83/83 84/84/84 149/149/149
f 185/185/185 149/149/149 150/150/150
f 86/86/86 83/83/83 178/178/178
f 178/178/178 429/429/429 86/86/86
f 83/83/83 149/149/149 178/178/178
f 429/429/429 178/178/178 415/415/415
f 185/185/185 186/186/186 149/149/149
f 187/187/187 186/186/186 185/185/185
f 179/179/179 178/178/178 149/149/149
f 178/178/178 179/179/179 415/415/415
f 186/186/186 179/179/179 149/149/149
f 415/415/415 179/179/179 371/371/371
f 179/179/179 186/186/186 370/370/370
f 371/371/371 179/179/179 370/370/370
f 186/186/186 187/187/187 370/370/370
f 371/371/371 370/370/370 313/313/313
f 187/187/187 388/388/388 370/370/370
f 370/370/370 388/388/388 313/313/313
f 187/187/187 190/190/190 388/388/388
f 388/388/388 363/363/363 313/313/313
f 190/190/190 432/432/432 388/388/388
f 388/388/388 432/432/432 363/363/363
f 23/23/23 22/22/22 21/21/21
f 24/24/24 23/23/23 21/21/21
f 21/21/21 22/22/22 392/392/392
f 489/489/489 23/23/23 24/24/24
f 22/22/22 391/391/391 392/392/392
f 488/488/488 489/489/489 24/24/24
f 392/392/392 391/391/391 389/389/389
f 490/490/490 489/489/489 488/488/488
f 391/391/391 390/390/390 389/389/389
f 491/491/491 490/490/490 488/488/488
f 389/389/389 390/390/390 472/472/472
f 566/566/566 490/490/490 491/491/491
f 567/567/567 566/566/566 491/491/491
f 390/390/390 471/471/471 472/472/472
f 472/472/472 471/471/471 469/469/469
f 471/471/471 470/470/470 469/469/469
f 469/469/469 470/470/470 400/400/400
f 470/470/470 399/399/399 400/400/400
f 400/400/400 399/399/399 397/397/397
f 399/399/399 398/398/398 397/397/397
f 397/397/397 398/398/398 533/533/533
f 398/398/398 532/532/532 533/533/533
f 533/533/533 532/532/532 530/530/530
f 532/532/532 531/531/531 530/530/530
f 530/530/530 531/531/531 541/541/541
f 531/531/531 540/540/540 541/541/541
f 541/541/541 540/540/540 538/538/538
f 540/540/540 539/539/539 538/538/538
f 538/538/538 539/539/539 414/414/414
f 539/539/539 413/413/413 414/414/414
f 414/414/414 413/413/413 411/411/411
f 413/413/413 412/412/412 411/411/411
f 35/35/35 34/34/34 33/33/33
f 33/33/33 34/34/34 290/290/290
f 33/33/33 290/290/290 438/438/438
f 438/438/438 290/290/290 455/455/455
f 439/439/439 33/33/33 438/438/438
f 290/290/290 287/287/287 455/455/455
f 36/36/36 33/33/33 439/439/439
f 36/36/36 35/35/35 33/33/33
f 379/379/379 36/36/36 439/439/439
f 290/290/290 289/289/289 287/287/287
f 34/34/34 289/289/289 290/290/290
f 289/289/289 288/288/288 287/287/287
f 289/289/289 296/296/296 288/288/288
f 297/297/297 296/296/296 289/289/289
f 34/34/34 297/297/297 289/289/289
f 298/298/298 297/297/297 34/34/34
f 35/35/35 298/298/298 34/34/34
f 298/298/298 172/172/172 297/297/297
f 201/201/201 172/172/172 298/298/298
f 327/327/327 298/298/298 35/35/35
f 327/327/327 201/201/201 298/298/298
f 324/324/324 35/35/35 36/36/36
f 324/324/324 327/327/327 35/35/35
f 36/36/36 379/379/379 325/325/325
f 325/325/325 324/324/324 36/36/36
f 379/379/379 334/334/334 325/325/325
f 325/325/325 334/334/334 333/333/333
f 335/335/335 325/325/325 333/333/333
f 325/325/325 335/335/335 324/324/324
f 335/335/335 333/333/333 343/343/343
f 326/326/326 327/327/327 324/324/324
f 344/344/344 335/335/335 343/343/343
f 344/344/344 343/343/343 354/354/354
f 351/351/351 344/344/344 354/354/354
f 335/335/335 360/360/360 324/324/324
f 326/326/326 324/324/324 360/360/360
f 361/361/361 335/335/335 344/344/344
f 335/335/335 361/361/361 360/360/360
f 352/352/352 344/344/344 351/351/351
f 352/352/352 361/361/361 344/344/344
f 353/353/353 352/352/352 351/351/351
f 360/360/360 361/361/361 359/359/359
f 359/359/359 326/326/326 360/360/360
f 443/443/443 361/361/361 352/352/352
f 361/361/361 443/443/443 359/359/359
f 442/442/442 352/352/352 353/353/353
f 442/442/442 443/443/443 352/352/352
f 516/516/516 442/442/442 353/353/353
f 327/327/327 326/326/326 200/200/200
f 200/200/200 326/326/326 359/359/359
f 201/201/201 327/327/327 200/200/200
f 88/88/88 201/201/201 200/200/200
f 359/359/359 443/443/443 202/202/202
f 202/202/202 200/200/200 359/359/359
f 87/87/87 88/88/88 200/200/200
f 202/202/202 87/87/87 200/200/200
f 89/89/89 88/88/88 87/87/87
f 90/90/90 89/89/89 87/87/87
f 443/443/443 162/162/162 202/202/202
f 162/162/162 443/443/443 442/442/442
f 143/143/143 87/87/87 202/202/202
f 87/87/87 143/143/143 90/90/90
f 162/162/162 143/143/143 202/202/202
f 160/160/160 442/442/442 516/516/516
f 160/160/160 162/162/162 442/442/442
f 161/161/161 160/160/160 516/516/516
f 161/161/161 129/129/129 160/160/160
f 160/160/160 130/130/130 162/162/162
f 129/129/129 130/130/130 160/160/160
f 130/130/130 143/143/143 162/162/162
f 130/130/130 129/129/129 112/112/112
f 143/143/143 130/130/130 112/112/112
f 129/129/129 128/128/128 112/112/112
f 143/143/143 109/109/109 90/90/90
f 109/109/109 143/143/143 112/112/112
f 90/90/90 109/109/109 62/62/62
f 109/109/109 61/61/61 62/62/62
f 437/437/437 61/61/61 109/109/109
f 110/110/110 437/437/437 109/109/109
f 111/111/111 110/110/110 109/109/109
f 112/112/112 111/111/111 109/109/109
f 112/112/112 128/128/128 111/111/111
f 128/128/128 519/519/519 111/111/111
f 210/210/210 209/209/209 208/208/208
f 211/211/211 210/210/210 208/208/208
f 210/210/210 571/571/571 209/209/209
f 211/211/211 208/208/208 273/273/273
f 274/274/274 211/211/211 273/273/273
f 571/571/571 570/570/570 209/209/209
f 571/571/571 591/591/591 570/570/570
f 274/274/274 273/273/273 241/241/241
f 242/242/242 274/274/274 241/241/241
f 591/591/591 590/590/590 570/570/570
f 591/591/591 601/601/601 590/590/590
f 242/242/242 241/241/241 240/240/240
f 243/243/243 242/242/242 240/240/240
f 601/601/601 600/600/600 590/590/590
f 601/601/601 225/225/225 600/600/600
f 243/243/243 240/240/240 281/281/281
f 282/282/282 243/243/243 281/281/281
f 225/225/225 222/222/222 600/600/600
f 225/225/225 224/224/224 222/222/222
f 282/282/282 281/281/281 235/235/235
f 236/236/236 282/282/282 235/235/235
f 224/224/224 223/223/223 222/222/222
f 224/224/224 250/250/250 223/223/223
f 236/236/236 235/235/235 234/234/234
f 237/237/237 236/236/236 234/234/234
f 250/250/250 247/247/247 223/223/223
f 250/250/250 249/249/249 247/247/247
f 237/237/237 234/234/234 264/264/264
f 265/265/265 237/237/237 264/264/264
f 249/249/249 248/248/248 247/247/247
f 249/249/249 278/278/278 248/248/248
f 265/265/265 264/264/264 263/263/263
f 266/266/266 265/265/265 263/263/263
f 278/278/278 277/277/277 248/248/248
f 278/278/278 219/219/219 277/277/277
f 266/266/266 263/263/263 588/588/588
f 589/589/589 266/266/266 588/588/588
f 219/219/219 216/216/216 277/277/277
f 219/219/219 218/218/218 216/216/216
f 589/589/589 588/588/588 579/579/579
f 580/580/580 589/589/589 579/579/579
f 218/218/218 217/217/217 216/216/216
f 218/218/218 231/231/231 217/217/217
f 580/580/580 579/579/579 578/578/578
f 581/581/581 580/580/580 578/578/578
f 231/231/231 228/228/228 217/217/217
f 231/231/231 230/230/230 228/228/228
f 581/581/581 578/578/578 258/258/258
f 259/259/259 581/581/581 258/258/258
f 230/230/230 229/229/229 228/228/228
f 230/230/230 286/286/286 229/229/229
f 259/259/259 258/258/258 257/257/257
f 260/260/260 259/259/259 257/257/257
f 286/286/286 285/285/285 229/229/229
f 286/286/286 270/270/270 285/285/285
f 270/270/270 260/260/260 269/269/269
f 270/270/270 269/269/269 285/285/285
f 260/260/260 257/257/257 269/269/269
f 229/229/229 285/285/285 606/606/606
f 285/285/285 269/269/269 606/606/606
f 228/228/228 229/229/229 606/606/606
f 269/269/269 257/257/257 606/606/606
f 217/217/217 228/228/228 606/606/606
f 257/257/257 258/258/258 606/606/606
f 606/606/606 216/216/216 217/217/217
f 258/258/258 578/578/578 606/606/606
f 606/606/606 277/277/277 216/216/216
f 578/578/578 579/579/579 606/606/606
f 606/606/606 248/248/248 277/277/277
f 606/606/606 579/579/579 588/588/588
f 606/606/606 247/247/247 248/248/248
f 606/606/606 588/588/588 263/263/263
f 606/606/606 223/223/223 247/247/247
f 606/606/606 263/263/263 264/264/264
f 606/606/606 222/222/222 223/223/223
f 606/606/606 264/264/264 234/234/234
f 606/606/606 600/600/600 222/222/222
f 606/606/606 234/234/234 235/235/235
f 590/590/590 600/600/600 606/606/606
f 606/606/606 235/235/235 281/281/281
f 570/570/570 590/590/590 606/606/606
f 606/606/606 281/281/281 240/240/240
f 209/209/209 570/570/570 606/606/606
f 240/240/240 241/241/241 606/606/606
f 208/208/208 209/209/209 606/606/606
f 241/241/241 273/273/273 606/606/606
f 273/273/273 208/208/208 606/606/606
f 214/214/214 213/213/213 212/212/212
f 215/215/215 214/214/214 212/212/212
f 214/214/214 221/221/221 213/213/213
f 212/212/212 573/573/573 215/215/215
f 221/221/221 220/220/220 213/213/213
f 573/573/573 572/572/572 215/215/215
f 221/221/221 227/227/227 220/220/220
f 573/573/573 577/577/577 572/572/572
f 227/227/227 226/226/226 220/220/220
f 577/577/577 574/574/574 572/572/572
f 227/227/227 233/233/233 226/226/226
f 577/577/577 576/576/576 574/574/574
f 233/233/233 232/232/232 226/226/226
f 576/576/576 575/575/575 574/574/574
f 233/233/233 239/239/239 232/232/232
f 576/576/576 585/585/585 575/575/575
f 239/239/239 238/238/238 232/232/232
f 585/585/585 582/582/582 575/575/575
f 239/239/239 246/246/246 238/238/238
f 585/585/585 584/584/584 582/582/582
f 584/584/584 583/583/583 582/582/582
f 584/584/584 587/587/587 583/583/583
f 587/587/587 586/586/586 583/583/583
f 587/587/587 254/254/254 586/586/586
f 254/254/254 255/255/255 586/586/586
f 255/255/255 254/254/254 253/253/253
f 256/256/256 255/255/255 253/253/253
f 256/256/256 253/253/253 261/261/261
f 262/262/262 256/256/256 261/261/261
f 262/262/262 261/261/261 267/267/267
f 268/268/268 262/262/262 267/267/267
f 268/268/268 267/267/267 271/271/271
f 272/272/272 268/268/268 271/271/271
f 272/272/272 271/271/271 275/275/275
f 276/276/276 272/272/272 275/275/275
f 276/276/276 275/275/275 279/279/279
f 280/280/280 276/276/276 279/279/279
f 280/280/280 279/279/279 283/283/283
f 284/284/284 280/280/280 283/283/283
f 283/283/283 593/593/593 284/284/284
f 593/593/593 592/592/592 284/284/284
f 593/593/593 599/599/599 592/592/592
f 599/599/599 598/598/598 592/592/592
f 599/599/599 597/597/597 598/598/598
f 597/597/597 594/594/594 598/598/598
f 597/597/597 596/596/596 594/594/594
f 596/596/596 595/595/595 594/594/594
f 596/596/596 603/603/603 595/595/595
f 603/603/603 602/602/602 595/595/595
f 603/603/603 605/605/605 602/602/602
f 605/605/605 604/604/604 602/602/602
f 605/605/605 251/251/251 604/604/604
f 251/251/251 252/252/252 604/604/604
f 252/252/252 251/251/251 245/245/245
f 246/246/246 252/252/252 245/245/245
f 246/246/246 245/245/245 238/238/238
f 245/245/245 244/244/244 238/238/238
f 395/395/395 394/394/394 393/393/393
f 396/396/396 395/395/395 393/393/393
f 393/393/393 394/394/394 529/529/529
f 498/498/498 395/395/395 396/396/396
f 394/394/394 528/528/528 529/529/529
f 497/497/497 498/498/498 396/396/396
f 529/529/529 528/528/528 526/526/526
f 499/499/499 498/498/498 497/497/497
f 528/528/528 527/527/527 526/526/526
f 500/500/500 499/499/499 497/497/497
f 526/526/526 527/527/527 513/513/513
f 535/535/535 499/499/499 500/500/500
f 527/527/527 512/512/512 513/513/513
f 534/534/534 535/535/535 500/500/500
f 513/513/513 512/512/512 510/510/510
f 536/536/536 535/535/535 534/534/534
f 512/512/512 511/511/511 510/510/510
f 537/537/537 536/536/536 534/534/534
f 510/510/510 511/511/511 504/504/504
f 543/543/543 536/536/536 537/537/537
f 511/511/511 503/503/503 504/504/504
f 542/542/542 543/543/543 537/537/537
f 504/504/504 503/503/503 501/501/501
f 544/544/544 543/543/543 542/542/542
f 503/503/503 502/502/502 501/501/501
f 545/545/545 544/544/544 542/542/542
f 501/501/501 502/502/502 452/452/452
f 562/562/562 544/544/544 545/545/545
f 563/563/563 562/562/562 545/545/545
f 502/502/502 451/451/451 452/452/452
f 452/452/452 451/451/451 449/449/449
f 451/451/451 450/450/450 449/449/449
f 419/419/419 418/418/418 417/417/417
f 420/420/420 419/419/419 417/417/417
f 417/417/417 418/418/418 487/487/487
f 481/481/481 419/419/419 420/420/420
f 418/418/418 486/486/486 487/487/487
f 480/480/480 481/481/481 420/420/420
f 487/487/487 486/486/486 484/484/484
f 486/486/486 485/485/485 484/484/484
f 482/482/482 481/481/481 480/480/480
f 483/483/483 482/482/482 480/480/480
f 434/434/434 482/482/482 483/483/483
f 433/433/433 434/434/434 483/483/483
f 435/435/435 434/434/434 433/433/433
f 436/436/436 435/435/435 433/433/433
f 459/459/459 435/435/435 436/436/436
f 458/458/458 459/459/459 436/436/436
f 460/460/460 459/459/459 458/458/458
f 461/461/461 460/460/460 458/458/458
f 547/547/547 460/460/460 461/461/461
f 546/546/546 547/547/547 461/461/461
f 548/548/548 547/547/547 546/546/546
f 549/549/549 548/548/548 546/546/546
f 522/522/522 548/548/548 549/549/549
f 521/521/521 522/522/522 549/549/549
f 523/523/523 522/522/522 521/521/521
f 524/524/524 523/523/523 521/521/521
f 463/463/463 523/523/523 524/524/524
f 462/462/462 463/463/463 524/524/524
f 464/464/464 463/463/463 462/462/462
f 465/465/465 464/464/464 462/462/462
f 568/568/568 464/464/464 465/465/465
f 569/569/569 568/568/568 465/465/465
