# VPXTOOL table OBJ file
# VPXTOOL OBJ file
# numVerts: 38 numFaces: 38
o playfield_mesh
v 473.409 954.3638 0.000153
v 471.9864 949.67395 0.000152
v 952 0 0
v 424.36978 964.1183 0.000155
v 425.79242 968.8081 0.000156
v 0 2162 0.000352
v 423.8894 959.241 0.000154
v 424.32266 963.6404 0.000157
v 0 0 0
v 424.36978 954.3638 0.000153
v 952 2162 0.000352
v 428.96304 974.1787 0.000159
v 431.21173 976.9187 0.000156
v 435.00012 980.0277 0.000157
v 425.79242 949.6739 0.000152
v 428.10272 945.3518 0.000152
v 439.32233 982.338 0.000158
v 444.01215 983.76074 0.000158
v 448.8894 934.2411 0.000152
v 431.21176 941.56335 0.000151
v 435.00018 938.45435 0.000151
v 448.8894 984.2411 0.000158
v 453.76666 983.76074 0.000158
v 439.3224 936.14404 0.000153
v 444.0122 934.72144 0.000152
v 458.45648 982.338 0.000158
v 462.77863 980.0277 0.000157
v 466.56708 976.9187 0.000156
v 469.67615 973.13025 0.000156
v 453.76666 934.72144 0.000152
v 458.45648 936.14404 0.000153
v 471.9864 968.8081 0.000156
v 473.40903 964.1183 0.000155
v 462.7787 938.45435 0.000151
v 466.56708 941.56335 0.000151
v 473.8894 959.241 0.000154
v 469.67615 945.3518 0.000152
v 428.10266 973.13025 0.000156
vt 0.497278 0.55857402
vt 0.495784 0.56074297
vt 1 1
vt 0.445767 0.554062
vt 0.447261 0.551893
vt 0 0
vt 0.445262 0.55631799
vt 0.445717 0.55428302
vt 0 1
vt 0.445767 0.55857402
vt 1 0
vt 0.450591 0.54940897
vt 0.452953 0.548141
vt 0.456933 0.54670298
vt 0.447261 0.56074297
vt 0.449688 0.562742
vt 0.461473 0.54563498
vt 0.466399 0.544977
vt 0.471522 0.567881
vt 0.452953 0.564494
vt 0.456933 0.56593198
vt 0.471522 0.54475403
vt 0.476646 0.544977
vt 0.461473 0.567001
vt 0.466399 0.56765902
vt 0.481572 0.54563498
vt 0.486112 0.54670298
vt 0.490091 0.548141
vt 0.493357 0.54989398
vt 0.476646 0.56765902
vt 0.481572 0.567001
vt 0.495784 0.551893
vt 0.497278 0.554062
vt 0.486112 0.56593198
vt 0.490091 0.564494
vt 0.497783 0.55631799
vt 0.493357 0.562742
vt 0.449688 0.54989302
vn 0 0 -1
vn 0 0 -1
vn 0 0 -1
vn 0 0 -1
vn 0 0 -1
vn 0 0 -1
vn 0 0 -1
vn 0 0 -1
vn 0 0 -1
vn 0 0 -1
vn 0 0 -1
vn 0 0 -1
vn 0 0 -1
vn 0 0 -1
vn 0 0 -1
vn 0 0 -1
vn 0 0 -1
vn 0 0 -1
vn 0 0 -1
vn 0 0 -1
vn 0 0 -1
vn 0 0 -1
vn 0 0 -1
vn 0 0 -1
vn 0 0 -1
vn 0 0 -1
vn 0 0 -1
vn 0 0 -1
vn 0 0 -1
vn 0 0 -1
vn 0 0 -1
vn 0 0 -1
vn 0 0 -1
vn 0 0 -1
vn 0 0 -1
vn 0 0 -1
vn 0 0 -1
vn 0 0 -1
f 6/6/6 5/5/5 4/4/4
f 6/6/6 38/38/38 5/5/5
f 4/4/4 8/8/8 6/6/6
f 6/6/6 12/12/12 38/38/38
f 8/8/8 9/9/9 6/6/6
f 6/6/6 11/11/11 12/12/12
f 9/9/9 8/8/8 7/7/7
f 13/13/13 12/12/12 11/11/11
f 9/9/9 7/7/7 10/10/10
f 14/14/14 13/13/13 11/11/11
f 9/9/9 10/10/10 15/15/15
f 17/17/17 14/14/14 11/11/11
f 9/9/9 15/15/15 16/16/16
f 18/18/18 17/17/17 11/11/11
f 9/9/9 16/16/16 20/20/20
f 22/22/22 18/18/18 11/11/11
f 9/9/9 20/20/20 21/21/21
f 23/23/23 22/22/22 11/11/11
f 9/9/9 21/21/21 24/24/24
f 26/26/26 23/23/23 11/11/11
f 9/9/9 24/24/24 25/25/25
f 27/27/27 26/26/26 11/11/11
f 9/9/9 25/25/25 19/19/19
f 28/28/28 27/27/27 11/11/11
f 3/3/3 9/9/9 19/19/19
f 29/29/29 28/28/28 11/11/11
f 3/3/3 19/19/19 30/30/30
f 32/32/32 29/29/29 11/11/11
f 3/3/3 30/30/30 31/31/31
f 33/33/33 32/32/32 11/11/11
f 3/3/3 31/31/31 34/34/34
f 33/33/33 11/11/11 36/36/36
f 11/11/11 3/3/3 36/36/36
f 3/3/3 34/34/34 35/35/35
f 1/1/1 36/36/36 3/3/3
f 3/3/3 35/35/35 37/37/37
f 3/3/3 2/2/2 1/1/1
f 3/3/3 37/37/37 2/2/2
