# VPXTOOL table OBJ file
# VPXTOOL OBJ file
# numVerts: 78 numFaces: 72
o Primitive68
v 0.029544 0 0.035209
v 0.025981 -0 0.045
v 0 0 0.03
v 0.019284 -0 0.052981
v 0.010261 -0 0.058191
v -0 -0 0.06
v -0 -0 0.06
v -0.010261 -0 0.058191
v -0.019284 -0 0.052981
v -0.025981 -0 0.045
v -0.029544 -0 0.035209
v -0.029544 -0 0.024791
v -0.025981 0 0.015
v -0.019284 0 0.007019
v -0.010261 0 0.001809
v -0 0 0
v 0.010261 0 0.001809
v 0.019284 0 0.007019
v 0.025981 0 0.015
v 0.029544 0 0.024791
v 0.029544 -1 0.035209
v 0.025981 -1 0.045
v 0.029544 0 0.035209
v 0.025981 -0 0.045
v 0.019284 -1 0.052981
v 0.019284 -0 0.052981
v 0.010261 -1 0.058191
v 0.010261 -0 0.058191
v 0 -1 0.06
v -0 -0 0.06
v 0 -1 0.06
v -0.010261 -1 0.058191
v -0 -0 0.06
v -0.010261 -0 0.058191
v -0.019284 -1 0.052981
v -0.019284 -0 0.052981
v -0.025981 -1 0.045
v -0.025981 -0 0.045
v -0.029544 -1 0.035209
v -0.029544 -0 0.035209
v -0.029544 -1 0.02479
v -0.029544 -0 0.024791
v -0.025981 -1 0.015
v -0.025981 0 0.015
v -0.019284 -1 0.007019
v -0.019284 0 0.007019
v -0.010261 -1 0.001809
v -0.010261 0 0.001809
v 0 -1 -0
v -0 0 0
v 0.010261 -1 0.001809
v 0.010261 0 0.001809
v 0.019284 -1 0.007018
v 0.019284 0 0.007019
v 0.025981 -1 0.015
v 0.025981 0 0.015
v 0.029544 -1 0.02479
v 0.029544 0 0.024791
v 0.025981 -1 0.045
v 0.029544 -1 0.035209
v 0 -1 0.03
v 0.019284 -1 0.052981
v 0.010261 -1 0.058191
v 0 -1 0.06
v -0.010261 -1 0.058191
v 0 -1 0.06
v -0.019284 -1 0.052981
v -0.025981 -1 0.045
v -0.029544 -1 0.035209
v -0.029544 -1 0.02479
v -0.025981 -1 0.015
v -0.019284 -1 0.007019
v -0.010261 -1 0.001809
v 0 -1 -0
v 0.010261 -1 0.001809
v 0.019284 -1 0.007018
v 0.025981 -1 0.015
v 0.029544 -1 0.02479
vt 0.75 0
vt 0.805556 0
vt 0.5 0
vt 0.861111 0
vt 0.916667 0
vt 0.972222 0
vt -0.027778 0
vt 0.027778 0
vt 0.083333 0
vt 0.138889 0
vt 0.194444 0
vt 0.25 0
vt 0.305556 0
vt 0.361111 0
vt 0.416667 0
vt 0.472222 0
vt 0.527778 0
vt 0.583333 0
vt 0.638889 0
vt 0.694444 0
vt 0.75 1
vt 0.805556 1
vt 0.75 0
vt 0.805556 0
vt 0.861111 1
vt 0.861111 0
vt 0.916667 1
vt 0.916667 0
vt 0.972222 1
vt 0.972222 0
vt -0.027778 1
vt 0.027778 1
vt -0.027778 0
vt 0.027778 0
vt 0.083333 1
vt 0.083333 0
vt 0.138889 1
vt 0.138889 0
vt 0.194444 1
vt 0.194444 0
vt 0.25 1
vt 0.25 0
vt 0.305556 1
vt 0.305556 0
vt 0.361111 1
vt 0.361111 0
vt 0.416667 1
vt 0.416667 0
vt 0.472222 1
vt 0.472222 0
vt 0.527778 1
vt 0.527778 0
vt 0.583333 1
vt 0.583333 0
vt 0.638889 1
vt 0.638889 0
vt 0.694444 1
vt 0.694444 0
vt 0.805556 1
vt 0.75 1
vt 0.5 1
vt 0.861111 1
vt 0.916667 1
vt 0.972222 1
vt 0.027778 1
vt -0.027778 1
vt 0.083333 1
vt 0.138889 1
vt 0.194444 1
vt 0.25 1
vt 0.305556 1
vt 0.361111 1
vt 0.416667 1
vt 0.472222 1
vt 0.527778 1
vt 0.583333 1
vt 0.638889 1
vt 0.694444 1
vn -0 1 0
vn -0 1 0
vn -0 1 0
vn -0 1 0
vn -0 1 0
vn -0 1 0
vn -0 1 0
vn -0 1 0
vn -0 1 0
vn -0 1 0
vn -0 1 0
vn -0 1 0
vn -0 1 0
vn -0 1 0
vn -0 1 0
vn -0 1 0
vn -0 1 0
vn -0 1 0
vn -0 1 0
vn -0 1 0
vn 0.984808 -0 0.173648
vn 0.866025 -0 0.5
vn 0.984808 0 0.173648
vn 0.866026 -0 0.5
vn 0.642788 -0 0.766045
vn 0.642788 -0 0.766044
vn 0.34202 -0 0.939693
vn 0.34202 -0 0.939693
vn -0 -0 1
vn 0 -0 1
vn -0 -0 1
vn -0.34202 -0 0.939693
vn 0 -0 1
vn -0.34202 -0 0.939693
vn -0.642788 -0 0.766044
vn -0.642788 -0 0.766045
vn -0.866025 -0 0.5
vn -0.866025 -0 0.5
vn -0.984808 -0 0.173648
vn -0.984808 -0 0.173648
vn -0.984808 0 -0.173648
vn -0.984808 -0 -0.173648
vn -0.866025 0 -0.5
vn -0.866026 0 -0.5
vn -0.642788 0 -0.766044
vn -0.642788 0 -0.766044
vn -0.34202 0 -0.939693
vn -0.342021 0 -0.939693
vn -0 0 -1
vn -0.000001 0 -1
vn 0.34202 0 -0.939693
vn 0.34202 0 -0.939693
vn 0.642787 0 -0.766045
vn 0.642787 0 -0.766045
vn 0.866025 0 -0.500001
vn 0.866025 0 -0.500001
vn 0.984808 0 -0.173649
vn 0.984808 0 -0.173649
vn 0 -1 -0
vn 0 -1 -0
vn 0 -1 -0
vn 0 -1 -0
vn 0 -1 -0
vn 0 -1 -0
vn 0 -1 -0
vn 0 -1 -0
vn 0 -1 -0
vn 0 -1 -0
vn 0 -1 -0
vn 0 -1 -0
vn 0 -1 -0
vn 0 -1 -0
vn 0 -1 -0
vn 0 -1 -0
vn 0 -1 -0
vn 0 -1 -0
vn 0 -1 -0
vn 0 -1 -0
f 28/28/28 30/30/30 29/29/29
f 28/28/28 29/29/29 27/27/27
f 26/26/26 28/28/28 27/27/27
f 26/26/26 27/27/27 25/25/25
f 24/24/24 26/26/26 25/25/25
f 24/24/24 25/25/25 22/22/22
f 23/23/23 24/24/24 22/22/22
f 23/23/23 22/22/22 21/21/21
f 58/58/58 23/23/23 21/21/21
f 58/58/58 21/21/21 57/57/57
f 56/56/56 58/58/58 57/57/57
f 56/56/56 57/57/57 55/55/55
f 54/54/54 56/56/56 55/55/55
f 54/54/54 55/55/55 53/53/53
f 52/52/52 54/54/54 53/53/53
f 52/52/52 53/53/53 51/51/51
f 50/50/50 52/52/52 51/51/51
f 50/50/50 51/51/51 49/49/49
f 48/48/48 50/50/50 49/49/49
f 48/48/48 49/49/49 47/47/47
f 46/46/46 48/48/48 47/47/47
f 46/46/46 47/47/47 45/45/45
f 44/44/44 46/46/46 45/45/45
f 44/44/44 45/45/45 43/43/43
f 42/42/42 44/44/44 43/43/43
f 42/42/42 43/43/43 41/41/41
f 40/40/40 42/42/42 41/41/41
f 40/40/40 41/41/41 39/39/39
f 38/38/38 40/40/40 39/39/39
f 38/38/38 39/39/39 37/37/37
f 36/36/36 38/38/38 37/37/37
f 36/36/36 37/37/37 35/35/35
f 34/34/34 36/36/36 35/35/35
f 34/34/34 35/35/35 32/32/32
f 33/33/33 34/34/34 32/32/32
f 33/33/33 32/32/32 31/31/31
f 3/3/3 2/2/2 1/1/1
f 3/3/3 1/1/1 20/20/20
f 3/3/3 4/4/4 2/2/2
f 3/3/3 20/20/20 19/19/19
f 3/3/3 5/5/5 4/4/4
f 3/3/3 6/6/6 5/5/5
f 3/3/3 19/19/19 18/18/18
f 3/3/3 18/18/18 17/17/17
f 3/3/3 17/17/17 16/16/16
f 3/3/3 16/16/16 15/15/15
f 3/3/3 15/15/15 14/14/14
f 3/3/3 14/14/14 13/13/13
f 3/3/3 13/13/13 12/12/12
f 3/3/3 12/12/12 11/11/11
f 3/3/3 11/11/11 10/10/10
f 3/3/3 10/10/10 9/9/9
f 3/3/3 9/9/9 8/8/8
f 3/3/3 8/8/8 7/7/7
f 61/61/61 60/60/60 59/59/59
f 61/61/61 59/59/59 62/62/62
f 61/61/61 78/78/78 60/60/60
f 61/61/61 62/62/62 63/63/63
f 61/61/61 63/63/63 64/64/64
f 61/61/61 77/77/77 78/78/78
f 61/61/61 76/76/76 77/77/77
f 61/61/61 75/75/75 76/76/76
f 61/61/61 74/74/74 75/75/75
f 61/61/61 73/73/73 74/74/74
f 61/61/61 72/72/72 73/73/73
f 61/61/61 71/71/71 72/72/72
f 61/61/61 70/70/70 71/71/71
f 61/61/61 69/69/69 70/70/70
f 61/61/61 68/68/68 69/69/69
f 61/61/61 67/67/67 68/68/68
f 61/61/61 65/65/65 67/67/67
f 61/61/61 66/66/66 65/65/65
