# VPXTOOL table OBJ file
# VPXTOOL OBJ file
# numVerts: 465 numFaces: 412
o pApron
v -0.006333 0.873997 17.720667
v 0.012815 0.873997 17.720934
v -0.006599 0.873997 18.067732
v 0.03998 0.873997 17.721312
v 0.072488 0.873997 17.721762
v 0.107669 0.873997 17.72225
v 0.142849 0.873997 17.722738
v 0.175357 0.873997 17.72319
v 0.202522 0.873997 17.723566
v 0.221671 0.873997 17.723833
v 0.466882 0.873997 17.906544
v 8.691228 0.873997 17.773361
v 8.710717 0.873997 17.774221
v 8.67018 0.873997 17.774456
v 8.727497 0.873997 17.777666
v 8.648725 0.873997 17.776875
v 8.628011 0.873997 17.779985
v 8.742447 0.873997 17.784657
v 8.609189 0.873997 17.78316
v 8.593411 0.873997 17.785763
v 8.757037 0.873997 17.795008
v 8.581828 0.873997 17.787167
v 8.335819 0.873997 17.967749
v 8.771009 0.873997 17.807623
v 8.784102 0.873997 17.821407
v 8.796059 0.873997 17.835264
v 8.806617 0.873997 17.848103
v 8.806617 0.873997 17.848103
v 8.815516 0.873997 17.858824
v 8.335819 0.873997 17.967749
v 8.815516 0.873997 17.858824
v 8.822499 0.873997 17.866335
v 8.821967 0.873997 18.200897
v 0.814739 0.873997 18.165735
v 7.986831 0.873997 18.223919
v -0.006977 0.873997 18.560081
v 1.231028 0.873997 18.475914
v 8.821213 0.873997 18.675512
v 7.569188 0.873997 18.530485
v 1.681532 0.873997 18.811586
v 7.117218 0.873997 18.86225
v -0.007428 0.873997 19.149284
v 8.82031 0.873997 19.243496
v 2.132036 0.873997 19.147259
v 6.665249 0.873997 19.194014
v 2.548324 0.873997 19.457438
v -0.007917 0.873997 19.786915
v 6.247607 0.873997 19.50058
v 8.819332 0.873997 19.858164
v 2.896182 0.873997 19.716627
v 5.898618 0.873997 19.756752
v 3.141392 0.873997 19.899336
v 5.652607 0.873997 19.937334
v -0.008405 0.873997 20.424547
v 8.818356 0.873997 20.472832
v 3.144053 0.873997 19.905188
v 3.147825 0.873997 19.913486
v 3.15234 0.873997 19.923418
v 3.157226 0.873997 19.934166
v 3.162112 0.873997 19.944914
v 5.650479 0.873997 19.942652
v 5.647461 0.873997 19.950197
v 3.166627 0.873997 19.954845
v 5.643849 0.873997 19.959227
v 3.1704 0.873997 19.963142
v 5.639941 0.873997 19.968998
v 3.17306 0.873997 19.968992
v 3.2245 0.873997 19.98584
v 5.636032 0.873997 19.97877
v 5.63242 0.873997 19.987797
v 3.290872 0.873997 20.009567
v 5.629402 0.873997 19.995342
v 5.627274 0.873997 20.00066
v 5.565992 0.873997 20.017323
v 3.369687 0.873997 20.037945
v 5.485662 0.873997 20.041136
v 3.369687 0.873997 20.037945
v 3.458461 0.873997 20.068747
v -0.008405 0.873997 20.424547
v 5.485662 0.873997 20.041136
v 8.818356 0.873997 20.472832
v 5.39014 0.873997 20.069649
v 3.458461 0.873997 20.068747
v 3.554706 0.873997 20.099747
v 5.39014 0.873997 20.069649
v 5.283288 0.873997 20.100412
v 3.655936 0.873997 20.128717
v 5.168964 0.873997 20.13098
v 3.759665 0.873997 20.153435
v 5.051028 0.873997 20.1589
v 3.863406 0.873997 20.17167
v 4.93334 0.873997 20.181723
v 3.971239 0.873997 20.18484
v 4.819757 0.873997 20.196999
v 4.087279 0.873997 20.195667
v 4.209096 0.873997 20.2039
v 4.705517 0.873997 20.205652
v 4.334259 0.873997 20.209274
v 4.5849 0.873997 20.21041
v 4.460338 0.873997 20.21153
v -0.008857 0.873997 21.013752
v 8.817452 0.873997 21.040815
v -0.009234 0.873996 21.5061
v 8.816698 0.873996 21.515432
v -0.0095 0.873996 21.853165
v 8.074948 0.873996 21.850262
v 8.816167 0.873996 21.85
v 7.023453 0.873996 21.85064
v 5.765106 0.873996 21.851091
v 4.403333 0.873996 21.851582
v 4.403333 0.873996 21.851582
v 3.04156 0.873996 21.85207
v -0.0095 0.873996 21.853165
v 3.04156 0.873996 21.85207
v 1.783213 0.873996 21.852524
v 0.731718 0.873996 21.852901
v -0.006333 0.835997 17.720667
v -0.006599 0.835997 18.067732
v 0.012815 0.835997 17.720934
v 0.03998 0.835997 17.721312
v 0.072488 0.835997 17.721762
v 0.107669 0.835997 17.72225
v 0.142849 0.835997 17.722738
v 0.175357 0.835997 17.72319
v 0.202522 0.835997 17.723566
v 0.221671 0.835997 17.723833
v 0.466882 0.835997 17.906544
v 8.691228 0.835997 17.773361
v 8.67018 0.835997 17.774456
v 8.710717 0.835997 17.774221
v 8.727497 0.835997 17.777666
v 8.648725 0.835997 17.776875
v 8.628011 0.835997 17.779985
v 8.742447 0.835997 17.784657
v 8.609189 0.835997 17.78316
v 8.593411 0.835997 17.785763
v 8.742447 0.835997 17.784657
v 8.593411 0.835997 17.785763
v 8.757037 0.835997 17.795008
v 8.593411 0.835997 17.785763
v 8.581828 0.835997 17.787167
v 8.757037 0.835997 17.795008
v 8.581828 0.835997 17.787167
v 8.335819 0.835997 17.967749
v 8.757037 0.835997 17.795008
v 8.757037 0.835997 17.795008
v 8.335819 0.835997 17.967749
v 8.771009 0.835997 17.807623
v 8.784102 0.835997 17.821407
v 8.796059 0.835997 17.835264
v 8.806617 0.835997 17.848103
v 8.815516 0.835997 17.858824
v 8.822499 0.835997 17.866335
v 8.821967 0.835997 18.200897
v 0.814739 0.835997 18.165735
v 7.986831 0.835997 18.223919
v -0.006977 0.835997 18.560081
v 1.231028 0.835997 18.475914
v 8.821213 0.835997 18.675512
v 7.569188 0.835997 18.530485
v 1.681532 0.835997 18.811586
v 7.117218 0.835997 18.86225
v -0.007428 0.835997 19.149284
v 8.82031 0.835997 19.243496
v 2.132036 0.835997 19.147259
v 6.665249 0.835997 19.194014
v 2.548324 0.835997 19.457438
v -0.007917 0.835997 19.786915
v 6.247607 0.835997 19.50058
v 8.819332 0.835997 19.858164
v 2.896182 0.835997 19.716627
v 5.898618 0.835997 19.756752
v 3.141392 0.835997 19.899336
v 5.652607 0.835997 19.937334
v -0.008405 0.835997 20.424547
v 8.818356 0.835997 20.472832
v 3.144053 0.835997 19.905188
v 3.147825 0.835997 19.913486
v 3.15234 0.835997 19.923418
v 3.157226 0.835997 19.934166
v 3.162112 0.835997 19.944914
v 5.650479 0.835997 19.942652
v 5.647461 0.835997 19.950197
v 3.166627 0.835997 19.954845
v 5.643849 0.835997 19.959227
v 3.1704 0.835997 19.963142
v 5.639941 0.835997 19.968998
v 3.17306 0.835997 19.968992
v 3.17306 0.835997 19.968992
v -0.008405 0.835997 20.424547
v 3.2245 0.835997 19.98584
v 5.636032 0.835997 19.97877
v 5.636032 0.835997 19.97877
v 5.63242 0.835997 19.987797
v 8.818356 0.835997 20.472832
v 3.2245 0.835997 19.98584
v 3.290872 0.835997 20.009567
v 5.63242 0.835997 19.987797
v 5.629402 0.835997 19.995342
v 5.627274 0.835997 20.00066
v 5.565992 0.835997 20.017323
v 3.369687 0.835997 20.037945
v 5.485662 0.835997 20.041136
v 3.458461 0.835997 20.068747
v 5.39014 0.835997 20.069649
v 3.554706 0.835997 20.099747
v 5.283288 0.835997 20.100412
v 3.655936 0.835997 20.128717
v 5.168964 0.835997 20.13098
v 3.759665 0.835997 20.153435
v 5.051028 0.835997 20.1589
v 3.863406 0.835997 20.17167
v 4.93334 0.835997 20.181723
v 3.971239 0.835997 20.18484
v 4.819757 0.835997 20.196999
v 4.087279 0.835997 20.195667
v 4.209096 0.835997 20.2039
v 4.705517 0.835997 20.205652
v 4.334259 0.835997 20.209274
v 4.5849 0.835997 20.21041
v 4.460338 0.835997 20.21153
v -0.008857 0.835997 21.013752
v 8.817452 0.835997 21.040815
v -0.009234 0.835996 21.5061
v 8.816698 0.835996 21.515432
v -0.0095 0.835996 21.853165
v 8.074948 0.835996 21.850262
v 8.816167 0.835996 21.85
v 7.023453 0.835996 21.85064
v 5.765106 0.835996 21.851091
v 4.403333 0.835996 21.851582
v 4.403333 0.835996 21.851582
v -0.0095 0.835996 21.853165
v 3.04156 0.835996 21.85207
v 3.04156 0.835996 21.85207
v 1.783213 0.835996 21.852524
v 0.731718 0.835996 21.852901
v 3.147825 0.835997 19.913486
v 3.147825 0.873997 19.913486
v 3.144053 0.873997 19.905188
v 3.15234 0.835997 19.923418
v 3.15234 0.873997 19.923418
v 3.157226 0.835997 19.934166
v 3.157226 0.873997 19.934166
v 3.162112 0.835997 19.944914
v 3.162112 0.873997 19.944914
v 3.166627 0.835997 19.954845
v 3.166627 0.873997 19.954845
v 3.1704 0.835997 19.963142
v 3.1704 0.873997 19.963142
v 3.17306 0.835997 19.968992
v 3.17306 0.873997 19.968992
v 3.2245 0.835997 19.98584
v 3.2245 0.873997 19.98584
v 3.17306 0.873997 19.968992
v 3.290872 0.835997 20.009567
v 3.290872 0.873997 20.009567
v 3.369687 0.835997 20.037945
v 3.369687 0.873997 20.037945
v 3.458461 0.835997 20.068747
v 3.458461 0.873997 20.068747
v 3.554706 0.835997 20.099747
v 3.554706 0.873997 20.099747
v 3.655936 0.835997 20.128717
v 3.655936 0.873997 20.128717
v 3.759665 0.835997 20.153435
v 3.759665 0.873997 20.153435
v 3.863406 0.835997 20.17167
v 3.863406 0.873997 20.17167
v 3.971239 0.835997 20.18484
v 3.971239 0.873997 20.18484
v 4.087279 0.835997 20.195667
v 4.087279 0.873997 20.195667
v 4.209096 0.835997 20.2039
v 4.209096 0.873997 20.2039
v 4.334259 0.835997 20.209274
v 4.334259 0.873997 20.209274
v 4.460338 0.835997 20.21153
v 4.460338 0.873997 20.21153
v 4.5849 0.873997 20.21041
v 4.5849 0.835997 20.21041
v 4.705517 0.873997 20.205652
v 4.705517 0.835997 20.205652
v 4.819757 0.873997 20.196999
v 4.705517 0.873997 20.205652
v 4.819757 0.835997 20.196999
v 4.93334 0.873997 20.181723
v 4.93334 0.835997 20.181723
v 5.051028 0.873997 20.1589
v 5.051028 0.835997 20.1589
v 5.168964 0.873997 20.13098
v 5.168964 0.835997 20.13098
v 5.283288 0.873997 20.100412
v 5.283288 0.835997 20.100412
v 5.39014 0.873997 20.069649
v 5.39014 0.835997 20.069649
v 5.485662 0.873997 20.041136
v 5.485662 0.835997 20.041136
v 5.565992 0.873997 20.017323
v 5.565992 0.835997 20.017323
v 5.627274 0.873997 20.00066
v 5.627274 0.835997 20.00066
v 5.629402 0.873997 19.995342
v 5.627274 0.873997 20.00066
v 5.629402 0.835997 19.995342
v 5.63242 0.873997 19.987797
v 5.63242 0.835997 19.987797
v 5.636032 0.873997 19.97877
v 5.636032 0.835997 19.97877
v 5.639941 0.873997 19.968998
v 5.639941 0.835997 19.968998
v 5.643849 0.873997 19.959227
v 5.643849 0.835997 19.959227
v 5.647461 0.873997 19.950197
v 5.647461 0.835997 19.950197
v 5.650479 0.873997 19.942652
v 5.650479 0.835997 19.942652
v 5.652607 0.873997 19.937334
v 5.652607 0.835997 19.937334
v 5.898618 0.873997 19.756752
v 5.652607 0.873997 19.937334
v 5.898618 0.835997 19.756752
v 6.247607 0.873997 19.50058
v 6.247607 0.835997 19.50058
v 6.665249 0.873997 19.194014
v 6.665249 0.835997 19.194014
v 7.117218 0.873997 18.86225
v 7.117218 0.835997 18.86225
v 7.569188 0.873997 18.530485
v 7.569188 0.835997 18.530485
v 7.986831 0.873997 18.223919
v 7.986831 0.835997 18.223919
v 8.335819 0.873997 17.967749
v 8.335819 0.835997 17.967749
v 8.581828 0.873997 17.787167
v 8.581828 0.835997 17.787167
v 8.593411 0.873997 17.785763
v 8.593411 0.835997 17.785763
v 8.609189 0.873997 17.78316
v 8.609189 0.835997 17.78316
v 8.628011 0.873997 17.779985
v 8.628011 0.835997 17.779985
v 8.648725 0.873997 17.776875
v 8.648725 0.835997 17.776875
v 8.67018 0.873997 17.774456
v 8.67018 0.835997 17.774456
v 8.691228 0.873997 17.773361
v 8.710717 0.835997 17.774221
v 8.710717 0.873997 17.774221
v 8.691228 0.873997 17.773361
v 8.727497 0.835997 17.777666
v 8.727497 0.873997 17.777666
v 8.742447 0.835997 17.784657
v 8.742447 0.873997 17.784657
v 8.757037 0.835997 17.795008
v 8.757037 0.873997 17.795008
v 8.771009 0.835997 17.807623
v 8.771009 0.873997 17.807623
v 8.784102 0.835997 17.821407
v 8.784102 0.873997 17.821407
v 8.796059 0.835997 17.835264
v 8.796059 0.873997 17.835264
v 8.806617 0.835997 17.848103
v 8.806617 0.873997 17.848103
v 8.815516 0.835997 17.858824
v 8.815516 0.873997 17.858824
v 8.822499 0.835997 17.866335
v 8.822499 0.873997 17.866335
v 8.821967 0.835997 18.200897
v 8.821967 0.873997 18.200897
v 8.822499 0.873997 17.866335
v 8.821213 0.835997 18.675512
v 8.821213 0.873997 18.675512
v 8.82031 0.835997 19.243496
v 8.82031 0.873997 19.243496
v 8.819332 0.835997 19.858164
v 8.819332 0.873997 19.858164
v 8.818356 0.835997 20.472832
v 8.818356 0.873997 20.472832
v 8.817452 0.835997 21.040815
v 8.817452 0.873997 21.040815
v 8.816698 0.835996 21.515432
v 8.816698 0.873996 21.515432
v 8.816167 0.835996 21.85
v 8.816167 0.873996 21.85
v 8.074948 0.835996 21.850262
v 8.074948 0.873996 21.850262
v 8.816167 0.873996 21.85
v 7.023453 0.835996 21.85064
v 7.023453 0.873996 21.85064
v 5.765106 0.835996 21.851091
v 5.765106 0.873996 21.851091
v 4.403333 0.835996 21.851582
v 4.403333 0.873996 21.851582
v 3.04156 0.835996 21.85207
v 3.04156 0.873996 21.85207
v 1.783213 0.835996 21.852524
v 1.783213 0.873996 21.852524
v 0.731718 0.835996 21.852901
v 0.731718 0.873996 21.852901
v -0.0095 0.835996 21.853165
v -0.0095 0.873996 21.853165
v -0.0095 0.835996 21.853165
v -0.009234 0.873996 21.5061
v -0.0095 0.873996 21.853165
v -0.009234 0.835996 21.5061
v -0.008857 0.873997 21.013752
v -0.008857 0.835997 21.013752
v -0.008405 0.873997 20.424547
v -0.008405 0.835997 20.424547
v -0.007917 0.873997 19.786915
v -0.007917 0.835997 19.786915
v -0.007428 0.873997 19.149284
v -0.007428 0.835997 19.149284
v -0.006977 0.873997 18.560081
v -0.006977 0.835997 18.560081
v -0.006599 0.873997 18.067732
v -0.006599 0.835997 18.067732
v -0.006333 0.873997 17.720667
v 0.012815 0.835997 17.720934
v 0.012815 0.873997 17.720934
v -0.006333 0.873997 17.720667
v 0.03998 0.835997 17.721312
v 0.03998 0.873997 17.721312
v 0.072488 0.835997 17.721762
v 0.072488 0.873997 17.721762
v 0.107669 0.835997 17.72225
v 0.107669 0.873997 17.72225
v 0.142849 0.835997 17.722738
v 0.142849 0.873997 17.722738
v 0.175357 0.835997 17.72319
v 0.175357 0.873997 17.72319
v 0.202522 0.835997 17.723566
v 0.202522 0.873997 17.723566
v 0.221671 0.835997 17.723833
v 0.221671 0.873997 17.723833
v 0.466882 0.835997 17.906544
v 0.466882 0.873997 17.906544
v 0.221671 0.873997 17.723833
v 0.814739 0.835997 18.165735
v 0.814739 0.873997 18.165735
v 1.231028 0.835997 18.475914
v 1.231028 0.873997 18.475914
v 1.681532 0.835997 18.811586
v 1.681532 0.873997 18.811586
v 2.132036 0.835997 19.147259
v 2.132036 0.873997 19.147259
v 2.548324 0.835997 19.457438
v 2.548324 0.873997 19.457438
v 2.896182 0.835997 19.716627
v 2.896182 0.873997 19.716627
v 3.141392 0.835997 19.899336
v 3.141392 0.873997 19.899336
v 3.144053 0.835997 19.905188
v 3.17306 0.835997 19.968992
v 4.705517 0.835997 20.205652
v 5.627274 0.835997 20.00066
v 5.652607 0.835997 19.937334
v 8.691228 0.835997 17.773361
v 8.691228 0.835997 17.773361
v 8.822499 0.835997 17.866335
v 8.816167 0.835996 21.85
v -0.006333 0.835997 17.720667
v -0.006333 0.835997 17.720667
v 0.221671 0.835997 17.723833
vt 0.950953 0.984929025
vt 0.950929 0.98278302
vt 0.912052 0.984839022
vt 0.950897 0.979737997
vt 0.950857 0.976094007
vt 0.950814 0.972150981
vt 0.950772 0.968208015
vt 0.950732 0.964564025
vt 0.9507 0.961519003
vt 0.950676 0.959372997
vt 0.930282 0.931825995
vt 0.948037 0.010074973
vt 0.947947 0.007890999
vt 0.947907 0.012434006
vt 0.947567 0.0060089827
vt 0.947629 0.01483798
vt 0.947273 0.017158985
vt 0.946789 0.0043309927
vt 0.946911 0.019267023
vt 0.946614 0.021034002
vt 0.945634 0.0026919842
vt 0.946452 0.022332013
vt 0.926127 0.049843013
vt 0.944224 0.0011209846
vt 0.942684 -0.00035095215
vt 0.941135 -0.0016959906
vt 0.9397 -0.0028829575
vt 0.9397 -0.0028829575
vt 0.938501 -0.0038850307
vt 0.926127 0.049843013
vt 0.938501 -0.0038850307
vt 0.937662 -0.004670024
vt 0.900163 -0.0047249794
vt 0.90135 0.89274901
vt 0.897295 0.08886999
vt 0.856868 0.984713018
vt 0.866727 0.84598398
vt 0.846965 -0.004804015
vt 0.86279 0.135575
vt 0.829259 0.795376
vt 0.825449 0.186118
vt 0.790828 0.984560013
vt 0.783303 -0.004897952
vt 0.79179 0.744767
vt 0.788109 0.23666102
vt 0.757168 0.69800198
vt 0.71936 0.984395981
vt 0.753604 0.28336596
vt 0.714409 -0.004999995
vt 0.728237 0.65892398
vt 0.724771 0.322393
vt 0.707842 0.631378
vt 0.704446 0.349904
vt 0.647892 0.984230995
vt 0.645514 -0.0051020384
vt 0.707187 0.631078
vt 0.706258 0.630652
vt 0.705147 0.630143
vt 0.703943 0.629591
vt 0.702741 0.62904
vt 0.70385 0.350141
vt 0.703003 0.35047698
vt 0.701629 0.62853098
vt 0.70199 0.350878
vt 0.7007 0.62810498
vt 0.700893 0.351313
vt 0.700045 0.627805
vt 0.698175 0.622034
vt 0.699797 0.351748
vt 0.698783 0.35214996
vt 0.695538 0.614586
vt 0.697937 0.352485
vt 0.69734 0.352722
vt 0.695451 0.359585
vt 0.692385 0.605743
vt 0.692755 0.36857998
vt 0.692385 0.605743
vt 0.688963 0.59578198
vt 0.647892 0.984230995
vt 0.692755 0.36857998
vt 0.645514 -0.0051020384
vt 0.689526 0.379277
vt 0.688963 0.59578198
vt 0.685522 0.584984
vt 0.689526 0.379277
vt 0.686041 0.39124203
vt 0.682309 0.573628
vt 0.682575 0.404045
vt 0.679574 0.56199402
vt 0.679406 0.41725397
vt 0.677567 0.55036002
vt 0.676808 0.43043697
vt 0.676127 0.53826898
vt 0.675056 0.44316196
vt 0.674953 0.52525997
vt 0.674072 0.511604
vt 0.674047 0.45596302
vt 0.673513 0.49757302
vt 0.673472 0.469481
vt 0.673304 0.483441
vt 0.581851 0.984080017
vt 0.581853 -0.0051959753
vt 0.526667 0.983951986
vt 0.528656 -0.0052740574
vt 0.487767 0.983862996
vt 0.490872 0.07774699
vt 0.491156 -0.0053299665
vt 0.490468 0.19560003
vt 0.489984 0.33663702
vt 0.489461 0.489267
vt 0.489461 0.489267
vt 0.488938 0.641896
vt 0.487767 0.983862996
vt 0.488938 0.641896
vt 0.488454 0.782933
vt 0.488051 0.90078598
vt 0.487767 -0.0053299665
vt 0.448866 -0.0052399635
vt 0.487743 -0.003183961
vt 0.487711 -0.00013899803
vt 0.487671 0.0035049915
vt 0.487629 0.0074480176
vt 0.487586 0.011390984
vt 0.487546 0.015034974
vt 0.487514 0.018079996
vt 0.48749 0.020226002
vt 0.467096 0.047773004
vt 0.484851 0.969524026
vt 0.484721 0.967164993
vt 0.484762 0.971709013
vt 0.484381 0.97359103
vt 0.484443 0.96476102
vt 0.484087 0.962441027
vt 0.483603 0.975268006
vt 0.483725 0.960331976
vt 0.483428 0.958564997
vt 0.483603 0.975268006
vt 0.483428 0.958564997
vt 0.482448 0.976908028
vt 0.483428 0.958564997
vt 0.483266 0.957266986
vt 0.482448 0.976908028
vt 0.483266 0.957266986
vt 0.462941 0.929755986
vt 0.482448 0.976908028
vt 0.482448 0.976908028
vt 0.462941 0.929755986
vt 0.481038 0.978478014
vt 0.479498 0.97995001
vt 0.477949 0.98129499
vt 0.476514 0.98248303
vt 0.475315 0.98348403
vt 0.474476 0.984269023
vt 0.436977 0.984323978
vt 0.438164 0.08684999
vt 0.434109 0.89072901
vt 0.393682 -0.0051130056
vt 0.403541 0.13361502
vt 0.38378 0.984403014
vt 0.399604 0.844024
vt 0.366073 0.18422401
vt 0.362263 0.79348099
vt 0.327642 -0.004961014
vt 0.320118 0.984497011
vt 0.328605 0.23483199
vt 0.324923 0.74293798
vt 0.293982 0.28159702
vt 0.256174 -0.004796982
vt 0.290418 0.69623297
vt 0.251223 0.984598994
vt 0.26505 0.32067502
vt 0.261585 0.657206
vt 0.244656 0.348221
vt 0.241261 0.629695
vt 0.184706 -0.004631996
vt 0.182329 0.984700978
vt 0.244001 0.348521
vt 0.243072 0.348947
vt 0.241961 0.349456
vt 0.240758 0.350008
vt 0.239555 0.350559
vt 0.240664 0.629458
vt 0.239817 0.62912297
vt 0.238443 0.35106897
vt 0.238804 0.628721
vt 0.237515 0.351494
vt 0.237707 0.628286
vt 0.236859 0.351794
vt 0.236859 0.351794
vt 0.184706 -0.004631996
vt 0.234989 0.357566
vt 0.236611 0.627851
vt 0.236611 0.627851
vt 0.235597 0.62745
vt 0.182329 0.984700978
vt 0.234989 0.357566
vt 0.232352 0.365013
vt 0.235597 0.62745
vt 0.234751 0.627114
vt 0.234154 0.626877
vt 0.232265 0.620014
vt 0.229199 0.373856
vt 0.229569 0.61101902
vt 0.225777 0.38381696
vt 0.22634 0.60032302
vt 0.222336 0.394615
vt 0.222855 0.58835697
vt 0.219123 0.405971
vt 0.21939 0.575554
vt 0.216388 0.41760504
vt 0.21622 0.56234503
vt 0.21438 0.42923903
vt 0.213622 0.54916197
vt 0.212941 0.44132996
vt 0.21187 0.53643698
vt 0.211768 0.45433903
vt 0.210886 0.467996
vt 0.21086 0.52363598
vt 0.210327 0.48202598
vt 0.210286 0.51011902
vt 0.210118 0.496158
vt 0.118665 -0.0044800043
vt 0.118667 0.984794974
vt 0.063481 -0.0043530464
vt 0.06547 0.984872997
vt 0.024581 -0.004263997
vt 0.027686 0.90185201
vt 0.02797 0.984929025
vt 0.027282 0.78399903
vt 0.026798 0.64296198
vt 0.026276 0.49033296
vt 0.026276 0.49033296
vt 0.024581 -0.004263997
vt 0.025752 0.337703
vt 0.025752 0.337703
vt 0.025269 0.196666
vt 0.024865 0.07881302
vt 0.964846 0.791417
vt 0.969105 0.79140401
vt 0.969102 0.79038799
vt 0.964849 0.79263401
vt 0.969108 0.79262102
vt 0.964853 0.79395097
vt 0.969112 0.79393703
vt 0.964857 0.795268
vt 0.969117 0.79525399
vt 0.964861 0.796484
vt 0.96912 0.796471
vt 0.964864 0.79750103
vt 0.969123 0.79748797
vt 0.964866 0.798217
vt 0.969126 0.798204
vt 0.958261 0.80467099
vt 0.96252 0.804658
vt 0.962506 0.800129
vt 0.958279 0.81070799
vt 0.962538 0.81069499
vt 0.958301 0.81789702
vt 0.96256 0.81788403
vt 0.958326 0.825881
vt 0.962585 0.82586801
vt 0.958352 0.83430499
vt 0.962611 0.834292
vt 0.958378 0.84281403
vt 0.962637 0.84280097
vt 0.958403 0.85105097
vt 0.962662 0.85103798
vt 0.958426 0.85865998
vt 0.962685 0.85864699
vt 0.958449 0.86600798
vt 0.962708 0.86599499
vt 0.958472 0.87359297
vt 0.962731 0.87357998
vt 0.958496 0.88125098
vt 0.962755 0.88123798
vt 0.958519 0.88881999
vt 0.962778 0.888807
vt 0.958541 0.896139026
vt 0.9628 0.89612502
vt 0.962822 0.903032005
vt 0.958562 0.903045
vt 0.962841 0.90936297
vt 0.967298 0.864699
vt 0.96302 0.85841
vt 0.963039 0.864712
vt 0.967279 0.858397
vt 0.962998 0.85146701
vt 0.967258 0.85145402
vt 0.962974 0.84356302
vt 0.967233 0.84355003
vt 0.962948 0.83512998
vt 0.967208 0.83511698
vt 0.962922 0.826599
vt 0.967181 0.82658601
vt 0.962897 0.81840402
vt 0.967156 0.81839103
vt 0.962874 0.810974
vt 0.967133 0.81096101
vt 0.962855 0.80474299
vt 0.967114 0.80472898
vt 0.962841 0.80014199
vt 0.962529 0.933423996
vt 0.958268 0.932796
vt 0.95827 0.93343699
vt 0.962527 0.93278402
vt 0.958265 0.93188697
vt 0.962524 0.93187398
vt 0.958262 0.93079901
vt 0.962521 0.93078601
vt 0.958258 0.92962098
vt 0.962517 0.92960799
vt 0.958255 0.92844403
vt 0.962514 0.92843002
vt 0.958251 0.92735499
vt 0.962511 0.927342
vt 0.958249 0.92644602
vt 0.962508 0.92643303
vt 0.958247 0.92580497
vt 0.969169 0.358634
vt 0.964818 0.328633
vt 0.96491 0.358647
vt 0.969077 0.32861996
vt 0.964688 0.28605604
vt 0.968947 0.286043
vt 0.964531 0.23510301
vt 0.96879 0.23509002
vt 0.964362 0.17996198
vt 0.968621 0.17994899
vt 0.964193 0.12482101
vt 0.968452 0.12480903
vt 0.964037 0.07386899
vt 0.968296 0.073855996
vt 0.963906 0.03129202
vt 0.968165 0.031279027
vt 0.963814 0.0012779832
vt 0.968073 0.0012649894
vt 0.963812 0.00058597326
vt 0.968071 0.00057297945
vt 0.963809 -0.00042700768
vt 0.968068 -0.00044095516
vt 0.963805 -0.0016429424
vt 0.968064 -0.0016560555
vt 0.963801 -0.002941966
vt 0.96806 -0.0029549599
vt 0.963797 -0.004205942
vt 0.968056 -0.004220009
vt 0.963794 -0.0053169727
vt 0.958293 0.91055697
vt 0.962553 0.910570025
vt 0.962556 0.90938997
vt 0.958289 0.91183603
vt 0.962548 0.91184902
vt 0.958285 0.913356006
vt 0.962544 0.91336799
vt 0.958279 0.91518003
vt 0.962538 0.91519302
vt 0.958273 0.917189
vt 0.962532 0.917201996
vt 0.958267 0.91926199
vt 0.962526 0.919274986
vt 0.95826 0.92127901
vt 0.96252 0.92129201
vt 0.958255 0.92311698
vt 0.962514 0.92313099
vt 0.95825 0.924658
vt 0.962509 0.924670994
vt 0.958247 0.925778985
vt 0.962506 0.92579198
vt 0.958346 0.446827
vt 0.962605 0.446814
vt 0.962506 0.41442204
vt 0.958487 0.49277902
vt 0.962746 0.492765
vt 0.958656 0.54777002
vt 0.962915 0.54775703
vt 0.958838 0.60728103
vt 0.963097 0.60726798
vt 0.959021 0.666793
vt 0.96328 0.66678
vt 0.95919 0.721785
vt 0.963449 0.721771
vt 0.95933 0.76773602
vt 0.96359 0.76772302
vt 0.95943 0.800129
vt 0.963689 0.800116
vt 0.953733 0.07774699
vt 0.957992 0.07775998
vt 0.958247 -0.0053169727
vt 0.953371 0.19560003
vt 0.95763 0.19561303
vt 0.952938 0.33663797
vt 0.957198 0.33665097
vt 0.95247 0.489267
vt 0.956729 0.48928
vt 0.952002 0.64189702
vt 0.956261 0.64191002
vt 0.951569 0.78293401
vt 0.955828 0.782947
vt 0.951208 0.900786996
vt 0.955467 0.90079999
vt 0.950953 0.98386401
vt 0.955212 0.983877003
vt 0.963794 0.41440904
vt 0.959426 0.379171
vt 0.959534 0.41442204
vt 0.963685 0.37915802
vt 0.959273 0.329163
vt 0.963532 0.32914996
vt 0.959089 0.26931703
vt 0.963348 0.26930404
vt 0.958891 0.20455301
vt 0.96315 0.20454001
vt 0.958692 0.13978803
vt 0.962951 0.13977498
vt 0.958508 0.079943
vt 0.962768 0.07993001
vt 0.958355 0.029935002
vt 0.962614 0.029922009
vt 0.958247 -0.0053169727
vt 0.96256 0.91049403
vt 0.966819 0.910480976
vt 0.966815 0.909376025
vt 0.962564 0.91206002
vt 0.966824 0.91204703
vt 0.96257 0.913935006
vt 0.966829 0.913921
vt 0.962576 0.915962994
vt 0.966835 0.91595
vt 0.962583 0.917991996
vt 0.966842 0.917979
vt 0.962588 0.919866025
vt 0.966847 0.91985297
vt 0.962593 0.92143202
vt 0.966852 0.921419024
vt 0.962596 0.922536016
vt 0.966856 0.92252302
vt 0.963786 0.44595003
vt 0.968045 0.44593704
vt 0.967948 0.41442204
vt 0.963923 0.490658
vt 0.968182 0.49064398
vt 0.964087 0.54416
vt 0.968346 0.544147
vt 0.964265 0.60206002
vt 0.968524 0.60204703
vt 0.964442 0.65995902
vt 0.968701 0.65994602
vt 0.964606 0.713462
vt 0.968866 0.713448
vt 0.964744 0.758169
vt 0.969003 0.758156
vt 0.96484 0.789684
vt 0.969099 0.789671
vt 0.964842 0.79040003
vt 0.958247 0.80014199
vt 0.958582 0.909376025
vt 0.9671 0.800129
vt 0.962506 0.92579198
vt 0.968053 -0.0053299665
vt 0.958297 0.909376025
vt 0.958247 0.41443503
vt 0.953987 -0.0053299665
vt 0.962506 -0.0053299665
vt 0.962556 0.90938902
vt 0.963689 0.41443503
vn -0 1 0
vn -0 1 0
vn -0 1 0
vn -0 1 0
vn -0 1 0
vn -0 1 0
vn -0 1 0
vn -0 1 0
vn -0 1 0
vn -0 1 0
vn -0 1 0
vn -0 1 0
vn -0 1 0
vn -0 1 0
vn -0 1 0
vn -0 1 0
vn -0 1 0
vn -0 1 0
vn -0 1 0
vn -0 1 0
vn -0 1 0
vn -0 1 0
vn -0 1 0
vn -0 1 0
vn -0 1 0
vn -0 1 0
vn -0 1 0
vn 0.000001 1 0.000005
vn 0.000001 1 0.000005
vn 0.000001 1 0.000005
vn -0 1 0
vn -0 1 0
vn -0 1 0
vn -0 1 0
vn -0 1 0
vn -0 1 0
vn -0 1 0
vn -0 1 0
vn -0 1 0
vn -0 1 0
vn -0 1 0
vn -0 1 0
vn -0 1 0
vn -0 1 0
vn -0 1 0
vn -0 1 0
vn -0 1 0
vn -0 1 0
vn -0 1 0
vn -0 1 0
vn -0 1 0
vn -0 1 0
vn -0 1 0
vn -0 1 0
vn -0 1 0
vn -0 1 0
vn -0 1 0
vn -0 1 0
vn -0 1 0
vn -0 1 0
vn -0 1 0
vn -0 1 0
vn -0 1 0
vn -0 1 0
vn -0 1 0
vn -0 1 0
vn -0 1 0
vn -0 1 0
vn -0 1 0
vn -0 1 0
vn -0 1 0
vn -0 1 0
vn -0 1 0
vn -0 1 0
vn -0 1 0
vn -0 1 0
vn 0 1 0.000002
vn 0 1 0.000002
vn 0 1 0.000002
vn 0 1 0.000002
vn 0 1 0.000002
vn 0 1 0.000002
vn -0 1 0
vn -0 1 0
vn -0 1 0
vn -0 1 0
vn -0 1 0
vn -0 1 0
vn -0 1 0
vn -0 1 0
vn -0 1 0
vn -0 1 0
vn -0 1 0
vn -0 1 0
vn -0 1 0
vn -0 1 0
vn -0 1 0
vn -0 1 0
vn -0 1 0
vn -0 1 0
vn -0 1 0
vn -0 1 0
vn -0 1 0
vn -0 1 0
vn -0 1 0
vn -0 1 0
vn -0 1 0
vn -0 1 0
vn -0 1 0
vn -0 1 0
vn 0 -1 0
vn 0 -1 0
vn 0 -1 0
vn -0 1 0
vn -0 1 0
vn -0 1 0
vn 0 -1 0
vn 0 -1 0
vn 0 -1 0
vn 0 -1 0
vn 0 -1 0
vn 0 -1 0
vn 0 -1 0
vn 0 -1 0
vn 0 -1 0
vn 0 -1 0
vn 0 -1 0
vn 0 -1 0
vn 0 -1 0
vn 0 -1 0
vn 0 -1 0
vn 0 -1 0
vn 0 -1 0
vn 0 -1 0
vn 0 -1 0
vn 0 -1 0
vn -0 -1 -0.000006
vn -0 -1 -0.000006
vn -0 -1 -0.000006
vn -0 -1 -0.000002
vn -0 -1 -0.000002
vn -0 -1 -0.000002
vn -0 -1 -0.000001
vn -0 -1 -0.000001
vn -0 -1 -0.000001
vn 0 -1 0
vn 0 -1 0
vn 0 -1 0
vn 0 -1 0
vn 0 -1 0
vn 0 -1 0
vn 0 -1 0
vn 0 -1 0
vn 0 -1 0
vn 0 -1 0
vn 0 -1 0
vn 0 -1 0
vn 0 -1 0
vn 0 -1 0
vn 0 -1 0
vn 0 -1 0
vn 0 -1 0
vn 0 -1 0
vn 0 -1 0
vn 0 -1 0
vn 0 -1 0
vn 0 -1 0
vn 0 -1 0
vn 0 -1 0
vn 0 -1 0
vn 0 -1 0
vn 0 -1 0
vn 0 -1 0
vn 0 -1 0
vn 0 -1 0
vn 0 -1 0
vn 0 -1 0
vn 0 -1 0
vn 0 -1 0
vn 0 -1 0
vn 0 -1 0
vn 0 -1 0
vn 0 -1 0
vn 0 -1 0
vn 0 -1 0
vn 0 -1 0
vn 0 -1 0
vn 0 -1 0
vn -0 -1 -0.000003
vn -0 -1 -0.000003
vn -0 -1 -0.000003
vn 0 -1 0
vn 0.000001 -1 -0.000006
vn 0.000001 -1 -0.000006
vn 0.000001 -1 -0.000006
vn 0 -1 0
vn 0 -1 0
vn 0 -1 0
vn 0 -1 0
vn 0 -1 0
vn 0 -1 0
vn 0 -1 0
vn 0 -1 0
vn 0 -1 0
vn 0 -1 0
vn 0 -1 0
vn 0 -1 0
vn 0 -1 0
vn 0 -1 0
vn 0 -1 0
vn 0 -1 0
vn 0 -1 0
vn 0 -1 0
vn 0 -1 0
vn 0 -1 0
vn 0 -1 0
vn 0 -1 0
vn 0 -1 0
vn 0 -1 0
vn 0 -1 0
vn 0 -1 0
vn 0 -1 0
vn 0 -1 0
vn 0 -1 0
vn 0 -1 0
vn 0 -1 0
vn 0 -1 0
vn 0 -1 0
vn 0 -1 0
vn 0 -1 0
vn 0 -1 0
vn -0 1 0
vn -0 1 0
vn -0 1 0
vn 0 -1 0
vn 0 -1 0
vn 0 -1 0
vn 0.910337 0 -0.413831
vn 0.910337 0 -0.413831
vn 0.910337 0 -0.413831
vn 0.910337 0 -0.413831
vn 0.910337 0 -0.413831
vn 0.910337 0 -0.413831
vn 0.910337 0 -0.413831
vn 0.910337 0 -0.413831
vn 0.910337 0 -0.413831
vn 0.910306 0 -0.413862
vn 0.910306 0 -0.413862
vn 0.910306 0 -0.413892
vn 0.910306 0 -0.413892
vn 0.910306 0 -0.413862
vn 0.910306 0 -0.413862
vn 0.323954 0 -0.946043
vn 0.323954 0 -0.946043
vn 0.311228 0 -0.950316
vn 0.337687 0 -0.941252
vn 0.337687 0 -0.941252
vn 0.333262 0 -0.942808
vn 0.333262 0 -0.942808
vn 0.317209 0 -0.948332
vn 0.317209 0 -0.948332
vn 0.290872 0 -0.956725
vn 0.290872 0 -0.956725
vn 0.253517 0 -0.967315
vn 0.253517 0 -0.967315
vn 0.202551 0 -0.979247
vn 0.202551 0 -0.979247
vn 0.147221 0 -0.989074
vn 0.147221 0 -0.989074
vn 0.107059 0 -0.994232
vn 0.107059 0 -0.994232
vn 0.080172 0 -0.996765
vn 0.080172 0 -0.996765
vn 0.055147 0 -0.998474
vn 0.055147 0 -0.998474
vn 0.030396 0 -0.999512
vn 0.030396 0 -0.999512
vn 0.004425 0 -0.999969
vn 0.004425 0 -0.999969
vn -0.024201 0 -0.999695
vn -0.024201 0 -0.999695
vn -0.057466 0 -0.998321
vn -0.057466 0 -0.998321
vn -0.104434 0 -0.994507
vn -0.057466 0 -0.998321
vn -0.104434 0 -0.994507
vn -0.161901 0 -0.986785
vn -0.161901 0 -0.986785
vn -0.210395 0 -0.977599
vn -0.210395 0 -0.977599
vn -0.244331 0 -0.969665
vn -0.244331 0 -0.969665
vn -0.267495 0 -0.96353
vn -0.267495 0 -0.96353
vn -0.28135 0 -0.959593
vn -0.28135 0 -0.959593
vn -0.285104 0 -0.958464
vn -0.285104 0 -0.958464
vn -0.273293 0 -0.961913
vn -0.273293 0 -0.961913
vn -0.262368 0 -0.964965
vn -0.928373 0 -0.371593
vn -0.928434 0 -0.371471
vn -0.928373 0 -0.371593
vn -0.928434 0 -0.371471
vn -0.928434 0 -0.37141
vn -0.928434 0 -0.37141
vn -0.928434 0 -0.371441
vn -0.928434 0 -0.371441
vn -0.928465 0 -0.37138
vn -0.928465 0 -0.37138
vn -0.928465 0 -0.37138
vn -0.928465 0 -0.37138
vn -0.928465 0 -0.37138
vn -0.928465 0 -0.37138
vn -0.928465 0 -0.37141
vn -0.928465 0 -0.37141
vn -0.928434 0 -0.371471
vn -0.591723 0 -0.806116
vn -0.591723 0 -0.806116
vn -0.591723 0 -0.806116
vn -0.591723 0 -0.806116
vn -0.591723 0 -0.806116
vn -0.591723 0 -0.806116
vn -0.591723 0 -0.806116
vn -0.591723 0 -0.806116
vn -0.591723 0 -0.806116
vn -0.591723 0 -0.806116
vn -0.591723 0 -0.806116
vn -0.591723 0 -0.806116
vn -0.591723 0 -0.806116
vn -0.591723 0 -0.806116
vn -0.591723 0 -0.806116
vn -0.591723 0 -0.806116
vn -0.368023 0 -0.929777
vn -0.368023 0 -0.929777
vn -0.141575 0 -0.989898
vn -0.141575 0 -0.989898
vn -0.164525 0 -0.986358
vn -0.164525 0 -0.986358
vn -0.157384 0 -0.987518
vn -0.157384 0 -0.987518
vn -0.130284 0 -0.991455
vn -0.130284 0 -0.991455
vn -0.082003 0 -0.996612
vn -0.082003 0 -0.996612
vn -0.003906 0 -0.999969
vn 0.122959 0 -0.992401
vn 0.122959 0 -0.992401
vn -0.003906 0 -0.999969
vn 0.314493 0 -0.949248
vn 0.314493 0 -0.949248
vn 0.503128 0 -0.864193
vn 0.503128 0 -0.864193
vn 0.625446 0 -0.780236
vn 0.625446 0 -0.780236
vn 0.698111 0 -0.715964
vn 0.698111 0 -0.715964
vn 0.741295 0 -0.671163
vn 0.741295 0 -0.671163
vn 0.764794 0 -0.644246
vn 0.764794 0 -0.644246
vn 0.770898 0 -0.636921
vn 0.770898 0 -0.636921
vn 0.751213 0 -0.660054
vn 0.751213 0 -0.660054
vn 0.732383 0 -0.680868
vn 0.732383 0 -0.680868
vn 0.999969 0 0.001587
vn 0.999969 0 0.001587
vn 0.999969 0 0.001587
vn 0.999969 0 0.001587
vn 0.999969 0 0.001587
vn 0.999969 0 0.001587
vn 0.999969 0 0.001587
vn 0.999969 0 0.001587
vn 0.999969 0 0.001587
vn 0.999969 0 0.001587
vn 0.999969 0 0.001587
vn 0.999969 0 0.001587
vn 0.999969 0 0.001587
vn 0.999969 0 0.001587
vn 0.999969 0 0.001587
vn 0.999969 0 0.001587
vn 0.999969 0 0.001587
vn 0.000336 0 0.999969
vn 0.000336 0 0.999969
vn 0.000336 0 0.999969
vn 0.000336 0 0.999969
vn 0.000336 0 0.999969
vn 0.000336 0 0.999969
vn 0.000336 0 0.999969
vn 0.000336 0 0.999969
vn 0.000336 0 0.999969
vn 0.000336 0 0.999969
vn 0.000336 0 0.999969
vn 0.000336 0 0.999969
vn 0.000336 0 0.999969
vn 0.000336 0 0.999969
vn 0.000336 0 0.999969
vn 0.000336 0 0.999969
vn 0.000336 0 0.999969
vn -0.999969 0 -0.000763
vn -0.999969 0 -0.000763
vn -0.999969 0 -0.000763
vn -0.999969 0 -0.000763
vn -0.999969 0 -0.000763
vn -0.999969 0 -0.000763
vn -0.999969 0 -0.000763
vn -0.999969 0 -0.000763
vn -0.999969 0 -0.000763
vn -0.999969 0 -0.000763
vn -0.999969 0 -0.000763
vn -0.999969 0 -0.000763
vn -0.999969 0 -0.000763
vn -0.999969 0 -0.000763
vn -0.999969 0 -0.000763
vn -0.999969 0 -0.000763
vn -0.999969 0 -0.000763
vn 0.013916 0 -0.999878
vn 0.013916 0 -0.999878
vn 0.013916 0 -0.999878
vn 0.013855 0 -0.999878
vn 0.013855 0 -0.999878
vn 0.013855 0 -0.999878
vn 0.013855 0 -0.999878
vn 0.013855 0 -0.999878
vn 0.013855 0 -0.999878
vn 0.013886 0 -0.999878
vn 0.013886 0 -0.999878
vn 0.013855 0 -0.999878
vn 0.013855 0 -0.999878
vn 0.013886 0 -0.999878
vn 0.013886 0 -0.999878
vn 0.013916 0 -0.999878
vn 0.013916 0 -0.999878
vn 0.597461 0 -0.801874
vn 0.597461 0 -0.801874
vn 0.597461 0 -0.801874
vn 0.597461 0 -0.801874
vn 0.597461 0 -0.801874
vn 0.597461 0 -0.801874
vn 0.597461 0 -0.801874
vn 0.597461 0 -0.801874
vn 0.597461 0 -0.801874
vn 0.597461 0 -0.801874
vn 0.597461 0 -0.801874
vn 0.597461 0 -0.801874
vn 0.597461 0 -0.801874
vn 0.597461 0 -0.801874
vn 0.597461 0 -0.801874
vn 0.778466 0 -0.627644
vn 0.778466 0 -0.627644
vn 0.910337 0 -0.413831
vn 0.311228 0 -0.950316
vn -0.057466 0 -0.998321
vn -0.262368 0 -0.964965
vn -0.928434 0 -0.371471
vn -0.003906 0 -0.999969
vn -0.003906 0 -0.999969
vn 0.999969 0 0.001587
vn 0.000336 0 0.999969
vn -0.999969 0 -0.000763
vn 0.013916 0 -0.999878
vn 0.597461 0 -0.801874
f 30/30/30 29/29/29 28/28/28
f 3/3/3 2/2/2 1/1/1
f 3/3/3 4/4/4 2/2/2
f 3/3/3 5/5/5 4/4/4
f 3/3/3 6/6/6 5/5/5
f 3/3/3 7/7/7 6/6/6
f 3/3/3 8/8/8 7/7/7
f 3/3/3 9/9/9 8/8/8
f 3/3/3 10/10/10 9/9/9
f 3/3/3 11/11/11 10/10/10
f 3/3/3 34/34/34 11/11/11
f 34/34/34 3/3/3 36/36/36
f 36/36/36 37/37/37 34/34/34
f 36/36/36 40/40/40 37/37/37
f 42/42/42 40/40/40 36/36/36
f 42/42/42 44/44/44 40/40/40
f 42/42/42 46/46/46 44/44/44
f 47/47/47 46/46/46 42/42/42
f 47/47/47 50/50/50 46/46/46
f 47/47/47 52/52/52 50/50/50
f 54/54/54 52/52/52 47/47/47
f 54/54/54 56/56/56 52/52/52
f 54/54/54 57/57/57 56/56/56
f 54/54/54 58/58/58 57/57/57
f 54/54/54 59/59/59 58/58/58
f 54/54/54 60/60/60 59/59/59
f 54/54/54 63/63/63 60/60/60
f 54/54/54 65/65/65 63/63/63
f 54/54/54 67/67/67 65/65/65
f 54/54/54 68/68/68 67/67/67
f 54/54/54 71/71/71 68/68/68
f 54/54/54 75/75/75 71/71/71
f 54/54/54 84/84/84 83/83/83
f 54/54/54 87/87/87 84/84/84
f 54/54/54 89/89/89 87/87/87
f 54/54/54 91/91/91 89/89/89
f 54/54/54 93/93/93 91/91/91
f 54/54/54 95/95/95 93/93/93
f 54/54/54 96/96/96 95/95/95
f 54/54/54 98/98/98 96/96/96
f 54/54/54 100/100/100 98/98/98
f 54/54/54 55/55/55 100/100/100
f 100/100/100 55/55/55 99/99/99
f 99/99/99 55/55/55 97/97/97
f 97/97/97 55/55/55 94/94/94
f 94/94/94 55/55/55 92/92/92
f 92/92/92 55/55/55 90/90/90
f 90/90/90 55/55/55 88/88/88
f 88/88/88 55/55/55 86/86/86
f 86/86/86 55/55/55 85/85/85
f 101/101/101 55/55/55 54/54/54
f 76/76/76 55/55/55 74/74/74
f 74/74/74 55/55/55 73/73/73
f 73/73/73 55/55/55 72/72/72
f 72/72/72 55/55/55 70/70/70
f 70/70/70 55/55/55 69/69/69
f 69/69/69 55/55/55 66/66/66
f 66/66/66 55/55/55 64/64/64
f 64/64/64 55/55/55 62/62/62
f 62/62/62 55/55/55 61/61/61
f 61/61/61 55/55/55 53/53/53
f 101/101/101 102/102/102 55/55/55
f 53/53/53 55/55/55 49/49/49
f 103/103/103 102/102/102 101/101/101
f 53/53/53 49/49/49 51/51/51
f 103/103/103 104/104/104 102/102/102
f 51/51/51 49/49/49 48/48/48
f 48/48/48 49/49/49 43/43/43
f 48/48/48 43/43/43 45/45/45
f 45/45/45 43/43/43 41/41/41
f 41/41/41 43/43/43 38/38/38
f 41/41/41 38/38/38 39/39/39
f 39/39/39 38/38/38 35/35/35
f 35/35/35 38/38/38 33/33/33
f 35/35/35 33/33/33 23/23/23
f 23/23/23 33/33/33 32/32/32
f 23/23/23 32/32/32 31/31/31
f 105/105/105 104/104/104 103/103/103
f 106/106/106 107/107/107 104/104/104
f 105/105/105 106/106/106 104/104/104
f 105/105/105 108/108/108 106/106/106
f 105/105/105 109/109/109 108/108/108
f 105/105/105 110/110/110 109/109/109
f 105/105/105 116/116/116 115/115/115
f 105/105/105 115/115/115 114/114/114
f 23/23/23 27/27/27 26/26/26
f 23/23/23 26/26/26 25/25/25
f 23/23/23 25/25/25 24/24/24
f 23/23/23 24/24/24 21/21/21
f 23/23/23 21/21/21 22/22/22
f 22/22/22 21/21/21 20/20/20
f 20/20/20 21/21/21 18/18/18
f 20/20/20 18/18/18 19/19/19
f 19/19/19 18/18/18 17/17/17
f 17/17/17 18/18/18 15/15/15
f 17/17/17 15/15/15 16/16/16
f 16/16/16 15/15/15 14/14/14
f 14/14/14 15/15/15 13/13/13
f 14/14/14 13/13/13 12/12/12
f 79/79/79 78/78/78 77/77/77
f 82/82/82 81/81/81 80/80/80
f 113/113/113 112/112/112 111/111/111
f 119/119/119 118/118/118 117/117/117
f 120/120/120 118/118/118 119/119/119
f 121/121/121 118/118/118 120/120/120
f 122/122/122 118/118/118 121/121/121
f 123/123/123 118/118/118 122/122/122
f 124/124/124 118/118/118 123/123/123
f 125/125/125 118/118/118 124/124/124
f 126/126/126 118/118/118 125/125/125
f 127/127/127 118/118/118 126/126/126
f 155/155/155 118/118/118 127/127/127
f 155/155/155 157/157/157 118/118/118
f 158/158/158 157/157/157 155/155/155
f 161/161/161 157/157/157 158/158/158
f 161/161/161 163/163/163 157/157/157
f 165/165/165 163/163/163 161/161/161
f 167/167/167 163/163/163 165/165/165
f 167/167/167 168/168/168 163/163/163
f 171/171/171 168/168/168 167/167/167
f 173/173/173 168/168/168 171/171/171
f 173/173/173 175/175/175 168/168/168
f 177/177/177 175/175/175 173/173/173
f 178/178/178 175/175/175 177/177/177
f 179/179/179 175/175/175 178/178/178
f 180/180/180 175/175/175 179/179/179
f 181/181/181 175/175/175 180/180/180
f 184/184/184 175/175/175 181/181/181
f 186/186/186 175/175/175 184/184/184
f 188/188/188 175/175/175 186/186/186
f 197/197/197 175/175/175 196/196/196
f 202/202/202 175/175/175 197/197/197
f 204/204/204 175/175/175 202/202/202
f 206/206/206 175/175/175 204/204/204
f 208/208/208 175/175/175 206/206/206
f 210/210/210 175/175/175 208/208/208
f 212/212/212 175/175/175 210/210/210
f 214/214/214 175/175/175 212/212/212
f 216/216/216 175/175/175 214/214/214
f 217/217/217 175/175/175 216/216/216
f 219/219/219 175/175/175 217/217/217
f 221/221/221 175/175/175 219/219/219
f 176/176/176 175/175/175 221/221/221
f 176/176/176 221/221/221 220/220/220
f 176/176/176 220/220/220 218/218/218
f 176/176/176 218/218/218 215/215/215
f 176/176/176 215/215/215 213/213/213
f 176/176/176 213/213/213 211/211/211
f 176/176/176 211/211/211 209/209/209
f 176/176/176 209/209/209 207/207/207
f 176/176/176 207/207/207 205/205/205
f 176/176/176 205/205/205 203/203/203
f 176/176/176 203/203/203 201/201/201
f 176/176/176 201/201/201 200/200/200
f 176/176/176 200/200/200 199/199/199
f 176/176/176 199/199/199 198/198/198
f 176/176/176 222/222/222 175/175/175
f 176/176/176 192/192/192 187/187/187
f 176/176/176 187/187/187 185/185/185
f 176/176/176 185/185/185 183/183/183
f 176/176/176 183/183/183 182/182/182
f 176/176/176 182/182/182 174/174/174
f 223/223/223 222/222/222 176/176/176
f 176/176/176 174/174/174 170/170/170
f 223/223/223 224/224/224 222/222/222
f 170/170/170 174/174/174 172/172/172
f 225/225/225 224/224/224 223/223/223
f 170/170/170 172/172/172 169/169/169
f 170/170/170 169/169/169 164/164/164
f 164/164/164 169/169/169 166/166/166
f 164/164/164 166/166/166 162/162/162
f 164/164/164 162/162/162 159/159/159
f 159/159/159 162/162/162 160/160/160
f 159/159/159 160/160/160 156/156/156
f 159/159/159 156/156/156 154/154/154
f 154/154/154 156/156/156 147/147/147
f 154/154/154 147/147/147 153/153/153
f 153/153/153 147/147/147 152/152/152
f 152/152/152 147/147/147 151/151/151
f 151/151/151 147/147/147 150/150/150
f 150/150/150 147/147/147 149/149/149
f 149/149/149 147/147/147 148/148/148
f 148/148/148 147/147/147 146/146/146
f 225/225/225 226/226/226 224/224/224
f 228/228/228 227/227/227 225/225/225
f 227/227/227 226/226/226 225/225/225
f 229/229/229 226/226/226 227/227/227
f 230/230/230 226/226/226 229/229/229
f 231/231/231 226/226/226 230/230/230
f 237/237/237 226/226/226 236/236/236
f 236/236/236 226/226/226 235/235/235
f 130/130/130 129/129/129 128/128/128
f 131/131/131 129/129/129 130/130/130
f 131/131/131 132/132/132 129/129/129
f 131/131/131 133/133/133 132/132/132
f 134/134/134 133/133/133 131/131/131
f 134/134/134 135/135/135 133/133/133
f 134/134/134 136/136/136 135/135/135
f 139/139/139 138/138/138 137/137/137
f 142/142/142 141/141/141 140/140/140
f 145/145/145 144/144/144 143/143/143
f 191/191/191 190/190/190 189/189/189
f 195/195/195 194/194/194 193/193/193
f 234/234/234 233/233/233 232/232/232
f 240/240/240 239/239/239 238/238/238
f 238/238/238 239/239/239 241/241/241
f 454/454/454 240/240/240 238/238/238
f 239/239/239 242/242/242 241/241/241
f 453/453/453 240/240/240 454/454/454
f 241/241/241 242/242/242 243/243/243
f 452/452/452 453/453/453 454/454/454
f 242/242/242 244/244/244 243/243/243
f 451/451/451 453/453/453 452/452/452
f 243/243/243 244/244/244 245/245/245
f 450/450/450 451/451/451 452/452/452
f 244/244/244 246/246/246 245/245/245
f 449/449/449 451/451/451 450/450/450
f 245/245/245 246/246/246 247/247/247
f 448/448/448 449/449/449 450/450/450
f 246/246/246 248/248/248 247/247/247
f 447/447/447 449/449/449 448/448/448
f 247/247/247 248/248/248 249/249/249
f 446/446/446 447/447/447 448/448/448
f 248/248/248 250/250/250 249/249/249
f 445/445/445 447/447/447 446/446/446
f 249/249/249 250/250/250 251/251/251
f 250/250/250 252/252/252 251/251/251
f 444/444/444 445/445/445 446/446/446
f 443/443/443 445/445/445 444/444/444
f 442/442/442 443/443/443 444/444/444
f 441/441/441 443/443/443 442/442/442
f 440/440/440 441/441/441 442/442/442
f 438/438/438 441/441/441 440/440/440
f 437/437/437 438/438/438 440/440/440
f 439/439/439 438/438/438 437/437/437
f 465/465/465 439/439/439 437/437/437
f 255/255/255 254/254/254 253/253/253
f 455/455/455 255/255/255 253/253/253
f 253/253/253 254/254/254 256/256/256
f 254/254/254 257/257/257 256/256/256
f 256/256/256 257/257/257 258/258/258
f 257/257/257 259/259/259 258/258/258
f 258/258/258 259/259/259 260/260/260
f 259/259/259 261/261/261 260/260/260
f 260/260/260 261/261/261 262/262/262
f 261/261/261 263/263/263 262/262/262
f 262/262/262 263/263/263 264/264/264
f 263/263/263 265/265/265 264/264/264
f 264/264/264 265/265/265 266/266/266
f 265/265/265 267/267/267 266/266/266
f 266/266/266 267/267/267 268/268/268
f 267/267/267 269/269/269 268/268/268
f 268/268/268 269/269/269 270/270/270
f 269/269/269 271/271/271 270/270/270
f 270/270/270 271/271/271 272/272/272
f 271/271/271 273/273/273 272/272/272
f 272/272/272 273/273/273 274/274/274
f 273/273/273 275/275/275 274/274/274
f 274/274/274 275/275/275 276/276/276
f 275/275/275 277/277/277 276/276/276
f 276/276/276 277/277/277 278/278/278
f 277/277/277 279/279/279 278/278/278
f 279/279/279 280/280/280 278/278/278
f 280/280/280 281/281/281 278/278/278
f 280/280/280 282/282/282 281/281/281
f 282/282/282 456/456/456 281/281/281
f 285/285/285 284/284/284 283/283/283
f 284/284/284 286/286/286 283/283/283
f 284/284/284 287/287/287 286/286/286
f 287/287/287 288/288/288 286/286/286
f 287/287/287 289/289/289 288/288/288
f 289/289/289 290/290/290 288/288/288
f 289/289/289 291/291/291 290/290/290
f 291/291/291 292/292/292 290/290/290
f 291/291/291 293/293/293 292/292/292
f 293/293/293 294/294/294 292/292/292
f 293/293/293 295/295/295 294/294/294
f 295/295/295 296/296/296 294/294/294
f 295/295/295 297/297/297 296/296/296
f 297/297/297 298/298/298 296/296/296
f 297/297/297 299/299/299 298/298/298
f 299/299/299 300/300/300 298/298/298
f 299/299/299 301/301/301 300/300/300
f 301/301/301 457/457/457 300/300/300
f 304/304/304 303/303/303 302/302/302
f 303/303/303 305/305/305 302/302/302
f 303/303/303 306/306/306 305/305/305
f 306/306/306 307/307/307 305/305/305
f 306/306/306 308/308/308 307/307/307
f 308/308/308 309/309/309 307/307/307
f 308/308/308 310/310/310 309/309/309
f 310/310/310 311/311/311 309/309/309
f 310/310/310 312/312/312 311/311/311
f 312/312/312 313/313/313 311/311/311
f 312/312/312 314/314/314 313/313/313
f 314/314/314 315/315/315 313/313/313
f 314/314/314 316/316/316 315/315/315
f 316/316/316 317/317/317 315/315/315
f 316/316/316 318/318/318 317/317/317
f 318/318/318 458/458/458 317/317/317
f 321/321/321 320/320/320 319/319/319
f 320/320/320 322/322/322 319/319/319
f 320/320/320 323/323/323 322/322/322
f 323/323/323 324/324/324 322/322/322
f 323/323/323 325/325/325 324/324/324
f 325/325/325 326/326/326 324/324/324
f 325/325/325 327/327/327 326/326/326
f 327/327/327 328/328/328 326/326/326
f 327/327/327 329/329/329 328/328/328
f 329/329/329 330/330/330 328/328/328
f 329/329/329 331/331/331 330/330/330
f 331/331/331 332/332/332 330/330/330
f 331/331/331 333/333/333 332/332/332
f 333/333/333 334/334/334 332/332/332
f 333/333/333 335/335/335 334/334/334
f 335/335/335 336/336/336 334/334/334
f 335/335/335 337/337/337 336/336/336
f 337/337/337 338/338/338 336/336/336
f 337/337/337 339/339/339 338/338/338
f 339/339/339 340/340/340 338/338/338
f 339/339/339 341/341/341 340/340/340
f 341/341/341 342/342/342 340/340/340
f 341/341/341 343/343/343 342/342/342
f 343/343/343 344/344/344 342/342/342
f 343/343/343 345/345/345 344/344/344
f 345/345/345 346/346/346 344/344/344
f 345/345/345 347/347/347 346/346/346
f 347/347/347 459/459/459 346/346/346
f 350/350/350 349/349/349 348/348/348
f 460/460/460 350/350/350 348/348/348
f 348/348/348 349/349/349 351/351/351
f 349/349/349 352/352/352 351/351/351
f 351/351/351 352/352/352 353/353/353
f 352/352/352 354/354/354 353/353/353
f 353/353/353 354/354/354 355/355/355
f 354/354/354 356/356/356 355/355/355
f 355/355/355 356/356/356 357/357/357
f 356/356/356 358/358/358 357/357/357
f 357/357/357 358/358/358 359/359/359
f 358/358/358 360/360/360 359/359/359
f 359/359/359 360/360/360 361/361/361
f 360/360/360 362/362/362 361/361/361
f 361/361/361 362/362/362 363/363/363
f 362/362/362 364/364/364 363/363/363
f 363/363/363 364/364/364 365/365/365
f 364/364/364 366/366/366 365/365/365
f 365/365/365 366/366/366 367/367/367
f 366/366/366 368/368/368 367/367/367
f 371/371/371 370/370/370 369/369/369
f 461/461/461 371/371/371 369/369/369
f 369/369/369 370/370/370 372/372/372
f 370/370/370 373/373/373 372/372/372
f 372/372/372 373/373/373 374/374/374
f 373/373/373 375/375/375 374/374/374
f 374/374/374 375/375/375 376/376/376
f 375/375/375 377/377/377 376/376/376
f 376/376/376 377/377/377 378/378/378
f 377/377/377 379/379/379 378/378/378
f 378/378/378 379/379/379 380/380/380
f 379/379/379 381/381/381 380/380/380
f 380/380/380 381/381/381 382/382/382
f 381/381/381 383/383/383 382/382/382
f 382/382/382 383/383/383 384/384/384
f 383/383/383 385/385/385 384/384/384
f 388/388/388 387/387/387 386/386/386
f 462/462/462 388/388/388 386/386/386
f 386/386/386 387/387/387 389/389/389
f 387/387/387 390/390/390 389/389/389
f 389/389/389 390/390/390 391/391/391
f 390/390/390 392/392/392 391/391/391
f 391/391/391 392/392/392 393/393/393
f 392/392/392 394/394/394 393/393/393
f 393/393/393 394/394/394 395/395/395
f 394/394/394 396/396/396 395/395/395
f 395/395/395 396/396/396 397/397/397
f 396/396/396 398/398/398 397/397/397
f 397/397/397 398/398/398 399/399/399
f 398/398/398 400/400/400 399/399/399
f 399/399/399 400/400/400 401/401/401
f 400/400/400 402/402/402 401/401/401
f 405/405/405 404/404/404 403/403/403
f 404/404/404 406/406/406 403/403/403
f 404/404/404 407/407/407 406/406/406
f 407/407/407 408/408/408 406/406/406
f 407/407/407 409/409/409 408/408/408
f 409/409/409 410/410/410 408/408/408
f 409/409/409 411/411/411 410/410/410
f 411/411/411 412/412/412 410/410/410
f 411/411/411 413/413/413 412/412/412
f 413/413/413 414/414/414 412/412/412
f 413/413/413 415/415/415 414/414/414
f 415/415/415 416/416/416 414/414/414
f 415/415/415 417/417/417 416/416/416
f 417/417/417 418/418/418 416/416/416
f 417/417/417 419/419/419 418/418/418
f 419/419/419 463/463/463 418/418/418
f 422/422/422 421/421/421 420/420/420
f 464/464/464 422/422/422 420/420/420
f 420/420/420 421/421/421 423/423/423
f 421/421/421 424/424/424 423/423/423
f 423/423/423 424/424/424 425/425/425
f 424/424/424 426/426/426 425/425/425
f 425/425/425 426/426/426 427/427/427
f 426/426/426 428/428/428 427/427/427
f 427/427/427 428/428/428 429/429/429
f 428/428/428 430/430/430 429/429/429
f 429/429/429 430/430/430 431/431/431
f 430/430/430 432/432/432 431/431/431
f 431/431/431 432/432/432 433/433/433
f 432/432/432 434/434/434 433/433/433
f 433/433/433 434/434/434 435/435/435
f 434/434/434 436/436/436 435/435/435
