# VPXTOOL table OBJ file
# VPXTOOL OBJ file
# numVerts: 770 numFaces: 988
o bumpertop4
v -36.133034 -4.348653 -92.2557
v -35.913715 -4.322003 -82.79963
v -33.833282 -12.790944 -82.79963
v -34.03985 -12.869306 -92.2557
v 33.81435 -12.843473 -82.79963
v 35.90793 -4.377776 -82.79963
v 36.127254 -4.404376 -92.2557
v 34.02093 -12.921789 -92.2557
v -36.126266 4.425335 -92.2557
v -35.906944 4.398725 -82.79963
v 35.914703 4.342952 -82.79963
v 36.134018 4.369613 -92.2557
v -33.813366 12.864423 -82.79963
v -34.019947 12.942747 -92.2557
v 33.834267 12.811893 -82.79963
v 34.040833 12.890264 -92.2557
v -29.75464 20.583096 -82.79963
v -29.936481 20.708584 -92.2557
v 29.787544 20.53686 -82.79963
v 29.96935 20.66239 -92.2557
v -24.113186 27.271524 -92.2557
v -23.966663 27.106165 -82.79963
v 24.009699 27.068909 -82.79963
v 24.156185 27.2343 -92.2557
v -16.7858 32.054523 -82.79963
v -16.888493 32.25015 -92.2557
v 16.836529 32.028423 -82.79963
v 16.939178 32.224068 -92.2557
v -8.629375 35.140606 -82.79963
v -8.682271 35.35512 -92.2557
v 8.684911 35.127163 -82.79963
v 8.737758 35.34169 -92.2557
v 0.028584 36.18505 -82.79963
v 0.028559 36.405994 -92.2557
v -0.031048 -70.59613 -77.33089
v -5.707811 -70.35178 -77.33089
v -5.707809 -70.35177 -73.65322
v -0.031047 -70.596115 -73.65322
v 5.645147 -70.352135 -77.33089
v 5.645148 -70.35212 -73.65322
v -11.342651 -69.62509 -77.33089
v -11.342651 -69.62509 -73.65322
v 11.278535 -69.626144 -77.33089
v 11.278538 -69.62614 -73.65322
v -16.895285 -68.43175 -77.33089
v -16.895285 -68.43175 -73.65322
v 16.829535 -68.43423 -77.33089
v 16.829535 -68.43422 -73.65322
v -22.328583 -66.79136 -77.33089
v -22.328583 -66.79136 -73.65322
v 22.261927 -66.79636 -77.33089
v 22.261927 -66.79635 -73.65322
v -27.60791 -64.72273 -77.33089
v -27.60791 -64.72273 -73.65322
v 27.541918 -64.73138 -77.33089
v 27.541918 -64.73138 -73.65322
v -32.700207 -62.242687 -77.33089
v -32.700207 -62.242687 -73.65322
v 32.636864 -62.255684 -77.33089
v 32.636864 -62.255672 -73.65322
v -16.143532 -65.72598 -73.639984
v -16.143532 -65.72598 -77.32578
v -8.217374 -67.33697 -77.32578
v -8.217375 -67.33697 -73.639984
v 0.000395 -67.89087 -73.639984
v 0.000395 -67.89087 -77.32578
v 8.190132 -67.32948 -77.32578
v 8.190132 -67.32948 -73.639984
v -37.573692 -59.36772 -77.33089
v -37.573692 -59.36772 -73.65322
v 37.5148 -59.384987 -77.33089
v 37.51481 -59.38499 -73.65322
v -31.308224 -59.780056 -73.639984
v -31.308224 -59.780056 -77.32578
v 16.051804 -65.747444 -73.639984
v 16.051804 -65.747444 -77.32578
v 31.242811 -59.813133 -77.32578
v 31.242811 -59.813133 -73.639984
v -42.19781 -56.11581 -77.33089
v -42.19781 -56.11581 -73.65322
v 42.14472 -56.13656 -77.33089
v 42.144726 -56.136562 -73.65322
v -46.542965 -52.50691 -77.33089
v -46.542965 -52.50691 -73.65322
v 46.496353 -52.529995 -77.33089
v 46.496357 -52.53 -73.65322
v -50.58037 -48.563038 -77.33089
v -50.58037 -48.563038 -73.65322
v -44.59288 -50.417934 -73.639984
v -44.59288 -50.417934 -77.32578
v 50.540474 -48.58738 -77.33089
v 50.540474 -48.58738 -73.65322
v 44.551407 -50.454666 -77.32578
v 44.551407 -50.454666 -73.639984
v -0.000385 -65.77361 -88.146866
v -15.754803 -63.6945 -88.146866
v 15.66353 -63.698532 -88.146866
v -54.283913 -44.30933 -77.33089
v -54.283913 -44.30933 -73.65322
v 54.250683 -44.33414 -77.33089
v 54.250683 -44.33414 -73.65322
v -30.443205 -57.934483 -88.146866
v 30.377436 -57.95017 -88.146866
v -57.63353 -39.775345 -77.33089
v -57.63353 -39.775345 -73.65322
v 57.60679 -39.80014 -77.33089
v 57.60679 -39.80014 -73.65322
v -15.502317 -63.293213 -87.80394
v -7.866705 -64.60573 -87.804146
v 0.000405 -65.37808 -87.804344
v 7.687874 -64.55743 -87.804146
v -55.252247 -38.18919 -73.639984
v -55.252247 -38.18919 -77.32578
v 55.231136 -38.225155 -77.32578
v 55.231136 -38.225155 -73.639984
v -60.616394 -34.993977 -77.33089
v -60.616394 -34.993977 -73.65322
v 60.595768 -35.01844 -77.33089
v 60.595768 -35.01844 -73.65322
v -30.105806 -57.566208 -87.80394
v 15.413927 -63.31235 -87.80394
v 30.042835 -57.597042 -87.80394
v -43.311153 -48.86536 -88.146866
v 43.26803 -48.884346 -88.146866
v -63.220848 -29.9971 -77.33089
v -63.220848 -29.9971 -73.65322
v 63.205746 -30.020954 -77.33089
v 63.205746 -30.020954 -73.65322
v -0.031421 -38.052673 -80.02679
v -0.031589 -38.522053 -74.462685
v -9.252446 -37.39463 -74.462685
v -9.139953 -36.93893 -80.02679
v 9.07897 -36.95424 -80.02679
v 9.191136 -37.41002 -74.462685
v -42.899143 -48.54944 -87.80394
v -17.935553 -34.093273 -74.462685
v -17.717272 -33.67774 -80.02679
v 17.661757 -33.707466 -80.02679
v 17.879742 -34.123158 -74.462685
v 42.858814 -48.58361 -87.80394
v -65.4241 -24.812067 -77.33089
v -65.4241 -24.812067 -73.65322
v 65.41368 -24.835052 -77.33089
v 65.41368 -24.835052 -73.65322
v -62.693645 -23.79841 -73.639984
v -62.693645 -23.79841 -77.32578
v 62.68805 -23.831457 -77.32578
v 62.68805 -23.831457 -73.639984
v -53.639324 -37.021782 -88.146866
v -25.576275 -28.80984 -74.462685
v -25.26489 -28.45862 -80.02679
v 25.21814 -28.501045 -80.02679
v 25.529272 -28.852486 -74.462685
v 53.613884 -37.03864 -88.146866
v -67.185104 -19.464933 -77.33089
v -67.185104 -19.464933 -73.65322
v 67.178345 -19.486855 -77.33089
v 67.178345 -19.486855 -73.65322
v -9.98213 -40.354424 -74.46243
v -0.031723 -41.57046 -74.46243
v -0.031694 -41.824417 -86.81299
v -10.042878 -40.601006 -86.81299
v 9.920559 -40.369877 -74.46243
v 9.981364 -40.61644 -86.81299
v -19.470373 -37.017307 -86.81299
v -19.352379 -36.792435 -74.46243
v 19.296328 -36.82244 -74.46243
v 19.414373 -37.04729 -86.81299
v -31.361597 -21.590567 -80.02679
v -25.283882 -28.465677 -80.02679
v -25.595354 -28.81683 -74.462685
v -31.748055 -21.856981 -74.462685
v -53.16759 -36.77419 -87.80394
v 31.312508 -21.656305 -80.02679
v 31.698627 -21.9232 -74.462685
v 25.530397 -28.869299 -74.462685
v 25.219376 -28.51776 -80.02679
v 53.14476 -36.80631 -87.80394
v -68.45901 -13.988353 -77.33089
v -68.45901 -13.988353 -73.65322
v 68.45486 -14.009114 -77.33089
v 68.45486 -14.009114 -73.65322
v -27.766287 -31.281599 -86.81299
v -27.597902 -31.091497 -74.46243
v 27.550697 -31.134323 -74.46243
v 27.719126 -31.324389 -86.81299
v -69.23808 -8.423356 -77.33089
v -69.23808 -8.423356 -73.65322
v -60.85645 -23.08536 -88.146866
v -36.05637 -13.62693 -74.462685
v -35.617382 -13.460737 -80.02679
v 35.58653 -13.53605 -80.02679
v 36.025303 -13.702794 -74.462685
v 69.23559 -8.443012 -77.33089
v 69.23559 -8.443012 -73.65322
v -9.98213 -40.354424 -82.77362
v -0.031723 -41.57046 -82.77362
v -0.027475 -36.256012 -82.830826
v -8.70579 -35.195484 -82.830826
v 9.920559 -40.369877 -82.77362
v 8.652466 -35.208866 -82.830826
v 60.843254 -23.098488 -88.146866
v -66.51391 -8.06633 -73.639984
v -66.51391 -8.06633 -77.32578
v 66.5147 -8.096773 -77.32578
v 66.5147 -8.096773 -73.639984
v -16.878128 -32.088913 -82.830826
v -19.352379 -36.792435 -82.77362
v 19.296328 -36.82244 -82.77362
v 16.829586 -32.114902 -82.830826
v -34.448498 -23.72722 -86.81299
v -34.23951 -23.58294 -74.46243
v 34.20395 -23.636087 -74.46243
v 34.41297 -23.780325 -86.81299
v -69.667984 -8.436192 -77.33089
v -69.70578 -2.803039 -77.33089
v -69.70578 -2.803039 -73.65322
v -69.667984 -8.436192 -73.65322
v -8.257375 -34.154266 -79.363815
v -7.826106 -32.985516 -86.79593
v 0.000395 -34.07171 -86.79492
v 0.159095 -35.137714 -79.363815
v 7.780579 -32.975094 -86.79542
v 8.566352 -34.07839 -79.363815
v -60.342773 -22.918547 -87.803535
v 69.70677 -2.820906 -77.33089
v 69.66863 -8.453325 -77.33089
v 69.66863 -8.453325 -73.65322
v 69.70677 -2.820906 -73.65322
v 60.33224 -22.946766 -87.803535
v -24.069542 -27.116842 -82.830826
v -27.597902 -31.091497 -82.77362
v 27.550697 -31.134323 -82.77362
v 24.028658 -27.153933 -82.830826
v -16.19392 -31.1852 -79.363815
v -15.435816 -30.001345 -86.79668
v 15.403506 -29.996983 -86.79617
v 16.475796 -31.037857 -79.363815
v -37.803905 -4.548676 -80.02679
v -38.269917 -4.604984 -74.462685
v 37.793056 -4.628919 -80.02679
v 38.258984 -4.685815 -74.462685
v -69.59737 2.82915 -77.33089
v -69.59737 2.82915 -73.65322
v -39.128643 -14.793203 -86.81299
v -38.891197 -14.703127 -74.46243
v -23.189304 -26.403072 -79.363815
v -22.102306 -25.302942 -86.79718
v 38.869434 -14.763511 -74.46243
v 39.1069 -14.853534 -86.81299
v 69.598915 2.810451 -77.33089
v 69.598915 2.810451 -73.65322
v 22.081816 -25.300377 -86.79668
v 23.427761 -26.192827 -79.363815
v -29.862095 -20.56824 -82.830826
v -34.23951 -23.58294 -82.77362
v 34.20395 -23.636087 -82.77362
v 29.8313 -20.614267 -82.830826
v 0.000395 -41.036034 -92.3934
v -9.549238 -39.7277 -92.3934
v -15.753648 -63.669025 -88.146866
v 0.000395 -65.76569 -88.146866
v 15.664691 -63.673058 -88.146866
v 9.49416 -39.723213 -92.3934
v -64.56523 -7.847656 -88.146866
v 64.56054 -7.858095 -88.146866
v -69.23559 8.443022 -77.33089
v -69.23559 8.443022 -73.65322
v -28.836979 -20.0858 -79.363815
v -27.453161 -19.167065 -86.797676
v 69.23808 8.423345 -77.33089
v 69.23808 8.423345 -73.65322
v -66.513535 8.122226 -77.32578
v -66.513535 8.122226 -73.639984
v 27.441727 -19.16341 -86.79743
v 29.01822 -19.824867 -79.363815
v -38.260044 4.684537 -74.462685
v -37.794106 4.627689 -80.02679
v -18.7147 -36.133484 -92.3934
v -30.44205 -57.90901 -88.146866
v 30.378597 -57.924706 -88.146866
v 18.675465 -36.136242 -92.3934
v 37.803844 4.547447 -80.02679
v 38.269855 4.603707 -74.462685
v 66.51508 8.091782 -77.32578
v 66.51508 8.091782 -73.639984
v -41.534748 -4.998755 -86.81299
v -41.282646 -4.968122 -74.46243
v -33.919136 -12.823672 -82.830826
v -38.891197 -14.703127 -82.77362
v 41.275993 -5.032232 -74.46243
v 41.528107 -5.062809 -86.81299
v -64.03008 -7.76894 -87.803535
v 38.869434 -14.763511 -82.77362
v 33.900288 -12.87597 -82.830826
v 64.02781 -7.794425 -87.803535
v -68.45486 14.009126 -77.33089
v -68.45486 14.009126 -73.65322
v -8.553922 -35.795666 -88.72966
v 0.000395 -36.974274 -88.72966
v 8.504384 -35.786205 -88.72966
v 68.45901 13.988342 -77.33089
v 68.45901 13.988342 -73.65322
v -26.744125 -30.474392 -92.3934
v -43.309998 -48.83988 -88.146866
v -32.808716 -12.600521 -79.363815
v -31.213133 -11.892694 -86.79819
v 43.26919 -48.858883 -88.146866
v 26.719128 -30.479267 -92.3934
v 31.2082 -11.886726 -86.79793
v 32.92228 -12.30407 -79.363815
v -16.812061 -32.55751 -88.72966
v 16.776829 -32.554626 -88.72966
v -67.178345 19.486862 -77.33089
v -67.178345 19.486862 -73.65322
v 67.185104 19.464926 -77.33089
v 67.185104 19.464926 -73.65322
v -24.046694 -27.45893 -88.72966
v 24.024277 -27.458021 -88.72966
v -36.0049 -4.333233 -82.830826
v -41.282646 -4.968122 -82.77362
v 41.275993 -5.032232 -82.77362
v 35.99914 -4.388758 -82.830826
v -41.526974 5.086901 -86.81299
v -41.27486 5.056312 -74.46243
v 41.28378 4.992202 -74.46243
v 41.53588 5.022848 -86.81299
v -64.564064 -7.822176 -88.146866
v -64.56054 7.858104 -88.146866
v -33.188854 -23.084154 -92.3934
v -53.63817 -36.996296 -88.146866
v 64.56523 7.847647 -88.146866
v 64.56171 -7.832632 -88.146866
v 33.17487 -23.08768 -92.3934
v 53.615044 -37.01317 -88.146866
v -65.41368 24.83506 -77.33089
v -65.41368 24.83506 -73.65322
v 65.4241 24.81206 -77.33089
v 65.4241 24.81206 -73.65322
v -34.873703 -4.38225 -79.363815
v -33.267117 -4.11591 -86.88634
v -33.14503 -9.122086 -88.72966
v -29.853552 -20.800364 -88.72966
v 29.841032 -20.79824 -88.72966
v 33.69446 -9.118966 -88.72966
v 33.26645 -4.110891 -86.88634
v 34.91305 -4.067506 -79.363815
v -64.02662 7.820536 -87.803535
v 64.03128 7.79505 -87.803535
v -63.205746 30.020962 -77.33089
v -63.205746 30.020962 -73.65322
v -35.998158 4.409643 -82.830826
v -41.27486 5.056312 -82.77362
v 63.220848 29.997093 -77.33089
v 63.220848 29.997093 -73.65322
v 41.28378 4.992202 -82.77362
v 36.005886 4.354118 -82.830826
v -34.91192 4.091395 -79.363815
v -33.26528 4.136362 -86.88634
v -38.8683 14.787591 -74.46243
v -39.105766 14.877625 -86.81299
v 33.268284 4.141379 -86.88634
v 34.874836 4.406139 -79.363815
v 38.89233 14.727207 -74.46243
v 39.129776 14.817294 -86.81299
v -8.553922 -35.795666 -97.26153
v 0.000395 -36.974274 -97.26153
v 8.504384 -35.786205 -97.26153
v -33.911266 -12.965137 -88.72966
v 33.90566 -12.96078 -88.72966
v -37.692272 -14.387877 -92.3934
v -60.85529 -23.059874 -88.146866
v 60.844425 -23.073023 -88.146866
v 37.685978 -14.389205 -92.3934
v -16.812061 -32.55751 -97.26153
v -60.595768 35.018448 -77.33089
v -60.595768 35.018448 -73.65322
v 16.776829 -32.554626 -97.26153
v 60.616394 34.99397 -77.33089
v 60.616394 34.99397 -73.65322
v -9.549238 -39.7277 -92.3934
v 0.000395 -41.036034 -92.3934
v 0.000395 -41.036034 -97.41014
v -9.549238 -39.7277 -97.41014
v 9.49416 -39.723213 -92.3934
v 9.49416 -39.723213 -97.41014
v -18.7147 -36.133484 -97.41014
v -18.7147 -36.133484 -92.3934
v 18.675465 -36.136242 -92.3934
v 18.675465 -36.136242 -97.41014
v -24.046694 -27.45893 -97.26153
v 24.024277 -27.458021 -97.26153
v -60.843254 23.0985 -88.146866
v -38.8683 14.787591 -82.77362
v -33.899307 12.896852 -82.830826
v -34.615658 -10.206275 -88.72966
v -57.60678 39.800148 -77.33089
v -57.60678 39.800148 -73.65322
v 38.89233 14.727207 -82.77362
v 33.92012 12.844556 -82.830826
v 60.85645 23.085348 -88.146866
v 34.659904 -9.949389 -88.72966
v 57.633537 39.775337 -77.33089
v 57.633537 39.775337 -73.65322
v -32.921146 12.327958 -79.363815
v -33.10857 9.19191 -88.72966
v 33.776646 9.158878 -88.72966
v 32.80985 12.62441 -79.363815
v -34.202816 23.660168 -74.46243
v -34.41184 23.804417 -86.81299
v 34.240643 23.60702 -74.46243
v 34.44963 23.751312 -86.81299
v -26.744125 -30.474392 -97.41014
v -26.744125 -30.474392 -92.3934
v 26.719128 -30.479267 -92.3934
v 26.719128 -30.479267 -97.41014
v -54.250675 44.33415 -77.33089
v -54.250675 44.33415 -73.65322
v -29.853552 -20.800364 -97.26153
v 29.841032 -20.79824 -97.26153
v 54.28392 44.309322 -77.33089
v 54.28392 44.309322 -73.65322
v -39.90892 -5.419119 -92.3934
v 39.907986 -5.416678 -92.3934
v -0.002138 -36.99832 -97.41014
v -8.53334 -35.829514 -97.41014
v 8.478446 -35.825607 -97.41014
v -34.202816 23.660168 -82.77362
v -29.830322 20.635153 -82.830826
v 34.240643 23.60702 -82.77362
v 29.86308 20.58912 -82.830826
v -50.540466 48.587387 -77.33089
v -50.540466 48.587387 -73.65322
v -33.188854 -23.084154 -92.3934
v -33.188854 -23.084154 -97.41014
v -27.717993 31.348484 -86.81299
v -27.549564 31.158403 -74.46243
v -31.207035 11.912195 -86.79793
v -16.804943 -32.585827 -97.41014
v 50.58038 48.56303 -77.33089
v 50.58038 48.56303 -73.65322
v 33.17487 -23.08768 -92.3934
v 33.17487 -23.08768 -97.41014
v 16.769728 -32.586353 -97.41014
v 27.599035 31.115578 -74.46243
v 27.76742 31.305695 -86.81299
v 31.214298 11.918162 -86.79819
v -28.65177 -8.921154 -88.72966
v -28.725595 8.914419 -88.72966
v -24.849493 6.834484 -88.72966
v -22.344759 2.498565 -88.72966
v -22.343588 -2.508756 -88.72966
v -24.847567 -6.847224 -88.72966
v 28.74354 8.928502 -88.72966
v 28.611189 -8.818465 -88.72966
v 24.850658 -6.809015 -88.72966
v 22.345924 -2.473095 -88.72966
v 22.344751 2.534226 -88.72966
v 24.848732 6.872693 -88.72966
v -33.911266 -12.965137 -97.26153
v 33.90566 -12.96078 -97.26153
v -46.496346 52.530003 -77.33089
v -46.49635 52.530006 -73.65322
v 46.542973 52.5069 -77.33089
v 46.542973 52.5069 -73.65322
v -24.04603 -27.482351 -97.41014
v 24.023632 -27.484798 -97.41014
v -53.613876 37.038647 -88.146866
v 53.63933 37.021774 -88.146866
v -24.027678 27.174822 -82.830826
v -27.549564 31.158403 -82.77362
v -19.295195 36.846523 -74.46243
v -19.41324 37.071384 -86.81299
v 27.599035 31.115578 -82.77362
v 24.070524 27.137728 -82.830826
v 19.353512 36.816517 -74.46243
v 19.471506 37.041405 -86.81299
v -42.14471 56.136566 -77.33089
v -42.14472 56.13657 -73.65322
v -8.53334 -35.829514 -97.41014
v -0.002138 -36.99832 -97.41014
v -0.00103 -20.818277 -97.41014
v -8.522331 -20.8181 -97.41014
v 8.478446 -35.825607 -97.41014
v 8.490914 -20.818455 -97.41014
v -34.615658 -10.206275 -97.26353
v -37.692272 -14.387877 -97.41014
v -37.692272 -14.387877 -92.3934
v 42.19782 56.115803 -77.33089
v 42.19782 56.115803 -73.65322
v 37.685978 -14.389205 -92.3934
v 37.685978 -14.389205 -97.41014
v 34.659904 -9.949389 -97.26353
v -16.804943 -32.585827 -97.41014
v -16.798378 -20.817924 -97.41014
v 16.769728 -32.586353 -97.41014
v 16.77629 -20.81863 -97.41014
v -39.90682 5.442149 -92.3934
v 39.910084 5.44459 -92.3934
v -33.14503 -9.122086 -97.26541
v 33.69446 -9.118966 -97.26541
v -28.65177 -8.921154 -97.2673
v -29.858044 -20.81765 -97.41014
v -24.237257 -20.817768 -97.41014
v -24.04603 -27.482351 -97.41014
v -37.514793 59.384995 -77.33089
v -37.5148 59.385 -73.65322
v 28.611189 -8.818465 -97.2673
v 24.023632 -27.484798 -97.41014
v 24.22225 -20.818787 -97.41014
v 29.845562 -20.818905 -97.41014
v 37.5737 59.367714 -77.33089
v 37.5737 59.367714 -73.65322
v -9.919424 40.393955 -74.46243
v -9.980229 40.640537 -86.81299
v -24.847567 -6.847224 -97.2673
v 9.983264 40.3785 -74.46243
v 10.044012 40.6251 -86.81299
v 24.850658 -6.809015 -97.2673
v -33.90449 12.986249 -88.72966
v -34.500816 10.471293 -88.72966
v -19.295195 36.846523 -82.77362
v -16.828604 32.135788 -82.830826
v 34.64199 10.159386 -88.72966
v 33.91243 12.990605 -88.72966
v 19.353512 36.816517 -82.77362
v 16.87911 32.1098 -82.830826
v -29.858044 -20.81765 -97.41014
v 29.845562 -20.818905 -97.41014
v 0.032857 41.594543 -74.46243
v 0.032828 41.84851 -86.81299
v -32.63685 62.255684 -77.33089
v -32.63685 62.25568 -73.65322
v 32.700222 62.24268 -77.33089
v 32.700222 62.24268 -73.65322
v -22.343588 -2.508756 -97.2673
v 22.345924 -2.473095 -97.2673
v -27.54191 64.73138 -77.33089
v -27.54191 64.73138 -73.65322
v -39.90892 -5.419119 -92.3934
v -39.90892 -5.419119 -97.41014
v 27.607922 64.72273 -77.33089
v 27.607922 64.72273 -73.65322
v -9.919424 40.393955 -82.77362
v -8.651484 35.229755 -82.830826
v 39.907986 -5.416678 -92.3934
v 39.907986 -5.416678 -97.41014
v 9.983264 40.3785 -82.77362
v 8.706773 35.216373 -82.830826
v -29.872883 -4.946899 -92.68928
v -27.573977 -3.620213 -92.68928
v -26.249186 -1.327558 -92.68928
v -26.249718 1.321485 -92.68928
v -27.575775 3.614301 -92.68928
v -29.873539 4.945756 -92.68928
v -33.922665 -12.968714 -97.41014
v 29.874048 4.972369 -92.68928
v 27.575142 3.645683 -92.68928
v 26.25035 1.353027 -92.68928
v 26.250883 -1.296016 -92.68928
v 27.576942 -3.588832 -92.68928
v 29.874704 -4.920287 -92.68928
v 33.91709 -12.968036 -97.41014
v -43.26802 48.884354 -88.146866
v -22.261919 66.79636 -77.33089
v -22.261919 66.79635 -73.65322
v -24.462473 -12.968619 -97.41014
v -29.106647 -12.968665 -97.41014
v -16.793997 -12.968542 -97.41014
v 22.32859 66.79136 -77.33089
v 22.32859 66.79136 -73.65322
v -8.516575 -12.968459 -97.41014
v 0.032857 41.594543 -82.77362
v 0.028458 36.276897 -82.830826
v -0.000493 -12.968374 -97.41014
v 8.497437 -12.968289 -97.41014
v -22.344759 2.498565 -97.2673
v 43.31116 48.865353 -88.146866
v 16.780672 -12.968206 -97.41014
v 24.456163 -12.968129 -97.41014
v 29.100443 -12.968084 -97.41014
v 22.344751 2.534226 -97.2673
v -33.922665 -12.968714 -97.41014
v -16.829525 68.43423 -77.33089
v -16.829525 68.43422 -73.65322
v 33.91709 -12.968036 -97.41014
v 16.895296 68.43175 -77.33089
v 16.895296 68.43175 -73.65322
v -38.25535 -5.33112 -92.45885
v -38.25535 -5.33112 -97.41014
v -37.684814 14.414674 -92.3934
v -29.872883 -4.946899 -97.41014
v -29.872883 -4.946899 -92.68928
v 38.079357 -5.312582 -92.46564
v 38.079357 -5.312582 -97.41014
v 29.874704 -4.920287 -92.68928
v 29.874704 -4.920287 -97.41014
v -11.278525 69.626144 -77.33089
v -11.278526 69.62614 -73.65322
v 37.693436 14.413346 -92.3934
v 11.342661 69.62509 -77.33089
v 11.342661 69.62509 -73.65322
v -27.573977 -3.620213 -97.41014
v -27.573977 -3.620213 -92.68928
v -5.645136 70.352135 -77.33089
v -5.645137 70.35212 -73.65322
v 27.576942 -3.588832 -92.68928
v 27.576942 -3.588832 -97.41014
v 5.707821 70.35178 -77.33089
v 5.70782 70.35177 -73.65322
v 0.031058 70.59613 -77.33089
v 0.031058 70.596115 -73.65322
v -24.849493 6.834484 -97.2673
v 24.848732 6.872693 -97.2673
v -26.249186 -1.327558 -97.41014
v -26.249186 -1.327558 -92.68928
v -33.17119 -9.102281 -97.41014
v -28.716965 -8.898116 -97.41014
v 26.250883 -1.296016 -92.68928
v 26.250883 -1.296016 -97.41014
v -34.60002 -10.22807 -97.41014
v -34.60002 -10.22807 -97.41014
v 33.63512 -9.082757 -97.41014
v 28.711422 -8.869237 -97.41014
v -24.646664 -6.549167 -97.41014
v 34.659363 -9.970727 -97.41014
v 34.659363 -9.970727 -97.41014
v 24.648441 -6.514913 -97.41014
v -26.249718 1.321485 -97.41014
v -26.249718 1.321485 -92.68928
v -28.725595 8.914419 -97.2673
v 26.25035 1.353027 -97.41014
v 26.25035 1.353027 -92.68928
v 28.74354 8.928502 -97.2673
v -33.10857 9.19191 -97.26541
v -33.17119 -9.102281 -97.41014
v -8.508818 -2.390517 -97.41014
v -16.788095 -2.396093 -97.41014
v 0.000233 -2.384785 -97.41014
v 8.506234 -2.379056 -97.41014
v -22.248968 -2.399771 -97.41014
v 16.786585 -2.373478 -97.41014
v 33.776646 9.158878 -97.26541
v -28.716965 -8.898116 -97.41014
v 22.251099 -2.369797 -97.41014
v 33.63512 -9.082757 -97.41014
v -34.500816 10.471293 -97.26353
v 28.711422 -8.869237 -97.41014
v 34.64199 10.159386 -97.26353
v -27.575775 3.614301 -97.41014
v -27.575775 3.614301 -92.68928
v -30.377424 57.950176 -88.146866
v 27.575142 3.645683 -92.68928
v 27.575142 3.645683 -97.41014
v -24.646664 -6.549167 -97.41014
v 30.443213 57.934483 -88.146866
v 24.648441 -6.514913 -97.41014
v -33.90449 12.986249 -97.26153
v 33.91243 12.990605 -97.26153
v -29.873539 4.945756 -97.41014
v -29.873539 4.945756 -92.68928
v 29.874048 4.972369 -92.68928
v 29.874048 4.972369 -97.41014
v -39.90682 5.442149 -97.41014
v -39.90682 5.442149 -92.3934
v -38.078194 5.338052 -92.46564
v -38.078194 5.338052 -97.41014
v 38.256516 5.35659 -92.45885
v 39.910084 5.44459 -92.3934
v 39.910084 5.44459 -97.41014
v 38.256516 5.35659 -97.41014
v -22.248968 -2.399771 -97.41014
v 22.251099 -2.369797 -97.41014
v -33.1737 23.113152 -92.3934
v 33.190014 23.109627 -92.3934
v -22.249933 2.395266 -97.41014
v -16.78542 2.398947 -97.41014
v -22.249933 2.395266 -97.41014
v -8.505301 2.404524 -97.41014
v 0.000561 2.410254 -97.41014
v 8.510217 2.415986 -97.41014
v 16.789259 2.421562 -97.41014
v 22.250135 2.425241 -97.41014
v -37.684814 14.414674 -97.41014
v -37.684814 14.414674 -92.3934
v 22.250135 2.425241 -97.41014
v 37.693436 14.413346 -92.3934
v 37.693436 14.413346 -97.41014
v -15.663519 63.698532 -88.146866
v 15.754809 63.6945 -88.146866
v -24.647276 6.540382 -97.41014
v 24.647831 6.574637 -97.41014
v 0.000395 65.77361 -88.146866
v -28.710255 8.894705 -97.41014
v 28.71813 8.923586 -97.41014
v -33.137615 9.106395 -97.41014
v -16.779505 12.993675 -97.41014
v -24.454998 12.993598 -97.41014
v -24.647276 6.540382 -97.41014
v 33.8178 9.157336 -97.41014
v -34.534824 10.494387 -97.41014
v -26.717958 30.50474 -92.3934
v -8.497535 12.993758 -97.41014
v 24.647831 6.574637 -97.41014
v 24.463636 12.994088 -97.41014
v 16.79516 12.994011 -97.41014
v 0.001283 12.993843 -97.41014
v 8.519006 12.993928 -97.41014
v 34.623074 10.164971 -97.41014
v 26.745289 30.499865 -92.3934
v -33.1737 23.113152 -97.41014
v -33.1737 23.113152 -92.3934
v 33.190014 23.109627 -92.3934
v 33.190014 23.109627 -97.41014
v -29.099274 12.993553 -97.41014
v -28.710255 8.894705 -97.41014
v 28.71813 8.923586 -97.41014
v 29.107811 12.994134 -97.41014
v -33.915924 12.993505 -97.41014
v -33.137615 9.106395 -97.41014
v -33.915924 12.993505 -97.41014
v -34.534824 10.494387 -97.41014
v 33.923832 12.994183 -97.41014
v 33.8178 9.157336 -97.41014
v 34.623074 10.164971 -97.41014
v 33.923832 12.994183 -97.41014
v -29.844393 20.844376 -97.41014
v 29.859205 20.843122 -97.41014
v -18.674295 36.161713 -92.3934
v 18.715862 36.158955 -92.3934
v -24.22108 20.84426 -97.41014
v -16.775126 20.844103 -97.41014
v -8.49178 20.843927 -97.41014
v 0.001822 20.84375 -97.41014
v 8.525528 20.84357 -97.41014
v 16.79954 20.843395 -97.41014
v 24.23842 20.843239 -97.41014
v -26.717958 30.50474 -92.3934
v -26.717958 30.50474 -97.41014
v 26.745289 30.499865 -92.3934
v 26.745289 30.499865 -97.41014
v -29.844393 20.844376 -97.41014
v 29.859205 20.843122 -97.41014
v -9.492992 39.748684 -92.3934
v 9.5504 39.75317 -92.3934
v -24.022463 27.510271 -97.41014
v 24.047194 27.50782 -97.41014
v -18.674295 36.161713 -97.41014
v -18.674295 36.161713 -92.3934
v 18.715862 36.158955 -92.3934
v 18.715862 36.158955 -97.41014
v -24.022463 27.510271 -97.41014
v -16.768559 32.611824 -97.41014
v 0.000395 41.043545 -92.3934
v 16.806105 32.611294 -97.41014
v 24.047194 27.50782 -97.41014
v -8.480776 35.84971 -97.41014
v 8.537998 35.853615 -97.41014
v -9.492992 39.748684 -97.41014
v -9.492992 39.748684 -92.3934
v 9.5504 39.75317 -92.3934
v 9.5504 39.75317 -97.41014
v 0.002928 37.006855 -97.41014
v 0.000395 41.043545 -97.41014
v 0.000395 41.043545 -92.3934
v -16.768559 32.611824 -97.41014
v 16.806105 32.611294 -97.41014
v -8.480776 35.84971 -97.41014
v 8.537998 35.853615 -97.41014
v 0.002928 37.006855 -97.41014
vt 0.641579 0.525783
vt 0.642277 0.512703
vt 0.638033 0.52302498
vt 0.637958 0.534814
vt 0.858912 0.51616502
vt 0.854618 0.505414
vt 0.856243 0.52199298
vt 0.860065 0.52918202
vt 0.645899 0.51838398
vt 0.646831 0.50230902
vt 0.85186 0.49847698
vt 0.85318 0.51531202
vt 0.654046 0.48641002
vt 0.651987 0.507136
vt 0.846167 0.484667
vt 0.848327 0.508501
vt 0.668183 0.460921
vt 0.666236 0.484905
vt 0.829991 0.45869303
vt 0.832391 0.4834
vt 0.682358 0.465262
vt 0.684523 0.442356
vt 0.815567 0.44254696
vt 0.817735 0.465469
vt 0.700795 0.42673302
vt 0.699162 0.45292997
vt 0.799325 0.42690504
vt 0.800961 0.453116
vt 0.722125 0.414972
vt 0.721066 0.44119298
vt 0.776656 0.41448498
vt 0.77772 0.44071496
vt 0.750072 0.409536
vt 0.750075 0.43479097
vt 0.250108 0.199776
vt 0.269532 0.201168
vt 0.269439 0.18848902
vt 0.250095 0.18666899
vt 0.230685 0.20116603
vt 0.230813 0.188559
vt 0.288798 0.20530802
vt 0.288553 0.192648
vt 0.211424 0.205302
vt 0.211729 0.19221497
vt 0.307752 0.21209902
vt 0.307418 0.19927698
vt 0.192475 0.21208602
vt 0.192856 0.19919097
vt 0.326255 0.221421
vt 0.32575 0.20854801
vt 0.173976 0.22139299
vt 0.174466 0.20884901
vt 0.344176 0.23315203
vt 0.343532 0.21987998
vt 0.156051 0.23310196
vt 0.156682 0.22017002
vt 0.361394 0.24717903
vt 0.360712 0.23422998
vt 0.138824 0.247105
vt 0.139545 0.23433101
vt 0.698973 0.91535002
vt 0.698742 0.92732799
vt 0.724372 0.93399203
vt 0.724488 0.92199701
vt 0.750002 0.92486
vt 0.750002 0.936872005
vt 0.775729 0.93404502
vt 0.775614 0.92205
vt 0.377793 0.26339304
vt 0.376887 0.25000203
vt 0.122409 0.263296
vt 0.123228 0.25066304
vt 0.650737 0.886093974
vt 0.650286 0.89797503
vt 0.800738 0.915456
vt 0.800968 0.927433014
vt 0.849506 0.898139
vt 0.849055 0.88625699
vt 0.393263 0.281671
vt 0.392544 0.268915
vt 0.106919 0.281555
vt 0.107795 0.268897
vt 0.407702 0.301879
vt 0.407201 0.29031503
vt 0.092457 0.301749
vt 0.093401 0.28933
vt 0.421011 0.32387102
vt 0.4206 0.31308103
vt 0.607934 0.83966398
vt 0.607285 0.85139102
vt 0.079124 0.323736
vt 0.080106 0.311822
vt 0.892581 0.851574
vt 0.891932 0.83984703
vt 0.250003 0.27419603
vt 0.304995 0.28619802
vt 0.195326 0.286175
vt 0.431992 0.347485
vt 0.431912 0.33547103
vt 0.067006 0.34734702
vt 0.067973 0.335988
vt 0.355922 0.31930304
vt 0.144309 0.31921303
vt 0.441744 0.37253404
vt 0.441573 0.359213
vt 0.056166 0.37239802
vt 0.05709 0.36152303
vt 0.701163 0.949150026
vt 0.725582 0.955567002
vt 0.750002 0.958199978
vt 0.774525 0.95561397
vt 0.572857 0.77833802
vt 0.572043 0.78985798
vt 0.927888 0.79004002
vt 0.927074 0.77851897
vt 0.451905 0.39881504
vt 0.453533 0.39324403
vt 0.046784 0.401298
vt 0.047196 0.39026296
vt 0.654878 0.921166
vt 0.79856 0.949244022
vt 0.844923 0.92131698
vt 0.399926 0.370992
vt 0.100224 0.370884
vt 0.459174 0.42613697
vt 0.461274 0.421557
vt 0.039811 0.43017304
vt 0.039216 0.41868103
vt 0.749899 0.79795301
vt 0.7499 0.771676
vt 0.720299 0.76598197
vt 0.720318 0.79227799
vt 0.779485 0.792355
vt 0.779505 0.76606
vt 0.613827 0.87677503
vt 0.692327 0.74927098
vt 0.692364 0.77562302
vt 0.807456 0.77577502
vt 0.807495 0.74942303
vt 0.886044 0.876944005
vt 0.465038 0.45433104
vt 0.467529 0.450863
vt 0.033616 0.464863
vt 0.031713 0.454363
vt 0.547486 0.70516402
vt 0.546547 0.71643102
vt 0.953433 0.716601
vt 0.952495 0.705333
vt 0.434453 0.43770802
vt 0.66753 0.722408
vt 0.667584 0.74884897
vt 0.832264 0.74906802
vt 0.832318 0.72262502
vt 0.065636 0.43761396
vt 0.468856 0.48324
vt 0.472293 0.48085904
vt 0.030795 0.48070002
vt 0.028104 0.475936
vt 0.718006 0.780913
vt 0.749899 0.787036
vt 0.749897 0.853158
vt 0.716989 0.84688401
vt 0.781798 0.78099197
vt 0.78281 0.846964
vt 0.685879 0.82845998
vt 0.687858 0.76293701
vt 0.811963 0.763089
vt 0.813938 0.82861602
vt 0.690432 0.41806698
vt 0.665185 0.44661903
vt 0.665127 0.41915
vt 0.69039 0.390499
vt 0.580204 0.818178
vt 0.855032 0.484298
vt 0.855103 0.45695603
vt 0.868855 0.50103098
vt 0.868775 0.52822298
vt 0.919722 0.81833899
vt 0.47204 0.512677
vt 0.475301 0.51096702
vt 0.027702 0.51256597
vt 0.024307 0.50946802
vt 0.658277 0.79882598
vt 0.661117 0.734025
vt 0.838731 0.73424298
vt 0.841567 0.799048
vt 0.473973 0.542413
vt 0.47723 0.541295
vt 0.457658 0.515095
vt 0.719305 0.37255096
vt 0.719327 0.40017903
vt 0.834979 0.44685
vt 0.835036 0.41938102
vt 0.026301 0.542212
vt 0.022896 0.540487
vt 0.718006 0.780913
vt 0.749899 0.787036
vt 0.749897 0.853158
vt 0.716989 0.84688401
vt 0.781798 0.78099197
vt 0.78281 0.846964
vt 0.042388 0.515023
vt 0.533361 0.62389702
vt 0.532349 0.634879
vt 0.967651 0.63503802
vt 0.966639 0.62405598
vt 0.685879 0.82845998
vt 0.687858 0.76293701
vt 0.811963 0.763089
vt 0.813938 0.82861602
vt 0.609441 0.605411
vt 0.608379 0.599097
vt 0.890132 0.579256
vt 0.889531 0.587187
vt 0.025312 0.631427
vt 0.024991 0.60186303
vt 0.022397 0.60179502
vt 0.022585 0.63143098
vt 0.723182 0.77463299
vt 0.724172 0.807558
vt 0.750002 0.81316698
vt 0.750517 0.77965403
vt 0.775679 0.80750197
vt 0.777825 0.77424502
vt 0.555898 0.74830902
vt 0.474768 0.60195702
vt 0.475023 0.63151598
vt 0.477662 0.63090998
vt 0.477716 0.601106
vt 0.944067 0.748452
vt 0.658277 0.79882598
vt 0.661117 0.734025
vt 0.838731 0.73424298
vt 0.841567 0.799048
vt 0.697322 0.75944197
vt 0.698976 0.79210001
vt 0.800919 0.79207498
vt 0.803601 0.75868702
vt 0.750111 0.394112
vt 0.75011 0.366462
vt 0.809764 0.41823
vt 0.809804 0.390662
vt 0.025696 0.57212597
vt 0.022243 0.571971
vt 0.611778 0.58346403
vt 0.609871 0.58109897
vt 0.674376 0.734877
vt 0.676755 0.767658
vt 0.888469 0.565055
vt 0.888147 0.57767898
vt 0.474424 0.572226
vt 0.477888 0.57101
vt 0.823179 0.76764297
vt 0.826412 0.73379302
vt 0.609441 0.605411
vt 0.608379 0.599097
vt 0.890132 0.579256
vt 0.889531 0.587187
vt 0.250003 0.87948501
vt 0.21823 0.87271202
vt 0.199191 0.967363
vt 0.250186 0.977230012
vt 0.300571 0.967480004
vt 0.281591 0.87268901
vt 0.468473 0.59835303
vt 0.031544 0.598297
vt 0.026301 0.542212
vt 0.022896 0.540487
vt 0.672122 0.732019
vt 0.67337 0.76143199
vt 0.473973 0.542413
vt 0.47723 0.541295
vt 0.530467 0.54953003
vt 0.531496 0.538853
vt 0.826999 0.76227403
vt 0.828204 0.73227203
vt 0.780909 0.372634
vt 0.780888 0.400263
vt 0.187614 0.85405898
vt 0.151616 0.93932098
vt 0.348491 0.93903601
vt 0.312259 0.85407299
vt 0.780888 0.400263
vt 0.780909 0.372634
vt 0.969537 0.54969102
vt 0.968507 0.539015
vt 0.613643 0.56887603
vt 0.61252 0.56000698
vt 0.611778 0.58346403
vt 0.609871 0.58109897
vt 0.886616 0.54781902
vt 0.885755 0.56550503
vt 0.542398 0.670749
vt 0.888469 0.565055
vt 0.888147 0.57767898
vt 0.957594 0.67088097
vt 0.027702 0.51256597
vt 0.024307 0.50946802
vt 0.72178 0.82507098
vt 0.750002 0.83115101
vt 0.778059 0.825023
vt 0.47204 0.512677
vt 0.475301 0.51096702
vt 0.160573 0.82454002
vt 0.111067 0.897413015
vt 0.669563 0.72918802
vt 0.67047 0.75678301
vt 0.390885 0.894603014
vt 0.339347 0.824566
vt 0.83063 0.75608897
vt 0.829882 0.730124
vt 0.694438 0.80832797
vt 0.805447 0.80831301
vt 0.030795 0.48070002
vt 0.028104 0.475936
vt 0.468856 0.48324
vt 0.472293 0.48085904
vt 0.67031 0.78184599
vt 0.829617 0.78184098
vt 0.613643 0.56887603
vt 0.61252 0.56000698
vt 0.886616 0.54781902
vt 0.885755 0.56550503
vt 0.616565 0.554115
vt 0.615611 0.53466398
vt 0.882207 0.51758897
vt 0.882164 0.548046
vt 0.033395 0.682535
vt 0.031544 0.598297
vt 0.138577 0.78571999
vt 0.075475 0.832986
vt 0.468473 0.59835303
vt 0.466599 0.68259102
vt 0.36138 0.78573799
vt 0.42445 0.83288002
vt 0.033616 0.464863
vt 0.031713 0.454363
vt 0.465038 0.45433104
vt 0.467529 0.450863
vt 0.634932 0.620134
vt 0.638466 0.656336
vt 0.667502 0.75124198
vt 0.650711 0.747042
vt 0.849249 0.74703097
vt 0.834297 0.747487
vt 0.861534 0.656309
vt 0.863175 0.52563602
vt 0.540695 0.58964002
vt 0.959319 0.589773
vt 0.039811 0.43017304
vt 0.039216 0.41868103
vt 0.616565 0.554115
vt 0.615611 0.53466398
vt 0.459174 0.42613697
vt 0.461274 0.421557
vt 0.882207 0.51758897
vt 0.882164 0.548046
vt 0.634281 0.575257
vt 0.63797 0.61209399
vt 0.621748 0.49494004
vt 0.62255 0.53230703
vt 0.862042 0.61206698
vt 0.859198 0.517609
vt 0.878328 0.49526203
vt 0.882049 0.547288
vt 0.721268 0.87154299
vt 0.750002 0.877704024
vt 0.778567 0.87149298
vt 0.648823 0.743487
vt 0.851771 0.74383098
vt 0.122856 0.739636
vt 0.047515 0.76303202
vt 0.452451 0.763102
vt 0.377127 0.739644
vt 0.693429 0.854577
vt 0.046784 0.401298
vt 0.047196 0.39026296
vt 0.806454 0.85456198
vt 0.451905 0.39881504
vt 0.453533 0.39324403
vt 0.718229 0.87271202
vt 0.750002 0.87948501
vt 0.750002 0.90740001
vt 0.71789 0.900575995
vt 0.78159 0.87268901
vt 0.781927 0.90055299
vt 0.686946 0.881778
vt 0.687613 0.85405898
vt 0.812258 0.85407299
vt 0.812924 0.88179201
vt 0.66886 0.82774198
vt 0.831066 0.82773799
vt 0.042388 0.515023
vt 0.621748 0.49494004
vt 0.62255 0.53230703
vt 0.646514 0.738271
vt 0.056166 0.37239802
vt 0.05709 0.36152303
vt 0.878328 0.49526203
vt 0.882049 0.547288
vt 0.457658 0.515095
vt 0.854151 0.740178
vt 0.441744 0.37253404
vt 0.441573 0.359213
vt 0.640395 0.53124303
vt 0.641808 0.589063
vt 0.8582 0.58893698
vt 0.854457 0.50513703
vt 0.636605 0.447343
vt 0.63287 0.504672
vt 0.863519 0.44763
vt 0.867887 0.50215298
vt 0.659613 0.85202903
vt 0.660572 0.82454002
vt 0.839346 0.824566
vt 0.840304 0.85205501
vt 0.067006 0.34734702
vt 0.067973 0.335988
vt 0.648897 0.79247099
vt 0.851062 0.79245901
vt 0.431992 0.347485
vt 0.431912 0.33547103
vt 0.114715 0.691648
vt 0.385285 0.691635
vt 0.749994 0.886307
vt 0.721245 0.880183995
vt 0.778572 0.88016403
vt 0.636605 0.447343
vt 0.63287 0.504672
vt 0.863519 0.44763
vt 0.867887 0.50215298
vt 0.079124 0.323736
vt 0.080106 0.311822
vt 0.638576 0.78571999
vt 0.637376 0.81290197
vt 0.65526 0.46298897
vt 0.658294 0.40676403
vt 0.644474 0.56960398
vt 0.69327 0.86315
vt 0.421011 0.32387102
vt 0.4206 0.31308103
vt 0.861379 0.78573799
vt 0.862578 0.81292099
vt 0.806612 0.86315203
vt 0.84187 0.406996
vt 0.844908 0.46322703
vt 0.857689 0.51976597
vt 0.652669 0.67998397
vt 0.651796 0.59309202
vt 0.664625 0.60483497
vt 0.672106 0.62507302
vt 0.672293 0.648341
vt 0.66518 0.668414
vt 0.848201 0.59288502
vt 0.847349 0.67978102
vt 0.834833 0.66821498
vt 0.827718 0.64815402
vt 0.827898 0.62488502
vt 0.835377 0.60463297
vt 0.646927 0.78847599
vt 0.854703 0.78381503
vt 0.092457 0.301749
vt 0.093401 0.28933
vt 0.407702 0.301879
vt 0.407201 0.29031503
vt 0.668599 0.83622599
vt 0.831327 0.83623898
vt 0.065636 0.43761396
vt 0.434453 0.43770802
vt 0.65526 0.46298897
vt 0.658294 0.40676403
vt 0.685573 0.37576103
vt 0.683435 0.43113697
vt 0.84187 0.406996
vt 0.844908 0.46322703
vt 0.814622 0.375925
vt 0.816765 0.43130398
vt 0.106919 0.281555
vt 0.107795 0.268897
vt 0.221246 0.880183995
vt 0.249995 0.886307
vt 0.249998 0.80084097
vt 0.221046 0.80084002
vt 0.278573 0.88016403
vt 0.278851 0.80084199
vt 0.644302 0.782902
vt 0.621479 0.76644999
vt 0.622855 0.739636
vt 0.393263 0.281671
vt 0.392544 0.268915
vt 0.877126 0.739644
vt 0.878501 0.76645797
vt 0.858134 0.776263
vt 0.193271 0.86315
vt 0.192926 0.800839
vt 0.306613 0.86315203
vt 0.307002 0.800843
vt 0.113911 0.632896
vt 0.386104 0.63288403
vt 0.640872 0.72844702
vt 0.859135 0.72832203
vt 0.650877 0.724526
vt 0.648553 0.800838
vt 0.167651 0.800838
vt 0.1686 0.83622599
vt 0.122409 0.263296
vt 0.123228 0.25066304
vt 0.849141 0.72432202
vt 0.330844 0.833332
vt 0.332301 0.80084401
vt 0.851407 0.80084503
vt 0.377793 0.26339304
vt 0.376887 0.25000203
vt 0.716816 0.35632896
vt 0.715712 0.41116798
vt 0.663616 0.712798
vt 0.783399 0.35641396
vt 0.784509 0.411255
vt 0.836397 0.712596
vt 0.635148 0.56652498
vt 0.631811 0.58503097
vt 0.685573 0.37576103
vt 0.683435 0.43113697
vt 0.868207 0.58498502
vt 0.864881 0.56650102
vt 0.814622 0.375925
vt 0.816765 0.43130398
vt 0.149246 0.79899198
vt 0.349001 0.79962999
vt 0.750111 0.34973502
vt 0.750114 0.404392
vt 0.138824 0.247105
vt 0.139545 0.23433101
vt 0.361394 0.24717903
vt 0.360712 0.23422998
vt 0.670857 0.692447
vt 0.829153 0.692257
vt 0.156051 0.23310196
vt 0.156682 0.22017002
vt 0.614714 0.691648
vt 0.613244 0.71807402
vt 0.344176 0.23315203
vt 0.343532 0.21987998
vt 0.716816 0.35632896
vt 0.715712 0.41116798
vt 0.885284 0.691635
vt 0.886755 0.71806002
vt 0.783399 0.35641396
vt 0.784509 0.411255
vt 0.148646 0.69064897
vt 0.156377 0.68350297
vt 0.160763 0.67113
vt 0.160631 0.656794
vt 0.155997 0.64435297
vt 0.148089 0.63711202
vt 0.634242 0.75882798
vt 0.351918 0.63696802
vt 0.344006 0.64418203
vt 0.339377 0.65662402
vt 0.339248 0.670959
vt 0.343638 0.683334
vt 0.351366 0.69050598
vt 0.865741 0.75882399
vt 0.100224 0.370884
vt 0.173976 0.22139299
vt 0.174466 0.20884901
vt 0.166525 0.75882697
vt 0.150677 0.75882798
vt 0.192693 0.75882697
vt 0.326255 0.221421
vt 0.32575 0.20854801
vt 0.22094 0.75882602
vt 0.750111 0.34973502
vt 0.750114 0.404392
vt 0.25 0.75882602
vt 0.278999 0.758825
vt 0.670663 0.66885298
vt 0.399926 0.370992
vt 0.307265 0.758825
vt 0.333457 0.75882399
vt 0.349305 0.75882399
vt 0.829341 0.668662
vt 0.134935 0.75698203
vt 0.192475 0.21208602
vt 0.192856 0.19919097
vt 0.36528 0.75743902
vt 0.307752 0.21209902
vt 0.307418 0.19927698
vt 0.620295 0.69151598
vt 0.618903 0.717597
vt 0.120848 0.58382702
vt 0.647607 0.715513
vt 0.648645 0.69064897
vt 0.879113 0.691451
vt 0.880497 0.71749598
vt 0.851365 0.69050598
vt 0.852402 0.715369
vt 0.211424 0.205302
vt 0.211729 0.19221497
vt 0.379185 0.58383602
vt 0.288798 0.20530802
vt 0.288553 0.192648
vt 0.655418 0.708313
vt 0.656376 0.68350297
vt 0.230685 0.20116603
vt 0.230813 0.188559
vt 0.843637 0.683334
vt 0.844596 0.70814198
vt 0.269532 0.201168
vt 0.269439 0.18848902
vt 0.250108 0.199776
vt 0.250095 0.18666899
vt 0.663041 0.648331
vt 0.836961 0.648129
vt 0.659847 0.695844
vt 0.660762 0.67113
vt 0.136565 0.737998
vt 0.151786 0.73689598
vt 0.839247 0.670959
vt 0.840162 0.69567198
vt 0.631751 0.74407202
vt 0.133642 0.745041
vt 0.363719 0.73574
vt 0.3482 0.73674
vt 0.165597 0.72419602
vt 0.367164 0.74053103
vt 0.86847 0.742684
vt 0.334414 0.72401
vt 0.659712 0.68139702
vt 0.66063 0.656794
vt 0.649971 0.636423
vt 0.840293 0.681225
vt 0.839376 0.65662402
vt 0.850026 0.63621402
vt 0.639797 0.63232797
vt 0.636564 0.737998
vt 0.220796 0.70162898
vt 0.192377 0.70165902
vt 0.250003 0.70159698
vt 0.2792 0.70156598
vt 0.173632 0.701679
vt 0.307623 0.701536
vt 0.860211 0.6322
vt 0.651785 0.73689598
vt 0.32638 0.70151597
vt 0.865025 0.737893
vt 0.629614 0.62822998
vt 0.848199 0.73674
vt 0.870404 0.628183
vt 0.65503 0.668859
vt 0.655996 0.64435297
vt 0.144309 0.31921303
vt 0.844005 0.64418203
vt 0.844972 0.668687
vt 0.665596 0.72419602
vt 0.355922 0.31930304
vt 0.834413 0.72401
vt 0.633009 0.609451
vt 0.86702 0.60942602
vt 0.64704 0.661564
vt 0.648088 0.63711202
vt 0.851917 0.63696802
vt 0.852965 0.66141802
vt 0.612421 0.658841
vt 0.61391 0.632896
vt 0.620133 0.633833
vt 0.618733 0.659411
vt 0.880476 0.63369697
vt 0.886103 0.63288403
vt 0.887592 0.658827
vt 0.881885 0.65930998
vt 0.673631 0.701679
vt 0.826379 0.70151597
vt 0.135757 0.535789
vt 0.364303 0.53580898
vt 0.673424 0.675529
vt 0.192232 0.67550898
vt 0.173425 0.675529
vt 0.22073 0.67547798
vt 0.250004 0.675447
vt 0.279292 0.675416
vt 0.307786 0.675385
vt 0.326581 0.67536497
vt 0.619427 0.60936302
vt 0.620847 0.58382702
vt 0.82658 0.67536497
vt 0.879184 0.58383602
vt 0.880604 0.60937
vt 0.195326 0.286175
vt 0.304995 0.28619802
vt 0.664977 0.652811
vt 0.835029 0.652624
vt 0.250003 0.27419603
vt 0.65083 0.639861
vt 0.8492 0.63970202
vt 0.635524 0.638694
vt 0.191909 0.61723202
vt 0.165336 0.61723298
vt 0.164978 0.652811
vt 0.866831 0.638413
vt 0.630604 0.631042
vt 0.157608 0.49459898
vt 0.220582 0.61723202
vt 0.33503 0.652624
vt 0.334698 0.61723
vt 0.308149 0.61723
vt 0.250006 0.617231
vt 0.279496 0.617231
vt 0.86968 0.632859
vt 0.34249 0.494626
vt 0.634494 0.560919
vt 0.635756 0.535789
vt 0.864302 0.53580898
vt 0.865565 0.560938
vt 0.149256 0.61723298
vt 0.150831 0.639861
vt 0.349201 0.63970202
vt 0.350777 0.61723
vt 0.63258 0.61723298
vt 0.135525 0.638694
vt 0.132581 0.61723298
vt 0.130605 0.631042
vt 0.86745 0.61722898
vt 0.366832 0.638413
vt 0.369681 0.632859
vt 0.367451 0.61722898
vt 0.14622 0.57359898
vt 0.353835 0.573606
vt 0.185219 0.462844
vt 0.314929 0.46286
vt 0.165774 0.5736
vt 0.191667 0.573601
vt 0.220472 0.57360202
vt 0.250008 0.57360297
vt 0.279649 0.573604
vt 0.308421 0.573605
vt 0.334289 0.573606
vt 0.657607 0.49459898
vt 0.656582 0.519377
vt 0.842489 0.494626
vt 0.843515 0.519405
vt 0.646219 0.57359898
vt 0.853834 0.573606
vt 0.217003 0.442604
vt 0.2832 0.44257998
vt 0.16615 0.53624803
vt 0.33394 0.53626198
vt 0.684497 0.48734796
vt 0.685218 0.462844
vt 0.814928 0.46286
vt 0.815651 0.48736298
vt 0.666149 0.53624803
vt 0.191301 0.50747102
vt 0.250003 0.435278
vt 0.308834 0.507474
vt 0.833939 0.53626198
vt 0.220259 0.489119
vt 0.279945 0.489097
vt 0.716634 0.466933
vt 0.717002 0.442604
vt 0.783199 0.44257998
vt 0.783569 0.46690702
vt 0.250012 0.48254597
vt 0.750002 0.459543
vt 0.750002 0.435278
vt 0.6913 0.50747102
vt 0.808833 0.507474
vt 0.720258 0.489119
vt 0.779944 0.489097
vt 0.750011 0.48254597
vn -0.9925 -0.1197 0.0233
vn -0.9925 -0.1197 0.0233
vn -0.9709 -0.2385 0.0232
vn -0.9709 -0.2385 0.0232
vn 0.9705 -0.24 0.0232
vn 0.9923 -0.1213 0.0233
vn 0.9923 -0.1213 0.0233
vn 0.9705 -0.24 0.0232
vn -0.9923 0.1213 0.0233
vn -0.9923 0.1213 0.0233
vn 0.9925 0.1197 0.0233
vn 0.9925 0.1197 0.0233
vn -0.9345 0.3552 0.0233
vn -0.9345 0.3552 0.0233
vn 0.935 0.3538 0.0233
vn 0.935 0.3538 0.0233
vn -0.8223 0.5685 0.0233
vn -0.8223 0.5685 0.0233
vn 0.8232 0.5672 0.0233
vn 0.8232 0.5672 0.0233
vn -0.6623 0.7488 0.0233
vn -0.6623 0.7488 0.0233
vn 0.6635 0.7478 0.0233
vn 0.6635 0.7478 0.0233
vn -0.4639 0.8856 0.0233
vn -0.4639 0.8856 0.0233
vn 0.4653 0.8849 0.0233
vn 0.4653 0.8849 0.0233
vn -0.2385 0.9709 0.0233
vn -0.2385 0.9709 0.0233
vn 0.24 0.9705 0.0233
vn 0.24 0.9705 0.0233
vn 0.0008 0.9997 0.0233
vn 0.0008 0.9997 0.0233
vn -0.0001 -0.9755 -0.2198
vn -0.1034 -0.9706 -0.2173
vn -0.0855 -0.9963 0
vn 0 -1 0
vn 0.1034 -0.9706 -0.2172
vn 0.0855 -0.9963 0
vn -0.1468 -0.965 -0.2174
vn -0.1691 -0.9856 0
vn 0.1468 -0.965 -0.2173
vn 0.169 -0.9856 0
vn -0.243 -0.9448 -0.2198
vn -0.2498 -0.9683 0
vn 0.2427 -0.9449 -0.2198
vn 0.2495 -0.9684 0
vn -0.3366 -0.9162 -0.2174
vn -0.3272 -0.9449 0
vn 0.336 -0.9164 -0.2175
vn 0.3267 -0.9451 0
vn -0.3753 -0.901 -0.2174
vn -0.4017 -0.9158 0
vn 0.3745 -0.9013 -0.2175
vn 0.401 -0.9161 0
vn -0.4618 -0.8593 -0.2198
vn -0.4733 -0.8809 0
vn 0.461 -0.8597 -0.2198
vn 0.4725 -0.8813 0
vn 0.2832 0.959 0
vn 0.2775 0.9532 0.1194
vn 0.1325 0.9836 0.1221
vn 0.1335 0.991 0
vn -0.0005 1 0
vn -0.0014 0.9924 0.1228
vn -0.1321 0.9835 0.1234
vn -0.1331 0.9911 0
vn -0.5446 -0.81 -0.2174
vn -0.5421 -0.8403 0
vn 0.5437 -0.8106 -0.2174
vn 0.5412 -0.8409 0
vn 0.474 0.8805 0
vn 0.4707 0.8745 0.1166
vn -0.2816 0.9595 0
vn -0.275 0.9539 0.1202
vn -0.4697 0.875 0.1167
vn -0.4729 0.8811 0
vn -0.5786 -0.7861 -0.2174
vn -0.6076 -0.7942 0
vn 0.5777 -0.7867 -0.2174
vn 0.6067 -0.7949 0
vn -0.653 -0.7247 -0.2196
vn -0.6694 -0.7429 0
vn 0.6523 -0.7254 -0.2197
vn 0.6686 -0.7436 0
vn -0.7221 -0.6568 -0.2172
vn -0.7271 -0.6865 0
vn 0.6697 0.7426 0
vn 0.6652 0.7375 0.1167
vn 0.7215 -0.6574 -0.2173
vn 0.7264 -0.6872 0
vn -0.6644 0.7381 0.1168
vn -0.669 0.7432 0
vn 0.0003 -0.9016 -0.4324
vn -0.2248 -0.8733 -0.4321
vn 0.2243 -0.8735 -0.4321
vn -0.7495 -0.6253 -0.2172
vn -0.7799 -0.6259 0
vn 0.7489 -0.626 -0.2173
vn 0.7793 -0.6266 0
vn -0.4274 -0.7941 -0.432
vn 0.4266 -0.7945 -0.4321
vn -0.8065 -0.5489 -0.2195
vn -0.827 -0.5622 0
vn 0.8061 -0.5495 -0.2196
vn 0.8265 -0.5629 0
vn 0.2684 0.9333 0.2387
vn 0.1296 0.9611 0.2436
vn -0.0022 0.9695 0.2452
vn -0.1283 0.9607 0.2462
vn 0.827 0.5622 0
vn 0.8213 0.5585 0.1166
vn -0.8208 0.5591 0.1168
vn -0.8265 0.5629 0
vn -0.8565 -0.4682 -0.2172
vn -0.8683 -0.4961 0
vn 0.8561 -0.4689 -0.2174
vn 0.8678 -0.4968 0
vn 0.4608 0.8562 0.2337
vn -0.2647 0.9339 0.2403
vn -0.4598 0.8567 0.2338
vn -0.6041 -0.6698 -0.4317
vn 0.6034 -0.6703 -0.4319
vn -0.8751 -0.4324 -0.2171
vn -0.9043 -0.427 0
vn 0.8748 -0.433 -0.2173
vn 0.9039 -0.4277 0
vn 0.0008 0.9965 0.084
vn 0.0008 0.9965 0.084
vn 0.2393 0.9673 0.084
vn 0.2393 0.9673 0.084
vn -0.2376 0.9677 0.084
vn -0.2376 0.9677 0.084
vn 0.6511 0.722 0.2339
vn 0.4638 0.8819 0.084
vn 0.4638 0.8819 0.084
vn -0.4623 0.8827 0.084
vn -0.4623 0.8827 0.084
vn -0.6504 0.7226 0.234
vn -0.9138 -0.3421 -0.2189
vn -0.9359 -0.3522 0
vn 0.9135 -0.3426 -0.2191
vn 0.9357 -0.3528 0
vn 0.9367 0.3501 0
vn 0.9303 0.3479 0.1163
vn -0.9301 0.3484 0.1165
vn -0.9365 0.3507 0
vn -0.7457 -0.5077 -0.4314
vn 0.5668 0.8196 0.0834
vn 0.5668 0.8196 0.0834
vn -0.5654 0.8206 0.0834
vn -0.5654 0.8206 0.0834
vn 0.7452 -0.5082 -0.4317
vn -0.9449 -0.246 -0.2158
vn -0.9629 -0.2699 0
vn 0.9448 -0.2464 -0.216
vn 0.9627 -0.2704 0
vn -0.24 -0.9705 0.0205
vn -0.0008 -0.9998 0.0205
vn -0.0008 -0.9998 0.0205
vn -0.24 -0.9705 0.0205
vn 0.2385 -0.9709 0.0205
vn 0.2385 -0.9709 0.0205
vn -0.4653 -0.8849 0.0205
vn -0.4653 -0.8849 0.0205
vn 0.4639 -0.8856 0.0205
vn 0.4639 -0.8856 0.0205
vn 0.8207 0.5652 0.084
vn 0.7466 0.66 0.0834
vn 0.7466 0.66 0.0834
vn 0.8206 0.5652 0.084
vn 0.8039 0.5468 0.2336
vn -0.8194 0.567 0.084
vn -0.8194 0.567 0.084
vn -0.7451 0.6617 0.0834
vn -0.7451 0.6617 0.0834
vn -0.8035 0.5474 0.234
vn -0.9556 -0.2008 -0.2158
vn -0.9831 -0.1828 0
vn 0.9554 -0.2011 -0.216
vn 0.9831 -0.1831 0
vn -0.6635 -0.7478 0.0205
vn -0.6635 -0.7478 0.0205
vn 0.6624 -0.7489 0.0205
vn 0.6624 -0.7489 0.0205
vn -0.9593 -0.1784 -0.2186
vn -0.9903 -0.1386 0
vn -0.8459 -0.3146 -0.4306
vn 0.9321 0.3523 0.084
vn 0.9321 0.3523 0.084
vn -0.9313 0.3544 0.084
vn -0.9313 0.3544 0.084
vn 0.9592 -0.1787 -0.2188
vn 0.9903 -0.1389 0
vn -0.0026 -0.0104 -0.9999
vn 0 -0.0107 -0.9999
vn 0 -0.0107 -0.9999
vn -0.0026 -0.0104 -0.9999
vn 0.0026 -0.0104 -0.9999
vn 0.0026 -0.0104 -0.9999
vn 0.8456 -0.315 -0.431
vn 0.9929 0.1188 0
vn 0.9862 0.118 0.116
vn -0.9861 0.1183 0.1161
vn -0.9929 0.119 0
vn -0.005 -0.0095 -0.9999
vn -0.005 -0.0095 -0.9999
vn 0.005 -0.0095 -0.9999
vn 0.005 -0.0095 -0.9999
vn -0.8232 -0.5673 0.0205
vn -0.8232 -0.5673 0.0205
vn 0.8224 -0.5686 0.0205
vn 0.8224 -0.5686 0.0205
vn -0.9771 0.0026 -0.2124
vn -0.9766 0.0094 -0.2149
vn -1 0.0063 0
vn -1 -0.0067 0
vn 0.2416 0.9565 0.163
vn 0.2242 0.8822 -0.414
vn -0.001 0.9064 -0.4223
vn -0.0045 0.9884 0.1518
vn -0.2252 0.8826 -0.4127
vn -0.2495 0.9541 0.1657
vn 0.9108 0.3407 0.233
vn 0.9766 0.0092 -0.2149
vn 0.9772 0.0024 -0.2124
vn 1 -0.0067 0
vn 1 0.0062 0
vn -0.9105 0.3412 0.2334
vn -0.0071 -0.008 -0.9999
vn -0.0071 -0.008 -0.9999
vn 0.0071 -0.0081 -0.9999
vn 0.0071 -0.0081 -0.9999
vn 0.4601 0.8684 0.1849
vn 0.429 0.8078 -0.4042
vn -0.4292 0.8083 -0.4029
vn -0.4663 0.8644 0.1881
vn 0.9893 0.1191 0.084
vn 0.9893 0.1191 0.084
vn -0.989 0.1213 0.084
vn -0.989 0.1213 0.084
vn -0.9763 0.0277 -0.2143
vn -0.9991 0.0418 0
vn -0.9351 -0.3538 0.0205
vn -0.9351 -0.3538 0.0205
vn 0.6513 0.7311 0.2029
vn 0.6117 0.685 -0.3957
vn 0.9345 -0.3552 0.0205
vn 0.9345 -0.3552 0.0205
vn 0.9763 0.0275 -0.2143
vn 0.9991 0.0417 0
vn -0.6122 0.6852 -0.3946
vn -0.6563 0.7259 0.2056
vn -0.0089 -0.0061 -0.9999
vn -0.0089 -0.0061 -0.9999
vn 0.0089 -0.0061 -0.9999
vn 0.0089 -0.0061 -0.9999
vn 0.0001 -0.169 -0.9856
vn -0.0425 -0.1639 -0.9855
vn -0.0425 -0.1639 -0.9855
vn 0.0001 -0.169 -0.9856
vn 0.0424 -0.1639 -0.9855
vn 0.0425 -0.1639 -0.9855
vn -0.8797 -0.2092 -0.427
vn 0.8794 -0.2096 -0.4274
vn -0.97 0.1094 -0.2171
vn -0.9948 0.1017 0
vn 0.804 0.5533 0.2176
vn 0.7598 0.521 -0.3888
vn 0.97 0.1092 -0.217
vn 0.9948 0.1014 0
vn 0.9933 -0.0001 0.1151
vn 1 0 0
vn -0.7603 0.5209 -0.388
vn -0.8077 0.5471 0.2196
vn 0.9965 -0.001 0.0834
vn 0.9965 -0.001 0.0834
vn -0.0802 -0.149 -0.9856
vn -0.0802 -0.149 -0.9856
vn 0.08 -0.1491 -0.9856
vn 0.08 -0.1491 -0.9856
vn -0.9965 0.0012 0.0834
vn -0.9965 0.0012 0.0834
vn -0.9933 0.0001 0.1151
vn -1 0 0
vn -0.9926 -0.1197 0.0205
vn -0.9926 -0.1197 0.0205
vn -0.01 -0.0038 -0.9999
vn -0.01 -0.0038 -0.9999
vn 0.9924 -0.1213 0.0205
vn 0.9924 -0.1213 0.0205
vn 0.9657 0.1156 0.2325
vn 0.01 -0.0038 -0.9999
vn 0.01 -0.0038 -0.9999
vn -0.9656 0.1159 0.2327
vn -0.9554 0.2011 -0.216
vn -0.9831 0.1831 0
vn 0.2246 0.8603 -0.4577
vn -0.0008 0.89 -0.4558
vn -0.2248 0.8602 -0.4578
vn 0.9556 0.2008 -0.2158
vn 0.9831 0.1828 0
vn -0.1133 -0.1256 -0.9856
vn -0.1133 -0.1256 -0.9856
vn 0.9134 0.3646 0.1807
vn 0.826 0.4703 -0.3105
vn 0.1132 -0.1258 -0.9856
vn 0.1132 -0.1258 -0.9856
vn -0.8027 0.5087 -0.3112
vn -0.9172 0.3623 0.1655
vn 0.4214 0.7829 -0.4577
vn -0.4205 0.7834 -0.4576
vn -0.9448 0.2464 -0.216
vn -0.9627 0.2704 0
vn 0.9449 0.246 -0.2158
vn 0.9629 0.2699 0
vn 0.5954 0.6602 -0.4578
vn -0.5948 0.6608 -0.4577
vn -0.0107 -0.0013 -0.9999
vn -0.0107 -0.0013 -0.9999
vn 0.0107 -0.0013 -0.9999
vn 0.0107 -0.0013 -0.9999
vn -0.9924 0.1213 0.0205
vn -0.9924 0.1213 0.0205
vn 0.9926 0.1197 0.0205
vn 0.9926 0.1197 0.0205
vn -0.4833 -0.0094 -0.8754
vn -0.6215 0.0767 -0.7796
vn -0.1399 -0.0952 -0.9856
vn -0.1399 -0.0952 -0.9856
vn 0.6216 0.0764 -0.7796
vn 0.4833 -0.0096 -0.8754
vn 0.1398 -0.0953 -0.9856
vn 0.1398 -0.0953 -0.9856
vn -0.9135 0.3426 -0.2191
vn -0.9357 0.3528 0
vn 0.9138 0.3421 -0.2189
vn 0.9359 0.3522 0
vn 0.9843 0.0756 0.1594
vn 0.7565 0.0556 0.6515
vn 0.8682 -0.4845 0.1072
vn 0.7349 0.5 -0.458
vn -0.7346 0.5006 -0.4579
vn -0.8944 -0.4429 0.0623
vn -0.7637 0.0403 0.6442
vn -0.9883 0.0516 0.1433
vn 0.973 -0.0001 0.2308
vn -0.973 0.0001 0.2308
vn -0.8748 0.433 -0.2173
vn -0.9039 0.4277 0
vn -0.0107 0.0013 -0.9999
vn -0.0107 0.0013 -0.9999
vn 0.8751 0.4324 -0.2171
vn 0.9043 0.427 0
vn 0.0107 0.0013 -0.9999
vn 0.0107 0.0013 -0.9999
vn 0.9842 -0.0695 0.1629
vn 0.7558 -0.0539 0.6525
vn -0.9345 0.3552 0.0205
vn -0.9345 0.3552 0.0205
vn -0.765 -0.0407 0.6427
vn -0.989 -0.0556 0.1366
vn 0.9351 0.3538 0.0205
vn 0.9351 0.3538 0.0205
vn 0.2525 0.9676 0
vn -0.0009 1 0
vn -0.2528 0.9675 0
vn 0.8327 0.2617 -0.4879
vn -0.8315 0.2767 -0.4816
vn -0.1585 -0.0595 -0.9856
vn -0.1585 -0.0595 -0.9856
vn 0.1585 -0.0595 -0.9856
vn 0.1585 -0.0595 -0.9856
vn 0.474 0.8805 0
vn -0.8561 0.4689 -0.2174
vn -0.8678 0.4968 0
vn -0.4729 0.8811 0
vn 0.8565 0.4682 -0.2172
vn 0.8683 0.4961 0
vn -0.2522 -0.9677 0
vn 0.0006 -1 0
vn 0.0005 -0.7353 -0.6777
vn -0.1846 -0.7082 -0.6814
vn 0.2522 -0.9677 0
vn 0.1845 -0.708 -0.6816
vn -0.347 -0.6447 -0.6811
vn -0.474 -0.8805 0
vn 0.473 -0.881 0
vn 0.3463 -0.6451 -0.6811
vn 0.6696 0.7426 0
vn -0.669 0.7432 0
vn -0.5849 0.2182 -0.7812
vn -0.01 0.0038 -0.9999
vn -0.01 0.0038 -0.9999
vn 0.8555 -0.2693 -0.4422
vn -0.8061 0.5495 -0.2196
vn -0.8265 0.5629 0
vn 0.01 0.0038 -0.9999
vn 0.01 0.0038 -0.9999
vn 0.5852 0.2179 -0.781
vn -0.8709 -0.2135 -0.4426
vn 0.8065 0.5489 -0.2195
vn 0.827 0.5622 0
vn 0.9544 -0.2656 0.1361
vn 0.8828 0.4534 0.1229
vn -0.911 0.4037 0.0834
vn -0.9542 -0.2806 0.1034
vn -0.8224 0.5686 0.0205
vn -0.8224 0.5686 0.0205
vn 0.8232 0.5673 0.0205
vn 0.8232 0.5673 0.0205
vn -0.4903 -0.5437 -0.6811
vn -0.6697 -0.7426 0
vn 0.669 -0.7432 0
vn 0.4898 -0.5441 -0.6811
vn -0.7489 0.626 -0.2173
vn -0.7793 0.6266 0
vn 0.8267 0.5626 0
vn -0.8263 0.5631 0
vn 0.7495 0.6253 -0.2172
vn 0.7799 0.6259 0
vn -0.1232 -0.0142 -0.9923
vn 0.1232 -0.0142 -0.9922
vn 0 0 -1
vn 0 0 -1
vn 0 0 -1
vn -0.0088 0.0061 -0.9999
vn -0.0088 0.0061 -0.9999
vn 0.0089 0.0061 -0.9999
vn 0.0089 0.0061 -0.9999
vn -0.7215 0.6574 -0.2173
vn -0.7264 0.6872 0
vn -0.8267 -0.5625 0
vn -0.6052 -0.4118 -0.6812
vn -0.6624 0.7489 0.0205
vn -0.6624 0.7489 0.0205
vn 0.831 -0.5032 -0.2371
vn 0 0 -1
vn 0.7221 0.6568 -0.2172
vn 0.7271 0.6865 0
vn 0.8263 -0.5631 0
vn 0.605 -0.4123 -0.6812
vn 0 0 -1
vn 0.6635 0.7478 0.0205
vn 0.6635 0.7478 0.0205
vn -0.7564 -0.619 -0.2112
vn 0.2924 -0.7103 0.6403
vn 0.2964 0.7066 0.6425
vn 0.5945 0.5199 0.6134
vn 0.7744 0.1836 0.6054
vn 0.7745 -0.1836 0.6054
vn 0.5958 -0.5179 0.6138
vn -0.2866 0.7109 0.6422
vn -0.293 -0.7077 0.6429
vn -0.5932 -0.5207 0.614
vn -0.7738 -0.1836 0.6062
vn -0.7738 0.1839 0.6061
vn -0.5921 0.5227 0.6134
vn 0.9345 0.3559 0
vn -0.9352 0.354 0
vn -0.6523 0.7254 -0.2197
vn -0.6686 0.7436 0
vn 0.653 0.7247 -0.2196
vn 0.6694 0.7429 0
vn 0 0 -1
vn 0 0 -1
vn -0.5155 0.3515 -0.7814
vn 0.5159 0.3512 -0.7813
vn -0.0071 0.0081 -0.9999
vn -0.0071 0.0081 -0.9999
vn -0.4639 0.8856 0.0205
vn -0.4639 0.8856 0.0205
vn 0.0071 0.008 -0.9999
vn 0.0071 0.008 -0.9999
vn 0.4653 0.8849 0.0205
vn 0.4653 0.8849 0.0205
vn -0.5777 0.7867 -0.2174
vn -0.6067 0.7949 0
vn 0 0 -1
vn 0 0 -1
vn 0 0 -1
vn 0 0 -1
vn 0 0 -1
vn 0 0 -1
vn 0.9417 -0.3364 0
vn -0.6848 -0.2578 -0.6816
vn -0.9359 -0.3523 0
vn 0.5786 0.7861 -0.2174
vn 0.6076 0.7942 0
vn 0.9357 -0.3528 0
vn 0.6847 -0.2582 -0.6816
vn -0.9529 -0.3031 0
vn 0 0 -1
vn 0 0 -1
vn 0 0 -1
vn 0 0 -1
vn -0.1232 0.0142 -0.9922
vn 0.1232 0.0142 -0.9923
vn 0.3333 -0.9428 0
vn -0.3751 -0.927 0
vn 0.2686 -0.9632 0
vn 0 0 -1
vn 0 0 -1
vn 0 0 -1
vn -0.5437 0.8106 -0.2174
vn -0.5412 0.8409 0
vn -0.2715 -0.9624 0
vn 0 0 -1
vn 0 0 -1
vn 0 0 -1
vn 0.5446 0.81 -0.2174
vn 0.5421 0.8403 0
vn -0.2385 0.9709 0.0205
vn -0.2385 0.9709 0.0205
vn 0.6984 -0.7156 0
vn 0.24 0.9705 0.0205
vn 0.24 0.9705 0.0205
vn -0.6953 -0.7187 0
vn 0.8638 -0.0856 -0.4964
vn 0.8641 0.2419 -0.4414
vn -0.005 0.0095 -0.9999
vn -0.005 0.0095 -0.9999
vn -0.8811 0.1576 -0.4458
vn -0.8583 -0.1411 -0.4934
vn 0.005 0.0095 -0.9999
vn 0.005 0.0095 -0.9999
vn 0 0 -1
vn 0 0 -1
vn 0.0008 0.9998 0.0205
vn 0.0008 0.9998 0.0205
vn -0.461 0.8597 -0.2198
vn -0.4725 0.8813 0
vn 0.4618 0.8593 -0.2198
vn 0.4733 0.8809 0
vn 0.966 -0.2586 0
vn -0.9658 -0.259 0
vn -0.3745 0.9013 -0.2175
vn -0.401 0.9161 0
vn -0.8126 0.5829 0
vn -0.6612 0.4899 -0.568
vn 0.3753 0.901 -0.2174
vn 0.4017 0.9158 0
vn -0.0026 0.0104 -0.9999
vn -0.0026 0.0104 -0.9999
vn 0.8137 0.5812 0
vn 0.6622 0.4885 -0.5682
vn 0.0026 0.0104 -0.9999
vn 0.0026 0.0104 -0.9999
vn -0.0235 0 -0.9997
vn -0.0235 0 -0.9997
vn -0.0235 0 -0.9997
vn -0.0235 0 -0.9997
vn -0.0235 0 -0.9997
vn -0.0235 0 -0.9997
vn 0 0 -1
vn 0.0235 0 -0.9997
vn 0.0235 0 -0.9997
vn 0.0235 0 -0.9997
vn 0.0235 0 -0.9997
vn 0.0235 0 -0.9997
vn 0.0235 0 -0.9997
vn 0 0 -1
vn -0.4175 0.4637 -0.7814
vn -0.336 0.9164 -0.2175
vn -0.3267 0.9451 0
vn 0 0 -1
vn 0 0 -1
vn 0 0 -1
vn 0.3366 0.9162 -0.2174
vn 0.3272 0.9449 0
vn 0 0 -1
vn 0 0.0107 -0.9999
vn 0 0.0107 -0.9999
vn 0 0 -1
vn 0 0 -1
vn 0.9658 0.259 0
vn 0.4179 0.4633 -0.7814
vn 0 0 -1
vn 0 0 -1
vn 0 0 -1
vn -0.966 0.2586 0
vn 0 0 -1
vn -0.2427 0.9449 -0.2198
vn -0.2495 0.9684 0
vn 0 0 -1
vn 0.243 0.9448 -0.2198
vn 0.2498 0.9683 0
vn -0.0495 0.9987 0
vn -0.035 0.7071 -0.7063
vn -0.1585 0.0595 -0.9856
vn -0.181 0.6188 -0.7644
vn -0.2787 0.9604 0
vn 0.0524 0.9986 0
vn 0.037 0.7071 -0.7061
vn 0.2806 0.9598 0
vn 0.1822 0.6185 -0.7644
vn -0.1468 0.965 -0.2173
vn -0.169 0.9856 0
vn 0.1585 0.0595 -0.9856
vn 0.1468 0.965 -0.2174
vn 0.1691 0.9856 0
vn -0.4508 0.4511 -0.7702
vn -0.7069 0.7073 0
vn -0.1034 0.9706 -0.2172
vn -0.0855 0.9963 0
vn 0.7074 0.7068 0
vn 0.4514 0.451 -0.77
vn 0.1034 0.9706 -0.2173
vn 0.0855 0.9963 0
vn 0.0001 0.9755 -0.2198
vn 0 1 0
vn 0.6959 0.7181 0
vn -0.6936 0.7203 0
vn -0.6159 0.1651 -0.7703
vn -0.9659 0.2589 0
vn 0 0 -1
vn 0 0 -1
vn 0.9658 0.2593 0
vn 0.6158 0.1653 -0.7703
vn 0 0 -1
vn 0 0 -1
vn 0 0 -1
vn 0 0 -1
vn 0 0 -1
vn 0 0 -1
vn 0 0 -1
vn 0 0 -1
vn -0.6158 -0.1653 -0.7703
vn -0.9658 -0.2593 0
vn 0.2743 0.9616 0
vn 0.6159 -0.1651 -0.7703
vn 0.9659 -0.2589 0
vn -0.2626 0.9649 0
vn 0.3922 0.9199 0
vn 0 0 -1
vn 0 0 -1
vn 0 0 -1
vn 0 0 -1
vn 0 0 -1
vn 0 0 -1
vn 0 0 -1
vn -0.4363 0.8998 0
vn 0 0 -1
vn 0 0 -1
vn 0 0 -1
vn 0.956 0.2933 0
vn 0 0 -1
vn -0.9735 0.2287 0
vn -0.4514 -0.451 -0.77
vn -0.7074 -0.7068 0
vn -0.2951 0.5497 -0.7815
vn 0.7069 -0.7073 0
vn 0.4508 -0.4511 -0.7702
vn 0 0 -1
vn 0.2957 0.5494 -0.7815
vn 0 0 -1
vn 0.973 -0.2307 0
vn -0.9684 -0.2495 0
vn -0.1822 -0.6185 -0.7644
vn -0.2806 -0.9598 0
vn 0.2787 -0.9604 0
vn 0.181 -0.6188 -0.7644
vn -0.6622 -0.4885 -0.5682
vn -0.8137 -0.5812 0
vn -0.0524 -0.9986 0
vn -0.037 -0.7071 -0.7061
vn 0.0495 -0.9987 0
vn 0.8126 -0.5829 0
vn 0.6612 -0.4899 -0.568
vn 0.035 -0.7071 -0.7063
vn 0 0 -1
vn 0 0 -1
vn -0.1398 0.0953 -0.9856
vn 0.1399 0.0952 -0.9856
vn 0 0 -1
vn 0 0 -1
vn 0 0 -1
vn 0 0 -1
vn 0 0 -1
vn 0 0 -1
vn 0 0 -1
vn 0 0 -1
vn -0.6847 0.2582 -0.6816
vn -0.9357 0.3528 0
vn 0 0 -1
vn 0.9359 0.3523 0
vn 0.6848 0.2578 -0.6816
vn -0.1553 0.6043 -0.7815
vn 0.1556 0.6043 -0.7814
vn 0 0 -1
vn 0 0 -1
vn -0.0002 0.6256 -0.7801
vn 0 0 -1
vn 0 0 -1
vn 0 0 -1
vn 0 0 -1
vn 0 0 -1
vn 0 0 -1
vn 0 0 -1
vn 0 0 -1
vn -0.1132 0.1258 -0.9856
vn 0 0 -1
vn 0 0 -1
vn 0 0 -1
vn 0 0 -1
vn 0 0 -1
vn 0 0 -1
vn 0 0 -1
vn 0.1133 0.1256 -0.9856
vn -0.605 0.4123 -0.6812
vn -0.8263 0.5631 0
vn 0.8267 0.5625 0
vn 0.6052 0.4118 -0.6812
vn 0 0 -1
vn 0 0 -1
vn 0 0 -1
vn 0 0 -1
vn 0 0 -1
vn 0 0 -1
vn 0 0 -1
vn 0 0 -1
vn 0 0 -1
vn 0 0 -1
vn 0 0 -1
vn 0 0 -1
vn 0 0 -1
vn 0 0 -1
vn -0.08 0.1491 -0.9856
vn 0.0802 0.149 -0.9856
vn 0 0 -1
vn 0 0 -1
vn 0 0 -1
vn 0 0 -1
vn 0 0 -1
vn 0 0 -1
vn 0 0 -1
vn -0.669 0.7432 0
vn -0.4898 0.5441 -0.6811
vn 0.6697 0.7426 0
vn 0.4903 0.5437 -0.6811
vn 0 0 -1
vn 0 0 -1
vn -0.0423 0.1639 -0.9855
vn 0.0424 0.1639 -0.9856
vn 0 0 -1
vn 0 0 -1
vn -0.3463 0.6451 -0.6811
vn -0.473 0.881 0
vn 0.474 0.8805 0
vn 0.347 0.6447 -0.6811
vn 0 0 -1
vn 0 0 -1
vn -0.0001 0.1691 -0.9856
vn 0 0 -1
vn 0 0 -1
vn 0 0 -1
vn 0 0 -1
vn -0.1839 0.7084 -0.6814
vn -0.2513 0.9679 0
vn 0.2513 0.9679 0
vn 0.184 0.7086 -0.6812
vn 0 0 -1
vn -0.0005 0.735 -0.678
vn -0.0006 1 0
vn 0 0 -1
vn 0 0 -1
vn 0 0 -1
vn 0 0 -1
vn 0 0 -1
f 4/4/4 3/3/3 1/1/1
f 3/3/3 2/2/2 1/1/1
f 1/1/1 2/2/2 9/9/9
f 2/2/2 10/10/10 9/9/9
f 9/9/9 10/10/10 13/13/13
f 14/14/14 9/9/9 13/13/13
f 14/14/14 13/13/13 17/17/17
f 18/18/18 14/14/14 17/17/17
f 18/18/18 17/17/17 21/21/21
f 17/17/17 22/22/22 21/21/21
f 21/21/21 22/22/22 25/25/25
f 26/26/26 21/21/21 25/25/25
f 26/26/26 25/25/25 29/29/29
f 30/30/30 26/26/26 29/29/29
f 30/30/30 29/29/29 33/33/33
f 34/34/34 30/30/30 33/33/33
f 34/34/34 33/33/33 31/31/31
f 32/32/32 34/34/34 31/31/31
f 32/32/32 31/31/31 28/28/28
f 31/31/31 27/27/27 28/28/28
f 28/28/28 27/27/27 24/24/24
f 27/27/27 23/23/23 24/24/24
f 24/24/24 23/23/23 20/20/20
f 23/23/23 19/19/19 20/20/20
f 20/20/20 19/19/19 16/16/16
f 19/19/19 15/15/15 16/16/16
f 16/16/16 15/15/15 12/12/12
f 15/15/15 11/11/11 12/12/12
f 12/12/12 11/11/11 7/7/7
f 11/11/11 6/6/6 7/7/7
f 7/7/7 6/6/6 5/5/5
f 8/8/8 7/7/7 5/5/5
f 37/37/37 36/36/36 35/35/35
f 37/37/37 42/42/42 36/36/36
f 38/38/38 37/37/37 35/35/35
f 42/42/42 41/41/41 36/36/36
f 42/42/42 46/46/46 41/41/41
f 36/36/36 41/41/41 45/45/45
f 46/46/46 45/45/45 41/41/41
f 35/35/35 36/36/36 45/45/45
f 46/46/46 50/50/50 45/45/45
f 38/38/38 35/35/35 39/39/39
f 40/40/40 38/38/38 39/39/39
f 40/40/40 39/39/39 43/43/43
f 43/43/43 39/39/39 35/35/35
f 44/44/44 40/40/40 43/43/43
f 50/50/50 49/49/49 45/45/45
f 50/50/50 54/54/54 49/49/49
f 44/44/44 43/43/43 47/47/47
f 47/47/47 43/43/43 35/35/35
f 48/48/48 44/44/44 47/47/47
f 54/54/54 53/53/53 49/49/49
f 54/54/54 58/58/58 53/53/53
f 49/49/49 53/53/53 57/57/57
f 58/58/58 57/57/57 53/53/53
f 45/45/45 49/49/49 57/57/57
f 58/58/58 70/70/70 57/57/57
f 95/95/95 35/35/35 45/45/45
f 96/96/96 95/95/95 45/45/45
f 96/96/96 45/45/45 57/57/57
f 95/95/95 97/97/97 35/35/35
f 97/97/97 47/47/47 35/35/35
f 102/102/102 96/96/96 57/57/57
f 97/97/97 103/103/103 47/47/47
f 70/70/70 69/69/69 57/57/57
f 70/70/70 80/80/80 69/69/69
f 102/102/102 57/57/57 83/83/83
f 57/57/57 69/69/69 83/83/83
f 123/123/123 102/102/102 83/83/83
f 80/80/80 79/79/79 69/69/69
f 69/69/69 79/79/79 83/83/83
f 80/80/80 84/84/84 79/79/79
f 84/84/84 83/83/83 79/79/79
f 84/84/84 88/88/88 83/83/83
f 88/88/88 87/87/87 83/83/83
f 88/88/88 99/99/99 87/87/87
f 123/123/123 83/83/83 104/104/104
f 83/83/83 87/87/87 104/104/104
f 149/149/149 123/123/123 104/104/104
f 99/99/99 98/98/98 87/87/87
f 87/87/87 98/98/98 104/104/104
f 99/99/99 105/105/105 98/98/98
f 105/105/105 104/104/104 98/98/98
f 105/105/105 117/117/117 104/104/104
f 117/117/117 116/116/116 104/104/104
f 117/117/117 126/126/126 116/116/116
f 149/149/149 104/104/104 141/141/141
f 104/104/104 116/116/116 141/141/141
f 189/189/189 149/149/149 141/141/141
f 126/126/126 125/125/125 116/116/116
f 116/116/116 125/125/125 141/141/141
f 126/126/126 142/142/142 125/125/125
f 142/142/142 141/141/141 125/125/125
f 142/142/142 156/156/156 141/141/141
f 265/265/265 189/189/189 187/187/187
f 189/189/189 141/141/141 187/187/187
f 156/156/156 155/155/155 141/141/141
f 141/141/141 155/155/155 187/187/187
f 156/156/156 180/180/180 155/155/155
f 155/155/155 179/179/179 187/187/187
f 180/180/180 179/179/179 155/155/155
f 188/188/188 187/187/187 179/179/179
f 180/180/180 188/188/188 179/179/179
f 48/48/48 47/47/47 51/51/51
f 52/52/52 48/48/48 51/51/51
f 52/52/52 51/51/51 55/55/55
f 55/55/55 51/51/51 47/47/47
f 56/56/56 52/52/52 55/55/55
f 59/59/59 55/55/55 47/47/47
f 56/56/56 55/55/55 59/59/59
f 103/103/103 59/59/59 47/47/47
f 60/60/60 56/56/56 59/59/59
f 103/103/103 124/124/124 59/59/59
f 60/60/60 59/59/59 71/71/71
f 72/72/72 60/60/60 71/71/71
f 72/72/72 71/71/71 81/81/81
f 81/81/81 71/71/71 59/59/59
f 82/82/82 72/72/72 81/81/81
f 124/124/124 85/85/85 59/59/59
f 85/85/85 81/81/81 59/59/59
f 82/82/82 81/81/81 85/85/85
f 124/124/124 154/154/154 85/85/85
f 86/86/86 82/82/82 85/85/85
f 86/86/86 85/85/85 91/91/91
f 92/92/92 86/86/86 91/91/91
f 92/92/92 91/91/91 100/100/100
f 100/100/100 91/91/91 85/85/85
f 101/101/101 92/92/92 100/100/100
f 154/154/154 106/106/106 85/85/85
f 106/106/106 100/100/100 85/85/85
f 101/101/101 100/100/100 106/106/106
f 154/154/154 202/202/202 106/106/106
f 107/107/107 101/101/101 106/106/106
f 107/107/107 106/106/106 118/118/118
f 119/119/119 107/107/107 118/118/118
f 119/119/119 118/118/118 127/127/127
f 127/127/127 118/118/118 106/106/106
f 128/128/128 119/119/119 127/127/127
f 202/202/202 143/143/143 106/106/106
f 143/143/143 127/127/127 106/106/106
f 128/128/128 127/127/127 143/143/143
f 202/202/202 266/266/266 143/143/143
f 144/144/144 128/128/128 143/143/143
f 266/266/266 194/194/194 143/143/143
f 144/144/144 143/143/143 157/157/157
f 158/158/158 144/144/144 157/157/157
f 181/181/181 157/157/157 143/143/143
f 158/158/158 157/157/157 181/181/181
f 194/194/194 181/181/181 143/143/143
f 182/182/182 158/158/158 181/181/181
f 182/182/182 181/181/181 194/194/194
f 195/195/195 182/182/182 194/194/194
f 63/63/63 62/62/62 61/61/61
f 64/64/64 63/63/63 61/61/61
f 61/61/61 62/62/62 73/73/73
f 66/66/66 63/63/63 64/64/64
f 65/65/65 66/66/66 64/64/64
f 108/108/108 62/62/62 63/63/63
f 109/109/109 108/108/108 63/63/63
f 109/109/109 63/63/63 66/66/66
f 108/108/108 120/120/120 62/62/62
f 110/110/110 109/109/109 66/66/66
f 120/120/120 74/74/74 62/62/62
f 62/62/62 74/74/74 73/73/73
f 120/120/120 135/135/135 74/74/74
f 73/73/73 74/74/74 89/89/89
f 110/110/110 66/66/66 67/67/67
f 67/67/67 66/66/66 65/65/65
f 111/111/111 110/110/110 67/67/67
f 68/68/68 67/67/67 65/65/65
f 74/74/74 90/90/90 89/89/89
f 135/135/135 90/90/90 74/74/74
f 89/89/89 90/90/90 112/112/112
f 135/135/135 173/173/173 90/90/90
f 76/76/76 67/67/67 68/68/68
f 111/111/111 67/67/67 76/76/76
f 75/75/75 76/76/76 68/68/68
f 121/121/121 111/111/111 76/76/76
f 173/173/173 113/113/113 90/90/90
f 90/90/90 113/113/113 112/112/112
f 173/173/173 225/225/225 113/113/113
f 112/112/112 113/113/113 145/145/145
f 121/121/121 76/76/76 77/77/77
f 77/77/77 76/76/76 75/75/75
f 122/122/122 121/121/121 77/77/77
f 78/78/78 77/77/77 75/75/75
f 113/113/113 146/146/146 145/145/145
f 225/225/225 146/146/146 113/113/113
f 145/145/145 146/146/146 203/203/203
f 225/225/225 293/293/293 146/146/146
f 93/93/93 77/77/77 78/78/78
f 122/122/122 77/77/77 93/93/93
f 94/94/94 93/93/93 78/78/78
f 140/140/140 122/122/122 93/93/93
f 293/293/293 204/204/204 146/146/146
f 146/146/146 204/204/204 203/203/203
f 293/293/293 348/348/348 204/204/204
f 348/348/348 273/273/273 204/204/204
f 203/203/203 204/204/204 273/273/273
f 274/274/274 203/203/203 273/273/273
f 140/140/140 93/93/93 114/114/114
f 114/114/114 93/93/93 94/94/94
f 178/178/178 140/140/140 114/114/114
f 115/115/115 114/114/114 94/94/94
f 178/178/178 114/114/114 147/147/147
f 147/147/147 114/114/114 115/115/115
f 230/230/230 178/178/178 147/147/147
f 148/148/148 147/147/147 115/115/115
f 230/230/230 147/147/147 205/205/205
f 205/205/205 147/147/147 148/148/148
f 206/206/206 205/205/205 148/148/148
f 206/206/206 286/286/286 205/205/205
f 296/296/296 230/230/230 205/205/205
f 286/286/286 285/285/285 205/205/205
f 296/296/296 205/205/205 285/285/285
f 349/349/349 296/296/296 285/285/285
f 131/131/131 130/130/130 129/129/129
f 130/130/130 134/134/134 129/129/129
f 132/132/132 131/131/131 129/129/129
f 134/134/134 133/133/133 129/129/129
f 136/136/136 131/131/131 132/132/132
f 133/133/133 134/134/134 138/138/138
f 137/137/137 136/136/136 132/132/132
f 134/134/134 139/139/139 138/138/138
f 150/150/150 136/136/136 137/137/137
f 151/151/151 150/150/150 137/137/137
f 139/139/139 153/153/153 138/138/138
f 153/153/153 152/152/152 138/138/138
f 161/161/161 160/160/160 159/159/159
f 162/162/162 161/161/161 159/159/159
f 161/161/161 164/164/164 160/160/160
f 162/162/162 159/159/159 165/165/165
f 164/164/164 163/163/163 160/160/160
f 159/159/159 166/166/166 165/165/165
f 164/164/164 168/168/168 163/163/163
f 165/165/165 166/166/166 183/183/183
f 168/168/168 167/167/167 163/163/163
f 166/166/166 184/184/184 183/183/183
f 168/168/168 186/186/186 167/167/167
f 183/183/183 184/184/184 211/211/211
f 186/186/186 185/185/185 167/167/167
f 184/184/184 212/212/212 211/211/211
f 213/213/213 185/185/185 186/186/186
f 211/211/211 212/212/212 245/245/245
f 214/214/214 213/213/213 186/186/186
f 212/212/212 246/246/246 245/245/245
f 214/214/214 250/250/250 213/213/213
f 245/245/245 246/246/246 287/287/287
f 250/250/250 249/249/249 213/213/213
f 246/246/246 288/288/288 287/287/287
f 250/250/250 292/292/292 249/249/249
f 287/287/287 288/288/288 324/324/324
f 292/292/292 291/291/291 249/249/249
f 288/288/288 325/325/325 324/324/324
f 326/326/326 291/291/291 292/292/292
f 324/324/324 325/325/325 360/360/360
f 327/327/327 326/326/326 292/292/292
f 361/361/361 324/324/324 360/360/360
f 364/364/364 326/326/326 327/327/327
f 361/361/361 360/360/360 409/409/409
f 365/365/365 364/364/364 327/327/327
f 410/410/410 361/361/361 409/409/409
f 411/411/411 364/364/364 365/365/365
f 410/410/410 409/409/409 436/436/436
f 412/412/412 411/411/411 365/365/365
f 409/409/409 437/437/437 436/436/436
f 445/445/445 411/411/411 412/412/412
f 436/436/436 437/437/437 472/472/472
f 446/446/446 445/445/445 412/412/412
f 473/473/473 436/436/436 472/472/472
f 476/476/476 445/445/445 446/446/446
f 473/473/473 472/472/472 514/514/514
f 477/477/477 476/476/476 446/446/446
f 515/515/515 473/473/473 514/514/514
f 517/517/517 476/476/476 477/477/477
f 515/515/515 514/514/514 530/530/530
f 518/518/518 517/517/517 477/477/477
f 531/531/531 515/515/515 530/530/530
f 518/518/518 531/531/531 517/517/517
f 531/531/531 530/530/530 517/517/517
f 171/171/171 170/170/170 169/169/169
f 172/172/172 171/171/171 169/169/169
f 190/190/190 172/172/172 169/169/169
f 191/191/191 190/190/190 169/169/169
f 190/190/190 191/191/191 239/239/239
f 240/240/240 190/190/190 239/239/239
f 277/277/277 240/240/240 239/239/239
f 278/278/278 277/277/277 239/239/239
f 176/176/176 175/175/175 174/174/174
f 177/177/177 176/176/176 174/174/174
f 192/192/192 174/174/174 175/175/175
f 193/193/193 192/192/192 175/175/175
f 192/192/192 193/193/193 241/241/241
f 193/193/193 242/242/242 241/241/241
f 241/241/241 242/242/242 283/283/283
f 242/242/242 284/284/284 283/283/283
f 198/198/198 197/197/197 196/196/196
f 199/199/199 198/198/198 196/196/196
f 198/198/198 201/201/201 197/197/197
f 199/199/199 196/196/196 207/207/207
f 201/201/201 200/200/200 197/197/197
f 196/196/196 208/208/208 207/207/207
f 201/201/201 210/210/210 200/200/200
f 207/207/207 208/208/208 231/231/231
f 210/210/210 209/209/209 200/200/200
f 208/208/208 232/232/232 231/231/231
f 210/210/210 234/234/234 209/209/209
f 231/231/231 232/232/232 255/255/255
f 234/234/234 233/233/233 209/209/209
f 232/232/232 256/256/256 255/255/255
f 257/257/257 233/233/233 234/234/234
f 255/255/255 256/256/256 289/289/289
f 258/258/258 257/257/257 234/234/234
f 256/256/256 290/290/290 289/289/289
f 258/258/258 295/295/295 257/257/257
f 289/289/289 290/290/290 320/320/320
f 295/295/295 294/294/294 257/257/257
f 290/290/290 321/321/321 320/320/320
f 295/295/295 323/323/323 294/294/294
f 320/320/320 321/321/321 352/352/352
f 323/323/323 322/322/322 294/294/294
f 321/321/321 353/353/353 352/352/352
f 356/356/356 322/322/322 323/323/323
f 352/352/352 353/353/353 394/394/394
f 357/357/357 356/356/356 323/323/323
f 395/395/395 352/352/352 394/394/394
f 399/399/399 356/356/356 357/357/357
f 395/395/395 394/394/394 428/428/428
f 400/400/400 399/399/399 357/357/357
f 429/429/429 395/395/395 428/428/428
f 430/430/430 399/399/399 400/400/400
f 429/429/429 428/428/428 470/470/470
f 431/431/431 430/430/430 400/400/400
f 428/428/428 471/471/471 470/470/470
f 474/474/474 430/430/430 431/431/431
f 470/470/470 471/471/471 522/522/522
f 475/475/475 474/474/474 431/431/431
f 523/523/523 470/470/470 522/522/522
f 526/526/526 474/474/474 475/475/475
f 523/523/523 522/522/522 544/544/544
f 527/527/527 526/526/526 475/475/475
f 545/545/545 523/523/523 544/544/544
f 548/548/548 526/526/526 527/527/527
f 545/545/545 544/544/544 573/573/573
f 549/549/549 548/548/548 527/527/527
f 574/574/574 545/545/545 573/573/573
f 549/549/549 574/574/574 548/548/548
f 574/574/574 573/573/573 548/548/548
f 217/217/217 216/216/216 215/215/215
f 218/218/218 217/217/217 215/215/215
f 217/217/217 244/244/244 216/216/216
f 244/244/244 243/243/243 216/216/216
f 244/244/244 268/268/268 243/243/243
f 215/215/215 216/216/216 267/267/267
f 216/216/216 243/243/243 267/267/267
f 268/268/268 267/267/267 243/243/243
f 328/328/328 215/215/215 267/267/267
f 268/268/268 298/298/298 267/267/267
f 298/298/298 297/297/297 267/267/267
f 298/298/298 315/315/315 297/297/297
f 315/315/315 314/314/314 297/297/297
f 315/315/315 337/337/337 314/314/314
f 297/297/297 314/314/314 336/336/336
f 337/337/337 336/336/336 314/314/314
f 267/267/267 297/297/297 336/336/336
f 337/337/337 351/351/351 336/336/336
f 329/329/329 328/328/328 267/267/267
f 329/329/329 267/267/267 336/336/336
f 351/351/351 350/350/350 336/336/336
f 351/351/351 377/377/377 350/350/350
f 328/328/328 329/329/329 423/423/423
f 328/328/328 423/423/423 372/372/372
f 377/377/377 376/376/376 350/350/350
f 377/377/377 398/398/398 376/376/376
f 423/423/423 371/371/371 372/372/372
f 372/372/372 371/371/371 331/331/331
f 371/371/371 330/330/330 331/331/331
f 331/331/331 330/330/330 304/304/304
f 305/305/305 331/331/331 304/304/304
f 305/305/305 304/304/304 280/280/280
f 304/304/304 279/279/279 280/280/280
f 280/280/280 279/279/279 261/261/261
f 279/279/279 260/260/260 261/261/261
f 261/261/261 260/260/260 259/259/259
f 262/262/262 261/261/261 259/259/259
f 262/262/262 259/259/259 263/263/263
f 259/259/259 264/264/264 263/263/263
f 263/263/263 264/264/264 281/281/281
f 264/264/264 282/282/282 281/281/281
f 281/281/281 282/282/282 308/308/308
f 282/282/282 309/309/309 308/308/308
f 308/308/308 309/309/309 334/334/334
f 335/335/335 308/308/308 334/334/334
f 335/335/335 334/334/334 373/373/373
f 334/334/334 374/374/374 373/373/373
f 373/373/373 374/374/374 333/333/333
f 374/374/374 424/424/424 333/333/333
f 333/333/333 424/424/424 499/499/499
f 332/332/332 333/333/333 499/499/499
f 333/333/333 332/332/332 227/227/227
f 499/499/499 424/424/424 557/557/557
f 424/424/424 562/562/562 557/557/557
f 562/562/562 561/561/561 557/557/557
f 561/561/561 560/560/560 557/557/557
f 560/560/560 559/559/559 557/557/557
f 559/559/559 558/558/558 557/557/557
f 332/332/332 499/499/499 401/401/401
f 499/499/499 600/600/600 401/401/401
f 332/332/332 271/271/271 227/227/227
f 332/332/332 401/401/401 271/271/271
f 401/401/401 600/600/600 469/469/469
f 600/600/600 675/675/675 469/469/469
f 469/469/469 675/675/675 710/710/710
f 401/401/401 469/469/469 338/338/338
f 401/401/401 338/338/338 271/271/271
f 578/578/578 469/469/469 710/710/710
f 578/578/578 710/710/710 656/656/656
f 710/710/710 730/730/730 656/656/656
f 469/469/469 578/578/578 403/403/403
f 469/469/469 403/403/403 338/338/338
f 656/656/656 730/730/730 690/690/690
f 730/730/730 745/745/745 690/690/690
f 690/690/690 745/745/745 754/754/754
f 578/578/578 656/656/656 464/464/464
f 578/578/578 464/464/464 403/403/403
f 656/656/656 690/690/690 534/534/534
f 656/656/656 534/534/534 464/464/464
f 693/693/693 690/690/690 754/754/754
f 693/693/693 754/754/754 689/689/689
f 754/754/754 744/744/744 689/689/689
f 690/690/690 693/693/693 587/587/587
f 690/690/690 587/587/587 534/534/534
f 689/689/689 744/744/744 652/652/652
f 744/744/744 729/729/729 652/652/652
f 693/693/693 689/689/689 611/611/611
f 693/693/693 611/611/611 587/587/587
f 652/652/652 729/729/729 564/564/564
f 729/729/729 702/702/702 564/564/564
f 564/564/564 702/702/702 674/674/674
f 689/689/689 652/652/652 584/584/584
f 689/689/689 584/584/584 611/611/611
f 652/652/652 564/564/564 532/532/532
f 652/652/652 532/532/532 584/584/584
f 468/468/468 564/564/564 674/674/674
f 468/468/468 674/674/674 393/393/393
f 674/674/674 591/591/591 393/393/393
f 564/564/564 468/468/468 462/462/462
f 564/564/564 462/462/462 532/532/532
f 393/393/393 591/591/591 329/329/329
f 591/591/591 498/498/498 329/329/329
f 329/329/329 498/498/498 423/423/423
f 393/393/393 329/329/329 336/336/336
f 423/423/423 498/498/498 550/550/550
f 498/498/498 555/555/555 550/550/550
f 555/555/555 554/554/554 550/550/550
f 554/554/554 553/553/553 550/550/550
f 553/553/553 552/552/552 550/550/550
f 552/552/552 551/551/551 550/550/550
f 393/393/393 336/336/336 397/397/397
f 468/468/468 393/393/393 397/397/397
f 336/336/336 350/350/350 397/397/397
f 468/468/468 397/397/397 462/462/462
f 350/350/350 376/376/376 397/397/397
f 398/398/398 397/397/397 376/376/376
f 398/398/398 418/418/418 397/397/397
f 418/418/418 417/417/417 397/397/397
f 397/397/397 417/417/417 462/462/462
f 418/418/418 433/433/433 417/417/417
f 433/433/433 432/432/432 417/417/417
f 417/417/417 432/432/432 462/462/462
f 433/433/433 463/463/463 432/432/432
f 463/463/463 462/462/462 432/432/432
f 463/463/463 479/479/479 462/462/462
f 479/479/479 478/478/478 462/462/462
f 462/462/462 478/478/478 532/532/532
f 479/479/479 507/507/507 478/478/478
f 507/507/507 506/506/506 478/478/478
f 478/478/478 506/506/506 532/532/532
f 507/507/507 533/533/533 506/506/506
f 533/533/533 532/532/532 506/506/506
f 533/533/533 539/539/539 532/532/532
f 539/539/539 538/538/538 532/532/532
f 532/532/532 538/538/538 584/584/584
f 539/539/539 566/566/566 538/538/538
f 566/566/566 565/565/565 538/538/538
f 538/538/538 565/565/565 584/584/584
f 566/566/566 585/585/585 565/565/565
f 585/585/585 584/584/584 565/565/565
f 585/585/585 599/599/599 584/584/584
f 599/599/599 598/598/598 584/584/584
f 599/599/599 606/606/606 598/598/598
f 584/584/584 598/598/598 611/611/611
f 606/606/606 605/605/605 598/598/598
f 598/598/598 605/605/605 611/611/611
f 606/606/606 612/612/612 605/605/605
f 612/612/612 611/611/611 605/605/605
f 612/612/612 610/610/610 611/611/611
f 610/610/610 609/609/609 611/611/611
f 610/610/610 602/602/602 609/609/609
f 611/611/611 609/609/609 587/587/587
f 602/602/602 601/601/601 609/609/609
f 609/609/609 601/601/601 587/587/587
f 602/602/602 588/588/588 601/601/601
f 588/588/588 587/587/587 601/601/601
f 588/588/588 571/571/571 587/587/587
f 571/571/571 570/570/570 587/587/587
f 571/571/571 543/543/543 570/570/570
f 587/587/587 570/570/570 534/534/534
f 543/543/543 542/542/542 570/570/570
f 570/570/570 542/542/542 534/534/534
f 543/543/543 535/535/535 542/542/542
f 535/535/535 534/534/534 542/542/542
f 535/535/535 513/513/513 534/534/534
f 513/513/513 512/512/512 534/534/534
f 513/513/513 490/490/490 512/512/512
f 534/534/534 512/512/512 464/464/464
f 490/490/490 489/489/489 512/512/512
f 512/512/512 489/489/489 464/464/464
f 490/490/490 465/465/465 489/489/489
f 465/465/465 464/464/464 489/489/489
f 465/465/465 441/441/441 464/464/464
f 441/441/441 440/440/440 464/464/464
f 441/441/441 422/422/422 440/440/440
f 464/464/464 440/440/440 403/403/403
f 422/422/422 421/421/421 440/440/440
f 440/440/440 421/421/421 403/403/403
f 422/422/422 404/404/404 421/421/421
f 404/404/404 403/403/403 421/421/421
f 404/404/404 380/380/380 403/403/403
f 380/380/380 379/379/379 403/403/403
f 380/380/380 355/355/355 379/379/379
f 403/403/403 379/379/379 338/338/338
f 355/355/355 354/354/354 379/379/379
f 379/379/379 354/354/354 338/338/338
f 355/355/355 339/339/339 354/354/354
f 339/339/339 338/338/338 354/354/354
f 339/339/339 317/317/317 338/338/338
f 317/317/317 316/316/316 338/338/338
f 317/317/317 303/303/303 316/316/316
f 338/338/338 316/316/316 271/271/271
f 303/303/303 302/302/302 316/316/316
f 316/316/316 302/302/302 271/271/271
f 303/303/303 272/272/272 302/302/302
f 272/272/272 271/271/271 302/302/302
f 272/272/272 252/252/252 271/271/271
f 252/252/252 251/251/251 271/271/271
f 271/271/271 251/251/251 227/227/227
f 252/252/252 229/229/229 251/251/251
f 251/251/251 226/226/226 227/227/227
f 229/229/229 226/226/226 251/251/251
f 228/228/228 227/227/227 226/226/226
f 229/229/229 228/228/228 226/226/226
f 221/221/221 220/220/220 219/219/219
f 222/222/222 221/221/221 219/219/219
f 219/219/219 220/220/220 235/235/235
f 223/223/223 221/221/221 222/222/222
f 224/224/224 223/223/223 222/222/222
f 220/220/220 236/236/236 235/235/235
f 235/235/235 236/236/236 247/247/247
f 237/237/237 223/223/223 224/224/224
f 238/238/238 237/237/237 224/224/224
f 236/236/236 248/248/248 247/247/247
f 247/247/247 248/248/248 269/269/269
f 253/253/253 237/237/237 238/238/238
f 254/254/254 253/253/253 238/238/238
f 248/248/248 270/270/270 269/269/269
f 269/269/269 270/270/270 306/306/306
f 275/275/275 253/253/253 254/254/254
f 276/276/276 275/275/275 254/254/254
f 313/313/313 237/237/237 253/253/253
f 310/310/310 275/275/275 276/276/276
f 311/311/311 310/310/310 276/276/276
f 319/319/319 253/253/253 275/275/275
f 319/319/319 313/313/313 253/253/253
f 344/344/344 275/275/275 310/310/310
f 344/344/344 319/319/319 275/275/275
f 313/313/313 319/319/319 392/392/392
f 392/392/392 319/319/319 344/344/344
f 378/378/378 313/313/313 392/392/392
f 420/420/420 392/392/392 344/344/344
f 420/420/420 344/344/344 461/461/461
f 301/301/301 313/313/313 378/378/378
f 313/313/313 301/301/301 237/237/237
f 301/301/301 223/223/223 237/237/237
f 368/368/368 301/301/301 378/378/378
f 344/344/344 370/370/370 461/461/461
f 370/370/370 344/344/344 310/310/310
f 461/461/461 370/370/370 493/493/493
f 300/300/300 301/301/301 368/368/368
f 301/301/301 300/300/300 223/223/223
f 367/367/367 300/300/300 368/368/368
f 300/300/300 221/221/221 223/223/223
f 367/367/367 366/366/366 300/300/300
f 300/300/300 299/299/299 221/221/221
f 366/366/366 299/299/299 300/300/300
f 299/299/299 220/220/220 221/221/221
f 312/312/312 299/299/299 366/366/366
f 299/299/299 312/312/312 220/220/220
f 312/312/312 236/236/236 220/220/220
f 375/375/375 312/312/312 366/366/366
f 312/312/312 318/318/318 236/236/236
f 318/318/318 312/312/312 375/375/375
f 318/318/318 248/248/248 236/236/236
f 391/391/391 318/318/318 375/375/375
f 391/391/391 419/419/419 318/318/318
f 318/318/318 343/343/343 248/248/248
f 419/419/419 343/343/343 318/318/318
f 343/343/343 270/270/270 248/248/248
f 369/369/369 343/343/343 419/419/419
f 343/343/343 369/369/369 270/270/270
f 460/460/460 369/369/369 419/419/419
f 369/369/369 307/307/307 270/270/270
f 270/270/270 307/307/307 306/306/306
f 396/396/396 369/369/369 460/460/460
f 369/369/369 396/396/396 307/307/307
f 486/486/486 396/396/396 460/460/460
f 307/307/307 342/342/342 306/306/306
f 396/396/396 342/342/342 307/307/307
f 396/396/396 486/486/486 342/342/342
f 306/306/306 342/342/342 340/340/340
f 486/486/486 500/500/500 342/342/342
f 342/342/342 341/341/341 340/340/340
f 340/340/340 341/341/341 358/358/358
f 342/342/342 500/500/500 448/448/448
f 341/341/341 342/342/342 448/448/448
f 500/500/500 502/502/502 448/448/448
f 341/341/341 359/359/359 358/358/358
f 359/359/359 341/341/341 448/448/448
f 358/358/358 359/359/359 405/405/405
f 453/453/453 448/448/448 502/502/502
f 516/516/516 453/453/453 502/502/502
f 359/359/359 406/406/406 405/405/405
f 406/406/406 359/359/359 448/448/448
f 438/438/438 405/405/405 406/406/406
f 453/453/453 516/516/516 452/452/452
f 453/453/453 452/452/452 448/448/448
f 516/516/516 536/536/536 452/452/452
f 520/520/520 438/438/438 406/406/406
f 452/452/452 536/536/536 451/451/451
f 452/452/452 451/451/451 448/448/448
f 536/536/536 577/577/577 451/451/451
f 451/451/451 577/577/577 450/450/450
f 451/451/451 450/450/450 448/448/448
f 577/577/577 613/613/613 450/450/450
f 450/450/450 449/449/449 448/448/448
f 450/450/450 613/613/613 449/449/449
f 449/449/449 406/406/406 448/448/448
f 613/613/613 631/631/631 449/449/449
f 406/406/406 449/449/449 631/631/631
f 635/635/635 406/406/406 631/631/631
f 521/521/521 406/406/406 635/635/635
f 521/521/521 520/520/520 406/406/406
f 647/647/647 521/521/521 635/635/635
f 520/520/520 521/521/521 647/647/647
f 658/658/658 520/520/520 647/647/647
f 370/370/370 402/402/402 493/493/493
f 493/493/493 402/402/402 501/501/501
f 402/402/402 370/370/370 345/345/345
f 402/402/402 345/345/345 501/501/501
f 370/370/370 310/310/310 345/345/345
f 501/501/501 345/345/345 508/508/508
f 310/310/310 311/311/311 345/345/345
f 345/345/345 455/455/455 508/508/508
f 519/519/519 508/508/508 455/455/455
f 346/346/346 345/345/345 311/311/311
f 347/347/347 346/346/346 311/311/311
f 456/456/456 519/519/519 455/455/455
f 537/537/537 519/519/519 456/456/456
f 362/362/362 346/346/346 347/347/347
f 363/363/363 362/362/362 347/347/347
f 457/457/457 537/537/537 456/456/456
f 582/582/582 537/537/537 457/457/457
f 456/456/456 455/455/455 454/454/454
f 455/455/455 345/345/345 454/454/454
f 457/457/457 456/456/456 454/454/454
f 345/345/345 346/346/346 454/454/454
f 346/346/346 362/362/362 454/454/454
f 458/458/458 582/582/582 457/457/457
f 458/458/458 457/457/457 454/454/454
f 614/614/614 582/582/582 458/458/458
f 459/459/459 614/614/614 458/458/458
f 459/459/459 458/458/458 454/454/454
f 614/614/614 459/459/459 634/634/634
f 459/459/459 454/454/454 634/634/634
f 643/643/643 634/634/634 454/454/454
f 362/362/362 407/407/407 454/454/454
f 407/407/407 643/643/643 454/454/454
f 407/407/407 362/362/362 363/363/363
f 408/408/408 407/407/407 363/363/363
f 649/649/649 643/643/643 407/407/407
f 447/447/447 407/407/407 408/408/408
f 524/524/524 649/649/649 407/407/407
f 524/524/524 407/407/407 447/447/447
f 649/649/649 524/524/524 659/659/659
f 525/525/525 524/524/524 447/447/447
f 524/524/524 525/525/525 659/659/659
f 383/383/383 382/382/382 381/381/381
f 382/382/382 383/383/383 385/385/385
f 384/384/384 383/383/383 381/381/381
f 383/383/383 386/386/386 385/385/385
f 385/385/385 386/386/386 389/389/389
f 383/383/383 384/384/384 425/425/425
f 383/383/383 425/425/425 427/427/427
f 386/386/386 383/383/383 427/427/427
f 384/384/384 426/426/426 425/425/425
f 386/386/386 427/427/427 444/444/444
f 384/384/384 387/387/387 426/426/426
f 387/387/387 384/384/384 381/381/381
f 387/387/387 439/439/439 426/426/426
f 388/388/388 387/387/387 381/381/381
f 390/390/390 386/386/386 444/444/444
f 386/386/386 390/390/390 389/389/389
f 390/390/390 444/444/444 467/467/467
f 389/389/389 390/390/390 415/415/415
f 416/416/416 390/390/390 467/467/467
f 390/390/390 416/416/416 415/415/415
f 416/416/416 467/467/467 511/511/511
f 416/416/416 443/443/443 415/415/415
f 443/443/443 416/416/416 511/511/511
f 443/443/443 442/442/442 415/415/415
f 443/443/443 511/511/511 563/563/563
f 442/442/442 443/443/443 491/491/491
f 492/492/492 443/443/443 563/563/563
f 443/443/443 492/492/492 491/491/491
f 563/563/563 627/627/627 492/492/492
f 546/546/546 491/491/491 492/492/492
f 627/627/627 547/547/547 492/492/492
f 547/547/547 546/546/546 492/492/492
f 627/627/627 646/646/646 547/547/547
f 594/594/594 546/546/546 547/547/547
f 646/646/646 595/595/595 547/547/547
f 595/595/595 594/594/594 547/547/547
f 646/646/646 648/648/648 595/595/595
f 596/596/596 594/594/594 595/595/595
f 648/648/648 597/597/597 595/595/595
f 597/597/597 596/596/596 595/595/595
f 648/648/648 657/657/657 597/597/597
f 607/607/607 596/596/596 597/597/597
f 657/657/657 608/608/608 597/597/597
f 608/608/608 607/607/607 597/597/597
f 657/657/657 673/673/673 608/608/608
f 619/619/619 607/607/607 608/608/608
f 673/673/673 620/620/620 608/608/608
f 620/620/620 619/619/619 608/608/608
f 673/673/673 686/686/686 620/620/620
f 619/619/619 620/620/620 632/632/632
f 686/686/686 632/632/632 620/620/620
f 633/633/633 619/619/619 632/632/632
f 632/632/632 686/686/686 692/692/692
f 653/653/653 633/633/633 632/632/632
f 654/654/654 632/632/632 692/692/692
f 654/654/654 653/653/653 632/632/632
f 654/654/654 692/692/692 695/695/695
f 662/662/662 653/653/653 654/654/654
f 663/663/663 654/654/654 695/695/695
f 663/663/663 662/662/662 654/654/654
f 663/663/663 695/695/695 700/700/700
f 662/662/662 663/663/663 671/671/671
f 671/671/671 663/663/663 700/700/700
f 668/668/668 662/662/662 671/671/671
f 671/671/671 700/700/700 709/709/709
f 671/671/671 670/670/670 668/668/668
f 670/670/670 671/671/671 709/709/709
f 670/670/670 669/669/669 668/668/668
f 670/670/670 709/709/709 723/723/723
f 670/670/670 688/688/688 669/669/669
f 688/688/688 670/670/670 723/723/723
f 688/688/688 687/687/687 669/669/669
f 723/723/723 743/743/743 688/688/688
f 687/687/687 688/688/688 713/713/713
f 743/743/743 714/714/714 688/688/688
f 688/688/688 714/714/714 713/713/713
f 743/743/743 756/756/756 714/714/714
f 714/714/714 741/741/741 713/713/713
f 756/756/756 741/741/741 714/714/714
f 741/741/741 740/740/740 713/713/713
f 756/756/756 767/767/767 741/741/741
f 740/740/740 741/741/741 750/750/750
f 767/767/767 751/751/751 741/741/741
f 741/741/741 751/751/751 750/750/750
f 767/767/767 769/769/769 751/751/751
f 750/750/750 751/751/751 761/761/761
f 769/769/769 762/762/762 751/751/751
f 751/751/751 762/762/762 761/761/761
f 769/769/769 770/770/770 762/762/762
f 762/762/762 764/764/764 761/761/761
f 770/770/770 764/764/764 762/762/762
f 764/764/764 765/765/765 761/761/761
f 770/770/770 768/768/768 764/764/764
f 765/765/765 764/764/764 760/760/760
f 768/768/768 759/759/759 764/764/764
f 764/764/764 759/759/759 760/760/760
f 768/768/768 766/766/766 759/759/759
f 760/760/760 759/759/759 749/749/749
f 766/766/766 748/748/748 759/759/759
f 759/759/759 748/748/748 749/749/749
f 766/766/766 752/752/752 748/748/748
f 749/749/749 748/748/748 738/738/738
f 752/752/752 739/739/739 748/748/748
f 748/748/748 739/739/739 738/738/738
f 752/752/752 742/742/742 739/739/739
f 739/739/739 711/711/711 738/738/738
f 742/742/742 711/711/711 739/739/739
f 711/711/711 712/712/712 738/738/738
f 742/742/742 719/719/719 711/711/711
f 712/712/712 711/711/711 685/685/685
f 719/719/719 684/684/684 711/711/711
f 711/711/711 684/684/684 685/685/685
f 684/684/684 719/719/719 701/701/701
f 665/665/665 685/685/685 684/684/684
f 664/664/664 684/684/684 701/701/701
f 664/664/664 665/665/665 684/684/684
f 664/664/664 701/701/701 696/696/696
f 666/666/666 665/665/665 664/664/664
f 667/667/667 664/664/664 696/696/696
f 667/667/667 666/666/666 664/664/664
f 667/667/667 696/696/696 694/694/694
f 661/661/661 666/666/666 667/667/667
f 660/660/660 667/667/667 694/694/694
f 660/660/660 661/661/661 667/667/667
f 660/660/660 694/694/694 691/691/691
f 651/651/651 661/661/661 660/660/660
f 650/650/650 660/660/660 691/691/691
f 650/650/650 651/651/651 660/660/660
f 650/650/650 691/691/691 676/676/676
f 630/630/630 651/651/651 650/650/650
f 629/629/629 650/650/650 676/676/676
f 629/629/629 630/630/630 650/650/650
f 629/629/629 676/676/676 672/672/672
f 630/630/630 629/629/629 615/615/615
f 615/615/615 629/629/629 672/672/672
f 616/616/616 630/630/630 615/615/615
f 672/672/672 655/655/655 615/615/615
f 604/604/604 616/616/616 615/615/615
f 655/655/655 603/603/603 615/615/615
f 603/603/603 604/604/604 615/615/615
f 655/655/655 644/644/644 603/603/603
f 593/593/593 604/604/604 603/603/603
f 644/644/644 592/592/592 603/603/603
f 592/592/592 593/593/593 603/603/603
f 644/644/644 636/636/636 592/592/592
f 593/593/593 592/592/592 590/590/590
f 636/636/636 590/590/590 592/592/592
f 589/589/589 593/593/593 590/590/590
f 636/636/636 621/621/621 590/590/590
f 590/590/590 541/541/541 589/589/589
f 621/621/621 541/541/541 590/590/590
f 541/541/541 540/540/540 589/589/589
f 621/621/621 556/556/556 541/541/541
f 541/541/541 487/487/487 540/540/540
f 556/556/556 487/487/487 541/541/541
f 487/487/487 488/488/488 540/540/540
f 487/487/487 556/556/556 503/503/503
f 488/488/488 487/487/487 434/434/434
f 435/435/435 487/487/487 503/503/503
f 487/487/487 435/435/435 434/434/434
f 435/435/435 503/503/503 466/466/466
f 435/435/435 413/413/413 434/434/434
f 413/413/413 435/435/435 466/466/466
f 413/413/413 414/414/414 434/434/434
f 413/413/413 466/466/466 439/439/439
f 414/414/414 413/413/413 388/388/388
f 387/387/387 413/413/413 439/439/439
f 413/413/413 387/387/387 388/388/388
f 482/482/482 481/481/481 480/480/480
f 484/484/484 481/481/481 482/482/482
f 483/483/483 482/482/482 480/480/480
f 483/483/483 480/480/480 494/494/494
f 485/485/485 484/484/484 482/482/482
f 495/495/495 483/483/483 494/494/494
f 485/485/485 497/497/497 484/484/484
f 497/497/497 496/496/496 484/484/484
f 495/495/495 494/494/494 504/504/504
f 494/494/494 505/505/505 504/504/504
f 528/528/528 504/504/504 505/505/505
f 497/497/497 510/510/510 496/496/496
f 510/510/510 509/509/509 496/496/496
f 510/510/510 529/529/529 509/509/509
f 580/580/580 510/510/510 497/497/497
f 581/581/581 529/529/529 510/510/510
f 580/580/580 581/581/581 510/510/510
f 581/581/581 586/586/586 529/529/529
f 626/626/626 586/586/586 623/623/623
f 623/623/623 586/586/586 581/581/581
f 624/624/624 623/623/623 581/581/581
f 624/624/624 581/581/581 628/628/628
f 581/581/581 580/580/580 628/628/628
f 579/579/579 580/580/580 497/497/497
f 580/580/580 579/579/579 628/628/628
f 579/579/579 497/497/497 485/485/485
f 579/579/579 642/642/642 628/628/628
f 642/642/642 645/645/645 628/628/628
f 576/576/576 579/579/579 485/485/485
f 579/579/579 576/576/576 642/642/642
f 576/576/576 485/485/485 482/482/482
f 683/683/683 645/645/645 642/642/642
f 575/575/575 576/576/576 482/482/482
f 575/575/575 482/482/482 483/483/483
f 576/576/576 640/640/640 642/642/642
f 576/576/576 575/575/575 640/640/640
f 682/682/682 683/683/683 642/642/642
f 682/682/682 642/642/642 640/640/640
f 572/572/572 575/575/575 483/483/483
f 572/572/572 483/483/483 495/495/495
f 575/575/575 639/639/639 640/640/640
f 575/575/575 572/572/572 639/639/639
f 681/681/681 682/682/682 640/640/640
f 681/681/681 640/640/640 639/639/639
f 569/569/569 572/572/572 495/495/495
f 569/569/569 495/495/495 504/504/504
f 572/572/572 637/637/637 639/639/639
f 572/572/572 569/569/569 637/637/637
f 680/680/680 681/681/681 639/639/639
f 680/680/680 639/639/639 637/637/637
f 567/567/567 569/569/569 504/504/504
f 567/567/567 504/504/504 528/528/528
f 569/569/569 638/638/638 637/637/637
f 569/569/569 567/567/567 638/638/638
f 679/679/679 680/680/680 637/637/637
f 679/679/679 637/637/637 638/638/638
f 568/568/568 567/567/567 528/528/528
f 583/583/583 568/568/568 528/528/528
f 583/583/583 622/622/622 617/617/617
f 568/568/568 583/583/583 617/617/617
f 618/618/618 568/568/568 617/617/617
f 567/567/567 568/568/568 618/618/618
f 625/625/625 567/567/567 618/618/618
f 567/567/567 625/625/625 638/638/638
f 625/625/625 641/641/641 638/638/638
f 677/677/677 638/638/638 641/641/641
f 677/677/677 679/679/679 638/638/638
f 678/678/678 677/677/677 641/641/641
f 677/677/677 697/697/697 679/679/679
f 697/697/697 677/677/677 678/678/678
f 679/679/679 703/703/703 680/680/680
f 697/697/697 703/703/703 679/679/679
f 680/680/680 707/707/707 681/681/681
f 703/703/703 707/707/707 680/680/680
f 698/698/698 697/697/697 678/678/678
f 699/699/699 698/698/698 678/678/678
f 699/699/699 716/716/716 698/698/698
f 697/697/697 732/732/732 703/703/703
f 716/716/716 715/715/715 698/698/698
f 715/715/715 716/716/716 720/720/720
f 698/698/698 731/731/731 697/697/697
f 731/731/731 698/698/698 715/715/715
f 731/731/731 732/732/732 697/697/697
f 721/721/721 715/715/715 720/720/720
f 722/722/722 721/721/721 720/720/720
f 721/721/721 727/727/727 715/715/715
f 727/727/727 731/731/731 715/715/715
f 727/727/727 746/746/746 731/731/731
f 746/746/746 753/753/753 731/731/731
f 753/753/753 732/732/732 731/731/731
f 732/732/732 733/733/733 703/703/703
f 732/732/732 753/753/753 733/733/733
f 703/703/703 733/733/733 707/707/707
f 753/753/753 757/757/757 733/733/733
f 733/733/733 757/757/757 734/734/734
f 733/733/733 734/734/734 707/707/707
f 757/757/757 763/763/763 734/734/734
f 707/707/707 708/708/708 681/681/681
f 707/707/707 734/734/734 708/708/708
f 681/681/681 708/708/708 682/682/682
f 734/734/734 763/763/763 735/735/735
f 734/734/734 735/735/735 708/708/708
f 763/763/763 758/758/758 735/735/735
f 708/708/708 706/706/706 682/682/682
f 708/708/708 735/735/735 706/706/706
f 682/682/682 706/706/706 683/683/683
f 735/735/735 758/758/758 736/736/736
f 735/735/735 736/736/736 706/706/706
f 758/758/758 755/755/755 736/736/736
f 706/706/706 705/705/705 683/683/683
f 706/706/706 736/736/736 705/705/705
f 705/705/705 704/704/704 683/683/683
f 704/704/704 705/705/705 717/717/717
f 736/736/736 755/755/755 737/737/737
f 736/736/736 737/737/737 705/705/705
f 755/755/755 747/747/747 737/737/737
f 737/737/737 747/747/747 728/728/728
f 705/705/705 718/718/718 717/717/717
f 705/705/705 737/737/737 718/718/718
f 737/737/737 728/728/728 718/718/718
f 717/717/717 718/718/718 724/724/724
f 718/718/718 728/728/728 726/726/726
f 718/718/718 726/726/726 724/724/724
f 726/726/726 725/725/725 724/724/724
