# VPXTOOL table OBJ file
# VPXTOOL OBJ file
# numVerts: 587 numFaces: 936
o bumperdisk2
v -0.015045 -38.9758 -11.918003
v -0.015045 -38.965546 -7.085745
v -4.018219 -37.892303 -7.085746
v -4.018219 -37.892303 -11.918003
v 3.998744 24.02237 -11.918017
v 3.998744 24.022371 -7.085764
v -0.00504 22.95035 -7.085764
v -0.00504 22.950348 -11.918017
v 14.291532 -4.031766 -11.918009
v 9.159451 -5.405851 -11.918008
v 9.159451 -5.40585 -7.085758
v 14.291532 -4.031765 -7.085759
v 7.500636 35.85965 -11.918017
v 8.839624 31.829132 -11.918016
v 14.69552 36.67917 -11.918018
v 9.821497 38.33438 -11.918018
v 34.365936 -44.81027 -9.060846
v 25.173004 -32.82669 -11.662861
v 20.672882 -35.832245 -11.662852
v 28.222933 -48.91293 -9.060844
v 23.179167 -9.164577 -11.918007
v 23.17935 -9.164577 -7.085757
v 24.553558 -14.296229 -7.085753
v 24.553558 -14.29623 -11.918007
v 5.402189 -9.161772 -11.918007
v 5.402067 -9.16171 -7.085757
v 23.177643 -19.427456 -7.085752
v 23.17752 -19.427458 -11.918005
v 5.400542 -19.424591 -11.918007
v 9.156585 -23.18155 -11.918006
v 9.156585 -23.181547 -7.085752
v 5.40042 -19.424528 -7.085754
v -24.283234 -20.254427 -11.918005
v -26.031464 -14.595306 -11.918005
v -36.11838 -15.357827 -11.918009
v -33.733738 -20.194796 -11.918007
v 44.804283 34.371193 -9.060872
v 32.81979 25.178988 -11.662878
v 35.825832 20.678988 -11.662874
v 48.907738 28.228306 -9.060868
v 19.423124 -5.407558 -7.085758
v 19.423124 -5.407559 -11.918008
v -3.974763 -14.482634 -11.918007
v -5.350739 -19.6138 -11.918007
v -4.899995 -21.10379 -11.918007
v -2.914461 -14.457548 -11.918005
v 4.026152 -14.292936 -11.918005
v 4.026152 -14.292935 -7.085755
v 14.288177 -24.557463 -11.918004
v 14.288177 -24.55746 -7.08575
v 7.35367 -55.992706 -9.060844
v 5.384736 -41.018585 -11.66286
v -0.01535 -41.371735 -11.662864
v -0.017729 -56.474762 -9.060844
v -4.008458 24.023712 -11.918017
v -4.008458 24.023714 -7.085764
v -6.938817 26.954683 -7.085763
v -6.938756 26.954742 -11.918016
v -6.948333 -34.961456 -11.918002
v -6.948394 -34.961456 -7.085749
v 7.99295 -30.960846 -11.918005
v 7.99295 -30.960844 -7.085748
v 6.919648 -34.963715 -7.085747
v 6.919526 -34.963715 -11.918004
v -6.947052 -26.955414 -11.918005
v -6.947114 -26.955473 -7.085752
v -4.015961 -24.02542 -7.085752
v -4.015961 -24.025421 -11.918006
v -8.010961 30.958162 -7.085764
v -8.010961 30.95816 -11.918018
v -6.937475 34.961273 -11.918019
v -6.937536 34.96121 -7.085766
v -4.006261 37.891445 -7.085767
v -4.006261 37.89145 -11.91802
v 6.920806 -26.957672 -11.918007
v 6.920928 -26.95767 -7.08575
v 6.929958 26.952423 -11.918018
v 6.93008 26.952486 -7.085765
v 8.003444 30.955597 -11.918016
v 6.931239 34.958954 -11.918017
v 6.931361 34.95901 -7.085768
v 8.003444 30.955599 -7.085766
v -8.020478 -30.958221 -11.918003
v -8.020478 -30.95822 -7.08575
v 4.001002 37.890106 -11.91802
v 4.001002 37.890102 -7.085767
v -0.012483 -22.953522 -11.918006
v -0.012483 -22.95352 -7.085752
v 3.990752 -24.026762 -7.085752
v 3.990752 -24.026764 -11.918006
v -0.002477 38.974213 -11.91802
v -0.002477 38.963467 -7.085767
v 3.988495 -37.893585 -7.085746
v 3.988495 -37.893585 -11.918003
v 19.420258 -23.183256 -11.918004
v 19.420258 -23.183254 -7.085751
v -14.236728 -4.21817 -11.918011
v -19.368807 -5.592255 -11.918008
v -19.368807 -5.592253 -7.085758
v -14.236728 -4.218168 -7.085757
v -5.349092 -9.351042 -11.918009
v -5.34897 -9.35098 -7.085755
v -3.974763 -14.482633 -7.085753
v -23.12607 -9.348175 -11.918007
v -23.126192 -9.348113 -7.085757
v -5.350617 -19.61386 -7.085754
v -23.127777 -19.610933 -11.918005
v -19.371735 -23.367952 -11.918004
v -19.371735 -23.36795 -7.085751
v -23.1279 -19.610931 -7.085752
v -9.105136 -5.593961 -7.085756
v -9.105136 -5.593963 -11.91801
v -24.502106 -14.47934 -11.918007
v -24.502106 -14.479339 -7.085753
v -14.240083 -24.743868 -11.918004
v -14.240083 -24.743866 -7.08575
v -9.108003 -23.36966 -11.918006
v -9.108003 -23.369658 -7.085752
v -14.232091 24.574915 -11.918015
v -19.36417 23.200891 -11.918015
v -19.36417 23.200832 -7.085762
v -14.232091 24.574917 -7.085763
v -5.344456 19.44217 -11.918016
v -5.344334 19.44211 -7.085763
v -3.970066 14.310519 -7.085761
v -3.970066 14.310518 -11.918015
v -23.121433 19.445032 -11.918015
v -23.121555 19.445034 -7.085761
v -5.345981 9.179294 -7.085759
v -5.346103 9.179293 -11.918013
v -23.12308 9.18222 -11.918013
v -19.367037 5.42514 -11.918012
v -19.367037 5.425142 -7.085758
v -23.123201 9.18216 -7.085759
v -9.100499 23.19919 -7.085764
v -9.100499 23.19925 -11.918017
v -24.49741 14.313808 -11.918013
v -24.49741 14.313809 -7.085759
v -14.235446 4.049286 -11.918011
v -14.235446 4.049288 -7.085758
v -9.103366 5.423493 -11.918012
v -9.103366 5.423495 -7.085758
v 13.919154 24.570406 -11.918015
v 8.787074 23.19638 -11.918017
v 8.787074 23.196321 -7.085764
v 13.919154 24.570408 -7.085763
v 22.80685 19.437532 -11.918018
v 22.806973 19.437595 -7.085761
v 24.18118 14.305943 -7.085759
v 24.18118 14.305943 -11.918016
v 5.029873 19.4404 -11.918016
v 5.02969 19.440462 -7.085763
v 22.805326 9.174718 -7.085759
v 22.805143 9.174778 -11.918013
v 5.028165 9.177645 -11.918015
v 8.784207 5.420626 -11.918014
v 8.784207 5.420627 -7.085756
v 5.028043 9.177646 -7.085757
v 19.050808 23.194614 -7.085762
v 19.050808 23.194674 -11.918015
v 3.653835 14.309237 -11.918016
v 3.653835 14.309237 -7.085759
v 13.91586 4.044772 -11.918013
v 13.91586 4.044773 -7.085756
v 19.047941 5.418979 -11.918012
v 19.047941 5.41898 -7.085758
v -25.338535 14.788357 -11.918013
v -23.954012 8.983734 -11.918015
v -23.691074 19.879908 -11.918015
v 8.818448 4.433016 -11.918014
v 4.079679 9.137362 -11.918015
v 5.379606 -8.053679 -11.918007
v 9.127469 -4.48245 -11.918008
v -9.104953 -4.258636 -11.918011
v -14.236606 -3.332733 -11.918009
v -19.663424 4.691803 -11.918012
v -4.265534 -23.200653 -11.918006
v -7.469513 -26.08847 -11.918005
v 19.082487 4.420932 -11.918012
v 13.947232 3.369234 -11.918013
v 14.25192 -3.180692 -11.918009
v 19.379484 -4.14755 -11.918009
v -20.787079 -24.165926 -11.918004
v -14.394868 -26.321993 -11.918005
v -15.234955 -36.308685 -11.918002
v -8.975556 -30.263641 -11.918004
v 25.319244 -14.731838 -11.918007
v 24.109772 -20.005033 -11.918005
v 25.319244 -14.731899 -11.918007
v 0.086757 22.038788 -11.918017
v 4.155605 23.325226 -11.918017
v 7.291164 26.221832 -11.918018
v -19.713718 23.759424 -11.918015
v -24.096592 31.204432 -11.918016
v -28.084446 27.708582 -11.918015
v 7.521392 -25.94339 -11.918003
v 4.302459 -23.009125 -11.918006
v 0.044463 -21.922455 -11.918007
v 0.00039 56.473236 -9.060881
v -0.00205 41.37021 -11.66289
v 5.39828 41.01541 -11.662887
v 7.372216 55.988922 -9.060879
v -7.371619 55.99124 -9.060881
v -5.402563 41.01706 -11.662894
v 19.61813 24.062471 -11.918015
v 13.435267 25.261873 -11.918018
v 31.126678 -24.067778 -11.918006
v 19.907196 -23.971159 -11.918004
v 27.617035 -28.068205 -11.918004
v 52.167202 -21.620937 -9.060852
v 38.21359 -15.839016 -11.662868
v 35.81918 -20.692106 -11.662872
v 48.89859 -28.245693 -9.060851
v 23.72946 9.271763 -11.918013
v 4.591704 -19.556427 -11.918007
v 9.651153 -24.30539 -11.918004
v 44.804283 34.37125 -7.085765
v 39.934105 39.925938 -7.085763
v 39.934105 39.92594 -9.060874
v -7.390104 -55.990204 -7.085744
v -0.018278 -56.47458 -7.085745
v -7.389616 -55.990448 -9.060843
v -21.613745 52.177887 -7.08577
v -28.240149 48.911762 -7.085766
v -28.240149 48.91177 -9.060877
v -21.613745 52.177887 -9.06088
v -44.821808 -34.372723 -7.085751
v -39.95157 -39.92747 -7.085749
v -39.95163 -39.927464 -9.060847
v -44.821808 -34.372715 -9.060849
v -52.184666 21.619345 -7.085763
v -54.56052 14.624534 -7.085761
v -54.56052 14.624534 -9.060867
v -52.184666 21.619343 -9.060869
v 21.596163 -52.179535 -7.085747
v 28.222506 -48.913296 -7.085746
v 21.596529 -52.179108 -9.060842
v 7.372216 55.988922 -7.085769
v 0.00039 56.473236 -7.085771
v 55.98782 7.361488 -7.085757
v 54.547695 14.606971 -7.085759
v 54.547756 14.606971 -9.060865
v 55.98788 7.361487 -9.060863
v -44.810646 34.3857 -7.085769
v -48.916115 28.244162 -7.085767
v -48.916115 28.24416 -9.06087
v -44.810707 34.385708 -9.060872
v -7.371619 55.99124 -7.085771
v -14.617652 54.551292 -7.08577
v -14.617652 54.5513 -9.060881
v 44.79312 -34.387173 -7.085747
v 48.89859 -28.245752 -7.085749
v 44.793182 -34.387173 -9.060849
v 21.613062 52.17093 -7.08577
v 14.617761 54.5466 -7.085768
v 14.617761 54.5466 -9.060879
v 21.613123 52.17093 -9.060876
v 7.354525 -55.992584 -7.085746
v 14.600495 -54.55258 -7.085746
v 14.599702 -54.552765 -9.060844
v 52.16714 -21.620935 -7.085753
v 54.542995 -14.626184 -7.085755
v 54.542995 -14.626184 -9.060854
v -34.39798 -44.799053 -7.085743
v -28.255949 -48.904156 -7.085748
v -28.255949 -48.90415 -9.060846
v -34.39798 -44.799107 -9.060846
v -21.63046 -52.172516 -7.085747
v -14.635161 -54.548126 -7.085744
v -14.635283 -54.548126 -9.060843
v -21.630644 -52.172394 -9.060845
v -56.002964 7.379538 -7.085759
v -56.48734 0.008322 -7.085756
v -56.4874 0.008322 -9.060863
v -56.002964 7.379538 -9.060865
v -56.005344 -7.363138 -7.08576
v -54.56522 -14.60856 -7.085757
v -54.56528 -14.60856 -9.060856
v -56.005344 -7.363138 -9.060858
v 34.365997 -44.810146 -7.085743
v 39.921234 -39.940395 -7.085745
v 39.921112 -39.940517 -9.060847
v -34.383522 44.808613 -7.085765
v -39.938698 39.93886 -7.085763
v -39.938698 39.93887 -9.060874
v -34.38346 44.808613 -9.060875
v 52.17416 21.602514 -7.085763
v 48.907738 28.228308 -7.085765
v 52.17416 21.602512 -9.060865
v -52.191685 -21.604105 -7.085753
v -48.9252 -28.229898 -7.085751
v -48.9252 -28.2299 -9.060853
v -52.191685 -21.604107 -9.060856
v 34.380455 44.79752 -7.085765
v 28.238428 48.902683 -7.085768
v 28.238428 48.90263 -9.060875
v 34.380455 44.797523 -9.060875
v 55.98544 -7.381188 -7.085754
v 56.469814 -0.009911 -7.085752
v 56.469875 -0.009912 -9.060859
v 55.98544 -7.381188 -9.060856
v 8.003444 30.955599 -7.085766
v 13.919154 24.570408 -7.085763
v 8.787074 23.196321 -7.085764
v 6.93008 26.952486 -7.085765
v 5.02969 19.440462 -7.085763
v 3.998744 24.022371 -7.085764
v -4.008458 24.023714 -7.085764
v -5.344334 19.44211 -7.085763
v -9.100499 23.19919 -7.085764
v -6.938817 26.954683 -7.085763
v -8.010961 30.958162 -7.085764
v -14.232091 24.574917 -7.085763
v -0.00504 22.95035 -7.085764
v 3.653835 14.309237 -7.085759
v -3.970066 14.310519 -7.085761
v 5.028043 9.177646 -7.085757
v -5.345981 9.179294 -7.085759
v 5.402067 -9.16171 -7.085757
v 8.784207 5.420627 -7.085756
v 9.159451 -5.40585 -7.085758
v 13.91586 4.044773 -7.085756
v 14.291532 -4.031765 -7.085759
v 19.047941 5.41898 -7.085758
v 19.423124 -5.407558 -7.085758
v -9.103366 5.423495 -7.085758
v -5.34897 -9.35098 -7.085755
v -9.105136 -5.593961 -7.085756
v -14.235446 4.049288 -7.085758
v -14.236728 -4.218168 -7.085757
v -19.367037 5.425142 -7.085758
v -19.368807 -5.592253 -7.085758
v -3.974763 -14.482633 -7.085753
v 4.026152 -14.292935 -7.085755
v -5.350617 -19.61386 -7.085754
v 5.40042 -19.424528 -7.085754
v 3.990752 -24.026762 -7.085752
v 9.156585 -23.181547 -7.085752
v 6.920928 -26.95767 -7.08575
v -4.015961 -24.02542 -7.085752
v -0.012483 -22.95352 -7.085752
v 7.99295 -30.960844 -7.085748
v 14.288177 -24.55746 -7.08575
v -9.108003 -23.369658 -7.085752
v -6.947114 -26.955473 -7.085752
v -14.240083 -24.743866 -7.08575
v -8.020478 -30.95822 -7.08575
v -23.126192 -9.348113 -7.085757
v -23.123201 9.18216 -7.085759
v 22.805326 9.174718 -7.085759
v 23.17935 -9.164577 -7.085757
v 19.050808 23.194614 -7.085762
v 6.931361 34.95901 -7.085768
v -19.36417 23.200832 -7.085762
v -6.937536 34.96121 -7.085766
v -19.371735 -23.36795 -7.085751
v -6.948394 -34.961456 -7.085749
v 19.420258 -23.183254 -7.085751
v 6.919648 -34.963715 -7.085747
v -0.015045 -38.965546 -7.085745
v -0.018278 -56.47458 -7.085745
v -7.390104 -55.990204 -7.085744
v -14.635161 -54.548126 -7.085744
v -4.018219 -37.892303 -7.085746
v 14.600495 -54.55258 -7.085746
v 7.354525 -55.992584 -7.085746
v 3.988495 -37.893585 -7.085746
v 34.365997 -44.810146 -7.085743
v 28.222506 -48.913296 -7.085746
v 39.921234 -39.940395 -7.085745
v 21.596163 -52.179535 -7.085747
v -21.63046 -52.172516 -7.085747
v -28.255949 -48.904156 -7.085748
v -34.39798 -44.799053 -7.085743
v -39.95157 -39.92747 -7.085749
v -44.821808 -34.372723 -7.085751
v -48.9252 -28.229898 -7.085751
v -24.502106 -14.479339 -7.085753
v -23.1279 -19.610931 -7.085752
v -52.191685 -21.604105 -7.085753
v -54.56522 -14.60856 -7.085757
v -56.002964 7.379538 -7.085759
v -54.56052 14.624534 -7.085761
v -56.005344 -7.363138 -7.08576
v -52.184666 21.619345 -7.085763
v -48.916115 28.244162 -7.085767
v -24.49741 14.313809 -7.085759
v -44.810646 34.3857 -7.085769
v -39.938698 39.93886 -7.085763
v -23.121555 19.445034 -7.085761
v -34.383522 44.808613 -7.085765
v -28.240149 48.911762 -7.085766
v -21.613745 52.177887 -7.08577
v -14.617652 54.551292 -7.08577
v -7.371619 55.99124 -7.085771
v 0.00039 56.473236 -7.085771
v -0.002477 38.963467 -7.085767
v -4.006261 37.891445 -7.085767
v 7.372216 55.988922 -7.085769
v 14.617761 54.5466 -7.085768
v 4.001002 37.890102 -7.085767
v 21.613062 52.17093 -7.08577
v 28.238428 48.902683 -7.085768
v 34.380455 44.79752 -7.085765
v 39.934105 39.925938 -7.085763
v 22.806973 19.437595 -7.085761
v 44.804283 34.37125 -7.085765
v 48.907738 28.228308 -7.085765
v 24.18118 14.305943 -7.085759
v 52.17416 21.602514 -7.085763
v 54.547695 14.606971 -7.085759
v 56.469814 -0.009911 -7.085752
v 55.98544 -7.381188 -7.085754
v 55.98782 7.361488 -7.085757
v 24.553558 -14.296229 -7.085753
v 48.89859 -28.245752 -7.085749
v 44.79312 -34.387173 -7.085747
v 23.177643 -19.427456 -7.085752
v 54.542995 -14.626184 -7.085755
v 52.16714 -21.620935 -7.085753
v -5.41574 -41.017 -11.66286
v -38.2363 -15.8267 -11.662855
v -39.975132 -10.702004 -11.662856
v -8.801488 23.87033 -11.918017
v -14.639379 25.284327 -11.918016
v -14.235507 3.347565 -11.918011
v 25.028164 14.772312 -11.918016
v -9.103488 4.727387 -11.918012
v -3.834078 -9.324369 -11.918009
v -4.885776 8.756807 -11.918013
v -39.971714 10.713279 -11.662862
v -38.231236 15.837489 -11.662859
v -56.48734 0.008322 -7.085756
v -25.190647 32.825226 -11.662855
v -20.69022 35.831085 -11.662856
v 3.274748 -14.310698 -11.918005
v 9.133086 -31.282684 -11.918005
v 15.27005 -36.28183 -11.918004
v 14.708343 -25.297697 -11.918007
v 29.25204 29.248201 -11.662883
v 24.067228 -9.260952 -11.918009
v 31.261501 24.148836 -11.918015
v 28.093166 27.762484 -11.918016
v 23.450832 19.821993 -11.918018
v -32.829258 25.189661 -11.662865
v -29.260227 29.257776 -11.662862
v 7.80893 -35.988068 -11.918004
v -24.567537 -9.447906 -11.918007
v -10.723724 -39.960358 -11.662854
v -15.848236 -38.220062 -11.662851
v -3.093662 14.310396 -11.918015
v 10.706141 39.95883 -11.662892
v 15.830713 38.218475 -11.662884
v 15.818634 -38.224945 -11.662857
v 10.692902 -39.963776 -11.66286
v 4.392243 -39.101044 -11.918003
v 4.488862 -39.206024 -11.918003
v 9.706268 -38.16928 -11.918003
v 15.27005 -36.28183 -11.918004
v 19.68637 -34.10495 -11.918004
v 24.071075 -31.176542 -11.918003
v 32.811672 -25.191069 -11.66287
v 29.242584 -29.259306 -11.662862
v 34.057034 -19.684172 -11.918005
v 36.174465 -15.392421 -11.918007
v 37.880642 -10.369349 -11.918008
v 38.834805 -5.576992 -11.91801
v 39.28854 1.32816 -11.918012
v 39.01486 5.514195 -11.918014
v 41.01254 5.392613 -11.662875
v 41.365627 -0.007472 -11.662873
v 39.28854 1.32816 -11.918012
v 38.218777 15.825109 -11.662872
v 39.957546 10.700353 -11.662875
v 38.049343 10.371678 -11.918014
v 36.34518 15.394444 -11.918015
v 34.192226 19.761568 -11.918016
v 24.102444 31.263155 -11.918018
v 19.671963 34.224274 -11.918017
v -8.6229 31.59793 -11.918018
v -14.644018 36.630768 -11.91802
v -19.712864 34.132294 -11.918019
v -7.368993 35.644318 -11.918019
v -9.810522 38.30551 -11.91802
v 4.250941 38.636932 -11.91802
v 4.763392 39.341217 -11.91802
v -0.002294 39.77121 -11.918021
v -0.002355 39.654327 -11.918021
v -4.242101 38.596893 -11.91802
v -0.002355 39.654327 -11.918021
v -4.775671 39.342255 -11.91802
v -15.835913 38.223785 -11.662851
v -10.710791 39.96237 -11.662875
v -34.161472 19.73678 -11.918015
v -36.47385 15.050014 -11.918013
v -31.226841 24.126795 -11.918017
v -35.836765 20.690638 -11.662859
v -39.03159 5.51113 -11.918014
v -39.25852 2.058005 -11.918013
v -38.065342 10.364341 -11.918015
v -41.030125 -5.394144 -11.66286
v -39.25852 2.058005 -11.918013
v -37.813084 -10.363076 -11.918006
v -38.75681 -5.61503 -11.91801
v -31.14328 -24.072725 -11.918004
v -29.269623 -29.249788 -11.662856
v -32.837376 -25.180574 -11.662853
v -27.664337 -28.04062 -11.918002
v -24.15567 -31.118502 -11.918001
v -20.701752 -35.825836 -11.662856
v -19.644928 -34.13327 -11.918002
v -7.484527 -35.809357 -11.918002
v -15.234955 -36.308685 -11.918002
v -9.703461 -38.187225 -11.918001
v -4.325653 -38.810516 -11.918003
v -4.628631 -39.19748 -11.918003
v -41.028355 5.405844 -11.66286
v 4.828213 20.336334 -11.918016
v 2.913479 14.30942 -11.918015
v -25.201202 -32.818573 -11.662851
v -8.463105 -24.439728 -11.918006
v -0.015167 -39.789215 -11.918002
v -0.015167 -39.50064 -11.918003
v -35.84342 -20.680513 -11.662853
v -15.234955 -36.308685 -11.918002
v -41.383213 0.005941 -11.662858
v -21.013521 -5.566376 -11.918008
v -7.46671 26.080536 -11.918016
v -4.585361 20.100739 -11.918016
v -4.147313 23.07962 -11.918017
v 8.498195 23.78067 -11.918017
v 20.68423 35.82425 -11.662883
v 25.183681 32.816986 -11.66288
v 41.01077 -5.407497 -11.662875
v 39.954067 -10.714869 -11.662873
v 39.28854 1.32816 -11.918012
v -0.015167 -39.50064 -11.918003
v -39.25852 2.058005 -11.918013
v -24.62119 32.02591 -11.918016
v -28.626621 28.514734 -11.918015
v 37.29202 15.542516 -11.918015
v 34.99307 20.205843 -11.918016
v -37.23801 -15.532876 -11.918009
v -34.87119 -20.333773 -11.918007
v -32.016575 -24.607088 -11.918004
v -28.510162 -28.606478 -11.918002
v -20.187592 -34.97586 -11.918002
v -15.511993 -37.28238 -11.918001
v 28.477264 -28.621183 -11.918004
v 31.99356 -24.613005 -11.918006
v 10.298126 -39.04312 -11.918003
v 15.501434 -37.277985 -11.918003
v 15.27005 -36.28183 -11.918004
v -34.991856 20.20669 -11.918016
v -37.338535 15.450221 -11.918016
v 15.3417 37.3898 -11.918018
v 10.341089 39.08792 -11.918018
v -20.199436 34.979218 -11.918017
v -32.035313 24.629236 -11.918017
v 39.003506 10.498265 -11.918014
v 32.038784 24.628267 -11.918015
v 28.623318 28.523836 -11.918017
v 24.617886 32.037445 -11.918018
v 20.183132 35.001373 -11.918017
v 20.179413 -34.972015 -11.918002
v 24.601288 -32.01889 -11.918003
v 40.021816 5.374852 -11.918014
v 40.34817 0.383824 -11.918012
v 39.96786 -5.403652 -11.91801
v 38.951626 -10.507716 -11.918008
v 34.94888 -20.19235 -11.918007
v 37.23843 -15.5516 -11.918007
v -40.037937 5.3832 -11.918014
v -40.35178 0.606894 -11.918012
v -39.018223 10.505149 -11.918015
v -39.958652 -5.405496 -11.91801
v -38.94669 -10.496926 -11.918006
v -24.645844 -31.996126 -11.918001
v -15.330359 37.379303 -11.91802
v -10.341284 39.08194 -11.91802
v -5.165624 40.121002 -11.918021
v -10.319 -39.04593 -11.918001
v -5.131744 -40.07852 -11.918002
v -0.015228 -40.414764 -11.918002
v 5.069001 -40.082123 -11.918002
v 5.158839 40.119537 -11.918021
v -0.002233 40.45871 -11.918021
vt 0.5528 0.810992
vt 0.546865 0.77929199
vt 0.529861 0.777713
vt 0.518701 0.808757
vt 0.487767 0.29676604
vt 0.465133 0.27069104
vt 0.449701 0.278983
vt 0.456214 0.31155503
vt 0.617696 0.505525
vt 0.578635 0.526084
vt 0.600422 0.55186898
vt 0.624625 0.54220098
vt 0.497016 0.192294
vt 0.515674 0.22359699
vt 0.557609 0.15265602
vt 0.511795 0.14999402
vt 0.84343 0.81365901
vt 0.765829 0.74080002
vt 0.730768 0.77345699
vt 0.79758 0.85552698
vt 0.698893 0.533233
vt 0.672531 0.55717498
vt 0.683026 0.579499
vt 0.720745 0.57304
vt 0.55298 0.561422
vt 0.586247 0.57370502
vt 0.680355 0.60397297
vt 0.714131 0.61772102
vt 0.568456 0.64474
vt 0.604792 0.666501
vt 0.615236 0.63582498
vt 0.594452 0.62168002
vt 0.327884 0.696343
vt 0.302497 0.65451598
vt 0.206575 0.68834
vt 0.235627 0.72501302
vt 0.809478 0.13639301
vt 0.738978 0.21881002
vt 0.774183 0.25281703
vt 0.855044 0.18068498
vt 0.650959 0.54264498
vt 0.661536 0.510226
vt 0.485552 0.617684
vt 0.480506 0.66098702
vt 0.486826 0.67256403
vt 0.493777 0.616094
vt 0.547624 0.60568702
vt 0.584634 0.599182
vt 0.647183 0.67115003
vt 0.641048 0.63636702
vt 0.637145 0.939850986
vt 0.605714 0.84015
vt 0.560085 0.85090703
vt 0.578136 0.954156995
vt 0.422216 0.30872703
vt 0.432121 0.278772
vt 0.417617 0.26873696
vt 0.392091 0.291847
vt 0.490044 0.789339
vt 0.516387 0.76744097
vt 0.608266 0.73338002
vt 0.573328 0.73897803
vt 0.570936 0.756064
vt 0.604348 0.76815099
vt 0.478614 0.72290897
vt 0.510826 0.73446798
vt 0.51996 0.719764
vt 0.49922 0.695265
vt 0.409985 0.253577
vt 0.375676 0.260441
vt 0.378839 0.225281
vt 0.41144 0.23669899
vt 0.421881 0.22192597
vt 0.398838 0.19639802
vt 0.592719 0.70106697
vt 0.566822 0.72352302
vt 0.507572 0.26769602
vt 0.474327 0.25603902
vt 0.510504 0.23234302
vt 0.494092 0.20066297
vt 0.468223 0.22357798
vt 0.474881 0.23888898
vt 0.474698 0.75756198
vt 0.510133 0.75170201
vt 0.464548 0.18206203
vt 0.45439 0.21403801
vt 0.529538 0.679758
vt 0.536122 0.71300203
vt 0.55307 0.713444
vt 0.563718 0.68311298
vt 0.430015 0.180987
vt 0.437136 0.21324301
vt 0.562116 0.7712
vt 0.584037 0.79667598
vt 0.687439 0.65324098
vt 0.665283 0.62503302
vt 0.384468 0.55215698
vt 0.345857 0.57247
vt 0.367358 0.598503
vt 0.391375 0.588614
vt 0.463975 0.579597
vt 0.43873 0.60289502
vt 0.449279 0.624538
vt 0.319959 0.607229
vt 0.352673 0.61951
vt 0.447044 0.64844
vt 0.336331 0.689201
vt 0.372913 0.710822
vt 0.383148 0.68010497
vt 0.361908 0.66553402
vt 0.417409 0.58885998
vt 0.427966 0.556907
vt 0.314539 0.65108198
vt 0.350817 0.643718
vt 0.414965 0.71453702
vt 0.409004 0.68048102
vt 0.455131 0.697219
vt 0.432583 0.66930097
vt 0.338718 0.321436
vt 0.300547 0.34289896
vt 0.322331 0.368075
vt 0.346251 0.358011
vt 0.419283 0.34762704
vt 0.393762 0.371796
vt 0.404575 0.39349198
vt 0.441131 0.386272
vt 0.275017 0.377685
vt 0.308448 0.39004803
vt 0.402481 0.41778803
vt 0.436191 0.430431
vt 0.291314 0.460427
vt 0.328361 0.48249197
vt 0.338329 0.45092297
vt 0.316851 0.436755
vt 0.372385 0.358101
vt 0.382432 0.32655
vt 0.269268 0.421638
vt 0.306102 0.41468704
vt 0.371254 0.48541903
vt 0.364273 0.45081902
vt 0.41101 0.46676004
vt 0.38806 0.439089
vt 0.569413 0.275456
vt 0.529981 0.29572797
vt 0.552312 0.322065
vt 0.576613 0.31184
vt 0.650758 0.30166602
vt 0.624402 0.326559
vt 0.636122 0.34855998
vt 0.673825 0.34052503
vt 0.504471 0.33189404
vt 0.537763 0.343517
vt 0.634624 0.37311804
vt 0.668615 0.38602102
vt 0.522191 0.413588
vt 0.558622 0.43651903
vt 0.569403 0.40484703
vt 0.547682 0.389947
vt 0.602844 0.31168902
vt 0.613033 0.27964902
vt 0.500057 0.37545204
vt 0.536217 0.36790204
vt 0.602063 0.44028997
vt 0.595904 0.40519404
vt 0.64234 0.422405
vt 0.620037 0.394104
vt 0.261758 0.419083
vt 0.284537 0.463143
vt 0.269382 0.375194
vt 0.560364 0.444695
vt 0.514392 0.41545403
vt 0.551244 0.552427
vt 0.576849 0.51845098
vt 0.425973 0.54585803
vt 0.383083 0.545065
vt 0.326884 0.48906696
vt 0.495721 0.688856
vt 0.472936 0.716698
vt 0.644094 0.43042302
vt 0.603383 0.445805
vt 0.616064 0.49872398
vt 0.659282 0.49990797
vt 0.362569 0.72004598
vt 0.416273 0.727961
vt 0.42153 0.83250898
vt 0.465944 0.75312698
vt 0.727666 0.575603
vt 0.722777 0.62123197
vt 0.727666 0.575603
vt 0.458839 0.318662
vt 0.490309 0.30211103
vt 0.51193 0.273148
vt 0.296693 0.338809
vt 0.231877 0.27001798
vt 0.2033 0.30675197
vt 0.595962 0.691782
vt 0.564766 0.67462802
vt 0.528493 0.671901
vt 0.398846 0.03723699
vt 0.421363 0.14094996
vt 0.468036 0.13316703
vt 0.459252 0.02749598
vt 0.340215 0.053820014
vt 0.375744 0.15314502
vt 0.61624 0.27120197
vt 0.564293 0.27051604
vt 0.805684 0.654895
vt 0.692676 0.65915602
vt 0.780462 0.695203
vt 0.96241 0.59552902
vt 0.856914 0.571631
vt 0.842839 0.61829698
vt 0.943775 0.65642
vt 0.676155 0.383586
vt 0.562046 0.64692402
vt 0.610439 0.67518502
vt 0.823572 0.11961198
vt 0.770061 0.08022201
vt 0.758389 0.09872103
vt 0.518838 0.981949985
vt 0.581858 0.975089014
vt 0.517914 0.961172998
vt 0.219503 0.09087998
vt 0.169001 0.129875
vt 0.182993 0.14560801
vt 0.23133 0.10828102
vt 0.16946 0.86038202
vt 0.219259 0.89851302
vt 0.230703 0.881577015
vt 0.183062 0.844693
vt 0.01236 0.40182996
vt 0.00411 0.46490896
vt 0.025046 0.466187
vt 0.032981 0.405828
vt 0.758259 0.90809798
vt 0.81067 0.872212
vt 0.747617 0.89047599
vt 0.457099 0.006446004
vt 0.394206 0.016725004
vt 0.971146 0.33711302
vt 0.945702 0.275743
vt 0.926122 0.28556
vt 0.950402 0.344199
vt 0.05319 0.28121
vt 0.028792 0.340235
vt 0.048751 0.34690404
vt 0.072132 0.290439
vt 0.333166 0.03406
vt 0.274587 0.05878997
vt 0.284069 0.07753998
vt 0.936051 0.723576
vt 0.96407 0.66439903
vt 0.917462 0.71335799
vt 0.586291 0.010182023
vt 0.521475 0.00405401
vt 0.520914 0.02541101
vt 0.582887 0.031463027
vt 0.643447 0.959797025
vt 0.702543 0.93741697
vt 0.693922 0.918468
vt 0.984257 0.60064203
vt 0.994654 0.53430098
vt 0.972676 0.53244698
vt 0.273343 0.93061602
vt 0.332083 0.955973983
vt 0.339135 0.93573803
vt 0.282866 0.91198498
vt 0.393888 0.97263199
vt 0.456218 0.980975986
vt 0.457743 0.960608006
vt 0.397989 0.952117026
vt 0.00411 0.528468
vt 0.012427 0.591527
vt 0.032947 0.587295
vt 0.025027 0.527004
vt 0.029203 0.652807
vt 0.053811 0.71122098
vt 0.072463 0.701792
vt 0.048958 0.64589
vt 0.859191 0.82883602
vt 0.901248 0.778499
vt 0.88382 0.76585102
vt 0.123953 0.17511404
vt 0.085112 0.22584498
vt 0.102696 0.23746502
vt 0.139875 0.18891001
vt 0.91224 0.21835303
vt 0.871289 0.16596603
vt 0.89416 0.23072702
vt 0.085783 0.76588702
vt 0.124583 0.81590599
vt 0.140143 0.802015
vt 0.103035 0.75411803
vt 0.711871 0.048521996
vt 0.650201 0.025053024
vt 0.643937 0.04582399
vt 0.702828 0.068358004
vt 0.99589 0.46763897
vt 0.988087 0.401474
vt 0.966552 0.405652
vt 0.973954 0.46881402
vt 0.085856 0.95343399
vt 0.09412 0.94665599
vt 0.08817 0.944127977
vt 0.085202 0.948490977
vt 0.084211 0.939001024
vt 0.082162 0.944562018
vt 0.072614 0.943274975
vt 0.071671 0.93736702
vt 0.066539 0.94127202
vt 0.068631 0.94630599
vt 0.066696 0.950927973
vt 0.060132 0.942157984
vt 0.077603 0.942704022
vt 0.08336 0.932603
vt 0.074164 0.931391
vt 0.085837 0.92662603
vt 0.073325 0.92497498
vt 0.089235 0.904507995
vt 0.090983 0.922686994
vt 0.093176 0.909651995
vt 0.097417 0.921850026
vt 0.099169 0.91213697
vt 0.103414 0.924344
vt 0.105606 0.91129202
vt 0.069383 0.91983098
vt 0.076298 0.902566016
vt 0.071151 0.906506
vt 0.06339 0.917347014
vt 0.064717 0.90734297
vt 0.056953 0.91819298
vt 0.058718 0.90484798
vt 0.078776 0.896589994
vt 0.088395 0.89809102
vt 0.077927 0.890192986
vt 0.090888 0.892115
vt 0.089859 0.88617098
vt 0.096021 0.888208985
vt 0.093845 0.883139014
vt 0.080311 0.884875
vt 0.084864 0.88672602
vt 0.095781 0.87851602
vt 0.102429 0.887323976
vt 0.073967 0.88506198
vt 0.077269 0.88094598
vt 0.068017 0.882533014
vt 0.076614 0.87599999
vt 0.054769 0.89968699
vt 0.0518 0.92214501
vt 0.107364 0.92950398
vt 0.110759 0.90733999
vt 0.100538 0.945855975
vt 0.083982 0.958083987
vt 0.054144 0.939707994
vt 0.067285 0.95593202
vt 0.061597 0.88333398
vt 0.078493 0.87134999
vt 0.108417 0.88977599
vt 0.095193 0.87351203
vt 0.087462 0.86758602
vt 0.090251 0.84617501
vt 0.081252 0.84618801
vt 0.072253 0.84619999
vt 0.082471 0.86826003
vt 0.107679 0.85080397
vt 0.098965 0.84849
vt 0.09212 0.86950803
vt 0.129727 0.86615902
vt 0.123317 0.85979098
vt 0.136137 0.872527
vt 0.115498 0.85529798
vt 0.063571 0.84850699
vt 0.054889 0.85081297
vt 0.04706 0.85527098
vt 0.039231 0.85972798
vt 0.032803 0.86608702
vt 0.026374 0.87244701
vt 0.053935 0.89324498
vt 0.056436 0.88725698
vt 0.021815 0.88027698
vt 0.017255 0.888108015
vt 0.012525 0.91469097
vt 0.012525 0.92376202
vt 0.01489 0.896864
vt 0.014884 0.93251598
vt 0.017243 0.941269994
vt 0.049321 0.92814499
vt 0.021793 0.949100018
vt 0.026343 0.956929028
vt 0.05018 0.934575975
vt 0.032755 0.963295996
vt 0.039167 0.96966201
vt 0.046988 0.974152982
vt 0.054809 0.978643
vt 0.063523 0.980952978
vt 0.072238 0.983262002
vt 0.075017 0.961853027
vt 0.070359 0.959933996
vt 0.081234 0.983246028
vt 0.09023 0.983228981
vt 0.080007 0.96117699
vt 0.098907 0.980922997
vt 0.107584 0.978617013
vt 0.11541 0.974162996
vt 0.123236 0.969708025
vt 0.105697 0.941932976
vt 0.129663 0.963352025
vt 0.13609 0.95699501
vt 0.108198 0.93594599
vt 0.140649 0.949168026
vt 0.145209 0.94134003
vt 0.14994 0.923832
vt 0.149942 0.914762974
vt 0.147574 0.932586014
vt 0.113238 0.90134102
vt 0.145231 0.88818699
vt 0.140684 0.88035703
vt 0.11238 0.894909024
vt 0.149944 0.90569401
vt 0.147588 0.896941006
vt 0.513548 0.85686201
vt 0.189461 0.696172
vt 0.165851 0.65572798
vt 0.383558 0.319977
vt 0.3342 0.31631
vt 0.372401 0.49113
vt 0.679945 0.33518302
vt 0.412115 0.47238898
vt 0.476517 0.57703602
vt 0.440677 0.433088
vt 0.129471 0.47266603
vt 0.135645 0.42599702
vt 0.012525 0.90562099
vt 0.219388 0.257779
vt 0.252817 0.22402501
vt 0.541794 0.60681403
vt 0.617397 0.73433203
vt 0.684399 0.78503603
vt 0.651769 0.67676198
vt 0.699572 0.18971401
vt 0.706514 0.532735
vt 0.72725 0.230793
vt 0.692095 0.20483398
vt 0.655482 0.297289
vt 0.166461 0.33664596
vt 0.190385 0.29551804
vt 0.612832 0.77539599
vt 0.308344 0.610456
vt 0.466266 0.85663402
vt 0.419404 0.85006398
vt 0.447905 0.385028
vt 0.516114 0.131589
vt 0.564249 0.13660902
vt 0.692124 0.80105102
vt 0.650136 0.82348198
vt 0.588915 0.80586499
vt 0.590564 0.80897099
vt 0.637693 0.80562198
vt 0.684349 0.78513402
vt 0.719677 0.75986302
vt 0.753446 0.727782
vt 0.822543 0.662543
vt 0.796715 0.70360798
vt 0.82603 0.612024
vt 0.83851 0.570589
vt 0.846022 0.523624
vt 0.846822 0.479452
vt 0.839769 0.417758
vt 0.830151 0.38064098
vt 0.847162 0.37821996
vt 0.859522 0.425862
vt 0.839395 0.416636
vt 0.804246 0.291196
vt 0.828673 0.333268
vt 0.813172 0.33933604
vt 0.789097 0.298284
vt 0.761933 0.26361203
vt 0.65009 0.18204498
vt 0.605796 0.16381502
vt 0.369802 0.25613296
vt 0.303157 0.207263
vt 0.264068 0.23673797
vt 0.374328 0.22038001
vt 0.342963 0.18630499
vt 0.465173 0.17560601
vt 0.466903 0.15772498
vt 0.428634 0.17458797
vt 0.429522 0.17894101
vt 0.395821 0.191059
vt 0.429597 0.17884201
vt 0.386639 0.17480898
vt 0.290291 0.19498503
vt 0.331573 0.17118204
vt 0.163641 0.3857
vt 0.151347 0.429581
vt 0.182113 0.34315002
vt 0.14803 0.38040602
vt 0.145644 0.51564997
vt 0.149611 0.545902
vt 0.145672 0.472461
vt 0.147888 0.612499
vt 0.149857 0.546951
vt 0.183356 0.649184
vt 0.167227 0.61032802
vt 0.264725 0.75371999
vt 0.289343 0.79511303
vt 0.251845 0.766451
vt 0.301261 0.78137302
vt 0.336716 0.80191702
vt 0.373779 0.83730203
vt 0.379939 0.82090199
vt 0.487099 0.79701197
vt 0.421281 0.832569
vt 0.472019 0.83630002
vt 0.517673 0.81656402
vt 0.516282 0.82711798
vt 0.129443 0.519674
vt 0.501205 0.32502604
vt 0.494335 0.376503
vt 0.330211 0.81880498
vt 0.462139 0.704885
vt 0.553999 0.81750399
vt 0.55214 0.806544
vt 0.218274 0.733311
vt 0.421604 0.83256102
vt 0.135612 0.56671602
vt 0.332317 0.57491702
vt 0.389673 0.29982
vt 0.424421 0.34141302
vt 0.422746 0.316593
vt 0.526495 0.29136598
vt 0.611374 0.14824998
vt 0.656727 0.16611302
vt 0.865298 0.474746
vt 0.864407 0.523472
vt 0.839919 0.41844404
vt 0.551683 0.80579
vt 0.149713 0.54490298
vt 0.224496 0.262403
vt 0.195949 0.299605
vt 0.798112 0.294824
vt 0.768882 0.257519
vt 0.195415 0.69277298
vt 0.223967 0.72939402
vt 0.2565 0.761455
vt 0.293489 0.789639
vt 0.376131 0.83089
vt 0.420598 0.843333
vt 0.790762 0.69985002
vt 0.81624 0.659374
vt 0.646683 0.81749201
vt 0.688745 0.79502499
vt 0.684698 0.78461802
vt 0.154526 0.38258696
vt 0.14235 0.42738104
vt 0.562441 0.14342201
vt 0.515249 0.13854897
vt 0.257382 0.229155
vt 0.172713 0.33952403
vt 0.822187 0.33619
vt 0.734235 0.224101
vt 0.695966 0.19584101
vt 0.653809 0.17255801
vt 0.609155 0.15492499
vt 0.726409 0.76808202
vt 0.760865 0.735905
vt 0.840222 0.37998104
vt 0.852074 0.425448
vt 0.858182 0.47574496
vt 0.857285 0.52315998
vt 0.836233 0.61581898
vt 0.849873 0.57054
vt 0.136271 0.51872897
vt 0.14198 0.562737
vt 0.136326 0.47289503
vt 0.154616 0.61093998
vt 0.172115 0.65298498
vt 0.333078 0.81257898
vt 0.294695 0.20034003
vt 0.335198 0.17709398
vt 0.378547 0.15951097
vt 0.467499 0.84983802
vt 0.513942 0.84995401
vt 0.558905 0.84415603
vt 0.602856 0.83381999
vt 0.468109 0.14015996
vt 0.422836 0.147731
vn 0.0001 0.6366 -0.7711
vn 0.0001 0.6381 0.77
vn 0.3194 0.5522 0.77
vn 0.3193 0.5522 -0.7701
vn -0.3187 0.5523 -0.7703
vn -0.3187 0.5523 0.7703
vn 0.0001 0.7571 0.6532
vn 0.0001 0.6377 -0.7703
vn -0.0001 -0.6377 -0.7702
vn 0.3187 -0.5523 -0.7703
vn 0.3187 -0.5523 0.7703
vn -0.0001 -0.6377 0.7702
vn 0 0 -1
vn 0 0 -1
vn 0 0 -1
vn 0 0 -1
vn 0.4719 -0.6153 -0.6313
vn 0.1266 -0.1654 -0.9781
vn 0.1039 -0.1802 -0.9781
vn 0.3876 -0.6716 -0.6314
vn -0.5523 -0.3188 -0.7702
vn -0.5523 -0.3188 0.7703
vn -0.6377 0.0001 0.7703
vn -0.6377 0.0001 -0.7703
vn 0.5522 -0.3189 -0.7702
vn 0.5522 -0.3189 0.7703
vn -0.6556 0.3787 0.6532
vn -0.5522 0.3189 -0.7703
vn 0.5523 0.3188 -0.7703
vn 0.3189 0.5522 -0.7702
vn 0.3189 0.5522 0.7702
vn 0.5523 0.3188 0.7703
vn 0 0 -1
vn 0 0 -1
vn 0 0 -1
vn 0 0 -1
vn 0.6153 0.472 -0.6314
vn 0.1686 0.1291 -0.9772
vn 0.1836 0.106 -0.9773
vn 0.6716 0.3876 -0.6314
vn -0.3189 -0.5522 0.7703
vn -0.3189 -0.5522 -0.7703
vn -0.6377 0.0001 -0.7703
vn -0.5522 0.3189 -0.7703
vn 0 0 -1
vn 0 0 -1
vn 0.6377 -0.0001 -0.7703
vn 0.6377 -0.0001 0.7703
vn 0.0001 0.6377 -0.7703
vn 0.0001 0.6377 0.7703
vn 0.1011 -0.7689 -0.6313
vn 0.0283 -0.2085 -0.9776
vn -0 -0.2121 -0.9772
vn -0.0001 -0.7755 -0.6313
vn 0.3189 0.5522 -0.7703
vn 0.3189 0.5522 0.7703
vn 0.5523 0.3188 0.7703
vn 0.5523 0.3188 -0.7703
vn 0.5523 0.3188 -0.7703
vn 0.5523 0.3188 0.7703
vn -0.6377 0.0001 -0.7703
vn -0.6377 0.0001 0.7703
vn -0.5522 0.3189 0.7703
vn -0.5522 0.3189 -0.7703
vn 0.5522 -0.3189 -0.7703
vn 0.5522 -0.3189 0.7703
vn 0.3187 -0.5523 0.7703
vn 0.3187 -0.5523 -0.7703
vn 0.6377 -0.0001 0.7703
vn 0.6377 -0.0001 -0.7703
vn 0.5522 -0.3189 -0.7703
vn 0.5522 -0.3189 0.7703
vn 0.379 -0.6558 0.6529
vn 0.3192 -0.5523 -0.7701
vn -0.5523 -0.3188 -0.7702
vn -0.5523 -0.3188 0.7703
vn -0.5522 0.3189 -0.7703
vn -0.5522 0.3189 0.7703
vn -0.6377 0.0001 -0.7703
vn -0.5523 -0.3188 -0.7702
vn -0.5523 -0.3188 0.7703
vn -0.6377 0.0001 0.7703
vn 0.6377 -0.0001 -0.7703
vn 0.6377 -0.0001 0.7703
vn -0.3193 -0.5522 -0.7701
vn -0.3792 -0.6556 0.6529
vn -0.0001 -0.6377 -0.7702
vn -0.0001 -0.7571 0.6532
vn -0.3189 -0.5522 0.7703
vn -0.3189 -0.5522 -0.7703
vn -0.0001 -0.6366 -0.7712
vn -0.0001 -0.6381 0.77
vn -0.3192 0.5524 0.77
vn -0.3191 0.5523 -0.7701
vn -0.3187 0.5523 -0.7703
vn -0.3187 0.5523 0.7703
vn -0.0001 -0.6377 -0.7702
vn 0.3187 -0.5523 -0.7703
vn 0.3187 -0.5523 0.7703
vn -0.0001 -0.6377 0.7702
vn -0.5523 -0.3188 -0.7702
vn -0.5523 -0.3188 0.7703
vn -0.6377 0.0001 0.7703
vn 0.5522 -0.3189 -0.7702
vn 0.5522 -0.3189 0.7703
vn -0.5522 0.3189 0.7703
vn 0.5523 0.3188 -0.7703
vn 0.3189 0.5522 -0.7702
vn 0.3189 0.5522 0.7703
vn 0.6558 0.3785 0.6532
vn -0.3189 -0.5522 0.7703
vn -0.3189 -0.5522 -0.7703
vn 0.6377 -0.0001 -0.7703
vn 0.6377 -0.0001 0.7703
vn 0.0001 0.6377 -0.7703
vn 0.0001 0.6377 0.7703
vn -0.3187 0.5523 -0.7703
vn -0.3187 0.5523 0.7703
vn -0.0001 -0.6377 -0.7702
vn 0.3187 -0.5523 -0.7703
vn 0.3187 -0.5523 0.7703
vn -0.0001 -0.6377 0.7702
vn -0.5523 -0.3188 -0.7703
vn -0.5523 -0.3188 0.7703
vn -0.6377 0.0001 0.7703
vn -0.6377 0.0001 -0.7703
vn 0.5522 -0.3189 -0.7703
vn 0.5522 -0.3189 0.7703
vn -0.5522 0.3189 0.7703
vn -0.5522 0.3189 -0.7703
vn 0.5523 0.3188 -0.7702
vn 0.3189 0.5522 -0.7703
vn 0.3189 0.5522 0.7703
vn 0.5523 0.3188 0.7703
vn -0.3189 -0.5522 0.7703
vn -0.3189 -0.5522 -0.7703
vn 0.6377 -0.0001 -0.7703
vn 0.6377 -0.0001 0.7703
vn 0.0001 0.6377 -0.7703
vn 0.0001 0.6377 0.7703
vn -0.3187 0.5523 -0.7703
vn -0.3187 0.5523 0.7703
vn -0.0001 -0.6377 -0.7702
vn 0.3187 -0.5523 -0.7703
vn 0.3187 -0.5523 0.7703
vn -0.0001 -0.6377 0.7702
vn -0.5523 -0.3188 -0.7702
vn -0.5523 -0.3188 0.7703
vn -0.6377 0.0001 0.7703
vn -0.6377 0.0001 -0.7703
vn 0.5522 -0.3189 -0.7702
vn 0.5522 -0.3189 0.7703
vn -0.5522 0.3189 0.7703
vn -0.5522 0.3189 -0.7702
vn 0.5523 0.3188 -0.7703
vn 0.3189 0.5522 -0.7703
vn 0.3189 0.5522 0.7703
vn 0.5523 0.3188 0.7703
vn -0.3189 -0.5522 0.7703
vn -0.3189 -0.5522 -0.7703
vn 0.6377 -0.0001 -0.7703
vn 0.6377 -0.0001 0.7703
vn 0.0001 0.6377 -0.7703
vn 0.0001 0.6377 0.7703
vn -0.3187 0.5523 -0.7702
vn -0.3187 0.5523 0.7703
vn 0 0 -1
vn 0 0 -1
vn 0 0 -1
vn 0 0 -1
vn 0 0 -1
vn 0 0 -1
vn 0 0 -1
vn 0 0 -1
vn 0 0 -1
vn 0 0 -1
vn 0 0 -1
vn 0 0 -1
vn 0 0 -1
vn 0 0 -1
vn 0 0 -1
vn 0 0 -1
vn 0 0 -1
vn 0 0 -1
vn 0 0 -1
vn 0 0 -1
vn 0 0 -1
vn 0 0 -1
vn 0 0 -1
vn 0 0 -1
vn 0 0 -1
vn 0 0 -1
vn 0 0 -1
vn 0 0 -1
vn 0 0 -1
vn 0 0 -1
vn 0 0 -1
vn 0 0 -1
vn 0.0001 0.7755 -0.6313
vn 0 0.2179 -0.976
vn 0.0289 0.2148 -0.9762
vn 0.1013 0.7688 -0.6313
vn -0.1011 0.7689 -0.6314
vn -0.0289 0.2145 -0.9763
vn 0 0 -1
vn 0 0 -1
vn 0 0 -1
vn 0 0 -1
vn 0 0 -1
vn 0.7164 -0.2969 -0.6313
vn 0.1903 -0.0783 -0.9786
vn 0.179 -0.1033 -0.9784
vn 0.6715 -0.3879 -0.6313
vn 0 0 -1
vn 0 0 -1
vn 0 0 -1
vn 0.5723 0.439 0.6926
vn 0.5101 0.5099 0.6926
vn 0.5484 0.5483 -0.6314
vn -0.0942 -0.715 0.6927
vn -0.0001 -0.7212 0.6927
vn -0.1013 -0.7689 -0.6313
vn -0.2759 0.6664 0.6927
vn -0.3605 0.6247 0.6926
vn -0.3876 0.6717 -0.6313
vn -0.2966 0.7165 -0.6314
vn -0.5723 -0.439 0.6927
vn -0.5101 -0.5099 0.6927
vn -0.5484 -0.5483 -0.6313
vn -0.6153 -0.472 -0.6314
vn -0.6663 0.2761 0.6926
vn -0.6966 0.1868 0.6926
vn -0.749 0.2008 -0.6314
vn -0.7164 0.2969 -0.6314
vn 0.2759 -0.6664 0.6926
vn 0.3605 -0.6247 0.6926
vn 0.2966 -0.7165 -0.6314
vn 0.0942 0.715 0.6927
vn 0.0001 0.7212 0.6927
vn 0.7151 0.094 0.6927
vn 0.6967 0.1866 0.6927
vn 0.7491 0.2006 -0.6313
vn 0.7689 0.1011 -0.6313
vn -0.5721 0.4392 0.6927
vn -0.6245 0.3607 0.6927
vn -0.6715 0.3879 -0.6313
vn -0.6151 0.4722 -0.6313
vn -0.094 0.7151 0.6927
vn -0.1865 0.6967 0.6927
vn -0.2006 0.7491 -0.6313
vn 0.5721 -0.4392 0.6927
vn 0.6245 -0.3607 0.6926
vn 0.6151 -0.4722 -0.6314
vn 0.2761 0.6663 0.6927
vn 0.1867 0.6966 0.6927
vn 0.2008 0.749 -0.6313
vn 0.2969 0.7164 -0.6314
vn 0.094 -0.715 0.6927
vn 0.1865 -0.6967 0.6926
vn 0.2005 -0.7491 -0.6314
vn 0.6663 -0.2761 0.6927
vn 0.6966 -0.1868 0.6927
vn 0.749 -0.2008 -0.6314
vn -0.4391 -0.5721 0.6927
vn -0.3607 -0.6246 0.6926
vn -0.3878 -0.6715 -0.6314
vn -0.4722 -0.6152 -0.6313
vn -0.2761 -0.6663 0.6926
vn -0.1867 -0.6966 0.6927
vn -0.2008 -0.749 -0.6313
vn -0.2969 -0.7164 -0.6314
vn -0.715 0.0942 0.6927
vn -0.7212 0.0001 0.6927
vn -0.7755 0.0001 -0.6313
vn -0.7688 0.1014 -0.6314
vn -0.7151 -0.094 0.6927
vn -0.6967 -0.1866 0.6927
vn -0.7491 -0.2006 -0.6313
vn -0.7689 -0.1011 -0.6313
vn 0.4389 -0.5723 0.6927
vn 0.5099 -0.5101 0.6927
vn 0.5482 -0.5484 -0.6313
vn -0.4389 0.5723 0.6926
vn -0.5099 0.5101 0.6926
vn -0.5482 0.5484 -0.6313
vn -0.4719 0.6153 -0.6314
vn 0.6664 0.2759 0.6927
vn 0.6247 0.3605 0.6926
vn 0.7165 0.2966 -0.6313
vn -0.6664 -0.2759 0.6926
vn -0.6247 -0.3605 0.6926
vn -0.6716 -0.3876 -0.6314
vn -0.7165 -0.2967 -0.6313
vn 0.4391 0.5721 0.6926
vn 0.3607 0.6246 0.6926
vn 0.3878 0.6715 -0.6314
vn 0.4722 0.6152 -0.6314
vn 0.715 -0.0942 0.6927
vn 0.7212 -0.0001 0.6927
vn 0.7755 -0.0001 -0.6313
vn 0.7688 -0.1014 -0.6314
vn -0.6377 0.0001 0.7703
vn -0.0001 -0.6377 0.7702
vn 0.3187 -0.5523 0.7703
vn -0.5522 0.3189 0.7703
vn 0.5522 -0.3189 0.7703
vn -0.3187 0.5523 0.7703
vn 0.3189 0.5522 0.7703
vn -0.5523 -0.3188 0.7703
vn -0.3189 -0.5522 0.7703
vn 0.5523 0.3188 0.7703
vn 0.6377 -0.0001 0.7703
vn -0.0001 -0.6377 0.7702
vn 0.0001 0.7571 0.6532
vn 0.6377 -0.0001 0.7703
vn -0.6377 0.0001 0.7703
vn 0.5523 0.3188 0.7703
vn -0.5522 0.3189 0.7703
vn 0.5522 -0.3189 0.7703
vn 0.3189 0.5522 0.7703
vn 0.3187 -0.5523 0.7703
vn 0.0001 0.6377 0.7703
vn -0.0001 -0.6377 0.7702
vn -0.3187 0.5523 0.7703
vn -0.3189 -0.5522 0.7703
vn -0.3187 0.5523 0.7703
vn -0.5523 -0.3188 0.7703
vn -0.3189 -0.5522 0.7703
vn 0.0001 0.6377 0.7703
vn -0.0001 -0.6377 0.7702
vn 0.3189 0.5522 0.7703
vn 0.3187 -0.5523 0.7703
vn -0.6377 0.0001 0.7703
vn 0.6377 -0.0001 0.7703
vn -0.5522 0.3189 0.7703
vn 0.5523 0.3188 0.7703
vn -0.3189 -0.5522 0.7703
vn 0.3189 0.5522 0.7702
vn -0.5523 -0.3188 0.7703
vn 0.3187 -0.5523 0.7703
vn -0.0001 -0.7571 0.6532
vn -0.6377 0.0001 0.7703
vn 0.0001 0.6377 0.7703
vn -0.3187 0.5523 0.7703
vn 0.5522 -0.3189 0.7703
vn 0.0001 0.6377 0.7703
vn 0.6377 -0.0001 0.7703
vn 0.5522 -0.3189 0.7703
vn 0.5523 0.3188 0.7703
vn -0.5522 0.3189 0.7703
vn -0.5523 -0.3188 0.7703
vn -0.3189 -0.5522 0.7703
vn -0.5523 -0.3188 0.7703
vn 0.3187 -0.5523 0.7703
vn 0.5522 -0.3189 0.7703
vn 0.3189 0.5522 0.7703
vn 0.5523 0.3188 0.7703
vn -0.3187 0.5523 0.7703
vn -0.5522 0.3189 0.7703
vn 0.0001 0.6381 0.77
vn -0.0001 -0.7212 0.6927
vn -0.0942 -0.715 0.6927
vn -0.1867 -0.6966 0.6927
vn 0.3194 0.5522 0.77
vn 0.1865 -0.6967 0.6926
vn 0.094 -0.715 0.6927
vn -0.3192 0.5524 0.77
vn 0.4389 -0.5723 0.6927
vn 0.3605 -0.6247 0.6926
vn 0.5099 -0.5101 0.6927
vn 0.2759 -0.6664 0.6926
vn -0.2761 -0.6663 0.6926
vn -0.3607 -0.6246 0.6926
vn -0.4391 -0.5721 0.6927
vn -0.5101 -0.5099 0.6927
vn -0.5723 -0.439 0.6927
vn -0.6247 -0.3605 0.6926
vn 0.6377 -0.0001 0.7703
vn 0.6558 0.3785 0.6532
vn -0.6664 -0.2759 0.6926
vn -0.6967 -0.1866 0.6927
vn -0.715 0.0942 0.6927
vn -0.6966 0.1868 0.6926
vn -0.7151 -0.094 0.6927
vn -0.6663 0.2761 0.6926
vn -0.6245 0.3607 0.6927
vn 0.6377 -0.0001 0.7703
vn -0.5721 0.4392 0.6927
vn -0.5099 0.5101 0.6926
vn 0.5522 -0.3189 0.7703
vn -0.4389 0.5723 0.6926
vn -0.3605 0.6247 0.6926
vn -0.2759 0.6664 0.6927
vn -0.1865 0.6967 0.6927
vn -0.094 0.7151 0.6927
vn 0.0001 0.7212 0.6927
vn -0.0001 -0.6381 0.77
vn 0.379 -0.6558 0.6529
vn 0.0942 0.715 0.6927
vn 0.1867 0.6966 0.6927
vn -0.3792 -0.6556 0.6529
vn 0.2761 0.6663 0.6927
vn 0.3607 0.6246 0.6926
vn 0.4391 0.5721 0.6926
vn 0.5101 0.5099 0.6926
vn -0.5523 -0.3188 0.7703
vn 0.5723 0.439 0.6926
vn 0.6247 0.3605 0.6926
vn -0.6377 0.0001 0.7703
vn 0.6664 0.2759 0.6927
vn 0.6967 0.1866 0.6927
vn 0.7212 -0.0001 0.6927
vn 0.715 -0.0942 0.6927
vn 0.7151 0.094 0.6927
vn -0.6377 0.0001 0.7703
vn 0.6245 -0.3607 0.6926
vn 0.5721 -0.4392 0.6927
vn -0.6556 0.3787 0.6532
vn 0.6966 -0.1868 0.6927
vn 0.6663 -0.2761 0.6927
vn -0.0283 -0.2088 -0.9775
vn -0.188 -0.0773 -0.9791
vn -0.1952 -0.052 -0.9794
vn 0 0 -1
vn 0 0 -1
vn 0 0 -1
vn 0 0 -1
vn 0 0 -1
vn 0 0 -1
vn 0 0 -1
vn -0.2029 0.0541 -0.9777
vn -0.1942 0.0805 -0.9776
vn -0.7212 0.0001 0.6927
vn -0.1272 0.1661 -0.9778
vn -0.1045 0.181 -0.9779
vn 0 0 -1
vn 0 0 -1
vn 0 0 -1
vn 0 0 -1
vn 0.1498 0.1502 -0.9772
vn 0 0 -1
vn 0 0 -1
vn 0 0 -1
vn 0 0 -1
vn -0.167 0.128 -0.9776
vn -0.1483 0.1488 -0.9777
vn 0 0 -1
vn 0 0 -1
vn -0.0546 -0.201 -0.978
vn -0.0793 -0.1919 -0.9782
vn 0 0 -1
vn 0.0562 0.2072 -0.9767
vn 0.082 0.1961 -0.9771
vn 0.0791 -0.1918 -0.9782
vn 0.0544 -0.2007 -0.9781
vn 0 0 -1
vn 0 0 -1
vn 0 0 -1
vn 0 0 -1
vn 0 0 -1
vn 0 0 -1
vn 0.1643 -0.1259 -0.9783
vn 0.1473 -0.1467 -0.9781
vn 0 0 -1
vn 0 0 -1
vn 0 0 -1
vn 0 0 -1
vn 0 0 -1
vn 0 0 -1
vn 0.2071 0.0267 -0.9779
vn 0.2045 -0.0016 -0.9789
vn 0 0 -1
vn 0.1953 0.0804 -0.9774
vn 0.203 0.0541 -0.9777
vn 0 0 -1
vn 0 0 -1
vn 0 0 -1
vn 0 0 -1
vn 0 0 -1
vn 0 0 -1
vn 0 0 -1
vn 0 0 -1
vn 0 0 -1
vn 0 0 -1
vn 0 0 -1
vn 0 0 -1
vn 0 0 -1
vn 0 0 -1
vn 0 0 -1
vn 0 0 -1
vn 0 0 -1
vn -0.0811 0.194 -0.9776
vn -0.0558 0.2059 -0.977
vn 0 0 -1
vn 0 0 -1
vn 0 0 -1
vn -0.182 0.1051 -0.9777
vn 0 0 -1
vn 0 0 -1
vn 0 0 -1
vn -0.1989 -0.0255 -0.9797
vn 0 0 -1
vn 0 0 -1
vn 0 0 -1
vn 0 0 -1
vn -0.1473 -0.1468 -0.9781
vn -0.1644 -0.1259 -0.9783
vn 0 0 -1
vn 0 0 -1
vn -0.104 -0.1799 -0.9781
vn 0 0 -1
vn 0 0 -1
vn 0 0 -1
vn 0 0 -1
vn 0 0 -1
vn 0 0 -1
vn -0.207 0.0268 -0.978
vn 0 0 -1
vn 0 0 -1
vn -0.1265 -0.1653 -0.9781
vn 0 0 -1
vn 0 0 -1
vn 0 0 -1
vn -0.1781 -0.1019 -0.9787
vn 0 0 -1
vn -0.2024 -0.0023 -0.9793
vn 0 0 -1
vn 0 0 -1
vn 0 0 -1
vn 0 0 -1
vn 0 0 -1
vn 0.1058 0.183 -0.9774
vn 0.1286 0.1678 -0.9774
vn 0.2016 -0.026 -0.9791
vn 0.1977 -0.0527 -0.9788
vn 0 0 -1
vn 0 0 -1
vn 0 0 -1
vn -0.0805 0.1047 -0.9912
vn -0.0944 0.0938 -0.9911
vn 0.1238 0.0519 -0.9909
vn 0.117 0.0676 -0.9908
vn -0.1158 -0.0486 -0.9921
vn -0.1103 -0.0648 -0.9918
vn -0.1027 -0.0791 -0.9915
vn -0.0921 -0.0927 -0.9914
vn -0.0652 -0.1131 -0.9914
vn -0.0501 -0.1203 -0.9915
vn 0.092 -0.0928 -0.9914
vn 0.1026 -0.0791 -0.9915
vn 0.0331 -0.1266 -0.9914
vn 0.0501 -0.1201 -0.9915
vn 0 0 -1
vn -0.1151 0.0665 -0.9911
vn -0.123 0.0509 -0.9911
vn 0.0512 0.1258 -0.9907
vn 0.035 0.1337 -0.9904
vn -0.0659 0.1141 -0.9913
vn -0.1057 0.0814 -0.9911
vn 0.1284 0.0347 -0.9911
vn 0.1074 0.0826 -0.9908
vn 0.096 0.0953 -0.9908
vn 0.082 0.1065 -0.9909
vn 0.0671 0.1164 -0.9909
vn 0.0653 -0.1132 -0.9914
vn 0.0799 -0.1039 -0.9914
vn 0.1305 0.0178 -0.9913
vn 0.1283 0.002 -0.9917
vn 0.1245 -0.0171 -0.9921
vn 0.1226 -0.0332 -0.9919
vn 0.1119 -0.0646 -0.9916
vn 0.1184 -0.0497 -0.9917
vn -0.1304 0.0178 -0.9913
vn -0.1275 0.0029 -0.9918
vn -0.1283 0.0347 -0.9911
vn -0.1215 -0.0167 -0.9924
vn -0.1199 -0.0324 -0.9922
vn -0.08 -0.1036 -0.9914
vn -0.0503 0.1236 -0.9911
vn -0.0347 0.1324 -0.9906
vn -0.0175 0.1392 -0.9901
vn -0.0331 -0.127 -0.9913
vn -0.0166 -0.1329 -0.991
vn 0 -0.1352 -0.9908
vn 0.0163 -0.1328 -0.991
vn 0.0176 0.1394 -0.9901
vn 0 0.1416 -0.9899
f 3/3/3 2/2/2 1/1/1
f 4/4/4 3/3/3 1/1/1
f 7/7/7 6/6/6 5/5/5
f 8/8/8 7/7/7 5/5/5
f 11/11/11 10/10/10 9/9/9
f 12/12/12 11/11/11 9/9/9
f 15/15/15 14/14/14 13/13/13
f 16/16/16 15/15/15 13/13/13
f 19/19/19 18/18/18 17/17/17
f 20/20/20 19/19/19 17/17/17
f 23/23/23 22/22/22 21/21/21
f 24/24/24 23/23/23 21/21/21
f 11/11/11 26/26/26 25/25/25
f 10/10/10 11/11/11 25/25/25
f 27/27/27 23/23/23 24/24/24
f 28/28/28 27/27/27 24/24/24
f 31/31/31 30/30/30 29/29/29
f 32/32/32 31/31/31 29/29/29
f 35/35/35 34/34/34 33/33/33
f 36/36/36 35/35/35 33/33/33
f 39/39/39 38/38/38 37/37/37
f 40/40/40 39/39/39 37/37/37
f 41/41/41 12/12/12 9/9/9
f 42/42/42 41/41/41 9/9/9
f 45/45/45 44/44/44 43/43/43
f 46/46/46 45/45/45 43/43/43
f 32/32/32 29/29/29 47/47/47
f 48/48/48 32/32/32 47/47/47
f 31/31/31 50/50/50 49/49/49
f 30/30/30 31/31/31 49/49/49
f 53/53/53 52/52/52 51/51/51
f 54/54/54 53/53/53 51/51/51
f 48/48/48 47/47/47 25/25/25
f 26/26/26 48/48/48 25/25/25
f 57/57/57 56/56/56 55/55/55
f 58/58/58 57/57/57 55/55/55
f 3/3/3 4/4/4 59/59/59
f 60/60/60 3/3/3 59/59/59
f 63/63/63 62/62/62 61/61/61
f 64/64/64 63/63/63 61/61/61
f 67/67/67 66/66/66 65/65/65
f 68/68/68 67/67/67 65/65/65
f 69/69/69 57/57/57 58/58/58
f 70/70/70 69/69/69 58/58/58
f 73/73/73 72/72/72 71/71/71
f 74/74/74 73/73/73 71/71/71
f 62/62/62 76/76/76 75/75/75
f 61/61/61 62/62/62 75/75/75
f 78/78/78 77/77/77 5/5/5
f 6/6/6 78/78/78 5/5/5
f 81/81/81 80/80/80 79/79/79
f 82/82/82 81/81/81 79/79/79
f 84/84/84 83/83/83 65/65/65
f 66/66/66 84/84/84 65/65/65
f 81/81/81 86/86/86 85/85/85
f 80/80/80 81/81/81 85/85/85
f 78/78/78 82/82/82 79/79/79
f 77/77/77 78/78/78 79/79/79
f 60/60/60 59/59/59 83/83/83
f 84/84/84 60/60/60 83/83/83
f 56/56/56 7/7/7 8/8/8
f 55/55/55 56/56/56 8/8/8
f 72/72/72 69/69/69 70/70/70
f 71/71/71 72/72/72 70/70/70
f 89/89/89 88/88/88 87/87/87
f 90/90/90 89/89/89 87/87/87
f 73/73/73 74/74/74 91/91/91
f 92/92/92 73/73/73 91/91/91
f 67/67/67 68/68/68 87/87/87
f 88/88/88 67/67/67 87/87/87
f 92/92/92 91/91/91 85/85/85
f 86/86/86 92/92/92 85/85/85
f 93/93/93 63/63/63 64/64/64
f 94/94/94 93/93/93 64/64/64
f 76/76/76 89/89/89 90/90/90
f 75/75/75 76/76/76 90/90/90
f 50/50/50 96/96/96 95/95/95
f 49/49/49 50/50/50 95/95/95
f 22/22/22 41/41/41 42/42/42
f 21/21/21 22/22/22 42/42/42
f 2/2/2 93/93/93 94/94/94
f 1/1/1 2/2/2 94/94/94
f 96/96/96 27/27/27 28/28/28
f 95/95/95 96/96/96 28/28/28
f 99/99/99 98/98/98 97/97/97
f 100/100/100 99/99/99 97/97/97
f 103/103/103 102/102/102 101/101/101
f 43/43/43 103/103/103 101/101/101
f 99/99/99 105/105/105 104/104/104
f 98/98/98 99/99/99 104/104/104
f 106/106/106 103/103/103 43/43/43
f 44/44/44 106/106/106 43/43/43
f 109/109/109 108/108/108 107/107/107
f 110/110/110 109/109/109 107/107/107
f 111/111/111 100/100/100 97/97/97
f 112/112/112 111/111/111 97/97/97
f 110/110/110 107/107/107 113/113/113
f 114/114/114 110/110/110 113/113/113
f 109/109/109 116/116/116 115/115/115
f 108/108/108 109/109/109 115/115/115
f 114/114/114 113/113/113 104/104/104
f 105/105/105 114/114/114 104/104/104
f 116/116/116 118/118/118 117/117/117
f 115/115/115 116/116/116 117/117/117
f 102/102/102 111/111/111 112/112/112
f 101/101/101 102/102/102 112/112/112
f 118/118/118 106/106/106 44/44/44
f 117/117/117 118/118/118 44/44/44
f 121/121/121 120/120/120 119/119/119
f 122/122/122 121/121/121 119/119/119
f 125/125/125 124/124/124 123/123/123
f 126/126/126 125/125/125 123/123/123
f 121/121/121 128/128/128 127/127/127
f 120/120/120 121/121/121 127/127/127
f 129/129/129 125/125/125 126/126/126
f 130/130/130 129/129/129 126/126/126
f 133/133/133 132/132/132 131/131/131
f 134/134/134 133/133/133 131/131/131
f 135/135/135 122/122/122 119/119/119
f 136/136/136 135/135/135 119/119/119
f 134/134/134 131/131/131 137/137/137
f 138/138/138 134/134/134 137/137/137
f 133/133/133 140/140/140 139/139/139
f 132/132/132 133/133/133 139/139/139
f 138/138/138 137/137/137 127/127/127
f 128/128/128 138/138/138 127/127/127
f 140/140/140 142/142/142 141/141/141
f 139/139/139 140/140/140 141/141/141
f 124/124/124 135/135/135 136/136/136
f 123/123/123 124/124/124 136/136/136
f 142/142/142 129/129/129 130/130/130
f 141/141/141 142/142/142 130/130/130
f 145/145/145 144/144/144 143/143/143
f 146/146/146 145/145/145 143/143/143
f 149/149/149 148/148/148 147/147/147
f 150/150/150 149/149/149 147/147/147
f 145/145/145 152/152/152 151/151/151
f 144/144/144 145/145/145 151/151/151
f 153/153/153 149/149/149 150/150/150
f 154/154/154 153/153/153 150/150/150
f 157/157/157 156/156/156 155/155/155
f 158/158/158 157/157/157 155/155/155
f 159/159/159 146/146/146 143/143/143
f 160/160/160 159/159/159 143/143/143
f 158/158/158 155/155/155 161/161/161
f 162/162/162 158/158/158 161/161/161
f 157/157/157 164/164/164 163/163/163
f 156/156/156 157/157/157 163/163/163
f 162/162/162 161/161/161 151/151/151
f 152/152/152 162/162/162 151/151/151
f 164/164/164 166/166/166 165/165/165
f 163/163/163 164/164/164 165/165/165
f 148/148/148 159/159/159 160/160/160
f 147/147/147 148/148/148 160/160/160
f 166/166/166 153/153/153 154/154/154
f 165/165/165 166/166/166 154/154/154
f 168/168/168 167/167/167 137/137/137
f 131/131/131 168/168/168 137/137/137
f 169/169/169 127/127/127 137/137/137
f 167/167/167 169/169/169 137/137/137
f 172/172/172 171/171/171 170/170/170
f 173/173/173 172/172/172 170/170/170
f 175/175/175 174/174/174 112/112/112
f 97/97/97 175/175/175 112/112/112
f 176/176/176 168/168/168 131/131/131
f 132/132/132 176/176/176 131/131/131
f 178/178/178 177/177/177 68/68/68
f 65/65/65 178/178/178 68/68/68
f 181/181/181 180/180/180 179/179/179
f 182/182/182 181/181/181 179/179/179
f 183/183/183 108/108/108 115/115/115
f 184/184/184 183/183/183 115/115/115
f 186/186/186 185/185/185 184/184/184
f 170/170/170 180/180/180 181/181/181
f 173/173/173 170/170/170 181/181/181
f 10/10/10 173/173/173 181/181/181
f 9/9/9 10/10/10 181/181/181
f 181/181/181 182/182/182 42/42/42
f 9/9/9 181/181/181 42/42/42
f 28/28/28 24/24/24 187/187/187
f 188/188/188 28/28/28 187/187/187
f 189/189/189 188/188/188 187/187/187
f 5/5/5 191/191/191 190/190/190
f 8/8/8 5/5/5 190/190/190
f 25/25/25 172/172/172 173/173/173
f 10/10/10 25/25/25 173/173/173
f 77/77/77 192/192/192 191/191/191
f 5/5/5 77/77/77 191/191/191
f 194/194/194 193/193/193 169/169/169
f 195/195/195 194/194/194 169/169/169
f 90/90/90 197/197/197 196/196/196
f 75/75/75 90/90/90 196/196/196
f 177/177/177 198/198/198 87/87/87
f 68/68/68 177/177/177 87/87/87
f 201/201/201 200/200/200 199/199/199
f 202/202/202 201/201/201 199/199/199
f 200/200/200 204/204/204 203/203/203
f 199/199/199 200/200/200 203/203/203
f 205/205/205 160/160/160 143/143/143
f 206/206/206 205/205/205 143/143/143
f 208/208/208 188/188/188 207/207/207
f 209/209/209 208/208/208 207/207/207
f 212/212/212 211/211/211 210/210/210
f 213/213/213 212/212/212 210/210/210
f 170/170/170 156/156/156 163/163/163
f 180/180/180 170/170/170 163/163/163
f 165/165/165 154/154/154 214/214/214
f 179/179/179 165/165/165 214/214/214
f 214/214/214 179/179/179 214/214/214
f 215/215/215 29/29/29 30/30/30
f 216/216/216 215/215/215 30/30/30
f 219/219/219 218/218/218 217/217/217
f 37/37/37 219/219/219 217/217/217
f 54/54/54 221/221/221 220/220/220
f 222/222/222 54/54/54 220/220/220
f 225/225/225 224/224/224 223/223/223
f 226/226/226 225/225/225 223/223/223
f 229/229/229 228/228/228 227/227/227
f 230/230/230 229/229/229 227/227/227
f 233/233/233 232/232/232 231/231/231
f 234/234/234 233/233/233 231/231/231
f 20/20/20 236/236/236 235/235/235
f 237/237/237 20/20/20 235/235/235
f 199/199/199 239/239/239 238/238/238
f 202/202/202 199/199/199 238/238/238
f 242/242/242 241/241/241 240/240/240
f 243/243/243 242/242/242 240/240/240
f 246/246/246 245/245/245 244/244/244
f 247/247/247 246/246/246 244/244/244
f 250/250/250 249/249/249 248/248/248
f 203/203/203 250/250/250 248/248/248
f 213/213/213 252/252/252 251/251/251
f 253/253/253 213/213/213 251/251/251
f 256/256/256 255/255/255 254/254/254
f 257/257/257 256/256/256 254/254/254
f 260/260/260 259/259/259 258/258/258
f 51/51/51 260/260/260 258/258/258
f 263/263/263 262/262/262 261/261/261
f 210/210/210 263/263/263 261/261/261
f 266/266/266 265/265/265 264/264/264
f 267/267/267 266/266/266 264/264/264
f 270/270/270 269/269/269 268/268/268
f 271/271/271 270/270/270 268/268/268
f 274/274/274 273/273/273 272/272/272
f 275/275/275 274/274/274 272/272/272
f 278/278/278 277/277/277 276/276/276
f 279/279/279 278/278/278 276/276/276
f 282/282/282 281/281/281 280/280/280
f 17/17/17 282/282/282 280/280/280
f 285/285/285 284/284/284 283/283/283
f 286/286/286 285/285/285 283/283/283
f 40/40/40 288/288/288 287/287/287
f 289/289/289 40/40/40 287/287/287
f 292/292/292 291/291/291 290/290/290
f 293/293/293 292/292/292 290/290/290
f 296/296/296 295/295/295 294/294/294
f 297/297/297 296/296/296 294/294/294
f 300/300/300 299/299/299 298/298/298
f 301/301/301 300/300/300 298/298/298
f 304/304/304 303/303/303 302/302/302
f 305/305/305 304/304/304 302/302/302
f 307/307/307 306/306/306 304/304/304
f 305/305/305 307/307/307 304/304/304
f 310/310/310 309/309/309 308/308/308
f 311/311/311 310/310/310 308/308/308
f 310/310/310 311/311/311 312/312/312
f 313/313/313 310/310/310 312/312/312
f 308/308/308 309/309/309 306/306/306
f 314/314/314 308/308/308 306/306/306
f 307/307/307 314/314/314 306/306/306
f 315/315/315 306/306/306 309/309/309
f 316/316/316 315/315/315 309/309/309
f 317/317/317 315/315/315 316/316/316
f 318/318/318 317/317/317 316/316/316
f 320/320/320 317/317/317 319/319/319
f 321/321/321 320/320/320 319/319/319
f 323/323/323 322/322/322 320/320/320
f 321/321/321 323/323/323 320/320/320
f 325/325/325 324/324/324 322/322/322
f 323/323/323 325/325/325 322/322/322
f 327/327/327 318/318/318 326/326/326
f 328/328/328 327/327/327 326/326/326
f 328/328/328 326/326/326 329/329/329
f 330/330/330 328/328/328 329/329/329
f 330/330/330 329/329/329 331/331/331
f 332/332/332 330/330/330 331/331/331
f 319/319/319 327/327/327 333/333/333
f 334/334/334 319/319/319 333/333/333
f 327/327/327 319/319/319 317/317/317
f 318/318/318 327/327/327 317/317/317
f 334/334/334 333/333/333 335/335/335
f 336/336/336 334/334/334 335/335/335
f 338/338/338 336/336/336 337/337/337
f 339/339/339 338/338/338 337/337/337
f 336/336/336 335/335/335 340/340/340
f 337/337/337 336/336/336 340/340/340
f 341/341/341 337/337/337 340/340/340
f 338/338/338 339/339/339 342/342/342
f 343/343/343 338/338/338 342/342/342
f 340/340/340 335/335/335 344/344/344
f 345/345/345 340/340/340 344/344/344
f 345/345/345 344/344/344 346/346/346
f 347/347/347 345/345/345 346/346/346
f 331/331/331 349/349/349 348/348/348
f 332/332/332 331/331/331 348/348/348
f 351/351/351 350/350/350 324/324/324
f 325/325/325 351/351/351 324/324/324
f 302/302/302 303/303/303 352/352/352
f 353/353/353 302/302/302 352/352/352
f 354/354/354 313/313/313 312/312/312
f 355/355/355 354/354/354 312/312/312
f 347/347/347 346/346/346 356/356/356
f 357/357/357 347/347/347 356/356/356
f 359/359/359 358/358/358 343/343/343
f 342/342/342 359/359/359 343/343/343
f 362/362/362 361/361/361 360/360/360
f 363/363/363 362/362/362 360/360/360
f 364/364/364 363/363/363 360/360/360
f 361/361/361 366/366/366 365/365/365
f 360/360/360 361/361/361 365/365/365
f 367/367/367 360/360/360 365/365/365
f 359/359/359 369/369/369 368/368/368
f 358/358/358 359/359/359 368/368/368
f 370/370/370 358/358/358 368/368/368
f 365/365/365 371/371/371 369/369/369
f 367/367/367 365/365/365 369/369/369
f 359/359/359 367/367/367 369/369/369
f 373/373/373 372/372/372 363/363/363
f 357/357/357 373/373/373 363/363/363
f 364/364/364 357/357/357 363/363/363
f 373/373/373 357/357/357 356/356/356
f 374/374/374 373/373/373 356/356/356
f 375/375/375 374/374/374 356/356/356
f 377/377/377 376/376/376 375/375/375
f 378/378/378 377/377/377 375/375/375
f 379/379/379 378/378/378 375/375/375
f 356/356/356 379/379/379 375/375/375
f 381/381/381 380/380/380 377/377/377
f 348/348/348 381/381/381 377/377/377
f 378/378/378 348/348/348 377/377/377
f 349/349/349 383/383/383 382/382/382
f 348/348/348 349/349/349 382/382/382
f 381/381/381 348/348/348 382/382/382
f 384/384/384 381/381/381 382/382/382
f 386/386/386 385/385/385 383/383/383
f 387/387/387 386/386/386 383/383/383
f 349/349/349 387/387/387 383/383/383
f 389/389/389 388/388/388 386/386/386
f 390/390/390 389/389/389 386/386/386
f 387/387/387 390/390/390 386/386/386
f 392/392/392 391/391/391 389/389/389
f 354/354/354 392/392/392 389/389/389
f 390/390/390 354/354/354 389/389/389
f 355/355/355 394/394/394 393/393/393
f 354/354/354 355/355/355 393/393/393
f 392/392/392 354/354/354 393/393/393
f 396/396/396 395/395/395 394/394/394
f 397/397/397 396/396/396 394/394/394
f 398/398/398 397/397/397 394/394/394
f 355/355/355 398/398/398 394/394/394
f 400/400/400 399/399/399 396/396/396
f 353/353/353 400/400/400 396/396/396
f 401/401/401 353/353/353 396/396/396
f 397/397/397 401/401/401 396/396/396
f 400/400/400 353/353/353 352/352/352
f 402/402/402 400/400/400 352/352/352
f 403/403/403 402/402/402 352/352/352
f 405/405/405 404/404/404 403/403/403
f 406/406/406 405/405/405 403/403/403
f 352/352/352 406/406/406 403/403/403
f 408/408/408 407/407/407 405/405/405
f 409/409/409 408/408/408 405/405/405
f 406/406/406 409/409/409 405/405/405
f 411/411/411 410/410/410 408/408/408
f 350/350/350 411/411/411 408/408/408
f 409/409/409 350/350/350 408/408/408
f 414/414/414 413/413/413 412/412/412
f 417/417/417 416/416/416 415/415/415
f 370/370/370 417/417/417 415/415/415
f 358/358/358 370/370/370 415/415/415
f 418/418/418 358/358/358 415/415/415
f 416/416/416 420/420/420 419/419/419
f 415/415/415 416/416/416 419/419/419
f 351/351/351 415/415/415 419/419/419
f 421/421/421 53/53/53 54/54/54
f 222/222/222 421/421/421 54/54/54
f 423/423/423 422/422/422 293/293/293
f 278/278/278 423/423/423 293/293/293
f 424/424/424 136/136/136 119/119/119
f 425/425/425 424/424/424 119/119/119
f 176/176/176 132/132/132 139/139/139
f 426/426/426 176/176/176 139/139/139
f 214/214/214 154/154/154 150/150/150
f 214/214/214 214/214/214 150/150/150
f 427/427/427 214/214/214 150/150/150
f 175/175/175 426/426/426 428/428/428
f 174/174/174 175/175/175 428/428/428
f 429/429/429 174/174/174 428/428/428
f 430/430/430 429/429/429 428/428/428
f 432/432/432 431/431/431 233/233/233
f 234/234/234 432/432/432 233/233/233
f 419/419/419 413/413/413 414/414/414
f 351/351/351 419/419/419 414/414/414
f 350/350/350 351/351/351 414/414/414
f 411/411/411 350/350/350 414/414/414
f 433/433/433 384/384/384 382/382/382
f 301/301/301 298/298/298 262/262/262
f 263/263/263 301/301/301 262/262/262
f 297/297/297 294/294/294 218/218/218
f 219/219/219 297/297/297 218/218/218
f 293/293/293 290/290/290 277/277/277
f 278/278/278 293/293/293 277/277/277
f 289/289/289 287/287/287 241/241/241
f 242/242/242 289/289/289 241/241/241
f 286/286/286 283/283/283 224/224/224
f 225/225/225 286/286/286 224/224/224
f 17/17/17 280/280/280 236/236/236
f 20/20/20 17/17/17 236/236/236
f 279/279/279 276/276/276 273/273/273
f 274/274/274 279/279/279 273/273/273
f 275/275/275 272/272/272 232/232/232
f 233/233/233 275/275/275 232/232/232
f 271/271/271 268/268/268 265/265/265
f 266/266/266 271/271/271 265/265/265
f 267/267/267 264/264/264 228/228/228
f 229/229/229 267/267/267 228/228/228
f 210/210/210 261/261/261 252/252/252
f 213/213/213 210/210/210 252/252/252
f 51/51/51 258/258/258 221/221/221
f 54/54/54 51/51/51 221/221/221
f 257/257/257 254/254/254 295/295/295
f 296/296/296 257/257/257 295/295/295
f 253/253/253 251/251/251 281/281/281
f 282/282/282 253/253/253 281/281/281
f 203/203/203 248/248/248 239/239/239
f 199/199/199 203/203/203 239/239/239
f 247/247/247 244/244/244 284/284/284
f 285/285/285 247/247/247 284/284/284
f 243/243/243 240/240/240 299/299/299
f 300/300/300 243/243/243 299/299/299
f 202/202/202 238/238/238 255/255/255
f 256/256/256 202/202/202 255/255/255
f 237/237/237 235/235/235 259/259/259
f 260/260/260 237/237/237 259/259/259
f 234/234/234 231/231/231 245/245/245
f 246/246/246 234/234/234 245/245/245
f 230/230/230 227/227/227 291/291/291
f 292/292/292 230/230/230 291/291/291
f 226/226/226 223/223/223 249/249/249
f 250/250/250 226/226/226 249/249/249
f 222/222/222 220/220/220 269/269/269
f 270/270/270 222/222/222 269/269/269
f 37/37/37 217/217/217 288/288/288
f 40/40/40 37/37/37 288/288/288
f 435/435/435 434/434/434 286/286/286
f 225/225/225 435/435/435 286/286/286
f 426/426/426 139/139/139 141/141/141
f 428/428/428 426/426/426 141/141/141
f 172/172/172 436/436/436 46/46/46
f 429/429/429 172/172/172 46/46/46
f 437/437/437 196/196/196 216/216/216
f 438/438/438 437/437/437 216/216/216
f 439/439/439 438/438/438 216/216/216
f 38/38/38 440/440/440 219/219/219
f 37/37/37 38/38/38 219/219/219
f 441/441/441 21/21/21 42/42/42
f 182/182/182 441/441/441 42/42/42
f 444/444/444 443/443/443 442/442/442
f 425/425/425 119/119/119 120/120/120
f 193/193/193 425/425/425 120/120/120
f 446/446/446 445/445/445 247/247/247
f 285/285/285 446/446/446 247/247/247
f 437/437/437 447/447/447 64/64/64
f 61/61/61 437/437/437 64/64/64
f 34/34/34 448/448/448 104/104/104
f 113/113/113 34/34/34 104/104/104
f 450/450/450 449/449/449 270/270/270
f 271/271/271 450/450/450 270/270/270
f 430/430/430 130/130/130 126/126/126
f 451/451/451 430/430/430 126/126/126
f 186/186/186 178/178/178 65/65/65
f 83/83/83 186/186/186 65/65/65
f 449/449/449 421/421/421 222/222/222
f 270/270/270 449/449/449 222/222/222
f 453/453/453 452/452/452 256/256/256
f 257/257/257 453/453/453 256/256/256
f 455/455/455 454/454/454 237/237/237
f 260/260/260 455/455/455 237/237/237
f 458/458/458 457/457/457 456/456/456
f 447/447/447 458/458/458 456/456/456
f 460/460/460 459/459/459 439/439/439
f 460/460/460 439/439/439 208/208/208
f 461/461/461 460/460/460 208/208/208
f 463/463/463 462/462/462 253/253/253
f 282/282/282 463/463/463 253/253/253
f 208/208/208 209/209/209 461/461/461
f 207/207/207 188/188/188 189/189/189
f 464/464/464 207/207/207 189/189/189
f 189/189/189 465/465/465 464/464/464
f 441/441/441 467/467/467 466/466/466
f 214/214/214 469/469/469 468/468/468
f 471/471/471 470/470/470 243/243/243
f 300/300/300 471/471/471 243/243/243
f 472/472/472 467/467/467 441/441/441
f 474/474/474 473/473/473 289/289/289
f 242/242/242 474/474/474 289/289/289
f 469/469/469 214/214/214 475/475/475
f 477/477/477 476/476/476 427/427/427
f 477/477/477 427/427/427 444/444/444
f 442/442/442 477/477/477 444/444/444
f 479/479/479 478/478/478 205/205/205
f 206/206/206 479/479/479 205/205/205
f 444/444/444 205/205/205 478/478/478
f 443/443/443 444/444/444 478/478/478
f 482/482/482 481/481/481 480/480/480
f 425/425/425 482/482/482 480/480/480
f 479/479/479 206/206/206 14/14/14
f 15/15/15 479/479/479 14/14/14
f 484/484/484 483/483/483 480/480/480
f 481/481/481 484/484/484 480/480/480
f 16/16/16 13/13/13 485/485/485
f 486/486/486 16/16/16 485/485/485
f 486/486/486 485/485/485 487/487/487
f 488/488/488 486/486/486 487/487/487
f 490/490/490 487/487/487 489/489/489
f 491/491/491 490/490/490 489/489/489
f 493/493/493 492/492/492 226/226/226
f 250/250/250 493/493/493 226/226/226
f 491/491/491 489/489/489 483/483/483
f 484/484/484 491/491/491 483/483/483
f 482/482/482 425/425/425 193/193/193
f 194/194/194 482/482/482 193/193/193
f 495/495/495 494/494/494 167/167/167
f 168/168/168 495/495/495 167/167/167
f 473/473/473 39/39/39 40/40/40
f 289/289/289 473/473/473 40/40/40
f 169/169/169 496/496/496 195/195/195
f 497/497/497 432/432/432 234/234/234
f 246/246/246 497/497/497 234/234/234
f 169/169/169 167/167/167 494/494/494
f 496/496/496 169/169/169 494/494/494
f 499/499/499 498/498/498 168/168/168
f 168/168/168 500/500/500 495/495/495
f 501/501/501 423/423/423 278/278/278
f 279/279/279 501/501/501 278/278/278
f 448/448/448 502/502/502 168/168/168
f 504/504/504 448/448/448 503/503/503
f 34/34/34 35/35/35 503/503/503
f 448/448/448 34/34/34 503/503/503
f 36/36/36 33/33/33 505/505/505
f 507/507/507 506/506/506 229/229/229
f 230/230/230 507/507/507 229/229/229
f 505/505/505 33/33/33 183/183/183
f 508/508/508 505/505/505 183/183/183
f 508/508/508 183/183/183 509/509/509
f 510/510/510 450/450/450 271/271/271
f 266/266/266 510/510/510 271/271/271
f 511/511/511 509/509/509 183/183/183
f 184/184/184 511/511/511 183/183/183
f 513/513/513 186/186/186 512/512/512
f 514/514/514 513/513/513 512/512/512
f 514/514/514 512/512/512 515/515/515
f 516/516/516 514/514/514 515/515/515
f 431/431/431 517/517/517 275/275/275
f 233/233/233 431/431/431 275/275/275
f 518/518/518 151/151/151 161/161/161
f 519/519/519 518/518/518 161/161/161
f 445/445/445 497/497/497 246/246/246
f 247/247/247 445/445/445 246/246/246
f 454/454/454 19/19/19 20/20/20
f 237/237/237 454/454/454 20/20/20
f 452/452/452 201/201/201 202/202/202
f 256/256/256 452/452/452 202/202/202
f 520/520/520 510/510/510 266/266/266
f 267/267/267 520/520/520 266/266/266
f 184/184/184 115/115/115 117/117/117
f 521/521/521 184/184/184 117/117/117
f 516/516/516 515/515/515 522/522/522
f 523/523/523 516/516/516 522/522/522
f 422/422/422 524/524/524 292/292/292
f 293/293/293 422/422/422 292/292/292
f 204/204/204 493/493/493 250/250/250
f 203/203/203 204/204/204 250/250/250
f 524/524/524 507/507/507 230/230/230
f 292/292/292 524/524/524 230/230/230
f 511/511/511 184/184/184 525/525/525
f 526/526/526 501/501/501 279/279/279
f 274/274/274 526/526/526 279/279/279
f 33/33/33 107/107/107 108/108/108
f 183/183/183 33/33/33 108/108/108
f 521/521/521 117/117/117 44/44/44
f 45/45/45 521/521/521 44/44/44
f 215/215/215 436/436/436 47/47/47
f 29/29/29 215/215/215 47/47/47
f 527/527/527 98/98/98 104/104/104
f 448/448/448 527/527/527 104/104/104
f 175/175/175 97/97/97 98/98/98
f 527/527/527 175/175/175 98/98/98
f 46/46/46 43/43/43 101/101/101
f 429/429/429 46/46/46 101/101/101
f 101/101/101 112/112/112 174/174/174
f 429/429/429 101/101/101 174/174/174
f 113/113/113 107/107/107 33/33/33
f 34/34/34 113/113/113 33/33/33
f 444/444/444 147/147/147 160/160/160
f 205/205/205 444/444/444 160/160/160
f 178/178/178 521/521/521 45/45/45
f 177/177/177 178/178/178 45/45/45
f 512/512/512 59/59/59 4/4/4
f 515/515/515 512/512/512 4/4/4
f 437/437/437 61/61/61 75/75/75
f 196/196/196 437/437/437 75/75/75
f 186/186/186 184/184/184 521/521/521
f 178/178/178 186/186/186 521/521/521
f 522/522/522 1/1/1 94/94/94
f 456/456/456 522/522/522 94/94/94
f 456/456/456 94/94/94 64/64/64
f 447/447/447 456/456/456 64/64/64
f 177/177/177 45/45/45 215/215/215
f 198/198/198 177/177/177 215/215/215
f 197/197/197 198/198/198 215/215/215
f 186/186/186 83/83/83 59/59/59
f 512/512/512 186/186/186 59/59/59
f 172/172/172 25/25/25 47/47/47
f 436/436/436 172/172/172 47/47/47
f 515/515/515 4/4/4 1/1/1
f 522/522/522 515/515/515 1/1/1
f 182/182/182 179/179/179 214/214/214
f 441/441/441 182/182/182 214/214/214
f 198/198/198 197/197/197 90/90/90
f 87/87/87 198/198/198 90/90/90
f 169/169/169 193/193/193 120/120/120
f 127/127/127 169/169/169 120/120/120
f 528/528/528 480/480/480 70/70/70
f 58/58/58 528/528/528 70/70/70
f 424/424/424 529/529/529 123/123/123
f 136/136/136 424/424/424 123/123/123
f 529/529/529 451/451/451 126/126/126
f 123/123/123 529/529/529 126/126/126
f 530/530/530 528/528/528 58/58/58
f 55/55/55 530/530/530 58/58/58
f 171/171/171 519/519/519 161/161/161
f 155/155/155 171/171/171 161/161/161
f 430/430/430 428/428/428 141/141/141
f 130/130/130 430/430/430 141/141/141
f 206/206/206 531/531/531 192/192/192
f 14/14/14 206/206/206 192/192/192
f 13/13/13 80/80/80 85/85/85
f 485/485/485 13/13/13 85/85/85
f 530/530/530 529/529/529 424/424/424
f 528/528/528 530/530/530 424/424/424
f 533/533/533 532/532/532 296/296/296
f 297/297/297 533/533/533 296/296/296
f 487/487/487 91/91/91 74/74/74
f 489/489/489 487/487/487 74/74/74
f 190/190/190 451/451/451 529/529/529
f 530/530/530 190/190/190 529/529/529
f 192/192/192 531/531/531 518/518/518
f 191/191/191 192/192/192 518/518/518
f 14/14/14 79/79/79 80/80/80
f 13/13/13 14/14/14 80/80/80
f 485/485/485 85/85/85 91/91/91
f 487/487/487 485/485/485 91/91/91
f 192/192/192 77/77/77 79/79/79
f 14/14/14 192/192/192 79/79/79
f 489/489/489 74/74/74 71/71/71
f 483/483/483 489/489/489 71/71/71
f 483/483/483 71/71/71 70/70/70
f 480/480/480 483/483/483 70/70/70
f 528/528/528 424/424/424 425/425/425
f 480/480/480 528/528/528 425/425/425
f 171/171/171 155/155/155 156/156/156
f 170/170/170 171/171/171 156/156/156
f 171/171/171 430/430/430 451/451/451
f 519/519/519 171/171/171 451/451/451
f 206/206/206 143/143/143 144/144/144
f 531/531/531 206/206/206 144/144/144
f 531/531/531 144/144/144 151/151/151
f 518/518/518 531/531/531 151/151/151
f 427/427/427 150/150/150 147/147/147
f 444/444/444 427/427/427 147/147/147
f 180/180/180 163/163/163 165/165/165
f 179/179/179 180/180/180 165/165/165
f 532/532/532 453/453/453 257/257/257
f 296/296/296 532/532/532 257/257/257
f 535/535/535 534/534/534 301/301/301
f 263/263/263 535/535/535 301/301/301
f 176/176/176 426/426/426 175/175/175
f 527/527/527 176/176/176 175/175/175
f 187/187/187 24/24/24 21/21/21
f 189/189/189 187/187/187 21/21/21
f 441/441/441 189/189/189 21/21/21
f 215/215/215 45/45/45 46/46/46
f 436/436/436 215/215/215 46/46/46
f 216/216/216 30/30/30 49/49/49
f 439/439/439 216/216/216 49/49/49
f 208/208/208 95/95/95 28/28/28
f 188/188/188 208/208/208 28/28/28
f 439/439/439 49/49/49 95/95/95
f 208/208/208 439/439/439 95/95/95
f 216/216/216 196/196/196 197/197/197
f 215/215/215 216/216/216 197/197/197
f 214/214/214 427/427/427 476/476/476
f 475/475/475 214/214/214 476/476/476
f 168/168/168 498/498/498 500/500/500
f 434/434/434 446/446/446 285/285/285
f 286/286/286 434/434/434 285/285/285
f 492/492/492 435/435/435 225/225/225
f 226/226/226 492/492/492 225/225/225
f 190/190/190 191/191/191 518/518/518
f 519/519/519 190/190/190 518/518/518
f 530/530/530 55/55/55 8/8/8
f 190/190/190 530/530/530 8/8/8
f 451/451/451 190/190/190 519/519/519
f 52/52/52 455/455/455 260/260/260
f 51/51/51 52/52/52 260/260/260
f 466/466/466 465/465/465 189/189/189
f 441/441/441 466/466/466 189/189/189
f 214/214/214 536/536/536 441/441/441
f 440/440/440 533/533/533 297/297/297
f 219/219/219 440/440/440 297/297/297
f 211/211/211 535/535/535 263/263/263
f 210/210/210 211/211/211 263/263/263
f 506/506/506 520/520/520 267/267/267
f 229/229/229 506/506/506 267/267/267
f 462/462/462 212/212/212 213/213/213
f 253/253/253 462/462/462 213/213/213
f 18/18/18 463/463/463 282/282/282
f 17/17/17 18/18/18 282/282/282
f 429/429/429 430/430/430 171/171/171
f 172/172/172 429/429/429 171/171/171
f 537/537/537 522/522/522 456/456/456
f 457/457/457 537/537/537 456/456/456
f 517/517/517 526/526/526 274/274/274
f 275/275/275 517/517/517 274/274/274
f 176/176/176 527/527/527 448/448/448
f 168/168/168 176/176/176 448/448/448
f 448/448/448 504/504/504 538/538/538
f 470/470/470 474/474/474 242/242/242
f 243/243/243 470/470/470 242/242/242
f 534/534/534 471/471/471 300/300/300
f 301/301/301 534/534/534 300/300/300
f 195/195/195 540/540/540 539/539/539
f 194/194/194 195/195/195 539/539/539
f 540/540/540 446/446/446 434/434/434
f 539/539/539 540/540/540 434/434/434
f 477/477/477 542/542/542 541/541/541
f 476/476/476 477/477/477 541/541/541
f 542/542/542 39/39/39 473/473/473
f 541/541/541 542/542/542 473/473/473
f 36/36/36 544/544/544 543/543/543
f 35/35/35 36/36/36 543/543/543
f 544/544/544 524/524/524 422/422/422
f 543/543/543 544/544/544 422/422/422
f 508/508/508 546/546/546 545/545/545
f 505/505/505 508/508/508 545/545/545
f 546/546/546 506/506/506 507/507/507
f 545/545/545 546/546/546 507/507/507
f 525/525/525 548/548/548 547/547/547
f 511/511/511 525/525/525 547/547/547
f 548/548/548 450/450/450 510/510/510
f 547/547/547 548/548/548 510/510/510
f 207/207/207 550/550/550 549/549/549
f 209/209/209 207/207/207 549/549/549
f 550/550/550 462/462/462 463/463/463
f 549/549/549 550/550/550 463/463/463
f 553/553/553 552/552/552 551/551/551
f 458/458/458 553/553/553 551/551/551
f 552/552/552 454/454/454 455/455/455
f 551/551/551 552/552/552 455/455/455
f 495/495/495 555/555/555 554/554/554
f 494/494/494 495/495/495 554/554/554
f 555/555/555 432/432/432 497/497/497
f 554/554/554 555/555/555 497/497/497
f 16/16/16 557/557/557 556/556/556
f 15/15/15 16/16/16 556/556/556
f 557/557/557 452/452/452 453/453/453
f 556/556/556 557/557/557 453/453/453
f 194/194/194 539/539/539 558/558/558
f 482/482/482 194/194/194 558/558/558
f 539/539/539 434/434/434 435/435/435
f 558/558/558 539/539/539 435/435/435
f 496/496/496 559/559/559 540/540/540
f 195/195/195 496/496/496 540/540/540
f 559/559/559 445/445/445 446/446/446
f 540/540/540 559/559/559 446/446/446
f 476/476/476 541/541/541 560/560/560
f 475/475/475 476/476/476 560/560/560
f 541/541/541 473/473/473 474/474/474
f 560/560/560 541/541/541 474/474/474
f 442/442/442 561/561/561 542/542/542
f 477/477/477 442/442/442 542/542/542
f 561/561/561 38/38/38 39/39/39
f 542/542/542 561/561/561 39/39/39
f 443/443/443 562/562/562 561/561/561
f 442/442/442 443/443/443 561/561/561
f 562/562/562 440/440/440 38/38/38
f 561/561/561 562/562/562 38/38/38
f 478/478/478 563/563/563 562/562/562
f 443/443/443 478/478/478 562/562/562
f 563/563/563 533/533/533 440/440/440
f 562/562/562 563/563/563 440/440/440
f 479/479/479 564/564/564 563/563/563
f 478/478/478 479/479/479 563/563/563
f 564/564/564 532/532/532 533/533/533
f 563/563/563 564/564/564 533/533/533
f 15/15/15 556/556/556 564/564/564
f 479/479/479 15/15/15 564/564/564
f 556/556/556 453/453/453 532/532/532
f 564/564/564 556/556/556 532/532/532
f 460/460/460 565/565/565 552/552/552
f 459/459/459 460/460/460 552/552/552
f 565/565/565 19/19/19 454/454/454
f 552/552/552 565/565/565 454/454/454
f 461/461/461 566/566/566 565/565/565
f 460/460/460 461/461/461 565/565/565
f 566/566/566 18/18/18 19/19/19
f 565/565/565 566/566/566 19/19/19
f 209/209/209 549/549/549 566/566/566
f 461/461/461 209/209/209 566/566/566
f 549/549/549 463/463/463 18/18/18
f 566/566/566 549/549/549 18/18/18
f 475/475/475 560/560/560 567/567/567
f 469/469/469 475/475/475 567/567/567
f 560/560/560 474/474/474 470/470/470
f 567/567/567 560/560/560 470/470/470
f 469/469/469 567/567/567 568/568/568
f 468/468/468 469/469/469 568/568/568
f 567/567/567 470/470/470 471/471/471
f 568/568/568 567/567/567 471/471/471
f 472/472/472 568/568/568 569/569/569
f 467/467/467 472/472/472 569/569/569
f 568/568/568 471/471/471 534/534/534
f 569/569/569 568/568/568 534/534/534
f 467/467/467 569/569/569 570/570/570
f 466/466/466 467/467/467 570/570/570
f 569/569/569 534/534/534 535/535/535
f 570/570/570 569/569/569 535/535/535
f 464/464/464 571/571/571 550/550/550
f 207/207/207 464/464/464 550/550/550
f 571/571/571 212/212/212 462/462/462
f 550/550/550 571/571/571 462/462/462
f 465/465/465 572/572/572 571/571/571
f 464/464/464 465/465/465 571/571/571
f 572/572/572 211/211/211 212/212/212
f 571/571/571 572/572/572 212/212/212
f 466/466/466 570/570/570 572/572/572
f 465/465/465 466/466/466 572/572/572
f 570/570/570 535/535/535 211/211/211
f 572/572/572 570/570/570 211/211/211
f 499/499/499 574/574/574 573/573/573
f 498/498/498 499/499/499 573/573/573
f 574/574/574 526/526/526 517/517/517
f 573/573/573 574/574/574 517/517/517
f 498/498/498 573/573/573 575/575/575
f 500/500/500 498/498/498 575/575/575
f 573/573/573 517/517/517 431/431/431
f 575/575/575 573/573/573 431/431/431
f 504/504/504 576/576/576 574/574/574
f 538/538/538 504/504/504 574/574/574
f 576/576/576 501/501/501 526/526/526
f 574/574/574 576/576/576 526/526/526
f 503/503/503 577/577/577 576/576/576
f 504/504/504 503/503/503 576/576/576
f 577/577/577 423/423/423 501/501/501
f 576/576/576 577/577/577 501/501/501
f 35/35/35 543/543/543 577/577/577
f 503/503/503 35/35/35 577/577/577
f 543/543/543 422/422/422 423/423/423
f 577/577/577 543/543/543 423/423/423
f 511/511/511 547/547/547 578/578/578
f 509/509/509 511/511/511 578/578/578
f 547/547/547 510/510/510 520/520/520
f 578/578/578 547/547/547 520/520/520
f 509/509/509 578/578/578 546/546/546
f 508/508/508 509/509/509 546/546/546
f 578/578/578 520/520/520 506/506/506
f 546/546/546 578/578/578 506/506/506
f 505/505/505 545/545/545 544/544/544
f 36/36/36 505/505/505 544/544/544
f 545/545/545 507/507/507 524/524/524
f 544/544/544 545/545/545 524/524/524
f 493/493/493 580/580/580 579/579/579
f 492/492/492 493/493/493 579/579/579
f 580/580/580 484/484/484 481/481/481
f 579/579/579 580/580/580 481/481/481
f 492/492/492 579/579/579 558/558/558
f 435/435/435 492/492/492 558/558/558
f 579/579/579 481/481/481 482/482/482
f 558/558/558 579/579/579 482/482/482
f 484/484/484 580/580/580 581/581/581
f 491/491/491 484/484/484 581/581/581
f 580/580/580 493/493/493 204/204/204
f 581/581/581 580/580/580 204/204/204
f 514/514/514 582/582/582 548/548/548
f 513/513/513 514/514/514 548/548/548
f 582/582/582 449/449/449 450/450/450
f 548/548/548 582/582/582 450/450/450
f 516/516/516 583/583/583 582/582/582
f 514/514/514 516/516/516 582/582/582
f 583/583/583 421/421/421 449/449/449
f 582/582/582 583/583/583 449/449/449
f 523/523/523 584/584/584 583/583/583
f 516/516/516 523/523/523 583/583/583
f 584/584/584 53/53/53 421/421/421
f 583/583/583 584/584/584 421/421/421
f 458/458/458 551/551/551 585/585/585
f 457/457/457 458/458/458 585/585/585
f 551/551/551 455/455/455 52/52/52
f 585/585/585 551/551/551 52/52/52
f 457/457/457 585/585/585 584/584/584
f 537/537/537 457/457/457 584/584/584
f 585/585/585 52/52/52 53/53/53
f 584/584/584 585/585/585 53/53/53
f 488/488/488 587/587/587 586/586/586
f 486/486/486 488/488/488 586/586/586
f 587/587/587 200/200/200 201/201/201
f 586/586/586 587/587/587 201/201/201
f 486/486/486 586/586/586 557/557/557
f 16/16/16 486/486/486 557/557/557
f 586/586/586 201/201/201 452/452/452
f 557/557/557 586/586/586 452/452/452
f 491/491/491 581/581/581 587/587/587
f 490/490/490 491/491/491 587/587/587
f 581/581/581 204/204/204 200/200/200
f 587/587/587 581/581/581 200/200/200
f 500/500/500 575/575/575 555/555/555
f 495/495/495 500/500/500 555/555/555
f 575/575/575 431/431/431 432/432/432
f 555/555/555 575/575/575 432/432/432
f 494/494/494 554/554/554 559/559/559
f 496/496/496 494/494/494 559/559/559
f 554/554/554 497/497/497 445/445/445
f 559/559/559 554/554/554 445/445/445
f 553/553/553 458/458/458 447/447/447
f 437/437/437 553/553/553 447/447/447
