# VPXTOOL table OBJ file
# VPXTOOL OBJ file
# numVerts: 506 numFaces: 1004
o bumperscrews2
v 33.022125 4.417476 -93.52924
v 32.962772 4.273951 -94.05112
v 34.461502 3.272488 -94.05112
v 34.571144 3.382126 -93.52924
v 29.426619 4.273983 -94.051125
v 29.367046 4.417295 -93.52924
v 27.81783 3.382189 -93.52924
v 27.927471 3.272547 -94.051125
v 27.89645 -3.292566 -92.80144
v 27.817888 -3.371128 -93.52924
v 26.78254 -1.822108 -93.52924
v 26.88549 -1.77916 -92.80143
v 26.419065 0.005543 -93.52924
v 26.530434 0.005541 -92.80143
v 26.926065 -1.762756 -94.051125
v 27.927528 -3.261487 -94.051125
v 28.254293 -2.934723 -94.483406
v 27.352978 -1.58578 -94.483406
v 26.574463 0.005542 -94.051125
v 31.194475 4.625553 -94.051125
v 31.19448 4.163679 -94.483406
v 32.785797 3.84704 -94.483406
v 35.814785 0.005241 -94.05112
v 35.352695 0.005463 -94.483406
v 35.036087 -1.58585 -94.483406
v 35.46322 -1.762617 -94.05112
v 26.782722 1.83297 -93.52924
v 26.885242 1.790451 -92.80143
v 28.254242 2.945776 -94.483406
v 29.603168 3.84707 -94.483406
v 27.036339 0.005538 -94.483406
v 29.426476 -4.263168 -94.05112
v 29.603237 -3.836043 -94.483406
v 26.926037 1.7734 -94.051125
v 35.46318 1.773539 -94.05112
v 35.036057 1.596777 -94.483406
v 27.927513 -1.347507 -94.8623
v 27.658363 0.005532 -94.8623
v 31.194473 4.780951 -93.52924
v 34.13474 2.945723 -94.483406
v 31.194553 -4.152678 -94.483406
v 32.785866 -3.836072 -94.483406
v 32.548016 -3.261529 -94.8623
v 31.19455 -3.530656 -94.8623
v 27.896608 3.30341 -92.80143
v 34.134796 -2.934778 -94.483406
v 34.461563 -3.261547 -94.05112
v 35.60631 -1.821972 -93.52924
v 34.57142 -3.371405 -93.52924
v 27.352947 1.596848 -94.483406
v 34.461517 1.358507 -94.8623
v 34.730675 0.005468 -94.8623
v 32.962635 -4.2632 -94.05112
v 33.021988 -4.406297 -93.52924
v 31.194775 -4.61477 -94.05112
v 29.841236 3.272314 -94.8623
v 31.194487 3.541656 -94.8623
v 34.461548 -1.347998 -94.8623
v 27.927704 1.358783 -94.8623
v 29.841507 -3.261504 -94.8623
v 32.547523 3.272504 -94.8623
v 29.799845 -2.344011 -95.17361
v 30.384315 -2.843448 -95.079414
v 31.194752 -2.219059 -95.30755
v 30.439775 -1.816744 -95.368126
v 28.69415 -2.494865 -94.8623
v 28.4958 -2.198098 -94.8623
v 33.89345 2.208883 -94.8623
v 33.79827 1.758448 -95.00096
v 31.58645 1.594437 -95.4415
v 31.949257 1.827744 -95.368126
v 31.194498 2.229843 -95.30755
v 32.589188 2.355011 -95.17361
v 32.947464 2.609257 -95.00096
v 32.00364 2.853369 -95.07999
v 35.606277 1.83289 -93.52924
v 35.18325 1.65764 -92.73441
v 34.247402 3.058386 -92.73441
v 34.49258 3.303564 -92.80143
v 35.50354 1.790155 -92.80143
v 32.877884 0.702806 -92.70989
v 32.482895 1.293901 -92.70989
v 35.51198 0.005461 -92.73441
v 35.858597 0.005457 -92.80143
v 33.016575 0.005619 -92.70989
v 29.542374 -3.983237 -92.73441
v 28.14163 -3.047386 -92.73441
v 29.906162 -1.282832 -92.70989
v 30.497253 -1.677826 -92.70989
v 29.409859 -4.303529 -92.80144
v 35.183285 -1.646713 -92.73441
v 34.24746 -3.047443 -92.73441
v 32.482918 -1.282857 -92.70989
v 32.8779 -0.691769 -92.70989
v 35.50358 -1.779669 -92.80143
v 34.492645 -3.292627 -92.80143
v 35.969967 0.005455 -93.52924
v 28.141579 3.05844 -92.73441
v 27.20575 1.657714 -92.73441
v 29.906136 1.293925 -92.70989
v 29.511156 0.702839 -92.70989
v 27.205782 -1.646643 -92.73441
v 26.877056 0.005538 -92.73441
v 29.372478 0.005452 -92.70989
v 29.511168 -0.691738 -92.70989
v 29.366909 -4.406479 -93.52924
v 32.84666 3.994235 -92.73441
v 32.979176 4.314525 -92.80143
v 31.8918 1.688894 -92.70989
v 31.194553 -4.311961 -92.73441
v 31.194443 -1.816513 -92.70989
v 31.194557 -4.658585 -92.80143
v 31.19456 -4.769953 -93.52924
v 31.194479 4.32296 -92.73441
v 31.194475 4.669582 -92.80143
v 31.19461 1.827584 -92.70989
v 32.84673 -3.983268 -92.73441
v 31.89183 -1.677837 -92.70989
v 32.97947 -4.303777 -92.80143
v 29.542305 3.994268 -92.73441
v 29.409351 4.314559 -92.80143
v 30.497225 1.688908 -92.70989
v 34.042397 -0.803671 -95.07999
v 34.04239 0.005259 -95.1229
v 32.40209 -0.491136 -93.237854
v 32.535477 -0.699198 -93.237854
v 33.543835 -1.389431 -95.17361
v 33.016777 -0.749273 -95.368126
v 32.610367 -0.900568 -93.237854
v 33.798088 -1.747278 -95.00096
v 29.918089 1.281929 -93.237854
v 30.09032 1.396317 -93.237854
v 28.99087 2.704256 -94.8623
v 28.694107 2.505912 -94.8623
v 30.288452 1.421351 -93.237854
v 29.44174 2.60907 -95.00096
v 32.297394 1.396297 -93.237854
v 32.469845 1.28126 -93.237854
v 33.694885 2.505867 -94.8623
v 33.398117 2.704218 -94.8623
v 32.0984 1.421336 -93.237854
v 30.290634 -1.410336 -93.237854
v 30.091423 -1.385082 -93.237854
v 28.991135 -2.693433 -94.8623
v 29.44157 -2.598256 -95.00096
v 32.584236 1.108595 -93.237854
v 32.609276 0.909599 -93.237854
v 31.452208 1.095005 -93.237854
v 31.68703 1.213279 -93.237854
v 29.918758 -1.270258 -93.237854
v 29.803936 -1.097595 -93.237854
v 29.77868 -0.898382 -93.237854
v 29.853142 -0.696151 -93.237854
v 28.845007 -1.389172 -95.17361
v 28.590763 -1.747447 -95.00096
v 30.105007 0.267959 -93.237854
v 29.986946 0.502135 -93.237854
v 29.372261 0.760274 -95.368126
v 29.6114 0.427461 -95.4415
v 33.419075 0.005264 -95.30755
v 32.283806 0.263405 -93.237854
v 32.238052 0.003115 -93.237854
v 32.67511 0.005486 -95.46376
v 32.78367 0.397217 -95.4415
v 31.192135 1.049037 -93.237854
v 31.194504 1.486094 -95.46376
v 30.701788 -1.202496 -93.237854
v 30.492867 -1.335876 -93.237854
v 29.778667 0.911567 -93.237854
v 29.8037 1.109698 -93.237854
v 28.495762 2.209147 -94.8623
v 28.590946 1.758277 -95.00096
v 32.534813 0.707367 -93.237854
v 32.401863 0.498445 -93.237854
v 33.01676 0.760241 -95.368126
v 33.54403 1.400171 -95.17361
v 31.896168 1.346876 -93.237854
v 32.284027 -0.25696 -93.237854
v 32.777634 -0.416464 -95.4415
v 30.697882 1.213072 -93.237854
v 30.932056 1.09501 -93.237854
v 30.772556 1.588614 -95.4415
v 30.439745 1.827759 -95.368126
v 28.34665 -0.80362 -95.07547
v 32.298714 -1.385318 -93.237854
v 32.100586 -1.410353 -93.237854
v 32.947292 -2.598071 -95.00096
v 33.398163 -2.693256 -94.8623
v 29.986523 -0.487229 -93.237854
v 29.372272 -0.74924 -95.368126
v 30.104794 -0.252408 -93.237854
v 29.605581 -0.386433 -95.4415
v 29.853561 0.710196 -93.237854
v 28.845196 1.40043 -95.17361
v 30.489822 1.346457 -93.237854
v 29.799587 2.354819 -95.17361
v 31.899214 -1.335459 -93.237854
v 31.69115 -1.202072 -93.237854
v 31.949291 -1.816758 -95.368126
v 32.589447 -2.343821 -95.17361
v 30.15098 0.007883 -93.237854
v 29.713924 0.005514 -95.46376
v 30.936607 -1.084224 -93.237854
v 30.8028 -1.583652 -95.4415
v 31.1969 -1.038039 -93.237854
v 31.19453 -1.475094 -95.46376
v 31.456974 -1.084011 -93.237854
v 31.616478 -1.577618 -95.4415
v 30.385345 2.853383 -95.07999
v 31.194492 2.853159 -95.1229
v 32.585117 -1.098914 -93.237854
v 33.893272 -2.198148 -94.8623
v 32.470947 -1.270929 -93.237854
v 33.694927 -2.494911 -94.8623
v 34.042385 0.814621 -95.07999
v 32.00369 -2.842381 -95.07999
v 31.194302 0.005285 -92.934906
v 28.970175 0.00552 -95.30755
v 28.346636 0.814672 -95.07722
v 28.346859 0.005525 -95.1229
v 31.194542 -2.862449 -95.11603
v 29.906136 1.293925 -78.32686
v 29.511156 0.702839 -78.32686
v 29.511156 0.702839 -78.86061
v 29.906136 1.293925 -78.86061
v 33.01658 0.005621 -78.32686
v 32.8779 -0.691767 -78.32686
v 32.482918 -1.282855 -78.32686
v 31.891832 -1.677835 -78.32686
v 31.194445 -1.816511 -78.32686
v 30.497255 -1.677824 -78.32686
v 29.906162 -1.282832 -78.32686
v 29.511168 -0.691738 -78.32686
v 29.372478 0.005452 -78.32686
v 30.497225 1.688908 -78.32686
v 31.19461 1.827584 -78.32686
v 31.8918 1.688894 -78.32686
v 32.482895 1.293901 -78.32686
v 32.877888 0.702808 -78.32686
v 31.891832 -1.677835 -78.86061
v 31.194445 -1.816511 -78.86061
v 29.372478 0.005452 -78.86061
v 30.497225 1.688908 -78.86061
v 31.19461 1.827584 -78.86061
v 32.877888 0.702808 -78.86061
v 33.01658 0.005621 -78.86061
v 29.906162 -1.282832 -78.86061
v 29.511168 -0.691738 -78.86061
v 32.8779 -0.691767 -78.86061
v 32.482918 -1.282855 -78.86061
v 30.497255 -1.677824 -78.86061
v 32.482895 1.293901 -78.86061
v 31.8918 1.688894 -78.86061
v -29.27061 4.417477 -93.52924
v -29.329964 4.273952 -94.05112
v -27.83123 3.272489 -94.05112
v -27.721592 3.382128 -93.52924
v -32.866116 4.27398 -94.051125
v -32.925686 4.417293 -93.52924
v -34.474903 3.382186 -93.52924
v -34.36526 3.272544 -94.051125
v -34.396286 -3.292566 -92.80144
v -34.474846 -3.371126 -93.52924
v -35.5102 -1.822111 -93.52924
v -35.407246 -1.77916 -92.80143
v -35.87367 0.005543 -93.52924
v -35.7623 0.005541 -92.80143
v -35.366673 -1.762756 -94.051125
v -34.365208 -3.261488 -94.051125
v -34.038445 -2.934723 -94.483406
v -34.93976 -1.585779 -94.483406
v -35.718273 0.005543 -94.051125
v -31.098263 4.625554 -94.051125
v -31.098255 4.16368 -94.483406
v -29.506939 3.847041 -94.483406
v -26.47795 0.005243 -94.05112
v -26.940039 0.005465 -94.483406
v -27.256647 -1.585848 -94.483406
v -26.82952 -1.762613 -94.05112
v -35.51001 1.832968 -93.52924
v -35.40749 1.790447 -92.80143
v -34.038494 2.945775 -94.483406
v -32.689568 3.84707 -94.483406
v -35.256397 0.005539 -94.483406
v -32.86626 -4.263167 -94.05112
v -32.6895 -3.83604 -94.483406
v -35.3667 1.773397 -94.051125
v -26.829552 1.77354 -94.05112
v -27.256676 1.59678 -94.483406
v -34.365223 -1.347507 -94.8623
v -34.634377 0.005533 -94.8623
v -31.09826 4.780951 -93.52924
v -28.157995 2.945724 -94.483406
v -31.098179 -4.152677 -94.483406
v -29.50687 -3.83607 -94.483406
v -29.74472 -3.261527 -94.8623
v -31.098185 -3.530655 -94.8623
v -34.396126 3.303407 -92.80143
v -28.157942 -2.934774 -94.483406
v -27.831173 -3.261544 -94.05112
v -26.686424 -1.821968 -93.52924
v -27.721313 -3.371402 -93.52924
v -34.93979 1.596848 -94.483406
v -27.831215 1.358508 -94.8623
v -27.562061 0.005469 -94.8623
v -29.330101 -4.263196 -94.05112
v -29.270748 -4.406293 -93.52924
v -31.097961 -4.614768 -94.05112
v -32.4515 3.272314 -94.8623
v -31.098251 3.541657 -94.8623
v -27.831188 -1.347997 -94.8623
v -34.365032 1.358784 -94.8623
v -32.451225 -3.261503 -94.8623
v -29.745213 3.272504 -94.8623
v -32.49289 -2.344009 -95.17361
v -31.908417 -2.843446 -95.079414
v -31.09798 -2.219056 -95.30755
v -31.852959 -1.816744 -95.368126
v -33.598587 -2.494865 -94.8623
v -33.796936 -2.198097 -94.8623
v -28.399284 2.208883 -94.8623
v -28.494461 1.758449 -95.00096
v -30.706287 1.594438 -95.4415
v -30.343477 1.827745 -95.368126
v -31.09824 2.229844 -95.30755
v -29.703548 2.355012 -95.17361
v -29.34527 2.609257 -95.00096
v -30.289099 2.853369 -95.07999
v -26.686457 1.832891 -93.52924
v -27.109482 1.657642 -92.73441
v -28.045332 3.058388 -92.73441
v -27.800154 3.303566 -92.80143
v -26.789192 1.790158 -92.80143
v -29.414848 0.70281 -92.70989
v -29.80984 1.293903 -92.70989
v -26.780758 0.005464 -92.73441
v -26.434135 0.00546 -92.80143
v -29.27616 0.005621 -92.70989
v -32.75036 -3.983235 -92.73441
v -34.151108 -3.047386 -92.73441
v -32.386574 -1.282831 -92.70989
v -31.79548 -1.677822 -92.70989
v -32.882877 -4.303527 -92.80144
v -27.109451 -1.646711 -92.73441
v -28.045277 -3.04744 -92.73441
v -29.809818 -1.282854 -92.70989
v -29.414835 -0.691767 -92.70989
v -26.789158 -1.779666 -92.80143
v -27.80009 -3.292624 -92.80143
v -26.322765 0.005457 -93.52924
v -34.151157 3.05844 -92.73441
v -35.086983 1.657713 -92.73441
v -32.386597 1.293924 -92.70989
v -32.78158 0.702839 -92.70989
v -35.086952 -1.646643 -92.73441
v -35.41568 0.005537 -92.73441
v -32.920258 0.005451 -92.70989
v -32.78157 -0.691736 -92.70989
v -32.925827 -4.40648 -93.52924
v -29.446075 3.994235 -92.73441
v -29.31356 4.314526 -92.80143
v -30.400936 1.688896 -92.70989
v -31.09818 -4.311958 -92.73441
v -31.098293 -1.816512 -92.70989
v -31.098175 -4.658582 -92.80143
v -31.098173 -4.769951 -93.52924
v -31.098255 4.322959 -92.73441
v -31.098259 4.669582 -92.80143
v -31.098125 1.827584 -92.70989
v -29.446005 -3.983265 -92.73441
v -30.400906 -1.677836 -92.70989
v -29.313267 -4.303774 -92.80143
v -32.75043 3.994267 -92.73441
v -32.88338 4.314555 -92.80143
v -31.795513 1.688909 -92.70989
v -28.250336 -0.80367 -95.07999
v -28.250343 0.00526 -95.1229
v -29.890646 -0.491135 -93.237854
v -29.75726 -0.699196 -93.237854
v -28.748898 -1.389428 -95.17361
v -29.275959 -0.749271 -95.368126
v -29.682365 -0.900565 -93.237854
v -28.494648 -1.747275 -95.00096
v -32.374645 1.281928 -93.237854
v -32.202415 1.396317 -93.237854
v -33.301865 2.704256 -94.8623
v -33.59863 2.505912 -94.8623
v -32.004284 1.421352 -93.237854
v -32.850998 2.609072 -95.00096
v -29.995338 1.396299 -93.237854
v -29.822891 1.28126 -93.237854
v -28.59785 2.505869 -94.8623
v -28.894619 2.704218 -94.8623
v -30.194336 1.421337 -93.237854
v -32.0021 -1.410335 -93.237854
v -32.201313 -1.385081 -93.237854
v -33.301598 -2.693432 -94.8623
v -32.851166 -2.598254 -95.00096
v -29.7085 1.108596 -93.237854
v -29.68346 0.9096 -93.237854
v -30.840527 1.095008 -93.237854
v -30.605705 1.21328 -93.237854
v -32.373978 -1.270258 -93.237854
v -32.4888 -1.097594 -93.237854
v -32.514053 -0.898381 -93.237854
v -32.439594 -0.69615 -93.237854
v -33.44773 -1.38917 -95.17361
v -33.701973 -1.747446 -95.00096
v -32.18773 0.267959 -93.237854
v -32.30579 0.502135 -93.237854
v -32.92048 0.760275 -95.368126
v -32.681335 0.427462 -95.4415
v -28.87366 0.005266 -95.30755
v -30.008926 0.263408 -93.237854
v -30.05468 0.003118 -93.237854
v -29.617626 0.005488 -95.46376
v -29.509066 0.397219 -95.4415
v -31.100601 1.049038 -93.237854
v -31.098232 1.486093 -95.46376
v -31.590946 -1.202494 -93.237854
v -31.79987 -1.335876 -93.237854
v -32.51407 0.911567 -93.237854
v -32.489037 1.109697 -93.237854
v -33.796974 2.209147 -94.8623
v -33.70179 1.758279 -95.00096
v -29.75792 0.707369 -93.237854
v -29.890871 0.498446 -93.237854
v -29.275972 0.760242 -95.368126
v -28.748707 1.400172 -95.17361
v -30.396568 1.346877 -93.237854
v -30.008707 -0.256958 -93.237854
v -29.515102 -0.416461 -95.4415
v -31.594854 1.213072 -93.237854
v -31.360678 1.095011 -93.237854
v -31.52018 1.588615 -95.4415
v -31.852993 1.82776 -95.368126
v -33.946087 -0.803619 -95.07547
v -29.994019 -1.385316 -93.237854
v -30.19215 -1.410351 -93.237854
v -29.34544 -2.598068 -95.00096
v -28.894571 -2.693254 -94.8623
v -32.306213 -0.487227 -93.237854
v -32.920464 -0.749241 -95.368126
v -32.187943 -0.252406 -93.237854
v -32.687157 -0.386431 -95.4415
v -32.439175 0.710196 -93.237854
v -33.44754 1.400431 -95.17361
v -31.802914 1.346457 -93.237854
v -32.49315 2.35482 -95.17361
v -30.39352 -1.335457 -93.237854
v -30.601582 -1.202071 -93.237854
v -30.343445 -1.816756 -95.368126
v -29.703289 -2.343818 -95.17361
v -32.141754 0.007883 -93.237854
v -32.57881 0.005514 -95.46376
v -31.356125 -1.084222 -93.237854
v -31.489933 -1.58365 -95.4415
v -31.095833 -1.038037 -93.237854
v -31.098204 -1.47509 -95.46376
v -30.835758 -1.08401 -93.237854
v -30.676254 -1.577615 -95.4415
v -31.90739 2.853383 -95.07999
v -31.098244 2.853158 -95.1229
v -29.707615 -1.098912 -93.237854
v -28.399464 -2.198146 -94.8623
v -29.821789 -1.270928 -93.237854
v -28.597807 -2.494909 -94.8623
v -28.25035 0.814622 -95.07999
v -30.289045 -2.842381 -95.07999
v -31.098434 0.005286 -92.934906
v -33.322563 0.005522 -95.30755
v -33.9461 0.814672 -95.07722
v -33.945877 0.005524 -95.1229
v -31.098192 -2.862446 -95.11603
v -32.386597 1.293926 -78.32686
v -32.781578 0.702841 -78.32686
v -32.781578 0.702841 -78.86061
v -32.386597 1.293926 -78.86061
v -29.27616 0.005621 -78.32686
v -29.414835 -0.691767 -78.32686
v -29.809818 -1.282854 -78.32686
v -30.400906 -1.677836 -78.32686
v -31.098293 -1.816512 -78.32686
v -31.79548 -1.677822 -78.32686
v -32.386574 -1.282831 -78.32686
v -32.781567 -0.691734 -78.32686
v -32.920258 0.005453 -78.32686
v -31.79551 1.68891 -78.32686
v -31.098122 1.827586 -78.32686
v -30.400934 1.688898 -78.32686
v -29.80984 1.293903 -78.32686
v -29.414848 0.70281 -78.32686
v -30.400906 -1.677836 -78.86061
v -31.098293 -1.816512 -78.86061
v -32.920258 0.005453 -78.86061
v -31.79551 1.68891 -78.86061
v -31.098122 1.827586 -78.86061
v -29.414848 0.70281 -78.86061
v -29.27616 0.005621 -78.86061
v -32.386574 -1.282831 -78.86061
v -32.781567 -0.691734 -78.86061
v -29.414835 -0.691767 -78.86061
v -29.809818 -1.282854 -78.86061
v -31.79548 -1.677822 -78.86061
v -29.80984 1.293903 -78.86061
v -30.400934 1.688898 -78.86061
vt 0.426514 0.16014999
vt 0.434623 0.20891398
vt 0.554824 0.21279198
vt 0.565034 0.16239703
vt 0.250534 0.334902
vt 0.208952 0.308262
vt 0.160706 0.43704402
vt 0.210961 0.446961
vt 0.420373 0.921056986
vt 0.435466 0.84028798
vt 0.306773 0.79177397
vt 0.263362 0.86046398
vt 0.209171 0.699147
vt 0.142226 0.74484402
vt 0.333389 0.75026798
vt 0.445323 0.79003
vt 0.454497 0.740947
vt 0.356793 0.71017498
vt 0.24909 0.67295098
vt 0.327841 0.250897
vt 0.353434 0.286695
vt 0.442722 0.25447798
vt 0.750595 0.330939
vt 0.713823 0.35492897
vt 0.746466 0.44429398
vt 0.792179 0.43743598
vt 0.158753 0.57469302
vt 0.078983 0.58991098
vt 0.260124 0.45617104
vt 0.290716 0.357912
vt 0.285057 0.64821798
vt 0.564732 0.79352099
vt 0.556732 0.748208
vt 0.207366 0.56667
vt 0.666756 0.253182
vt 0.643117 0.293159
vt 0.376903 0.670936
vt 0.320555 0.623878
vt 0.301586 0.210828
vt 0.545421 0.26201296
vt 0.646085 0.71626598
vt 0.708483 0.644854
vt 0.669113 0.624578
vt 0.621894 0.68078297
vt 0.080074 0.42166197
vt 0.739177 0.54701102
vt 0.788247 0.556495
vt 0.840805 0.429312
vt 0.83841 0.566949
vt 0.252851 0.558639
vt 0.622916 0.332322
vt 0.679569 0.379497
vt 0.747731 0.66892397
vt 0.78894 0.69562298
vt 0.670611 0.75221199
vt 0.330467 0.378744
vt 0.376994 0.32128096
vt 0.701932 0.44931102
vt 0.297002 0.554169
vt 0.552291 0.70417798
vt 0.447528 0.29906
vt 0.535234 0.65398902
vt 0.568834 0.670075
vt 0.586838 0.629345
vt 0.557911 0.62766403
vt 0.464174 0.68974
vt 0.44367 0.681898
vt 0.556123 0.32121003
vt 0.576668 0.347382
vt 0.432932 0.385373
vt 0.441634 0.37532902
vt 0.41263 0.373608
vt 0.464403 0.349028
vt 0.484889 0.329935
vt 0.430744 0.33285296
vt 0.693702 0.21188599
vt 0.756597 0.11398399
vt 0.588042 0.042724013
vt 0.580486 0.08121699
vt 0.73741 0.14334899
vt 0.780722 0.07833099
vt 0.597122 0.000100016594
vt 0.887001 0.23871303
vt 0.856689 0.259359
vt 0.922883 0.21488202
vt 0.595307 0.957147002
vt 0.413494 0.95744002
vt 0.405015 0.9996960163
vt 0.603181 0.9993699789
vt 0.588186 0.921097994
vt 0.957146 0.406637
vt 0.957474 0.590634
vt 0.9999 0.59979302
vt 0.9999 0.39870596
vt 0.920652 0.41378403
vt 0.919163 0.582978
vt 0.790598 0.304792
vt 0.04378 0.414626
vt 0.042664 0.596897
vt 0.001666 0.405909
vt 0.0001 0.60454398
vt 0.243439 0.891654015
vt 0.111698 0.765611
vt 0.075509 0.78954202
vt 0.219686 0.92783302
vt 0.572756 0.841892
vt 0.403083 0.043501973
vt 0.410358 0.080136
vt 0.394987 0.000575006
vt 0.76182 0.88780701
vt 0.78539 0.92344302
vt 0.741376 0.85769898
vt 0.696608 0.79202801
vt 0.234875 0.114583015
vt 0.255747 0.144974
vt 0.210786 0.07866299
vt 0.886094 0.75856501
vt 0.921523 0.782637
vt 0.856904 0.73943102
vt 0.110127 0.24575698
vt 0.141129 0.26558304
vt 0.074231 0.22214997
vt 0.6682 0.43269503
vt 0.649071 0.400097
vt 0.54819 0.49201798
vt 0.555789 0.496055
vt 0.65214 0.466219
vt 0.625836 0.443532
vt 0.561295 0.500897
vt 0.671224 0.48665
vt 0.435576 0.48940504
vt 0.438057 0.48305404
vt 0.319303 0.445365
vt 0.311439 0.465896
vt 0.442742 0.478401
vt 0.345497 0.42479098
vt 0.505119 0.437446
vt 0.511955 0.43746603
vt 0.53561 0.31332803
vt 0.513628 0.31311202
vt 0.499048 0.44010603
vt 0.500535 0.56301498
vt 0.494467 0.56568402
vt 0.486119 0.68993098
vt 0.514799 0.673158
vt 0.518314 0.439968
vt 0.522977 0.44467497
vt 0.484668 0.461412
vt 0.490089 0.45328403
vt 0.487629 0.565677
vt 0.481261 0.56318998
vt 0.476588 0.558491
vt 0.474079 0.55157
vt 0.411071 0.630471
vt 0.423094 0.65578002
vt 0.459544 0.51657403
vt 0.451359 0.51114798
vt 0.37373 0.559734
vt 0.383498 0.56784898
vt 0.627632 0.414616
vt 0.528523 0.469755
vt 0.533224 0.47889304
vt 0.609065 0.42726004
vt 0.604486 0.418072
vt 0.476951 0.46821404
vt 0.425281 0.39224803
vt 0.509481 0.54983902
vt 0.505404 0.55749702
vt 0.438236 0.502271
vt 0.43557 0.496225
vt 0.311242 0.48787796
vt 0.328057 0.516607
vt 0.525479 0.451595
vt 0.526461 0.460216
vt 0.600098 0.40554798
vt 0.588659 0.37271404
vt 0.494172 0.44562
vt 0.540014 0.486589
vt 0.6161 0.43540597
vt 0.458211 0.474953
vt 0.467815 0.47290504
vt 0.415726 0.39725
vt 0.403657 0.40124297
vt 0.373855 0.63319898
vt 0.561464 0.520095
vt 0.55678 0.524745
vt 0.65397 0.578359
vt 0.680078 0.55779803
vt 0.473098 0.54294503
vt 0.399565 0.59767503
vt 0.47104 0.53340602
vt 0.395152 0.585164
vt 0.443752 0.507114
vt 0.347279 0.53706098
vt 0.449649 0.475915
vt 0.370772 0.412731
vt 0.549878 0.52722597
vt 0.541323 0.528185
vt 0.595798 0.60179198
vt 0.628653 0.590361
vt 0.46634 0.52426898
vt 0.390554 0.575984
vt 0.514895 0.54171503
vt 0.566588 0.61763197
vt 0.522602 0.534917
vt 0.574219 0.61076802
vt 0.531728 0.53023
vt 0.583753 0.605775
vt 0.368064 0.37552798
vt 0.397981 0.352098
vt 0.563954 0.50693798
vt 0.688095 0.51533598
vt 0.563945 0.51375097
vt 0.687915 0.53729498
vt 0.625881 0.370139
vt 0.631249 0.627487
vt 0.499774 0.501576
vt 0.372021 0.58867198
vt 0.331212 0.570755
vt 0.350676 0.603262
vt 0.60189 0.65143502
vt 0.001666 0.405909
vt 0.0001 0.60454398
vt 0.0001 0.60454398
vt 0.001666 0.405909
vt 0.922883 0.21488202
vt 0.9999 0.39870596
vt 0.9999 0.59979302
vt 0.921523 0.782637
vt 0.78539 0.92344302
vt 0.603181 0.9993699789
vt 0.405015 0.9996960163
vt 0.219686 0.92783302
vt 0.075509 0.78954202
vt 0.074231 0.22214997
vt 0.210786 0.07866299
vt 0.394987 0.000575006
vt 0.597122 0.000100016594
vt 0.780722 0.07833099
vt 0.921523 0.782637
vt 0.78539 0.92344302
vt 0.075509 0.78954202
vt 0.074231 0.22214997
vt 0.210786 0.07866299
vt 0.780722 0.07833099
vt 0.922883 0.21488202
vt 0.405015 0.9996960163
vt 0.219686 0.92783302
vt 0.9999 0.39870596
vt 0.9999 0.59979302
vt 0.603181 0.9993699789
vt 0.597122 0.000100016594
vt 0.394987 0.000575006
vt 0.426514 0.16014999
vt 0.434623 0.20891398
vt 0.554824 0.21279198
vt 0.565034 0.16239703
vt 0.250534 0.334902
vt 0.208952 0.308262
vt 0.160706 0.43704402
vt 0.210961 0.446961
vt 0.420373 0.921056986
vt 0.435466 0.84028798
vt 0.306773 0.79177397
vt 0.263362 0.86046398
vt 0.209171 0.699147
vt 0.142226 0.74484402
vt 0.333389 0.75026798
vt 0.445323 0.79003
vt 0.454497 0.740947
vt 0.356793 0.71017498
vt 0.24909 0.67295098
vt 0.327841 0.250897
vt 0.353434 0.286695
vt 0.442722 0.25447798
vt 0.750595 0.330939
vt 0.713823 0.35492897
vt 0.746466 0.44429398
vt 0.792179 0.43743598
vt 0.158753 0.57469302
vt 0.078983 0.58991098
vt 0.260124 0.45617104
vt 0.290716 0.357912
vt 0.285057 0.64821798
vt 0.564732 0.79352099
vt 0.556732 0.748208
vt 0.207366 0.56667
vt 0.666756 0.253182
vt 0.643117 0.293159
vt 0.376903 0.670936
vt 0.320555 0.623878
vt 0.301586 0.210828
vt 0.545421 0.26201296
vt 0.646085 0.71626598
vt 0.708483 0.644854
vt 0.669113 0.624578
vt 0.621894 0.68078297
vt 0.080074 0.42166197
vt 0.739177 0.54701102
vt 0.788247 0.556495
vt 0.840805 0.429312
vt 0.83841 0.566949
vt 0.252851 0.558639
vt 0.622916 0.332322
vt 0.679569 0.379497
vt 0.747731 0.66892397
vt 0.78894 0.69562298
vt 0.670611 0.75221199
vt 0.330467 0.378744
vt 0.376994 0.32128096
vt 0.701932 0.44931102
vt 0.297002 0.554169
vt 0.552291 0.70417798
vt 0.447528 0.29906
vt 0.535234 0.65398902
vt 0.568834 0.670075
vt 0.586838 0.629345
vt 0.557911 0.62766403
vt 0.464174 0.68974
vt 0.44367 0.681898
vt 0.556123 0.32121003
vt 0.576668 0.347382
vt 0.432932 0.385373
vt 0.441634 0.37532902
vt 0.41263 0.373608
vt 0.464403 0.349028
vt 0.484889 0.329935
vt 0.430744 0.33285296
vt 0.693702 0.21188599
vt 0.756597 0.11398399
vt 0.588042 0.042724013
vt 0.580486 0.08121699
vt 0.73741 0.14334899
vt 0.780722 0.07833099
vt 0.597122 0.000100016594
vt 0.887001 0.23871303
vt 0.856689 0.259359
vt 0.922883 0.21488202
vt 0.595307 0.957147002
vt 0.413494 0.95744002
vt 0.405015 0.9996960163
vt 0.603181 0.9993699789
vt 0.588186 0.921097994
vt 0.957146 0.406637
vt 0.957474 0.590634
vt 0.9999 0.59979302
vt 0.9999 0.39870596
vt 0.920652 0.41378403
vt 0.919163 0.582978
vt 0.790598 0.304792
vt 0.04378 0.414626
vt 0.042664 0.596897
vt 0.001666 0.405909
vt 0.0001 0.60454398
vt 0.243439 0.891654015
vt 0.111698 0.765611
vt 0.075509 0.78954202
vt 0.219686 0.92783302
vt 0.572756 0.841892
vt 0.403083 0.043501973
vt 0.410358 0.080136
vt 0.394987 0.000575006
vt 0.76182 0.88780701
vt 0.78539 0.92344302
vt 0.741376 0.85769898
vt 0.696608 0.79202801
vt 0.234875 0.114583015
vt 0.255747 0.144974
vt 0.210786 0.07866299
vt 0.886094 0.75856501
vt 0.921523 0.782637
vt 0.856904 0.73943102
vt 0.110127 0.24575698
vt 0.141129 0.26558304
vt 0.074231 0.22214997
vt 0.6682 0.43269503
vt 0.649071 0.400097
vt 0.54819 0.49201798
vt 0.555789 0.496055
vt 0.65214 0.466219
vt 0.625836 0.443532
vt 0.561295 0.500897
vt 0.671224 0.48665
vt 0.435576 0.48940504
vt 0.438057 0.48305404
vt 0.319303 0.445365
vt 0.311439 0.465896
vt 0.442742 0.478401
vt 0.345497 0.42479098
vt 0.505119 0.437446
vt 0.511955 0.43746603
vt 0.53561 0.31332803
vt 0.513628 0.31311202
vt 0.499048 0.44010603
vt 0.500535 0.56301498
vt 0.494467 0.56568402
vt 0.486119 0.68993098
vt 0.514799 0.673158
vt 0.518314 0.439968
vt 0.522977 0.44467497
vt 0.484668 0.461412
vt 0.490089 0.45328403
vt 0.487629 0.565677
vt 0.481261 0.56318998
vt 0.476588 0.558491
vt 0.474079 0.55157
vt 0.411071 0.630471
vt 0.423094 0.65578002
vt 0.459544 0.51657403
vt 0.451359 0.51114798
vt 0.37373 0.559734
vt 0.383498 0.56784898
vt 0.627632 0.414616
vt 0.528523 0.469755
vt 0.533224 0.47889304
vt 0.609065 0.42726004
vt 0.604486 0.418072
vt 0.476951 0.46821404
vt 0.425281 0.39224803
vt 0.509481 0.54983902
vt 0.505404 0.55749702
vt 0.438236 0.502271
vt 0.43557 0.496225
vt 0.311242 0.48787796
vt 0.328057 0.516607
vt 0.525479 0.451595
vt 0.526461 0.460216
vt 0.600098 0.40554798
vt 0.588659 0.37271404
vt 0.494172 0.44562
vt 0.540014 0.486589
vt 0.6161 0.43540597
vt 0.458211 0.474953
vt 0.467815 0.47290504
vt 0.415726 0.39725
vt 0.403657 0.40124297
vt 0.373855 0.63319898
vt 0.561464 0.520095
vt 0.55678 0.524745
vt 0.65397 0.578359
vt 0.680078 0.55779803
vt 0.473098 0.54294503
vt 0.399565 0.59767503
vt 0.47104 0.53340602
vt 0.395152 0.585164
vt 0.443752 0.507114
vt 0.347279 0.53706098
vt 0.449649 0.475915
vt 0.370772 0.412731
vt 0.549878 0.52722597
vt 0.541323 0.528185
vt 0.595798 0.60179198
vt 0.628653 0.590361
vt 0.46634 0.52426898
vt 0.390554 0.575984
vt 0.514895 0.54171503
vt 0.566588 0.61763197
vt 0.522602 0.534917
vt 0.574219 0.61076802
vt 0.531728 0.53023
vt 0.583753 0.605775
vt 0.368064 0.37552798
vt 0.397981 0.352098
vt 0.563954 0.50693798
vt 0.688095 0.51533598
vt 0.563945 0.51375097
vt 0.687915 0.53729498
vt 0.625881 0.370139
vt 0.631249 0.627487
vt 0.499774 0.501576
vt 0.372021 0.58867198
vt 0.331212 0.570755
vt 0.350676 0.603262
vt 0.60189 0.65143502
vt 0.001666 0.405909
vt 0.0001 0.60454398
vt 0.0001 0.60454398
vt 0.001666 0.405909
vt 0.922883 0.21488202
vt 0.9999 0.39870596
vt 0.9999 0.59979302
vt 0.921523 0.782637
vt 0.78539 0.92344302
vt 0.603181 0.9993699789
vt 0.405015 0.9996960163
vt 0.219686 0.92783302
vt 0.075509 0.78954202
vt 0.074231 0.22214997
vt 0.210786 0.07866299
vt 0.394987 0.000575006
vt 0.597122 0.000100016594
vt 0.780722 0.07833099
vt 0.921523 0.782637
vt 0.78539 0.92344302
vt 0.075509 0.78954202
vt 0.074231 0.22214997
vt 0.210786 0.07866299
vt 0.780722 0.07833099
vt 0.922883 0.21488202
vt 0.405015 0.9996960163
vt 0.219686 0.92783302
vt 0.9999 0.39870596
vt 0.9999 0.59979302
vt 0.603181 0.9993699789
vt 0.597122 0.000100016594
vt 0.394987 0.000575006
vn 0.3818 0.9218 -0.0668
vn 0.3287 0.7936 -0.5119
vn 0.6074 0.6074 -0.5119
vn 0.7056 0.7055 -0.0667
vn -0.3287 0.7937 -0.5119
vn -0.3818 0.9218 -0.0668
vn -0.7055 0.7055 -0.0668
vn -0.6074 0.6074 -0.5119
vn -0.5318 -0.5318 0.6591
vn -0.7055 -0.7055 -0.0667
vn -0.9218 -0.3818 -0.0668
vn -0.6948 -0.2877 0.6591
vn -0.9977 0 -0.0669
vn -0.752 0 0.6591
vn -0.7936 -0.3287 -0.5119
vn -0.6074 -0.6074 -0.5119
vn -0.4333 -0.4333 -0.7902
vn -0.5615 -0.2313 -0.7945
vn -0.859 0 -0.5119
vn 0 0.859 -0.5119
vn 0 0.6129 -0.7902
vn 0.2313 0.5615 -0.7945
vn 0.8591 -0 -0.5118
vn 0.6128 0 -0.7902
vn 0.5614 -0.2313 -0.7945
vn 0.7937 -0.3287 -0.5119
vn -0.9218 0.3818 -0.0669
vn -0.6948 0.2878 0.659
vn -0.4333 0.4333 -0.7902
vn -0.2313 0.5615 -0.7945
vn -0.6129 0 -0.7902
vn -0.3287 -0.7936 -0.5119
vn -0.2313 -0.5615 -0.7945
vn -0.7937 0.3287 -0.5119
vn 0.7937 0.3287 -0.5118
vn 0.5615 0.2313 -0.7945
vn -0.4147 -0.1704 -0.8938
vn -0.4519 -0.0002 -0.8921
vn 0 0.9977 -0.0669
vn 0.4333 0.4333 -0.7902
vn 0 -0.6128 -0.7902
vn 0.2313 -0.5614 -0.7945
vn 0.1717 -0.4155 -0.8932
vn 0 -0.453 -0.8915
vn -0.5318 0.5318 0.6591
vn 0.4333 -0.4333 -0.7902
vn 0.6074 -0.6074 -0.5119
vn 0.9218 -0.3818 -0.0667
vn 0.7055 -0.7055 -0.0668
vn -0.5615 0.2313 -0.7945
vn 0.4156 0.1716 -0.8932
vn 0.4528 0 -0.8916
vn 0.3287 -0.7937 -0.5119
vn 0.3818 -0.9218 -0.0668
vn 0.0001 -0.859 -0.5119
vn -0.1716 0.4155 -0.8932
vn 0 0.4528 -0.8916
vn 0.4155 -0.1717 -0.8932
vn -0.415 0.1709 -0.8936
vn -0.1716 -0.4156 -0.8932
vn 0.1716 0.4156 -0.8932
vn -0.4777 0.3147 -0.8202
vn -0.0875 -0.3231 -0.9423
vn 0 -0.2559 -0.9667
vn -0.4569 0.3981 -0.7954
vn 0.0193 0.0193 -0.9996
vn 0.0528 -0.1397 -0.9888
vn -0.0526 0.14 -0.9887
vn -0.2539 0.3693 -0.8939
vn 0.2978 -0.5175 -0.8022
vn 0.4569 -0.398 -0.7954
vn -0 0.2555 -0.9668
vn 0.4777 -0.3147 -0.8202
vn 0.3692 -0.254 -0.8939
vn 0.0874 0.3231 -0.9423
vn 0.9218 0.3818 -0.0667
vn 0.1029 0.0426 0.9938
vn 0.0787 0.0787 0.9938
vn 0.5318 0.5318 0.659
vn 0.6948 0.2878 0.6591
vn 0.611 0.2531 0.7501
vn 0.4676 0.4676 0.7501
vn 0.1114 0 0.9938
vn 0.752 0 0.6591
vn 0.6613 0 0.7501
vn -0.0426 -0.1029 0.9938
vn -0.0788 -0.0788 0.9938
vn -0.4676 -0.4676 0.7501
vn -0.2531 -0.611 0.7501
vn -0.2877 -0.6948 0.6591
vn 0.1029 -0.0426 0.9938
vn 0.0787 -0.0787 0.9938
vn 0.4676 -0.4676 0.7501
vn 0.611 -0.2531 0.7501
vn 0.6948 -0.2878 0.6591
vn 0.5318 -0.5318 0.6591
vn 0.9978 0 -0.0667
vn -0.0788 0.0788 0.9938
vn -0.1029 0.0426 0.9938
vn -0.4676 0.4676 0.7501
vn -0.611 0.2531 0.7501
vn -0.1029 -0.0426 0.9938
vn -0.1114 0 0.9938
vn -0.6613 0 0.7501
vn -0.611 -0.2531 0.7501
vn -0.3819 -0.9218 -0.0667
vn 0.0426 0.1029 0.9938
vn 0.2877 0.6948 0.6591
vn 0.2531 0.611 0.7501
vn 0 -0.1114 0.9938
vn 0 -0.6613 0.7501
vn 0 -0.752 0.6591
vn 0 -0.9977 -0.0667
vn 0 0.1114 0.9938
vn 0 0.752 0.6591
vn 0 0.6613 0.7501
vn 0.0426 -0.1028 0.9938
vn 0.2531 -0.611 0.7501
vn 0.2878 -0.6948 0.659
vn -0.0426 0.1029 0.9938
vn -0.2879 0.6948 0.659
vn -0.2531 0.611 0.7501
vn 0.3231 -0.0874 -0.9423
vn 0.3189 0 -0.9478
vn -0.6349 -0.439 -0.6358
vn -0.6275 -0.4325 -0.6474
vn -0.3143 -0.4782 -0.82
vn -0.3869 -0.4627 -0.7975
vn -0.6368 -0.2736 -0.7208
vn -0.2539 -0.3697 -0.8938
vn 0.334 -0.334 -0.8814
vn 0.0643 -0.5289 -0.8462
vn -0.1399 -0.0528 -0.9887
vn 0.0194 -0.0194 -0.9996
vn -0.2737 -0.6368 -0.7208
vn -0.3698 -0.2539 -0.8937
vn -0.0646 -0.529 -0.8461
vn -0.3341 -0.3336 -0.8815
vn -0.0194 -0.0191 -0.9996
vn 0.1397 -0.0527 -0.9888
vn 0.2728 -0.6367 -0.7212
vn -0.2728 0.6368 -0.7211
vn 0.0646 0.5289 -0.8462
vn -0.1398 0.0526 -0.9888
vn -0.3692 0.2541 -0.8939
vn -0.5289 -0.0641 -0.8463
vn -0.6366 0.2729 -0.7213
vn 0.2713 -0.6778 -0.6833
vn 0.4295 -0.6387 -0.6384
vn 0.3339 0.3339 -0.8815
vn 0.5288 0.0646 -0.8462
vn 0.6368 -0.2727 -0.7212
vn 0.6278 -0.4318 -0.6476
vn 0.314 -0.4765 -0.8212
vn 0.2541 -0.3677 -0.8945
vn 0.678 0.2732 -0.6823
vn 0.6349 0.439 -0.6356
vn 0.3861 0.4629 -0.7978
vn 0.5266 0.3078 -0.7924
vn 0.2555 -0.0001 -0.9668
vn -0.6778 0.2709 -0.6835
vn -0.7047 0.0046 -0.7095
vn -0.6118 0.006 -0.791
vn -0.5173 0.2974 -0.8024
vn 0.0047 -0.7046 -0.7095
vn 0.0061 -0.6117 -0.7911
vn -0.4293 0.6387 -0.6385
vn -0.4318 0.6278 -0.6475
vn 0.6368 0.2737 -0.7208
vn 0.5289 -0.0643 -0.8462
vn 0.0528 0.1399 -0.9887
vn 0.2539 0.3689 -0.8941
vn -0.6277 0.4316 -0.6478
vn -0.6388 0.4288 -0.6388
vn -0.3982 0.4566 -0.7956
vn -0.3146 0.4776 -0.8203
vn 0.4318 -0.6278 -0.6475
vn -0.678 -0.2732 -0.6824
vn -0.5266 -0.3078 -0.7924
vn -0.439 -0.6349 -0.6357
vn -0.2732 -0.678 -0.6824
vn -0.3078 -0.5266 -0.7924
vn -0.4627 -0.3869 -0.7976
vn -0.3223 -0.0871 -0.9426
vn -0.0643 0.5289 -0.8462
vn 0.2737 0.6368 -0.7208
vn 0.3698 0.2539 -0.8937
vn 0.1399 0.0528 -0.9887
vn 0.6387 -0.4294 -0.6384
vn 0.3967 -0.4573 -0.7959
vn 0.6778 -0.2715 -0.6832
vn 0.5174 -0.2979 -0.8021
vn 0.6275 0.4325 -0.6474
vn 0.3138 0.4775 -0.8206
vn -0.4325 -0.6275 -0.6474
vn -0.4783 -0.3143 -0.82
vn 0.4326 0.6275 -0.6474
vn 0.439 0.635 -0.6356
vn 0.4628 0.3869 -0.7975
vn 0.4783 0.3143 -0.82
vn 0.7046 -0.0048 -0.7095
vn 0.6117 -0.0062 -0.7911
vn -0.2715 0.6778 -0.6832
vn -0.2978 0.5173 -0.8023
vn -0.0049 0.7046 -0.7095
vn -0.0063 0.6118 -0.791
vn 0.2732 0.678 -0.6823
vn 0.3078 0.5266 -0.7924
vn -0.0874 0.3231 -0.9423
vn 0 0.3188 -0.9478
vn -0.5288 0.0645 -0.8463
vn -0.0528 -0.1399 -0.9887
vn -0.334 0.334 -0.8814
vn -0.0194 0.0193 -0.9996
vn 0.3231 0.0874 -0.9423
vn 0.0874 -0.323 -0.9423
vn 0 0 -1
vn -0.2567 -0.0002 -0.9665
vn -0.3226 0.0872 -0.9425
vn -0.3188 -0.001 -0.9478
vn -0.0001 -0.3205 -0.9472
vn -0.5276 0.5276 0.6657
vn -0.6894 0.2855 0.6657
vn -0.9239 0.3827 0
vn -0.7071 0.7071 0
vn 0.7462 0 0.6657
vn 0.6894 -0.2855 0.6657
vn 0.5276 -0.5276 0.6657
vn 0.2855 -0.6894 0.6657
vn 0 -0.7462 0.6657
vn -0.2856 -0.6894 0.6657
vn -0.5276 -0.5276 0.6657
vn -0.6894 -0.2856 0.6657
vn -0.7462 0 0.6657
vn -0.2855 0.6894 0.6657
vn 0 0.7462 0.6657
vn 0.2856 0.6894 0.6657
vn 0.5276 0.5276 0.6657
vn 0.6894 0.2856 0.6657
vn 0.3826 -0.9239 0
vn -0 -1 0
vn -1 -0 0
vn -0.3827 0.9239 0
vn 0 1 0
vn 0.9239 0.3827 0
vn 1 0 0
vn -0.7071 -0.7071 0
vn -0.9239 -0.3827 0
vn 0.9239 -0.3827 0
vn 0.7071 -0.7071 0
vn -0.3827 -0.9239 0
vn 0.7071 0.7071 0
vn 0.3827 0.9239 0
vn 0.3818 0.9218 -0.0668
vn 0.3287 0.7936 -0.5119
vn 0.6074 0.6074 -0.5119
vn 0.7056 0.7055 -0.0667
vn -0.3287 0.7937 -0.5119
vn -0.3818 0.9218 -0.0668
vn -0.7055 0.7055 -0.0668
vn -0.6074 0.6074 -0.5119
vn -0.5318 -0.5318 0.6591
vn -0.7055 -0.7055 -0.0667
vn -0.9218 -0.3818 -0.0668
vn -0.6948 -0.2877 0.6591
vn -0.9977 0 -0.0669
vn -0.752 0 0.6591
vn -0.7936 -0.3287 -0.5119
vn -0.6074 -0.6074 -0.5119
vn -0.4333 -0.4333 -0.7902
vn -0.5615 -0.2313 -0.7945
vn -0.859 0 -0.5119
vn 0 0.859 -0.5119
vn 0 0.6129 -0.7902
vn 0.2313 0.5615 -0.7945
vn 0.8591 -0 -0.5118
vn 0.6128 0 -0.7902
vn 0.5614 -0.2313 -0.7945
vn 0.7937 -0.3287 -0.5119
vn -0.9218 0.3818 -0.0669
vn -0.6948 0.2878 0.659
vn -0.4333 0.4333 -0.7902
vn -0.2313 0.5615 -0.7945
vn -0.6129 0 -0.7902
vn -0.3287 -0.7936 -0.5119
vn -0.2313 -0.5615 -0.7945
vn -0.7937 0.3287 -0.5119
vn 0.7937 0.3287 -0.5118
vn 0.5615 0.2313 -0.7945
vn -0.4147 -0.1704 -0.8938
vn -0.4519 -0.0002 -0.8921
vn 0 0.9977 -0.0669
vn 0.4333 0.4333 -0.7902
vn 0 -0.6128 -0.7902
vn 0.2313 -0.5614 -0.7945
vn 0.1717 -0.4155 -0.8932
vn 0 -0.453 -0.8915
vn -0.5318 0.5318 0.6591
vn 0.4333 -0.4333 -0.7902
vn 0.6074 -0.6074 -0.5119
vn 0.9218 -0.3818 -0.0667
vn 0.7055 -0.7055 -0.0668
vn -0.5615 0.2313 -0.7945
vn 0.4156 0.1716 -0.8932
vn 0.4528 0 -0.8916
vn 0.3287 -0.7937 -0.5119
vn 0.3818 -0.9218 -0.0668
vn 0.0001 -0.859 -0.5119
vn -0.1716 0.4155 -0.8932
vn 0 0.4528 -0.8916
vn 0.4155 -0.1717 -0.8932
vn -0.415 0.1709 -0.8936
vn -0.1716 -0.4156 -0.8932
vn 0.1716 0.4156 -0.8932
vn -0.4777 0.3147 -0.8202
vn -0.0875 -0.3231 -0.9423
vn 0 -0.2559 -0.9667
vn -0.4569 0.3981 -0.7954
vn 0.0193 0.0193 -0.9996
vn 0.0528 -0.1397 -0.9888
vn -0.0526 0.14 -0.9887
vn -0.2539 0.3693 -0.8939
vn 0.2978 -0.5175 -0.8022
vn 0.4569 -0.398 -0.7954
vn -0 0.2555 -0.9668
vn 0.4777 -0.3147 -0.8202
vn 0.3692 -0.254 -0.8939
vn 0.0874 0.3231 -0.9423
vn 0.9218 0.3818 -0.0667
vn 0.1029 0.0426 0.9938
vn 0.0787 0.0787 0.9938
vn 0.5318 0.5318 0.6591
vn 0.6948 0.2878 0.6591
vn 0.611 0.2531 0.7501
vn 0.4676 0.4676 0.7501
vn 0.1114 0 0.9938
vn 0.752 0 0.6591
vn 0.6613 0 0.7501
vn -0.0426 -0.1029 0.9938
vn -0.0788 -0.0788 0.9938
vn -0.4676 -0.4676 0.7501
vn -0.2531 -0.611 0.7501
vn -0.2877 -0.6948 0.6591
vn 0.1029 -0.0426 0.9938
vn 0.0787 -0.0787 0.9938
vn 0.4676 -0.4676 0.7501
vn 0.611 -0.2531 0.7501
vn 0.6948 -0.2878 0.6591
vn 0.5318 -0.5318 0.6591
vn 0.9978 0 -0.0667
vn -0.0788 0.0788 0.9938
vn -0.1029 0.0426 0.9938
vn -0.4676 0.4676 0.7501
vn -0.611 0.2531 0.7501
vn -0.1029 -0.0426 0.9938
vn -0.1114 0 0.9938
vn -0.6613 0 0.7501
vn -0.611 -0.2531 0.7501
vn -0.3819 -0.9218 -0.0667
vn 0.0426 0.1029 0.9938
vn 0.2877 0.6948 0.6591
vn 0.2531 0.611 0.7501
vn 0 -0.1114 0.9938
vn 0 -0.6613 0.7501
vn 0 -0.752 0.6591
vn 0 -0.9977 -0.0667
vn 0 0.1114 0.9938
vn 0 0.752 0.6591
vn 0 0.6613 0.7501
vn 0.0426 -0.1028 0.9938
vn 0.2531 -0.611 0.7501
vn 0.2878 -0.6948 0.659
vn -0.0426 0.1029 0.9938
vn -0.2879 0.6948 0.659
vn -0.2531 0.611 0.7501
vn 0.3231 -0.0874 -0.9423
vn 0.3189 0 -0.9478
vn -0.6349 -0.439 -0.6358
vn -0.6275 -0.4325 -0.6474
vn -0.3143 -0.4783 -0.82
vn -0.3869 -0.4628 -0.7975
vn -0.6369 -0.2736 -0.7208
vn -0.2539 -0.3697 -0.8938
vn 0.334 -0.334 -0.8814
vn 0.0643 -0.5289 -0.8462
vn -0.1399 -0.0528 -0.9887
vn 0.0194 -0.0194 -0.9996
vn -0.2737 -0.6368 -0.7208
vn -0.3698 -0.2539 -0.8937
vn -0.0646 -0.529 -0.8461
vn -0.3341 -0.3336 -0.8815
vn -0.0194 -0.0191 -0.9996
vn 0.1397 -0.0527 -0.9888
vn 0.2728 -0.6367 -0.7212
vn -0.2728 0.6368 -0.7211
vn 0.0646 0.5289 -0.8462
vn -0.1398 0.0526 -0.9888
vn -0.3692 0.2541 -0.8939
vn -0.5289 -0.0641 -0.8463
vn -0.6366 0.2729 -0.7213
vn 0.2713 -0.6778 -0.6833
vn 0.4295 -0.6387 -0.6384
vn 0.3339 0.3339 -0.8815
vn 0.5289 0.0646 -0.8462
vn 0.6368 -0.2727 -0.7212
vn 0.6278 -0.4318 -0.6476
vn 0.314 -0.4765 -0.8212
vn 0.2541 -0.3677 -0.8945
vn 0.678 0.2732 -0.6823
vn 0.635 0.439 -0.6356
vn 0.3861 0.4629 -0.7978
vn 0.5266 0.3078 -0.7924
vn 0.2555 -0.0001 -0.9668
vn -0.6778 0.2709 -0.6835
vn -0.7047 0.0046 -0.7095
vn -0.6118 0.0061 -0.791
vn -0.5173 0.2974 -0.8024
vn 0.0047 -0.7046 -0.7095
vn 0.0061 -0.6117 -0.7911
vn -0.4293 0.6387 -0.6385
vn -0.4318 0.6278 -0.6475
vn 0.6368 0.2737 -0.7208
vn 0.5289 -0.0643 -0.8462
vn 0.0528 0.1399 -0.9887
vn 0.2539 0.3689 -0.8941
vn -0.6277 0.4316 -0.6478
vn -0.6388 0.4288 -0.6388
vn -0.3982 0.4566 -0.7956
vn -0.3146 0.4776 -0.8203
vn 0.4318 -0.6278 -0.6475
vn -0.678 -0.2732 -0.6824
vn -0.5266 -0.3078 -0.7924
vn -0.439 -0.6349 -0.6358
vn -0.2732 -0.678 -0.6824
vn -0.3078 -0.5266 -0.7924
vn -0.4627 -0.3869 -0.7976
vn -0.3223 -0.0871 -0.9426
vn -0.0643 0.5289 -0.8462
vn 0.2737 0.6368 -0.7208
vn 0.3698 0.2539 -0.8937
vn 0.1399 0.0528 -0.9887
vn 0.6387 -0.4294 -0.6384
vn 0.3967 -0.4573 -0.7959
vn 0.6778 -0.2715 -0.6832
vn 0.5174 -0.2979 -0.8021
vn 0.6275 0.4325 -0.6474
vn 0.3138 0.4775 -0.8206
vn -0.4325 -0.6275 -0.6474
vn -0.4783 -0.3143 -0.82
vn 0.4326 0.6275 -0.6474
vn 0.439 0.635 -0.6356
vn 0.4628 0.3869 -0.7975
vn 0.4783 0.3143 -0.82
vn 0.7046 -0.0048 -0.7095
vn 0.6117 -0.0062 -0.7911
vn -0.2715 0.6778 -0.6832
vn -0.2978 0.5173 -0.8023
vn -0.0049 0.7046 -0.7095
vn -0.0063 0.6118 -0.791
vn 0.2732 0.678 -0.6823
vn 0.3078 0.5266 -0.7924
vn -0.0874 0.3231 -0.9423
vn 0 0.3188 -0.9478
vn -0.5288 0.0645 -0.8463
vn -0.0528 -0.1399 -0.9887
vn -0.334 0.334 -0.8814
vn -0.0194 0.0193 -0.9996
vn 0.3231 0.0874 -0.9423
vn 0.0874 -0.323 -0.9423
vn 0 0 -1
vn -0.2567 -0.0002 -0.9665
vn -0.3226 0.0872 -0.9425
vn -0.3188 -0.001 -0.9478
vn -0.0001 -0.3205 -0.9472
vn -0.5276 0.5276 0.6657
vn -0.6894 0.2855 0.6657
vn -0.9239 0.3827 0
vn -0.7071 0.7071 0
vn 0.7462 0 0.6657
vn 0.6894 -0.2855 0.6657
vn 0.5276 -0.5276 0.6657
vn 0.2855 -0.6894 0.6657
vn 0 -0.7462 0.6657
vn -0.2856 -0.6894 0.6657
vn -0.5276 -0.5276 0.6657
vn -0.6894 -0.2856 0.6657
vn -0.7462 0 0.6657
vn -0.2855 0.6894 0.6657
vn 0 0.7462 0.6657
vn 0.2856 0.6894 0.6657
vn 0.5276 0.5276 0.6657
vn 0.6894 0.2856 0.6657
vn 0.3827 -0.9239 0
vn -0 -1 0
vn -1 -0 0
vn -0.3827 0.9239 0
vn 0 1 0
vn 0.9239 0.3827 0
vn 1 0 0
vn -0.7071 -0.7071 0
vn -0.9239 -0.3827 0
vn 0.9239 -0.3827 0
vn 0.7071 -0.7071 0
vn -0.3827 -0.9239 0
vn 0.7071 0.7071 0
vn 0.3827 0.9239 0
f 249/249/249 227/227/227 228/228/228
f 249/249/249 246/246/246 227/227/227
f 228/228/228 227/227/227 226/226/226
f 246/246/246 226/226/226 227/227/227
f 250/250/250 249/249/249 228/228/228
f 250/250/250 228/228/228 229/229/229
f 229/229/229 228/228/228 226/226/226
f 94/94/94 249/249/249 250/250/250
f 85/85/85 246/246/246 249/249/249
f 94/94/94 85/85/85 249/249/249
f 240/240/240 250/250/250 229/229/229
f 93/93/93 94/94/94 250/250/250
f 93/93/93 250/250/250 240/240/240
f 240/240/240 229/229/229 230/230/230
f 230/230/230 229/229/229 226/226/226
f 118/118/118 93/93/93 240/240/240
f 241/241/241 240/240/240 230/230/230
f 118/118/118 240/240/240 241/241/241
f 241/241/241 230/230/230 231/231/231
f 231/231/231 230/230/230 226/226/226
f 111/111/111 118/118/118 241/241/241
f 251/251/251 241/241/241 231/231/231
f 111/111/111 241/241/241 251/251/251
f 251/251/251 231/231/231 232/232/232
f 232/232/232 231/231/231 226/226/226
f 89/89/89 111/111/111 251/251/251
f 247/247/247 251/251/251 232/232/232
f 89/89/89 251/251/251 247/247/247
f 247/247/247 232/232/232 233/233/233
f 233/233/233 232/232/232 226/226/226
f 88/88/88 89/89/89 247/247/247
f 248/248/248 247/247/247 233/233/233
f 88/88/88 247/247/247 248/248/248
f 248/248/248 233/233/233 234/234/234
f 234/234/234 233/233/233 226/226/226
f 105/105/105 88/88/88 248/248/248
f 242/242/242 248/248/248 234/234/234
f 105/105/105 248/248/248 242/242/242
f 242/242/242 234/234/234 223/223/223
f 223/223/223 234/234/234 226/226/226
f 104/104/104 105/105/105 242/242/242
f 224/224/224 242/242/242 223/223/223
f 104/104/104 242/242/242 224/224/224
f 224/224/224 223/223/223 222/222/222
f 222/222/222 223/223/223 226/226/226
f 101/101/101 104/104/104 224/224/224
f 225/225/225 224/224/224 222/222/222
f 101/101/101 224/224/224 225/225/225
f 225/225/225 222/222/222 235/235/235
f 235/235/235 222/222/222 226/226/226
f 100/100/100 101/101/101 225/225/225
f 243/243/243 225/225/225 235/235/235
f 100/100/100 225/225/225 243/243/243
f 236/236/236 235/235/235 226/226/226
f 243/243/243 235/235/235 236/236/236
f 103/103/103 104/104/104 101/101/101
f 244/244/244 243/243/243 236/236/236
f 105/105/105 104/104/104 102/102/102
f 104/104/104 103/103/103 102/102/102
f 244/244/244 236/236/236 237/237/237
f 237/237/237 236/236/236 226/226/226
f 122/122/122 243/243/243 244/244/244
f 122/122/122 100/100/100 243/243/243
f 253/253/253 244/244/244 237/237/237
f 99/99/99 101/101/101 100/100/100
f 99/99/99 103/103/103 101/101/101
f 238/238/238 237/237/237 226/226/226
f 253/253/253 237/237/237 238/238/238
f 98/98/98 99/99/99 100/100/100
f 98/98/98 100/100/100 122/122/122
f 239/239/239 238/238/238 226/226/226
f 116/116/116 122/122/122 244/244/244
f 116/116/116 244/244/244 253/253/253
f 245/245/245 239/239/239 226/226/226
f 246/246/246 245/245/245 226/226/226
f 252/252/252 238/238/238 239/239/239
f 252/252/252 253/253/253 238/238/238
f 245/245/245 252/252/252 239/239/239
f 109/109/109 253/253/253 252/252/252
f 109/109/109 116/116/116 253/253/253
f 82/82/82 252/252/252 245/245/245
f 82/82/82 109/109/109 252/252/252
f 81/81/81 245/245/245 246/246/246
f 81/81/81 82/82/82 245/245/245
f 85/85/85 81/81/81 246/246/246
f 120/120/120 122/122/122 116/116/116
f 120/120/120 98/98/98 122/122/122
f 114/114/114 116/116/116 109/109/109
f 114/114/114 120/120/120 116/116/116
f 107/107/107 109/109/109 82/82/82
f 107/107/107 114/114/114 109/109/109
f 78/78/78 82/82/82 81/81/81
f 78/78/78 107/107/107 82/82/82
f 77/77/77 81/81/81 85/85/85
f 77/77/77 78/78/78 81/81/81
f 83/83/83 77/77/77 85/85/85
f 85/85/85 94/94/94 83/83/83
f 79/79/79 78/78/78 77/77/77
f 94/94/94 91/91/91 83/83/83
f 94/94/94 93/93/93 91/91/91
f 80/80/80 77/77/77 83/83/83
f 80/80/80 79/79/79 77/77/77
f 83/83/83 91/91/91 84/84/84
f 84/84/84 80/80/80 83/83/83
f 93/93/93 92/92/92 91/91/91
f 93/93/93 118/118/118 92/92/92
f 79/79/79 108/108/108 78/78/78
f 108/108/108 107/107/107 78/78/78
f 4/4/4 79/79/79 80/80/80
f 108/108/108 79/79/79 4/4/4
f 108/108/108 115/115/115 107/107/107
f 115/115/115 114/114/114 107/107/107
f 1/1/1 108/108/108 4/4/4
f 115/115/115 108/108/108 1/1/1
f 76/76/76 4/4/4 80/80/80
f 80/80/80 84/84/84 76/76/76
f 115/115/115 121/121/121 114/114/114
f 121/121/121 120/120/120 114/114/114
f 39/39/39 115/115/115 1/1/1
f 121/121/121 115/115/115 39/39/39
f 121/121/121 45/45/45 120/120/120
f 45/45/45 98/98/98 120/120/120
f 6/6/6 121/121/121 39/39/39
f 45/45/45 28/28/28 98/98/98
f 28/28/28 99/99/99 98/98/98
f 45/45/45 121/121/121 7/7/7
f 121/121/121 6/6/6 7/7/7
f 28/28/28 45/45/45 7/7/7
f 39/39/39 20/20/20 6/6/6
f 28/28/28 14/14/14 99/99/99
f 14/14/14 103/103/103 99/99/99
f 7/7/7 6/6/6 5/5/5
f 20/20/20 5/5/5 6/6/6
f 103/103/103 14/14/14 12/12/12
f 102/102/102 103/103/103 12/12/12
f 14/14/14 28/28/28 13/13/13
f 14/14/14 13/13/13 12/12/12
f 27/27/27 28/28/28 7/7/7
f 28/28/28 27/27/27 13/13/13
f 27/27/27 7/7/7 8/8/8
f 8/8/8 7/7/7 5/5/5
f 13/13/13 27/27/27 34/34/34
f 34/34/34 27/27/27 8/8/8
f 29/29/29 8/8/8 5/5/5
f 8/8/8 29/29/29 34/34/34
f 13/13/13 11/11/11 12/12/12
f 19/19/19 13/13/13 34/34/34
f 11/11/11 13/13/13 19/19/19
f 102/102/102 12/12/12 9/9/9
f 12/12/12 11/11/11 9/9/9
f 34/34/34 50/50/50 19/19/19
f 29/29/29 50/50/50 34/34/34
f 87/87/87 102/102/102 9/9/9
f 105/105/105 102/102/102 87/87/87
f 88/88/88 105/105/105 87/87/87
f 11/11/11 10/10/10 9/9/9
f 88/88/88 87/87/87 86/86/86
f 89/89/89 88/88/88 86/86/86
f 87/87/87 9/9/9 90/90/90
f 86/86/86 87/87/87 90/90/90
f 9/9/9 10/10/10 90/90/90
f 89/89/89 86/86/86 110/110/110
f 111/111/111 89/89/89 110/110/110
f 86/86/86 90/90/90 112/112/112
f 110/110/110 86/86/86 112/112/112
f 10/10/10 106/106/106 90/90/90
f 90/90/90 106/106/106 112/112/112
f 111/111/111 110/110/110 117/117/117
f 118/118/118 111/111/111 117/117/117
f 118/118/118 117/117/117 92/92/92
f 110/110/110 112/112/112 119/119/119
f 117/117/117 110/110/110 119/119/119
f 106/106/106 113/113/113 112/112/112
f 112/112/112 113/113/113 119/119/119
f 92/92/92 117/117/117 96/96/96
f 117/117/117 119/119/119 96/96/96
f 113/113/113 54/54/54 119/119/119
f 119/119/119 54/54/54 96/96/96
f 106/106/106 32/32/32 113/113/113
f 92/92/92 96/96/96 95/95/95
f 91/91/91 92/92/92 95/95/95
f 91/91/91 95/95/95 84/84/84
f 32/32/32 55/55/55 113/113/113
f 113/113/113 55/55/55 54/54/54
f 16/16/16 32/32/32 106/106/106
f 10/10/10 16/16/16 106/106/106
f 54/54/54 49/49/49 96/96/96
f 96/96/96 49/49/49 95/95/95
f 55/55/55 53/53/53 54/54/54
f 54/54/54 53/53/53 49/49/49
f 97/97/97 84/84/84 95/95/95
f 84/84/84 97/97/97 76/76/76
f 49/49/49 48/48/48 95/95/95
f 48/48/48 97/97/97 95/95/95
f 53/53/53 47/47/47 49/49/49
f 49/49/49 47/47/47 48/48/48
f 48/48/48 26/26/26 97/97/97
f 47/47/47 26/26/26 48/48/48
f 97/97/97 23/23/23 76/76/76
f 26/26/26 23/23/23 97/97/97
f 23/23/23 35/35/35 76/76/76
f 76/76/76 35/35/35 4/4/4
f 47/47/47 46/46/46 26/26/26
f 35/35/35 3/3/3 4/4/4
f 4/4/4 3/3/3 1/1/1
f 26/26/26 25/25/25 23/23/23
f 46/46/46 25/25/25 26/26/26
f 23/23/23 24/24/24 35/35/35
f 25/25/25 24/24/24 23/23/23
f 42/42/42 46/46/46 47/47/47
f 53/53/53 42/42/42 47/47/47
f 24/24/24 36/36/36 35/35/35
f 35/35/35 36/36/36 3/3/3
f 41/41/41 42/42/42 53/53/53
f 55/55/55 41/41/41 53/53/53
f 3/3/3 2/2/2 1/1/1
f 1/1/1 2/2/2 39/39/39
f 2/2/2 20/20/20 39/39/39
f 36/36/36 40/40/40 3/3/3
f 3/3/3 40/40/40 2/2/2
f 51/51/51 36/36/36 24/24/24
f 21/21/21 20/20/20 2/2/2
f 52/52/52 51/51/51 24/24/24
f 52/52/52 24/24/24 25/25/25
f 40/40/40 22/22/22 2/2/2
f 22/22/22 21/21/21 2/2/2
f 40/40/40 36/36/36 68/68/68
f 51/51/51 69/69/69 36/36/36
f 69/69/69 68/68/68 36/36/36
f 40/40/40 139/139/139 22/22/22
f 139/139/139 40/40/40 68/68/68
f 51/51/51 215/215/215 69/69/69
f 52/52/52 215/215/215 51/51/51
f 68/68/68 69/69/69 146/146/146
f 139/139/139 68/68/68 138/138/138
f 68/68/68 146/146/146 138/138/138
f 139/139/139 138/138/138 137/137/137
f 69/69/69 147/147/147 146/146/146
f 140/140/140 139/139/139 137/137/137
f 139/139/139 140/140/140 22/22/22
f 69/69/69 176/176/176 147/147/147
f 215/215/215 176/176/176 69/69/69
f 140/140/140 137/137/137 141/141/141
f 140/140/140 74/74/74 22/22/22
f 74/74/74 140/140/140 141/141/141
f 74/74/74 61/61/61 22/22/22
f 22/22/22 61/61/61 21/21/21
f 74/74/74 141/141/141 177/177/177
f 61/61/61 74/74/74 73/73/73
f 73/73/73 74/74/74 177/177/177
f 61/61/61 57/57/57 21/21/21
f 75/75/75 61/61/61 73/73/73
f 61/61/61 75/75/75 57/57/57
f 73/73/73 177/177/177 149/149/149
f 75/75/75 210/210/210 57/57/57
f 71/71/71 73/73/73 149/149/149
f 72/72/72 75/75/75 73/73/73
f 72/72/72 210/210/210 75/75/75
f 71/71/71 72/72/72 73/73/73
f 210/210/210 209/209/209 57/57/57
f 72/72/72 209/209/209 210/210/210
f 21/21/21 57/57/57 30/30/30
f 21/21/21 30/30/30 20/20/20
f 30/30/30 5/5/5 20/20/20
f 30/30/30 29/29/29 5/5/5
f 57/57/57 209/209/209 56/56/56
f 57/57/57 56/56/56 30/30/30
f 56/56/56 209/209/209 136/136/136
f 56/56/56 136/136/136 30/30/30
f 134/134/134 29/29/29 30/30/30
f 29/29/29 134/134/134 50/50/50
f 136/136/136 133/133/133 30/30/30
f 133/133/133 134/134/134 30/30/30
f 209/209/209 196/196/196 136/136/136
f 134/134/134 133/133/133 131/131/131
f 133/133/133 136/136/136 132/132/132
f 133/133/133 132/132/132 131/131/131
f 136/136/136 196/196/196 135/135/135
f 136/136/136 135/135/135 132/132/132
f 196/196/196 209/209/209 183/183/183
f 209/209/209 72/72/72 183/183/183
f 196/196/196 195/195/195 135/135/135
f 196/196/196 183/183/183 195/195/195
f 135/135/135 217/217/217 132/132/132
f 195/195/195 217/217/217 135/135/135
f 132/132/132 217/217/217 131/131/131
f 183/183/183 180/180/180 195/195/195
f 180/180/180 217/217/217 195/195/195
f 134/134/134 131/131/131 170/170/170
f 131/131/131 217/217/217 170/170/170
f 183/183/183 182/182/182 180/180/180
f 182/182/182 183/183/183 72/72/72
f 171/171/171 134/134/134 170/170/170
f 134/134/134 171/171/171 50/50/50
f 182/182/182 181/181/181 180/180/180
f 181/181/181 217/217/217 180/180/180
f 166/166/166 182/182/182 72/72/72
f 182/182/182 166/166/166 181/181/181
f 166/166/166 72/72/72 70/70/70
f 72/72/72 71/71/71 70/70/70
f 166/166/166 165/165/165 181/181/181
f 166/166/166 70/70/70 165/165/165
f 165/165/165 217/217/217 181/181/181
f 70/70/70 71/71/71 148/148/148
f 70/70/70 148/148/148 165/165/165
f 71/71/71 149/149/149 148/148/148
f 148/148/148 217/217/217 165/165/165
f 149/149/149 217/217/217 148/148/148
f 177/177/177 217/217/217 149/149/149
f 141/141/141 217/217/217 177/177/177
f 137/137/137 217/217/217 141/141/141
f 138/138/138 217/217/217 137/137/137
f 146/146/146 217/217/217 138/138/138
f 147/147/147 217/217/217 146/146/146
f 171/171/171 170/170/170 169/169/169
f 170/170/170 217/217/217 169/169/169
f 172/172/172 171/171/171 169/169/169
f 59/59/59 50/50/50 171/171/171
f 172/172/172 59/59/59 171/171/171
f 172/172/172 169/169/169 193/193/193
f 169/169/169 217/217/217 193/193/193
f 50/50/50 59/59/59 31/31/31
f 50/50/50 31/31/31 19/19/19
f 219/219/219 59/59/59 172/172/172
f 19/19/19 31/31/31 15/15/15
f 15/15/15 11/11/11 19/19/19
f 10/10/10 11/11/11 15/15/15
f 16/16/16 10/10/10 15/15/15
f 59/59/59 38/38/38 31/31/31
f 219/219/219 38/38/38 59/59/59
f 31/31/31 18/18/18 15/15/15
f 31/31/31 38/38/38 18/18/18
f 17/17/17 16/16/16 15/15/15
f 18/18/18 17/17/17 15/15/15
f 194/194/194 172/172/172 193/193/193
f 194/194/194 219/219/219 172/172/172
f 194/194/194 193/193/193 157/157/157
f 193/193/193 217/217/217 157/157/157
f 17/17/17 33/33/33 16/16/16
f 33/33/33 32/32/32 16/16/16
f 32/32/32 33/33/33 55/55/55
f 33/33/33 41/41/41 55/55/55
f 158/158/158 194/194/194 157/157/157
f 17/17/17 66/66/66 33/33/33
f 66/66/66 17/17/17 18/18/18
f 158/158/158 157/157/157 156/156/156
f 157/157/157 217/217/217 156/156/156
f 158/158/158 218/218/218 194/194/194
f 218/218/218 219/219/219 194/194/194
f 159/159/159 158/158/158 156/156/156
f 158/158/158 159/159/159 218/218/218
f 159/159/159 156/156/156 201/201/201
f 156/156/156 217/217/217 201/201/201
f 202/202/202 159/159/159 201/201/201
f 159/159/159 202/202/202 218/218/218
f 202/202/202 201/201/201 191/191/191
f 201/201/201 217/217/217 191/191/191
f 192/192/192 202/202/202 191/191/191
f 202/202/202 192/192/192 218/218/218
f 192/192/192 191/191/191 189/189/189
f 191/191/191 217/217/217 189/189/189
f 192/192/192 190/190/190 218/218/218
f 190/190/190 192/192/192 189/189/189
f 220/220/220 219/219/219 218/218/218
f 38/38/38 219/219/219 220/220/220
f 184/184/184 220/220/220 218/218/218
f 220/220/220 184/184/184 38/38/38
f 184/184/184 218/218/218 190/190/190
f 190/190/190 189/189/189 153/153/153
f 189/189/189 217/217/217 153/153/153
f 154/154/154 184/184/184 190/190/190
f 154/154/154 190/190/190 153/153/153
f 38/38/38 184/184/184 37/37/37
f 37/37/37 184/184/184 154/154/154
f 38/38/38 37/37/37 18/18/18
f 154/154/154 153/153/153 152/152/152
f 153/153/153 217/217/217 152/152/152
f 155/155/155 37/37/37 154/154/154
f 155/155/155 154/154/154 152/152/152
f 18/18/18 37/37/37 67/67/67
f 37/37/37 155/155/155 67/67/67
f 67/67/67 66/66/66 18/18/18
f 155/155/155 152/152/152 151/151/151
f 67/67/67 155/155/155 151/151/151
f 152/152/152 217/217/217 151/151/151
f 67/67/67 151/151/151 150/150/150
f 66/66/66 67/67/67 150/150/150
f 151/151/151 217/217/217 150/150/150
f 66/66/66 150/150/150 143/143/143
f 150/150/150 217/217/217 143/143/143
f 144/144/144 66/66/66 143/143/143
f 66/66/66 144/144/144 33/33/33
f 144/144/144 143/143/143 142/142/142
f 143/143/143 217/217/217 142/142/142
f 144/144/144 145/145/145 33/33/33
f 145/145/145 144/144/144 142/142/142
f 145/145/145 60/60/60 33/33/33
f 145/145/145 142/142/142 168/168/168
f 142/142/142 217/217/217 168/168/168
f 60/60/60 44/44/44 33/33/33
f 44/44/44 41/41/41 33/33/33
f 63/63/63 60/60/60 145/145/145
f 60/60/60 63/63/63 44/44/44
f 62/62/62 145/145/145 168/168/168
f 62/62/62 63/63/63 145/145/145
f 44/44/44 43/43/43 41/41/41
f 43/43/43 42/42/42 41/41/41
f 221/221/221 44/44/44 63/63/63
f 62/62/62 168/168/168 167/167/167
f 168/168/168 217/217/217 167/167/167
f 44/44/44 221/221/221 216/216/216
f 44/44/44 216/216/216 43/43/43
f 63/63/63 64/64/64 221/221/221
f 64/64/64 63/63/63 62/62/62
f 216/216/216 221/221/221 64/64/64
f 65/65/65 62/62/62 167/167/167
f 65/65/65 64/64/64 62/62/62
f 65/65/65 167/167/167 203/203/203
f 167/167/167 217/217/217 203/203/203
f 204/204/204 65/65/65 203/203/203
f 64/64/64 65/65/65 204/204/204
f 204/204/204 203/203/203 205/205/205
f 203/203/203 217/217/217 205/205/205
f 206/206/206 204/204/204 205/205/205
f 204/204/204 206/206/206 64/64/64
f 206/206/206 205/205/205 207/207/207
f 205/205/205 217/217/217 207/207/207
f 206/206/206 208/208/208 64/64/64
f 208/208/208 206/206/206 207/207/207
f 208/208/208 207/207/207 198/198/198
f 207/207/207 217/217/217 198/198/198
f 208/208/208 199/199/199 64/64/64
f 199/199/199 208/208/208 198/198/198
f 199/199/199 200/200/200 64/64/64
f 200/200/200 216/216/216 64/64/64
f 199/199/199 198/198/198 197/197/197
f 200/200/200 199/199/199 197/197/197
f 198/198/198 217/217/217 197/197/197
f 216/216/216 200/200/200 187/187/187
f 43/43/43 216/216/216 187/187/187
f 43/43/43 187/187/187 42/42/42
f 200/200/200 197/197/197 186/186/186
f 187/187/187 200/200/200 186/186/186
f 197/197/197 217/217/217 186/186/186
f 187/187/187 186/186/186 185/185/185
f 186/186/186 217/217/217 185/185/185
f 187/187/187 188/188/188 42/42/42
f 188/188/188 187/187/187 185/185/185
f 188/188/188 214/214/214 42/42/42
f 214/214/214 46/46/46 42/42/42
f 188/188/188 185/185/185 213/213/213
f 214/214/214 188/188/188 213/213/213
f 185/185/185 217/217/217 213/213/213
f 46/46/46 214/214/214 25/25/25
f 214/214/214 213/213/213 211/211/211
f 213/213/213 217/217/217 211/211/211
f 214/214/214 212/212/212 25/25/25
f 212/212/212 214/214/214 211/211/211
f 58/58/58 25/25/25 212/212/212
f 58/58/58 52/52/52 25/25/25
f 212/212/212 211/211/211 129/129/129
f 211/211/211 217/217/217 129/129/129
f 130/130/130 58/58/58 212/212/212
f 130/130/130 212/212/212 129/129/129
f 58/58/58 123/123/123 52/52/52
f 123/123/123 58/58/58 130/130/130
f 130/130/130 129/129/129 126/126/126
f 129/129/129 217/217/217 126/126/126
f 127/127/127 130/130/130 126/126/126
f 127/127/127 123/123/123 130/130/130
f 127/127/127 126/126/126 125/125/125
f 126/126/126 217/217/217 125/125/125
f 124/124/124 52/52/52 123/123/123
f 124/124/124 215/215/215 52/52/52
f 127/127/127 128/128/128 123/123/123
f 128/128/128 127/127/127 125/125/125
f 123/123/123 160/160/160 124/124/124
f 160/160/160 215/215/215 124/124/124
f 128/128/128 160/160/160 123/123/123
f 215/215/215 160/160/160 176/176/176
f 128/128/128 125/125/125 178/178/178
f 125/125/125 217/217/217 178/178/178
f 179/179/179 128/128/128 178/178/178
f 160/160/160 128/128/128 179/179/179
f 179/179/179 178/178/178 162/162/162
f 178/178/178 217/217/217 162/162/162
f 163/163/163 160/160/160 179/179/179
f 163/163/163 179/179/179 162/162/162
f 160/160/160 175/175/175 176/176/176
f 163/163/163 162/162/162 161/161/161
f 162/162/162 217/217/217 161/161/161
f 163/163/163 164/164/164 160/160/160
f 164/164/164 163/163/163 161/161/161
f 164/164/164 175/175/175 160/160/160
f 164/164/164 161/161/161 174/174/174
f 175/175/175 164/164/164 174/174/174
f 161/161/161 217/217/217 174/174/174
f 176/176/176 175/175/175 173/173/173
f 175/175/175 174/174/174 173/173/173
f 174/174/174 217/217/217 173/173/173
f 176/176/176 173/173/173 147/147/147
f 173/173/173 217/217/217 147/147/147
f 256/256/256 255/255/255 254/254/254
f 257/257/257 256/256/256 254/254/254
f 254/254/254 255/255/255 292/292/292
f 288/288/288 256/256/256 257/257/257
f 292/292/292 368/368/368 254/254/254
f 254/254/254 361/361/361 257/257/257
f 368/368/368 361/361/361 254/254/254
f 256/256/256 293/293/293 255/255/255
f 361/361/361 332/332/332 257/257/257
f 289/289/289 293/293/293 256/256/256
f 288/288/288 289/289/289 256/256/256
f 257/257/257 332/332/332 333/333/333
f 329/329/329 288/288/288 257/257/257
f 329/329/329 257/257/257 333/333/333
f 332/332/332 361/361/361 331/331/331
f 333/333/333 332/332/332 330/330/330
f 332/332/332 331/331/331 330/330/330
f 361/361/361 368/368/368 360/360/360
f 361/361/361 360/360/360 331/331/331
f 333/333/333 330/330/330 336/336/336
f 331/331/331 360/360/360 335/335/335
f 330/330/330 331/331/331 334/334/334
f 331/331/331 335/335/335 334/334/334
f 336/336/336 330/330/330 338/338/338
f 330/330/330 334/334/334 338/338/338
f 337/337/337 333/333/333 336/336/336
f 333/333/333 337/337/337 329/329/329
f 338/338/338 347/347/347 336/336/336
f 336/336/336 344/344/344 337/337/337
f 347/347/347 344/344/344 336/336/336
f 337/337/337 350/350/350 329/329/329
f 338/338/338 334/334/334 499/499/499
f 350/350/350 276/276/276 329/329/329
f 276/276/276 288/288/288 329/329/329
f 350/350/350 337/337/337 348/348/348
f 344/344/344 348/348/348 337/337/337
f 276/276/276 277/277/277 288/288/288
f 277/277/277 289/289/289 288/288/288
f 279/279/279 276/276/276 350/350/350
f 301/301/301 350/350/350 348/348/348
f 301/301/301 279/279/279 350/350/350
f 278/278/278 277/277/277 276/276/276
f 279/279/279 278/278/278 276/276/276
f 304/304/304 289/289/289 277/277/277
f 300/300/300 279/279/279 301/301/301
f 305/305/305 304/304/304 277/277/277
f 305/305/305 277/277/277 278/278/278
f 300/300/300 299/299/299 279/279/279
f 299/299/299 278/278/278 279/279/279
f 302/302/302 300/300/300 301/301/301
f 302/302/302 301/301/301 348/348/348
f 295/295/295 299/299/299 300/300/300
f 306/306/306 300/300/300 302/302/302
f 306/306/306 295/295/295 300/300/300
f 349/349/349 302/302/302 348/348/348
f 299/299/299 467/467/467 278/278/278
f 467/467/467 299/299/299 295/295/295
f 307/307/307 306/306/306 302/302/302
f 307/307/307 302/302/302 349/349/349
f 344/344/344 345/345/345 348/348/348
f 345/345/345 349/349/349 348/348/348
f 346/346/346 345/345/345 344/344/344
f 347/347/347 346/346/346 344/344/344
f 345/345/345 370/370/370 349/349/349
f 346/346/346 371/371/371 345/345/345
f 371/371/371 370/370/370 345/345/345
f 372/372/372 307/307/307 349/349/349
f 370/370/370 372/372/372 349/349/349
f 308/308/308 306/306/306 307/307/307
f 366/366/366 307/307/307 372/372/372
f 366/366/366 308/308/308 307/307/307
f 370/370/370 363/363/363 372/372/372
f 308/308/308 294/294/294 306/306/306
f 294/294/294 295/295/295 306/306/306
f 365/365/365 366/366/366 372/372/372
f 363/363/363 365/365/365 372/372/372
f 285/285/285 308/308/308 366/366/366
f 364/364/364 363/363/363 370/370/370
f 371/371/371 364/364/364 370/370/370
f 359/359/359 285/285/285 366/366/366
f 359/359/359 366/366/366 365/365/365
f 285/285/285 286/286/286 308/308/308
f 286/286/286 294/294/294 308/308/308
f 269/269/269 285/285/285 359/359/359
f 286/286/286 285/285/285 269/269/269
f 343/343/343 359/359/359 365/365/365
f 263/263/263 269/269/269 359/359/359
f 263/263/263 359/359/359 343/343/343
f 363/363/363 339/339/339 365/365/365
f 339/339/339 343/343/343 365/365/365
f 364/364/364 342/342/342 363/363/363
f 342/342/342 339/339/339 363/363/363
f 364/364/364 371/371/371 494/494/494
f 339/339/339 340/340/340 343/343/343
f 371/371/371 493/493/493 494/494/494
f 371/371/371 346/346/346 493/493/493
f 364/364/364 494/494/494 504/504/504
f 342/342/342 364/364/364 504/504/504
f 346/346/346 503/503/503 493/493/493
f 346/346/346 347/347/347 503/503/503
f 342/342/342 341/341/341 339/339/339
f 341/341/341 340/340/340 339/339/339
f 347/347/347 502/502/502 503/503/503
f 347/347/347 338/338/338 502/502/502
f 338/338/338 499/499/499 502/502/502
f 341/341/341 342/342/342 500/500/500
f 342/342/342 504/504/504 500/500/500
f 502/502/502 499/499/499 480/480/480
f 503/503/503 502/502/502 481/481/481
f 502/502/502 480/480/480 481/481/481
f 503/503/503 481/481/481 482/482/482
f 493/493/493 503/503/503 482/482/482
f 481/481/481 480/480/480 479/479/479
f 482/482/482 481/481/481 479/479/479
f 499/499/499 479/479/479 480/480/480
f 493/493/493 482/482/482 483/483/483
f 494/494/494 493/493/493 483/483/483
f 483/483/483 482/482/482 479/479/479
f 494/494/494 483/483/483 484/484/484
f 504/504/504 494/494/494 484/484/484
f 484/484/484 483/483/483 479/479/479
f 504/504/504 484/484/484 485/485/485
f 500/500/500 504/504/504 485/485/485
f 485/485/485 484/484/484 479/479/479
f 500/500/500 485/485/485 486/486/486
f 486/486/486 485/485/485 479/479/479
f 501/501/501 500/500/500 486/486/486
f 341/341/341 500/500/500 501/501/501
f 501/501/501 486/486/486 487/487/487
f 487/487/487 486/486/486 479/479/479
f 358/358/358 341/341/341 501/501/501
f 341/341/341 358/358/358 340/340/340
f 495/495/495 501/501/501 487/487/487
f 358/358/358 501/501/501 495/495/495
f 495/495/495 487/487/487 476/476/476
f 476/476/476 487/487/487 479/479/479
f 357/357/357 358/358/358 495/495/495
f 477/477/477 495/495/495 476/476/476
f 357/357/357 495/495/495 477/477/477
f 358/358/358 355/355/355 340/340/340
f 358/358/358 357/357/357 355/355/355
f 477/477/477 476/476/476 475/475/475
f 475/475/475 476/476/476 479/479/479
f 340/340/340 355/355/355 262/262/262
f 340/340/340 262/262/262 343/343/343
f 262/262/262 263/263/263 343/343/343
f 357/357/357 356/356/356 355/355/355
f 355/355/355 265/265/265 262/262/262
f 355/355/355 356/356/356 265/265/265
f 264/264/264 263/263/263 262/262/262
f 265/265/265 264/264/264 262/262/262
f 356/356/356 357/357/357 354/354/354
f 354/354/354 357/357/357 477/477/477
f 356/356/356 267/267/267 265/265/265
f 354/354/354 477/477/477 478/478/478
f 478/478/478 477/477/477 475/475/475
f 352/352/352 356/356/356 354/354/354
f 267/267/267 356/356/356 352/352/352
f 478/478/478 475/475/475 488/488/488
f 488/488/488 475/475/475 479/479/479
f 353/353/353 354/354/354 478/478/478
f 352/352/352 354/354/354 353/353/353
f 496/496/496 478/478/478 488/488/488
f 353/353/353 478/478/478 496/496/496
f 496/496/496 488/488/488 489/489/489
f 489/489/489 488/488/488 479/479/479
f 375/375/375 353/353/353 496/496/496
f 497/497/497 496/496/496 489/489/489
f 375/375/375 496/496/496 497/497/497
f 351/351/351 352/352/352 353/353/353
f 351/351/351 353/353/353 375/375/375
f 497/497/497 489/489/489 490/490/490
f 490/490/490 489/489/489 479/479/479
f 369/369/369 375/375/375 497/497/497
f 506/506/506 497/497/497 490/490/490
f 369/369/369 497/497/497 506/506/506
f 491/491/491 490/490/490 479/479/479
f 506/506/506 490/490/490 491/491/491
f 373/373/373 375/375/375 369/369/369
f 373/373/373 351/351/351 375/375/375
f 492/492/492 491/491/491 479/479/479
f 281/281/281 352/352/352 351/351/351
f 281/281/281 267/267/267 352/352/352
f 498/498/498 492/492/492 479/479/479
f 499/499/499 498/498/498 479/479/479
f 334/334/334 498/498/498 499/499/499
f 334/334/334 335/335/335 498/498/498
f 505/505/505 491/491/491 492/492/492
f 498/498/498 505/505/505 492/492/492
f 335/335/335 505/505/505 498/498/498
f 505/505/505 506/506/506 491/491/491
f 335/335/335 362/362/362 505/505/505
f 362/362/362 506/506/506 505/505/505
f 362/362/362 369/369/369 506/506/506
f 360/360/360 362/362/362 335/335/335
f 367/367/367 369/369/369 362/362/362
f 360/360/360 367/367/367 362/362/362
f 367/367/367 373/373/373 369/369/369
f 368/368/368 367/367/367 360/360/360
f 298/298/298 351/351/351 373/373/373
f 298/298/298 281/281/281 351/351/351
f 374/374/374 373/373/373 367/367/367
f 368/368/368 374/374/374 367/367/367
f 374/374/374 298/298/298 373/373/373
f 374/374/374 368/368/368 292/292/292
f 298/298/298 374/374/374 260/260/260
f 281/281/281 298/298/298 260/260/260
f 259/259/259 374/374/374 292/292/292
f 374/374/374 259/259/259 260/260/260
f 292/292/292 273/273/273 259/259/259
f 255/255/255 273/273/273 292/292/292
f 260/260/260 259/259/259 258/258/258
f 273/273/273 258/258/258 259/259/259
f 280/280/280 281/281/281 260/260/260
f 261/261/261 260/260/260 258/258/258
f 280/280/280 260/260/260 261/261/261
f 281/281/281 280/280/280 266/266/266
f 267/267/267 281/281/281 266/266/266
f 267/267/267 266/266/266 265/265/265
f 266/266/266 264/264/264 265/265/265
f 287/287/287 280/280/280 261/261/261
f 266/266/266 280/280/280 287/287/287
f 282/282/282 261/261/261 258/258/258
f 261/261/261 282/282/282 287/287/287
f 264/264/264 266/266/266 272/272/272
f 272/272/272 266/266/266 287/287/287
f 283/283/283 282/282/282 258/258/258
f 283/283/283 258/258/258 273/273/273
f 282/282/282 303/303/303 287/287/287
f 287/287/287 303/303/303 272/272/272
f 274/274/274 273/273/273 255/255/255
f 274/274/274 283/283/283 273/273/273
f 268/268/268 264/264/264 272/272/272
f 263/263/263 264/264/264 268/268/268
f 269/269/269 263/263/263 268/268/268
f 303/303/303 284/284/284 272/272/272
f 272/272/272 284/284/284 268/268/268
f 270/270/270 269/269/269 268/268/268
f 270/270/270 286/286/286 269/269/269
f 284/284/284 271/271/271 268/268/268
f 271/271/271 270/270/270 268/268/268
f 303/303/303 312/312/312 284/284/284
f 319/319/319 270/270/270 271/271/271
f 270/270/270 319/319/319 286/286/286
f 284/284/284 291/291/291 271/271/271
f 312/312/312 291/291/291 284/284/284
f 282/282/282 387/387/387 303/303/303
f 387/387/387 282/282/282 283/283/283
f 312/312/312 303/303/303 424/424/424
f 387/387/387 424/424/424 303/303/303
f 472/472/472 291/291/291 312/312/312
f 425/425/425 312/312/312 424/424/424
f 472/472/472 312/312/312 425/425/425
f 424/424/424 387/387/387 423/423/423
f 425/425/425 424/424/424 422/422/422
f 424/424/424 423/423/423 422/422/422
f 425/425/425 422/422/422 446/446/446
f 387/387/387 384/384/384 423/423/423
f 447/447/447 425/425/425 446/446/446
f 447/447/447 472/472/472 425/425/425
f 387/387/387 386/386/386 384/384/384
f 386/386/386 387/387/387 283/283/283
f 386/386/386 385/385/385 384/384/384
f 389/389/389 386/386/386 283/283/283
f 386/386/386 389/389/389 385/385/385
f 384/384/384 470/470/470 423/423/423
f 423/423/423 470/470/470 422/422/422
f 385/385/385 470/470/470 384/384/384
f 422/422/422 470/470/470 446/446/446
f 389/389/389 388/388/388 385/385/385
f 388/388/388 470/470/470 385/385/385
f 447/447/447 446/446/446 410/410/410
f 446/446/446 470/470/470 410/410/410
f 411/411/411 447/447/447 410/410/410
f 389/389/389 449/449/449 388/388/388
f 411/411/411 410/410/410 409/409/409
f 410/410/410 470/470/470 409/409/409
f 449/449/449 448/448/448 388/388/388
f 448/448/448 470/470/470 388/388/388
f 412/412/412 411/411/411 409/409/409
f 411/411/411 471/471/471 447/447/447
f 411/411/411 412/412/412 471/471/471
f 471/471/471 472/472/472 447/447/447
f 412/412/412 409/409/409 454/454/454
f 409/409/409 470/470/470 454/454/454
f 455/455/455 412/412/412 454/454/454
f 412/412/412 455/455/455 471/471/471
f 455/455/455 454/454/454 444/444/444
f 454/454/454 470/470/470 444/444/444
f 445/445/445 455/455/455 444/444/444
f 455/455/455 445/445/445 471/471/471
f 445/445/445 444/444/444 442/442/442
f 444/444/444 470/470/470 442/442/442
f 473/473/473 472/472/472 471/471/471
f 291/291/291 472/472/472 473/473/473
f 445/445/445 443/443/443 471/471/471
f 443/443/443 445/445/445 442/442/442
f 437/437/437 473/473/473 471/471/471
f 473/473/473 437/437/437 291/291/291
f 437/437/437 471/471/471 443/443/443
f 443/443/443 442/442/442 406/406/406
f 442/442/442 470/470/470 406/406/406
f 407/407/407 437/437/437 443/443/443
f 407/407/407 443/443/443 406/406/406
f 291/291/291 437/437/437 290/290/290
f 290/290/290 437/437/437 407/407/407
f 291/291/291 290/290/290 271/271/271
f 407/407/407 406/406/406 405/405/405
f 406/406/406 470/470/470 405/405/405
f 408/408/408 290/290/290 407/407/407
f 408/408/408 407/407/407 405/405/405
f 271/271/271 290/290/290 320/320/320
f 290/290/290 408/408/408 320/320/320
f 320/320/320 319/319/319 271/271/271
f 408/408/408 405/405/405 404/404/404
f 320/320/320 408/408/408 404/404/404
f 405/405/405 470/470/470 404/404/404
f 320/320/320 404/404/404 403/403/403
f 319/319/319 320/320/320 403/403/403
f 404/404/404 470/470/470 403/403/403
f 319/319/319 403/403/403 396/396/396
f 403/403/403 470/470/470 396/396/396
f 397/397/397 319/319/319 396/396/396
f 319/319/319 397/397/397 286/286/286
f 397/397/397 396/396/396 395/395/395
f 396/396/396 470/470/470 395/395/395
f 397/397/397 398/398/398 286/286/286
f 398/398/398 397/397/397 395/395/395
f 398/398/398 313/313/313 286/286/286
f 398/398/398 395/395/395 421/421/421
f 395/395/395 470/470/470 421/421/421
f 313/313/313 297/297/297 286/286/286
f 297/297/297 294/294/294 286/286/286
f 316/316/316 313/313/313 398/398/398
f 313/313/313 316/316/316 297/297/297
f 315/315/315 398/398/398 421/421/421
f 315/315/315 316/316/316 398/398/398
f 297/297/297 296/296/296 294/294/294
f 296/296/296 295/295/295 294/294/294
f 474/474/474 297/297/297 316/316/316
f 315/315/315 421/421/421 420/420/420
f 421/421/421 470/470/470 420/420/420
f 297/297/297 474/474/474 469/469/469
f 297/297/297 469/469/469 296/296/296
f 316/316/316 317/317/317 474/474/474
f 317/317/317 316/316/316 315/315/315
f 469/469/469 474/474/474 317/317/317
f 318/318/318 315/315/315 420/420/420
f 318/318/318 317/317/317 315/315/315
f 318/318/318 420/420/420 456/456/456
f 420/420/420 470/470/470 456/456/456
f 457/457/457 318/318/318 456/456/456
f 317/317/317 318/318/318 457/457/457
f 457/457/457 456/456/456 458/458/458
f 456/456/456 470/470/470 458/458/458
f 459/459/459 457/457/457 458/458/458
f 457/457/457 459/459/459 317/317/317
f 459/459/459 458/458/458 460/460/460
f 458/458/458 470/470/470 460/460/460
f 459/459/459 461/461/461 317/317/317
f 461/461/461 459/459/459 460/460/460
f 461/461/461 460/460/460 451/451/451
f 460/460/460 470/470/470 451/451/451
f 461/461/461 452/452/452 317/317/317
f 452/452/452 461/461/461 451/451/451
f 452/452/452 453/453/453 317/317/317
f 453/453/453 469/469/469 317/317/317
f 452/452/452 451/451/451 450/450/450
f 453/453/453 452/452/452 450/450/450
f 451/451/451 470/470/470 450/450/450
f 469/469/469 453/453/453 440/440/440
f 296/296/296 469/469/469 440/440/440
f 296/296/296 440/440/440 295/295/295
f 453/453/453 450/450/450 439/439/439
f 440/440/440 453/453/453 439/439/439
f 450/450/450 470/470/470 439/439/439
f 440/440/440 441/441/441 295/295/295
f 440/440/440 439/439/439 438/438/438
f 441/441/441 440/440/440 438/438/438
f 439/439/439 470/470/470 438/438/438
f 441/441/441 467/467/467 295/295/295
f 441/441/441 438/438/438 466/466/466
f 467/467/467 441/441/441 466/466/466
f 438/438/438 470/470/470 466/466/466
f 467/467/467 466/466/466 464/464/464
f 466/466/466 470/470/470 464/464/464
f 465/465/465 467/467/467 464/464/464
f 467/467/467 465/465/465 278/278/278
f 465/465/465 464/464/464 382/382/382
f 464/464/464 470/470/470 382/382/382
f 311/311/311 278/278/278 465/465/465
f 311/311/311 305/305/305 278/278/278
f 383/383/383 465/465/465 382/382/382
f 383/383/383 311/311/311 465/465/465
f 383/383/383 382/382/382 379/379/379
f 382/382/382 470/470/470 379/379/379
f 376/376/376 311/311/311 383/383/383
f 311/311/311 376/376/376 305/305/305
f 380/380/380 383/383/383 379/379/379
f 380/380/380 376/376/376 383/383/383
f 380/380/380 379/379/379 378/378/378
f 379/379/379 470/470/470 378/378/378
f 380/380/380 381/381/381 376/376/376
f 381/381/381 380/380/380 378/378/378
f 377/377/377 305/305/305 376/376/376
f 381/381/381 378/378/378 431/431/431
f 378/378/378 470/470/470 431/431/431
f 377/377/377 468/468/468 305/305/305
f 305/305/305 468/468/468 304/304/304
f 376/376/376 413/413/413 377/377/377
f 381/381/381 413/413/413 376/376/376
f 413/413/413 468/468/468 377/377/377
f 432/432/432 381/381/381 431/431/431
f 413/413/413 381/381/381 432/432/432
f 432/432/432 431/431/431 415/415/415
f 431/431/431 470/470/470 415/415/415
f 416/416/416 432/432/432 415/415/415
f 416/416/416 413/413/413 432/432/432
f 416/416/416 415/415/415 414/414/414
f 415/415/415 470/470/470 414/414/414
f 416/416/416 417/417/417 413/413/413
f 417/417/417 416/416/416 414/414/414
f 417/417/417 414/414/414 427/427/427
f 414/414/414 470/470/470 427/427/427
f 417/417/417 428/428/428 413/413/413
f 428/428/428 417/417/417 427/427/427
f 468/468/468 413/413/413 429/429/429
f 413/413/413 428/428/428 429/429/429
f 428/428/428 427/427/427 426/426/426
f 429/429/429 428/428/428 426/426/426
f 427/427/427 470/470/470 426/426/426
f 468/468/468 429/429/429 322/322/322
f 304/304/304 468/468/468 322/322/322
f 429/429/429 426/426/426 400/400/400
f 322/322/322 429/429/429 400/400/400
f 426/426/426 470/470/470 400/400/400
f 304/304/304 322/322/322 289/289/289
f 322/322/322 400/400/400 399/399/399
f 400/400/400 470/470/470 399/399/399
f 322/322/322 321/321/321 289/289/289
f 321/321/321 322/322/322 399/399/399
f 293/293/293 289/289/289 321/321/321
f 321/321/321 399/399/399 391/391/391
f 399/399/399 470/470/470 391/391/391
f 392/392/392 293/293/293 321/321/321
f 392/392/392 321/321/321 391/391/391
f 293/293/293 392/392/392 275/275/275
f 293/293/293 275/275/275 255/255/255
f 392/392/392 391/391/391 390/390/390
f 391/391/391 470/470/470 390/390/390
f 275/275/275 274/274/274 255/255/255
f 393/393/393 392/392/392 390/390/390
f 392/392/392 393/393/393 275/275/275
f 393/393/393 390/390/390 394/394/394
f 390/390/390 470/470/470 394/394/394
f 393/393/393 327/327/327 275/275/275
f 327/327/327 393/393/393 394/394/394
f 275/275/275 314/314/314 274/274/274
f 327/327/327 314/314/314 275/275/275
f 327/327/327 394/394/394 430/430/430
f 394/394/394 470/470/470 430/430/430
f 314/314/314 327/327/327 326/326/326
f 326/326/326 327/327/327 430/430/430
f 314/314/314 310/310/310 274/274/274
f 274/274/274 310/310/310 283/283/283
f 328/328/328 314/314/314 326/326/326
f 314/314/314 328/328/328 310/310/310
f 326/326/326 430/430/430 402/402/402
f 430/430/430 470/470/470 402/402/402
f 310/310/310 309/309/309 283/283/283
f 309/309/309 389/389/389 283/283/283
f 328/328/328 463/463/463 310/310/310
f 309/309/309 462/462/462 389/389/389
f 310/310/310 462/462/462 309/309/309
f 463/463/463 462/462/462 310/310/310
f 462/462/462 449/449/449 389/389/389
f 325/325/325 463/463/463 328/328/328
f 325/325/325 462/462/462 463/463/463
f 325/325/325 328/328/328 326/326/326
f 449/449/449 462/462/462 436/436/436
f 462/462/462 325/325/325 436/436/436
f 449/449/449 436/436/436 448/448/448
f 324/324/324 326/326/326 402/402/402
f 324/324/324 325/325/325 326/326/326
f 436/436/436 433/433/433 448/448/448
f 433/433/433 470/470/470 448/448/448
f 324/324/324 402/402/402 401/401/401
f 402/402/402 470/470/470 401/401/401
f 436/436/436 435/435/435 433/433/433
f 435/435/435 436/436/436 325/325/325
f 434/434/434 470/470/470 433/433/433
f 435/435/435 434/434/434 433/433/433
f 401/401/401 470/470/470 418/418/418
f 418/418/418 470/470/470 434/434/434
f 323/323/323 324/324/324 401/401/401
f 323/323/323 401/401/401 418/418/418
f 325/325/325 324/324/324 323/323/323
f 419/419/419 418/418/418 434/434/434
f 419/419/419 323/323/323 418/418/418
f 435/435/435 419/419/419 434/434/434
f 419/419/419 325/325/325 323/323/323
f 419/419/419 435/435/435 325/325/325
