# VPXTOOL table OBJ file
# VPXTOOL OBJ file
# numVerts: 479 numFaces: 491
o PinCab_Cabinet
v 0.03819 0.118195 -2.274144
v -0.030353 -0.058425 -2.284684
v -0.03116 -0.065696 -2.285118
v -0.238746 -0.007518 -2.281646
v -0.083534 -0.032984 -2.283166
v -0.077336 -0.02908 -2.282933
v -0.088706 -0.038167 -2.283475
v -0.092539 -0.072718 -2.285537
v -0.094973 -0.065817 -2.285125
v -0.095 -0.051278 -2.284257
v -0.092593 -0.044368 -2.283845
v -0.095807 -0.058549 -2.284692
v 0.03819 0.118195 -2.274144
v -0.070423 -0.026651 -2.282788
v -0.063142 -0.025818 -2.282738
v -0.055858 -0.026623 -2.282786
v -0.048936 -0.029026 -2.28293
v -0.037532 -0.03807 -2.283469
v -0.033621 -0.044256 -2.283839
v -0.997544 0.118195 -2.274144
v -0.718259 -0.007859 -2.281666
v -0.997544 -0.630247 -2.318807
v -0.725376 -0.437185 -2.307286
v -0.03116 -0.065696 -2.285118
v 0.03819 -0.630247 -2.318807
v -0.033567 -0.072606 -2.28553
v -0.037454 -0.078807 -2.2859
v -0.229659 -0.441661 -2.307554
v -0.088628 -0.078904 -2.285906
v -0.083436 -0.084067 -2.286214
v -0.077224 -0.087948 -2.286446
v -0.070302 -0.090351 -2.286589
v -0.063018 -0.091156 -2.286637
v -0.055737 -0.090323 -2.286587
v -0.048824 -0.087894 -2.286443
v -0.042626 -0.08399 -2.28621
v 0.000309 0.34902 -0.252366
v 0.000309 0.361796 -0.153985
v 0.000309 0.352699 -0.252467
v 0.000309 0.355725 -0.24566
v 0.000309 0.36703 -0.154206
v 0.000309 0.327445 -0.148186
v 0.000309 0.327493 -0.153997
v 0.000309 0.376963 -0.154019
v 0.000309 0.379371 -0.148943
v 0.000309 0.380747 -0.157215
v 0.000309 0.3765 -0.194322
v 0.000309 0.374272 -0.20131
v 0.000309 0.371349 -0.201043
v -0.968065 0.361796 -0.153985
v -0.968065 0.34902 -0.252366
v -0.968065 0.352699 -0.252467
v -0.968065 0.355724 -0.24566
v -0.968065 0.36703 -0.154206
v -0.968065 0.327445 -0.148186
v -0.968065 0.327493 -0.153997
v -0.968065 0.376963 -0.154019
v -0.968065 0.379371 -0.148943
v -0.968065 0.380747 -0.157215
v -0.968065 0.3765 -0.194322
v -0.968065 0.374272 -0.20131
v -0.968065 0.371349 -0.201043
v 0.007783 0.316351 -0.11586
v 0.007783 0.325242 -0.116043
v 0.007783 0.318611 -0.147808
v 0.007783 0.368559 -0.147052
v 0.007783 0.365534 -0.122093
v 0.007783 0.373097 -0.141758
v 0.007783 0.371584 -0.122093
v 0.007783 0.364777 -0.106211
v 0.007783 0.364021 -0.087302
v 0.007783 0.373097 -0.104698
v 0.007783 0.370828 -0.088815
v 0.007783 0.336675 -0.087762
v 0.007783 0.325242 -0.087912
v 0.007783 0.359483 -0.04041
v 0.007783 0.353432 0.199344
v 0.007783 0.318641 0.198588
v 0.007783 0.368559 -0.039654
v -0.973309 0.325242 -0.116043
v -0.973309 0.316351 -0.11586
v -0.973308 0.318611 -0.147808
v -0.973309 0.368559 -0.147052
v -0.973309 0.365533 -0.122093
v -0.973309 0.373097 -0.141758
v -0.973309 0.371584 -0.122093
v -0.973309 0.364777 -0.10621
v -0.973309 0.364021 -0.087302
v -0.973309 0.373097 -0.104698
v -0.973309 0.370828 -0.088815
v -0.973309 0.336675 -0.087762
v -0.973309 0.325242 -0.087912
v -0.973309 0.359483 -0.04041
v -0.973309 0.353432 0.199344
v -0.973309 0.368559 -0.039654
v -0.973309 0.318641 0.198588
v -0.094973 -0.065817 -2.285125
v -0.095807 -0.058549 -2.284692
v -0.238746 -0.007518 -2.281646
v -0.088628 -0.078904 -2.285906
v -0.092539 -0.072718 -2.285537
v -0.092593 -0.044368 -2.283845
v -0.088706 -0.038167 -2.283475
v -0.063153 -0.058305 -2.28475
v -0.08484 -0.066752 -2.283722
v -0.081403 -0.072764 -2.28415
v -0.086186 -0.067429 -2.281565
v -0.086346 -0.059998 -2.283231
v -0.082538 -0.073811 -2.282019
v -0.087785 -0.060259 -2.281044
v -0.086201 -0.06871 -2.260669
v -0.087727 -0.061578 -2.260149
v -0.082634 -0.075078 -2.261122
v -0.087077 -0.054315 -2.25961
v -0.077167 -0.078837 -2.282364
v -0.077345 -0.080115 -2.261468
v -0.087195 -0.052938 -2.280499
v -0.08431 -0.047566 -2.259097
v -0.08579 -0.053101 -2.282718
v -0.084467 -0.046117 -2.279982
v -0.07967 -0.041931 -2.258658
v -0.083221 -0.046676 -2.28223
v -0.079844 -0.040402 -2.279537
v -0.073571 -0.037911 -2.258331
v -0.078865 -0.041291 -2.281811
v -0.073737 -0.0363 -2.279203
v -0.066554 -0.035863 -2.258145
v -0.073112 -0.037427 -2.281497
v -0.066688 -0.034176 -2.279012
v -0.059243 -0.035969 -2.258116
v -0.066471 -0.035426 -2.281316
v -0.059324 -0.034219 -2.278979
v -0.052287 -0.038219 -2.258249
v -0.059534 -0.035466 -2.281285
v -0.052298 -0.036424 -2.279107
v -0.046305 -0.042414 -2.25853
v -0.052915 -0.037544 -2.281406
v -0.046236 -0.040597 -2.279386
v -0.041827 -0.04818 -2.258934
v -0.047204 -0.041475 -2.281669
v -0.041676 -0.046365 -2.27979
v -0.039252 -0.055006 -2.259425
v -0.042909 -0.046909 -2.282049
v -0.039023 -0.053218 -2.280283
v -0.038808 -0.062285 -2.259961
v -0.040409 -0.053365 -2.282514
v -0.038512 -0.060545 -2.280822
v -0.040536 -0.06937 -2.260494
v -0.039928 -0.060267 -2.283022
v -0.04019 -0.067695 -2.281359
v -0.044281 -0.075632 -2.260975
v -0.041509 -0.067004 -2.283527
v -0.043907 -0.074034 -2.281845
v -0.049711 -0.080514 -2.261362
v -0.04501 -0.072975 -2.283986
v -0.049333 -0.078999 -2.282239
v -0.056343 -0.083582 -2.261621
v -0.050122 -0.077652 -2.284357
v -0.055985 -0.082147 -2.282505
v -0.063588 -0.084565 -2.26173
v -0.056389 -0.080618 -2.284607
v -0.063273 -0.083199 -2.282619
v -0.070803 -0.083374 -2.261678
v -0.063255 -0.081609 -2.284714
v -0.07055 -0.082062 -2.28257
v -0.070109 -0.080538 -2.284669
v -0.076344 -0.0775 -2.284474
v -1.005905 -0.776942 0.135079
v -1.005906 0.367835 -0.040652
v -1.005905 0.353556 0.202541
v -0.050417 -0.080663 -2.281965
v -0.049232 -0.082711 -2.282075
v -0.042741 -0.077544 -2.281767
v -0.057489 -0.083434 -2.28213
v -0.057773 -0.084405 -2.261308
v -0.050768 -0.08173 -2.261149
v -0.065256 -0.0849 -2.261338
v -0.044477 -0.075935 -2.281683
v -0.044864 -0.077113 -2.260873
v -0.065065 -0.084 -2.282165
v -0.040198 -0.069669 -2.281309
v -0.072554 -0.083172 -2.261234
v -0.040586 -0.070964 -2.260506
v -0.072472 -0.082313 -2.282064
v -0.079017 -0.079373 -2.261008
v -0.037958 -0.062422 -2.280877
v -0.038314 -0.063829 -2.26008
v -0.079051 -0.078521 -2.281837
v -0.08407 -0.073841 -2.260678
v -0.038064 -0.070695 -2.281358
v -0.037958 -0.054838 -2.280424
v -0.038249 -0.056342 -2.259633
v -0.035616 -0.062775 -2.280885
v -0.040198 -0.047591 -2.279992
v -0.040398 -0.049169 -2.259205
v -0.035616 -0.054487 -2.280391
v -0.044477 -0.041325 -2.279618
v -0.044569 -0.042947 -2.258834
v -0.038064 -0.046566 -2.279918
v -0.042741 -0.039718 -2.27951
v -0.050417 -0.036597 -2.279336
v -0.050393 -0.038229 -2.258553
v -0.039679 -0.037894 -2.262386
v -0.057489 -0.033827 -2.27917
v -0.057351 -0.035434 -2.258386
v -0.049232 -0.03455 -2.279201
v -0.065065 -0.03326 -2.279137
v -0.064825 -0.034811 -2.258348
v -0.056962 -0.031522 -2.279021
v -0.072472 -0.034947 -2.279238
v -0.07215 -0.036414 -2.258444
v -0.065242 -0.030903 -2.278984
v -0.047145 -0.031952 -2.262032
v -0.079051 -0.038739 -2.279464
v -0.078678 -0.040101 -2.258664
v -0.073337 -0.032747 -2.279094
v -0.056032 -0.02847 -2.261824
v -0.084218 -0.044298 -2.279795
v -0.083826 -0.045545 -2.258989
v -0.065554 -0.027758 -2.261781
v -0.056032 -0.028698 -2.257964
v -0.047144 -0.03218 -2.258172
v -0.065554 -0.027986 -2.257921
v -0.039678 -0.038123 -2.258526
v -0.034299 -0.045999 -2.258996
v -0.074863 -0.029878 -2.261908
v -0.074863 -0.030107 -2.258048
v -0.034301 -0.045769 -2.262856
v -0.031487 -0.054877 -2.2634
v -0.031485 -0.055107 -2.25954
v -0.031487 -0.064408 -2.263969
v -0.031485 -0.064639 -2.260109
v -0.034299 -0.073747 -2.260652
v -0.034301 -0.073516 -2.264512
v -0.039679 -0.081391 -2.264982
v -0.039678 -0.081622 -2.261122
v -0.047144 -0.087565 -2.261477
v -0.047145 -0.087333 -2.265337
v -0.056032 -0.091048 -2.261685
v -0.056962 -0.085739 -2.282256
v -0.056032 -0.090815 -2.265544
v -0.065242 -0.086359 -2.282293
v -0.065554 -0.091527 -2.265587
v -0.065554 -0.09176 -2.261728
v -0.074863 -0.089639 -2.261601
v -0.073337 -0.084514 -2.282183
v -0.074863 -0.089407 -2.26546
v -0.083132 -0.084641 -2.265176
v -0.083133 -0.084873 -2.261316
v -0.080528 -0.08037 -2.281936
v -0.089626 -0.077654 -2.264759
v -0.089628 -0.077886 -2.260899
v -0.09377 -0.069298 -2.260387
v -0.086175 -0.074294 -2.281573
v -0.084218 -0.072962 -2.281506
v -0.087266 -0.067068 -2.260273
v -0.093768 -0.069067 -2.264247
v -0.095194 -0.059873 -2.259824
v -0.089778 -0.066827 -2.281127
v -0.087515 -0.066129 -2.281098
v -0.08832 -0.059655 -2.259831
v -0.091016 -0.058631 -2.280638
v -0.095192 -0.059642 -2.263684
v -0.09377 -0.050448 -2.259262
v -0.088647 -0.05863 -2.280651
v -0.087139 -0.052262 -2.25939
v -0.093768 -0.050218 -2.263122
v -0.087515 -0.051131 -2.280203
v -0.089628 -0.04186 -2.258749
v -0.089778 -0.050435 -2.280149
v -0.089626 -0.041631 -2.262609
v -0.086175 -0.042967 -2.279703
v -0.080528 -0.036891 -2.279341
v -0.083132 -0.034644 -2.262192
v -0.083133 -0.034873 -2.258333
v -0.03116 -0.065696 -2.285118
v -0.033567 -0.072606 -2.28553
v 0.03819 -0.630247 -2.318807
v 0.03819 0.118195 -2.274144
v -0.031187 -0.051157 -2.28425
v -0.030353 -0.058425 -2.284684
v -0.997544 -0.630247 -2.318807
v -0.997544 0.118195 -2.274144
v -1.005906 0.367835 -0.040652
v -1.005905 -0.776942 0.135079
v -0.968065 0.380747 -0.157215
v -0.968065 0.3765 -0.194322
v 0.000309 0.3765 -0.194322
v -0.968065 0.374272 -0.20131
v 0.000309 0.374272 -0.20131
v 0.000309 0.380747 -0.157215
v 0.000309 0.379371 -0.148943
v -0.968065 0.379371 -0.148943
v 0.000309 0.327445 -0.148186
v -0.968065 0.327445 -0.148186
v -0.03116 -0.065696 -2.285118
v -0.030353 -0.058425 -2.284684
v -0.030353 -0.060265 -2.253839
v -0.031187 -0.051157 -2.28425
v -0.03116 -0.067536 -2.254273
v -0.031187 -0.052997 -2.253405
v -0.033567 -0.072606 -2.28553
v -0.033621 -0.046096 -2.252993
v -0.033567 -0.074445 -2.254685
v -0.033621 -0.044256 -2.283839
v -0.037454 -0.080647 -2.255055
v -0.037532 -0.039909 -2.252624
v -0.037454 -0.078807 -2.2859
v -0.037532 -0.03807 -2.283469
v -0.042626 -0.08399 -2.28621
v -0.042724 -0.034746 -2.252316
v -0.042626 -0.08583 -2.255364
v -0.042724 -0.032907 -2.283161
v -0.048824 -0.087894 -2.286443
v -0.048936 -0.029026 -2.28293
v -0.048824 -0.089734 -2.255598
v -0.048936 -0.030866 -2.252084
v -0.055737 -0.092163 -2.255742
v -0.055858 -0.028463 -2.251941
v -0.055737 -0.090323 -2.286587
v -0.055858 -0.026623 -2.282786
v -0.063018 -0.091156 -2.286637
v -0.063142 -0.025818 -2.282738
v -0.063018 -0.092996 -2.255792
v -0.063142 -0.027658 -2.251893
v -0.070302 -0.090351 -2.286589
v -0.070423 -0.026651 -2.282788
v -0.070302 -0.092191 -2.255744
v -0.070423 -0.028491 -2.251943
v -0.077224 -0.089788 -2.2556
v -0.077336 -0.03092 -2.252088
v -0.077224 -0.087948 -2.286446
v -0.077336 -0.02908 -2.282933
v -0.083436 -0.084067 -2.286214
v -0.083534 -0.032984 -2.283166
v -0.083436 -0.085907 -2.255369
v -0.083534 -0.034824 -2.252321
v -0.088628 -0.080744 -2.255061
v -0.088706 -0.038167 -2.283475
v -0.088628 -0.078904 -2.285906
v -0.088706 -0.040007 -2.25263
v -0.092539 -0.074557 -2.254692
v -0.092593 -0.044368 -2.283845
v -0.092539 -0.072718 -2.285537
v -0.092593 -0.046208 -2.253
v -0.094973 -0.067657 -2.25428
v -0.095 -0.051278 -2.284257
v -0.094973 -0.065817 -2.285125
v -0.095 -0.053118 -2.253412
v -0.095807 -0.060389 -2.253846
v -0.095807 -0.058549 -2.284692
v 0.000309 0.352699 -0.252467
v -0.968065 0.352699 -0.252467
v -0.968065 0.34902 -0.252366
v 0.000309 0.34902 -0.252366
v 0.000309 0.327445 -0.148186
v 0.000309 0.327493 -0.153997
v -0.968065 0.327493 -0.153997
v -0.968065 0.327445 -0.148186
v 0.000309 0.34902 -0.252366
v -0.968065 0.34902 -0.252366
v -0.968065 0.361796 -0.153985
v 0.000309 0.361796 -0.153985
v -1.005905 -0.776942 0.135079
v 0.042056 -0.776943 0.135079
v 0.041348 -0.750074 -0.314378
v 0.03819 -0.630247 -2.318807
v -0.997544 -0.630247 -2.318807
v 0.000309 0.371349 -0.201043
v -0.968065 0.371349 -0.201043
v -0.968065 0.376963 -0.154019
v 0.000309 0.376963 -0.154019
v 0.007783 0.364777 -0.106211
v -0.973309 0.364777 -0.10621
v -0.973309 0.365533 -0.122093
v 0.007783 0.365534 -0.122093
v 0.007783 0.371584 -0.122093
v -0.973309 0.371584 -0.122093
v -0.973309 0.373097 -0.141758
v 0.007783 0.373097 -0.141758
v 0.007783 0.365534 -0.122093
v -0.973309 0.365533 -0.122093
v -0.973309 0.371584 -0.122093
v 0.007783 0.371584 -0.122093
v 0.007783 0.370828 -0.088815
v -0.973309 0.370828 -0.088815
v -0.973309 0.373097 -0.104698
v 0.007783 0.373097 -0.104698
v -0.973309 0.325242 -0.087912
v -0.973309 0.336675 -0.087762
v 0.007783 0.336675 -0.087762
v 0.007783 0.325242 -0.087912
v 0.007783 0.318611 -0.147808
v -0.973308 0.318611 -0.147808
v -0.973309 0.316351 -0.11586
v 0.007783 0.316351 -0.11586
v 0.007783 0.373097 -0.104698
v -0.973309 0.373097 -0.104698
v -0.973309 0.364777 -0.10621
v 0.007783 0.364777 -0.106211
v 0.007783 0.359483 -0.04041
v -0.973309 0.359483 -0.04041
v -0.973309 0.364021 -0.087302
v 0.007783 0.364021 -0.087302
v -0.968065 0.36703 -0.154206
v -0.968065 0.355724 -0.24566
v 0.000309 0.355725 -0.24566
v 0.000309 0.36703 -0.154206
v -0.968065 0.352699 -0.252467
v 0.000309 0.352699 -0.252467
v 0.007783 0.368559 -0.039654
v -0.973309 0.368559 -0.039654
v -0.973309 0.359483 -0.04041
v 0.007783 0.359483 -0.04041
v 0.03819 -0.630247 -2.318807
v 0.041348 -0.750074 -0.314378
v 0.042057 0.367835 -0.040651
v 0.03819 0.118195 -2.274144
v -0.602195 -0.083164 -2.310782
v -0.53885 -0.083163 -2.310782
v -0.53885 -0.024094 -2.290281
v -0.602195 -0.024094 -2.290281
v -0.348656 -0.083163 -2.310782
v -0.348656 -0.024094 -2.290281
v -0.412001 -0.024094 -2.290281
v -0.412001 -0.083164 -2.310782
v 0.007783 0.373097 -0.141758
v -0.973309 0.373097 -0.141758
v -0.973309 0.368559 -0.147052
v 0.007783 0.368559 -0.147052
v -0.973308 0.318611 -0.147808
v 0.007783 0.318611 -0.147808
v 0.000309 0.361796 -0.153985
v -0.968065 0.361796 -0.153985
v -0.968065 0.327493 -0.153997
v 0.000309 0.327493 -0.153997
v 0.007783 0.364021 -0.087302
v -0.973309 0.364021 -0.087302
v -0.973309 0.370828 -0.088815
v 0.007783 0.370828 -0.088815
v 0.007783 0.325242 -0.116043
v -0.973309 0.325242 -0.116043
v -0.973309 0.325242 -0.087912
v 0.007783 0.325242 -0.087912
v 0.042057 0.353556 0.202541
v 0.042056 -0.776943 0.135079
v -1.005905 -0.776942 0.135079
v -1.005905 0.353556 0.202541
v 0.000309 0.376963 -0.154019
v -0.968065 0.376963 -0.154019
v -0.968065 0.36703 -0.154206
v 0.000309 0.36703 -0.154206
v -0.507052 -0.083164 -2.310783
v -0.443706 -0.083164 -2.310783
v -0.443706 -0.024094 -2.290281
v -0.507052 -0.024094 -2.290281
v 0.03819 -0.630247 -2.318807
v -0.037454 -0.078807 -2.2859
v -0.042626 -0.08399 -2.28621
v -0.033621 -0.044256 -2.283839
v -0.031187 -0.051157 -2.28425
v 0.03819 0.118195 -2.274144
v -0.048936 -0.029026 -2.28293
v -0.042724 -0.032907 -2.283161
v 0.03819 0.118195 -2.274144
v -0.042724 -0.032907 -2.283161
v -0.037532 -0.03807 -2.283469
v 0.042057 0.353556 0.202541
v 0.042057 0.367835 -0.040651
v 0.041348 -0.750074 -0.314378
v 0.042056 -0.776943 0.135079
v 0.000309 0.374272 -0.20131
v -0.968065 0.374272 -0.20131
v -0.968065 0.371349 -0.201043
v 0.000309 0.371349 -0.201043
v 0.007783 0.316351 -0.11586
v -0.973309 0.316351 -0.11586
v -0.973309 0.325242 -0.116043
v 0.007783 0.325242 -0.116043
vt 0.288422 0.986599028
vt 0.316855 0.91563803
vt 0.317191 0.91286099
vt 0.399442 0.936159015
vt 0.334667 0.92289102
vt 0.332947 0.92488599
vt 0.33699 0.921651006
vt 0.340454 0.910067976
vt 0.340679 0.91286403
vt 0.34147 0.91877699
vt 0.339189 0.92025697
vt 0.340866 0.915690005
vt 0.288422 0.986599028
vt 0.331146 0.92674297
vt 0.329202 0.92864603
vt 0.326394 0.92741299
vt 0.323729 0.92652601
vt 0.319518 0.923249006
vt 0.318047 0.920809984
vt 0.704162 0.9868119955
vt 0.592037 0.936048985
vt 0.704365 0.68562198
vt 0.594967 0.763268
vt 0.317191 0.91286099
vt 0.288176 0.68539602
vt 0.31728 0.90980101
vt 0.319708 0.90850502
vt 0.395787 0.76139599
vt 0.338621 0.90780401
vt 0.336902 0.905451
vt 0.334221 0.90457201
vt 0.331538 0.90372902
vt 0.328761 0.902553976
vt 0.326513 0.90416199
vt 0.324269 0.90566599
vt 0.322068 0.90723097
vt 0.302797 0.58420902
vt 0.34196 0.581838
vt 0.302779 0.58344
vt 0.305501 0.582828
vt 0.341902 0.58074403
vt 0.344065 0.589036
vt 0.341756 0.58900797
vt 0.342034 0.578668
vt 0.344065 0.57818002
vt 0.340786 0.57786697
vt 0.326018 0.578642
vt 0.323229 0.579086
vt 0.323318 0.57969803
vt 0.383245 0.585065
vt 0.344083 0.582694
vt 0.344065 0.583463
vt 0.346786 0.58407497
vt 0.383188 0.58616
vt 0.38535 0.57786697
vt 0.383042 0.577895
vt 0.38332 0.58823502
vt 0.38535 0.588723
vt 0.382072 0.589036
vt 0.367304 0.588261
vt 0.364515 0.587817
vt 0.364604 0.587205
vt 0.5022 0.22788703
vt 0.504934 0.227786
vt 0.502895 0.210222
vt 0.518252 0.21064001
vt 0.517321 0.22444099
vt 0.519647 0.21356702
vt 0.519181 0.22444099
vt 0.517089 0.23322201
vt 0.516856 0.24367702
vt 0.519647 0.23405898
vt 0.518949 0.242841
vt 0.508448 0.24342299
vt 0.504934 0.24334002
vt 0.515461 0.26960397
vt 0.513601 0.40216804
vt 0.502904 0.401749
vt 0.518252 0.27002203
vt 0.504934 0.19265902
vt 0.5022 0.19255799
vt 0.502895 0.210222
vt 0.518252 0.209804
vt 0.517321 0.19600403
vt 0.519647 0.206877
vt 0.519181 0.19600403
vt 0.517089 0.187222
vt 0.516856 0.176768
vt 0.519647 0.18638599
vt 0.518949 0.17760402
vt 0.508448 0.17702198
vt 0.504934 0.17710501
vt 0.515461 0.150841
vt 0.513601 0.01827699
vt 0.518252 0.15042299
vt 0.502904 0.018694997
vt 0.340679 0.91286403
vt 0.340866 0.915690005
vt 0.399442 0.936159015
vt 0.338621 0.90780401
vt 0.340454 0.910067976
vt 0.339189 0.92025697
vt 0.33699 0.921651006
vt 0.498699 0.85029602
vt 0.519018 0.84234297
vt 0.515759 0.83670002
vt 0.521613 0.84132302
vt 0.520468 0.848697
vt 0.517897 0.834957
vt 0.523228 0.848517
vt 0.527776 0.839733
vt 0.529562 0.848764
vt 0.523394 0.83163601
vt 0.528599 0.85791099
vt 0.51252 0.83000702
vt 0.51682 0.82519901
vt 0.522659 0.855834
vt 0.524986 0.86635703
vt 0.519981 0.85519499
vt 0.519963 0.86264902
vt 0.519049 0.87335902
vt 0.517601 0.86126101
vt 0.515393 0.86838698
vt 0.511318 0.87829602
vt 0.513537 0.86635602
vt 0.509319 0.87250501
vt 0.502483 0.88073897
vt 0.508153 0.870027
vt 0.502331 0.87464398
vt 0.493323 0.88047701
vt 0.501926 0.871948
vt 0.495002 0.87466198
vt 0.484645 0.877527
vt 0.495409 0.871948
vt 0.48797 0.87249202
vt 0.477224 0.87215501
vt 0.489182 0.870027
vt 0.48193 0.868339
vt 0.471711 0.86483997
vt 0.483798 0.86635602
vt 0.477379 0.86262798
vt 0.468593 0.856224
vt 0.479735 0.86126101
vt 0.47467 0.85580897
vt 0.468151 0.84706998
vt 0.477354 0.85519499
vt 0.474152 0.84849101
vt 0.470422 0.83819097
vt 0.476867 0.848696
vt 0.475772 0.841371
vt 0.475208 0.83036602
vt 0.478317 0.84234297
vt 0.479411 0.835006
vt 0.482094 0.82429397
vt 0.481575 0.83670002
vt 0.484803 0.82999802
vt 0.490467 0.82052201
vt 0.486353 0.83226699
vt 0.491412 0.826832
vt 0.499586 0.81938398
vt 0.492224 0.82944
vt 0.498641 0.82572001
vt 0.508641 0.82098901
vt 0.498668 0.82846898
vt 0.505927 0.82679099
vt 0.505111 0.82944
vt 0.510983 0.83226699
vt 0.004352 0.0052790046
vt 0.381817 0.08675599
vt 0.381948 0.00553298
vt 0.557868 0.90928
vt 0.558452 0.910543025
vt 0.562439 0.907783985
vt 0.55363 0.910457015
vt 0.552279 0.90195501
vt 0.554049 0.901479006
vt 0.550453 0.90189499
vt 0.561493 0.90674698
vt 0.555605 0.90050501
vt 0.549275 0.91032201
vt 0.564345 0.90337998
vt 0.548734 0.90130699
vt 0.556807 0.899122
vt 0.545119 0.90906
vt 0.547272 0.90024501
vt 0.566056 0.89933199
vt 0.557549 0.89745498
vt 0.541501 0.906611025
vt 0.546198 0.898802996
vt 0.565518 0.904085994
vt 0.566328 0.894963026
vt 0.557765 0.895651996
vt 0.567357 0.899636984
vt 0.565453 0.890671015
vt 0.557439 0.89387101
vt 0.567667 0.89487898
vt 0.56331 0.886801004
vt 0.556602 0.892274976
vt 0.566743 0.890208006
vt 0.564436 0.885913014
vt 0.560045 0.883818984
vt 0.55533 0.89100897
vt 0.574154 0.87827897
vt 0.556083 0.881990016
vt 0.553739 0.89018798
vt 0.560794 0.88267201
vt 0.551789 0.881289005
vt 0.551971 0.889886975
vt 0.556469 0.880707026
vt 0.54749 0.88201201
vt 0.550178 0.89014298
vt 0.551778 0.87991899
vt 0.567972 0.872374
vt 0.543536 0.883829
vt 0.548516 0.89095402
vt 0.54709 0.88073599
vt 0.560233 0.86852998
vt 0.540264 0.886712015
vt 0.547067 0.892085016
vt 0.551781 0.86733401
vt 0.561299 0.864928
vt 0.570193 0.86918598
vt 0.551774 0.86369598
vt 0.577105 0.87601
vt 0.581766 0.884249985
vt 0.543348 0.868554
vt 0.542285 0.86497498
vt 0.578416 0.885572016
vt 0.580331 0.89385301
vt 0.584047 0.89353502
vt 0.579576 0.90241301
vt 0.583347 0.90327299
vt 0.579751 0.91228902
vt 0.576545 0.91044599
vt 0.571094 0.91718602
vt 0.573721 0.920084
vt 0.565363 0.92536998
vt 0.563806 0.921917975
vt 0.556099 0.928030014
vt 0.553784 0.911810994
vt 0.555598 0.924393
vt 0.549052 0.91163802
vt 0.546973 0.92422801
vt 0.546314 0.928030014
vt 0.537167 0.92471498
vt 0.544531 0.910278976
vt 0.538841 0.92150098
vt 0.532044 0.91653001
vt 0.529508 0.91920203
vt 0.540555 0.907597005
vt 0.526858 0.90989798
vt 0.523569 0.91173601
vt 0.520413 0.90282601
vt 0.537741 0.90379
vt 0.538863 0.90315801
vt 0.545606 0.897109985
vt 0.523907 0.902062
vt 0.519603 0.89349401
vt 0.535937 0.899414
vt 0.537275 0.899115026
vt 0.545554 0.895316005
vt 0.535681 0.894596994
vt 0.523284 0.89372802
vt 0.521604 0.884024024
vt 0.537077 0.894737005
vt 0.546053 0.89358598
vt 0.525157 0.88542402
vt 0.538132 0.890498996
vt 0.526596 0.875838995
vt 0.536894 0.889994025
vt 0.529439 0.87811202
vt 0.539235 0.88587803
vt 0.542791 0.88270199
vt 0.535647 0.87235498
vt 0.533476 0.869192
vt 0.317191 0.91286099
vt 0.31728 0.90980101
vt 0.288176 0.68539602
vt 0.288422 0.986599028
vt 0.31642 0.91842997
vt 0.316855 0.91563803
vt 0.003888 0.824907
vt 0.253874 0.82507497
vt 0.381817 0.08675599
vt 0.004352 0.0052790046
vt 0.302779 0.621898
vt 0.302779 0.62969798
vt 0.687568 0.62969798
vt 0.302779 0.63121402
vt 0.687568 0.63121402
vt 0.687568 0.621898
vt 0.687568 0.620237
vt 0.302779 0.620237
vt 0.687568 0.60938102
vt 0.302779 0.60938102
vt 0.413354 0.89080697
vt 0.412533 0.89593601
vt 0.427414 0.89644098
vt 0.410692 0.901772976
vt 0.427608 0.89454502
vt 0.427572 0.89831102
vt 0.41305 0.88441098
vt 0.428267 0.900107026
vt 0.42823 0.89273602
vt 0.414612 0.90652001
vt 0.429328 0.89119899
vt 0.429353 0.90169197
vt 0.419413 0.88248098
vt 0.41734 0.91110802
vt 0.423384 0.88034302
vt 0.430653 0.90291202
vt 0.430665 0.88985503
vt 0.419564 0.91764802
vt 0.426867 0.87853402
vt 0.426207 0.918365
vt 0.432245 0.88880497
vt 0.43234 0.903844
vt 0.434038 0.88816297
vt 0.434171 0.90436
vt 0.43031 0.87583202
vt 0.431479 0.92007601
vt 0.434521 0.87088501
vt 0.43755 0.92303699
vt 0.435919 0.88780701
vt 0.436039 0.904452026
vt 0.440105 0.87344402
vt 0.44202 0.91660899
vt 0.437849 0.88799697
vt 0.437734 0.904148996
vt 0.439689 0.88861501
vt 0.439429 0.903411984
vt 0.445053 0.87486899
vt 0.445154 0.91359103
vt 0.451432 0.87531799
vt 0.448316 0.91149402
vt 0.441266 0.88955802
vt 0.441054 0.902473986
vt 0.44264 0.89095199
vt 0.451151 0.90881401
vt 0.455088 0.88039601
vt 0.442416 0.90122998
vt 0.443617 0.89251101
vt 0.45514 0.90647602
vt 0.459787 0.884801984
vt 0.443453 0.89970499
vt 0.444208 0.89437801
vt 0.462517 0.90355599
vt 0.459463 0.891195
vt 0.444126 0.897983015
vt 0.444375 0.896267
vt 0.460346 0.89664298
vt 0.687568 0.577098
vt 0.302779 0.577098
vt 0.302779 0.57786697
vt 0.687568 0.57786697
vt 0.302779 0.589036
vt 0.302779 0.59024602
vt 0.687568 0.59024602
vt 0.687568 0.589036
vt 0.302779 0.651927
vt 0.687568 0.651927
vt 0.687568 0.63121402
vt 0.302779 0.63121402
vt 0.468914 0.77017498
vt 0.468914 0.81191802
vt 0.486849 0.81189
vt 0.566833 0.811764
vt 0.566833 0.77050799
vt 0.302779 0.60938102
vt 0.687568 0.60938102
vt 0.687568 0.59948897
vt 0.302779 0.59948897
vt 0.53552 0.560736
vt 0.53552 0.01827699
vt 0.530635 0.01827699
vt 0.530635 0.560736
vt 0.52571 0.560736
vt 0.52571 0.01827699
vt 0.519647 0.01827699
vt 0.519647 0.560736
vt 0.551123 0.560736
vt 0.551123 0.01827699
vt 0.549265 0.01827699
vt 0.549265 0.560736
vt 0.530635 0.560736
vt 0.530635 0.01827699
vt 0.52571 0.01827699
vt 0.52571 0.560736
vt 0.53552 0.560736
vt 0.539031 0.560736
vt 0.539031 0.01827699
vt 0.53552 0.01827699
vt 0.49356 0.560736
vt 0.49356 0.01827699
vt 0.483716 0.01827699
vt 0.483716 0.560736
vt 0.547155 0.560736
vt 0.547155 0.01827699
vt 0.544564 0.01827699
vt 0.544564 0.560736
vt 0.473038 0.560736
vt 0.473038 0.01827699
vt 0.458554 0.01827699
vt 0.458554 0.560736
vt 0.302779 0.651927
vt 0.302779 0.67117703
vt 0.687568 0.67117703
vt 0.687568 0.651927
vt 0.302779 0.672683
vt 0.687568 0.672683
vt 0.539031 0.01827699
vt 0.539031 0.560736
vt 0.541831 0.560736
vt 0.541831 0.01827699
vt 0.990084 0.82678097
vt 0.989633 0.15713102
vt 0.611985 0.088521
vt 0.740088 0.826985
vt 0.225804 0.83319801
vt 0.076136 0.83319801
vt 0.076136 0.994011998
vt 0.225804 0.994011998
vt 0.076136 0.83319801
vt 0.076136 0.994011998
vt 0.225804 0.994011998
vt 0.225804 0.83319801
vt 0.458554 0.560736
vt 0.458554 0.01827699
vt 0.457014 0.01827699
vt 0.457014 0.560736
vt 0.441702 0.01827699
vt 0.441702 0.560736
vt 0.302779 0.59948897
vt 0.687568 0.59948897
vt 0.687568 0.59232098
vt 0.302779 0.59232098
vt 0.549265 0.560736
vt 0.549264 0.01827699
vt 0.547155 0.01827699
vt 0.547155 0.560736
vt 0.49356 0.01827699
vt 0.49356 0.560736
vt 0.5022 0.560736
vt 0.5022 0.01827699
vt 0.423803 0.81191802
vt 0.468914 0.81191802
vt 0.468914 0.77017498
vt 0.423803 0.77017498
vt 0.687568 0.59024602
vt 0.302779 0.59024602
vt 0.302779 0.59232098
vt 0.687568 0.59232098
vt 0.225804 0.83319801
vt 0.076136 0.83319801
vt 0.076136 0.994011998
vt 0.225804 0.994011998
vt 0.288176 0.68539602
vt 0.319708 0.90850502
vt 0.322068 0.90723097
vt 0.318047 0.920809984
vt 0.31642 0.91842997
vt 0.288422 0.986599028
vt 0.323729 0.92652601
vt 0.321019 0.925705016
vt 0.288422 0.986599028
vt 0.321019 0.925705016
vt 0.319518 0.923249006
vt 0.611837 0.0072649717
vt 0.611985 0.088521
vt 0.989633 0.15713102
vt 0.989529 0.0069699883
vt 0.687568 0.576486
vt 0.302779 0.576486
vt 0.302779 0.577098
vt 0.687568 0.577098
vt 0.541831 0.01827699
vt 0.541831 0.560736
vt 0.544564 0.560736
vt 0.544564 0.01827699
vn -0.0002 0.0596 -0.9982
vn -0.0002 0.0596 -0.9982
vn -0.0002 0.0596 -0.9982
vn 0 0.0596 -0.9982
vn 0 0.0596 -0.9982
vn 0 0.0596 -0.9982
vn 0 0.0596 -0.9982
vn 0 0.0596 -0.9982
vn 0 0.0596 -0.9982
vn 0 0.0596 -0.9982
vn 0 0.0596 -0.9982
vn 0 0.0596 -0.9982
vn 0 0.0596 -0.9982
vn 0 0.0596 -0.9982
vn 0 0.0596 -0.9982
vn 0 0.0596 -0.9982
vn 0 0.0596 -0.9982
vn 0 0.0596 -0.9982
vn 0 0.0596 -0.9982
vn 0 0.0596 -0.9982
vn 0 0.0596 -0.9982
vn 0 0.0596 -0.9982
vn 0 0.0596 -0.9982
vn 0 0.0596 -0.9982
vn 0 0.0596 -0.9982
vn 0 0.0596 -0.9982
vn 0 0.0596 -0.9982
vn 0 0.0596 -0.9982
vn 0 0.0596 -0.9982
vn 0 0.0596 -0.9982
vn 0 0.0596 -0.9982
vn 0 0.0596 -0.9982
vn 0 0.0596 -0.9982
vn 0 0.0596 -0.9982
vn 0 0.0596 -0.9982
vn 0 0.0596 -0.9982
vn 0.5722 -0.6234 -0.5328
vn 0.9193 -0.2956 -0.2598
vn 0.6007 0.4264 -0.6762
vn 0.6754 0.7106 -0.1971
vn 0.8875 0.3084 -0.3424
vn 0.5762 -0.5761 0.5798
vn 0.5777 -0.5747 -0.5796
vn 0.9202 -0.2903 -0.2626
vn 0.5874 0.5277 0.6136
vn 0.6771 0.7356 0.0187
vn 0.6859 0.7115 -0.1526
vn 0.5896 0.4463 -0.6731
vn 0.5759 -0.6355 -0.5143
vn -0.9193 -0.2956 -0.2598
vn -0.5722 -0.6234 -0.5328
vn -0.6007 0.4264 -0.6762
vn -0.6754 0.7106 -0.1971
vn -0.8875 0.3085 -0.3423
vn -0.5762 -0.5761 0.5798
vn -0.5777 -0.5747 -0.5796
vn -0.9202 -0.2903 -0.2626
vn -0.5874 0.5277 0.6136
vn -0.6771 0.7356 0.0187
vn -0.6859 0.7115 -0.1526
vn -0.5896 0.4463 -0.6731
vn -0.5759 -0.6355 -0.5143
vn 0.5727 -0.594 0.565
vn 0.9069 -0.2948 0.3009
vn 0.5803 -0.5506 -0.6
vn 0.6252 0.3315 -0.7065
vn 0.8989 0.3023 0.3171
vn 0.6302 0.7379 -0.2412
vn 0.5815 0.5528 0.5969
vn 0.8886 0.3589 -0.2853
vn 0.8657 0.3749 0.3316
vn 0.5794 0.6612 -0.4765
vn 0.5987 0.5877 0.5442
vn 0.9496 -0.0041 0.3132
vn 0.578 -0.5807 0.5732
vn 0.9061 0.3248 -0.2711
vn 1 0 0
vn 1 0 0
vn 0.7115 0.0583 -0.7002
vn -0.9069 -0.2948 0.3009
vn -0.5727 -0.594 0.565
vn -0.5803 -0.5506 -0.6
vn -0.6252 0.3314 -0.7065
vn -0.8989 0.3023 0.3171
vn -0.6303 0.7379 -0.2412
vn -0.5815 0.5528 0.5969
vn -0.8886 0.3589 -0.2853
vn -0.8657 0.3749 0.3316
vn -0.5794 0.6612 -0.4765
vn -0.5987 0.5877 0.5442
vn -0.9496 -0.0041 0.3132
vn -0.578 -0.5808 0.5732
vn -0.9061 0.3248 -0.2711
vn -1 0 0
vn -0.7115 0.0583 -0.7002
vn -1 0 0
vn 0 0.0595 -0.9982
vn 0 0.0595 -0.9982
vn 0 0.0595 -0.9982
vn 0 0.0595 -0.9982
vn 0 0.0595 -0.9982
vn 0 0.0595 -0.9982
vn 0 0.0595 -0.9982
vn 0.0048 0.0736 -0.9973
vn -0.4997 -0.1319 -0.856
vn -0.42 -0.2714 -0.866
vn -0.8968 -0.3236 -0.3016
vn -0.5347 0.0249 -0.8447
vn -0.7552 -0.5724 -0.3193
vn -0.9586 -0.0443 -0.2814
vn -0.9347 -0.3546 -0.0224
vn -0.9979 -0.0641 -0.0012
vn -0.7885 -0.6137 -0.0408
vn -0.9725 0.2321 0.0208
vn -0.5464 -0.7685 -0.3328
vn -0.5722 -0.8183 -0.0549
vn -0.9351 0.2408 -0.2601
vn -0.8606 0.5076 0.0417
vn -0.5217 0.185 -0.8328
vn -0.8283 0.5062 -0.24
vn -0.6723 0.7379 0.0596
vn -0.4621 0.3341 -0.8214
vn -0.6479 0.7284 -0.2227
vn -0.4242 0.9026 0.073
vn -0.3611 0.459 -0.8117
vn -0.4097 0.8878 -0.2097
vn -0.1384 0.9871 0.0807
vn -0.2275 0.5487 -0.8045
vn -0.1351 0.9699 -0.2023
vn 0.1596 0.9838 0.0819
vn -0.0734 0.595 -0.8003
vn 0.1517 0.9677 -0.2011
vn 0.4435 0.893 0.0766
vn 0.0875 0.5941 -0.7996
vn 0.4251 0.8813 -0.2061
vn 0.6879 0.7228 0.0652
vn 0.2411 0.5459 -0.8024
vn 0.6609 0.7184 -0.217
vn 0.8712 0.4884 0.0488
vn 0.3736 0.4547 -0.8085
vn 0.838 0.4934 -0.2327
vn 0.9772 0.2105 0.0288
vn 0.4733 0.3286 -0.8173
vn 0.9409 0.2264 -0.252
vn 0.9962 -0.0862 0.007
vn 0.5312 0.1788 -0.8281
vn 0.9602 -0.0589 -0.273
vn 0.9268 -0.3752 -0.0147
vn 0.5424 0.0186 -0.8399
vn 0.8943 -0.3373 -0.2939
vn 0.775 -0.631 -0.0344
vn 0.5058 -0.1376 -0.8516
vn 0.7491 -0.5839 -0.3128
vn 0.5543 -0.8307 -0.0502
vn 0.4245 -0.2762 -0.8622
vn 0.5375 -0.7768 -0.3281
vn 0.2844 -0.9568 -0.0609
vn 0.3059 -0.3847 -0.8708
vn 0.2782 -0.8989 -0.3384
vn -0.0108 -0.9978 -0.0654
vn 0.1605 -0.4536 -0.8766
vn -0.0057 -0.9394 -0.3428
vn -0.305 -0.9502 -0.0633
vn 0.0012 -0.4766 -0.8791
vn -0.289 -0.8946 -0.3409
vn -0.1579 -0.4518 -0.878
vn -0.3026 -0.3813 -0.8735
vn -1 0 0
vn -1 0 0
vn -1 0 0
vn -0.3293 0.6182 -0.7137
vn 0.3262 -0.519 -0.7901
vn 0.4783 -0.3979 -0.7828
vn -0.1452 0.6896 -0.7094
vn -0.2173 0.9752 0.0425
vn -0.4953 0.8679 0.0361
vn 0.08 0.9958 0.0438
vn -0.484 0.4959 -0.721
vn -0.7294 0.6836 0.0251
vn 0.0517 0.7037 -0.7086
vn -0.5957 0.3334 -0.7307
vn 0.3702 0.9281 0.0397
vn -0.8986 0.4387 0.0105
vn 0.244 0.6592 -0.7112
vn 0.6275 0.778 0.0308
vn -0.6545 0.1453 -0.7419
vn -0.9879 0.1549 -0.0064
vn 0.4146 0.5601 -0.7172
vn 0.8291 0.5588 0.0177
vn 0.5879 -0.2375 -0.7732
vn -0.6551 -0.0517 -0.7537
vn -0.9895 -0.1426 -0.0241
vn 0.6453 -0.0519 -0.7622
vn -0.5976 -0.2402 -0.765
vn -0.9031 -0.4274 -0.0411
vn 0.6453 0.1422 -0.7505
vn -0.4869 -0.4034 -0.7747
vn -0.7365 -0.6741 -0.0559
vn 0.5879 0.3277 -0.7395
vn 0.4783 0.4882 -0.7299
vn -0.333 -0.5267 -0.782
vn -0.5045 -0.8608 -0.067
vn 0.7278 0.6812 -0.0787
vn -0.1495 -0.5994 -0.7864
vn -0.2276 -0.9709 -0.0736
vn 0.3263 0.6093 -0.7227
vn 0.0473 -0.6147 -0.7873
vn 0.0695 -0.9948 -0.075
vn 0.1452 0.6802 -0.7185
vn 0.2399 -0.5715 -0.7847
vn 0.3604 -0.9301 -0.0711
vn -0.0488 0.6947 -0.7176
vn 0.4964 0.8654 -0.0677
vn 0.4111 -0.4736 -0.7789
vn 0.6193 -0.7827 -0.0623
vn -0.2384 0.6515 -0.7202
vn 0.2209 0.9734 -0.0613
vn 0.5459 -0.3295 -0.7703
vn 0.8231 -0.5656 -0.0494
vn -0.0742 0.9954 -0.06
vn 0.2225 0.9732 0.0575
vn 0.5 0.8645 0.051
vn -0.0747 0.9955 0.0588
vn 0.733 0.679 0.0399
vn 0.901 0.4331 0.0253
vn -0.3627 0.9297 -0.0639
vn -0.3653 0.9292 0.0549
vn 0.8945 0.4371 -0.0933
vn 0.9818 0.1548 -0.1101
vn 0.9888 0.1488 0.0083
vn 0.9818 -0.1406 -0.1278
vn 0.9888 -0.1487 -0.0094
vn 0.901 -0.4331 -0.0264
vn 0.8945 -0.4229 -0.1446
vn 0.7278 -0.667 -0.1592
vn 0.7331 -0.6789 -0.041
vn 0.5 -0.8644 -0.0521
vn 0.4964 -0.8512 -0.1702
vn 0.2225 -0.9731 -0.0586
vn 0.1452 -0.5899 -0.7943
vn 0.2209 -0.9591 -0.1766
vn -0.0488 -0.6044 -0.7951
vn -0.0742 -0.9812 -0.1779
vn -0.0747 -0.9954 -0.0599
vn -0.3653 -0.9292 -0.056
vn -0.2384 -0.5612 -0.7926
vn -0.3627 -0.9155 -0.174
vn -0.619 -0.7678 -0.1652
vn -0.6235 -0.7804 -0.0471
vn -0.4068 -0.4641 -0.7868
vn -0.8203 -0.5512 -0.1523
vn -0.8262 -0.5622 -0.0341
vn -0.9556 -0.2942 -0.0181
vn -0.5392 -0.3218 -0.7783
vn 0.5484 0.4152 -0.7258
vn 0.957 0.2901 0.0016
vn -0.9488 -0.285 -0.1364
vn -1 0 -0.0005
vn -0.6236 -0.1469 -0.7678
vn 0.6334 0.2374 -0.7365
vn 0.9998 -0.0043 -0.0159
vn -0.6526 0.0451 -0.7563
vn -0.9929 0.0071 -0.119
vn -0.9556 0.2942 0.017
vn 0.6622 0.0424 -0.7481
vn 0.9539 -0.2983 -0.0334
vn -0.9488 0.2992 -0.1015
vn 0.6322 -0.1523 -0.7597
vn -0.8262 0.5623 0.033
vn -0.6236 0.2371 -0.7449
vn -0.8203 0.5654 -0.0856
vn -0.5392 0.4121 -0.7344
vn -0.4069 0.5544 -0.7259
vn -0.619 0.782 -0.0727
vn -0.6235 0.7805 0.046
vn 0.0003 0.0596 -0.9982
vn 0.0003 0.0596 -0.9982
vn 0.0003 0.0596 -0.9982
vn 0.0001 0.0595 -0.9982
vn 0.0001 0.0595 -0.9982
vn 0.0001 0.0595 -0.9982
vn -1 -0.0002 -0.0036
vn -1 -0.0002 -0.0036
vn -1 -0.0002 -0.0036
vn -1 -0.0002 -0.0036
vn -0.6771 0.7356 0.0187
vn -0.6859 0.7115 -0.1526
vn 0.6859 0.7115 -0.1526
vn -0.5896 0.4463 -0.6731
vn 0.5896 0.4463 -0.6731
vn 0.6771 0.7356 0.0187
vn 0.5874 0.5277 0.6136
vn -0.5874 0.5277 0.6136
vn 0.5762 -0.5761 0.5798
vn -0.5762 -0.5761 0.5798
vn -0.6632 0.1935 -0.723
vn -0.68 0.0424 -0.7319
vn -1 -0.0019 -0.0001
vn -0.6626 -0.1086 -0.741
vn -0.9753 0.2203 0.0131
vn -0.9745 -0.224 -0.0133
vn -0.6131 0.337 -0.7144
vn -0.9001 -0.4348 -0.0259
vn -0.9018 0.4314 0.0257
vn -0.6121 -0.252 -0.7495
vn -0.783 0.6209 0.037
vn -0.7806 -0.6239 -0.0372
vn -0.5325 0.4659 -0.7067
vn -0.5308 -0.3806 -0.7572
vn -0.425 0.5736 -0.7002
vn -0.622 -0.7816 -0.0466
vn -0.625 0.7792 0.0465
vn -0.423 -0.4878 -0.7636
vn -0.2962 0.6547 -0.6954
vn -0.2939 -0.5684 -0.7684
vn -0.4356 0.8985 0.0536
vn -0.4321 -0.9002 -0.0537
vn -0.2244 0.9727 0.058
vn -0.2206 -0.9736 -0.058
vn -0.1526 0.7052 -0.6924
vn -0.1501 -0.6184 -0.7714
vn -0.0013 0.7225 -0.6914
vn 0.0013 -0.6351 -0.7724
vn -0.0019 0.9982 0.0595
vn 0.0019 -0.9982 -0.0595
vn 0.15 0.7057 -0.6924
vn 0.1526 -0.6178 -0.7714
vn 0.2206 0.9736 0.058
vn 0.2244 -0.9727 -0.058
vn 0.4321 0.9002 0.0537
vn 0.4356 -0.8985 -0.0536
vn 0.2939 0.6558 -0.6954
vn 0.2962 -0.5673 -0.7683
vn 0.423 0.5752 -0.7002
vn 0.425 -0.4862 -0.7635
vn 0.622 0.7816 0.0466
vn 0.625 -0.7793 -0.0465
vn 0.7806 0.6239 0.0372
vn 0.5325 -0.3786 -0.7571
vn 0.5308 0.4679 -0.7066
vn 0.783 -0.6209 -0.037
vn 0.9001 0.4348 0.0259
vn 0.6132 -0.2497 -0.7494
vn 0.6121 0.3393 -0.7143
vn 0.9018 -0.4314 -0.0257
vn 0.9745 0.224 0.0133
vn 0.6633 -0.1061 -0.7408
vn 0.6627 0.196 -0.7228
vn 0.9753 -0.2203 -0.0131
vn 1 0.0019 0.0001
vn 0.68 0.045 -0.7318
vn 0.6007 0.4264 -0.6762
vn -0.6007 0.4264 -0.6762
vn -0.5722 -0.6234 -0.5328
vn 0.5722 -0.6234 -0.5328
vn 0.5762 -0.5761 0.5798
vn 0.5777 -0.5747 -0.5796
vn -0.5777 -0.5747 -0.5796
vn -0.5762 -0.5761 0.5798
vn 0.5722 -0.6234 -0.5328
vn -0.5722 -0.6234 -0.5328
vn -0.9193 -0.2956 -0.2598
vn 0.9193 -0.2956 -0.2598
vn -0 -0.9982 -0.0597
vn -0 -0.9982 -0.0597
vn -0 -0.9982 -0.0597
vn -0 -0.9982 -0.0597
vn -0 -0.9982 -0.0597
vn 0.5759 -0.6355 -0.5143
vn -0.5759 -0.6355 -0.5143
vn -0.9202 -0.2903 -0.2626
vn 0.9202 -0.2903 -0.2626
vn 0.8886 0.3589 -0.2853
vn -0.8886 0.3589 -0.2853
vn -0.8989 0.3023 0.3171
vn 0.8989 0.3023 0.3171
vn 0.5815 0.5528 0.5969
vn -0.5815 0.5528 0.5969
vn -0.6303 0.7379 -0.2412
vn 0.6302 0.7379 -0.2412
vn 0.8989 0.3023 0.3171
vn -0.8989 0.3023 0.3171
vn -0.5815 0.5528 0.5969
vn 0.5815 0.5528 0.5969
vn 0.5987 0.5877 0.5442
vn -0.5987 0.5877 0.5442
vn -0.5794 0.6612 -0.4765
vn 0.5794 0.6612 -0.4765
vn -0.578 -0.5808 0.5732
vn -0.9496 -0.0041 0.3132
vn 0.9496 -0.0041 0.3132
vn 0.578 -0.5807 0.5732
vn 0.5803 -0.5506 -0.6
vn -0.5803 -0.5506 -0.6
vn -0.5727 -0.594 0.565
vn 0.5727 -0.594 0.565
vn 0.5794 0.6612 -0.4765
vn -0.5794 0.6612 -0.4765
vn -0.8886 0.3589 -0.2853
vn 0.8886 0.3589 -0.2853
vn 0.9061 0.3248 -0.2711
vn -0.9061 0.3248 -0.2711
vn -0.8657 0.3749 0.3316
vn 0.8657 0.3749 0.3316
vn -0.8875 0.3085 -0.3423
vn -0.6754 0.7106 -0.1971
vn 0.6754 0.7106 -0.1971
vn 0.8875 0.3084 -0.3424
vn -0.6007 0.4264 -0.6762
vn 0.6007 0.4264 -0.6762
vn 0.7115 0.0583 -0.7002
vn -0.7115 0.0583 -0.7002
vn -0.9061 0.3248 -0.2711
vn 0.9061 0.3248 -0.2711
vn 1 -0.0001 -0.0017
vn 1 -0.0001 -0.0017
vn 1 -0.0001 -0.0017
vn 1 -0.0001 -0.0017
vn -0 0.3279 -0.9447
vn -0 0.3279 -0.9447
vn -0 0.3279 -0.9447
vn -0 0.3279 -0.9447
vn -0 0.3279 -0.9447
vn -0 0.3279 -0.9447
vn -0 0.3279 -0.9447
vn -0 0.3279 -0.9447
vn 0.6302 0.7379 -0.2412
vn -0.6303 0.7379 -0.2412
vn -0.6252 0.3314 -0.7065
vn 0.6252 0.3315 -0.7065
vn -0.5803 -0.5506 -0.6
vn 0.5803 -0.5506 -0.6
vn 0.9193 -0.2956 -0.2598
vn -0.9193 -0.2956 -0.2598
vn -0.5777 -0.5747 -0.5796
vn 0.5777 -0.5747 -0.5796
vn 0.8657 0.3749 0.3316
vn -0.8657 0.3749 0.3316
vn -0.5987 0.5877 0.5442
vn 0.5987 0.5877 0.5442
vn 0.9069 -0.2948 0.3009
vn -0.9069 -0.2948 0.3009
vn -0.578 -0.5808 0.5732
vn 0.578 -0.5807 0.5732
vn -0 -0.0596 0.9982
vn -0 -0.0596 0.9982
vn -0 -0.0596 0.9982
vn -0 -0.0596 0.9982
vn 0.9202 -0.2903 -0.2626
vn -0.9202 -0.2903 -0.2626
vn -0.8875 0.3085 -0.3423
vn 0.8875 0.3084 -0.3424
vn -0 0.3279 -0.9447
vn -0 0.3279 -0.9447
vn -0 0.3279 -0.9447
vn -0 0.3279 -0.9447
vn -0.0001 0.0596 -0.9982
vn -0.0001 0.0596 -0.9982
vn -0.0001 0.0596 -0.9982
vn -0.0001 0.0596 -0.9982
vn -0.0001 0.0596 -0.9982
vn -0.0001 0.0596 -0.9982
vn -0.0001 0.0596 -0.9982
vn -0.0001 0.0596 -0.9982
vn 0.0001 0.0596 -0.9982
vn 0.0001 0.0596 -0.9982
vn 0.0001 0.0596 -0.9982
vn 1 -0.0002 -0.001
vn 1 -0.0002 -0.001
vn 1 -0.0002 -0.001
vn 1 -0.0002 -0.001
vn 0.5896 0.4463 -0.6731
vn -0.5896 0.4463 -0.6731
vn -0.5759 -0.6355 -0.5143
vn 0.5759 -0.6355 -0.5143
vn 0.5727 -0.594 0.565
vn -0.5727 -0.594 0.565
vn -0.9069 -0.2948 0.3009
vn 0.9069 -0.2948 0.3009
f 3/3/3 2/2/2 1/1/1
f 6/6/6 5/5/5 4/4/4
f 5/5/5 7/7/7 4/4/4
f 9/9/9 8/8/8 4/4/4
f 11/11/11 10/10/10 4/4/4
f 4/4/4 10/10/10 12/12/12
f 4/4/4 13/13/13 6/6/6
f 13/13/13 14/14/14 6/6/6
f 13/13/13 15/15/15 14/14/14
f 16/16/16 15/15/15 13/13/13
f 13/13/13 17/17/17 16/16/16
f 13/13/13 19/19/19 18/18/18
f 20/20/20 13/13/13 4/4/4
f 21/21/21 20/20/20 4/4/4
f 20/20/20 21/21/21 22/22/22
f 21/21/21 23/23/23 22/22/22
f 13/13/13 25/25/25 24/24/24
f 22/22/22 23/23/23 25/25/25
f 27/27/27 26/26/26 25/25/25
f 23/23/23 28/28/28 25/25/25
f 28/28/28 4/4/4 29/29/29
f 29/29/29 30/30/30 28/28/28
f 28/28/28 30/30/30 31/31/31
f 28/28/28 31/31/31 32/32/32
f 32/32/32 33/33/33 28/28/28
f 33/33/33 25/25/25 28/28/28
f 25/25/25 33/33/33 34/34/34
f 25/25/25 34/34/34 35/35/35
f 25/25/25 35/35/35 36/36/36
f 39/39/39 38/38/38 37/37/37
f 40/40/40 38/38/38 39/39/39
f 41/41/41 38/38/38 40/40/40
f 42/42/42 38/38/38 41/41/41
f 42/42/42 43/43/43 38/38/38
f 42/42/42 41/41/41 44/44/44
f 42/42/42 44/44/44 45/45/45
f 45/45/45 44/44/44 46/46/46
f 46/46/46 44/44/44 47/47/47
f 47/47/47 44/44/44 48/48/48
f 48/48/48 44/44/44 49/49/49
f 52/52/52 51/51/51 50/50/50
f 53/53/53 52/52/52 50/50/50
f 54/54/54 53/53/53 50/50/50
f 55/55/55 54/54/54 50/50/50
f 55/55/55 50/50/50 56/56/56
f 55/55/55 57/57/57 54/54/54
f 55/55/55 58/58/58 57/57/57
f 58/58/58 59/59/59 57/57/57
f 59/59/59 60/60/60 57/57/57
f 60/60/60 61/61/61 57/57/57
f 61/61/61 62/62/62 57/57/57
f 65/65/65 64/64/64 63/63/63
f 65/65/65 66/66/66 64/64/64
f 66/66/66 67/67/67 64/64/64
f 68/68/68 67/67/67 66/66/66
f 69/69/69 67/67/67 68/68/68
f 64/64/64 67/67/67 70/70/70
f 64/64/64 70/70/70 71/71/71
f 71/71/71 70/70/70 72/72/72
f 73/73/73 71/71/71 72/72/72
f 74/74/74 64/64/64 71/71/71
f 64/64/64 74/74/74 75/75/75
f 74/74/74 71/71/71 76/76/76
f 74/74/74 76/76/76 77/77/77
f 77/77/77 76/76/76 79/79/79
f 74/74/74 77/77/77 78/78/78
f 82/82/82 81/81/81 80/80/80
f 82/82/82 80/80/80 83/83/83
f 80/80/80 84/84/84 83/83/83
f 85/85/85 83/83/83 84/84/84
f 86/86/86 85/85/85 84/84/84
f 80/80/80 87/87/87 84/84/84
f 87/87/87 80/80/80 88/88/88
f 87/87/87 88/88/88 89/89/89
f 88/88/88 90/90/90 89/89/89
f 80/80/80 91/91/91 88/88/88
f 80/80/80 92/92/92 91/91/91
f 91/91/91 93/93/93 88/88/88
f 91/91/91 94/94/94 93/93/93
f 94/94/94 95/95/95 93/93/93
f 91/91/91 96/96/96 94/94/94
f 99/99/99 98/98/98 97/97/97
f 103/103/103 102/102/102 99/99/99
f 99/99/99 101/101/101 100/100/100
f 106/106/106 105/105/105 104/104/104
f 107/107/107 105/105/105 106/106/106
f 108/108/108 105/105/105 107/107/107
f 105/105/105 108/108/108 104/104/104
f 109/109/109 107/107/107 106/106/106
f 110/110/110 108/108/108 107/107/107
f 111/111/111 107/107/107 109/109/109
f 107/107/107 111/111/111 112/112/112
f 110/110/110 107/107/107 112/112/112
f 113/113/113 111/111/111 109/109/109
f 110/110/110 112/112/112 114/114/114
f 109/109/109 115/115/115 113/113/113
f 115/115/115 109/109/109 106/106/106
f 115/115/115 116/116/116 113/113/113
f 117/117/117 110/110/110 114/114/114
f 117/117/117 114/114/114 118/118/118
f 119/119/119 108/108/108 110/110/110
f 117/117/117 119/119/119 110/110/110
f 108/108/108 119/119/119 104/104/104
f 120/120/120 117/117/117 118/118/118
f 119/119/119 117/117/117 120/120/120
f 120/120/120 118/118/118 121/121/121
f 122/122/122 119/119/119 120/120/120
f 119/119/119 122/122/122 104/104/104
f 123/123/123 120/120/120 121/121/121
f 123/123/123 121/121/121 124/124/124
f 122/122/122 120/120/120 125/125/125
f 120/120/120 123/123/123 125/125/125
f 122/122/122 125/125/125 104/104/104
f 126/126/126 123/123/123 124/124/124
f 125/125/125 123/123/123 126/126/126
f 126/126/126 124/124/124 127/127/127
f 128/128/128 125/125/125 126/126/126
f 125/125/125 128/128/128 104/104/104
f 129/129/129 126/126/126 127/127/127
f 129/129/129 127/127/127 130/130/130
f 128/128/128 126/126/126 131/131/131
f 126/126/126 129/129/129 131/131/131
f 128/128/128 131/131/131 104/104/104
f 132/132/132 129/129/129 130/130/130
f 130/130/130 133/133/133 132/132/132
f 131/131/131 129/129/129 134/134/134
f 129/129/129 132/132/132 134/134/134
f 131/131/131 134/134/134 104/104/104
f 133/133/133 135/135/135 132/132/132
f 134/134/134 132/132/132 135/135/135
f 135/135/135 133/133/133 136/136/136
f 137/137/137 134/134/134 135/135/135
f 134/134/134 137/137/137 104/104/104
f 138/138/138 135/135/135 136/136/136
f 137/137/137 135/135/135 138/138/138
f 138/138/138 136/136/136 139/139/139
f 140/140/140 137/137/137 138/138/138
f 137/137/137 140/140/140 104/104/104
f 141/141/141 138/138/138 139/139/139
f 140/140/140 138/138/138 141/141/141
f 141/141/141 139/139/139 142/142/142
f 143/143/143 140/140/140 141/141/141
f 140/140/140 143/143/143 104/104/104
f 144/144/144 141/141/141 142/142/142
f 141/141/141 144/144/144 143/143/143
f 144/144/144 142/142/142 145/145/145
f 144/144/144 146/146/146 143/143/143
f 143/143/143 146/146/146 104/104/104
f 147/147/147 144/144/144 145/145/145
f 146/146/146 144/144/144 147/147/147
f 145/145/145 148/148/148 147/147/147
f 149/149/149 146/146/146 147/147/147
f 146/146/146 149/149/149 104/104/104
f 148/148/148 150/150/150 147/147/147
f 150/150/150 148/148/148 151/151/151
f 152/152/152 149/149/149 147/147/147
f 150/150/150 152/152/152 147/147/147
f 149/149/149 152/152/152 104/104/104
f 153/153/153 150/150/150 151/151/151
f 153/153/153 151/151/151 154/154/154
f 152/152/152 150/150/150 155/155/155
f 150/150/150 153/153/153 155/155/155
f 152/152/152 155/155/155 104/104/104
f 156/156/156 153/153/153 154/154/154
f 156/156/156 154/154/154 157/157/157
f 158/158/158 155/155/155 153/153/153
f 156/156/156 158/158/158 153/153/153
f 155/155/155 158/158/158 104/104/104
f 159/159/159 156/156/156 157/157/157
f 158/158/158 156/156/156 159/159/159
f 157/157/157 160/160/160 159/159/159
f 158/158/158 161/161/161 104/104/104
f 161/161/161 158/158/158 159/159/159
f 160/160/160 162/162/162 159/159/159
f 162/162/162 160/160/160 163/163/163
f 161/161/161 159/159/159 164/164/164
f 159/159/159 162/162/162 164/164/164
f 161/161/161 164/164/164 104/104/104
f 165/165/165 162/162/162 163/163/163
f 165/165/165 163/163/163 116/116/116
f 115/115/115 165/165/165 116/116/116
f 164/164/164 162/162/162 166/166/166
f 162/162/162 165/165/165 166/166/166
f 164/164/164 166/166/166 104/104/104
f 165/165/165 115/115/115 166/166/166
f 166/166/166 167/167/167 104/104/104
f 115/115/115 167/167/167 166/166/166
f 106/106/106 104/104/104 167/167/167
f 167/167/167 115/115/115 106/106/106
f 170/170/170 169/169/169 168/168/168
f 173/173/173 172/172/172 171/171/171
f 171/171/171 172/172/172 174/174/174
f 171/171/171 174/174/174 175/175/175
f 176/176/176 171/171/171 175/175/175
f 175/175/175 174/174/174 177/177/177
f 178/178/178 171/171/171 176/176/176
f 178/178/178 173/173/173 171/171/171
f 179/179/179 178/178/178 176/176/176
f 174/174/174 180/180/180 177/177/177
f 178/178/178 179/179/179 181/181/181
f 173/173/173 178/178/178 181/181/181
f 177/177/177 180/180/180 182/182/182
f 179/179/179 183/183/183 181/181/181
f 180/180/180 184/184/184 182/182/182
f 185/185/185 182/182/182 184/184/184
f 181/181/181 183/183/183 186/186/186
f 183/183/183 187/187/187 186/186/186
f 188/188/188 185/185/185 184/184/184
f 189/189/189 185/185/185 188/188/188
f 181/181/181 186/186/186 190/190/190
f 190/190/190 173/173/173 181/181/181
f 191/191/191 186/186/186 187/187/187
f 192/192/192 191/191/191 187/187/187
f 186/186/186 193/193/193 190/190/190
f 194/194/194 191/191/191 192/192/192
f 195/195/195 194/194/194 192/192/192
f 186/186/186 191/191/191 196/196/196
f 193/193/193 186/186/186 196/196/196
f 197/197/197 194/194/194 195/195/195
f 198/198/198 197/197/197 195/195/195
f 194/194/194 199/199/199 191/191/191
f 199/199/199 196/196/196 191/191/191
f 194/194/194 197/197/197 200/200/200
f 199/199/199 194/194/194 200/200/200
f 201/201/201 197/197/197 198/198/198
f 200/200/200 197/197/197 201/201/201
f 202/202/202 201/201/201 198/198/198
f 200/200/200 203/203/203 199/199/199
f 204/204/204 201/201/201 202/202/202
f 205/205/205 204/204/204 202/202/202
f 206/206/206 200/200/200 201/201/201
f 206/206/206 201/201/201 204/204/204
f 200/200/200 206/206/206 203/203/203
f 207/207/207 204/204/204 205/205/205
f 208/208/208 207/207/207 205/205/205
f 209/209/209 206/206/206 204/204/204
f 209/209/209 204/204/204 207/207/207
f 210/210/210 207/207/207 208/208/208
f 211/211/211 210/210/210 208/208/208
f 212/212/212 209/209/209 207/207/207
f 212/212/212 207/207/207 210/210/210
f 206/206/206 209/209/209 213/213/213
f 206/206/206 213/213/213 203/203/203
f 214/214/214 210/210/210 211/211/211
f 215/215/215 214/214/214 211/211/211
f 216/216/216 212/212/212 210/210/210
f 216/216/216 210/210/210 214/214/214
f 209/209/209 212/212/212 217/217/217
f 209/209/209 217/217/217 213/213/213
f 218/218/218 214/214/214 215/215/215
f 219/219/219 218/218/218 215/215/215
f 212/212/212 220/220/220 217/217/217
f 220/220/220 212/212/212 216/216/216
f 217/217/217 221/221/221 213/213/213
f 221/221/221 222/222/222 213/213/213
f 223/223/223 221/221/221 217/217/217
f 220/220/220 223/223/223 217/217/217
f 213/213/213 222/222/222 224/224/224
f 203/203/203 213/213/213 224/224/224
f 203/203/203 224/224/224 225/225/225
f 220/220/220 226/226/226 223/223/223
f 226/226/226 220/220/220 216/216/216
f 226/226/226 227/227/227 223/223/223
f 228/228/228 203/203/203 225/225/225
f 203/203/203 228/228/228 199/199/199
f 199/199/199 228/228/228 196/196/196
f 228/228/228 225/225/225 229/229/229
f 228/228/228 229/229/229 196/196/196
f 225/225/225 230/230/230 229/229/229
f 196/196/196 229/229/229 231/231/231
f 229/229/229 230/230/230 231/231/231
f 193/193/193 196/196/196 231/231/231
f 230/230/230 232/232/232 231/231/231
f 231/231/231 232/232/232 233/233/233
f 193/193/193 231/231/231 234/234/234
f 234/234/234 231/231/231 233/233/233
f 190/190/190 193/193/193 234/234/234
f 173/173/173 190/190/190 234/234/234
f 234/234/234 233/233/233 235/235/235
f 235/235/235 173/173/173 234/234/234
f 233/233/233 236/236/236 235/235/235
f 235/235/235 236/236/236 237/237/237
f 173/173/173 235/235/235 238/238/238
f 238/238/238 235/235/235 237/237/237
f 172/172/172 173/173/173 238/238/238
f 237/237/237 239/239/239 238/238/238
f 172/172/172 238/238/238 240/240/240
f 172/172/172 240/240/240 174/174/174
f 180/180/180 174/174/174 240/240/240
f 239/239/239 241/241/241 238/238/238
f 238/238/238 241/241/241 240/240/240
f 242/242/242 180/180/180 240/240/240
f 242/242/242 240/240/240 241/241/241
f 180/180/180 242/242/242 184/184/184
f 241/241/241 239/239/239 243/243/243
f 243/243/243 242/242/242 241/241/241
f 239/239/239 244/244/244 243/243/243
f 244/244/244 245/245/245 243/243/243
f 242/242/242 246/246/246 184/184/184
f 242/242/242 243/243/243 247/247/247
f 245/245/245 247/247/247 243/243/243
f 246/246/246 242/242/242 247/247/247
f 184/184/184 246/246/246 188/188/188
f 248/248/248 247/247/247 245/245/245
f 246/246/246 247/247/247 248/248/248
f 249/249/249 248/248/248 245/245/245
f 246/246/246 250/250/250 188/188/188
f 250/250/250 246/246/246 248/248/248
f 248/248/248 249/249/249 251/251/251
f 249/249/249 252/252/252 251/251/251
f 251/251/251 252/252/252 253/253/253
f 250/250/250 248/248/248 254/254/254
f 248/248/248 251/251/251 254/254/254
f 188/188/188 250/250/250 255/255/255
f 250/250/250 254/254/254 255/255/255
f 255/255/255 189/189/189 188/188/188
f 189/189/189 255/255/255 256/256/256
f 257/257/257 251/251/251 253/253/253
f 254/254/254 251/251/251 257/257/257
f 257/257/257 253/253/253 258/258/258
f 255/255/255 254/254/254 259/259/259
f 259/259/259 254/254/254 257/257/257
f 255/255/255 260/260/260 256/256/256
f 260/260/260 255/255/255 259/259/259
f 256/256/256 260/260/260 261/261/261
f 262/262/262 259/259/259 257/257/257
f 259/259/259 262/262/262 260/260/260
f 263/263/263 257/257/257 258/258/258
f 263/263/263 262/262/262 257/257/257
f 263/263/263 258/258/258 264/264/264
f 260/260/260 265/265/265 261/261/261
f 262/262/262 265/265/265 260/260/260
f 261/261/261 265/265/265 266/266/266
f 267/267/267 263/263/263 264/264/264
f 265/265/265 268/268/268 266/266/266
f 265/265/265 262/262/262 268/268/268
f 266/266/266 268/268/268 219/219/219
f 267/267/267 264/264/264 269/269/269
f 268/268/268 218/218/218 219/219/219
f 262/262/262 263/263/263 270/270/270
f 262/262/262 270/270/270 268/268/268
f 263/263/263 267/267/267 270/270/270
f 218/218/218 268/268/268 270/270/270
f 271/271/271 267/267/267 269/269/269
f 270/270/270 267/267/267 271/271/271
f 272/272/272 218/218/218 270/270/270
f 272/272/272 270/270/270 271/271/271
f 272/272/272 273/273/273 218/218/218
f 272/272/272 271/271/271 273/273/273
f 273/273/273 214/214/214 218/218/218
f 273/273/273 216/216/216 214/214/214
f 271/271/271 269/269/269 274/274/274
f 271/271/271 274/274/274 273/273/273
f 273/273/273 274/274/274 216/216/216
f 269/269/269 275/275/275 274/274/274
f 274/274/274 226/226/226 216/216/216
f 275/275/275 227/227/227 274/274/274
f 227/227/227 226/226/226 274/274/274
f 278/278/278 277/277/277 276/276/276
f 281/281/281 280/280/280 279/279/279
f 284/284/284 283/283/283 282/282/282
f 285/285/285 284/284/284 282/282/282
f 288/288/288 287/287/287 286/286/286
f 289/289/289 287/287/287 288/288/288
f 290/290/290 289/289/289 288/288/288
f 291/291/291 288/288/288 286/286/286
f 291/291/291 286/286/286 292/292/292
f 286/286/286 293/293/293 292/292/292
f 292/292/292 293/293/293 294/294/294
f 293/293/293 295/295/295 294/294/294
f 298/298/298 297/297/297 296/296/296
f 299/299/299 297/297/297 298/298/298
f 300/300/300 298/298/298 296/296/296
f 301/301/301 299/299/299 298/298/298
f 300/300/300 296/296/296 302/302/302
f 301/301/301 303/303/303 299/299/299
f 304/304/304 300/300/300 302/302/302
f 303/303/303 305/305/305 299/299/299
f 304/304/304 302/302/302 306/306/306
f 303/303/303 307/307/307 305/305/305
f 302/302/302 308/308/308 306/306/306
f 307/307/307 309/309/309 305/305/305
f 306/306/306 308/308/308 310/310/310
f 307/307/307 311/311/311 309/309/309
f 312/312/312 306/306/306 310/310/310
f 311/311/311 313/313/313 309/309/309
f 312/312/312 310/310/310 314/314/314
f 315/315/315 313/313/313 311/311/311
f 316/316/316 312/312/312 314/314/314
f 317/317/317 315/315/315 311/311/311
f 316/316/316 314/314/314 318/318/318
f 317/317/317 319/319/319 315/315/315
f 314/314/314 320/320/320 318/318/318
f 319/319/319 321/321/321 315/315/315
f 318/318/318 320/320/320 322/322/322
f 323/323/323 321/321/321 319/319/319
f 324/324/324 318/318/318 322/322/322
f 325/325/325 323/323/323 319/319/319
f 324/324/324 322/322/322 326/326/326
f 327/327/327 323/323/323 325/325/325
f 328/328/328 324/324/324 326/326/326
f 329/329/329 327/327/327 325/325/325
f 328/328/328 326/326/326 330/330/330
f 329/329/329 331/331/331 327/327/327
f 326/326/326 332/332/332 330/330/330
f 331/331/331 333/333/333 327/327/327
f 330/330/330 332/332/332 334/334/334
f 335/335/335 333/333/333 331/331/331
f 336/336/336 330/330/330 334/334/334
f 337/337/337 335/335/335 331/331/331
f 336/336/336 334/334/334 338/338/338
f 339/339/339 335/335/335 337/337/337
f 334/334/334 340/340/340 338/338/338
f 341/341/341 339/339/339 337/337/337
f 338/338/338 340/340/340 342/342/342
f 343/343/343 339/339/339 341/341/341
f 340/340/340 344/344/344 342/342/342
f 345/345/345 343/343/343 341/341/341
f 342/342/342 344/344/344 346/346/346
f 347/347/347 343/343/343 345/345/345
f 344/344/344 348/348/348 346/346/346
f 349/349/349 347/347/347 345/345/345
f 346/346/346 348/348/348 350/350/350
f 351/351/351 347/347/347 349/349/349
f 348/348/348 351/351/351 350/350/350
f 350/350/350 351/351/351 349/349/349
f 354/354/354 353/353/353 352/352/352
f 355/355/355 354/354/354 352/352/352
f 358/358/358 357/357/357 356/356/356
f 359/359/359 358/358/358 356/356/356
f 362/362/362 361/361/361 360/360/360
f 363/363/363 362/362/362 360/360/360
f 366/366/366 365/365/365 364/364/364
f 366/366/366 364/364/364 367/367/367
f 364/364/364 368/368/368 367/367/367
f 371/371/371 370/370/370 369/369/369
f 372/372/372 371/371/371 369/369/369
f 375/375/375 374/374/374 373/373/373
f 376/376/376 375/375/375 373/373/373
f 379/379/379 378/378/378 377/377/377
f 380/380/380 379/379/379 377/377/377
f 383/383/383 382/382/382 381/381/381
f 384/384/384 383/383/383 381/381/381
f 387/387/387 386/386/386 385/385/385
f 388/388/388 387/387/387 385/385/385
f 391/391/391 390/390/390 389/389/389
f 392/392/392 391/391/391 389/389/389
f 395/395/395 394/394/394 393/393/393
f 396/396/396 395/395/395 393/393/393
f 399/399/399 398/398/398 397/397/397
f 400/400/400 399/399/399 397/397/397
f 403/403/403 402/402/402 401/401/401
f 404/404/404 403/403/403 401/401/401
f 407/407/407 406/406/406 405/405/405
f 408/408/408 407/407/407 405/405/405
f 409/409/409 406/406/406 407/407/407
f 410/410/410 409/409/409 407/407/407
f 413/413/413 412/412/412 411/411/411
f 414/414/414 413/413/413 411/411/411
f 417/417/417 416/416/416 415/415/415
f 418/418/418 417/417/417 415/415/415
f 421/421/421 420/420/420 419/419/419
f 422/422/422 421/421/421 419/419/419
f 425/425/425 424/424/424 423/423/423
f 426/426/426 425/425/425 423/423/423
f 429/429/429 428/428/428 427/427/427
f 430/430/430 429/429/429 427/427/427
f 431/431/431 429/429/429 430/430/430
f 432/432/432 431/431/431 430/430/430
f 435/435/435 434/434/434 433/433/433
f 436/436/436 435/435/435 433/433/433
f 439/439/439 438/438/438 437/437/437
f 440/440/440 439/439/439 437/437/437
f 443/443/443 442/442/442 441/441/441
f 444/444/444 443/443/443 441/441/441
f 447/447/447 446/446/446 445/445/445
f 448/448/448 447/447/447 445/445/445
f 451/451/451 450/450/450 449/449/449
f 452/452/452 451/451/451 449/449/449
f 455/455/455 454/454/454 453/453/453
f 456/456/456 455/455/455 453/453/453
f 459/459/459 458/458/458 457/457/457
f 462/462/462 461/461/461 460/460/460
f 462/462/462 464/464/464 463/463/463
f 467/467/467 466/466/466 465/465/465
f 470/470/470 469/469/469 468/468/468
f 471/471/471 470/470/470 468/468/468
f 474/474/474 473/473/473 472/472/472
f 475/475/475 474/474/474 472/472/472
f 478/478/478 477/477/477 476/476/476
f 479/479/479 478/478/478 476/476/476
