# VPXTOOL table OBJ file
# VPXTOOL OBJ file
# numVerts: 587 numFaces: 390
o Sling1
v -0.011592 0.083832 -0.558574
v -0.012031 0.058179 -0.470812
v -0.012033 0.057498 -0.471176
v -0.011592 0.051459 -0.612977
v -0.011592 0.053844 -0.605334
v -0.013373 -0.006692 -0.512318
v -0.011592 0.053844 -0.605334
v -0.011592 0.056578 -0.597818
v -0.013373 -0.006692 -0.512318
v -0.011592 0.059815 -0.59054
v -0.013373 -0.006692 -0.512318
v -0.011592 0.056578 -0.597818
v -0.011592 0.059815 -0.59054
v -0.011592 0.063772 -0.583623
v -0.013373 -0.006692 -0.512318
v -0.013373 -0.006286 -0.724386
v -0.011776 0.035301 -0.724386
v -0.011592 0.051459 -0.612977
v -0.013373 -0.006692 -0.512318
v -0.012701 0.021629 -0.459725
v -0.012735 0.020224 -0.45509
v -0.012281 0.039348 -0.426128
v -0.01228 0.039634 -0.42604
v -0.013373 -0.006692 -0.017908
v -0.012265 0.043141 -0.425695
v -0.01226 0.044454 -0.425565
v -0.013373 -0.006692 -0.017908
v -0.011592 0.063772 -0.583623
v -0.011592 0.068385 -0.57708
v -0.013373 -0.006692 -0.512318
v -0.011114 0.141544 0.025398
v -0.011968 0.067277 -0.440816
v -0.011941 0.068684 -0.445451
v -0.013373 -0.006692 -0.512318
v -0.013373 -0.006286 -0.724386
v -0.011592 0.051459 -0.612977
v -0.01206 0.048665 -0.474561
v -0.012159 0.044454 -0.474976
v -0.011592 0.073411 -0.570809
v -0.012246 0.047267 -0.425843
v -0.012237 0.049273 -0.42604
v -0.013373 -0.006692 -0.017908
v -0.012057 0.049273 -0.474501
v -0.01206 0.048665 -0.474561
v -0.011592 0.073411 -0.570809
v 0.009227 0.052988 -0.473266
v 0.009229 0.053816 -0.473015
v 0.009678 0.083668 -0.558513
v 0.009679 0.078511 -0.564596
v -0.013373 -0.006692 -0.512318
v -0.003748 -0.006958 -0.512318
v -0.004097 -0.009271 -0.512323
v -0.013373 -0.006286 -0.724386
v -0.004097 -0.008865 -0.724391
v -0.00375 -0.006613 -0.72437
v -0.012031 0.058179 -0.470812
v -0.011592 0.083832 -0.558574
v -0.012026 0.06175 -0.467882
v -0.012384 0.035001 -0.427446
v -0.012281 0.039348 -0.426128
v -0.013373 -0.006692 -0.017908
v -0.012485 0.030726 -0.429729
v -0.012384 0.035001 -0.427446
v -0.013373 -0.006692 -0.017908
v 0.009678 0.068111 -0.576932
v 0.00921 0.048358 -0.474523
v 0.009213 0.049177 -0.474422
v 0.009679 0.073315 -0.570731
v -0.012574 0.026984 -0.432802
v -0.012485 0.030726 -0.429729
v -0.013373 -0.006692 -0.017908
v -0.012647 0.023912 -0.436545
v -0.013373 -0.006692 -0.512318
v -0.012159 0.044454 -0.474976
v -0.012274 0.039634 -0.474501
v -0.013373 -0.006692 -0.512318
v -0.012274 0.039634 -0.474501
v -0.012384 0.035001 -0.473095
v -0.012701 0.021629 -0.440816
v -0.012647 0.023912 -0.436545
v -0.012735 0.020224 -0.445451
v -0.012701 0.021629 -0.440816
v -0.013373 -0.006692 -0.512318
v -0.012384 0.035001 -0.473095
v -0.012485 0.030726 -0.470812
v -0.013373 -0.006692 -0.512318
v -0.012485 0.030726 -0.470812
v -0.012574 0.026984 -0.46774
v -0.012735 0.020224 -0.445451
v -0.012746 0.019749 -0.450271
v -0.012735 0.020224 -0.445451
v -0.012574 0.026984 -0.46774
v -0.012647 0.023912 -0.463996
v -0.012701 0.021629 -0.459725
v -0.012735 0.020224 -0.45509
v -0.012746 0.019749 -0.450271
v -0.013373 -0.006692 -0.512318
v -0.01228 0.039634 -0.42604
v -0.012265 0.043141 -0.425695
v -0.013373 -0.006692 -0.017908
v -0.01226 0.044454 -0.425565
v -0.012246 0.047267 -0.425843
v -0.013373 -0.006692 -0.017908
v -0.012024 0.061924 -0.46774
v -0.012026 0.06175 -0.467882
v -0.011592 0.083832 -0.558574
v -0.01198 0.064994 -0.463996
v -0.012024 0.061924 -0.46774
v -0.011592 0.083832 -0.558574
v -0.011949 0.067278 -0.459725
v -0.01198 0.064994 -0.463996
v -0.011592 0.083832 -0.558574
v -0.011932 0.068684 -0.45509
v -0.011114 0.141544 0.025398
v -0.012189 0.053907 -0.427446
v -0.01212 0.058179 -0.429729
v -0.011114 0.141544 0.025398
v -0.01212 0.058179 -0.429729
v -0.012059 0.061924 -0.432802
v -0.011929 0.069159 -0.450271
v -0.011592 0.083832 -0.558574
v -0.011114 0.141544 0.025398
v -0.011929 0.069159 -0.450271
v -0.011932 0.068684 -0.45509
v -0.011592 0.083832 -0.558574
v -0.011114 0.141544 0.025398
v -0.012059 0.061924 -0.432802
v -0.012007 0.064996 -0.436545
v -0.012007 0.064996 -0.436545
v -0.011968 0.067277 -0.440816
v -0.011941 0.068684 -0.445451
v -0.012237 0.049273 -0.42604
v -0.012223 0.051743 -0.42679
v -0.013373 -0.006692 -0.017908
v 0.009678 0.083668 -0.558513
v 0.009239 0.058089 -0.470733
v 0.009243 0.061509 -0.467839
v 0.009674 0.053404 -0.605188
v 0.00967 0.050838 -0.612902
v 0.00789 -0.007735 -0.51231
v 0.009674 0.056161 -0.597653
v 0.009674 0.053404 -0.605188
v 0.00789 -0.007735 -0.51231
v 0.00789 -0.007735 -0.51231
v 0.009675 0.059427 -0.590346
v 0.009674 0.056161 -0.597653
v 0.009675 0.063414 -0.583396
v 0.009675 0.059427 -0.590346
v 0.00789 -0.007735 -0.51231
v 0.009478 0.034485 -0.724303
v 0.00786 -0.007704 -0.724356
v 0.00967 0.050838 -0.612902
v 0.008519 0.019243 -0.45027
v 0.00853 0.019719 -0.45509
v 0.00789 -0.007735 -0.51231
v 0.009005 0.043047 -0.425616
v 0.008991 0.039537 -0.425962
v 0.007895 -0.007068 -0.017892
v 0.009024 0.047172 -0.425763
v 0.00901 0.04436 -0.425486
v 0.007895 -0.007068 -0.017892
v 0.009678 0.068111 -0.576932
v 0.009675 0.063414 -0.583396
v 0.00789 -0.007735 -0.51231
v 0.009339 0.068829 -0.450249
v 0.009327 0.068354 -0.445429
v 0.010154 0.141214 0.025419
v 0.00786 -0.007704 -0.724356
v 0.00789 -0.007735 -0.51231
v 0.00967 0.050838 -0.612902
v 0.009024 0.047172 -0.425763
v 0.007895 -0.007068 -0.017892
v 0.009033 0.04918 -0.425961
v 0.009238 0.057407 -0.471097
v 0.009105 0.043949 -0.474975
v 0.009678 0.068111 -0.576932
v 0.00789 -0.007735 -0.51231
v 0.00921 0.048358 -0.474523
v 0.007895 -0.007068 -0.017892
v 0.008989 0.039039 -0.42609
v 0.008881 0.034497 -0.427446
v 0.007895 -0.007068 -0.017892
v 0.008881 0.034497 -0.427446
v 0.00878 0.030221 -0.429729
v 0.008991 0.039131 -0.474501
v 0.009105 0.043949 -0.474975
v 0.00789 -0.007735 -0.51231
v 0.008881 0.034497 -0.473095
v 0.008991 0.039131 -0.474501
v 0.00789 -0.007735 -0.51231
v 0.00878 0.030221 -0.429729
v 0.008691 0.026478 -0.432802
v 0.008618 0.023407 -0.436545
v 0.00878 0.030221 -0.470812
v 0.008881 0.034497 -0.473095
v 0.00789 -0.007735 -0.51231
v 0.008691 0.026478 -0.46774
v 0.00878 0.030221 -0.470812
v 0.007895 -0.007068 -0.017892
v 0.008618 0.023407 -0.436545
v 0.008564 0.021125 -0.440816
v 0.008564 0.021125 -0.440816
v 0.00853 0.019719 -0.445451
v 0.008618 0.023407 -0.463996
v 0.008691 0.026478 -0.46774
v 0.008564 0.021125 -0.459725
v 0.008618 0.023407 -0.463996
v 0.00789 -0.007735 -0.51231
v 0.00789 -0.007735 -0.51231
v 0.007895 -0.007068 -0.017892
v 0.00853 0.019719 -0.445451
v 0.008519 0.019243 -0.45027
v 0.00853 0.019719 -0.45509
v 0.008564 0.021125 -0.459725
v 0.008991 0.039537 -0.425962
v 0.008989 0.039039 -0.42609
v 0.00901 0.04436 -0.425486
v 0.009005 0.043047 -0.425616
v 0.007895 -0.007068 -0.017892
v 0.009678 0.083668 -0.558513
v 0.009243 0.061509 -0.467839
v 0.009244 0.061589 -0.467719
v 0.009678 0.083668 -0.558513
v 0.009244 0.061589 -0.467719
v 0.009288 0.064664 -0.463974
v 0.009148 0.05785 -0.429708
v 0.009079 0.053578 -0.427425
v 0.010154 0.141214 0.025419
v 0.009209 0.061594 -0.43278
v 0.009148 0.05785 -0.429708
v 0.010154 0.141214 0.025419
v 0.009678 0.083668 -0.558513
v 0.009288 0.064664 -0.463974
v 0.00932 0.066947 -0.459703
v 0.009678 0.083668 -0.558513
v 0.00932 0.066947 -0.459703
v 0.009337 0.068353 -0.455069
v 0.009261 0.064666 -0.436524
v 0.009209 0.061594 -0.43278
v 0.010154 0.141214 0.025419
v 0.0093 0.066947 -0.440795
v 0.009261 0.064666 -0.436524
v 0.009339 0.068829 -0.450249
v 0.010154 0.141214 0.025419
v 0.009678 0.083668 -0.558513
v 0.009339 0.068829 -0.450249
v 0.009327 0.068354 -0.445429
v 0.0093 0.066947 -0.440795
v 0.010154 0.141214 0.025419
v 0.007895 -0.007068 -0.017892
v 0.009046 0.051509 -0.426745
v 0.009033 0.04918 -0.425961
v 0.009046 0.051509 -0.426745
v 0.007895 -0.007068 -0.017892
v 0.010154 0.141214 0.025419
v 0.009079 0.053578 -0.427425
v 0.009238 0.057407 -0.471097
v 0.009678 0.083668 -0.558513
v 0.009229 0.053816 -0.473015
v -0.150753 -0.013796 -0.724386
v -0.150753 -0.014204 -0.512318
v -0.150753 -0.023832 -0.512338
v -0.150753 -0.023426 -0.724406
v -0.150753 -0.023832 -0.512338
v -0.023198 -0.023832 -0.512338
v -0.022377 -0.035474 -0.512362
v -0.150753 -0.035474 -0.512362
v -0.022377 -0.035067 -0.72443
v -0.023198 -0.023426 -0.724406
v -0.150753 -0.023426 -0.724406
v -0.150753 -0.035067 -0.72443
v -0.023877 -0.013796 -0.724386
v -0.150753 -0.013796 -0.724386
v -0.013634 -0.033828 -0.724428
v -0.017041 -0.022553 -0.724405
v -0.023198 -0.023426 -0.724406
v -0.022377 -0.035067 -0.72443
v -0.013373 -0.006286 -0.724386
v -0.014173 -0.00916 -0.724386
v -0.005528 -0.014012 -0.724396
v -0.004097 -0.008865 -0.724391
v -0.00365 -0.029054 -0.724422
v -0.010656 -0.0195 -0.724402
v -0.017041 -0.022553 -0.724405
v -0.013634 -0.033828 -0.724428
v -0.010656 -0.0195 -0.724402
v -0.01645 -0.011598 -0.724386
v -0.019858 -0.013227 -0.724386
v -0.017041 -0.022553 -0.724405
v 0.004926 -0.019875 -0.724408
v -0.005528 -0.014012 -0.724396
v -0.010656 -0.0195 -0.724402
v -0.00365 -0.029054 -0.724422
v -0.012159 0.044454 -0.474976
v -0.013373 -0.006692 -0.512318
v -0.011592 0.068385 -0.57708
v -0.011592 0.073411 -0.570809
v -0.011592 0.083832 -0.558574
v -0.012033 0.057498 -0.471176
v -0.012041 0.053907 -0.473095
v -0.017041 -0.022553 -0.724405
v -0.019858 -0.013227 -0.724386
v -0.023877 -0.013796 -0.724386
v -0.023198 -0.023426 -0.724406
v -0.005528 -0.014012 -0.724396
v -0.014173 -0.00916 -0.724386
v -0.01645 -0.011598 -0.724386
v -0.010656 -0.0195 -0.724402
v -0.002155 0.034932 -0.724348
v -0.011776 0.035301 -0.724386
v -0.013373 -0.006286 -0.724386
v -0.00375 -0.006613 -0.72437
v -0.001487 0.141395 0.025407
v -0.011114 0.141544 0.025398
v -0.011592 0.083832 -0.558574
v -0.001964 0.083738 -0.558551
v -0.013373 -0.006692 -0.512318
v -0.013373 -0.006692 -0.017908
v -0.003746 -0.006881 -0.017904
v -0.003748 -0.006958 -0.512318
v 0.010154 0.141214 0.025419
v -0.001487 0.141395 0.025407
v -0.001964 0.083738 -0.558551
v 0.009678 0.083668 -0.558513
v -0.004097 -0.008865 -0.724391
v -0.005528 -0.014012 -0.724396
v 0.004926 -0.019875 -0.724408
v 0.007307 -0.011311 -0.724396
v -0.019858 -0.013633 -0.512318
v -0.01645 -0.012004 -0.512318
v -0.010656 -0.019906 -0.512334
v -0.017041 -0.022959 -0.512337
v -0.011114 0.141544 0.025398
v -0.013373 -0.006692 -0.017908
v -0.012223 0.051743 -0.42679
v -0.012189 0.053907 -0.427446
v -0.012044 0.053081 -0.473346
v -0.011592 0.078603 -0.564675
v -0.012041 0.053907 -0.473095
v -0.010656 -0.019906 -0.512334
v -0.005528 -0.014418 -0.512328
v 0.004924 -0.020285 -0.51234
v -0.003651 -0.029462 -0.512354
v -0.01645 -0.012004 -0.512318
v -0.014173 -0.009567 -0.512318
v -0.005528 -0.014418 -0.512328
v -0.010656 -0.019906 -0.512334
v -0.005528 -0.014418 -0.512328
v -0.014173 -0.009567 -0.512318
v -0.013373 -0.006692 -0.512318
v -0.004097 -0.009271 -0.512323
v -0.023877 -0.014204 -0.512318
v -0.019858 -0.013633 -0.512318
v -0.017041 -0.022959 -0.512337
v -0.023198 -0.023832 -0.512338
v -0.00375 -0.006613 -0.72437
v -0.004097 -0.008865 -0.724391
v 0.007307 -0.011311 -0.724396
v 0.00786 -0.007704 -0.724356
v -0.004097 -0.009271 -0.512323
v -0.003748 -0.006958 -0.512318
v 0.00789 -0.007735 -0.51231
v 0.007307 -0.011718 -0.512328
v -0.002155 0.034932 -0.724348
v -0.00375 -0.006613 -0.72437
v 0.00786 -0.007704 -0.724356
v 0.009478 0.034485 -0.724303
v -0.023198 -0.023832 -0.512338
v -0.017041 -0.022959 -0.512337
v -0.013635 -0.034234 -0.51236
v -0.022377 -0.035474 -0.512362
v -0.150753 -0.014204 -0.512318
v -0.023877 -0.014204 -0.512318
v -0.017041 -0.022959 -0.512337
v -0.010656 -0.019906 -0.512334
v -0.003651 -0.029462 -0.512354
v -0.013635 -0.034234 -0.51236
v -0.003748 -0.006958 -0.512318
v -0.003746 -0.006881 -0.017904
v 0.007895 -0.007068 -0.017892
v 0.00789 -0.007735 -0.51231
v -0.011592 0.073411 -0.570809
v -0.012057 0.049273 -0.474501
v 0.009227 0.052988 -0.473266
v 0.009679 0.078511 -0.564596
v -0.150753 -0.035067 -0.72443
v -0.150753 -0.035474 -0.512362
v 0.007895 -0.007068 -0.017892
v -0.003746 -0.006881 -0.017904
v -0.001487 0.141395 0.025407
v 0.010154 0.141214 0.025419
v 0.004924 -0.020285 -0.51234
v -0.005528 -0.014418 -0.512328
v -0.004097 -0.009271 -0.512323
v 0.007307 -0.011718 -0.512328
v -0.150753 -0.013796 -0.724386
v -0.023877 -0.013796 -0.724386
v -0.023877 -0.014204 -0.512318
v -0.150753 -0.014204 -0.512318
v -0.002304 0.068534 -0.455081
v -0.002302 0.069009 -0.450261
v 0.009339 0.068829 -0.450249
v 0.009337 0.068353 -0.455069
v -0.01212 0.058179 -0.429729
v -0.012189 0.053907 -0.427446
v -0.002562 0.053758 -0.427436
v -0.002493 0.058031 -0.429719
v -0.002632 0.044411 -0.42553
v -0.002637 0.043098 -0.425659
v 0.009005 0.043047 -0.425616
v 0.00901 0.04436 -0.425486
v -0.00312 0.01952 -0.450271
v -0.012746 0.019749 -0.450271
v -0.012735 0.020224 -0.45509
v -0.003109 0.019995 -0.45509
v -0.014173 -0.00916 -0.724386
v -0.014173 -0.009567 -0.512318
v -0.01645 -0.012004 -0.512318
v -0.01645 -0.011598 -0.724386
v -0.012024 0.061924 -0.46774
v -0.01198 0.064994 -0.463996
v -0.002352 0.064845 -0.463986
v -0.002397 0.061776 -0.46773
v -0.012059 0.061924 -0.432802
v -0.002432 0.061774 -0.432792
v -0.001966 0.05964 -0.590451
v -0.001966 0.05639 -0.597743
v 0.009674 0.056161 -0.597653
v 0.009675 0.059427 -0.590346
v 0.009261 0.064666 -0.436524
v -0.00238 0.064847 -0.436535
v 0.009209 0.061594 -0.43278
v -0.012265 0.043141 -0.425695
v -0.01228 0.039634 -0.42604
v -0.002652 0.03959 -0.426005
v 0.00921 0.048358 -0.474523
v -0.002432 0.048529 -0.474543
v -0.002429 0.049229 -0.474465
v 0.009213 0.049177 -0.474422
v -0.002758 0.034772 -0.427446
v -0.012384 0.035001 -0.427446
v -0.012485 0.030726 -0.429729
v -0.00286 0.030498 -0.429729
v -0.003021 0.023682 -0.436545
v -0.003076 0.021401 -0.440816
v 0.008564 0.021125 -0.440816
v 0.008618 0.023407 -0.436545
v -0.011592 0.063772 -0.583623
v -0.011592 0.059815 -0.59054
v -0.001965 0.063611 -0.58352
v 0.009024 0.047172 -0.425763
v -0.002618 0.047224 -0.425807
v 0.009327 0.068354 -0.445429
v -0.002314 0.068534 -0.445441
v -0.002341 0.067128 -0.440807
v 0.0093 0.066947 -0.440795
v -0.001964 0.083738 -0.558551
v -0.001964 0.078563 -0.564639
v 0.009679 0.078511 -0.564596
v 0.009678 0.083668 -0.558513
v 0.008519 0.019243 -0.45027
v 0.00853 0.019719 -0.45509
v -0.019858 -0.013227 -0.724386
v -0.019858 -0.013633 -0.512318
v -0.023877 -0.014204 -0.512318
v -0.023877 -0.013796 -0.724386
v -0.002534 0.044224 -0.474976
v 0.009105 0.043949 -0.474975
v -0.012026 0.06175 -0.467882
v -0.002399 0.061655 -0.467859
v -0.012041 0.053907 -0.473095
v -0.012033 0.057498 -0.471176
v -0.002404 0.057458 -0.47114
v -0.002414 0.053864 -0.473059
v 0.009239 0.058089 -0.470733
v -0.002403 0.058138 -0.470776
v -0.002399 0.061655 -0.467859
v 0.009243 0.061509 -0.467839
v -0.002397 0.061776 -0.46773
v 0.009244 0.061589 -0.467719
v -0.00286 0.030498 -0.470812
v -0.002758 0.034772 -0.473095
v 0.008881 0.034497 -0.473095
v 0.00878 0.030221 -0.470812
v -0.002648 0.039405 -0.474501
v -0.012274 0.039634 -0.474501
v -0.012159 0.044454 -0.474976
v -0.002403 0.058138 -0.470776
v 0.009239 0.058089 -0.470733
v 0.009238 0.057407 -0.471097
v -0.012281 0.039348 -0.426128
v -0.002653 0.039211 -0.42611
v 0.009079 0.053578 -0.427425
v -0.002595 0.051648 -0.426767
v 0.009046 0.051509 -0.426745
v -0.01206 0.048665 -0.474561
v -0.002416 0.053038 -0.47331
v -0.012044 0.053081 -0.473346
v 0.004926 -0.019875 -0.724408
v -0.00365 -0.029054 -0.724422
v -0.003651 -0.029462 -0.512354
v 0.004924 -0.020285 -0.51234
v -0.013634 -0.033828 -0.724428
v -0.013635 -0.034234 -0.51236
v -0.011929 0.069159 -0.450271
v -0.011941 0.068684 -0.445451
v -0.012237 0.049273 -0.42604
v -0.012246 0.047267 -0.425843
v -0.002609 0.049231 -0.426004
v -0.012223 0.051743 -0.42679
v -0.012031 0.058179 -0.470812
v -0.001966 0.053646 -0.605268
v 0.009674 0.053404 -0.605188
v -0.011592 0.056578 -0.597818
v -0.011592 0.053844 -0.605334
v 0.007307 -0.011311 -0.724396
v 0.007307 -0.011718 -0.512328
v 0.009227 0.052988 -0.473266
v -0.002321 0.067129 -0.459715
v -0.011949 0.067278 -0.459725
v 0.008989 0.039039 -0.42609
v 0.008991 0.039537 -0.425962
v 0.008881 0.034497 -0.427446
v 0.009229 0.053816 -0.473015
v -0.001968 0.051173 -0.612927
v -0.011592 0.051459 -0.612977
v -0.011776 0.035301 -0.724386
v -0.002155 0.034932 -0.724348
v 0.009478 0.034485 -0.724303
v 0.00967 0.050838 -0.612902
v -0.001964 0.068285 -0.577007
v 0.009675 0.063414 -0.583396
v 0.009678 0.068111 -0.576932
v -0.01226 0.044454 -0.425565
v -0.011592 0.083832 -0.558574
v -0.011592 0.078603 -0.564675
v 0.00789 -0.007735 -0.51231
v 0.00786 -0.007704 -0.724356
v -0.013373 -0.006286 -0.724386
v -0.013373 -0.006692 -0.512318
v -0.002949 0.026754 -0.46774
v 0.008691 0.026478 -0.46774
v -0.003076 0.021401 -0.459725
v -0.012701 0.021629 -0.459725
v -0.012647 0.023912 -0.463996
v -0.003021 0.023682 -0.463996
v 0.00878 0.030221 -0.429729
v 0.008991 0.039131 -0.474501
v -0.011968 0.067277 -0.440816
v -0.012485 0.030726 -0.470812
v -0.012384 0.035001 -0.473095
v 0.008564 0.021125 -0.459725
v -0.012735 0.020224 -0.445451
v -0.003109 0.019995 -0.445451
v -0.012647 0.023912 -0.463996
v -0.012574 0.026984 -0.46774
v -0.003021 0.023682 -0.463996
v -0.022377 -0.035067 -0.72443
v -0.022377 -0.035474 -0.512362
v -0.012701 0.021629 -0.440816
v 0.009033 0.04918 -0.425961
v -0.011592 0.073411 -0.570809
v -0.011592 0.068385 -0.57708
v -0.001964 0.073368 -0.570774
v 0.00932 0.066947 -0.459703
v 0.009288 0.064664 -0.463974
v -0.012007 0.064996 -0.436545
v -0.00238 0.064847 -0.436535
v -0.012031 0.058179 -0.470812
v 0.009148 0.05785 -0.429708
v 0.009261 0.064666 -0.436524
v -0.012485 0.030726 -0.429729
v -0.012574 0.026984 -0.432802
v -0.002949 0.026754 -0.432802
v -0.00286 0.030498 -0.429729
v -0.012647 0.023912 -0.436545
v -0.011932 0.068684 -0.45509
v 0.008691 0.026478 -0.432802
v 0.008618 0.023407 -0.463996
v 0.00853 0.019719 -0.445451
v 0.008618 0.023407 -0.463996
v -0.150753 -0.035067 -0.72443
v -0.150753 -0.035474 -0.512362
v 0.009679 0.073315 -0.570731
v -0.012057 0.049273 -0.474501
v -0.012007 0.064996 -0.436545
v 0.00878 0.030221 -0.429729
vt 0.700101 0.30242097
vt 0.739951 0.43876302
vt 0.741894 0.438367
vt 0.752715 0.20850098
vt 0.749082 0.221569
vt 0.849706 0.34973502
vt 0.749082 0.221569
vt 0.744917 0.23438203
vt 0.849706 0.34973502
vt 0.739974 0.24675202
vt 0.849706 0.34973502
vt 0.744917 0.23438203
vt 0.739974 0.24675202
vt 0.733902 0.25846
vt 0.849706 0.34973502
vt 0.848146 0.022383988
vt 0.778785 0.022700012
vt 0.752715 0.20850098
vt 0.849706 0.34973502
vt 0.802247 0.45670903
vt 0.804506 0.463745
vt 0.774721 0.515476
vt 0.772257 0.516257
vt 0.83139 0.88531101
vt 0.767683 0.51646602
vt 0.765481 0.51661003
vt 0.83139 0.88531101
vt 0.733902 0.25846
vt 0.7268 0.269486
vt 0.849706 0.34973502
vt 0.600922 0.946624994
vt 0.725786 0.489811
vt 0.722149 0.481498
vt 0.849706 0.34973502
vt 0.848146 0.022383988
vt 0.752715 0.20850098
vt 0.758587 0.434305
vt 0.765611 0.43409097
vt 0.717997 0.28064203
vt 0.760712 0.51594597
vt 0.75658 0.51569003
vt 0.83139 0.88531101
vt 0.756395 0.43422198
vt 0.758587 0.434305
vt 0.717997 0.28064203
vt 0.445521 0.441531
vt 0.44744 0.44172597
vt 0.498655 0.30773997
vt 0.489471 0.29719496
vt 0.050971 0.15541202
vt 0.076312 0.15177298
vt 0.076312 0.15541202
vt 0.072479 0.29775202
vt 0.05305 0.29775202
vt 0.05305 0.306001
vt 0.739951 0.43876302
vt 0.700101 0.30242097
vt 0.733912 0.44302
vt 0.780945 0.51365
vt 0.774721 0.515476
vt 0.83139 0.88531101
vt 0.787041 0.51034898
vt 0.780945 0.51365
vt 0.83139 0.88531101
vt 0.471004 0.27598596
vt 0.437355 0.440736
vt 0.439395 0.440233
vt 0.480174 0.286645
vt 0.792516 0.50573802
vt 0.787041 0.51034898
vt 0.83139 0.88531101
vt 0.797475 0.499449
vt 0.849706 0.34973502
vt 0.765611 0.43409097
vt 0.773374 0.434561
vt 0.849706 0.34973502
vt 0.773374 0.434561
vt 0.78083 0.43653703
vt 0.801728 0.490889
vt 0.797475 0.499449
vt 0.804929 0.47845304
vt 0.801728 0.490889
vt 0.849706 0.34973502
vt 0.78083 0.43653703
vt 0.787695 0.439916
vt 0.849706 0.34973502
vt 0.787695 0.439916
vt 0.79369 0.44454503
vt 0.804929 0.47845304
vt 0.805307 0.471049
vt 0.804929 0.47845304
vt 0.79369 0.44454503
vt 0.798596 0.450221
vt 0.802247 0.45670903
vt 0.804506 0.463745
vt 0.805307 0.471049
vt 0.849706 0.34973502
vt 0.772257 0.516257
vt 0.767683 0.51646602
vt 0.83139 0.88531101
vt 0.765481 0.51661003
vt 0.760712 0.51594597
vt 0.83139 0.88531101
vt 0.732456 0.443843
vt 0.733912 0.44302
vt 0.700101 0.30242097
vt 0.727587 0.449095
vt 0.732456 0.443843
vt 0.700101 0.30242097
vt 0.723519 0.455451
vt 0.727587 0.449095
vt 0.700101 0.30242097
vt 0.720771 0.46242
vt 0.600922 0.946624994
vt 0.747327 0.51304698
vt 0.740954 0.50903302
vt 0.600922 0.946624994
vt 0.740954 0.50903302
vt 0.735205 0.50374
vt 0.719202 0.47253203
vt 0.700101 0.30242097
vt 0.600922 0.946624994
vt 0.719202 0.47253203
vt 0.720771 0.46242
vt 0.700101 0.30242097
vt 0.600922 0.946624994
vt 0.735205 0.50374
vt 0.730138 0.497284
vt 0.730138 0.497284
vt 0.725786 0.489811
vt 0.722149 0.481498
vt 0.75658 0.51569003
vt 0.751908 0.514319
vt 0.83139 0.88531101
vt 0.498655 0.30773997
vt 0.454643 0.44450796
vt 0.459981 0.44848597
vt 0.44934 0.22695804
vt 0.445723 0.21349299
vt 0.346984 0.35649598
vt 0.453341 0.24012697
vt 0.44934 0.22695804
vt 0.346984 0.35649598
vt 0.346984 0.35649598
vt 0.458114 0.252818
vt 0.453341 0.24012697
vt 0.464008 0.26480603
vt 0.458114 0.252818
vt 0.346984 0.35649598
vt 0.419771 0.024506986
vt 0.34934 0.023889005
vt 0.445723 0.21349299
vt 0.388447 0.476232
vt 0.389617 0.469028
vt 0.346984 0.35649598
vt 0.426111 0.52416903
vt 0.420741 0.52264702
vt 0.35505 0.88082898
vt 0.43461 0.525752
vt 0.429613 0.525469
vt 0.35505 0.88082898
vt 0.471004 0.27598596
vt 0.464008 0.26480603
vt 0.346984 0.35649598
vt 0.474951 0.47424197
vt 0.474039 0.491072
vt 0.575806 0.946465015
vt 0.34934 0.023889005
vt 0.346984 0.35649598
vt 0.445723 0.21349299
vt 0.43461 0.525752
vt 0.35505 0.88082898
vt 0.438722 0.52594602
vt 0.452941 0.444152
vt 0.430385 0.44076598
vt 0.471004 0.27598596
vt 0.346984 0.35649598
vt 0.437355 0.440736
vt 0.35505 0.88082898
vt 0.41776 0.52095097
vt 0.411581 0.517839
vt 0.35505 0.88082898
vt 0.411581 0.517839
vt 0.40571 0.513341
vt 0.42237 0.44095504
vt 0.430385 0.44076598
vt 0.346984 0.35649598
vt 0.414688 0.442716
vt 0.42237 0.44095504
vt 0.346984 0.35649598
vt 0.40571 0.513341
vt 0.400589 0.50766802
vt 0.396059 0.50092697
vt 0.407594 0.44589603
vt 0.414688 0.442716
vt 0.346984 0.35649598
vt 0.401351 0.450332
vt 0.407594 0.44589603
vt 0.35505 0.88082898
vt 0.396059 0.50092697
vt 0.392157 0.493284
vt 0.392157 0.493284
vt 0.388923 0.484923
vt 0.39617 0.455819
vt 0.401351 0.450332
vt 0.392219 0.462134
vt 0.39617 0.455819
vt 0.346984 0.35649598
vt 0.346984 0.35649598
vt 0.35505 0.88082898
vt 0.388923 0.484923
vt 0.388447 0.476232
vt 0.389617 0.469028
vt 0.392219 0.462134
vt 0.420741 0.52264702
vt 0.41776 0.52095097
vt 0.429613 0.525469
vt 0.426111 0.52416903
vt 0.35505 0.88082898
vt 0.498655 0.30773997
vt 0.459981 0.44848597
vt 0.461565 0.44890404
vt 0.498655 0.30773997
vt 0.461565 0.44890404
vt 0.466659 0.45422804
vt 0.454868 0.52071297
vt 0.448172 0.523726
vt 0.575806 0.946465015
vt 0.460999 0.51624298
vt 0.454868 0.52071297
vt 0.575806 0.946465015
vt 0.498655 0.30773997
vt 0.466659 0.45422804
vt 0.470576 0.46037304
vt 0.498655 0.30773997
vt 0.470576 0.46037304
vt 0.47317 0.46709204
vt 0.46641 0.51015902
vt 0.460999 0.51624298
vt 0.575806 0.946465015
vt 0.470884 0.50207698
vt 0.46641 0.51015902
vt 0.474951 0.47424197
vt 0.575806 0.946465015
vt 0.498655 0.30773997
vt 0.474951 0.47424197
vt 0.474039 0.491072
vt 0.470884 0.50207698
vt 0.575806 0.946465015
vt 0.35505 0.88082898
vt 0.443428 0.524724
vt 0.438722 0.52594602
vt 0.443428 0.524724
vt 0.35505 0.88082898
vt 0.575806 0.946465015
vt 0.448172 0.523726
vt 0.452941 0.444152
vt 0.498655 0.30773997
vt 0.44744 0.44172597
vt 0.034285 0.000055015087
vt 0.034288 0.338511
vt 0.05086 0.338511
vt 0.05086 0.000055015087
vt 0.076312 0.000055015087
vt 0.076312 0.12422502
vt 0.076312 0.12422502
vt 0.076312 0.000055015087
vt 0.05305 0.266244
vt 0.05305 0.266244
vt 0.05305 0.15836501
vt 0.05305 0.15836501
vt 0.072479 0.266244
vt 0.072479 0.15836501
vt 0.05305 0.274441
vt 0.05305 0.274441
vt 0.05305 0.266244
vt 0.05305 0.266244
vt 0.072479 0.29775202
vt 0.072479 0.29265296
vt 0.05305 0.29265296
vt 0.05305 0.29775202
vt 0.05305 0.283741
vt 0.05305 0.283741
vt 0.05305 0.274441
vt 0.05305 0.274441
vt 0.05305 0.283741
vt 0.072479 0.283741
vt 0.072479 0.274441
vt 0.05305 0.274441
vt 0.05305 0.29265296
vt 0.05305 0.29265296
vt 0.05305 0.283741
vt 0.05305 0.283741
vt 0.765611 0.43409097
vt 0.849706 0.34973502
vt 0.7268 0.269486
vt 0.717997 0.28064203
vt 0.700101 0.30242097
vt 0.741894 0.438367
vt 0.747927 0.43575203
vt 0.05305 0.274441
vt 0.072479 0.274441
vt 0.072479 0.266244
vt 0.05305 0.266244
vt 0.05305 0.29265296
vt 0.072479 0.29265296
vt 0.072479 0.283741
vt 0.05305 0.283741
vt 0.05305 0.336981
vt 0.072479 0.336981
vt 0.072479 0.29775202
vt 0.05305 0.306001
vt 0.01749 0.0000590086
vt 0.000915 0.000055015087
vt 0.000055 0.70334703
vt 0.016629 0.703296
vt 0.034175 0.555861
vt 0.034175 0.000055015087
vt 0.0176 0.00006097555
vt 0.017601 0.555919
vt 0.01749 0.0000590086
vt 0.01749 0.0000590086
vt 0.016629 0.703296
vt 0.016629 0.703296
vt 0.05305 0.29775202
vt 0.05305 0.29265296
vt 0.05305 0.29265296
vt 0.05305 0.29775202
vt 0.050971 0.13305902
vt 0.050971 0.14181298
vt 0.076312 0.14181298
vt 0.076312 0.13305902
vt 0.600922 0.946624994
vt 0.83139 0.88531101
vt 0.751908 0.514319
vt 0.747327 0.51304698
vt 0.75003 0.43563497
vt 0.709006 0.291557
vt 0.747927 0.43575203
vt 0.076312 0.14181298
vt 0.076312 0.14876902
vt 0.076312 0.14876902
vt 0.076312 0.14181298
vt 0.050971 0.14181298
vt 0.050971 0.14876902
vt 0.076312 0.14876902
vt 0.076312 0.14181298
vt 0.076312 0.14876902
vt 0.050971 0.14876902
vt 0.050971 0.15541202
vt 0.076312 0.15541202
vt 0.050971 0.12422502
vt 0.050971 0.13305902
vt 0.076312 0.13305902
vt 0.076312 0.12422502
vt 0.05305 0.306001
vt 0.05305 0.29775202
vt 0.05305 0.29775202
vt 0.05305 0.306001
vt 0.076312 0.15541202
vt 0.076312 0.15177298
vt 0.076312 0.15177298
vt 0.076312 0.15541202
vt 0.05305 0.336981
vt 0.05305 0.306001
vt 0.05305 0.306001
vt 0.05305 0.336981
vt 0.076312 0.12422502
vt 0.076312 0.13305902
vt 0.076312 0.13305902
vt 0.076312 0.12422502
vt 0.050971 0.000055015087
vt 0.050971 0.12422502
vt 0.076312 0.13305902
vt 0.076312 0.14181298
vt 0.076312 0.14181298
vt 0.076312 0.13305902
vt 0.017601 0.555919
vt 0.0176 0.00006097555
vt 0.0176 0.00006097555
vt 0.017601 0.555919
vt 0.717997 0.28064203
vt 0.756395 0.43422198
vt 0.445521 0.441531
vt 0.489471 0.29719496
vt 0.05086 0.000055015087
vt 0.05086 0.338511
vt 0 0
vt 0 0
vt 0 0
vt 0 0
vt 0.076312 0.14876902
vt 0.076312 0.14876902
vt 0.076312 0.15541202
vt 0.076312 0.15541202
vt 0.993181 0.02046901
vt 0.87268 0.021375
vt 0.874545 0.34978402
vt 0.995034 0.34910297
vt 0.110019 0.09172201
vt 0.110019 0.09983897
vt 0.110019 0.09983897
vt 0.110019 0.09172201
vt 0.110019 0.047185004
vt 0.110019 0.039426982
vt 0.093522 0.039382994
vt 0.093503 0.047137976
vt 0.093434 0.023020029
vt 0.093414 0.020806015
vt 0.093414 0.020806015
vt 0.093434 0.023020029
vt 0.093222 0.10018402
vt 0.076647 0.10017699
vt 0.076652 0.10764599
vt 0.093227 0.10765201
vt 0.853859 0.022144973
vt 0.855507 0.34976602
vt 0.86131 0.349783
vt 0.859585 0.021897972
vt 0.093359 0.06738001
vt 0.093366 0.07518399
vt 0.110019 0.07516599
vt 0.110019 0.067359984
vt 0.110019 0.054193974
vt 0.093487 0.054149985
vt 0.017309 0.769359
vt 0.017386 0.783077
vt 0.017386 0.783077
vt 0.017309 0.769359
vt 0.093476 0.060141027
vt 0.093476 0.060141027
vt 0.093487 0.054149985
vt 0.110019 0.020672023
vt 0.110019 0.014743984
vt 0.093363 0.014876008
vt 0.076422 0.015784025
vt 0.076422 0.015784025
vt 0.076439 0.0146020055
vt 0.076439 0.0146020055
vt 0.093446 0.006918013
vt 0.110019 0.0070940256
vt 0.110019 0.00023400784
vt 0.093533 0.000055015087
vt 0.093227 0.07555103
vt 0.093221 0.08381903
vt 0.093221 0.08381903
vt 0.093227 0.07555103
vt 0.000631 0.75591499
vt 0.000735 0.76946402
vt 0.017205 0.755777
vt 0.093472 0.027889013
vt 0.093472 0.027889013
vt 0.110019 0.10743499
vt 0.110019 0.10743499
vt 0.110019 0.114209
vt 0.110019 0.114209
vt 0.016629 0.703296
vt 0.016779 0.71625602
vt 0.016779 0.71625602
vt 0.016629 0.703296
vt 0.093222 0.10018402
vt 0.093227 0.10765201
vt 0.865893 0.021637976
vt 0.86769 0.34978902
vt 0.874545 0.34978402
vt 0.87268 0.021375
vt 0.076462 0.023072004
vt 0.076462 0.023072004
vt 0.093358 0.06705201
vt 0.110019 0.067083
vt 0.09313 0.007155001
vt 0.093229 0.0013740063
vt 0.076656 0.0011540055
vt 0.076557 0.006937027
vt 0.110019 0.06038302
vt 0.110019 0.06038302
vt 0.110019 0.067083
vt 0.110019 0.067083
vt 0.110019 0.067359984
vt 0.110019 0.067359984
vt 0.0766 0.047348976
vt 0.076556 0.039602995
vt 0.076556 0.039602995
vt 0.0766 0.047348976
vt 0.07651 0.031407
vt 0.093084 0.031314015
vt 0.093037 0.022975981
vt 0.076676 0.000055015087
vt 0.076676 0.000055015087
vt 0.076656 0.0011540055
vt 0.110019 0.014268994
vt 0.093358 0.014244974
vt 0.093522 0.039382994
vt 0.093532 0.035642028
vt 0.093532 0.035642028
vt 0.092997 0.015845
vt 0.076535 0.008301973
vt 0.093108 0.008520007
vt 0.334519 0.023014009
vt 0.321777 0.02256602
vt 0.318947 0.356444
vt 0.331831 0.35648298
vt 0.309749 0.022119999
vt 0.306798 0.356399
vt 0.093396 0.09986198
vt 0.093409 0.10745597
vt 0.110019 0.031224012
vt 0.110019 0.027754009
vt 0.0935 0.031360984
vt 0.110019 0.03559798
vt 0.093437 0.060299993
vt 0.017444 0.79686302
vt 0.017444 0.79686302
vt 0.000812 0.78315699
vt 0.00087 0.79692203
vt 0.343556 0.023431003
vt 0.341026 0.35648203
vt 0.076535 0.008301973
vt 0.110019 0.08339
vt 0.093374 0.08341098
vt 0.093358 0.014244974
vt 0.093363 0.014876008
vt 0.093446 0.006918013
vt 0.076557 0.006937027
vt 0.01749 0.8107
vt 0.000915 0.81068099
vt 0.00061 0.99985301495
vt 0.017182 0.999944984913
vt 0.017182 0.999944984913
vt 0.01749 0.8107
vt 0.017077 0.74243802
vt 0.017205 0.755777
vt 0.017077 0.74243802
vt 0.110019 0.022888005
vt 0.000055 0.70334703
vt 0.000207 0.716361
vt 0.346984 0.35649598
vt 0.34934 0.023889005
vt 0.848146 0.022383988
vt 0.849706 0.34973502
vt 0.07664 0.05433798
vt 0.07664 0.05433798
vt 0.093235 0.114250004
vt 0.076661 0.11424601
vt 0.076673 0.11972499
vt 0.093248 0.11973202
vt 0.093533 0.000055015087
vt 0.07651 0.031407
vt 0.093422 0.114232
vt 0.093174 0.04725802
vt 0.09313 0.03951001
vt 0.093235 0.114250004
vt 0.076645 0.09213102
vt 0.09322 0.09213799
vt 0.093248 0.06020999
vt 0.093214 0.054244995
vt 0.076674 0.060302973
vt 0.299155 0.021685004
vt 0.296106 0.356355
vt 0.076647 0.08381301
vt 0.0935 0.031360984
vt 0.000358 0.729406
vt 0.000503 0.742566
vt 0.01693 0.729303
vt 0.110019 0.08339
vt 0.110019 0.07516599
vt 0.093435 0.11993003
vt 0.110019 0.119911015
vt 0.093248 0.00027799606
vt 0.093503 0.047137976
vt 0.110019 0.119911015
vt 0.076673 0.060413003
vt 0.076661 0.06764102
vt 0.093236 0.06765002
vt 0.093248 0.06041801
vt 0.076652 0.07554501
vt 0.093385 0.09174198
vt 0.093236 0.06765002
vt 0.093248 0.11973202
vt 0.09322 0.09213799
vt 0.076674 0.060302973
vt 0.175153 0.020222008
vt 0.17212 0.355233
vt 0.01693 0.729303
vt 0.093011 0.014816999
vt 0.110019 0.060190022
vt 0.093248 0.06041801
vn -1 0.0044 -0.0037
vn -1 0.0044 -0.0037
vn -1 0.0044 -0.0037
vn -0.9998 0.0199 -0.0062
vn -0.9998 0.0199 -0.0062
vn -0.9998 0.0199 -0.0062
vn -0.9998 0.0189 -0.0069
vn -0.9998 0.0189 -0.0069
vn -0.9998 0.0189 -0.0069
vn -0.9998 0.0176 -0.0078
vn -0.9998 0.0176 -0.0078
vn -0.9998 0.0176 -0.0078
vn -0.9998 0.016 -0.0092
vn -0.9998 0.016 -0.0092
vn -0.9998 0.016 -0.0092
vn -0.9993 0.0384 -0.0039
vn -0.9993 0.0384 -0.0039
vn -0.9993 0.0384 -0.0039
vn -0.9997 0.0239 -0.0001
vn -0.9997 0.0239 -0.0001
vn -0.9997 0.0239 -0.0001
vn -1 0.0045 -0.0021
vn -1 0.0045 -0.0021
vn -1 0.0045 -0.0021
vn -1 0.004 -0.0022
vn -1 0.004 -0.0022
vn -1 0.004 -0.0022
vn -0.9998 0.0147 -0.0104
vn -0.9998 0.0147 -0.0104
vn -0.9998 0.0147 -0.0104
vn -0.9999 0.0165 -0.0008
vn -0.9999 0.0165 -0.0008
vn -0.9999 0.0165 -0.0008
vn -0.9995 0.0307 0.0001
vn -0.9995 0.0307 0.0001
vn -0.9995 0.0307 0.0001
vn -0.9997 0.0237 0.0012
vn -0.9997 0.0237 0.0012
vn -0.9997 0.0237 0.0012
vn -1 0.0043 -0.0022
vn -1 0.0043 -0.0022
vn -1 0.0043 -0.0022
vn -1 0.0045 -0.0037
vn -1 0.0045 -0.0037
vn -1 0.0045 -0.0037
vn 1 -0.0042 0.0038
vn 1 -0.0042 0.0038
vn 1 -0.0042 0.0038
vn 1 -0.0042 0.0038
vn -0.0001 -0.0022 1
vn -0.0001 -0.0022 1
vn -0.0001 -0.0022 1
vn 0.002 0.009 -1
vn 0.002 0.009 -1
vn 0.002 0.009 -1
vn -1 0.0041 -0.0037
vn -1 0.0041 -0.0037
vn -1 0.0041 -0.0037
vn -0.9997 0.0237 -0
vn -0.9997 0.0237 -0
vn -0.9997 0.0237 -0
vn -0.9997 0.0236 -0
vn -0.9997 0.0236 -0
vn -0.9997 0.0236 -0
vn 1 -0.0045 0.0037
vn 1 -0.0045 0.0037
vn 1 -0.0045 0.0037
vn 1 -0.0045 0.0037
vn -0.9997 0.0238 0
vn -0.9997 0.0238 0
vn -0.9997 0.0238 0
vn -0.9997 0.0238 0
vn -0.9997 0.0236 0.0001
vn -0.9997 0.0236 0.0001
vn -0.9997 0.0236 0.0001
vn -0.9997 0.0237 -0
vn -0.9997 0.0237 -0
vn -0.9997 0.0237 -0
vn -0.9997 0.0237 -0
vn -0.9997 0.0237 -0
vn -0.9997 0.0238 0
vn -0.9997 0.0238 0
vn -0.9997 0.0237 0.0001
vn -0.9997 0.0237 0.0001
vn -0.9997 0.0237 0.0001
vn -0.9997 0.0238 0
vn -0.9997 0.0238 0
vn -0.9997 0.0238 0
vn -0.9997 0.0237 -0
vn -0.9997 0.0239 -0.0001
vn -0.9997 0.0239 -0.0001
vn -0.9997 0.0237 -0
vn -0.9997 0.0237 -0
vn -0.9997 0.0237 -0
vn -0.9997 0.0236 -0
vn -0.9997 0.0236 -0
vn -0.9997 0.0236 -0
vn -1 0.0045 -0.0022
vn -1 0.0045 -0.0022
vn -1 0.0045 -0.0022
vn -1 0.0048 -0.0021
vn -1 0.0048 -0.0021
vn -1 0.0048 -0.0021
vn -0.9999 0.0158 -0.0009
vn -0.9999 0.0158 -0.0009
vn -0.9999 0.0158 -0.0009
vn -0.9999 0.0156 -0.001
vn -0.9999 0.0156 -0.001
vn -0.9999 0.0156 -0.001
vn -0.9999 0.0155 -0.001
vn -0.9999 0.0155 -0.001
vn -0.9999 0.0155 -0.001
vn -0.9999 0.0155 -0.001
vn -0.9999 0.0158 -0.0007
vn -0.9999 0.0158 -0.0007
vn -0.9999 0.0158 -0.0007
vn -0.9999 0.0157 -0.0007
vn -0.9999 0.0157 -0.0007
vn -0.9999 0.0157 -0.0007
vn -0.9999 0.0168 -0.0008
vn -0.9999 0.0168 -0.0008
vn -0.9999 0.0168 -0.0008
vn -0.9999 0.016 -0.001
vn -0.9999 0.016 -0.001
vn -0.9999 0.016 -0.001
vn -0.9999 0.016 -0.0007
vn -0.9999 0.016 -0.0007
vn -0.9999 0.016 -0.0007
vn -0.9999 0.0158 -0.0007
vn -0.9999 0.0158 -0.0007
vn -0.9999 0.0168 -0.0008
vn -1 0.005 -0.0021
vn -1 0.005 -0.0021
vn -1 0.005 -0.0021
vn 1 -0.0043 0.0037
vn 1 -0.0043 0.0037
vn 1 -0.0043 0.0037
vn 0.9998 -0.0199 0.0061
vn 0.9998 -0.0199 0.0061
vn 0.9998 -0.0199 0.0061
vn 0.9998 -0.0188 0.0069
vn 0.9998 -0.0188 0.0069
vn 0.9998 -0.0188 0.0069
vn 0.9998 -0.0176 0.0077
vn 0.9998 -0.0176 0.0077
vn 0.9998 -0.0176 0.0077
vn 0.9998 -0.0159 0.0091
vn 0.9998 -0.0159 0.0091
vn 0.9998 -0.0159 0.0091
vn 0.9993 -0.0383 0.0039
vn 0.9993 -0.0383 0.0039
vn 0.9993 -0.0383 0.0039
vn 0.9997 -0.0233 -0
vn 0.9997 -0.0233 -0
vn 0.9997 -0.0233 -0
vn 1 -0.0042 0.0022
vn 1 -0.0042 0.0022
vn 1 -0.0042 0.0022
vn 1 -0.0048 0.0021
vn 1 -0.0048 0.0021
vn 1 -0.0048 0.0021
vn 0.9998 -0.0148 0.0103
vn 0.9998 -0.0148 0.0103
vn 0.9998 -0.0148 0.0103
vn 0.9999 -0.0168 0.0008
vn 0.9999 -0.0168 0.0008
vn 0.9999 -0.0168 0.0008
vn 0.9995 -0.0306 -0.0001
vn 0.9995 -0.0306 -0.0001
vn 0.9995 -0.0306 -0.0001
vn 1 -0.0046 0.0022
vn 1 -0.0046 0.0022
vn 1 -0.0046 0.0022
vn 1 -0.0043 0.0037
vn 0.9997 -0.0235 0
vn 0.9997 -0.0235 0
vn 0.9997 -0.0235 0
vn 0.9997 -0.0235 0
vn 0.9997 -0.0238 -0
vn 0.9997 -0.0238 -0
vn 0.9997 -0.0238 -0
vn 0.9997 -0.0236 0
vn 0.9997 -0.0236 0
vn 0.9997 -0.0236 0
vn 0.9997 -0.0236 0.0002
vn 0.9997 -0.0236 0.0002
vn 0.9997 -0.0236 0.0002
vn 0.9997 -0.0237 0.0002
vn 0.9997 -0.0237 0.0002
vn 0.9997 -0.0237 0.0002
vn 0.9997 -0.0238 -0
vn 0.9997 -0.0238 -0
vn 0.9997 -0.0238 -0
vn 0.9997 -0.0236 0.0001
vn 0.9997 -0.0236 0.0001
vn 0.9997 -0.0236 0.0001
vn 0.9997 -0.0236 0.0002
vn 0.9997 -0.0236 0.0002
vn 0.9997 -0.0237 0
vn 0.9997 -0.0237 0
vn 0.9997 -0.0237 0
vn 0.9997 -0.0238 -0
vn 0.9997 -0.0238 -0
vn 0.9997 -0.0236 0.0001
vn 0.9997 -0.0236 0.0001
vn 0.9997 -0.0235 0.0001
vn 0.9997 -0.0235 0.0001
vn 0.9997 -0.0235 0.0001
vn 0.9997 -0.0234 0
vn 0.9997 -0.0234 0
vn 0.9997 -0.0234 0
vn 0.9997 -0.0234 0
vn 0.9997 -0.0236 0.0002
vn 0.9997 -0.0236 0.0002
vn 1 -0.0046 0.0022
vn 1 -0.0046 0.0022
vn 1 -0.004 0.0022
vn 1 -0.004 0.0022
vn 1 -0.004 0.0022
vn 0.9999 -0.0161 0.0009
vn 0.9999 -0.0161 0.0009
vn 0.9999 -0.0161 0.0009
vn 0.9999 -0.0155 0.001
vn 0.9999 -0.0155 0.001
vn 0.9999 -0.0155 0.001
vn 0.9999 -0.0158 0.0007
vn 0.9999 -0.0158 0.0007
vn 0.9999 -0.0158 0.0007
vn 0.9999 -0.0157 0.0007
vn 0.9999 -0.0157 0.0007
vn 0.9999 -0.0157 0.0007
vn 0.9999 -0.0158 0.001
vn 0.9999 -0.0158 0.001
vn 0.9999 -0.0158 0.001
vn 0.9999 -0.0154 0.001
vn 0.9999 -0.0154 0.001
vn 0.9999 -0.0154 0.001
vn 0.9999 -0.016 0.0007
vn 0.9999 -0.016 0.0007
vn 0.9999 -0.016 0.0007
vn 0.9999 -0.0158 0.0007
vn 0.9999 -0.0158 0.0007
vn 0.9999 -0.0154 0.001
vn 0.9999 -0.0167 0.0008
vn 0.9999 -0.0167 0.0008
vn 0.9999 -0.0167 0.0008
vn 0.9999 -0.0165 0.0008
vn 0.9999 -0.0165 0.0008
vn 0.9999 -0.0165 0.0008
vn 1 -0.0049 0.0021
vn 1 -0.0049 0.0021
vn 1 -0.0049 0.0021
vn 0.9999 -0.0154 0.0006
vn 0.9999 -0.0154 0.0006
vn 0.9999 -0.0154 0.0006
vn 0.9999 -0.0154 0.0006
vn 1 -0.0045 0.0037
vn 1 -0.0045 0.0037
vn 1 -0.0045 0.0037
vn -1 0 0
vn -1 0 0
vn -1 0 0
vn -1 0 0
vn 0 -0.0021 1
vn 0 -0.0021 1
vn 0 -0.0021 1
vn 0 -0.0021 1
vn 0 0.0021 -1
vn 0 0.0021 -1
vn 0 0.0021 -1
vn 0 0.0021 -1
vn 0 0.0021 -1
vn 0 0.0021 -1
vn -0.0001 0.002 -1
vn -0.0001 0.002 -1
vn -0.0001 0.002 -1
vn -0.0001 0.002 -1
vn -0.0005 0.0008 -1
vn -0.0005 0.0008 -1
vn -0.0005 0.0008 -1
vn -0.0005 0.0008 -1
vn -0.0004 0.0019 -1
vn -0.0004 0.0019 -1
vn -0.0004 0.0019 -1
vn -0.0004 0.0019 -1
vn -0.0005 0.0018 -1
vn -0.0005 0.0018 -1
vn -0.0005 0.0018 -1
vn -0.0005 0.0018 -1
vn -0.0003 0.0017 -1
vn -0.0003 0.0017 -1
vn -0.0003 0.0017 -1
vn -0.0003 0.0017 -1
vn -0.9998 0.0219 -0.0004
vn -0.9998 0.0219 -0.0004
vn -0.9998 0.0219 -0.0004
vn -0.9998 0.0219 -0.0004
vn -1 0.0042 -0.0038
vn -1 0.0042 -0.0038
vn -1 0.0042 -0.0038
vn -0.0002 0.002 -1
vn -0.0002 0.002 -1
vn -0.0002 0.002 -1
vn -0.0002 0.002 -1
vn -0.0006 0.0013 -1
vn -0.0006 0.0013 -1
vn -0.0006 0.0013 -1
vn -0.0006 0.0013 -1
vn 0.0028 0.0002 -1
vn 0.0028 0.0002 -1
vn 0.0028 0.0002 -1
vn 0.0028 0.0002 -1
vn 0.0127 0.9951 -0.0983
vn 0.0127 0.9951 -0.0983
vn 0.0127 0.9951 -0.0983
vn 0.0127 0.9951 -0.0983
vn -0.0236 -0.9997 0.0001
vn -0.0236 -0.9997 0.0001
vn -0.0236 -0.9997 0.0001
vn -0.0236 -0.9997 0.0001
vn 0.0109 0.9951 -0.0982
vn 0.0109 0.9951 -0.0982
vn 0.0109 0.9951 -0.0982
vn 0.0109 0.9951 -0.0982
vn -0.0003 0.0013 -1
vn -0.0003 0.0013 -1
vn -0.0003 0.0013 -1
vn -0.0003 0.0013 -1
vn 0.0005 -0.0018 1
vn 0.0005 -0.0018 1
vn 0.0005 -0.0018 1
vn 0.0005 -0.0018 1
vn -0.9999 0.0154 -0.0006
vn -0.9999 0.0154 -0.0006
vn -0.9999 0.0154 -0.0006
vn -0.9999 0.0154 -0.0006
vn -1 0.0044 -0.0037
vn -1 0.0044 -0.0037
vn -1 0.0044 -0.0037
vn 0.0003 -0.0017 1
vn 0.0003 -0.0017 1
vn 0.0003 -0.0017 1
vn 0.0003 -0.0017 1
vn 0.0006 -0.0013 1
vn 0.0006 -0.0013 1
vn 0.0006 -0.0013 1
vn 0.0006 -0.0013 1
vn 0.0005 -0.0008 1
vn 0.0005 -0.0008 1
vn 0.0005 -0.0008 1
vn 0.0005 -0.0008 1
vn 0.0002 -0.002 1
vn 0.0002 -0.002 1
vn 0.0002 -0.002 1
vn 0.0002 -0.002 1
vn 0.0019 0.0101 -0.9999
vn 0.0019 0.0101 -0.9999
vn 0.0019 0.0101 -0.9999
vn 0.0019 0.0101 -0.9999
vn -0.0006 -0.0036 1
vn -0.0006 -0.0036 1
vn -0.0006 -0.0036 1
vn -0.0006 -0.0036 1
vn 0.0026 0.0008 -1
vn 0.0026 0.0008 -1
vn 0.0026 0.0008 -1
vn 0.0026 0.0008 -1
vn 0.0001 -0.002 1
vn 0.0001 -0.002 1
vn 0.0001 -0.002 1
vn 0.0001 -0.002 1
vn 0 -0.0021 1
vn 0 -0.0021 1
vn 0.0003 -0.0019 1
vn 0.0003 -0.0019 1
vn 0.0003 -0.0019 1
vn 0.0003 -0.0019 1
vn -0.0414 -0.9991 0.0008
vn -0.0414 -0.9991 0.0008
vn -0.0414 -0.9991 0.0008
vn -0.0414 -0.9991 0.0008
vn -1 0.0044 -0.0037
vn -1 0.0044 -0.0037
vn 1 -0.0045 0.0037
vn 1 -0.0045 0.0037
vn -1 0 0
vn -1 0 0
vn -0.0054 -0.2803 0.9599
vn -0.0054 -0.2803 0.9599
vn -0.0054 -0.2803 0.9599
vn -0.0054 -0.2803 0.9599
vn 0.0003 -0.0013 1
vn 0.0003 -0.0013 1
vn 0.0003 -0.0013 1
vn 0.0003 -0.0013 1
vn 0 1 0.0019
vn 0 1 0.0019
vn 0 1 0.0019
vn 0 1 0.0019
vn -0.0154 -0.9807 0.1951
vn -0.0155 -0.9999 0
vn -0.0155 -0.9999 0
vn -0.0154 -0.9807 0.1952
vn -0.0077 -0.5554 -0.8315
vn -0.0043 -0.3854 -0.9227
vn -0.0045 -0.3881 -0.9216
vn -0.0078 -0.5554 -0.8315
vn 0.0037 0 -1
vn 0.0041 0.0981 -0.9952
vn 0.0041 0.0981 -0.9952
vn 0.0038 0.0001 -1
vn 0.0238 0.9997 0
vn 0.0238 0.9997 0
vn 0.0233 0.9805 0.1951
vn 0.0233 0.9805 0.1952
vn -0.8722 0.4892 0.0009
vn -0.8719 0.4896 0.0009
vn -0.5912 0.8065 0.0015
vn -0.5914 0.8064 0.0015
vn -0.0112 -0.7267 0.6869
vn -0.0134 -0.8314 0.5555
vn -0.0135 -0.8314 0.5555
vn -0.0114 -0.727 0.6866
vn -0.0102 -0.707 -0.7072
vn -0.0102 -0.707 -0.7072
vn 0.0204 0.8915 -0.4526
vn 0.0211 0.9268 -0.3751
vn 0.0211 0.9266 -0.3755
vn 0.0205 0.8913 -0.4529
vn -0.0124 -0.8314 -0.5555
vn -0.0123 -0.8314 -0.5555
vn -0.0103 -0.707 -0.7072
vn 0.0041 0.0981 -0.9952
vn 0.0047 0.1885 -0.9821
vn 0.0045 0.1782 -0.984
vn -0.0033 -0.1087 0.9941
vn -0.0032 -0.102 0.9948
vn -0.0044 -0.1985 0.9801
vn -0.0043 -0.2044 0.9789
vn 0.0088 0.3813 -0.9244
vn 0.0088 0.3818 -0.9242
vn 0.0132 0.5553 -0.8316
vn 0.0132 0.5552 -0.8316
vn 0.0197 0.8312 -0.5556
vn 0.0219 0.9236 -0.3827
vn 0.0219 0.9236 -0.3827
vn 0.0197 0.8312 -0.5556
vn 0.0182 0.8422 -0.5388
vn 0.0204 0.8916 -0.4523
vn 0.0187 0.8412 -0.5404
vn 0.0033 -0.098 -0.9952
vn 0.0033 -0.098 -0.9952
vn -0.015 -0.9806 -0.1952
vn -0.015 -0.9806 -0.1952
vn -0.014 -0.9238 -0.3826
vn -0.014 -0.9238 -0.3826
vn 0.0068 0.7615 -0.6482
vn 0.0063 0.7623 -0.6472
vn 0.006 0.7627 -0.6467
vn 0.0062 0.7623 -0.6471
vn 0.0237 0.9997 -0
vn 0.0233 0.9805 0.1952
vn -0.2892 0.9573 0.0018
vn -0.2891 0.9573 0.0018
vn -0.1404 0.9901 0.0019
vn -0.1404 0.9901 0.0019
vn -0.0003 -0.001 1
vn -0.0003 -0.0015 1
vn -0.0083 -0.6566 0.7542
vn -0.0084 -0.6569 0.754
vn -0.0051 -0.3828 0.9238
vn -0.0053 -0.4714 0.8819
vn -0.0053 -0.4713 0.882
vn -0.0051 -0.3827 0.9239
vn -0.0064 -0.5597 0.8287
vn -0.0063 -0.5582 0.8297
vn -0.0098 -0.7135 0.7006
vn -0.0098 -0.7133 0.7008
vn -0.0124 -0.7755 0.6312
vn -0.0124 -0.7755 0.6312
vn 0.0132 0.5552 0.8316
vn 0.0091 0.3824 0.924
vn 0.009 0.3824 0.924
vn 0.0132 0.5551 0.8316
vn 0.0046 0.1951 0.9808
vn 0.0046 0.1951 0.9808
vn -0.0002 -0.0005 1
vn -0.0063 -0.5582 0.8297
vn -0.0064 -0.5597 0.8287
vn -0.0053 -0.4712 0.882
vn 0.0058 0.2832 -0.959
vn 0.0054 0.272 -0.9623
vn -0.0047 -0.3907 -0.9205
vn -0.001 -0.3022 -0.9532
vn -0.0014 -0.3085 -0.9512
vn -0.0033 -0.1015 0.9948
vn -0.0049 -0.2904 0.9569
vn -0.0049 -0.2905 0.9569
vn 0.8721 -0.4893 -0.0009
vn 0.5913 -0.8065 -0.0015
vn 0.5912 -0.8065 -0.0015
vn 0.8721 -0.4894 -0.0009
vn 0.2892 -0.9573 -0.0018
vn 0.2892 -0.9573 -0.0018
vn -0.0156 -0.9999 -0
vn -0.0151 -0.9806 -0.1952
vn 0.0021 -0.1978 -0.9803
vn 0.0033 -0.098 -0.9952
vn 0.0019 -0.2014 -0.9795
vn -0.0006 -0.2959 -0.9552
vn -0.0061 -0.5567 0.8307
vn 0.0234 0.9455 -0.3248
vn 0.0232 0.9447 -0.3272
vn 0.021 0.9269 -0.3746
vn 0.0236 0.9463 -0.3224
vn 0.978 -0.2085 -0.0004
vn 0.9781 -0.2083 -0.0004
vn -0.0048 -0.2903 0.9569
vn -0.0148 -0.9237 0.3828
vn -0.0147 -0.9237 0.3828
vn 0.0057 0.2714 -0.9624
vn 0.0046 0.1777 -0.9841
vn 0.0088 0.3808 -0.9246
vn -0.0051 -0.3826 0.9239
vn 0.0298 0.9736 -0.2265
vn 0.0301 0.9741 -0.224
vn 0.0343 0.989 -0.1439
vn 0.034 0.989 -0.1443
vn 0.0337 0.9889 -0.1447
vn 0.0294 0.973 -0.2287
vn 0.0136 0.7937 -0.6081
vn 0.0191 0.8401 -0.542
vn 0.0143 0.791 -0.6117
vn 0.0037 0 -1
vn 0.0073 0.7606 -0.6492
vn 0.0065 0.7619 -0.6477
vn 0.989 -0.148 -0.0002
vn 0.989 -0.148 -0.0002
vn -0.9634 0.2681 0.0005
vn -0.9634 0.2681 0.0005
vn 0.0168 0.7069 0.7072
vn 0.0168 0.7069 0.7072
vn 0.0219 0.9236 0.3827
vn 0.0219 0.9236 0.3826
vn 0.0198 0.8312 0.5556
vn 0.0197 0.8313 0.5555
vn 0.0132 0.5552 -0.8316
vn 0.0046 0.195 0.9808
vn -0.0139 -0.9238 -0.3826
vn 0.0132 0.5552 0.8316
vn 0.0091 0.3824 0.924
vn 0.0219 0.9236 0.3827
vn 0.0233 0.9805 -0.1951
vn 0.0233 0.9805 -0.1952
vn 0.0198 0.8312 0.5556
vn 0.0169 0.7069 0.7072
vn 0.0197 0.8313 0.5555
vn 0.0704 -0.9975 -0.0019
vn 0.0704 -0.9975 -0.0019
vn 0.022 0.9236 -0.3826
vn 0.0017 -0.2051 -0.9787
vn 0.0075 0.7705 -0.6374
vn 0.0128 0.7966 -0.6044
vn 0.0079 0.7686 -0.6396
vn -0.0148 -0.9237 0.3827
vn -0.0136 -0.8314 0.5556
vn -0.0123 -0.8314 -0.5555
vn -0.0123 -0.8314 -0.5555
vn -0.0061 -0.5567 0.8307
vn -0.0078 -0.5554 -0.8315
vn -0.0124 -0.8314 -0.5555
vn 0.0132 0.5553 -0.8316
vn 0.0169 0.7069 -0.7072
vn 0.0168 0.7069 -0.7071
vn 0.0132 0.5552 -0.8316
vn 0.0198 0.8312 -0.5556
vn -0.0154 -0.9807 0.1951
vn 0.0168 0.7069 -0.7071
vn 0.0197 0.8313 0.5555
vn 0.0233 0.9805 -0.1952
vn 0.0197 0.8313 0.5555
vn 0 -1 -0.0019
vn 0 -1 -0.0019
vn 0.0083 0.7668 -0.6418
vn -0.0043 -0.1984 0.9801
vn -0.0123 -0.8314 -0.5555
vn 0.0132 0.5552 -0.8316
f 6/6/6 5/5/5 4/4/4
f 3/3/3 2/2/2 1/1/1
f 339/339/339 1/1/1 337/337/337
f 1/1/1 338/338/338 337/337/337
f 337/337/337 338/338/338 382/382/382
f 383/383/383 337/337/337 382/382/382
f 9/9/9 8/8/8 7/7/7
f 12/12/12 11/11/11 10/10/10
f 15/15/15 14/14/14 13/13/13
f 18/18/18 17/17/17 16/16/16
f 21/21/21 20/20/20 19/19/19
f 19/19/19 91/91/91 90/90/90
f 24/24/24 23/23/23 22/22/22
f 27/27/27 26/26/26 25/25/25
f 30/30/30 29/29/29 28/28/28
f 33/33/33 32/32/32 31/31/31
f 36/36/36 35/35/35 34/34/34
f 39/39/39 38/38/38 37/37/37
f 42/42/42 41/41/41 40/40/40
f 45/45/45 44/44/44 43/43/43
f 48/48/48 47/47/47 46/46/46
f 49/49/49 48/48/48 46/46/46
f 52/52/52 51/51/51 50/50/50
f 55/55/55 54/54/54 53/53/53
f 58/58/58 57/57/57 56/56/56
f 61/61/61 60/60/60 59/59/59
f 61/61/61 80/80/80 79/79/79
f 76/76/76 61/61/61 89/89/89
f 78/78/78 77/77/77 76/76/76
f 94/94/94 93/93/93 76/76/76
f 93/93/93 92/92/92 76/76/76
f 64/64/64 63/63/63 62/62/62
f 67/67/67 66/66/66 65/65/65
f 68/68/68 67/67/67 65/65/65
f 67/67/67 68/68/68 384/384/384
f 68/68/68 385/385/385 384/384/384
f 71/71/71 70/70/70 69/69/69
f 71/71/71 69/69/69 72/72/72
f 71/71/71 82/82/82 81/81/81
f 75/75/75 74/74/74 73/73/73
f 85/85/85 84/84/84 83/83/83
f 88/88/88 87/87/87 86/86/86
f 97/97/97 96/96/96 95/95/95
f 100/100/100 99/99/99 98/98/98
f 103/103/103 102/102/102 101/101/101
f 106/106/106 105/105/105 104/104/104
f 109/109/109 108/108/108 107/107/107
f 112/112/112 111/111/111 110/110/110
f 112/112/112 110/110/110 113/113/113
f 116/116/116 115/115/115 114/114/114
f 130/130/130 129/129/129 114/114/114
f 119/119/119 118/118/118 117/117/117
f 122/122/122 121/121/121 120/120/120
f 122/122/122 120/120/120 131/131/131
f 125/125/125 124/124/124 123/123/123
f 128/128/128 127/127/127 126/126/126
f 134/134/134 133/133/133 132/132/132
f 137/137/137 136/136/136 135/135/135
f 136/136/136 174/174/174 135/135/135
f 140/140/140 139/139/139 138/138/138
f 143/143/143 142/142/142 141/141/141
f 146/146/146 145/145/145 144/144/144
f 149/149/149 148/148/148 147/147/147
f 152/152/152 151/151/151 150/150/150
f 155/155/155 154/154/154 153/153/153
f 158/158/158 157/157/157 156/156/156
f 161/161/161 160/160/160 159/159/159
f 164/164/164 163/163/163 162/162/162
f 167/167/167 166/166/166 165/165/165
f 170/170/170 169/169/169 168/168/168
f 173/173/173 172/172/172 171/171/171
f 172/172/172 216/216/216 215/215/215
f 177/177/177 176/176/176 175/175/175
f 176/176/176 178/178/178 175/175/175
f 181/181/181 180/180/180 179/179/179
f 203/203/203 202/202/202 179/179/179
f 192/192/192 191/191/191 179/179/179
f 193/193/193 192/192/192 179/179/179
f 184/184/184 183/183/183 182/182/182
f 187/187/187 186/186/186 185/185/185
f 187/187/187 198/198/198 197/197/197
f 187/187/187 214/214/214 213/213/213
f 190/190/190 189/189/189 188/188/188
f 196/196/196 195/195/195 194/194/194
f 196/196/196 205/205/205 204/204/204
f 201/201/201 200/200/200 199/199/199
f 208/208/208 207/207/207 206/206/206
f 211/211/211 210/210/210 209/209/209
f 212/212/212 211/211/211 209/209/209
f 219/219/219 218/218/218 217/217/217
f 222/222/222 221/221/221 220/220/220
f 225/225/225 224/224/224 223/223/223
f 228/228/228 227/227/227 226/226/226
f 228/228/228 242/242/242 241/241/241
f 231/231/231 230/230/230 229/229/229
f 234/234/234 233/233/233 232/232/232
f 237/237/237 236/236/236 235/235/235
f 237/237/237 235/235/235 243/243/243
f 240/240/240 239/239/239 238/238/238
f 246/246/246 245/245/245 244/244/244
f 249/249/249 248/248/248 247/247/247
f 252/252/252 251/251/251 250/250/250
f 255/255/255 254/254/254 253/253/253
f 256/256/256 255/255/255 253/253/253
f 259/259/259 258/258/258 257/257/257
f 262/262/262 261/261/261 260/260/260
f 263/263/263 262/262/262 260/260/260
f 262/262/262 263/263/263 386/386/386
f 387/387/387 262/262/262 386/386/386
f 266/266/266 265/265/265 264/264/264
f 267/267/267 266/266/266 264/264/264
f 264/264/264 265/265/265 372/372/372
f 265/265/265 373/373/373 372/372/372
f 270/270/270 269/269/269 268/268/268
f 271/271/271 270/270/270 268/268/268
f 270/270/270 273/273/273 269/269/269
f 273/273/273 272/272/272 269/269/269
f 276/276/276 275/275/275 274/274/274
f 277/277/277 276/276/276 274/274/274
f 280/280/280 279/279/279 278/278/278
f 281/281/281 280/280/280 278/278/278
f 284/284/284 283/283/283 282/282/282
f 285/285/285 284/284/284 282/282/282
f 288/288/288 287/287/287 286/286/286
f 289/289/289 288/288/288 286/286/286
f 292/292/292 291/291/291 290/290/290
f 293/293/293 292/292/292 290/290/290
f 296/296/296 295/295/295 294/294/294
f 297/297/297 296/296/296 294/294/294
f 300/300/300 299/299/299 298/298/298
f 303/303/303 302/302/302 301/301/301
f 304/304/304 303/303/303 301/301/301
f 307/307/307 306/306/306 305/305/305
f 308/308/308 307/307/307 305/305/305
f 311/311/311 310/310/310 309/309/309
f 312/312/312 311/311/311 309/309/309
f 315/315/315 314/314/314 313/313/313
f 316/316/316 315/315/315 313/313/313
f 319/319/319 318/318/318 317/317/317
f 320/320/320 319/319/319 317/317/317
f 323/323/323 322/322/322 321/321/321
f 324/324/324 323/323/323 321/321/321
f 327/327/327 326/326/326 325/325/325
f 328/328/328 327/327/327 325/325/325
f 331/331/331 330/330/330 329/329/329
f 332/332/332 331/331/331 329/329/329
f 335/335/335 334/334/334 333/333/333
f 336/336/336 335/335/335 333/333/333
f 342/342/342 341/341/341 340/340/340
f 343/343/343 342/342/342 340/340/340
f 346/346/346 345/345/345 344/344/344
f 347/347/347 346/346/346 344/344/344
f 350/350/350 349/349/349 348/348/348
f 351/351/351 350/350/350 348/348/348
f 354/354/354 353/353/353 352/352/352
f 355/355/355 354/354/354 352/352/352
f 358/358/358 357/357/357 356/356/356
f 359/359/359 358/358/358 356/356/356
f 362/362/362 361/361/361 360/360/360
f 363/363/363 362/362/362 360/360/360
f 366/366/366 365/365/365 364/364/364
f 367/367/367 366/366/366 364/364/364
f 370/370/370 369/369/369 368/368/368
f 371/371/371 370/370/370 368/368/368
f 376/376/376 375/375/375 374/374/374
f 377/377/377 376/376/376 374/374/374
f 380/380/380 379/379/379 378/378/378
f 381/381/381 380/380/380 378/378/378
f 390/390/390 389/389/389 388/388/388
f 391/391/391 390/390/390 388/388/388
f 394/394/394 393/393/393 392/392/392
f 395/395/395 394/394/394 392/392/392
f 398/398/398 397/397/397 396/396/396
f 399/399/399 398/398/398 396/396/396
f 402/402/402 401/401/401 400/400/400
f 403/403/403 402/402/402 400/400/400
f 403/403/403 400/400/400 565/565/565
f 454/454/454 401/401/401 402/402/402
f 453/453/453 454/454/454 402/402/402
f 400/400/400 401/401/401 577/577/577
f 401/401/401 505/505/505 577/577/577
f 401/401/401 454/454/454 505/505/505
f 400/400/400 577/577/577 520/520/520
f 454/454/454 506/506/506 505/505/505
f 519/519/519 400/400/400 520/520/520
f 400/400/400 519/519/519 565/565/565
f 520/520/520 421/421/421 519/519/519
f 549/549/549 506/506/506 454/454/454
f 421/421/421 422/422/422 519/519/519
f 565/565/565 519/519/519 422/422/422
f 566/566/566 565/565/565 422/422/422
f 422/422/422 421/421/421 420/420/420
f 566/566/566 422/422/422 480/480/480
f 423/423/423 422/422/422 420/420/420
f 422/422/422 479/479/479 480/480/480
f 423/423/423 420/420/420 469/469/469
f 480/480/480 479/479/479 477/477/477
f 470/470/470 423/423/423 469/469/469
f 478/478/478 480/480/480 477/477/477
f 470/470/470 469/469/469 476/476/476
f 469/469/469 511/511/511 476/476/476
f 478/478/478 477/477/477 475/475/475
f 477/477/477 476/476/476 475/475/475
f 455/455/455 454/454/454 453/453/453
f 455/455/455 549/549/549 454/454/454
f 456/456/456 455/455/455 453/453/453
f 455/455/455 568/568/568 549/549/549
f 568/568/568 455/455/455 456/456/456
f 568/568/568 567/567/567 549/549/549
f 571/571/571 568/568/568 456/456/456
f 406/406/406 405/405/405 404/404/404
f 510/510/510 405/405/405 406/406/406
f 407/407/407 406/406/406 404/404/404
f 407/407/407 404/404/404 424/424/424
f 424/424/424 586/586/586 431/431/431
f 425/425/425 424/424/424 431/431/431
f 425/425/425 407/407/407 424/424/424
f 425/425/425 431/431/431 430/430/430
f 432/432/432 425/425/425 430/430/430
f 407/407/407 425/425/425 432/432/432
f 570/570/570 407/407/407 432/432/432
f 406/406/406 407/407/407 570/570/570
f 493/493/493 406/406/406 570/570/570
f 494/494/494 406/406/406 493/493/493
f 494/494/494 510/510/510 406/406/406
f 495/495/495 494/494/494 493/493/493
f 495/495/495 561/561/561 494/494/494
f 494/494/494 509/509/509 510/510/510
f 561/561/561 509/509/509 494/494/494
f 509/509/509 507/507/507 510/510/510
f 561/561/561 451/451/451 509/509/509
f 509/509/509 452/452/452 507/507/507
f 451/451/451 452/452/452 509/509/509
f 452/452/452 508/508/508 507/507/507
f 534/534/534 508/508/508 452/452/452
f 408/408/408 452/452/452 451/451/451
f 408/408/408 534/534/534 452/452/452
f 411/411/411 408/408/408 451/451/451
f 411/411/411 410/410/410 408/408/408
f 408/408/408 409/409/409 534/534/534
f 410/410/410 409/409/409 408/408/408
f 409/409/409 433/433/433 534/534/534
f 410/410/410 522/522/522 409/409/409
f 434/434/434 433/433/433 409/409/409
f 522/522/522 435/435/435 409/409/409
f 435/435/435 434/434/434 409/409/409
f 522/522/522 521/521/521 435/435/435
f 435/435/435 492/492/492 434/434/434
f 521/521/521 492/492/492 435/435/435
f 492/492/492 491/491/491 434/434/434
f 441/441/441 491/491/491 492/492/492
f 440/440/440 492/492/492 521/521/521
f 440/440/440 441/441/441 492/492/492
f 442/442/442 441/441/441 440/440/440
f 523/523/523 440/440/440 521/521/521
f 443/443/443 442/442/442 440/440/440
f 443/443/443 440/440/440 523/523/523
f 547/547/547 443/443/443 523/523/523
f 414/414/414 413/413/413 412/412/412
f 412/412/412 413/413/413 553/553/553
f 415/415/415 414/414/414 412/412/412
f 554/554/554 412/412/412 553/553/553
f 553/553/553 560/560/560 554/554/554
f 415/415/415 412/412/412 461/461/461
f 461/461/461 412/412/412 554/554/554
f 462/462/462 415/415/415 461/461/461
f 580/580/580 461/461/461 554/554/554
f 462/462/462 552/552/552 415/415/415
f 580/580/580 554/554/554 446/446/446
f 414/414/414 415/415/415 543/543/543
f 552/552/552 543/543/543 415/415/415
f 544/544/544 414/414/414 543/543/543
f 546/546/546 543/543/543 552/552/552
f 543/543/543 546/546/546 544/544/544
f 579/579/579 546/546/546 552/552/552
f 546/546/546 545/545/545 544/544/544
f 560/560/560 445/445/445 554/554/554
f 554/554/554 445/445/445 446/446/446
f 445/445/445 560/560/560 576/576/576
f 446/446/446 445/445/445 444/444/444
f 444/444/444 445/445/445 576/576/576
f 447/447/447 446/446/446 444/444/444
f 444/444/444 576/576/576 573/573/573
f 447/447/447 444/444/444 578/578/578
f 574/574/574 444/444/444 573/573/573
f 444/444/444 574/574/574 578/578/578
f 574/574/574 573/573/573 572/572/572
f 578/578/578 574/574/574 587/587/587
f 575/575/575 574/574/574 572/572/572
f 574/574/574 575/575/575 587/587/587
f 418/418/418 417/417/417 416/416/416
f 416/416/416 417/417/417 539/539/539
f 417/417/417 540/540/540 539/539/539
f 419/419/419 418/418/418 416/416/416
f 464/464/464 418/418/418 419/419/419
f 463/463/463 464/464/464 419/419/419
f 465/465/465 464/464/464 463/463/463
f 466/466/466 465/465/465 463/463/463
f 428/428/428 427/427/427 426/426/426
f 428/428/428 513/513/513 427/427/427
f 429/429/429 428/428/428 426/426/426
f 513/513/513 512/512/512 427/427/427
f 513/513/513 530/530/530 512/512/512
f 427/427/427 514/514/514 426/426/426
f 514/514/514 449/449/449 426/426/426
f 515/515/515 514/514/514 427/427/427
f 512/512/512 515/515/515 427/427/427
f 426/426/426 449/449/449 448/448/448
f 512/512/512 525/525/525 515/515/515
f 530/530/530 525/525/525 512/512/512
f 525/525/525 526/526/526 515/515/515
f 530/530/530 529/529/529 525/525/525
f 527/527/527 526/526/526 525/525/525
f 529/529/529 528/528/528 525/525/525
f 528/528/528 527/527/527 525/525/525
f 450/450/450 426/426/426 448/448/448
f 429/429/429 426/426/426 450/450/450
f 450/450/450 448/448/448 563/563/563
f 532/532/532 429/429/429 450/450/450
f 531/531/531 450/450/450 563/563/563
f 532/532/532 450/450/450 531/531/531
f 531/531/531 563/563/563 562/562/562
f 533/533/533 532/532/532 531/531/531
f 564/564/564 531/531/531 562/562/562
f 533/533/533 531/531/531 564/564/564
f 564/564/564 562/562/562 536/536/536
f 584/584/584 533/533/533 564/564/564
f 458/458/458 564/564/564 536/536/536
f 584/584/584 564/564/564 458/458/458
f 458/458/458 536/536/536 535/535/535
f 459/459/459 584/584/584 458/458/458
f 457/457/457 458/458/458 535/535/535
f 459/459/459 458/458/458 457/457/457
f 460/460/460 459/459/459 457/457/457
f 438/438/438 437/437/437 436/436/436
f 439/439/439 438/438/438 436/436/436
f 439/439/439 518/518/518 438/438/438
f 436/436/436 437/437/437 467/467/467
f 468/468/468 436/436/436 467/467/467
f 438/438/438 585/585/585 437/437/437
f 468/468/468 467/467/467 485/485/485
f 585/585/585 496/496/496 437/437/437
f 548/548/548 468/468/468 485/485/485
f 437/437/437 496/496/496 487/487/487
f 467/467/467 437/437/437 487/487/487
f 467/467/467 487/487/487 485/485/485
f 487/487/487 486/486/486 485/485/485
f 585/585/585 438/438/438 497/497/497
f 518/518/518 497/497/497 438/438/438
f 498/498/498 585/585/585 497/497/497
f 471/471/471 498/498/498 497/497/497
f 485/485/485 486/486/486 482/482/482
f 548/548/548 485/485/485 482/482/482
f 486/486/486 551/551/551 482/482/482
f 483/483/483 548/548/548 482/482/482
f 482/482/482 551/551/551 481/481/481
f 483/483/483 482/482/482 481/481/481
f 551/551/551 550/550/550 481/481/481
f 484/484/484 483/483/483 481/481/481
f 481/481/481 550/550/550 541/541/541
f 484/484/484 481/481/481 541/541/541
f 550/550/550 556/556/556 541/541/541
f 541/541/541 556/556/556 555/555/555
f 542/542/542 484/484/484 541/541/541
f 557/557/557 541/541/541 555/555/555
f 542/542/542 541/541/541 557/557/557
f 581/581/581 542/542/542 557/557/557
f 474/474/474 497/497/497 518/518/518
f 474/474/474 471/471/471 497/497/497
f 524/524/524 474/474/474 518/518/518
f 524/524/524 490/490/490 474/474/474
f 474/474/474 473/473/473 471/471/471
f 490/490/490 473/473/473 474/474/474
f 490/490/490 489/489/489 473/473/473
f 473/473/473 472/472/472 471/471/471
f 489/489/489 488/488/488 473/473/473
f 473/473/473 488/488/488 472/472/472
f 488/488/488 569/569/569 472/472/472
f 501/501/501 500/500/500 499/499/499
f 502/502/502 501/501/501 499/499/499
f 501/501/501 504/504/504 500/500/500
f 502/502/502 499/499/499 516/516/516
f 504/504/504 503/503/503 500/500/500
f 517/517/517 502/502/502 516/516/516
f 504/504/504 559/559/559 503/503/503
f 517/517/517 516/516/516 537/537/537
f 516/516/516 538/538/538 537/537/537
f 559/559/559 558/558/558 503/503/503
f 582/582/582 558/558/558 559/559/559
f 583/583/583 582/582/582 559/559/559
