# VPXTOOL table OBJ file
# VPXTOOL OBJ file
# numVerts: 343 numFaces: 594
o Primitive5
v -0.000007 0.000005 0.06
v 0.010254 0.000005 0.058193
v 0 0 0.03
v 0.019279 0.000004 0.052986
v 0.025977 0.000002 0.045006
v 0.029543 0.000001 0.035216
v 0.029543 0.000001 0.035216
v 0.029545 -0.000001 0.024797
v 0.025984 -0.000002 0.015006
v 0.019289 -0.000004 0.007023
v 0.010267 -0.000005 0.001812
v 0.000007 -0.000005 0
v -0.010254 -0.000005 0.001807
v -0.019279 -0.000004 0.007014
v -0.025977 -0.000002 0.014994
v -0.029543 -0.000001 0.024784
v -0.029545 0.000001 0.035203
v -0.025984 0.000002 0.044994
v -0.019289 0.000004 0.052977
v -0.010267 0.000005 0.058188
v -0.000007 0.005076 0.060282
v 0.010254 0.005276 0.058486
v -0.000007 0.000005 0.06
v 0.010254 0.000005 0.058193
v 0.019279 0.005854 0.053311
v 0.019279 0.000004 0.052986
v 0.025977 0.006739 0.04538
v 0.025977 0.000002 0.045006
v 0.029543 0.007825 0.035651
v 0.029543 0.000001 0.035216
v 0.029543 0.007825 0.035651
v 0.029545 0.008981 0.025296
v 0.029543 0.000001 0.035216
v 0.029545 -0.000001 0.024797
v 0.025984 0.010067 0.015565
v 0.025984 -0.000002 0.015006
v 0.019289 0.010953 0.007632
v 0.019289 -0.000004 0.007023
v 0.010267 0.011531 0.002452
v 0.010267 -0.000005 0.001812
v 0.000007 0.011732 0.000652
v 0.000007 -0.000005 0
v -0.010254 0.011531 0.002448
v -0.010254 -0.000005 0.001807
v -0.019279 0.010954 0.007623
v -0.019279 -0.000004 0.007014
v -0.025977 0.010069 0.015554
v -0.025977 -0.000002 0.014994
v -0.029543 0.008983 0.025283
v -0.029543 -0.000001 0.024784
v -0.029545 0.007827 0.035638
v -0.029545 0.000001 0.035203
v -0.025984 0.006741 0.045368
v -0.025984 0.000002 0.044994
v -0.019289 0.005855 0.053302
v -0.019289 0.000004 0.052977
v -0.010267 0.005277 0.058481
v -0.010267 0.000005 0.058188
v -0.000007 0.009942 0.0611
v 0.010254 0.01034 0.059337
v 0.019279 0.011485 0.054257
v 0.025977 0.013239 0.046472
v 0.029543 0.015391 0.036922
v 0.029543 0.015391 0.036922
v 0.029545 0.017682 0.026758
v 0.025984 0.019835 0.017206
v 0.019289 0.02159 0.009419
v 0.010267 0.022735 0.004335
v 0.000007 0.023134 0.002568
v -0.010254 0.022736 0.004331
v -0.019279 0.021591 0.009411
v -0.025977 0.019837 0.017195
v -0.029543 0.017685 0.026745
v -0.029545 0.015394 0.036909
v -0.025984 0.013241 0.046461
v -0.019289 0.011486 0.054249
v -0.010267 0.010341 0.059333
v -0.000007 0.014605 0.062423
v 0.010254 0.015192 0.060714
v 0.019279 0.016884 0.055789
v 0.025977 0.019477 0.048242
v 0.029543 0.022657 0.038984
v 0.029543 0.022657 0.038984
v 0.029545 0.026043 0.02913
v 0.025984 0.029224 0.01987
v 0.019289 0.031818 0.01232
v 0.010267 0.033511 0.007392
v 0.000007 0.0341 0.005678
v -0.010254 0.033512 0.007387
v -0.019279 0.03182 0.012312
v -0.025977 0.029228 0.019859
v -0.029543 0.026047 0.029118
v -0.029545 0.022662 0.038971
v -0.025984 0.01948 0.048232
v -0.019289 0.016887 0.055781
v -0.010267 0.015193 0.06071
v -0.000007 0.019052 0.064226
v 0.010254 0.019819 0.06259
v 0.019279 0.022031 0.057876
v 0.025977 0.025421 0.050652
v 0.029543 0.02958 0.04179
v 0.029543 0.02958 0.04179
v 0.029545 0.034007 0.032358
v 0.025984 0.038166 0.023494
v 0.019289 0.041557 0.016267
v 0.010267 0.043771 0.011549
v 0.000007 0.044541 0.009909
v -0.010254 0.043773 0.011545
v -0.019279 0.041561 0.016259
v -0.025977 0.038171 0.023483
v -0.029543 0.034012 0.032346
v -0.029545 0.029586 0.041778
v -0.025984 0.025426 0.050642
v -0.019289 0.022035 0.057868
v -0.010267 0.019821 0.062586
v -0.000007 0.023261 0.066484
v 0.010254 0.024198 0.064939
v 0.019279 0.026899 0.060487
v 0.025977 0.031037 0.053664
v 0.029543 0.036115 0.045294
v 0.029543 0.036115 0.045294
v 0.029545 0.041519 0.036386
v 0.025984 0.046597 0.028014
v 0.019289 0.050737 0.021189
v 0.010267 0.05344 0.016733
v 0.000007 0.05438 0.015185
v -0.010254 0.053442 0.016729
v -0.019279 0.050742 0.021182
v -0.025977 0.046603 0.028004
v -0.029543 0.041525 0.036375
v -0.029545 0.036122 0.045283
v -0.025984 0.031043 0.053654
v -0.019289 0.026903 0.060479
v -0.010267 0.0242 0.064935
v -0.000007 0.027201 0.06917
v 0.010254 0.028296 0.067732
v 0.019279 0.03145 0.063589
v 0.025977 0.036284 0.05724
v 0.029543 0.042214 0.04945
v 0.029543 0.042214 0.04945
v 0.029545 0.048525 0.041161
v 0.025984 0.054456 0.03337
v 0.019289 0.059292 0.027019
v 0.010267 0.062449 0.022872
v 0.000007 0.063546 0.021431
v -0.010254 0.062452 0.022868
v -0.019279 0.059297 0.027012
v -0.025977 0.054463 0.033361
v -0.029543 0.048533 0.04115
v -0.029545 0.042222 0.04944
v -0.025984 0.036291 0.057231
v -0.019289 0.031455 0.063582
v -0.010267 0.028298 0.067729
v -0.000007 0.030837 0.072254
v 0.010254 0.032076 0.070938
v 0.019279 0.035646 0.067148
v 0.025977 0.041118 0.061339
v 0.029543 0.04783 0.054213
v 0.029543 0.04783 0.054213
v 0.029545 0.054974 0.046628
v 0.025984 0.061687 0.039501
v 0.019289 0.067161 0.03369
v 0.010267 0.070734 0.029897
v 0.000007 0.071976 0.028578
v -0.010254 0.070737 0.029893
v -0.019279 0.067167 0.033684
v -0.025977 0.061695 0.039493
v -0.029543 0.054983 0.046619
v -0.029545 0.047839 0.054203
v -0.025984 0.041126 0.061331
v -0.019289 0.035652 0.067141
v -0.010267 0.032079 0.070935
v -0.000007 0.03413 0.0757
v 0.010254 0.0355 0.074521
v 0.019279 0.039447 0.071125
v 0.025977 0.045495 0.065919
v 0.029543 0.052915 0.059533
v 0.029543 0.052915 0.059533
v 0.029545 0.060812 0.052737
v 0.025984 0.068233 0.046349
v 0.019289 0.074284 0.041142
v 0.010267 0.078234 0.037743
v 0.000007 0.079607 0.036561
v -0.010254 0.078237 0.03774
v -0.019279 0.07429 0.041136
v -0.025977 0.068242 0.046342
v -0.029543 0.060822 0.052728
v -0.029545 0.052925 0.059524
v -0.025984 0.045504 0.065912
v -0.019289 0.039453 0.071119
v -0.010267 0.035503 0.074518
v -0.000007 0.037046 0.079473
v 0.010254 0.038531 0.078444
v 0.019279 0.042813 0.075479
v 0.025977 0.049373 0.070937
v 0.029543 0.057422 0.065364
v 0.029543 0.057422 0.065364
v 0.029545 0.065988 0.059432
v 0.025984 0.074038 0.053858
v 0.019289 0.080601 0.049314
v 0.010267 0.084885 0.046347
v 0.000007 0.086374 0.045316
v -0.010254 0.084889 0.046345
v -0.019279 0.080608 0.049309
v -0.025977 0.074047 0.053852
v -0.029543 0.065998 0.059425
v -0.029545 0.057433 0.065356
v -0.025984 0.049383 0.07093
v -0.019289 0.04282 0.075475
v -0.010267 0.038535 0.078441
v -0.000007 0.03955 0.083534
v 0.010254 0.041136 0.082668
v 0.019279 0.045706 0.080172
v 0.025977 0.05271 0.076348
v 0.029543 0.061302 0.071657
v 0.029543 0.061302 0.071657
v 0.029545 0.070447 0.066664
v 0.025984 0.079041 0.061971
v 0.019289 0.086047 0.058146
v 0.010267 0.090621 0.055648
v 0.000007 0.092211 0.05478
v -0.010254 0.090625 0.055646
v -0.019279 0.086055 0.058142
v -0.025977 0.079051 0.061966
v -0.029543 0.070458 0.066657
v -0.029545 0.061314 0.07165
v -0.025984 0.05272 0.076343
v -0.019289 0.045714 0.080168
v -0.010267 0.04114 0.082666
v -0.000007 0.041613 0.087849
v 0.010254 0.043283 0.087158
v 0.019279 0.048094 0.085165
v 0.025977 0.055466 0.082111
v 0.029543 0.06451 0.078365
v 0.029543 0.06451 0.078365
v 0.029545 0.074136 0.074377
v 0.025984 0.083182 0.07063
v 0.019289 0.090557 0.067575
v 0.010267 0.095372 0.065581
v 0.000007 0.097046 0.064887
v -0.010254 0.095376 0.065579
v -0.019279 0.090565 0.067572
v -0.025977 0.083193 0.070626
v -0.029543 0.074148 0.074372
v -0.029545 0.064523 0.07836
v -0.025984 0.055477 0.082107
v -0.019289 0.048102 0.085162
v -0.010267 0.043287 0.087156
v -0.000007 0.043211 0.092392
v 0.010254 0.044946 0.091885
v 0.019279 0.049944 0.090425
v 0.025977 0.057604 0.088187
v 0.029543 0.067001 0.085441
v 0.029543 0.067001 0.085441
v 0.029545 0.077001 0.082519
v 0.025984 0.0864 0.079773
v 0.019289 0.094062 0.077535
v 0.010267 0.099065 0.076073
v 0.000007 0.100803 0.075565
v -0.010254 0.099069 0.076072
v -0.019279 0.09407 0.077532
v -0.025977 0.086411 0.07977
v -0.029543 0.077014 0.082516
v -0.029545 0.067013 0.085438
v -0.025984 0.057615 0.088183
v -0.019289 0.049952 0.090422
v -0.010267 0.04495 0.091884
v -0.000007 0.044319 0.097143
v 0.010254 0.046098 0.096829
v 0.019279 0.051227 0.095926
v 0.025977 0.059085 0.094541
v 0.029543 0.068727 0.092842
v 0.029543 0.068727 0.092842
v 0.029545 0.078987 0.091034
v 0.025984 0.08863 0.089335
v 0.019289 0.096492 0.087949
v 0.010267 0.101624 0.087045
v 0.000007 0.103408 0.086731
v -0.010254 0.101629 0.087044
v -0.019279 0.0965 0.087948
v -0.025977 0.088642 0.089333
v -0.029543 0.079 0.091032
v -0.029545 0.06874 0.09284
v -0.025984 0.059097 0.094539
v -0.019289 0.051235 0.095924
v -0.010267 0.046103 0.096829
v -0.000007 0.044908 0.102097
v 0.010254 0.046712 0.101983
v 0.019279 0.051909 0.101652
v 0.025977 0.059872 0.101146
v 0.029543 0.069643 0.100525
v 0.029543 0.069643 0.100525
v 0.029545 0.08004 0.099863
v 0.025984 0.089812 0.099242
v 0.019289 0.097779 0.098736
v 0.010267 0.10298 0.098405
v 0.000007 0.104788 0.09829
v -0.010254 0.102984 0.098405
v -0.019279 0.097787 0.098735
v -0.025977 0.089824 0.099241
v -0.029543 0.080054 0.099863
v -0.029545 0.069656 0.100524
v -0.025984 0.059884 0.101145
v -0.019289 0.051917 0.101652
v -0.010267 0.046716 0.101982
v -0.000007 0.045 0.108487
v 0.010254 0.046807 0.108487
v 0.019279 0.052014 0.108487
v 0.025977 0.059994 0.108487
v 0.029543 0.069784 0.108487
v 0.029543 0.069784 0.108487
v 0.029545 0.080203 0.108487
v 0.025984 0.089994 0.108487
v 0.019289 0.097977 0.108487
v 0.010267 0.103189 0.108487
v 0.000007 0.105 0.108487
v -0.010254 0.103193 0.108487
v -0.019279 0.097986 0.108487
v -0.025977 0.090006 0.108487
v -0.029543 0.080216 0.108487
v -0.029545 0.069797 0.108487
v -0.025984 0.060006 0.108487
v -0.019289 0.052023 0.108487
v -0.010267 0.046812 0.108487
v -0.000007 0.045 0.300001
v 0.010254 0.046807 0.3
v 0.019279 0.052014 0.3
v 0.025977 0.059994 0.3
v 0.029543 0.069784 0.3
v 0.029543 0.069784 0.3
v 0.029545 0.080203 0.3
v 0.025984 0.089994 0.3
v 0.019289 0.097977 0.3
v 0.010267 0.103188 0.3
v 0.000007 0.105 0.3
v -0.010254 0.103193 0.3
v -0.019279 0.097986 0.3
v -0.025977 0.090006 0.3
v -0.029543 0.080216 0.3
v -0.029545 0.069797 0.3
v -0.025984 0.060006 0.3
v -0.019289 0.052023 0.3
v -0.010267 0.046812 0.3
vt 0.75 0
vt 0.805556 0
vt 0.5 0
vt 0.861111 0
vt 0.916667 0
vt 0.972222 0
vt -0.027778 0
vt 0.027778 0
vt 0.083333 0
vt 0.138889 0
vt 0.194444 0
vt 0.25 0
vt 0.305556 0
vt 0.361111 0
vt 0.416667 0
vt 0.472222 0
vt 0.527778 0
vt 0.583333 0
vt 0.638889 0
vt 0.694444 0
vt 0.75 0.033333004
vt 0.805556 0.033333004
vt 0.75 0
vt 0.805556 0
vt 0.861111 0.033333004
vt 0.861111 0
vt 0.916667 0.033333004
vt 0.916667 0
vt 0.972222 0.033333004
vt 0.972222 0
vt -0.027778 0.033333004
vt 0.027778 0.033333004
vt -0.027778 0
vt 0.027778 0
vt 0.083333 0.033333004
vt 0.083333 0
vt 0.138889 0.033333004
vt 0.138889 0
vt 0.194444 0.033333004
vt 0.194444 0
vt 0.25 0.033333004
vt 0.25 0
vt 0.305556 0.033333004
vt 0.305556 0
vt 0.361111 0.033333004
vt 0.361111 0
vt 0.416667 0.033333004
vt 0.416667 0
vt 0.472222 0.033333004
vt 0.472222 0
vt 0.527778 0.033333004
vt 0.527778 0
vt 0.583333 0.033333004
vt 0.583333 0
vt 0.638889 0.033333004
vt 0.638889 0
vt 0.694444 0.033333004
vt 0.694444 0
vt 0.75 0.06666702
vt 0.805556 0.06666702
vt 0.861111 0.06666702
vt 0.916667 0.06666702
vt 0.972222 0.06666702
vt -0.027778 0.06666702
vt 0.027778 0.06666702
vt 0.083333 0.06666702
vt 0.138889 0.06666702
vt 0.194444 0.06666702
vt 0.25 0.06666702
vt 0.305556 0.06666702
vt 0.361111 0.06666702
vt 0.416667 0.06666702
vt 0.472222 0.06666702
vt 0.527778 0.06666702
vt 0.583333 0.06666702
vt 0.638889 0.06666702
vt 0.694444 0.06666702
vt 0.75 0.100000024
vt 0.805556 0.100000024
vt 0.861111 0.100000024
vt 0.916667 0.100000024
vt 0.972222 0.100000024
vt -0.027778 0.100000024
vt 0.027778 0.100000024
vt 0.083333 0.100000024
vt 0.138889 0.100000024
vt 0.194444 0.100000024
vt 0.25 0.100000024
vt 0.305556 0.100000024
vt 0.361111 0.100000024
vt 0.416667 0.100000024
vt 0.472222 0.100000024
vt 0.527778 0.100000024
vt 0.583333 0.100000024
vt 0.638889 0.100000024
vt 0.694444 0.100000024
vt 0.75 0.13333297
vt 0.805556 0.13333297
vt 0.861111 0.13333297
vt 0.916667 0.13333297
vt 0.972222 0.13333297
vt -0.027778 0.13333297
vt 0.027778 0.13333297
vt 0.083333 0.13333297
vt 0.138889 0.13333297
vt 0.194444 0.13333297
vt 0.25 0.13333297
vt 0.305556 0.13333297
vt 0.361111 0.13333297
vt 0.416667 0.13333297
vt 0.472222 0.13333297
vt 0.527778 0.13333297
vt 0.583333 0.13333297
vt 0.638889 0.13333297
vt 0.694444 0.13333297
vt 0.75 0.16666698
vt 0.805556 0.16666698
vt 0.861111 0.16666698
vt 0.916667 0.16666698
vt 0.972222 0.16666698
vt -0.027778 0.16666698
vt 0.027778 0.16666698
vt 0.083333 0.16666698
vt 0.138889 0.16666698
vt 0.194444 0.16666698
vt 0.25 0.16666698
vt 0.305556 0.16666698
vt 0.361111 0.16666698
vt 0.416667 0.16666698
vt 0.472222 0.16666698
vt 0.527778 0.16666698
vt 0.583333 0.16666698
vt 0.638889 0.16666698
vt 0.694444 0.16666698
vt 0.75 0.19999999
vt 0.805556 0.19999999
vt 0.861111 0.19999999
vt 0.916667 0.19999999
vt 0.972222 0.19999999
vt -0.027778 0.19999999
vt 0.027778 0.19999999
vt 0.083333 0.19999999
vt 0.138889 0.19999999
vt 0.194444 0.19999999
vt 0.25 0.19999999
vt 0.305556 0.19999999
vt 0.361111 0.19999999
vt 0.416667 0.19999999
vt 0.472222 0.19999999
vt 0.527778 0.19999999
vt 0.583333 0.19999999
vt 0.638889 0.19999999
vt 0.694444 0.19999999
vt 0.75 0.23333299
vt 0.805556 0.23333299
vt 0.861111 0.23333299
vt 0.916667 0.23333299
vt 0.972222 0.23333299
vt -0.027778 0.23333299
vt 0.027778 0.23333299
vt 0.083333 0.23333299
vt 0.138889 0.23333299
vt 0.194444 0.23333299
vt 0.25 0.23333299
vt 0.305556 0.23333299
vt 0.361111 0.23333299
vt 0.416667 0.23333299
vt 0.472222 0.23333299
vt 0.527778 0.23333299
vt 0.583333 0.23333299
vt 0.638889 0.23333299
vt 0.694444 0.23333299
vt 0.75 0.266667
vt 0.805556 0.266667
vt 0.861111 0.266667
vt 0.916667 0.266667
vt 0.972222 0.266667
vt -0.027778 0.266667
vt 0.027778 0.266667
vt 0.083333 0.266667
vt 0.138889 0.266667
vt 0.194444 0.266667
vt 0.25 0.266667
vt 0.305556 0.266667
vt 0.361111 0.266667
vt 0.416667 0.266667
vt 0.472222 0.266667
vt 0.527778 0.266667
vt 0.583333 0.266667
vt 0.638889 0.266667
vt 0.694444 0.266667
vt 0.75 0.3
vt 0.805556 0.3
vt 0.861111 0.3
vt 0.916667 0.3
vt 0.972222 0.3
vt -0.027778 0.3
vt 0.027778 0.3
vt 0.083333 0.3
vt 0.138889 0.3
vt 0.194444 0.3
vt 0.25 0.3
vt 0.305556 0.3
vt 0.361111 0.3
vt 0.416667 0.3
vt 0.472222 0.3
vt 0.527778 0.3
vt 0.583333 0.3
vt 0.638889 0.3
vt 0.694444 0.3
vt 0.75 0.33333302
vt 0.805556 0.33333302
vt 0.861111 0.33333302
vt 0.916667 0.33333302
vt 0.972222 0.33333302
vt -0.027778 0.33333302
vt 0.027778 0.33333302
vt 0.083333 0.33333302
vt 0.138889 0.33333302
vt 0.194444 0.33333302
vt 0.25 0.33333302
vt 0.305556 0.33333302
vt 0.361111 0.33333302
vt 0.416667 0.33333302
vt 0.472222 0.33333302
vt 0.527778 0.33333302
vt 0.583333 0.33333302
vt 0.638889 0.33333302
vt 0.694444 0.33333302
vt 0.75 0.36666703
vt 0.805556 0.36666703
vt 0.861111 0.36666703
vt 0.916667 0.36666703
vt 0.972222 0.36666703
vt -0.027778 0.36666703
vt 0.027778 0.36666703
vt 0.083333 0.36666703
vt 0.138889 0.36666703
vt 0.194444 0.36666703
vt 0.25 0.36666703
vt 0.305556 0.36666703
vt 0.361111 0.36666703
vt 0.416667 0.36666703
vt 0.472222 0.36666703
vt 0.527778 0.36666703
vt 0.583333 0.36666703
vt 0.638889 0.36666703
vt 0.694444 0.36666703
vt 0.75 0.39999998
vt 0.805556 0.39999998
vt 0.861111 0.39999998
vt 0.916667 0.39999998
vt 0.972222 0.39999998
vt -0.027778 0.39999998
vt 0.027778 0.39999998
vt 0.083333 0.39999998
vt 0.138889 0.39999998
vt 0.194444 0.39999998
vt 0.25 0.39999998
vt 0.305556 0.39999998
vt 0.361111 0.39999998
vt 0.416667 0.39999998
vt 0.472222 0.39999998
vt 0.527778 0.39999998
vt 0.583333 0.39999998
vt 0.638889 0.39999998
vt 0.694444 0.39999998
vt 0.75 0.43333304
vt 0.805556 0.43333304
vt 0.861111 0.43333304
vt 0.916667 0.43333304
vt 0.972222 0.43333304
vt -0.027778 0.43333304
vt 0.027778 0.43333304
vt 0.083333 0.43333304
vt 0.138889 0.43333304
vt 0.194444 0.43333304
vt 0.25 0.43333304
vt 0.305556 0.43333304
vt 0.361111 0.43333304
vt 0.416667 0.43333304
vt 0.472222 0.43333304
vt 0.527778 0.43333304
vt 0.583333 0.43333304
vt 0.638889 0.43333304
vt 0.694444 0.43333304
vt 0.75 0.466667
vt 0.805556 0.466667
vt 0.861111 0.466667
vt 0.916667 0.466667
vt 0.972222 0.466667
vt -0.027778 0.466667
vt 0.027778 0.466667
vt 0.083333 0.466667
vt 0.138889 0.466667
vt 0.194444 0.466667
vt 0.25 0.466667
vt 0.305556 0.466667
vt 0.361111 0.466667
vt 0.416667 0.466667
vt 0.472222 0.466667
vt 0.527778 0.466667
vt 0.583333 0.466667
vt 0.638889 0.466667
vt 0.694444 0.466667
vt 0.75 0.5
vt 0.805556 0.5
vt 0.861111 0.5
vt 0.916667 0.5
vt 0.972222 0.5
vt -0.027778 0.5
vt 0.027778 0.5
vt 0.083333 0.5
vt 0.138889 0.5
vt 0.194444 0.5
vt 0.25 0.5
vt 0.305556 0.5
vt 0.361111 0.5
vt 0.416667 0.5
vt 0.472222 0.5
vt 0.527778 0.5
vt 0.583333 0.5
vt 0.638889 0.5
vt 0.694444 0.5
vt 0.75 0.533333
vt 0.805556 0.533333
vt 0.861111 0.533333
vt 0.916667 0.533333
vt 0.972222 0.533333
vt -0.027778 0.533333
vt 0.027778 0.533333
vt 0.083333 0.533333
vt 0.138889 0.533333
vt 0.194444 0.533333
vt 0.25 0.533333
vt 0.305556 0.533333
vt 0.361111 0.533333
vt 0.416667 0.533333
vt 0.472222 0.533333
vt 0.527778 0.533333
vt 0.583333 0.533333
vt 0.638889 0.533333
vt 0.694444 0.533333
vn 0 -1 0.000162
vn 0 -1 0.000162
vn 0 -1 0.000162
vn 0 -1 0.000162
vn 0 -1 0.000161
vn 0 -1 0.000163
vn 0 -1 0.000163
vn 0 -1 0.000163
vn -0.000001 -1 0.000161
vn 0 -1 0.000162
vn 0 -1 0.000162
vn 0 -1 0.000162
vn 0 -1 0.000162
vn 0 -1 0.000162
vn 0 -1 0.000161
vn 0 -1 0.000163
vn 0 -1 0.000163
vn -0.000001 -1 0.000161
vn 0 -1 0.000162
vn 0 -1 0.000162
vn -0.000222 -0.110794 0.993843
vn 0.343802 -0.104036 0.933261
vn -0.000222 -0.055456 0.998461
vn 0.343336 -0.052086 0.937767
vn 0.645655 -0.084598 0.758928
vn 0.645077 -0.042376 0.762941
vn 0.868572 -0.054897 0.492513
vn 0.868247 -0.027515 0.495368
vn 0.985804 -0.018599 0.16687
vn 0.985763 -0.009325 0.167882
vn 0.985804 -0.018599 0.16687
vn 0.983782 0.019866 -0.178264
vn 0.985763 -0.009325 0.167882
vn 0.98373 0.009964 -0.179377
vn 0.86348 0.055865 -0.501279
vn 0.863132 0.028008 -0.504201
vn 0.639953 0.085107 -0.763687
vn 0.639358 0.042646 -0.767726
vn 0.340275 0.104148 -0.934541
vn 0.339803 0.052163 -0.939049
vn 0.000221 0.110756 -0.993848
vn 0.000221 0.055465 -0.998461
vn -0.339858 0.104165 -0.93469
vn -0.339385 0.052174 -0.939199
vn -0.639614 0.08514 -0.763967
vn -0.63902 0.042662 -0.768006
vn -0.863258 0.055908 -0.501657
vn -0.862909 0.028028 -0.504581
vn -0.983702 0.019915 -0.178698
vn -0.98365 0.009988 -0.179813
vn -0.985878 -0.018552 0.166434
vn -0.985838 -0.009299 0.167444
vn -0.868793 -0.054855 0.492127
vn -0.868468 -0.02749 0.494982
vn -0.645996 -0.084568 0.758642
vn -0.645418 -0.042359 0.762654
vn -0.34422 -0.104021 0.933109
vn -0.343754 -0.052076 0.937615
vn -0.000221 -0.21975 0.975556
vn 0.343783 -0.206349 0.916097
vn 0.645626 -0.167792 0.744992
vn 0.868546 -0.108886 0.483499
vn 0.985794 -0.036899 0.163857
vn 0.985794 -0.036899 0.163857
vn 0.983792 0.039386 -0.174932
vn 0.863506 0.110777 -0.492023
vn 0.639981 0.16877 -0.749627
vn 0.340293 0.20653 -0.917358
vn 0.000222 0.219637 -0.975582
vn -0.339877 0.206562 -0.917505
vn -0.639642 0.168833 -0.749902
vn -0.863283 0.110861 -0.492394
vn -0.983713 0.039482 -0.175358
vn -0.985868 -0.036803 0.163429
vn -0.868767 -0.108803 0.483121
vn -0.645966 -0.167732 0.744711
vn -0.3442 -0.206316 0.915948
vn -0.000221 -0.324859 0.945763
vn 0.343758 -0.305051 0.888129
vn 0.645587 -0.248062 0.722276
vn 0.868513 -0.160989 0.468794
vn 0.985781 -0.054573 0.158926
vn 0.985781 -0.054573 0.158926
vn 0.983806 0.058203 -0.169525
vn 0.863538 0.16375 -0.476957
vn 0.640017 0.249493 -0.726726
vn 0.340316 0.305322 -0.889361
vn 0.000223 0.324702 -0.945816
vn -0.339901 0.305371 -0.889503
vn -0.639679 0.249585 -0.726992
vn -0.863315 0.163874 -0.477317
vn -0.983726 0.058346 -0.169939
vn -0.985856 -0.05443 0.15851
vn -0.868734 -0.160862 0.468427
vn -0.645927 -0.247969 0.722004
vn -0.344174 -0.305003 0.887985
vn -0.00022 -0.424827 0.905275
vn 0.343733 -0.398929 0.85012
vn 0.645549 -0.324417 0.69139
vn 0.868479 -0.21056 0.448786
vn 0.985768 -0.071401 0.152194
vn 0.985768 -0.071401 0.152194
vn 0.983819 0.076088 -0.162204
vn 0.863571 0.21413 -0.456501
vn 0.640055 0.326279 -0.695609
vn 0.34034 0.399303 -0.851308
vn 0.000222 0.424651 -0.905357
vn -0.339924 0.399367 -0.851444
vn -0.639717 0.326398 -0.695864
vn -0.863349 0.214292 -0.456846
vn -0.983739 0.076274 -0.162601
vn -0.985843 -0.071214 0.151795
vn -0.868701 -0.210395 0.448433
vn -0.645889 -0.324294 0.69113
vn -0.344148 -0.398865 0.849981
vn -0.00022 -0.518714 0.854948
vn 0.34371 -0.487102 0.802867
vn 0.645514 -0.396138 0.652983
vn 0.86845 -0.257132 0.423885
vn 0.985757 -0.08722 0.143792
vn 0.985757 -0.08722 0.143792
vn 0.983831 0.092877 -0.153134
vn 0.863601 0.261449 -0.431089
vn 0.640087 0.398408 -0.656932
vn 0.340362 0.487591 -0.803996
vn 0.000222 0.518549 -0.855048
vn -0.339946 0.487668 -0.804125
vn -0.63975 0.398554 -0.657172
vn -0.863378 0.261647 -0.431415
vn -0.983751 0.093104 -0.153509
vn -0.985832 -0.086991 0.143416
vn -0.868671 -0.25693 0.423553
vn -0.645854 -0.395988 0.652737
vn -0.344126 -0.487021 0.802738
vn -0.000221 -0.605876 0.795559
vn 0.343695 -0.568959 0.747101
vn 0.645491 -0.462724 0.607642
vn 0.868429 -0.300371 0.394472
vn 0.985749 -0.101908 0.133842
vn 0.985749 -0.101908 0.133842
vn 0.98384 0.108463 -0.142462
vn 0.863621 0.305384 -0.401122
vn 0.64011 0.46538 -0.611294
vn 0.340376 0.569567 -0.748156
vn 0.000223 0.605734 -0.795667
vn -0.339961 0.569657 -0.748276
vn -0.639773 0.465551 -0.611517
vn -0.863399 0.305614 -0.401426
vn -0.98376 0.108729 -0.142811
vn -0.985824 -0.101641 0.133492
vn -0.868651 -0.300136 0.394163
vn -0.64583 -0.462549 0.607414
vn -0.34411 -0.568865 0.746981
vn -0.000222 -0.685835 0.727757
vn 0.343687 -0.64405 0.683432
vn 0.645479 -0.523805 0.555865
vn 0.868419 -0.340033 0.360867
vn 0.985745 -0.115376 0.122453
vn 0.985745 -0.115376 0.122453
vn 0.983843 0.12277 -0.130306
vn 0.863631 0.345695 -0.366929
vn 0.640121 0.526824 -0.559197
vn 0.340383 0.644773 -0.684403
vn 0.000223 0.685718 -0.727867
vn -0.339968 0.644876 -0.684512
vn -0.639784 0.527017 -0.559401
vn -0.863408 0.345956 -0.367207
vn -0.983764 0.123069 -0.130624
vn -0.98582 -0.115075 0.122132
vn -0.868641 -0.339767 0.360585
vn -0.645819 -0.523608 0.555655
vn -0.344102 -0.643947 0.68332
vn -0.000221 -0.758157 0.652072
vn 0.343689 -0.711967 0.612357
vn 0.645482 -0.579045 0.498056
vn 0.868422 -0.375894 0.323337
vn 0.985746 -0.127541 0.109715
vn 0.985746 -0.127541 0.109715
vn 0.983842 0.135726 -0.116758
vn 0.863628 0.382171 -0.328773
vn 0.640119 0.58241 -0.501045
vn 0.340381 0.712803 -0.613231
vn 0.000222 0.758068 -0.652176
vn -0.339965 0.712917 -0.613329
vn -0.639781 0.582622 -0.50123
vn -0.863406 0.382459 -0.329022
vn -0.983763 0.136057 -0.117044
vn -0.985821 -0.127208 0.109428
vn -0.868643 -0.3756 0.323085
vn -0.645822 -0.578826 0.49787
vn -0.344104 -0.711852 0.612258
vn -0.000222 -0.822382 0.568935
vn 0.343699 -0.772278 0.534282
vn 0.6455 -0.628091 0.434547
vn 0.868437 -0.407721 0.2821
vn 0.985752 -0.138321 0.095709
vn 0.985752 -0.138321 0.095709
vn 0.983836 0.147256 -0.101891
vn 0.863613 0.414579 -0.286873
vn 0.640102 0.631779 -0.437178
vn 0.340372 0.773216 -0.535055
vn 0.000223 0.822314 -0.569034
vn -0.339954 0.77334 -0.535142
vn -0.639764 0.63201 -0.437339
vn -0.863391 0.414892 -0.28709
vn -0.983757 0.147615 -0.10214
vn -0.985827 -0.137959 0.095459
vn -0.868658 -0.407402 0.281879
vn -0.64584 -0.627854 0.434384
vn -0.344117 -0.772151 0.534197
vn -0.000222 -0.877934 0.478782
vn 0.343718 -0.82444 0.449618
vn 0.645529 -0.6705 0.365681
vn 0.868462 -0.435227 0.237383
vn 0.985762 -0.147617 0.080519
vn 0.985762 -0.147617 0.080519
vn 0.983826 0.157253 -0.085774
vn 0.863589 0.442627 -0.241444
vn 0.640074 0.674487 -0.36793
vn 0.340352 0.825466 -0.450295
vn 0.000223 0.877877 -0.478886
vn -0.339936 0.825599 -0.450366
vn -0.639736 0.674735 -0.368063
vn -0.863367 0.442961 -0.241627
vn -0.983747 0.157637 -0.085983
vn -0.985836 -0.147231 0.080309
vn -0.868683 -0.434887 0.237196
vn -0.645868 -0.670249 0.365543
vn -0.344134 -0.824308 0.449542
vn -0.000221 -0.924092 0.382169
vn 0.343741 -0.867778 0.358892
vn 0.645565 -0.705725 0.291888
vn 0.868494 -0.458061 0.18947
vn 0.985774 -0.155314 0.064249
vn 0.985774 -0.155314 0.064249
vn 0.983814 0.165587 -0.068497
vn 0.863558 0.465953 -0.19276
vn 0.64004 0.709983 -0.293723
vn 0.340329 0.868883 -0.359469
vn 0.000222 0.924042 -0.382291
vn -0.339914 0.869023 -0.359525
vn -0.639702 0.710243 -0.293831
vn -0.863335 0.466305 -0.192906
vn -0.983734 0.16599 -0.068664
vn -0.985848 -0.154908 0.064081
vn -0.868714 -0.457703 0.189322
vn -0.645905 -0.705458 0.29178
vn -0.344158 -0.867638 0.358831
vn -0.00022 -0.960046 0.279843
vn 0.343769 -0.901532 0.262799
vn 0.645605 -0.733151 0.21374
vn 0.868529 -0.475826 0.138737
vn 0.985787 -0.161284 0.047033
vn 0.985787 -0.161284 0.047033
vn 0.9838 0.172103 -0.050188
vn 0.863523 0.48414 -0.141196
vn 0.640002 0.73764 -0.215138
vn 0.340306 0.902702 -0.263288
vn 0.000221 0.959999 -0.280004
vn -0.339889 0.902847 -0.263331
vn -0.639663 0.737911 -0.215218
vn -0.863301 0.484505 -0.141303
vn -0.98372 0.172523 -0.05031
vn -0.985862 -0.160861 0.046909
vn -0.868749 -0.475454 0.138628
vn -0.645946 -0.732874 0.213658
vn -0.344186 -0.901385 0.262757
vn -0.00022 -0.984942 0.172884
vn 0.343793 -0.924903 0.162359
vn 0.645639 -0.752137 0.132063
vn 0.868558 -0.488116 0.085727
vn 0.985798 -0.165401 0.029058
vn 0.985798 -0.165401 0.029058
vn 0.983788 0.176632 -0.031034
vn 0.863493 0.496748 -0.087293
vn 0.639968 0.756803 -0.133006
vn 0.340284 0.926127 -0.162774
vn 0.000222 0.984903 -0.173107
vn -0.339868 0.926276 -0.162799
vn -0.639629 0.757081 -0.133053
vn -0.863271 0.497123 -0.087358
vn -0.983708 0.177064 -0.031109
vn -0.985873 -0.164967 0.028981
vn -0.868779 -0.487734 0.085659
vn -0.64598 -0.751853 0.13201
vn -0.344209 -0.924753 0.162333
vn -0.00019 -0.997792 0.066412
vn 0.34374 -0.936979 0.062557
vn 0.645492 -0.762048 0.051224
vn 0.868376 -0.494771 0.033534
vn 0.98571 -0.168061 0.011458
vn 0.98571 -0.168061 0.011458
vn 0.983896 0.178313 -0.01235
vn 0.863787 0.502645 -0.03492
vn 0.640314 0.766254 -0.053412
vn 0.340509 0.937957 -0.065504
vn 0.000207 0.997568 -0.069693
vn -0.340115 0.938103 -0.065463
vn -0.639981 0.766536 -0.053348
vn -0.863557 0.503044 -0.034868
vn -0.98381 0.178787 -0.012346
vn -0.985792 -0.167584 0.011389
vn -0.86861 -0.49437 0.033402
vn -0.645825 -0.761775 0.051074
vn -0.344114 -0.936848 0.062459
vn -0.000192 -0.999974 0.007194
vn 0.342038 -0.939661 0.00685
vn 0.642973 -0.765867 0.005855
vn 0.866268 -0.499563 0.004071
vn 0.984929 -0.172954 0.001489
vn 0.984929 -0.172954 0.001489
vn 0.984666 0.17444 -0.001652
vn 0.865637 0.500648 -0.004905
vn 0.642349 0.766373 -0.007741
vn 0.341812 0.939719 -0.009679
vn 0.00021 0.999946 -0.010386
vn -0.341414 0.939862 -0.009737
vn -0.642016 0.766651 -0.007833
vn -0.865408 0.501043 -0.004992
vn -0.984583 0.174911 -0.001692
vn -0.985013 -0.172476 0.001524
vn -0.866503 -0.499155 0.004179
vn -0.643307 -0.765585 0.005991
vn -0.342414 -0.939524 0.006946
vn -0.000223 -1 -0.000003
vn 0.341813 -0.939768 -0.000003
vn 0.642617 -0.766188 -0.000002
vn 0.865914 -0.500192 -0.000002
vn 0.984769 -0.173866 -0.000001
vn 0.984769 -0.173866 -0.000001
vn 0.984846 0.17343 -0
vn 0.866136 0.499809 0.000001
vn 0.642957 0.765902 0.000002
vn 0.342231 0.939616 0.000003
vn 0.000225 1 0.000003
vn -0.341811 0.939769 0.000003
vn -0.642618 0.766186 0.000002
vn -0.865915 0.500191 0.000002
vn -0.984769 0.173866 0.000001
vn -0.984846 -0.17343 0
vn -0.866136 -0.499809 -0.000001
vn -0.642957 -0.765903 -0.000002
vn -0.342231 -0.939616 -0.000003
f 28/28/28 30/30/30 29/29/29
f 28/28/28 29/29/29 27/27/27
f 26/26/26 28/28/28 27/27/27
f 27/27/27 29/29/29 63/63/63
f 26/26/26 27/27/27 25/25/25
f 24/24/24 26/26/26 25/25/25
f 27/27/27 63/63/63 62/62/62
f 25/25/25 27/27/27 62/62/62
f 62/62/62 63/63/63 82/82/82
f 24/24/24 25/25/25 22/22/22
f 23/23/23 24/24/24 22/22/22
f 25/25/25 62/62/62 61/61/61
f 22/22/22 25/25/25 61/61/61
f 62/62/62 82/82/82 81/81/81
f 61/61/61 62/62/62 81/81/81
f 81/81/81 82/82/82 101/101/101
f 23/23/23 22/22/22 21/21/21
f 58/58/58 23/23/23 21/21/21
f 81/81/81 101/101/101 100/100/100
f 100/100/100 101/101/101 120/120/120
f 61/61/61 81/81/81 80/80/80
f 80/80/80 81/81/81 100/100/100
f 22/22/22 61/61/61 60/60/60
f 60/60/60 61/61/61 80/80/80
f 21/21/21 22/22/22 60/60/60
f 100/100/100 120/120/120 119/119/119
f 119/119/119 120/120/120 139/139/139
f 80/80/80 100/100/100 99/99/99
f 99/99/99 100/100/100 119/119/119
f 60/60/60 80/80/80 79/79/79
f 79/79/79 80/80/80 99/99/99
f 119/119/119 139/139/139 138/138/138
f 138/138/138 139/139/139 158/158/158
f 99/99/99 119/119/119 118/118/118
f 118/118/118 119/119/119 138/138/138
f 79/79/79 99/99/99 98/98/98
f 98/98/98 99/99/99 118/118/118
f 138/138/138 158/158/158 157/157/157
f 157/157/157 158/158/158 177/177/177
f 118/118/118 138/138/138 137/137/137
f 137/137/137 138/138/138 157/157/157
f 98/98/98 118/118/118 117/117/117
f 117/117/117 118/118/118 137/137/137
f 157/157/157 177/177/177 176/176/176
f 176/176/176 177/177/177 196/196/196
f 137/137/137 157/157/157 156/156/156
f 156/156/156 157/157/157 176/176/176
f 117/117/117 137/137/137 136/136/136
f 136/136/136 137/137/137 156/156/156
f 176/176/176 196/196/196 195/195/195
f 195/195/195 196/196/196 215/215/215
f 156/156/156 176/176/176 175/175/175
f 175/175/175 176/176/176 195/195/195
f 136/136/136 156/156/156 155/155/155
f 155/155/155 156/156/156 175/175/175
f 195/195/195 215/215/215 214/214/214
f 214/214/214 215/215/215 234/234/234
f 175/175/175 195/195/195 194/194/194
f 194/194/194 195/195/195 214/214/214
f 155/155/155 175/175/175 174/174/174
f 174/174/174 175/175/175 194/194/194
f 214/214/214 234/234/234 233/233/233
f 233/233/233 234/234/234 253/253/253
f 194/194/194 214/214/214 213/213/213
f 213/213/213 214/214/214 233/233/233
f 174/174/174 194/194/194 193/193/193
f 193/193/193 194/194/194 213/213/213
f 233/233/233 253/253/253 252/252/252
f 252/252/252 253/253/253 272/272/272
f 213/213/213 233/233/233 232/232/232
f 232/232/232 233/233/233 252/252/252
f 193/193/193 213/213/213 212/212/212
f 212/212/212 213/213/213 232/232/232
f 252/252/252 272/272/272 271/271/271
f 271/271/271 272/272/272 291/291/291
f 232/232/232 252/252/252 251/251/251
f 251/251/251 252/252/252 271/271/271
f 212/212/212 232/232/232 231/231/231
f 231/231/231 232/232/232 251/251/251
f 271/271/271 291/291/291 290/290/290
f 290/290/290 291/291/291 310/310/310
f 251/251/251 271/271/271 270/270/270
f 270/270/270 271/271/271 290/290/290
f 231/231/231 251/251/251 250/250/250
f 250/250/250 251/251/251 270/270/270
f 290/290/290 310/310/310 309/309/309
f 309/309/309 310/310/310 329/329/329
f 309/309/309 329/329/329 328/328/328
f 270/270/270 290/290/290 289/289/289
f 289/289/289 290/290/290 309/309/309
f 308/308/308 309/309/309 328/328/328
f 289/289/289 309/309/309 308/308/308
f 308/308/308 328/328/328 327/327/327
f 269/269/269 270/270/270 289/289/289
f 250/250/250 270/270/270 269/269/269
f 288/288/288 289/289/289 308/308/308
f 269/269/269 289/289/289 288/288/288
f 307/307/307 308/308/308 327/327/327
f 288/288/288 308/308/308 307/307/307
f 307/307/307 327/327/327 326/326/326
f 268/268/268 269/269/269 288/288/288
f 306/306/306 307/307/307 326/326/326
f 306/306/306 326/326/326 325/325/325
f 287/287/287 288/288/288 307/307/307
f 287/287/287 307/307/307 306/306/306
f 268/268/268 288/288/288 287/287/287
f 324/324/324 306/306/306 325/325/325
f 324/324/324 325/325/325 343/343/343
f 305/305/305 287/287/287 306/306/306
f 305/305/305 306/306/306 324/324/324
f 286/286/286 268/268/268 287/287/287
f 286/286/286 287/287/287 305/305/305
f 323/323/323 324/324/324 343/343/343
f 323/323/323 343/343/343 342/342/342
f 304/304/304 305/305/305 324/324/324
f 304/304/304 324/324/324 323/323/323
f 285/285/285 286/286/286 305/305/305
f 285/285/285 305/305/305 304/304/304
f 322/322/322 323/323/323 342/342/342
f 322/322/322 342/342/342 341/341/341
f 303/303/303 304/304/304 323/323/323
f 303/303/303 323/323/323 322/322/322
f 284/284/284 285/285/285 304/304/304
f 284/284/284 304/304/304 303/303/303
f 321/321/321 322/322/322 341/341/341
f 321/321/321 341/341/341 340/340/340
f 302/302/302 303/303/303 322/322/322
f 302/302/302 322/322/322 321/321/321
f 283/283/283 284/284/284 303/303/303
f 283/283/283 303/303/303 302/302/302
f 320/320/320 321/321/321 340/340/340
f 320/320/320 340/340/340 339/339/339
f 301/301/301 302/302/302 321/321/321
f 301/301/301 321/321/321 320/320/320
f 282/282/282 283/283/283 302/302/302
f 282/282/282 302/302/302 301/301/301
f 319/319/319 320/320/320 339/339/339
f 319/319/319 339/339/339 338/338/338
f 300/300/300 301/301/301 320/320/320
f 300/300/300 320/320/320 319/319/319
f 281/281/281 282/282/282 301/301/301
f 281/281/281 301/301/301 300/300/300
f 318/318/318 319/319/319 338/338/338
f 318/318/318 338/338/338 337/337/337
f 299/299/299 300/300/300 319/319/319
f 299/299/299 319/319/319 318/318/318
f 280/280/280 281/281/281 300/300/300
f 280/280/280 300/300/300 299/299/299
f 317/317/317 318/318/318 337/337/337
f 317/317/317 337/337/337 336/336/336
f 298/298/298 299/299/299 318/318/318
f 298/298/298 318/318/318 317/317/317
f 279/279/279 280/280/280 299/299/299
f 279/279/279 299/299/299 298/298/298
f 316/316/316 317/317/317 336/336/336
f 316/316/316 336/336/336 335/335/335
f 297/297/297 298/298/298 317/317/317
f 297/297/297 317/317/317 316/316/316
f 278/278/278 279/279/279 298/298/298
f 278/278/278 298/298/298 297/297/297
f 315/315/315 316/316/316 335/335/335
f 315/315/315 335/335/335 334/334/334
f 296/296/296 297/297/297 316/316/316
f 296/296/296 316/316/316 315/315/315
f 277/277/277 278/278/278 297/297/297
f 277/277/277 297/297/297 296/296/296
f 314/314/314 315/315/315 334/334/334
f 314/314/314 334/334/334 333/333/333
f 295/295/295 296/296/296 315/315/315
f 295/295/295 315/315/315 314/314/314
f 276/276/276 277/277/277 296/296/296
f 276/276/276 296/296/296 295/295/295
f 313/313/313 314/314/314 333/333/333
f 313/313/313 333/333/333 332/332/332
f 294/294/294 295/295/295 314/314/314
f 294/294/294 314/314/314 313/313/313
f 275/275/275 276/276/276 295/295/295
f 275/275/275 295/295/295 294/294/294
f 312/312/312 313/313/313 332/332/332
f 312/312/312 332/332/332 331/331/331
f 293/293/293 294/294/294 313/313/313
f 293/293/293 313/313/313 312/312/312
f 311/311/311 331/331/331 330/330/330
f 311/311/311 312/312/312 331/331/331
f 292/292/292 312/312/312 311/311/311
f 292/292/292 293/293/293 312/312/312
f 273/273/273 293/293/293 292/292/292
f 274/274/274 294/294/294 293/293/293
f 273/273/273 274/274/274 293/293/293
f 274/274/274 275/275/275 294/294/294
f 254/254/254 274/274/274 273/273/273
f 254/254/254 255/255/255 274/274/274
f 255/255/255 275/275/275 274/274/274
f 235/235/235 255/255/255 254/254/254
f 255/255/255 256/256/256 275/275/275
f 256/256/256 276/276/276 275/275/275
f 235/235/235 236/236/236 255/255/255
f 236/236/236 256/256/256 255/255/255
f 216/216/216 236/236/236 235/235/235
f 256/256/256 257/257/257 276/276/276
f 257/257/257 277/277/277 276/276/276
f 236/236/236 237/237/237 256/256/256
f 237/237/237 257/257/257 256/256/256
f 216/216/216 217/217/217 236/236/236
f 217/217/217 237/237/237 236/236/236
f 197/197/197 217/217/217 216/216/216
f 257/257/257 258/258/258 277/277/277
f 258/258/258 278/278/278 277/277/277
f 237/237/237 238/238/238 257/257/257
f 238/238/238 258/258/258 257/257/257
f 217/217/217 218/218/218 237/237/237
f 218/218/218 238/238/238 237/237/237
f 197/197/197 198/198/198 217/217/217
f 198/198/198 218/218/218 217/217/217
f 178/178/178 198/198/198 197/197/197
f 258/258/258 259/259/259 278/278/278
f 259/259/259 279/279/279 278/278/278
f 178/178/178 179/179/179 198/198/198
f 159/159/159 179/179/179 178/178/178
f 198/198/198 199/199/199 218/218/218
f 179/179/179 199/199/199 198/198/198
f 218/218/218 219/219/219 238/238/238
f 199/199/199 219/219/219 218/218/218
f 238/238/238 239/239/239 258/258/258
f 219/219/219 239/239/239 238/238/238
f 239/239/239 259/259/259 258/258/258
f 159/159/159 160/160/160 179/179/179
f 140/140/140 160/160/160 159/159/159
f 179/179/179 180/180/180 199/199/199
f 160/160/160 180/180/180 179/179/179
f 199/199/199 200/200/200 219/219/219
f 180/180/180 200/200/200 199/199/199
f 140/140/140 141/141/141 160/160/160
f 121/121/121 141/141/141 140/140/140
f 160/160/160 161/161/161 180/180/180
f 141/141/141 161/161/161 160/160/160
f 180/180/180 181/181/181 200/200/200
f 161/161/161 181/181/181 180/180/180
f 200/200/200 220/220/220 219/219/219
f 219/219/219 220/220/220 239/239/239
f 181/181/181 201/201/201 200/200/200
f 200/200/200 201/201/201 220/220/220
f 220/220/220 240/240/240 239/239/239
f 239/239/239 240/240/240 259/259/259
f 201/201/201 221/221/221 220/220/220
f 220/220/220 221/221/221 240/240/240
f 259/259/259 260/260/260 279/279/279
f 240/240/240 260/260/260 259/259/259
f 260/260/260 280/280/280 279/279/279
f 221/221/221 241/241/241 240/240/240
f 240/240/240 241/241/241 260/260/260
f 260/260/260 261/261/261 280/280/280
f 241/241/241 261/261/261 260/260/260
f 261/261/261 281/281/281 280/280/280
f 221/221/221 222/222/222 241/241/241
f 261/261/261 262/262/262 281/281/281
f 262/262/262 282/282/282 281/281/281
f 241/241/241 242/242/242 261/261/261
f 242/242/242 262/262/262 261/261/261
f 222/222/222 242/242/242 241/241/241
f 262/262/262 263/263/263 282/282/282
f 263/263/263 283/283/283 282/282/282
f 242/242/242 243/243/243 262/262/262
f 243/243/243 263/263/263 262/262/262
f 222/222/222 223/223/223 242/242/242
f 223/223/223 243/243/243 242/242/242
f 263/263/263 264/264/264 283/283/283
f 264/264/264 284/284/284 283/283/283
f 243/243/243 244/244/244 263/263/263
f 244/244/244 264/264/264 263/263/263
f 223/223/223 224/224/224 243/243/243
f 224/224/224 244/244/244 243/243/243
f 264/264/264 265/265/265 284/284/284
f 265/265/265 285/285/285 284/284/284
f 244/244/244 245/245/245 264/264/264
f 245/245/245 265/265/265 264/264/264
f 224/224/224 225/225/225 244/244/244
f 225/225/225 245/245/245 244/244/244
f 265/265/265 266/266/266 285/285/285
f 266/266/266 286/286/286 285/285/285
f 245/245/245 246/246/246 265/265/265
f 246/246/246 266/266/266 265/265/265
f 225/225/225 226/226/226 245/245/245
f 226/226/226 246/246/246 245/245/245
f 266/266/266 267/267/267 286/286/286
f 267/267/267 268/268/268 286/286/286
f 246/246/246 247/247/247 266/266/266
f 247/247/247 267/267/267 266/266/266
f 226/226/226 227/227/227 246/246/246
f 227/227/227 247/247/247 246/246/246
f 267/267/267 249/249/249 268/268/268
f 249/249/249 269/269/269 268/268/268
f 249/249/249 250/250/250 269/269/269
f 247/247/247 248/248/248 267/267/267
f 248/248/248 249/249/249 267/267/267
f 230/230/230 250/250/250 249/249/249
f 248/248/248 230/230/230 249/249/249
f 230/230/230 231/231/231 250/250/250
f 228/228/228 248/248/248 247/247/247
f 227/227/227 228/228/228 247/247/247
f 229/229/229 230/230/230 248/248/248
f 228/228/228 229/229/229 248/248/248
f 211/211/211 231/231/231 230/230/230
f 229/229/229 211/211/211 230/230/230
f 211/211/211 212/212/212 231/231/231
f 209/209/209 229/229/229 228/228/228
f 192/192/192 212/212/212 211/211/211
f 192/192/192 193/193/193 212/212/212
f 210/210/210 211/211/211 229/229/229
f 210/210/210 192/192/192 211/211/211
f 209/209/209 210/210/210 229/229/229
f 173/173/173 193/193/193 192/192/192
f 173/173/173 174/174/174 193/193/193
f 191/191/191 192/192/192 210/210/210
f 191/191/191 173/173/173 192/192/192
f 190/190/190 210/210/210 209/209/209
f 190/190/190 191/191/191 210/210/210
f 154/154/154 174/174/174 173/173/173
f 154/154/154 155/155/155 174/174/174
f 172/172/172 173/173/173 191/191/191
f 172/172/172 154/154/154 173/173/173
f 171/171/171 191/191/191 190/190/190
f 171/171/171 172/172/172 191/191/191
f 135/135/135 155/155/155 154/154/154
f 135/135/135 136/136/136 155/155/155
f 153/153/153 154/154/154 172/172/172
f 153/153/153 135/135/135 154/154/154
f 152/152/152 172/172/172 171/171/171
f 152/152/152 153/153/153 172/172/172
f 116/116/116 136/136/136 135/135/135
f 116/116/116 117/117/117 136/136/136
f 134/134/134 135/135/135 153/153/153
f 134/134/134 116/116/116 135/135/135
f 133/133/133 153/153/153 152/152/152
f 133/133/133 134/134/134 153/153/153
f 97/97/97 117/117/117 116/116/116
f 97/97/97 98/98/98 117/117/117
f 115/115/115 116/116/116 134/134/134
f 115/115/115 97/97/97 116/116/116
f 114/114/114 134/134/134 133/133/133
f 114/114/114 115/115/115 134/134/134
f 78/78/78 98/98/98 97/97/97
f 78/78/78 79/79/79 98/98/98
f 96/96/96 97/97/97 115/115/115
f 96/96/96 78/78/78 97/97/97
f 95/95/95 115/115/115 114/114/114
f 95/95/95 96/96/96 115/115/115
f 59/59/59 79/79/79 78/78/78
f 59/59/59 60/60/60 79/79/79
f 21/21/21 60/60/60 59/59/59
f 77/77/77 78/78/78 96/96/96
f 77/77/77 59/59/59 78/78/78
f 57/57/57 21/21/21 59/59/59
f 57/57/57 59/59/59 77/77/77
f 58/58/58 21/21/21 57/57/57
f 56/56/56 58/58/58 57/57/57
f 76/76/76 77/77/77 96/96/96
f 76/76/76 96/96/96 95/95/95
f 55/55/55 57/57/57 77/77/77
f 56/56/56 57/57/57 55/55/55
f 55/55/55 77/77/77 76/76/76
f 54/54/54 56/56/56 55/55/55
f 54/54/54 55/55/55 53/53/53
f 53/53/53 55/55/55 76/76/76
f 52/52/52 54/54/54 53/53/53
f 75/75/75 76/76/76 95/95/95
f 53/53/53 76/76/76 75/75/75
f 52/52/52 53/53/53 51/51/51
f 51/51/51 53/53/53 75/75/75
f 50/50/50 52/52/52 51/51/51
f 75/75/75 95/95/95 94/94/94
f 94/94/94 95/95/95 114/114/114
f 51/51/51 75/75/75 74/74/74
f 74/74/74 75/75/75 94/94/94
f 50/50/50 51/51/51 49/49/49
f 49/49/49 51/51/51 74/74/74
f 48/48/48 50/50/50 49/49/49
f 94/94/94 114/114/114 113/113/113
f 113/113/113 114/114/114 133/133/133
f 74/74/74 94/94/94 93/93/93
f 93/93/93 94/94/94 113/113/113
f 49/49/49 74/74/74 73/73/73
f 73/73/73 74/74/74 93/93/93
f 48/48/48 49/49/49 47/47/47
f 47/47/47 49/49/49 73/73/73
f 46/46/46 48/48/48 47/47/47
f 113/113/113 133/133/133 132/132/132
f 132/132/132 133/133/133 152/152/152
f 46/46/46 47/47/47 45/45/45
f 44/44/44 46/46/46 45/45/45
f 47/47/47 73/73/73 72/72/72
f 45/45/45 47/47/47 72/72/72
f 73/73/73 93/93/93 92/92/92
f 72/72/72 73/73/73 92/92/92
f 93/93/93 113/113/113 112/112/112
f 92/92/92 93/93/93 112/112/112
f 112/112/112 113/113/113 132/132/132
f 44/44/44 45/45/45 43/43/43
f 42/42/42 44/44/44 43/43/43
f 45/45/45 72/72/72 71/71/71
f 43/43/43 45/45/45 71/71/71
f 72/72/72 92/92/92 91/91/91
f 71/71/71 72/72/72 91/91/91
f 42/42/42 43/43/43 41/41/41
f 40/40/40 42/42/42 41/41/41
f 43/43/43 71/71/71 70/70/70
f 41/41/41 43/43/43 70/70/70
f 71/71/71 91/91/91 90/90/90
f 70/70/70 71/71/71 90/90/90
f 91/91/91 92/92/92 111/111/111
f 92/92/92 112/112/112 111/111/111
f 90/90/90 91/91/91 110/110/110
f 91/91/91 111/111/111 110/110/110
f 111/111/111 112/112/112 131/131/131
f 112/112/112 132/132/132 131/131/131
f 110/110/110 111/111/111 130/130/130
f 111/111/111 131/131/131 130/130/130
f 132/132/132 152/152/152 151/151/151
f 131/131/131 132/132/132 151/151/151
f 151/151/151 152/152/152 171/171/171
f 130/130/130 131/131/131 150/150/150
f 131/131/131 151/151/151 150/150/150
f 151/151/151 171/171/171 170/170/170
f 150/150/150 151/151/151 170/170/170
f 170/170/170 171/171/171 190/190/190
f 130/130/130 150/150/150 149/149/149
f 170/170/170 190/190/190 189/189/189
f 189/189/189 190/190/190 209/209/209
f 150/150/150 170/170/170 169/169/169
f 169/169/169 170/170/170 189/189/189
f 149/149/149 150/150/150 169/169/169
f 189/189/189 209/209/209 208/208/208
f 208/208/208 209/209/209 228/228/228
f 208/208/208 228/228/228 227/227/227
f 169/169/169 189/189/189 188/188/188
f 188/188/188 189/189/189 208/208/208
f 207/207/207 208/208/208 227/227/227
f 188/188/188 208/208/208 207/207/207
f 207/207/207 227/227/227 226/226/226
f 168/168/168 169/169/169 188/188/188
f 149/149/149 169/169/169 168/168/168
f 187/187/187 188/188/188 207/207/207
f 168/168/168 188/188/188 187/187/187
f 206/206/206 207/207/207 226/226/226
f 187/187/187 207/207/207 206/206/206
f 206/206/206 226/226/226 225/225/225
f 167/167/167 168/168/168 187/187/187
f 205/205/205 206/206/206 225/225/225
f 205/205/205 225/225/225 224/224/224
f 186/186/186 187/187/187 206/206/206
f 186/186/186 206/206/206 205/205/205
f 167/167/167 187/187/187 186/186/186
f 204/204/204 205/205/205 224/224/224
f 204/204/204 224/224/224 223/223/223
f 185/185/185 186/186/186 205/205/205
f 185/185/185 205/205/205 204/204/204
f 166/166/166 167/167/167 186/186/186
f 166/166/166 186/186/186 185/185/185
f 203/203/203 204/204/204 223/223/223
f 203/203/203 223/223/223 222/222/222
f 184/184/184 185/185/185 204/204/204
f 184/184/184 204/204/204 203/203/203
f 165/165/165 166/166/166 185/185/185
f 165/165/165 185/185/185 184/184/184
f 202/202/202 203/203/203 222/222/222
f 202/202/202 222/222/222 221/221/221
f 201/201/201 202/202/202 221/221/221
f 183/183/183 184/184/184 203/203/203
f 183/183/183 203/203/203 202/202/202
f 182/182/182 202/202/202 201/201/201
f 182/182/182 183/183/183 202/202/202
f 181/181/181 182/182/182 201/201/201
f 164/164/164 184/184/184 183/183/183
f 164/164/164 165/165/165 184/184/184
f 163/163/163 183/183/183 182/182/182
f 163/163/163 164/164/164 183/183/183
f 162/162/162 182/182/182 181/181/181
f 162/162/162 163/163/163 182/182/182
f 161/161/161 162/162/162 181/181/181
f 144/144/144 164/164/164 163/163/163
f 142/142/142 162/162/162 161/161/161
f 141/141/141 142/142/142 161/161/161
f 143/143/143 163/163/163 162/162/162
f 142/142/142 143/143/143 162/162/162
f 143/143/143 144/144/144 163/163/163
f 122/122/122 142/142/142 141/141/141
f 121/121/121 122/122/122 141/141/141
f 102/102/102 122/122/122 121/121/121
f 123/123/123 143/143/143 142/142/142
f 122/122/122 123/123/123 142/142/142
f 102/102/102 103/103/103 122/122/122
f 103/103/103 123/123/123 122/122/122
f 83/83/83 103/103/103 102/102/102
f 123/123/123 124/124/124 143/143/143
f 124/124/124 144/144/144 143/143/143
f 103/103/103 104/104/104 123/123/123
f 104/104/104 124/124/124 123/123/123
f 83/83/83 84/84/84 103/103/103
f 84/84/84 104/104/104 103/103/103
f 64/64/64 84/84/84 83/83/83
f 104/104/104 105/105/105 124/124/124
f 64/64/64 65/65/65 84/84/84
f 31/31/31 65/65/65 64/64/64
f 84/84/84 85/85/85 104/104/104
f 65/65/65 85/85/85 84/84/84
f 85/85/85 105/105/105 104/104/104
f 31/31/31 32/32/32 65/65/65
f 33/33/33 32/32/32 31/31/31
f 33/33/33 34/34/34 32/32/32
f 65/65/65 66/66/66 85/85/85
f 32/32/32 66/66/66 65/65/65
f 34/34/34 35/35/35 32/32/32
f 32/32/32 35/35/35 66/66/66
f 34/34/34 36/36/36 35/35/35
f 66/66/66 86/86/86 85/85/85
f 85/85/85 86/86/86 105/105/105
f 35/35/35 67/67/67 66/66/66
f 66/66/66 67/67/67 86/86/86
f 36/36/36 37/37/37 35/35/35
f 35/35/35 37/37/37 67/67/67
f 36/36/36 38/38/38 37/37/37
f 67/67/67 87/87/87 86/86/86
f 38/38/38 39/39/39 37/37/37
f 38/38/38 40/40/40 39/39/39
f 40/40/40 41/41/41 39/39/39
f 37/37/37 68/68/68 67/67/67
f 37/37/37 39/39/39 68/68/68
f 67/67/67 68/68/68 87/87/87
f 39/39/39 41/41/41 69/69/69
f 39/39/39 69/69/69 68/68/68
f 41/41/41 70/70/70 69/69/69
f 68/68/68 88/88/88 87/87/87
f 68/68/68 69/69/69 88/88/88
f 69/69/69 70/70/70 89/89/89
f 69/69/69 89/89/89 88/88/88
f 70/70/70 90/90/90 89/89/89
f 86/86/86 87/87/87 106/106/106
f 86/86/86 106/106/106 105/105/105
f 89/89/89 90/90/90 109/109/109
f 90/90/90 110/110/110 109/109/109
f 88/88/88 89/89/89 108/108/108
f 89/89/89 109/109/109 108/108/108
f 87/87/87 88/88/88 107/107/107
f 88/88/88 108/108/108 107/107/107
f 87/87/87 107/107/107 106/106/106
f 109/109/109 110/110/110 129/129/129
f 110/110/110 130/130/130 129/129/129
f 129/129/129 130/130/130 149/149/149
f 108/108/108 109/109/109 128/128/128
f 109/109/109 129/129/129 128/128/128
f 129/129/129 149/149/149 148/148/148
f 128/128/128 129/129/129 148/148/148
f 148/148/148 149/149/149 168/168/168
f 148/148/148 168/168/168 167/167/167
f 108/108/108 128/128/128 127/127/127
f 107/107/107 108/108/108 127/127/127
f 128/128/128 148/148/148 147/147/147
f 147/147/147 148/148/148 167/167/167
f 127/127/127 128/128/128 147/147/147
f 147/147/147 167/167/167 166/166/166
f 107/107/107 127/127/127 126/126/126
f 106/106/106 107/107/107 126/126/126
f 127/127/127 147/147/147 146/146/146
f 146/146/146 147/147/147 166/166/166
f 126/126/126 127/127/127 146/146/146
f 146/146/146 166/166/166 165/165/165
f 106/106/106 126/126/126 125/125/125
f 105/105/105 106/106/106 125/125/125
f 105/105/105 125/125/125 124/124/124
f 124/124/124 125/125/125 144/144/144
f 126/126/126 146/146/146 145/145/145
f 125/125/125 126/126/126 145/145/145
f 145/145/145 146/146/146 165/165/165
f 125/125/125 145/145/145 144/144/144
f 145/145/145 165/165/165 164/164/164
f 144/144/144 145/145/145 164/164/164
f 3/3/3 2/2/2 1/1/1
f 3/3/3 1/1/1 20/20/20
f 3/3/3 4/4/4 2/2/2
f 3/3/3 20/20/20 19/19/19
f 3/3/3 5/5/5 4/4/4
f 3/3/3 6/6/6 5/5/5
f 3/3/3 19/19/19 18/18/18
f 3/3/3 18/18/18 17/17/17
f 3/3/3 17/17/17 16/16/16
f 3/3/3 16/16/16 15/15/15
f 3/3/3 15/15/15 14/14/14
f 3/3/3 14/14/14 13/13/13
f 3/3/3 13/13/13 12/12/12
f 3/3/3 12/12/12 11/11/11
f 3/3/3 11/11/11 10/10/10
f 3/3/3 10/10/10 9/9/9
f 3/3/3 9/9/9 8/8/8
f 3/3/3 8/8/8 7/7/7
