# VPXTOOL table OBJ file
# VPXTOOL OBJ file
# numVerts: 88 numFaces: 64
o sw1p
v -0.084533 0.038924 -0.21399
v -0.084533 0.02163 -0.21399
v -0.084533 0.02163 -0.18807
v -0.104423 -0.038897 -0.20535
v -0.104423 0.02163 -0.18807
v -0.104423 0.02163 -0.01527
v -0.104423 -0.038897 -0.01527
v 0.104423 -0.047544 -0.23127
v 0.104423 -0.047544 -0.21399
v 0.104423 0.038924 -0.21399
v 0.104423 0.038924 -0.23127
v 0.104423 0.02163 -0.18807
v 0.104423 0.02163 -0.01527
v 0.084533 0.02163 -0.18807
v -0.104423 0.038924 -0.21399
v -0.084533 0.038924 -0.21399
v -0.084533 0.02163 -0.18807
v -0.104423 0.02163 -0.18807
v 0.104423 0.038924 -0.23127
v 0.104423 0.038924 -0.21399
v 0.084533 0.038924 -0.21399
v -0.104423 0.038924 -0.23127
v -0.084533 0.02163 -0.21399
v 0.084533 0.02163 -0.21399
v -0.104423 0.02163 -0.01527
v 0.084533 0.02163 -0.18807
v 0.084533 0.02163 -0.21399
v 0.084533 0.038924 -0.21399
v -0.104423 -0.012957 0.08841
v 0.104423 -0.012957 0.08841
v 0.104423 -0.012957 0.09705
v -0.104423 -0.012957 0.09705
v 0.084533 0.02163 -0.21399
v -0.084533 0.02163 -0.21399
v -0.084533 0.038924 -0.21399
v 0.084533 0.038924 -0.21399
v -0.01989 0.016997 0.08841
v -0.034451 0.004337 0.08841
v -0.034451 0.004337 0.04521
v -0.01989 0.016997 0.04521
v -0 0.02163 0.08841
v -0 0.02163 0.04521
v 0.01989 0.016997 0.08841
v 0.01989 0.016997 0.04521
v 0.034451 0.004337 0.08841
v 0.034451 0.004337 0.04521
v 0.104423 -0.038897 -0.01527
v -0.104423 -0.038897 -0.01527
v -0.104423 -0.038897 0.09705
v 0.104423 -0.038897 0.09705
v -0.104423 -0.047544 -0.21399
v -0.104423 0.038924 -0.21399
v 0.104423 -0.038897 -0.01527
v 0.104423 0.02163 -0.01527
v 0.104423 0.02163 -0.18807
v 0.104423 -0.038897 -0.20535
v -0.104423 0.02163 0.04521
v -0.104423 -0.012957 0.08841
v -0.104423 -0.038897 0.09705
v -0.104423 -0.012957 0.09705
v 0.104423 0.02163 0.04521
v 0.104423 -0.012957 0.08841
v -0.104423 -0.012957 0.08841
v -0.104423 0.02163 0.04521
v 0.104423 0.02163 0.04521
v 0.104423 -0.012957 0.08841
v 0.104423 -0.038897 0.09705
v 0.104423 -0.012957 0.09705
v -0.104423 -0.047544 -0.23127
v -0.104423 0.038924 -0.23127
v 0.03978 -0.012957 0.08841
v 0.104423 -0.038897 -0.20535
v -0.104423 -0.038897 -0.20535
v 0.104423 -0.047544 -0.21399
v -0.104423 -0.047544 -0.21399
v -0.104423 -0.038897 -0.20535
v 0.104423 -0.038897 -0.20535
v 0.104423 -0.047544 -0.23127
v -0.104423 -0.047544 -0.23127
v -0.104423 -0.047544 -0.21399
v 0.104423 -0.047544 -0.21399
v 0.104423 0.038924 -0.23127
v -0.104423 0.038924 -0.23127
v -0.104423 -0.047544 -0.23127
v 0.104423 -0.047544 -0.23127
v -0.03978 -0.012957 0.08841
v 0.104423 0.02163 0.04521
v -0.104423 0.02163 0.04521
vt 0.078932 0.742751
vt 0.098638 0.72522902
vt 0.078932 0.66700798
vt 1.172575 0.71527898
vt 1.051936 0.66700798
vt 1.051936 0.27145398
vt 1.172575 0.27145398
vt 0.999329 0.77337998
vt 0.999329 0.742751
vt 0.827887 0.742751
vt 0.827887 0.77337998
vt 0.827887 0.66700798
vt 0.827887 0.27145398
vt 0.74896 0.66700798
vt 0.000105 0.742751
vt 0.078932 0.742751
vt 0.078932 0.66700798
vt 0.000105 0.66700798
vt 0.827887 0.77337998
vt 0.827887 0.742751
vt 0.74896 0.742751
vt -0.000032 0.77337998
vt 0.098638 0.72522902
vt 0.729253 0.72522902
vt 0.000105 0.27145398
vt 0.74896 0.66700798
vt 0.729253 0.72522902
vt 0.74896 0.742751
vt 0.000105 0.01947403
vt 0.827887 0.01947403
vt 0.827887 0.00013798475
vt 0.000105 0.00013798475
vt 0.729253 0.72522902
vt 0.098638 0.72522902
vt 0.078932 0.742751
vt 0.74896 0.742751
vt 0.335119 0.01947403
vt 0.277414 0.01947403
vt 0.277414 0.12548798
vt 0.335119 0.12548798
vt 0.413946 0.01947403
vt 0.413946 0.12548798
vt 0.492773 0.01947403
vt 0.492773 0.12548798
vt 0.550478 0.01947403
vt 0.550478 0.12548798
vt 0.83833 0.853661
vt 0.998321 0.853661
vt 0.998321 0.78394401
vt 0.83833 0.78394401
vt 1.188809 0.742751
vt 1.017367 0.742751
vt 0.983095 0.27145398
vt 0.862456 0.27145398
vt 0.862456 0.66700798
vt 0.983095 0.71527898
vt 1.051936 0.12548798
vt 1.120183 0.01947403
vt 1.171885 0.00021499395
vt 1.120183 0.00021499395
vt 0.827887 0.12548798
vt 0.827887 0.01947403
vt 0.000105 0.01947403
vt 0.000105 0.12548798
vt 0.862456 0.12548798
vt 0.930703 0.01947403
vt 0.982405 0.00021499395
vt 0.930703 0.00021499395
vt 1.188809 0.77337998
vt 1.017367 0.77337998
vt 0.5716 0.01947403
vt 0.83833 0.982370019
vt 0.998321 0.982370019
vt 0.83833 0.9877330065
vt 0.998321 0.9877330065
vt 0.998321 0.982370019
vt 0.83833 0.982370019
vt 0.83833 0.9984589815
vt 0.998321 0.9984589815
vt 0.998321 0.9877330065
vt 0.83833 0.9877330065
vt 0.827887 0.77337998
vt -0.000032 0.77337998
vt -0.000032 0.99985998869
vt 0.827887 0.99985998869
vt 0.256292 0.01947403
vt 0.827887 0.12548798
vt 0.000105 0.12548798
vn 1 0 -0
vn 1 0 -0
vn 1 0 -0
vn -1 0 0
vn -1 0 0
vn -1 0 0
vn -1 0 0
vn 1 0 -0
vn 1 0 -0
vn 1 0 -0
vn 1 0 -0
vn 0 0.957 0.29
vn 0 1 0
vn 0 0.9897 0.1433
vn 0 0.957 0.29
vn 0 0.9813 0.1923
vn 0 0.9897 0.1433
vn 0 0.957 0.29
vn 0 1 0
vn 0 0.957 0.29
vn 0 0.9813 0.1923
vn 0 1 0
vn 0 1 0
vn 0 1 0
vn 0 1 0
vn -1 0 0
vn -1 0 0
vn -1 0 0
vn 0 1 0
vn 0 1 0
vn 0 1 0
vn 0 1 0
vn 0 0 1
vn 0 0 1
vn 0 0 1
vn 0 0 1
vn -0.4549 0.8905 0
vn -0.8381 0.5455 0
vn -0.7346 0.6785 0
vn -0.4549 0.8905 0
vn 0 1 0
vn 0 1 0
vn 0.4549 0.8905 -0
vn 0.4549 0.8905 -0
vn 0.8381 0.5455 -0
vn 0.7346 0.6785 -0
vn 0 -1 0
vn 0 -1 0
vn 0 -1 0
vn 0 -1 0
vn -1 0 0
vn -1 0 0
vn 1 0 -0
vn 1 0 -0
vn 1 0 -0
vn 1 0 -0
vn -1 0 0
vn -1 0 0
vn -1 0 0
vn -1 0 0
vn 0 0.7806 0.625
vn 0 0.7806 0.625
vn 0 0.7806 0.625
vn 0 0.7806 0.625
vn 1 0 -0
vn 1 0 -0
vn 1 0 -0
vn 1 0 -0
vn -1 0 0
vn -1 0 0
vn 0.9556 0.2945 -0
vn 0 -1 0
vn 0 -1 0
vn 0 -0.7068 0.7074
vn 0 -0.7068 0.7074
vn 0 -0.7068 0.7074
vn 0 -0.7068 0.7074
vn 0 -1 0
vn 0 -1 0
vn 0 -1 0
vn 0 -1 0
vn -0 0 -1
vn -0 0 -1
vn -0 0 -1
vn -0 0 -1
vn -0.9556 0.2945 0
vn 0 1 0
vn 0 1 0
f 3/3/3 2/2/2 1/1/1
f 6/6/6 5/5/5 4/4/4
f 5/5/5 52/52/52 4/4/4
f 7/7/7 6/6/6 4/4/4
f 52/52/52 51/51/51 4/4/4
f 7/7/7 57/57/57 6/6/6
f 52/52/52 70/70/70 51/51/51
f 70/70/70 69/69/69 51/51/51
f 58/58/58 57/57/57 7/7/7
f 7/7/7 59/59/59 58/58/58
f 59/59/59 60/60/60 58/58/58
f 10/10/10 9/9/9 8/8/8
f 11/11/11 10/10/10 8/8/8
f 56/56/56 9/9/9 10/10/10
f 56/56/56 10/10/10 55/55/55
f 56/56/56 55/55/55 53/53/53
f 55/55/55 54/54/54 53/53/53
f 54/54/54 65/65/65 53/53/53
f 65/65/65 66/66/66 53/53/53
f 53/53/53 66/66/66 67/67/67
f 67/67/67 66/66/66 68/68/68
f 14/14/14 13/13/13 12/12/12
f 24/24/24 23/23/23 14/14/14
f 23/23/23 17/17/17 14/14/14
f 14/14/14 17/17/17 13/13/13
f 21/21/21 14/14/14 12/12/12
f 20/20/20 21/21/21 12/12/12
f 21/21/21 20/20/20 19/19/19
f 16/16/16 21/21/21 19/19/19
f 19/19/19 22/22/22 16/16/16
f 16/16/16 22/22/22 15/15/15
f 17/17/17 16/16/16 15/15/15
f 18/18/18 17/17/17 15/15/15
f 17/17/17 18/18/18 25/25/25
f 17/17/17 25/25/25 13/13/13
f 13/13/13 25/25/25 87/87/87
f 25/25/25 88/88/88 87/87/87
f 28/28/28 27/27/27 26/26/26
f 31/31/31 30/30/30 29/29/29
f 32/32/32 31/31/31 29/29/29
f 35/35/35 34/34/34 33/33/33
f 36/36/36 35/35/35 33/33/33
f 39/39/39 38/38/38 37/37/37
f 38/38/38 39/39/39 86/86/86
f 40/40/40 39/39/39 37/37/37
f 40/40/40 37/37/37 41/41/41
f 42/42/42 40/40/40 41/41/41
f 42/42/42 41/41/41 43/43/43
f 44/44/44 42/42/42 43/43/43
f 44/44/44 43/43/43 45/45/45
f 46/46/46 44/44/44 45/45/45
f 46/46/46 45/45/45 71/71/71
f 49/49/49 48/48/48 47/47/47
f 50/50/50 49/49/49 47/47/47
f 48/48/48 73/73/73 47/47/47
f 73/73/73 72/72/72 47/47/47
f 63/63/63 62/62/62 61/61/61
f 64/64/64 63/63/63 61/61/61
f 76/76/76 75/75/75 74/74/74
f 77/77/77 76/76/76 74/74/74
f 80/80/80 79/79/79 78/78/78
f 81/81/81 80/80/80 78/78/78
f 84/84/84 83/83/83 82/82/82
f 85/85/85 84/84/84 82/82/82
