# VPXTOOL table OBJ file
# VPXTOOL OBJ file
# numVerts: 417 numFaces: 816
o Primitive015
v -0.400338 0.390575 0.508256
v -0.400338 0.455551 0.508256
v -0.459586 0.455259 0.45978
v -0.459586 0.390575 0.45978
v -0.459586 0.455259 -0.459459
v -0.459586 0.390575 -0.459459
v -0.508061 0.390575 -0.400211
v -0.508061 0.455551 -0.400211
v -0.520629 0.390575 -0.333782
v -0.520629 0.46994 -0.333782
v 0.479403 0.390575 -0.25658
v 0.520696 0.390575 -0.333782
v 0.520696 0.46994 -0.333782
v 0.479403 0.506502 -0.25658
v 0.256774 0.390575 -0.479208
v 0.333976 0.390575 -0.520502
v 0.324002 0.210019 -0.502549
v 0.400405 0.390575 -0.507935
v 0.402201 0.547076 -0.172197
v 0.402201 0.390575 -0.172197
v 0.326794 0.575452 0.086339
v 0.402201 0.547076 0.172518
v 0.402201 0.390575 0.172518
v 0.326794 0.390575 0.086339
v -0.326727 0.390575 0.086339
v -0.326727 0.575452 0.086339
v -0.29441 0.585718 0.000161
v -0.29441 0.390575 0.000161
v -0.326727 0.575452 -0.086018
v -0.326727 0.390575 -0.086018
v 0.479403 0.506502 0.256901
v 0.479403 0.390575 0.256901
v 0.086212 0.390575 0.326921
v 0.172391 0.390575 0.402328
v 0.172391 0.547076 0.402328
v 0.086212 0.575452 0.326921
v 0.520696 0.390575 0.334103
v 0.520696 0.46994 0.334103
v 0.155335 0.146825 0.365522
v 0.254979 0.146825 0.456189
v 0.256774 0.390575 0.479529
v -0.086145 0.390575 -0.3266
v 0.000034 0.390575 -0.294283
v 0.000034 0.210019 -0.290293
v 0.086212 0.390575 -0.3266
v -0.0646 0.146825 -0.301464
v 0.064668 0.146825 -0.301464
v 0.301659 0.146825 -0.064473
v 0.290488 0.210019 0.000161
v 0.301659 0.146825 0.064794
v 0.25857 0.065575 0.00016
v -0.172324 0.390575 0.402328
v -0.155267 0.146825 0.365522
v -0.0646 0.146825 0.301785
v -0.086145 0.390575 0.326921
v -0.104098 0.065575 -0.254785
v -0.155267 0.146825 -0.365201
v -0.256707 0.390575 0.479529
v -0.254911 0.146825 0.456189
v 0.000033 0.065575 -0.258375
v 0.104166 0.065575 -0.254785
v 0.104166 0.065575 0.255106
v 0.244206 0.065575 0.359238
v 0.064668 0.146825 0.301785
v 0.254979 0.146825 -0.455867
v 0.155335 0.146825 -0.365201
v 0.244206 0.065575 -0.358917
v 0.362702 0.146825 -0.477413
v -0.479335 0.506502 0.256901
v -0.402133 0.547076 0.172518
v -0.402133 0.390575 0.172518
v -0.479335 0.390575 0.256901
v 0.265751 0.065575 -0.265557
v 0.411177 0.146825 -0.410983
v 0.477607 0.146825 -0.362508
v 0.359111 0.065575 -0.244012
v 0.477607 0.146825 0.362829
v 0.508129 0.390575 0.400532
v 0.459653 0.390575 0.45978
v 0.411177 0.146825 0.411304
v -0.520629 0.46994 0.334103
v -0.520629 0.390575 0.334103
v -0.508061 0.390575 0.400532
v -0.508061 0.455551 0.400532
v 0.508129 0.390575 -0.400211
v 0.502743 0.210019 -0.323808
v 0.456062 0.146825 -0.254784
v 0.172391 0.390575 -0.402006
v -0.455995 0.146825 -0.254784
v -0.365328 0.146825 -0.155141
v -0.402133 0.390575 -0.172197
v -0.479335 0.390575 -0.25658
v 0.365395 0.146825 -0.155141
v 0.256774 0.506502 0.479529
v 0.254979 0.065575 -0.103972
v -0.402133 0.547076 -0.172197
v -0.301591 0.146825 0.064794
v -0.365328 0.146825 0.155462
v -0.086145 0.575452 0.326921
v 0.000034 0.390575 0.294604
v 0.000034 0.585718 0.294604
v 0.294477 0.390575 0.000161
v 0.326794 0.390575 -0.086018
v -0.256707 0.506502 -0.479208
v -0.256707 0.390575 -0.479208
v -0.333909 0.390575 -0.520502
v -0.333909 0.46994 -0.520502
v 0.000034 0.585718 -0.294283
v -0.086145 0.575452 -0.3266
v -0.172324 0.547076 0.402328
v -0.256707 0.506502 0.479529
v -0.172323 0.390575 -0.402006
v -0.301591 0.146825 -0.064473
v -0.258502 0.065575 0.000161
v -0.29042 0.210019 0.000161
v 0.365395 0.146825 0.155462
v 0.254979 0.065575 0.104293
v 0.359111 0.065575 0.244333
v 0.456063 0.146825 0.255105
v 0.502743 0.210019 0.324129
v -0.479335 0.506502 -0.25658
v 0.333976 0.46994 0.520823
v 0.333976 0.390575 0.520823
v 0.400405 0.390575 0.508256
v 0.400405 0.455551 0.508256
v 0.459653 0.390575 -0.459459
v 0.459653 0.455259 -0.459459
v 0.508129 0.455551 -0.400211
v -0.265684 0.065575 0.265878
v -0.41111 0.146825 0.411304
v -0.47754 0.146825 0.362829
v -0.359044 0.065575 0.244333
v 0.265751 0.065575 0.265878
v -0.333909 0.390575 0.520823
v -0.333909 0.46994 0.520823
v -0.400338 0.455551 -0.507935
v -0.400338 0.390575 -0.507935
v -0.265684 0.065575 -0.265557
v -0.41111 0.146825 -0.410983
v -0.362635 0.146825 -0.477413
v -0.244139 0.065575 -0.358917
v -0.254911 0.065575 0.104293
v 0.362703 0.146825 0.477734
v 0.172391 0.547076 -0.402006
v 0.256774 0.506502 -0.479208
v 0.086212 0.575452 -0.3266
v 0.294477 0.585718 0.000161
v 0.000034 0.210019 0.290615
v -0.254911 0.146825 -0.455867
v 0.000034 0.065575 0.258696
v -0.104098 0.065575 0.255106
v -0.323934 0.210019 0.50287
v -0.244139 0.065575 0.359238
v -0.362635 0.146825 0.477734
v 0.400405 0.455551 -0.507935
v 0.459653 0.455259 0.45978
v 0.333976 0.46994 -0.520502
v 0.326794 0.575452 -0.086018
v -0.455995 0.146825 0.255105
v -0.172324 0.547076 -0.402006
v 0.508129 0.455551 0.400532
v -0.323934 0.210019 -0.502549
v -0.502675 0.210019 -0.323808
v -0.47754 0.146825 -0.362508
v -0.359044 0.065575 -0.244012
v -0.254911 0.065575 -0.103972
v 0.000034 0.065574 0.000161
v -0.502675 0.210019 0.324129
v 0.324002 0.210019 0.50287
v -0.462978 0.46789 0.463173
v -0.512634 0.468384 0.401709
v 0.366822 0.097574 -0.885344
v 0.353588 0.248744 -0.853393
v 0.000035 0.248744 -0.923719
v 0.000034 0.097574 -0.958303
v -0.366754 0.097574 0.885665
v -0.35352 0.248744 0.853714
v 0.000034 0.248744 0.924041
v 0.000034 0.097574 0.958624
v 0.885539 0.097574 -0.366627
v 0.958497 0.097574 0.000161
v 0.923914 0.248744 0.000161
v 0.853588 0.248744 -0.353393
v -0.88547 0.097574 0.366948
v -0.853519 0.248744 0.353714
v -0.653248 0.248744 0.653442
v -0.677702 0.097574 0.677896
v 0.366822 0.097574 0.885665
v 0.353587 0.248744 0.853715
v 0.67777 0.097574 0.677897
v 0.653316 0.248744 0.653442
v 0.000034 0.361121 0.83163
v 0.318223 0.361121 0.768339
v 0.653316 0.248744 -0.653121
v 0.587972 0.361121 -0.587777
v 0.318224 0.361121 -0.768017
v -0.653248 0.248744 -0.653121
v -0.587904 0.361121 -0.587778
v -0.768144 0.361121 -0.31803
v -0.853519 0.248744 -0.353393
v 0.885538 0.097574 0.366949
v 0.853587 0.248744 0.353715
v 0.831504 0.361121 0.000161
v 0.768212 0.361121 -0.318029
v 0.46343 0.467948 0.462789
v 0.402536 0.468587 0.511742
v 0.587972 0.361121 0.588099
v 0.707141 0.459619 0.000161
v 0.653316 0.459619 -0.270437
v -0.318156 0.361121 0.768339
v -0.831435 0.361121 0.00016
v -0.653247 0.459619 -0.270437
v -0.707073 0.459619 0.000161
v 0.67777 0.097574 -0.677576
v -0.353519 0.248744 -0.853393
v -0.318156 0.361121 -0.768018
v 0.270632 0.459619 0.653442
v 0.500034 0.459619 0.500161
v -0.366754 0.097574 -0.885344
v -0.677702 0.097574 -0.677575
v 0.000034 0.361121 -0.831309
v -0.270565 0.459619 0.653442
v 0.000034 0.459619 0.707267
v -0.587904 0.361121 0.588099
v -0.768144 0.361121 0.31835
v -0.653247 0.459619 0.270758
v -0.499966 0.459619 0.500161
v 0.333718 0.610183 0.000161
v 0.441215 0.570766 -0.128361
v 0.555605 0.540455 0.000161
v 0.441216 0.570766 0.128683
v 0.000034 0.612584 0.321669
v 0.137336 0.572837 0.433527
v 0.000034 0.540455 0.555731
v -0.137269 0.572837 0.433527
v -0.88547 0.097574 -0.366627
v -0.923846 0.248744 0.00016
v -0.958429 0.097574 0.00016
v 0.768212 0.361121 0.31835
v -0.270564 0.459619 -0.653121
v -0.499966 0.459619 -0.49984
v 0.270632 0.459619 -0.653121
v 0.000034 0.459619 -0.706946
v 0.653316 0.459619 0.270759
v 0.500034 0.459619 -0.49984
v -0.250114 0.52218 0.506386
v -0.32996 0.486547 0.545172
v -0.33285 0.482566 0.527348
v -0.25494 0.518879 0.486725
v 0.505476 0.538515 0.192943
v 0.331745 0.483899 0.524504
v 0.525193 0.472931 -0.404604
v 0.000034 0.540455 -0.55541
v 0.505476 0.538515 -0.192622
v 0.404798 0.472931 -0.524998
v 0.586022 0.478182 -0.30972
v 0.309914 0.478182 -0.585828
v 0.538665 0.49067 -0.320991
v 0.472315 0.471885 -0.47212
v 0.525511 0.483671 -0.330355
v 0.236483 0.53072 0.491583
v 0.205988 0.538383 0.502179
v 0.152285 0.570959 0.415528
v 0.512701 0.468384 -0.401388
v -0.525125 0.472931 -0.404604
v -0.472247 0.471885 -0.47212
v -0.462978 0.46789 -0.462851
v -0.512634 0.468384 -0.401388
v 0.494475 0.530167 -0.231205
v -0.538597 0.490669 0.321312
v -0.494407 0.530167 0.231527
v -0.483373 0.521019 0.250102
v -0.525443 0.48367 0.330676
v -0.401515 0.468384 0.512828
v 0.072291 0.598563 0.34428
v 0.000034 0.608665 0.31414
v 0.000034 0.600042 0.299838
v 0.082482 0.58982 0.331572
v 0.321185 0.49067 -0.53847
v 0.401582 0.468384 -0.512507
v 0.192816 0.538515 -0.505282
v 0.330549 0.483671 -0.525317
v 0.2314 0.530167 -0.49428
v 0.483441 0.521019 -0.249781
v 0.128555 0.570766 -0.441021
v -0.505409 0.538515 0.192943
v -0.441148 0.570766 0.128682
v -0.418641 0.570322 0.147375
v -0.418641 0.570322 -0.147054
v -0.494407 0.530167 -0.231205
v -0.483373 0.521019 -0.249781
v -0.406556 0.56148 -0.16546
v 0.406624 0.56148 -0.16546
v 0.038497 0.604883 -0.352756
v 0.147249 0.570322 -0.418513
v 0.000034 0.610183 -0.333525
v -0.082415 0.58982 0.331573
v 0.068804 0.597733 -0.348307
v 0.473748 0.472101 0.471008
v 0.408357 0.473689 0.521267
v -0.318839 0.607794 0.000161
v -0.348434 0.597733 -0.06861
v -0.332543 0.589598 -0.081354
v -0.300956 0.599809 0.000161
v 0.332611 0.589598 -0.081354
v 0.301024 0.599809 0.000161
v 0.332611 0.589598 0.081675
v 0.000034 0.607794 -0.318712
v 0.418707 0.570322 0.147376
v 0.494475 0.530167 0.231527
v 0.483441 0.521019 0.250102
v 0.406624 0.56148 0.165781
v -0.332543 0.589598 0.081675
v -0.038429 0.604882 -0.352756
v -0.068737 0.597733 -0.348307
v -0.128488 0.570766 -0.441021
v -0.147181 0.570322 -0.418514
v 0.418708 0.570322 -0.147054
v 0.348502 0.597733 -0.06861
v -0.192749 0.538515 -0.505282
v -0.40473 0.472931 0.52532
v -0.472247 0.471885 0.472441
v -0.309847 0.478182 -0.585828
v -0.231332 0.530167 -0.49428
v -0.321118 0.490669 -0.53847
v -0.538597 0.490669 -0.320991
v -0.525443 0.48367 -0.330355
v -0.406556 0.56148 0.165781
v -0.40473 0.472931 -0.524998
v -0.330481 0.48367 -0.525317
v -0.401515 0.468384 -0.512507
v -0.168864 0.560551 0.407689
v -0.249908 0.521019 -0.483247
v -0.165587 0.56148 -0.406429
v 0.32565 0.491523 0.534559
v 0.251337 0.521167 0.482759
v -0.333651 0.610183 0.000161
v -0.352883 0.604882 0.038624
v -0.555536 0.540455 0.000161
v -0.441148 0.570766 -0.128361
v -0.505409 0.538515 -0.192622
v -0.348434 0.597733 0.068931
v 0.35295 0.604883 -0.038302
v 0.318906 0.607794 0.000161
v 0.348502 0.597733 0.068931
v 0.165654 0.56148 -0.406429
v 0.081548 0.589598 -0.332417
v -0.081481 0.589598 -0.332417
v 0.35295 0.604883 0.038624
v 0.315454 0.480799 0.57666
v 0.249975 0.521019 -0.483247
v 0.586022 0.478182 0.310041
v 0.538665 0.49067 0.321313
v 0.525193 0.472932 0.404925
v 0.525511 0.483671 0.330676
v 0.512701 0.468384 0.401709
v 0.167004 0.561651 0.405865
v -0.159413 0.566853 0.422336
v 0.048055 0.605966 0.34568
v -0.072223 0.598563 0.34428
v -0.047987 0.605966 0.34568
v -0.263485 0.505532 0.556647
v -0.309847 0.478182 0.586149
v 0.000034 0.599809 -0.300829
v -0.525125 0.472931 0.404925
v 0.463046 0.46789 -0.462851
v -0.585955 0.478182 0.310041
v -0.352883 0.604882 -0.038302
v -0.585954 0.478181 -0.309719
v -0.365798 0.048787 -0.883035
v 0.000034 0.048787 -0.955804
v -0.354643 0.013072 -0.856104
v 0.000034 0.013072 -0.926655
v -0.336278 -0 -0.811768
v 0.000034 0 -0.878666
v -0.675935 0.048787 -0.675808
v -0.655323 0.013072 -0.655196
v -0.62139 -0 -0.621263
v -0.354643 0.013072 0.856426
v 0.000034 0.013072 0.926976
v 0.000034 -0 0.878987
v -0.336278 0 0.81209
v -0.365798 0.048787 0.883356
v 0.000034 0.048787 0.956125
v -0.856231 0.013072 -0.354516
v -0.926781 0.013072 0.000161
v -0.878793 -0 0.000161
v -0.811895 0 -0.336151
v -0.883162 0.048787 -0.365671
v -0.955931 0.048787 0.000161
v 0.955998 0.048787 0.000161
v 0.88323 0.048787 0.365993
v 0.926849 0.013072 0.000161
v 0.856299 0.013072 0.354838
v 0.87886 -0 0.000161
v 0.811963 -0 0.336474
v 0.354711 0.013072 0.856426
v 0.655391 0.013072 0.655518
v 0.621458 0 0.621585
v 0.336347 0 0.81209
v 0.365866 0.048787 0.883357
v 0.676003 0.048787 0.67613
v 0.365866 0.048787 -0.883035
v 0.354711 0.013072 -0.856105
v 0.336347 -0 -0.811769
v -0.655323 0.013072 0.655518
v -0.62139 0 0.621584
v -0.675935 0.048787 0.676129
v 0.676003 0.048787 -0.675809
v 0.655391 0.013072 -0.655197
v 0.621458 -0 -0.621264
v -0.856231 0.013072 0.354837
v -0.811895 -0 0.336473
v -0.883162 0.048787 0.365992
v 0.88323 0.048787 -0.365671
v 0.8563 0.013072 -0.354516
v 0.811964 0 -0.336151
vt 0.6773 0.55299997
vt 0.6994 0.56620002
vt 0.7079 0.5352
vt 0.684 0.5309
vt 0.5393 0.2916
vt 0.5348 0.31550002
vt 0.5568 0.3225
vt 0.5705 0.3003
vt 0.5732 0.3358
vt 0.5957 0.31729996
vt 0.3364 0.5265
vt 0.3224 0.5068
vt 0.2969 0.52069998
vt 0.3149 0.5495
vt 0.3589 0.41190004
vt 0.3383 0.42589998
vt 0.3729 0.4501
vt 0.325 0.44239998
vt 0.3363 0.5704
vt 0.3561 0.5457
vt 0.367 0.6042
vt 0.3728 0.62370002
vt 0.403 0.6142
vt 0.3942 0.59179997
vt 0.627 0.4332
vt 0.6484 0.41190004
vt 0.6392 0.40250003
vt 0.6153 0.4195
vt 0.633 0.39139998
vt 0.6064 0.4038
vt 0.3845 0.65140003
vt 0.4135 0.63950002
vt 0.5653 0.62370002
vt 0.5488 0.6416
vt 0.5734 0.6617
vt 0.5863 0.64569998
vt 0.4277 0.66009998
vt 0.4052 0.6789
vt 0.5202 0.5974
vt 0.5051 0.61720002
vt 0.5298 0.6612
vt 0.4359 0.3725
vt 0.422 0.38409996
vt 0.4434 0.41509998
vt 0.4063 0.393
vt 0.4649 0.41830003
vt 0.4385 0.43620002
vt 0.4201 0.5338
vt 0.4164 0.5549
vt 0.4368 0.55940002
vt 0.4483 0.5344
vt 0.6183 0.5944
vt 0.5869 0.5518
vt 0.5631 0.55940002
vt 0.5953 0.60320002
vt 0.4855 0.4321
vt 0.4813 0.3994
vt 0.6436 0.58389997
vt 0.6109 0.5449
vt 0.4643 0.4458
vt 0.4439 0.46109998
vt 0.5148 0.564
vt 0.4969 0.59680003
vt 0.5358 0.578
vt 0.3906 0.4508
vt 0.4147 0.44379997
vt 0.4067 0.4659
vt 0.3775 0.4615
vt 0.6856 0.4454
vt 0.6646 0.42470002
vt 0.6449 0.44949996
vt 0.6647 0.46850002
vt 0.4139 0.48230004
vt 0.3755 0.47440004
vt 0.3723 0.487
vt 0.4013 0.49479997
vt 0.4649 0.62080002
vt 0.4442 0.6732
vt 0.4661 0.68010002
vt 0.4776 0.62260002
vt 0.7042 0.47360003
vt 0.679 0.48800004
vt 0.6854 0.50770003
vt 0.7108 0.50309998
vt 0.3164 0.487
vt 0.3647 0.4961
vt 0.3807 0.5032
vt 0.3839 0.40170002
vt 0.5477 0.3887
vt 0.5552 0.41289997
vt 0.5976 0.38160002
vt 0.5872 0.35650003
vt 0.4007 0.51819998
vt 0.5522 0.6829
vt 0.4339 0.51279998
vt 0.6275 0.3721
vt 0.5811 0.46169996
vt 0.6006 0.47720003
vt 0.6082 0.63050002
vt 0.5794 0.61220002
vt 0.5967 0.6375
vt 0.3854 0.57599998
vt 0.3739 0.5622
vt 0.4482 0.3132
vt 0.4708 0.3347
vt 0.4914 0.32050002
vt 0.4773 0.2949
vt 0.4048 0.3595
vt 0.4148 0.35109997
vt 0.6282 0.6246
vt 0.6562 0.61339998
vt 0.4521 0.3545
vt 0.5643 0.43630004
vt 0.5529 0.46130002
vt 0.5846 0.4407
vt 0.4458 0.5829
vt 0.4638 0.55470002
vt 0.4677 0.5913
vt 0.4533 0.60720003
vt 0.4525 0.625
vt 0.6159 0.34500003
vt 0.523 0.70060003
vt 0.5091 0.67510003
vt 0.4889 0.6814
vt 0.4936 0.7065
vt 0.318 0.4641
vt 0.2942 0.4594
vt 0.2911 0.49119997
vt 0.5875 0.5133
vt 0.6263 0.52100003
vt 0.6293 0.5083
vt 0.6001 0.5007
vt 0.4842 0.58420002
vt 0.6645 0.56919998
vt 0.683 0.592
vt 0.507 0.2884
vt 0.5118 0.31410003
vt 0.5171 0.41190004
vt 0.5233 0.37329996
vt 0.5104 0.3704
vt 0.5047 0.3994
vt 0.5673 0.48290002
vt 0.4903 0.62550002
vt 0.3744 0.37189996
vt 0.3476 0.3836
vt 0.3937 0.36590004
vt 0.3607 0.593
vt 0.5574 0.58020002
vt 0.4954 0.3789
vt 0.5367 0.55010003
vt 0.5576 0.53469998
vt 0.6286 0.5459
vt 0.5948 0.5298
vt 0.6244 0.53399998
vt 0.3034 0.4288
vt 0.4617 0.7041
vt 0.3197 0.40349996
vt 0.3525 0.5829
vt 0.6207 0.4921
vt 0.4272 0.3347
vt 0.4308 0.69529998
vt 0.5013 0.36179996
vt 0.5485 0.37090003
vt 0.5361 0.375
vt 0.5334 0.40460002
vt 0.5374 0.4411
vt 0.5004 0.49800003
vt 0.6368 0.49909997
vt 0.4992 0.634
vt 0.7133 0.53609997
vt 0.7168 0.50160003
vt 0.1394 0.2586
vt 0.1966 0.29509997
vt 0.2899 0.1929
vt 0.2541 0.13779998
vt 0.8644 0.7374
vt 0.8068 0.70130002
vt 0.7126 0.80489999
vt 0.7491 0.86000001
vt 0.0747 0.5891
vt 0.1383 0.7454
vt 0.1927 0.70700002
vt 0.1431 0.57709998
vt 0.9246 0.4052
vt 0.8578 0.41649997
vt 0.8565 0.56269997
vt 0.9249 0.57630002
vt 0.5936 0.92379999
vt 0.5814 0.8581
vt 0.4212 0.92320001
vt 0.4334 0.8542
vt 0.6808 0.7608
vt 0.5725 0.80080003
vt 0.1458 0.4314
vt 0.2046 0.4422
vt 0.246 0.32340002
vt 0.567 0.1437
vt 0.5561 0.2026
vt 0.6751 0.24309999
vt 0.704 0.19410002
vt 0.2604 0.86150002
vt 0.2951 0.80290002
vt 0.2372 0.6756
vt 0.1987 0.56770003
vt 0.4605 0.7094
vt 0.4944 0.7126
vt 0.4447 0.7945
vt 0.2816 0.64709997
vt 0.2557 0.5622
vt 0.7571 0.67369998
vt 0.7614 0.3172
vt 0.6491 0.29499996
vt 0.7196 0.348
vt 0.0773 0.41750002
vt 0.42 0.14100003
vt 0.4288 0.19730002
vt 0.5656 0.74330002
vt 0.457 0.7296
vt 0.4091 0.07440001
vt 0.5806 0.075399995
vt 0.3211 0.23699999
vt 0.7057 0.64670002
vt 0.6513 0.71789998
vt 0.7972 0.5518
vt 0.8016 0.42509997
vt 0.7435 0.4321
vt 0.733 0.5396
vt 0.3551 0.5967
vt 0.3307 0.583
vt 0.3207 0.62019998
vt 0.359 0.62440002
vt 0.5999 0.64209998
vt 0.5842 0.66680002
vt 0.6249 0.6799
vt 0.6288 0.63639998
vt 0.7402 0.13690001
vt 0.8063 0.28750002
vt 0.8611 0.25129998
vt 0.3234 0.75340003
vt 0.4356 0.254
vt 0.544 0.2665
vt 0.2979 0.3503
vt 0.3518 0.2794
vt 0.3511 0.7025
vt 0.2688 0.4544
vt 0.6618 0.62150002
vt 0.6904 0.6027
vt 0.6859 0.59680003
vt 0.6578 0.61720002
vt 0.3626 0.647
vt 0.5271 0.7047
vt 0.2794 0.49399996
vt 0.3757 0.3182
vt 0.3108 0.5714
vt 0.2935 0.4217
vt 0.2732 0.5405
vt 0.3053 0.3761
vt 0.2891 0.53109998
vt 0.2835 0.45739996
vt 0.2929 0.5251
vt 0.5615 0.68620002
vt 0.5707 0.6871
vt 0.5803 0.6641
vt 0.2852 0.4925
vt 0.5776 0.2903
vt 0.5413 0.2809
vt 0.5403 0.28610003
vt 0.574 0.2952
vt 0.3115 0.56010002
vt 0.7115 0.46309996
vt 0.6889 0.435
vt 0.6871 0.44120002
vt 0.708 0.46920002
vt 0.7046 0.5696
vt 0.5907 0.6484
vt 0.5992 0.6411
vt 0.5979 0.6393
vt 0.5883 0.647
vt 0.3166 0.39090002
vt 0.2984 0.42540002
vt 0.3518 0.3624
vt 0.3177 0.3979
vt 0.3482 0.3728
vt 0.3134 0.5538
vt 0.3735 0.3584
vt 0.6891 0.42400002
vt 0.6704 0.4123
vt 0.6672 0.417
vt 0.6355 0.37259996
vt 0.6268 0.3456
vt 0.6204 0.3451
vt 0.6308 0.37230003
vt 0.3353 0.5736
vt 0.395 0.35650003
vt 0.3748 0.3639
vt 0.4009 0.35389996
vt 0.6086 0.6329
vt 0.3927 0.3603
vt 0.4589 0.71469998
vt 0.4945 0.718
vt 0.6428 0.39960003
vt 0.6384 0.3905
vt 0.6353 0.39100003
vt 0.6409 0.4012
vt 0.3512 0.58499998
vt 0.359 0.59420002
vt 0.3646 0.6046
vt 0.4021 0.3556
vt 0.3647 0.6232
vt 0.3733 0.6508
vt 0.3799 0.6513
vt 0.3695 0.6236
vt 0.6496 0.40970004
vt 0.4054 0.3491
vt 0.4098 0.34819996
vt 0.4145 0.3291
vt 0.4194 0.3323
vt 0.3338 0.57819998
vt 0.3496 0.58780003
vt 0.4262 0.30910003
vt 0.7095 0.5733
vt 0.7186 0.53710002
vt 0.4573 0.27180004
vt 0.4376 0.3097
vt 0.4667 0.2873
vt 0.6084 0.31410003
vt 0.6014 0.3153
vt 0.6657 0.42159998
vt 0.504 0.2765
vt 0.4728 0.291
vt 0.5056 0.2824
vt 0.6286 0.6276
vt 0.4439 0.3117
vt 0.424 0.3337
vt 0.5316 0.708
vt 0.5562 0.6846
vt 0.6443 0.3984
vt 0.6501 0.4019
vt 0.6833 0.37310004
vt 0.6412 0.37150002
vt 0.6372 0.3495
vt 0.6513 0.40670002
vt 0.3504 0.59219998
vt 0.3569 0.5956
vt 0.3614 0.60509998
vt 0.3746 0.3686
vt 0.3932 0.3635
vt 0.4127 0.3499
vt 0.3576 0.6027
vt 0.54 0.7227
vt 0.3477 0.37919998
vt 0.3779 0.69410002
vt 0.3925 0.6824
vt 0.4239 0.70520002
vt 0.3996 0.681
vt 0.4274 0.7004
vt 0.5764 0.6628
vt 0.6299 0.63120002
vt 0.5942 0.6476
vt 0.6092 0.6357
vt 0.6071 0.63880002
vt 0.6773 0.62550002
vt 0.697 0.6197
vt 0.4036 0.3577
vt 0.7227 0.49989998
vt 0.2888 0.4584
vt 0.727 0.4536
vt 0.6421 0.39279997
vt 0.6229 0.30289996
vt 0.4046 0.051
vt 0.2408 0.11839998
vt 0.3999 0.027400017
vt 0.2273 0.0988
vt 0.3947 0.000100016594
vt 0.2118 0.075999975
vt 0.585 0.051800013
vt 0.5894 0.028100014
vt 0.5947 0.00069999695
vt 0.9053 0.7626
vt 0.7763 0.89920002
vt 0.792 0.922200024
vt 0.9289 0.77749997
vt 0.8848 0.75
vt 0.7626 0.87949997
vt 0.7653 0.09649998
vt 0.8998 0.2245
vt 0.9225 0.20899999
vt 0.7802 0.07319999
vt 0.7527 0.11669999
vt 0.8803 0.23790002
vt 0.1188 0.75880003
vt 0.2477 0.881799996
vt 0.099 0.77240002
vt 0.2349 0.90219998
vt 0.0758 0.78799999
vt 0.2198 0.925800025
vt 0.6028 0.9709
vt 0.4125 0.970799983
vt 0.4072 0.9983999729
vt 0.6081 0.9983999729
vt 0.5982 0.947300017
vt 0.4169 0.94690001
vt 0.1193 0.24599999
vt 0.0992 0.23329997
vt 0.076 0.21829998
vt 0.9724 0.5848
vt 0.9999 0.5898
vt 0.9486 0.5805
vt 0.0537 0.41289997
vt 0.03 0.4084
vt 0.0027 0.40289998
vt 0.9712 0.3958
vt 0.9984 0.3905
vt 0.9478 0.4005
vt 0.0513 0.59359998
vt 0.0276 0.5981
vt 0.0001 0.60320002
vn 0.4555 0.1001 -0.8846
vn 0.4044 0.1846 -0.8957
vn 0.6965 0.1725 -0.6965
vn 0.7023 0.1167 -0.7023
vn 0.6965 0.1725 0.6965
vn 0.7023 0.1167 0.7023
vn 0.8824 0.0922 0.4613
vn 0.8992 0.1671 0.4042
vn 0.9885 0.0449 -0.1444
vn 0.9636 0.1921 -0.1857
vn -0.8172 0.0367 -0.5752
vn -0.9883 0.0593 -0.1406
vn -0.9636 0.1921 -0.1857
vn -0.7392 0.2388 -0.6297
vn 0.5777 0.0329 0.8156
vn 0.1444 0.0449 0.9885
vn 0.1074 0.2045 0.9729
vn -0.4613 0.0922 0.8824
vn -0.6646 0.2547 -0.7024
vn -0.7526 0.0293 -0.6578
vn -0.8079 0.2403 0.5379
vn -0.6646 0.2547 0.7024
vn -0.7526 0.0293 0.6578
vn -0.8614 0.0292 0.507
vn 0.8614 0.0292 0.507
vn 0.8079 0.2403 0.5379
vn 0.9712 0.2383 0
vn 0.9995 0.031 0
vn 0.808 0.2403 -0.5379
vn 0.8614 0.0292 -0.507
vn -0.7392 0.2388 0.6297
vn -0.8156 0.0329 0.5777
vn 0.5015 0.0222 -0.8649
vn 0.6578 0.0293 -0.7526
vn 0.6995 0.2078 -0.6837
vn 0.5363 0.1962 -0.8209
vn -0.9885 0.0449 0.1444
vn -0.9636 0.1921 0.1857
vn 0.5921 0.3469 -0.7273
vn 0.4359 0.4462 -0.7816
vn 0.5777 0.0329 -0.8156
vn -0.5015 0.0222 0.8649
vn 0 0.011 0.9999
vn 0 0.1074 0.9942
vn 0.5015 0.0222 0.8649
vn -0.2938 0.3132 0.9031
vn 0.2977 0.3104 0.9028
vn -0.9038 0.305 -0.3
vn -0.9974 0.072 0
vn -0.9105 0.0667 0.4081
vn -0.5374 0.842 0.0468
vn -0.6578 0.0293 -0.7526
vn -0.5921 0.3469 -0.7273
vn -0.3862 0.3017 -0.8716
vn -0.5015 0.0222 -0.8649
vn -0.129 0.9265 0.3536
vn -0.6169 0.3042 0.7258
vn -0.5777 0.0329 -0.8156
vn -0.4359 0.4462 -0.7816
vn 0 0.8284 0.5601
vn 0.1269 0.9251 0.3578
vn 0.1269 0.9251 -0.3578
vn 0.0666 0.917 -0.3932
vn 0.3862 0.3017 -0.8716
vn 0.4359 0.4462 0.7816
vn 0.5921 0.3469 0.7273
vn 0.0666 0.917 0.3932
vn -0.3423 0.6014 0.7219
vn 0.7392 0.2388 0.6297
vn 0.6646 0.2547 0.7024
vn 0.7526 0.0293 0.6578
vn 0.8172 0.0367 0.5752
vn -0.0945 0.991 0.0945
vn -0.53 0.662 0.53
vn -0.7253 0.5972 0.3423
vn -0.3932 0.917 -0.0666
vn -0.7409 0.6147 -0.2705
vn -0.8824 0.0922 -0.4613
vn -0.7023 0.1167 -0.7023
vn -0.53 0.662 -0.53
vn 0.9636 0.1921 0.1857
vn 0.9883 0.0593 0.1406
vn 0.8846 0.1001 -0.4555
vn 0.8992 0.1671 -0.4042
vn -0.8846 0.1001 0.4555
vn -0.9806 0.1804 -0.0766
vn -0.7828 0.4445 -0.4354
vn 0.6578 0.0293 0.7526
vn 0.8036 0.5294 -0.272
vn 0.7483 0.3364 -0.5716
vn 0.7526 0.0293 -0.6578
vn 0.8156 0.0329 -0.5777
vn -0.7273 0.3469 -0.5921
vn 0.6203 0.1879 -0.7615
vn -0.3578 0.9251 -0.1269
vn 0.6646 0.2547 -0.7024
vn 0.9038 0.305 0.3
vn 0.7273 0.3469 0.5921
vn -0.5366 0.1987 -0.8201
vn 0 0.011 -0.9999
vn 0 0.1945 -0.9809
vn -0.9995 0.031 0
vn -0.8614 0.0292 -0.507
vn -0.6297 0.2388 0.7392
vn -0.5777 0.0329 0.8156
vn -0.1444 0.0449 0.9885
vn -0.1857 0.1921 0.9636
vn 0 0.2383 0.9712
vn -0.5379 0.2403 0.808
vn -0.6996 0.2153 -0.6813
vn -0.6397 0.2305 -0.7332
vn -0.6578 0.0293 0.7526
vn 0.9105 0.0667 -0.4081
vn 0.5374 0.842 -0.0468
vn 0.9974 0.072 0
vn -0.7483 0.3364 0.5716
vn -0.2667 0.9622 0.0542
vn -0.4052 0.912 0.0635
vn -0.8036 0.5294 0.272
vn -0.9614 0.2484 0.1182
vn 0.7392 0.2388 -0.6297
vn 0.1807 0.1483 -0.9723
vn 0.1444 0.0449 -0.9885
vn -0.4613 0.0922 -0.8824
vn -0.4004 0.1456 -0.9047
vn -0.7023 0.1167 0.7023
vn -0.6965 0.1725 0.6965
vn -0.8992 0.1671 0.4042
vn 0.0945 0.991 -0.0945
vn 0.53 0.662 -0.53
vn 0.7253 0.5972 -0.3423
vn 0.3932 0.917 0.0666
vn -0.0945 0.991 -0.0945
vn -0.1379 0.0557 -0.9889
vn -0.2093 0.226 -0.9514
vn 0.4042 0.1671 0.8992
vn 0.4613 0.0922 0.8824
vn 0.0945 0.991 0.0945
vn 0.53 0.662 0.53
vn 0.3423 0.6014 0.7219
vn -0.043 0.9231 0.3821
vn 0.3578 0.9251 0.1269
vn -0.3423 0.6014 -0.7219
vn 0.7024 0.2547 0.6646
vn 0.6297 0.2388 0.7392
vn 0.5379 0.2403 0.8079
vn -0.9712 0.2383 0
vn 0 0.108 -0.9941
vn -0.4305 0.4421 0.7869
vn 0 0.8274 -0.5616
vn -0.1269 0.9251 -0.3578
vn -0.0664 0.1876 -0.98
vn -0.0666 0.917 -0.3932
vn 0.3423 0.5972 -0.7253
vn -0.4042 0.1671 0.8992
vn -0.6957 0.1693 -0.6981
vn 0.1857 0.1921 0.9636
vn -0.8079 0.2403 -0.5379
vn 0.7828 0.4445 0.4354
vn -0.7024 0.2547 0.6646
vn -0.8992 0.1675 -0.4041
vn -0.1074 0.2045 0.9729
vn 0.9614 0.2484 -0.1182
vn 0.7409 0.6147 0.2705
vn 0.4052 0.912 -0.0635
vn 0.2667 0.9622 -0.0542
vn 0 1 0
vn 0.9806 0.1804 0.0766
vn 0.1074 0.2045 -0.9729
vn 0.4854 0.7272 -0.4854
vn 0.6416 0.7395 -0.2035
vn 0.3813 0.0853 -0.9205
vn 0.3455 0.4299 -0.8341
vn 0 0.4299 -0.9028
vn 0 0.0853 -0.9963
vn -0.3813 0.0853 0.9205
vn -0.3455 0.4299 0.8341
vn 0 0.4299 0.9028
vn 0 0.0853 0.9963
vn 0.9205 0.0853 -0.3813
vn 0.9963 0.0853 0
vn 0.9028 0.4299 0
vn 0.8341 0.4299 -0.3455
vn -0.9205 0.0853 0.3813
vn -0.8341 0.4299 0.3455
vn -0.6384 0.4299 0.6384
vn -0.7045 0.0853 0.7045
vn 0.3813 0.0853 0.9205
vn 0.3455 0.4299 0.8341
vn 0.7045 0.0853 0.7045
vn 0.6384 0.4299 0.6384
vn 0 0.707 0.7072
vn 0.2706 0.707 0.6534
vn 0.6384 0.4299 -0.6384
vn 0.5 0.707 -0.5
vn 0.2706 0.707 -0.6534
vn -0.6384 0.4299 -0.6384
vn -0.5 0.707 -0.5
vn -0.6534 0.707 -0.2706
vn -0.8341 0.4299 -0.3455
vn 0.9205 0.0853 0.3813
vn 0.8341 0.4299 0.3455
vn 0.7072 0.707 0
vn 0.6534 0.707 -0.2706
vn -0.4899 0.7171 -0.4957
vn -0.218 0.679 -0.701
vn 0.5 0.707 0.5
vn 0.5468 0.8372 0
vn 0.5033 0.8383 -0.2098
vn -0.2706 0.707 0.6534
vn -0.7072 0.707 0
vn -0.4913 0.8466 -0.2046
vn -0.5557 0.8314 0
vn 0.7045 0.0853 -0.7045
vn -0.3455 0.4299 -0.8341
vn -0.2706 0.707 -0.6534
vn 0.2132 0.839 0.5007
vn 0.3506 0.8686 0.3499
vn -0.3813 0.0853 -0.9205
vn -0.7045 0.0853 -0.7045
vn 0 0.707 -0.7072
vn -0.2073 0.8337 0.5117
vn 0.0004 0.8369 0.5473
vn -0.5 0.707 0.5
vn -0.6534 0.707 0.2706
vn -0.4913 0.8466 0.2046
vn -0.3493 0.8695 0.3493
vn 0.0186 0.9998 -0.0009
vn 0.2607 0.9543 -0.1462
vn 0.3968 0.9179 0
vn 0.2607 0.9543 0.1462
vn 0 0.9839 -0.1785
vn 0.1651 0.9578 0.2354
vn -0.0016 0.919 0.3941
vn -0.1855 0.9563 0.2258
vn -0.9205 0.0853 -0.3813
vn -0.9028 0.4299 0
vn -0.9963 0.0853 0
vn 0.6534 0.707 0.2706
vn -0.2087 0.8379 -0.5043
vn -0.3493 0.8695 -0.3493
vn 0.2057 0.8469 -0.4903
vn -0.0024 0.8343 -0.5513
vn 0.4996 0.8396 0.2131
vn 0.3488 0.8699 -0.3488
vn -0.3506 0.9308 0.1036
vn -0.2952 0.9475 0.1225
vn -0.3244 0.7978 -0.5082
vn -0.5945 0.7245 -0.3486
vn 0.333 0.9244 0.1857
vn 0.2921 0.6508 -0.7007
vn 0.045 0.9903 -0.1315
vn 0.0017 0.9173 -0.3981
vn 0.3257 0.9261 -0.1901
vn 0.1325 0.9901 -0.0454
vn 0.3709 0.889 -0.2684
vn 0.2511 0.8927 -0.3742
vn 0.109 0.9459 -0.3057
vn 0.0085 0.9999 -0.0085
vn -0.5745 0.7543 -0.3175
vn 0.3798 0.9197 0.0994
vn 0.2022 0.9255 0.3203
vn 0.3789 0.9254 -0.0078
vn -0.6408 0.74 0.2043
vn 0.0081 0.9933 -0.1149
vn -0.0085 0.9999 -0.0085
vn 0.4854 0.7271 0.4854
vn 0.6408 0.74 0.2044
vn 0.1226 0.9274 -0.3533
vn -0.11 0.9467 0.3026
vn -0.1304 0.9262 0.3536
vn 0.3224 0.7446 0.5845
vn 0.5766 0.7537 0.3153
vn 0.2065 0.7683 -0.6058
vn 0.3368 0.9238 -0.1819
vn 0 0.8924 -0.4512
vn 0 0.6515 -0.7586
vn 0.4841 0.6523 -0.5832
vn 0.3052 0.946 -0.1092
vn -0.2035 0.7395 0.6416
vn 0.1921 0.9212 -0.3383
vn 0.3153 0.7537 0.5766
vn 0.3533 0.9274 -0.1226
vn -0.3224 0.7446 -0.5845
vn 0.1462 0.9543 -0.2607
vn -0.3385 0.9209 0.1933
vn -0.2612 0.9518 0.1607
vn -0.0576 0.9417 0.3313
vn -0.0576 0.9417 -0.3313
vn -0.1304 0.9262 -0.3536
vn 0.3224 0.7446 -0.5845
vn 0.3176 0.7431 -0.589
vn -0.3176 0.7431 -0.589
vn 0.0763 0.983 -0.1669
vn 0.3313 0.9417 -0.0576
vn -0.0009 0.9998 -0.0186
vn -0.4827 0.6599 -0.5757
vn 0.289 0.9518 0.1023
vn 0.0072 1 0.0026
vn 0.109 0.994 0.0084
vn 0.2741 0.9617 0.0002
vn 0.1022 0.9518 -0.289
vn 0.5179 0.7219 -0.4588
vn 0.6912 0.7226 0
vn -0.5179 0.7219 -0.4588
vn -0.6912 0.7226 0
vn -0.5179 0.7219 0.4588
vn -0.0002 0.9617 0.2741
vn 0.0576 0.9417 0.3313
vn 0.1527 0.9282 0.3391
vn -0.3224 0.7446 0.5845
vn -0.3176 0.7431 0.589
vn 0.5179 0.7219 0.4588
vn -0.0764 0.9833 -0.1653
vn -0.2889 0.9519 0.1023
vn -0.1462 0.9543 -0.2607
vn -0.3313 0.9417 -0.0576
vn 0.0576 0.9417 -0.3313
vn -0.1023 0.9518 -0.2889
vn -0.1901 0.9261 -0.3257
vn -0.1093 0.994 0.0094
vn -0.0085 0.9999 0.0085
vn -0.2455 0.9012 -0.3571
vn -0.3533 0.9274 -0.1226
vn -0.3057 0.9459 -0.109
vn -0.1099 0.9466 -0.303
vn 0.5745 0.7544 -0.3175
vn 0.3176 0.7431 0.589
vn -0.1149 0.9933 0.0081
vn -0.3175 0.7544 0.5745
vn 0.2044 0.74 0.6408
vn -0.6179 0.6929 -0.3715
vn -0.5845 0.7446 0.3224
vn -0.589 0.7431 0.3176
vn 0.3186 0.9473 0.0342
vn 0.6117 0.6706 -0.4195
vn -0.0121 0.9999 -0.0066
vn -0.0953 0.9884 0.1181
vn -0.4006 0.9162 -0.0003
vn -0.2604 0.953 -0.1547
vn -0.3385 0.9209 -0.1933
vn 0.1023 0.9519 0.2889
vn 0.1653 0.9833 -0.0763
vn -0.2741 0.9617 -0.0002
vn -0.1023 0.9518 0.289
vn 0.589 0.7431 0.3176
vn 0.4588 0.7219 0.5179
vn -0.4588 0.7219 0.5179
vn 0.1669 0.983 0.0763
vn 0.2752 0.8903 0.3627
vn 0.5845 0.7446 0.3224
vn 0.3655 0.8903 0.2715
vn 0.1098 0.9466 0.303
vn 0.0449 0.9904 0.1309
vn -0.5745 0.7543 0.3175
vn -0.6412 0.7394 -0.2051
vn 0.6255 0.6771 -0.3877
vn -0.3925 0.9196 0.015
vn 0.1166 0.9905 0.0729
vn -0.3357 0.9252 -0.1769
vn -0.1165 0.9905 0.0728
vn -0.2204 0.9128 0.3438
vn -0.2727 0.8875 0.3713
vn 0 0.7226 0.6912
vn 0.0077 0.9932 0.116
vn -0.4854 0.7271 0.4854
vn -0.3592 0.9051 0.2276
vn -0.1669 0.983 -0.0764
vn -0.3592 0.9051 -0.2276
vn -0.3589 -0.3472 -0.8664
vn 0 -0.3472 -0.9378
vn -0.2183 -0.8213 -0.527
vn 0 -0.8213 -0.5705
vn -0.1006 -0.9648 -0.2428
vn 0 -0.9648 -0.2628
vn -0.6631 -0.3472 -0.6631
vn -0.4034 -0.8213 -0.4034
vn -0.1858 -0.9648 -0.1858
vn -0.2183 -0.8213 0.527
vn 0 -0.8213 0.5705
vn 0 -0.9648 0.2628
vn -0.1006 -0.9648 0.2428
vn -0.3589 -0.3472 0.8664
vn 0 -0.3472 0.9378
vn -0.527 -0.8213 -0.2183
vn -0.5705 -0.8213 0
vn -0.2628 -0.9648 0
vn -0.2428 -0.9648 -0.1006
vn -0.8664 -0.3472 -0.3589
vn -0.9378 -0.3472 0
vn 0.9378 -0.3472 0
vn 0.8664 -0.3472 0.3589
vn 0.5705 -0.8213 0
vn 0.527 -0.8213 0.2183
vn 0.2628 -0.9648 0
vn 0.2428 -0.9648 0.1006
vn 0.2183 -0.8213 0.527
vn 0.4034 -0.8213 0.4034
vn 0.1858 -0.9648 0.1858
vn 0.1006 -0.9648 0.2428
vn 0.3589 -0.3472 0.8664
vn 0.6631 -0.3472 0.6631
vn 0.3589 -0.3472 -0.8664
vn 0.2183 -0.8213 -0.527
vn 0.1006 -0.9648 -0.2428
vn -0.4034 -0.8213 0.4034
vn -0.1858 -0.9648 0.1858
vn -0.6631 -0.3472 0.6631
vn 0.6631 -0.3472 -0.6631
vn 0.4034 -0.8213 -0.4034
vn 0.1858 -0.9648 -0.1858
vn -0.527 -0.8213 0.2183
vn -0.2428 -0.9648 0.1006
vn -0.8664 -0.3472 0.3589
vn 0.8664 -0.3472 -0.3589
vn 0.527 -0.8213 -0.2183
vn 0.2428 -0.9648 -0.1006
f 373/373/373 375/375/375 374/374/374
f 372/372/372 373/373/373 374/374/374
f 372/372/372 374/374/374 378/378/378
f 373/373/373 404/404/404 375/375/375
f 404/404/404 405/405/405 375/375/375
f 377/377/377 372/372/372 378/378/378
f 378/378/378 388/388/388 377/377/377
f 404/404/404 410/410/410 405/405/405
f 410/410/410 411/411/411 405/405/405
f 388/388/388 385/385/385 377/377/377
f 388/388/388 387/387/387 385/385/385
f 410/410/410 416/416/416 411/411/411
f 416/416/416 417/417/417 411/411/411
f 387/387/387 386/386/386 385/385/385
f 387/387/387 413/413/413 386/386/386
f 416/416/416 393/393/393 417/417/417
f 393/393/393 395/395/395 417/417/417
f 413/413/413 412/412/412 386/386/386
f 413/413/413 407/407/407 412/412/412
f 393/393/393 394/394/394 395/395/395
f 394/394/394 396/396/396 395/395/395
f 407/407/407 406/406/406 412/412/412
f 407/407/407 382/382/382 406/406/406
f 394/394/394 398/398/398 396/396/396
f 398/398/398 399/399/399 396/396/396
f 382/382/382 379/379/379 406/406/406
f 382/382/382 381/381/381 379/379/379
f 399/399/399 398/398/398 397/397/397
f 400/400/400 399/399/399 397/397/397
f 381/381/381 400/400/400 380/380/380
f 400/400/400 397/397/397 380/380/380
f 381/381/381 380/380/380 379/379/379
f 397/397/397 398/398/398 401/401/401
f 380/380/380 397/397/397 384/384/384
f 397/397/397 401/401/401 384/384/384
f 379/379/379 380/380/380 383/383/383
f 380/380/380 384/384/384 383/383/383
f 406/406/406 379/379/379 408/408/408
f 379/379/379 383/383/383 408/408/408
f 412/412/412 406/406/406 414/414/414
f 406/406/406 408/408/408 414/414/414
f 383/383/383 384/384/384 176/176/176
f 412/412/412 414/414/414 390/390/390
f 386/386/386 412/412/412 390/390/390
f 408/408/408 383/383/383 187/187/187
f 383/383/383 176/176/176 187/187/187
f 414/414/414 408/408/408 184/184/184
f 408/408/408 187/187/187 184/184/184
f 390/390/390 414/414/414 238/238/238
f 414/414/414 184/184/184 238/238/238
f 386/386/386 390/390/390 389/389/389
f 385/385/385 386/386/386 389/389/389
f 390/390/390 238/238/238 236/236/236
f 389/389/389 390/390/390 236/236/236
f 385/385/385 389/389/389 376/376/376
f 377/377/377 385/385/385 376/376/376
f 389/389/389 236/236/236 220/220/220
f 376/376/376 389/389/389 220/220/220
f 376/376/376 370/370/370 377/377/377
f 370/370/370 372/372/372 377/377/377
f 220/220/220 219/219/219 376/376/376
f 219/219/219 370/370/370 376/376/376
f 370/370/370 371/371/371 372/372/372
f 371/371/371 373/373/373 372/372/372
f 219/219/219 175/175/175 370/370/370
f 175/175/175 371/371/371 370/370/370
f 371/371/371 403/403/403 373/373/373
f 403/403/403 404/404/404 373/373/373
f 175/175/175 172/172/172 371/371/371
f 172/172/172 403/403/403 371/371/371
f 403/403/403 409/409/409 404/404/404
f 409/409/409 410/410/410 404/404/404
f 172/172/172 214/214/214 403/403/403
f 214/214/214 409/409/409 403/403/403
f 409/409/409 415/415/415 410/410/410
f 415/415/415 416/416/416 410/410/410
f 214/214/214 180/180/180 409/409/409
f 180/180/180 415/415/415 409/409/409
f 415/415/415 391/391/391 416/416/416
f 391/391/391 393/393/393 416/416/416
f 180/180/180 181/181/181 415/415/415
f 181/181/181 391/391/391 415/415/415
f 391/391/391 392/392/392 393/393/393
f 392/392/392 394/394/394 393/393/393
f 181/181/181 201/201/201 391/391/391
f 201/201/201 392/392/392 391/391/391
f 392/392/392 402/402/402 394/394/394
f 402/402/402 398/398/398 394/394/394
f 398/398/398 402/402/402 401/401/401
f 201/201/201 190/190/190 392/392/392
f 190/190/190 402/402/402 392/392/392
f 401/401/401 402/402/402 188/188/188
f 402/402/402 190/190/190 188/188/188
f 401/401/401 188/188/188 179/179/179
f 384/384/384 401/401/401 179/179/179
f 384/384/384 179/179/179 176/176/176
f 178/178/178 179/179/179 188/188/188
f 179/179/179 178/178/178 176/176/176
f 189/189/189 188/188/188 190/190/190
f 189/189/189 178/178/178 188/188/188
f 191/191/191 190/190/190 201/201/201
f 191/191/191 189/189/189 190/190/190
f 178/178/178 177/177/177 176/176/176
f 176/176/176 177/177/177 187/187/187
f 202/202/202 191/191/191 201/201/201
f 202/202/202 201/201/201 181/181/181
f 177/177/177 186/186/186 187/187/187
f 187/187/187 186/186/186 184/184/184
f 182/182/182 202/202/202 181/181/181
f 182/182/182 181/181/181 180/180/180
f 186/186/186 185/185/185 184/184/184
f 184/184/184 185/185/185 238/238/238
f 177/177/177 210/210/210 186/186/186
f 210/210/210 177/177/177 178/178/178
f 186/186/186 224/224/224 185/185/185
f 210/210/210 224/224/224 186/186/186
f 185/185/185 237/237/237 238/238/238
f 238/238/238 237/237/237 236/236/236
f 224/224/224 225/225/225 185/185/185
f 185/185/185 225/225/225 237/237/237
f 237/237/237 200/200/200 236/236/236
f 236/236/236 200/200/200 220/220/220
f 225/225/225 211/211/211 237/237/237
f 237/237/237 211/211/211 200/200/200
f 226/226/226 225/225/225 224/224/224
f 225/225/225 226/226/226 211/211/211
f 200/200/200 197/197/197 220/220/220
f 220/220/220 197/197/197 219/219/219
f 211/211/211 199/199/199 200/200/200
f 200/200/200 199/199/199 197/197/197
f 197/197/197 215/215/215 219/219/219
f 219/219/219 215/215/215 175/175/175
f 199/199/199 198/198/198 197/197/197
f 197/197/197 198/198/198 215/215/215
f 215/215/215 174/174/174 175/175/175
f 175/175/175 174/174/174 172/172/172
f 198/198/198 216/216/216 215/215/215
f 215/215/215 216/216/216 174/174/174
f 174/174/174 173/173/173 172/172/172
f 172/172/172 173/173/173 214/214/214
f 216/216/216 221/221/221 174/174/174
f 174/174/174 221/221/221 173/173/173
f 240/240/240 216/216/216 198/198/198
f 173/173/173 194/194/194 214/214/214
f 214/214/214 194/194/194 180/180/180
f 243/243/243 221/221/221 216/216/216
f 240/240/240 243/243/243 216/216/216
f 194/194/194 183/183/183 180/180/180
f 183/183/183 182/182/182 180/180/180
f 221/221/221 196/196/196 173/173/173
f 203/203/203 182/182/182 183/183/183
f 182/182/182 203/203/203 202/202/202
f 196/196/196 195/195/195 173/173/173
f 195/195/195 194/194/194 173/173/173
f 242/242/242 196/196/196 221/221/221
f 196/196/196 242/242/242 195/195/195
f 243/243/243 242/242/242 221/221/221
f 204/204/204 183/183/183 194/194/194
f 195/195/195 204/204/204 194/194/194
f 204/204/204 203/203/203 183/183/183
f 242/242/242 245/245/245 195/195/195
f 195/195/195 245/245/245 204/204/204
f 203/203/203 239/239/239 202/202/202
f 202/202/202 239/239/239 191/191/191
f 208/208/208 203/203/203 204/204/204
f 239/239/239 207/207/207 191/191/191
f 191/191/191 207/207/207 189/189/189
f 244/244/244 239/239/239 203/203/203
f 239/239/239 244/244/244 207/207/207
f 208/208/208 244/244/244 203/203/203
f 207/207/207 193/193/193 189/189/189
f 209/209/209 208/208/208 204/204/204
f 245/245/245 209/209/209 204/204/204
f 193/193/193 192/192/192 189/189/189
f 192/192/192 178/178/178 189/189/189
f 192/192/192 210/210/210 178/178/178
f 207/207/207 218/218/218 193/193/193
f 244/244/244 218/218/218 207/207/207
f 193/193/193 217/217/217 192/192/192
f 218/218/218 217/217/217 193/193/193
f 222/222/222 210/210/210 192/192/192
f 217/217/217 223/223/223 192/192/192
f 223/223/223 222/222/222 192/192/192
f 222/222/222 227/227/227 210/210/210
f 227/227/227 224/224/224 210/210/210
f 227/227/227 226/226/226 224/224/224
f 362/362/362 222/222/222 223/223/223
f 363/363/363 227/227/227 222/222/222
f 222/222/222 362/362/362 363/363/363
f 217/217/217 262/262/262 223/223/223
f 321/321/321 227/227/227 363/363/363
f 262/262/262 234/234/234 223/223/223
f 234/234/234 362/362/362 223/223/223
f 247/247/247 321/321/321 363/363/363
f 247/247/247 363/363/363 362/362/362
f 321/321/321 322/322/322 227/227/227
f 274/274/274 321/321/321 247/247/247
f 322/322/322 321/321/321 274/274/274
f 246/246/246 247/247/247 362/362/362
f 322/322/322 365/365/365 227/227/227
f 248/248/248 247/247/247 246/246/246
f 248/248/248 274/274/274 247/247/247
f 227/227/227 365/365/365 367/367/367
f 226/226/226 227/227/227 367/367/367
f 170/170/170 322/322/322 274/274/274
f 171/171/171 365/365/365 322/322/322
f 170/170/170 171/171/171 322/322/322
f 365/365/365 270/270/270 367/367/367
f 365/365/365 171/171/171 270/270/270
f 3/3/3 170/170/170 274/274/274
f 171/171/171 170/170/170 3/3/3
f 2/2/2 274/274/274 248/248/248
f 2/2/2 3/3/3 274/274/274
f 249/249/249 248/248/248 246/246/246
f 135/135/135 2/2/2 248/248/248
f 135/135/135 248/248/248 249/249/249
f 3/3/3 2/2/2 1/1/1
f 2/2/2 135/135/135 1/1/1
f 249/249/249 246/246/246 358/358/358
f 358/358/358 246/246/246 362/362/362
f 111/111/111 135/135/135 249/249/249
f 235/235/235 358/358/358 362/362/362
f 234/234/234 235/235/235 362/362/362
f 332/332/332 249/249/249 358/358/358
f 111/111/111 249/249/249 332/332/332
f 358/358/358 235/235/235 361/361/361
f 332/332/332 358/358/358 360/360/360
f 360/360/360 358/358/358 361/361/361
f 235/235/235 234/234/234 232/232/232
f 361/361/361 235/235/235 232/232/232
f 276/276/276 360/360/360 361/361/361
f 232/232/232 276/276/276 361/361/361
f 297/297/297 332/332/332 360/360/360
f 297/297/297 360/360/360 276/276/276
f 234/234/234 233/233/233 232/232/232
f 233/233/233 234/234/234 262/262/262
f 276/276/276 232/232/232 359/359/359
f 359/359/359 232/232/232 233/233/233
f 275/275/275 276/276/276 359/359/359
f 275/275/275 359/359/359 233/233/233
f 277/277/277 297/297/297 276/276/276
f 277/277/277 276/276/276 275/275/275
f 110/110/110 332/332/332 297/297/297
f 110/110/110 111/111/111 332/332/332
f 99/99/99 297/297/297 277/277/277
f 99/99/99 110/110/110 297/297/297
f 278/278/278 277/277/277 275/275/275
f 263/263/263 275/275/275 233/233/233
f 278/278/278 275/275/275 263/263/263
f 233/233/233 262/262/262 261/261/261
f 263/263/263 233/233/233 261/261/261
f 101/101/101 277/277/277 278/278/278
f 101/101/101 99/99/99 277/277/277
f 357/357/357 278/278/278 263/263/263
f 357/357/357 263/263/263 261/261/261
f 36/36/36 101/101/101 278/278/278
f 36/36/36 278/278/278 357/357/357
f 261/261/261 262/262/262 350/350/350
f 262/262/262 217/217/217 350/350/350
f 336/336/336 357/357/357 261/261/261
f 300/300/300 350/350/350 217/217/217
f 218/218/218 300/300/300 217/217/217
f 335/335/335 261/261/261 350/350/350
f 300/300/300 335/335/335 350/350/350
f 336/336/336 261/261/261 335/335/335
f 299/299/299 300/300/300 218/218/218
f 300/300/300 206/206/206 335/335/335
f 206/206/206 300/300/300 299/299/299
f 251/251/251 336/336/336 335/335/335
f 206/206/206 251/251/251 335/335/335
f 35/35/35 357/357/357 336/336/336
f 35/35/35 36/36/36 357/357/357
f 94/94/94 336/336/336 251/251/251
f 94/94/94 35/35/35 336/336/336
f 122/122/122 251/251/251 206/206/206
f 122/122/122 94/94/94 251/251/251
f 100/100/100 101/101/101 36/36/36
f 101/101/101 100/100/100 99/99/99
f 36/36/36 35/35/35 33/33/33
f 33/33/33 100/100/100 36/36/36
f 34/34/34 35/35/35 94/94/94
f 35/35/35 34/34/34 33/33/33
f 100/100/100 55/55/55 99/99/99
f 100/100/100 33/33/33 148/148/148
f 100/100/100 148/148/148 55/55/55
f 55/55/55 52/52/52 99/99/99
f 52/52/52 110/110/110 99/99/99
f 111/111/111 110/110/110 52/52/52
f 148/148/148 54/54/54 55/55/55
f 55/55/55 54/54/54 52/52/52
f 33/33/33 64/64/64 148/148/148
f 58/58/58 111/111/111 52/52/52
f 64/64/64 150/150/150 148/148/148
f 150/150/150 54/54/54 148/148/148
f 39/39/39 64/64/64 33/33/33
f 34/34/34 39/39/39 33/33/33
f 150/150/150 64/64/64 62/62/62
f 64/64/64 39/39/39 62/62/62
f 54/54/54 150/150/150 151/151/151
f 150/150/150 62/62/62 151/151/151
f 54/54/54 53/53/53 52/52/52
f 39/39/39 63/63/63 62/62/62
f 53/53/53 59/59/59 52/52/52
f 59/59/59 58/58/58 52/52/52
f 153/153/153 53/53/53 54/54/54
f 59/59/59 53/53/53 153/153/153
f 151/151/151 153/153/153 54/54/54
f 58/58/58 59/59/59 152/152/152
f 111/111/111 58/58/58 134/134/134
f 134/134/134 58/58/58 152/152/152
f 135/135/135 111/111/111 134/134/134
f 135/135/135 134/134/134 1/1/1
f 152/152/152 59/59/59 154/154/154
f 134/134/134 152/152/152 154/154/154
f 1/1/1 134/134/134 154/154/154
f 59/59/59 153/153/153 154/154/154
f 4/4/4 1/1/1 154/154/154
f 4/4/4 3/3/3 1/1/1
f 130/130/130 154/154/154 153/153/153
f 130/130/130 4/4/4 154/154/154
f 153/153/153 151/151/151 129/129/129
f 129/129/129 130/130/130 153/153/153
f 3/3/3 4/4/4 83/83/83
f 130/130/130 131/131/131 4/4/4
f 131/131/131 83/83/83 4/4/4
f 131/131/131 130/130/130 129/129/129
f 84/84/84 3/3/3 83/83/83
f 84/84/84 171/171/171 3/3/3
f 84/84/84 83/83/83 81/81/81
f 84/84/84 81/81/81 171/171/171
f 82/82/82 83/83/83 131/131/131
f 83/83/83 82/82/82 81/81/81
f 81/81/81 273/273/273 171/171/171
f 171/171/171 273/273/273 270/270/270
f 81/81/81 69/69/69 273/273/273
f 81/81/81 82/82/82 69/69/69
f 273/273/273 272/272/272 270/270/270
f 69/69/69 272/272/272 273/273/273
f 168/168/168 82/82/82 131/131/131
f 272/272/272 271/271/271 270/270/270
f 168/168/168 131/131/131 159/159/159
f 82/82/82 168/168/168 159/159/159
f 270/270/270 271/271/271 367/367/367
f 72/72/72 82/82/82 159/159/159
f 82/82/82 72/72/72 69/69/69
f 131/131/131 132/132/132 159/159/159
f 132/132/132 131/131/131 129/129/129
f 159/159/159 98/98/98 72/72/72
f 98/98/98 159/159/159 132/132/132
f 72/72/72 71/71/71 69/69/69
f 98/98/98 71/71/71 72/72/72
f 69/69/69 70/70/70 272/272/272
f 71/71/71 70/70/70 69/69/69
f 98/98/98 132/132/132 97/97/97
f 98/98/98 97/97/97 71/71/71
f 132/132/132 129/129/129 142/142/142
f 132/132/132 142/142/142 97/97/97
f 70/70/70 328/328/328 272/272/272
f 272/272/272 328/328/328 271/271/271
f 26/26/26 70/70/70 71/71/71
f 70/70/70 26/26/26 328/328/328
f 97/97/97 25/25/25 71/71/71
f 25/25/25 26/26/26 71/71/71
f 328/328/328 288/288/288 271/271/271
f 27/27/27 26/26/26 25/25/25
f 288/288/288 287/287/287 271/271/271
f 28/28/28 27/27/27 25/25/25
f 25/25/25 97/97/97 28/28/28
f 287/287/287 286/286/286 271/271/271
f 271/271/271 286/286/286 367/367/367
f 287/287/287 288/288/288 338/338/338
f 367/367/367 286/286/286 339/339/339
f 287/287/287 339/339/339 286/286/286
f 287/287/287 338/338/338 339/339/339
f 226/226/226 367/367/367 339/339/339
f 288/288/288 342/342/342 338/338/338
f 342/342/342 288/288/288 328/328/328
f 226/226/226 339/339/339 213/213/213
f 226/226/226 213/213/213 211/211/211
f 313/313/313 342/342/342 328/328/328
f 26/26/26 313/313/313 328/328/328
f 213/213/213 212/212/212 211/211/211
f 213/213/213 339/339/339 212/212/212
f 212/212/212 199/199/199 211/211/211
f 304/304/304 313/313/313 26/26/26
f 27/27/27 304/304/304 26/26/26
f 301/301/301 342/342/342 313/313/313
f 304/304/304 301/301/301 313/313/313
f 342/342/342 301/301/301 338/338/338
f 27/27/27 29/29/29 304/304/304
f 27/27/27 28/28/28 29/29/29
f 304/304/304 303/303/303 301/301/301
f 29/29/29 303/303/303 304/304/304
f 301/301/301 337/337/337 338/338/338
f 339/339/339 338/338/338 337/337/337
f 303/303/303 302/302/302 301/301/301
f 301/301/301 302/302/302 337/337/337
f 29/29/29 96/96/96 303/303/303
f 302/302/302 368/368/368 337/337/337
f 96/96/96 292/292/292 303/303/303
f 303/303/303 292/292/292 302/302/302
f 368/368/368 340/340/340 337/337/337
f 340/340/340 339/339/339 337/337/337
f 302/302/302 289/289/289 368/368/368
f 289/289/289 340/340/340 368/368/368
f 292/292/292 289/289/289 302/302/302
f 339/339/339 340/340/340 341/341/341
f 341/341/341 340/340/340 289/289/289
f 341/341/341 369/369/369 339/339/339
f 369/369/369 212/212/212 339/339/339
f 290/290/290 341/341/341 289/289/289
f 341/341/341 290/290/290 369/369/369
f 292/292/292 291/291/291 289/289/289
f 291/291/291 290/290/290 289/289/289
f 96/96/96 121/121/121 292/292/292
f 121/121/121 291/291/291 292/292/292
f 290/290/290 326/326/326 369/369/369
f 326/326/326 290/290/290 291/291/291
f 369/369/369 241/241/241 212/212/212
f 212/212/212 241/241/241 199/199/199
f 241/241/241 198/198/198 199/199/199
f 241/241/241 240/240/240 198/198/198
f 326/326/326 265/265/265 369/369/369
f 369/369/369 265/265/265 241/241/241
f 327/327/327 326/326/326 291/291/291
f 326/326/326 327/327/327 265/265/265
f 121/121/121 10/10/10 291/291/291
f 10/10/10 327/327/327 291/291/291
f 121/121/121 96/96/96 91/91/91
f 91/91/91 96/96/96 29/29/29
f 121/121/121 92/92/92 10/10/10
f 92/92/92 121/121/121 91/91/91
f 30/30/30 91/91/91 29/29/29
f 28/28/28 30/30/30 29/29/29
f 92/92/92 9/9/9 10/10/10
f 113/113/113 30/30/30 28/28/28
f 30/30/30 113/113/113 91/91/91
f 115/115/115 113/113/113 28/28/28
f 97/97/97 115/115/115 28/28/28
f 115/115/115 97/97/97 113/113/113
f 10/10/10 8/8/8 327/327/327
f 10/10/10 9/9/9 8/8/8
f 97/97/97 114/114/114 113/113/113
f 142/142/142 114/114/114 97/97/97
f 113/113/113 90/90/90 91/91/91
f 90/90/90 113/113/113 114/114/114
f 92/92/92 91/91/91 89/89/89
f 91/91/91 90/90/90 89/89/89
f 114/114/114 142/142/142 166/166/166
f 166/166/166 90/90/90 114/114/114
f 89/89/89 163/163/163 92/92/92
f 163/163/163 9/9/9 92/92/92
f 165/165/165 89/89/89 90/90/90
f 89/89/89 165/165/165 163/163/163
f 166/166/166 165/165/165 90/90/90
f 7/7/7 9/9/9 163/163/163
f 9/9/9 7/7/7 8/8/8
f 165/165/165 164/164/164 163/163/163
f 164/164/164 7/7/7 163/163/163
f 165/165/165 166/166/166 138/138/138
f 165/165/165 138/138/138 164/164/164
f 142/142/142 167/167/167 166/166/166
f 166/166/166 167/167/167 138/138/138
f 129/129/129 167/167/167 142/142/142
f 151/151/151 167/167/167 129/129/129
f 62/62/62 167/167/167 151/151/151
f 138/138/138 139/139/139 164/164/164
f 164/164/164 139/139/139 7/7/7
f 8/8/8 268/268/268 327/327/327
f 327/327/327 268/268/268 265/265/265
f 8/8/8 7/7/7 5/5/5
f 8/8/8 5/5/5 268/268/268
f 139/139/139 6/6/6 7/7/7
f 7/7/7 6/6/6 5/5/5
f 268/268/268 267/267/267 265/265/265
f 5/5/5 267/267/267 268/268/268
f 139/139/139 140/140/140 6/6/6
f 140/140/140 139/139/139 138/138/138
f 5/5/5 6/6/6 136/136/136
f 5/5/5 136/136/136 267/267/267
f 267/267/267 266/266/266 265/265/265
f 265/265/265 266/266/266 241/241/241
f 136/136/136 331/331/331 267/267/267
f 267/267/267 331/331/331 266/266/266
f 6/6/6 137/137/137 136/136/136
f 140/140/140 137/137/137 6/6/6
f 266/266/266 329/329/329 241/241/241
f 331/331/331 329/329/329 266/266/266
f 136/136/136 137/137/137 107/107/107
f 136/136/136 107/107/107 331/331/331
f 241/241/241 329/329/329 323/323/323
f 241/241/241 323/323/323 240/240/240
f 331/331/331 330/330/330 329/329/329
f 107/107/107 330/330/330 331/331/331
f 329/329/329 325/325/325 323/323/323
f 330/330/330 325/325/325 329/329/329
f 240/240/240 323/323/323 320/320/320
f 323/323/323 325/325/325 320/320/320
f 240/240/240 320/320/320 243/243/243
f 330/330/330 333/333/333 325/325/325
f 320/320/320 253/253/253 243/243/243
f 243/243/243 253/253/253 242/242/242
f 325/325/325 324/324/324 320/320/320
f 333/333/333 324/324/324 325/325/325
f 107/107/107 104/104/104 330/330/330
f 104/104/104 333/333/333 330/330/330
f 137/137/137 106/106/106 107/107/107
f 107/107/107 106/106/106 104/104/104
f 162/162/162 106/106/106 137/137/137
f 140/140/140 162/162/162 137/137/137
f 106/106/106 105/105/105 104/104/104
f 105/105/105 106/106/106 162/162/162
f 162/162/162 140/140/140 149/149/149
f 149/149/149 105/105/105 162/162/162
f 140/140/140 141/141/141 149/149/149
f 141/141/141 140/140/140 138/138/138
f 149/149/149 57/57/57 105/105/105
f 141/141/141 138/138/138 56/56/56
f 149/149/149 141/141/141 56/56/56
f 57/57/57 149/149/149 56/56/56
f 138/138/138 167/167/167 56/56/56
f 105/105/105 112/112/112 104/104/104
f 57/57/57 112/112/112 105/105/105
f 104/104/104 160/160/160 333/333/333
f 112/112/112 160/160/160 104/104/104
f 160/160/160 334/334/334 333/333/333
f 333/333/333 334/334/334 324/324/324
f 109/109/109 160/160/160 112/112/112
f 160/160/160 109/109/109 334/334/334
f 42/42/42 112/112/112 57/57/57
f 42/42/42 109/109/109 112/112/112
f 334/334/334 317/317/317 324/324/324
f 324/324/324 317/317/317 320/320/320
f 109/109/109 348/348/348 334/334/334
f 334/334/334 348/348/348 317/317/317
f 46/46/46 42/42/42 57/57/57
f 57/57/57 56/56/56 46/46/46
f 317/317/317 316/316/316 320/320/320
f 316/316/316 253/253/253 320/320/320
f 56/56/56 60/60/60 46/46/46
f 316/316/316 317/317/317 314/314/314
f 46/46/46 60/60/60 44/44/44
f 46/46/46 44/44/44 42/42/42
f 317/317/317 315/315/315 314/314/314
f 348/348/348 315/315/315 317/317/317
f 60/60/60 56/56/56 61/61/61
f 56/56/56 167/167/167 61/61/61
f 315/315/315 308/308/308 314/314/314
f 315/315/315 348/348/348 308/308/308
f 314/314/314 296/296/296 316/316/316
f 308/308/308 296/296/296 314/314/314
f 60/60/60 61/61/61 47/47/47
f 60/60/60 47/47/47 44/44/44
f 316/316/316 296/296/296 285/285/285
f 253/253/253 316/316/316 285/285/285
f 44/44/44 43/43/43 42/42/42
f 294/294/294 285/285/285 296/296/296
f 42/42/42 43/43/43 108/108/108
f 109/109/109 42/42/42 108/108/108
f 109/109/109 108/108/108 348/348/348
f 45/45/45 43/43/43 44/44/44
f 108/108/108 43/43/43 45/45/45
f 47/47/47 45/45/45 44/44/44
f 108/108/108 364/364/364 348/348/348
f 348/348/348 364/364/364 308/308/308
f 308/308/308 298/298/298 296/296/296
f 308/308/308 364/364/364 298/298/298
f 298/298/298 294/294/294 296/296/296
f 364/364/364 108/108/108 347/347/347
f 364/364/364 347/347/347 298/298/298
f 298/298/298 295/295/295 294/294/294
f 298/298/298 347/347/347 295/295/295
f 295/295/295 285/285/285 294/294/294
f 108/108/108 146/146/146 347/347/347
f 146/146/146 108/108/108 45/45/45
f 347/347/347 346/346/346 295/295/295
f 347/347/347 146/146/146 346/346/346
f 295/295/295 283/283/283 285/285/285
f 146/146/146 144/144/144 346/346/346
f 283/283/283 281/281/281 285/285/285
f 253/253/253 285/285/285 281/281/281
f 346/346/346 351/351/351 295/295/295
f 351/351/351 283/283/283 295/295/295
f 281/281/281 257/257/257 253/253/253
f 257/257/257 242/242/242 253/253/253
f 283/283/283 279/279/279 281/281/281
f 279/279/279 257/257/257 281/281/281
f 351/351/351 282/282/282 283/283/283
f 282/282/282 279/279/279 283/283/283
f 145/145/145 351/351/351 346/346/346
f 351/351/351 145/145/145 282/282/282
f 144/144/144 145/145/145 346/346/346
f 257/257/257 255/255/255 242/242/242
f 279/279/279 255/255/255 257/257/257
f 255/255/255 245/245/245 242/242/242
f 88/88/88 144/144/144 146/146/146
f 145/145/145 144/144/144 88/88/88
f 45/45/45 88/88/88 146/146/146
f 282/282/282 280/280/280 279/279/279
f 280/280/280 255/255/255 279/279/279
f 145/145/145 157/157/157 282/282/282
f 282/282/282 157/157/157 280/280/280
f 15/15/15 145/145/145 88/88/88
f 145/145/145 15/15/15 157/157/157
f 66/66/66 88/88/88 45/45/45
f 15/15/15 88/88/88 66/66/66
f 47/47/47 66/66/66 45/45/45
f 157/157/157 155/155/155 280/280/280
f 67/67/67 66/66/66 47/47/47
f 61/61/61 67/67/67 47/47/47
f 65/65/65 15/15/15 66/66/66
f 67/67/67 65/65/65 66/66/66
f 15/15/15 16/16/16 157/157/157
f 157/157/157 16/16/16 155/155/155
f 65/65/65 17/17/17 15/15/15
f 17/17/17 16/16/16 15/15/15
f 68/68/68 17/17/17 65/65/65
f 67/67/67 68/68/68 65/65/65
f 18/18/18 16/16/16 17/17/17
f 68/68/68 18/18/18 17/17/17
f 16/16/16 18/18/18 155/155/155
f 67/67/67 61/61/61 73/73/73
f 61/61/61 167/167/167 73/73/73
f 74/74/74 68/68/68 67/67/67
f 73/73/73 74/74/74 67/67/67
f 126/126/126 18/18/18 68/68/68
f 74/74/74 126/126/126 68/68/68
f 155/155/155 18/18/18 127/127/127
f 18/18/18 126/126/126 127/127/127
f 280/280/280 155/155/155 366/366/366
f 155/155/155 127/127/127 366/366/366
f 280/280/280 366/366/366 255/255/255
f 128/128/128 127/127/127 126/126/126
f 127/127/127 128/128/128 366/366/366
f 85/85/85 126/126/126 74/74/74
f 85/85/85 128/128/128 126/126/126
f 366/366/366 259/259/259 255/255/255
f 255/255/255 259/259/259 245/245/245
f 128/128/128 264/264/264 366/366/366
f 366/366/366 264/264/264 259/259/259
f 259/259/259 252/252/252 245/245/245
f 264/264/264 252/252/252 259/259/259
f 245/245/245 252/252/252 209/209/209
f 128/128/128 13/13/13 264/264/264
f 252/252/252 256/256/256 209/209/209
f 264/264/264 260/260/260 252/252/252
f 13/13/13 260/260/260 264/264/264
f 252/252/252 258/258/258 256/256/256
f 260/260/260 258/258/258 252/252/252
f 209/209/209 256/256/256 254/254/254
f 256/256/256 258/258/258 254/254/254
f 209/209/209 254/254/254 208/208/208
f 260/260/260 284/284/284 258/258/258
f 258/258/258 269/269/269 254/254/254
f 284/284/284 269/269/269 258/258/258
f 254/254/254 230/230/230 208/208/208
f 229/229/229 254/254/254 269/269/269
f 229/229/229 230/230/230 254/254/254
f 318/318/318 269/269/269 284/284/284
f 318/318/318 229/229/229 269/269/269
f 14/14/14 284/284/284 260/260/260
f 13/13/13 14/14/14 260/260/260
f 293/293/293 318/318/318 284/284/284
f 293/293/293 284/284/284 14/14/14
f 229/229/229 318/318/318 343/343/343
f 14/14/14 13/13/13 11/11/11
f 318/318/318 319/319/319 343/343/343
f 319/319/319 318/318/318 293/293/293
f 343/343/343 228/228/228 229/229/229
f 230/230/230 229/229/229 228/228/228
f 319/319/319 344/344/344 343/343/343
f 344/344/344 228/228/228 343/343/343
f 305/305/305 319/319/319 293/293/293
f 344/344/344 319/319/319 305/305/305
f 19/19/19 293/293/293 14/14/14
f 305/305/305 293/293/293 19/19/19
f 19/19/19 14/14/14 11/11/11
f 13/13/13 128/128/128 12/12/12
f 13/13/13 12/12/12 11/11/11
f 128/128/128 85/85/85 12/12/12
f 20/20/20 19/19/19 11/11/11
f 85/85/85 75/75/75 12/12/12
f 75/75/75 85/85/85 74/74/74
f 75/75/75 74/74/74 73/73/73
f 87/87/87 11/11/11 12/12/12
f 20/20/20 11/11/11 87/87/87
f 75/75/75 86/86/86 12/12/12
f 86/86/86 87/87/87 12/12/12
f 87/87/87 86/86/86 75/75/75
f 76/76/76 75/75/75 73/73/73
f 76/76/76 87/87/87 75/75/75
f 76/76/76 73/73/73 95/95/95
f 73/73/73 167/167/167 95/95/95
f 87/87/87 76/76/76 93/93/93
f 93/93/93 20/20/20 87/87/87
f 48/48/48 93/93/93 76/76/76
f 20/20/20 93/93/93 48/48/48
f 95/95/95 48/48/48 76/76/76
f 158/158/158 19/19/19 20/20/20
f 158/158/158 305/305/305 19/19/19
f 103/103/103 20/20/20 48/48/48
f 103/103/103 158/158/158 20/20/20
f 306/306/306 305/305/305 158/158/158
f 306/306/306 344/344/344 305/305/305
f 158/158/158 103/103/103 102/102/102
f 103/103/103 48/48/48 102/102/102
f 147/147/147 306/306/306 158/158/158
f 147/147/147 158/158/158 102/102/102
f 147/147/147 21/21/21 306/306/306
f 21/21/21 147/147/147 102/102/102
f 306/306/306 307/307/307 344/344/344
f 21/21/21 307/307/307 306/306/306
f 48/48/48 49/49/49 102/102/102
f 307/307/307 345/345/345 344/344/344
f 344/344/344 345/345/345 228/228/228
f 102/102/102 49/49/49 50/50/50
f 50/50/50 49/49/49 48/48/48
f 24/24/24 21/21/21 102/102/102
f 24/24/24 102/102/102 50/50/50
f 345/345/345 349/349/349 228/228/228
f 51/51/51 50/50/50 48/48/48
f 95/95/95 51/51/51 48/48/48
f 349/349/349 231/231/231 228/228/228
f 231/231/231 230/230/230 228/228/228
f 345/345/345 309/309/309 349/349/349
f 309/309/309 231/231/231 349/349/349
f 309/309/309 345/345/345 307/307/307
f 230/230/230 231/231/231 250/250/250
f 250/250/250 231/231/231 309/309/309
f 230/230/230 250/250/250 208/208/208
f 250/250/250 244/244/244 208/208/208
f 51/51/51 95/95/95 117/117/117
f 95/95/95 167/167/167 117/117/117
f 116/116/116 50/50/50 51/51/51
f 117/117/117 116/116/116 51/51/51
f 24/24/24 50/50/50 23/23/23
f 50/50/50 116/116/116 23/23/23
f 24/24/24 23/23/23 21/21/21
f 117/117/117 167/167/167 133/133/133
f 133/133/133 167/167/167 62/62/62
f 63/63/63 133/133/133 62/62/62
f 117/117/117 118/118/118 116/116/116
f 118/118/118 117/117/117 133/133/133
f 116/116/116 119/119/119 23/23/23
f 118/118/118 119/119/119 116/116/116
f 23/23/23 22/22/22 21/21/21
f 21/21/21 22/22/22 307/307/307
f 119/119/119 32/32/32 23/23/23
f 22/22/22 312/312/312 307/307/307
f 312/312/312 309/309/309 307/307/307
f 31/31/31 22/22/22 23/23/23
f 22/22/22 31/31/31 312/312/312
f 32/32/32 31/31/31 23/23/23
f 312/312/312 311/311/311 309/309/309
f 31/31/31 311/311/311 312/312/312
f 32/32/32 119/119/119 120/120/120
f 120/120/120 119/119/119 118/118/118
f 31/31/31 32/32/32 37/37/37
f 37/37/37 32/32/32 120/120/120
f 38/38/38 31/31/31 37/37/37
f 31/31/31 38/38/38 311/311/311
f 37/37/37 120/120/120 78/78/78
f 38/38/38 37/37/37 78/78/78
f 77/77/77 120/120/120 118/118/118
f 120/120/120 77/77/77 78/78/78
f 80/80/80 77/77/77 118/118/118
f 133/133/133 80/80/80 118/118/118
f 79/79/79 78/78/78 77/77/77
f 80/80/80 79/79/79 77/77/77
f 161/161/161 38/38/38 78/78/78
f 161/161/161 78/78/78 79/79/79
f 80/80/80 133/133/133 143/143/143
f 133/133/133 63/63/63 143/143/143
f 79/79/79 80/80/80 124/124/124
f 80/80/80 143/143/143 124/124/124
f 63/63/63 40/40/40 143/143/143
f 40/40/40 63/63/63 39/39/39
f 40/40/40 39/39/39 34/34/34
f 40/40/40 169/169/169 143/143/143
f 124/124/124 143/143/143 169/169/169
f 41/41/41 40/40/40 34/34/34
f 169/169/169 40/40/40 41/41/41
f 41/41/41 34/34/34 94/94/94
f 123/123/123 169/169/169 41/41/41
f 123/123/123 41/41/41 94/94/94
f 123/123/123 124/124/124 169/169/169
f 122/122/122 123/123/123 94/94/94
f 124/124/124 123/123/123 122/122/122
f 125/125/125 124/124/124 122/122/122
f 124/124/124 125/125/125 79/79/79
f 125/125/125 122/122/122 206/206/206
f 125/125/125 156/156/156 79/79/79
f 156/156/156 161/161/161 79/79/79
f 125/125/125 206/206/206 205/205/205
f 156/156/156 125/125/125 205/205/205
f 156/156/156 205/205/205 161/161/161
f 205/205/205 206/206/206 299/299/299
f 205/205/205 356/356/356 161/161/161
f 205/205/205 299/299/299 356/356/356
f 38/38/38 161/161/161 355/355/355
f 161/161/161 356/356/356 355/355/355
f 38/38/38 355/355/355 311/311/311
f 299/299/299 354/354/354 356/356/356
f 355/355/355 356/356/356 354/354/354
f 354/354/354 299/299/299 218/218/218
f 354/354/354 218/218/218 244/244/244
f 311/311/311 355/355/355 310/310/310
f 311/311/311 310/310/310 309/309/309
f 310/310/310 250/250/250 309/309/309
f 250/250/250 310/310/310 244/244/244
f 353/353/353 355/355/355 354/354/354
f 355/355/355 353/353/353 310/310/310
f 352/352/352 354/354/354 244/244/244
f 310/310/310 352/352/352 244/244/244
f 353/353/353 354/354/354 352/352/352
f 310/310/310 353/353/353 352/352/352
