# VPXTOOL table OBJ file
# VPXTOOL OBJ file
# numVerts: 208 numFaces: 96
o screw28
v 0.062484 -0.036075 -0.000283
v 0.07215 -0 -0.000283
v 0.07215 -0 -0.011383
v 0.062484 -0.036075 -0.000283
v 0.07215 -0 -0.011383
v 0.062484 -0.036075 -0.011383
v 0.036075 -0.062484 -0.000283
v 0.062484 -0.036075 -0.000283
v 0.062484 -0.036075 -0.011383
v 0.062484 -0.036075 -0.011383
v 0.036075 -0.062484 -0.011383
v 0.036075 -0.062484 -0.000283
v 0 -0.07215 -0.000283
v 0.036075 -0.062484 -0.000283
v 0.036075 -0.062484 -0.011383
v 0.036075 -0.062484 -0.011383
v 0 -0.07215 -0.011383
v 0 -0.07215 -0.000283
v -0.036075 -0.062484 -0.000283
v 0 -0.07215 -0.000283
v 0 -0.07215 -0.011383
v 0 -0.07215 -0.011383
v -0.036075 -0.062484 -0.011383
v -0.036075 -0.062484 -0.000283
v -0.062484 -0.036075 -0.000283
v -0.036075 -0.062484 -0.000283
v -0.036075 -0.062484 -0.011383
v -0.036075 -0.062484 -0.011383
v -0.062484 -0.036075 -0.011383
v -0.062484 -0.036075 -0.000283
v -0.07215 -0 -0.000283
v -0.062484 -0.036075 -0.000283
v -0.062484 -0.036075 -0.011383
v -0.062484 -0.036075 -0.011383
v -0.07215 -0 -0.011383
v -0.07215 -0 -0.000283
v -0.062484 0.036075 -0.000283
v -0.07215 -0 -0.000283
v -0.07215 -0 -0.011383
v -0.07215 -0 -0.011383
v -0.062484 0.036075 -0.011383
v -0.062484 0.036075 -0.000283
v -0.036075 0.062484 -0.000283
v -0.062484 0.036075 -0.000283
v -0.062484 0.036075 -0.011383
v -0.062484 0.036075 -0.011383
v -0.036075 0.062484 -0.011383
v -0.036075 0.062484 -0.000283
v 0 0.07215 -0.000283
v -0.036075 0.062484 -0.000283
v -0.036075 0.062484 -0.011383
v 0 0.07215 -0.011383
v 0.036075 0.062484 -0.000283
v 0 0.07215 -0.000283
v 0 0.07215 -0.011383
v 0.036075 0.062484 -0.011383
v 0.062484 0.036075 -0.000283
v 0.036075 0.062484 -0.000283
v 0.036075 0.062484 -0.011383
v 0.036075 0.062484 -0.011383
v 0.062484 0.036075 -0.011383
v 0.062484 0.036075 -0.000283
v 0.07215 -0 -0.000283
v 0.062484 0.036075 -0.000283
v 0.062484 0.036075 -0.011383
v 0.062484 0.036075 -0.011383
v 0.07215 -0 -0.011383
v 0.07215 -0 -0.000283
v -0.036075 0.062484 -0.011383
v -0.062484 0.036075 -0.011383
v -0.07215 -0 -0.011383
v 0.036075 0.062484 -0.011383
v 0 0.07215 -0.011383
v 0.062484 0.036075 -0.011383
v 0.07215 -0 -0.011383
v -0.062484 -0.036075 -0.011383
v -0.036075 -0.062484 -0.011383
v 0 -0.07215 -0.011383
v 0.036075 -0.062484 -0.011383
v 0.062484 -0.036075 -0.011383
v -0.036075 0.062484 -0.011383
v -0.07215 -0 -0.011383
v -0.069426 0 -0.052083
v -0.034713 0.060125 -0.052083
v 0.036075 0.062484 -0.011383
v -0.036075 0.062484 -0.011383
v -0.034713 0.060125 -0.052083
v 0.034713 0.060125 -0.052083
v 0.07215 -0 -0.011383
v 0.036075 0.062484 -0.011383
v 0.034713 0.060125 -0.052083
v 0.034713 0.060125 -0.052083
v 0.069426 0 -0.052083
v 0.07215 -0 -0.011383
v -0.07215 -0 -0.011383
v -0.036075 -0.062484 -0.011383
v -0.034713 -0.060125 -0.052083
v -0.069426 0 -0.052083
v -0.036075 -0.062484 -0.011383
v 0.036075 -0.062484 -0.011383
v 0.034713 -0.060125 -0.052083
v 0.034713 -0.060125 -0.052083
v -0.034713 -0.060125 -0.052083
v -0.036075 -0.062484 -0.011383
v 0.036075 -0.062484 -0.011383
v 0.07215 -0 -0.011383
v 0.069426 0 -0.052083
v 0.034713 -0.060125 -0.052083
v 0.050875 0 -0.052083
v 0.0481 0 -0.044683
v 0.041656 -0.02405 -0.044683
v 0.041656 -0.02405 -0.044683
v 0.044059 -0.025437 -0.052083
v 0.050875 0 -0.052083
v 0.044059 -0.025437 -0.052083
v 0.041656 -0.02405 -0.044683
v 0.02405 -0.041656 -0.044683
v 0.02405 -0.041656 -0.044683
v 0.025437 -0.044059 -0.052083
v 0.044059 -0.025437 -0.052083
v 0.025437 -0.044059 -0.052083
v 0.02405 -0.041656 -0.044683
v 0 -0.0481 -0.044683
v 0 -0.0481 -0.044683
v 0 -0.050875 -0.052083
v 0.025437 -0.044059 -0.052083
v 0 -0.050875 -0.052083
v 0 -0.0481 -0.044683
v -0.02405 -0.041656 -0.044683
v -0.025437 -0.044059 -0.052083
v -0.025437 -0.044059 -0.052083
v -0.02405 -0.041656 -0.044683
v -0.041656 -0.02405 -0.044683
v -0.041656 -0.02405 -0.044683
v -0.044059 -0.025437 -0.052083
v -0.025437 -0.044059 -0.052083
v -0.044059 -0.025437 -0.052083
v -0.041656 -0.02405 -0.044683
v -0.0481 0 -0.044683
v -0.0481 0 -0.044683
v -0.050875 0 -0.052083
v -0.044059 -0.025437 -0.052083
v -0.050875 0 -0.052083
v -0.0481 0 -0.044683
v -0.041656 0.02405 -0.044683
v -0.041656 0.02405 -0.044683
v -0.044059 0.025438 -0.052083
v -0.050875 0 -0.052083
v -0.044059 0.025438 -0.052083
v -0.041656 0.02405 -0.044683
v -0.02405 0.041656 -0.044683
v -0.025437 0.044059 -0.052083
v -0.025437 0.044059 -0.052083
v -0.02405 0.041656 -0.044683
v 0 0.0481 -0.044683
v 0 0.0481 -0.044683
v 0 0.050875 -0.052083
v -0.025437 0.044059 -0.052083
v 0 0.050875 -0.052083
v 0 0.0481 -0.044683
v 0.02405 0.041656 -0.044683
v 0.02405 0.041656 -0.044683
v 0.025437 0.044059 -0.052083
v 0 0.050875 -0.052083
v 0.025437 0.044059 -0.052083
v 0.02405 0.041656 -0.044683
v 0.041656 0.02405 -0.044683
v 0.041656 0.02405 -0.044683
v 0.044059 0.025438 -0.052083
v 0.025437 0.044059 -0.052083
v 0.044059 0.025438 -0.052083
v 0.041656 0.02405 -0.044683
v 0.0481 0 -0.044683
v 0.050875 0 -0.052083
v -0.034713 0.060125 -0.052083
v -0.025437 0.044059 -0.052083
v 0 0.050875 -0.052083
v -0.044059 0.025438 -0.052083
v 0.034713 0.060125 -0.052083
v 0.025437 0.044059 -0.052083
v 0.044059 0.025438 -0.052083
v 0.069426 0 -0.052083
v 0.050875 0 -0.052083
v 0.044059 -0.025437 -0.052083
v 0.034713 -0.060125 -0.052083
v 0.025437 -0.044059 -0.052083
v 0 -0.050875 -0.052083
v -0.034713 -0.060125 -0.052083
v -0.025437 -0.044059 -0.052083
v -0.044059 -0.025437 -0.052083
v -0.069426 0 -0.052083
v -0.034713 -0.060125 -0.052083
v -0.044059 -0.025437 -0.052083
v -0.069426 0 -0.052083
v -0.050875 0 -0.052083
v 0.041656 -0.02405 -0.044683
v 0.0481 0 -0.044683
v 0 0 -0.044683
v 0.02405 -0.041656 -0.044683
v 0 -0.0481 -0.044683
v -0.02405 -0.041656 -0.044683
v -0.041656 -0.02405 -0.044683
v -0.0481 0 -0.044683
v -0.041656 0.02405 -0.044683
v -0.02405 0.041656 -0.044683
v 0 0.0481 -0.044683
v 0.02405 0.041656 -0.044683
v 0.041656 0.02405 -0.044683
vt 0.083333 0.015999973
vt 0.166667 0.015999973
vt 0.166667 0.030286014
vt 0.083333 0.015999973
vt 0.166667 0.030286014
vt 0.083333 0.030286014
vt 0 0.015999973
vt 0.083333 0.015999973
vt 0.083333 0.030286014
vt 0.083333 0.030286014
vt 0 0.030286014
vt 0 0.015999973
vt 0.916667 0.015999973
vt 1 0.015999973
vt 1 0.030286014
vt 1 0.030286014
vt 0.916667 0.030286014
vt 0.916667 0.015999973
vt 0.833333 0.015999973
vt 0.916667 0.015999973
vt 0.916667 0.030286014
vt 0.916667 0.030286014
vt 0.833333 0.030286014
vt 0.833333 0.015999973
vt 0.75 0.015999973
vt 0.833333 0.015999973
vt 0.833333 0.030286014
vt 0.833333 0.030286014
vt 0.75 0.030286014
vt 0.75 0.015999973
vt 0.666667 0.015999973
vt 0.75 0.015999973
vt 0.75 0.030286014
vt 0.75 0.030286014
vt 0.666667 0.030286014
vt 0.666667 0.015999973
vt 0.583333 0.015999973
vt 0.666667 0.015999973
vt 0.666667 0.030286014
vt 0.666667 0.030286014
vt 0.583333 0.030286014
vt 0.583333 0.015999973
vt 0.5 0.015999973
vt 0.583333 0.015999973
vt 0.583333 0.030286014
vt 0.583333 0.030286014
vt 0.5 0.030286014
vt 0.5 0.015999973
vt 0.416667 0.015999973
vt 0.5 0.015999973
vt 0.5 0.030286014
vt 0.416667 0.030286014
vt 0.333333 0.015999973
vt 0.416667 0.015999973
vt 0.416667 0.030286014
vt 0.333333 0.030286014
vt 0.25 0.015999973
vt 0.333333 0.015999973
vt 0.333333 0.030286014
vt 0.333333 0.030286014
vt 0.25 0.030286014
vt 0.25 0.015999973
vt 0.166667 0.015999973
vt 0.25 0.015999973
vt 0.25 0.030286014
vt 0.25 0.030286014
vt 0.166667 0.030286014
vt 0.166667 0.015999973
vt 0.309556 0.866858
vt 0.170142 0.727444
vt 0.119113 0.537
vt 0.690444 0.866858
vt 0.5 0.91788697
vt 0.829858 0.727444
vt 0.880887 0.537
vt 0.170142 0.346556
vt 0.309556 0.207142
vt 0.5 0.15611303
vt 0.690444 0.207142
vt 0.829858 0.346556
vt 0.5 0.046285987
vt 0.666667 0.046285987
vt 0.666667 0.13199997
vt 0.5 0.13199997
vt 0.333333 0.046285987
vt 0.5 0.046285987
vt 0.5 0.13199997
vt 0.333333 0.13199997
vt 0.166667 0.046285987
vt 0.333333 0.046285987
vt 0.333333 0.13199997
vt 0.333333 0.13199997
vt 0.166667 0.13199997
vt 0.166667 0.046285987
vt 0.666667 0.046285987
vt 0.833333 0.046285987
vt 0.833333 0.13199997
vt 0.666667 0.13199997
vt 0.833333 0.046285987
vt 1 0.046285987
vt 1 0.13199997
vt 1 0.13199997
vt 0.833333 0.13199997
vt 0.833333 0.046285987
vt 0 0.046285987
vt 0.166667 0.046285987
vt 0.166667 0.13199997
vt 0 0.13199997
vt 0.166667 0.984000027
vt 0.166667 0.94117099
vt 0.083333 0.94117099
vt 0.083333 0.94117099
vt 0.083333 0.984000027
vt 0.166667 0.984000027
vt 0.083333 0.984000027
vt 0.083333 0.94117099
vt 0 0.94117099
vt 0 0.94117099
vt 0 0.984000027
vt 0.083333 0.984000027
vt 1 0.984000027
vt 1 0.94117099
vt 0.916667 0.94117099
vt 0.916667 0.94117099
vt 0.916667 0.984000027
vt 1 0.984000027
vt 0.916667 0.984000027
vt 0.916667 0.94117099
vt 0.833334 0.94117099
vt 0.833334 0.984000027
vt 0.833334 0.984000027
vt 0.833334 0.94117099
vt 0.75 0.94117099
vt 0.75 0.94117099
vt 0.75 0.984000027
vt 0.833334 0.984000027
vt 0.75 0.984000027
vt 0.75 0.94117099
vt 0.666667 0.94117099
vt 0.666667 0.94117099
vt 0.666667 0.984000027
vt 0.75 0.984000027
vt 0.666667 0.984000027
vt 0.666667 0.94117099
vt 0.583333 0.94117099
vt 0.583333 0.94117099
vt 0.583333 0.984000027
vt 0.666667 0.984000027
vt 0.583333 0.984000027
vt 0.583333 0.94117099
vt 0.5 0.94117099
vt 0.5 0.984000027
vt 0.5 0.984000027
vt 0.5 0.94117099
vt 0.416667 0.94117099
vt 0.416667 0.94117099
vt 0.416667 0.984000027
vt 0.5 0.984000027
vt 0.416667 0.984000027
vt 0.416667 0.94117099
vt 0.333333 0.94117099
vt 0.333333 0.94117099
vt 0.333333 0.984000027
vt 0.416667 0.984000027
vt 0.333333 0.984000027
vt 0.333333 0.94117099
vt 0.25 0.94117099
vt 0.25 0.94117099
vt 0.25 0.984000027
vt 0.333333 0.984000027
vt 0.25 0.984000027
vt 0.25 0.94117099
vt 0.166667 0.94117099
vt 0.166667 0.984000027
vt 0.327401 0.83595097
vt 0.373521 0.75606799
vt 0.5 0.789958
vt 0.280932 0.66347897
vt 0.672599 0.83595097
vt 0.626479 0.75606799
vt 0.719068 0.66347897
vt 0.845199 0.537
vt 0.752958 0.537
vt 0.719068 0.41052103
vt 0.672599 0.23804903
vt 0.626479 0.317932
vt 0.5 0.284042
vt 0.327401 0.23804903
vt 0.373521 0.317932
vt 0.280932 0.41052103
vt 0.154801 0.537
vt 0.327401 0.23804903
vt 0.280932 0.41052103
vt 0.154801 0.537
vt 0.247042 0.537
vt 0.691118 0.42665803
vt 0.720684 0.537
vt 0.5 0.537
vt 0.610342 0.345882
vt 0.5 0.316316
vt 0.389658 0.345882
vt 0.308882 0.42665803
vt 0.279316 0.537
vt 0.308882 0.64734203
vt 0.389658 0.728118
vt 0.5 0.75768399
vt 0.610342 0.728118
vt 0.691118 0.64734203
vn 0.965926 -0.258819 -0
vn 0.965926 -0.258819 -0
vn 0.965926 -0.258819 -0
vn 0.965926 -0.258819 -0.000001
vn 0.965926 -0.258819 -0.000001
vn 0.965926 -0.258819 -0.000001
vn 0.707107 -0.707107 -0.000002
vn 0.707107 -0.707107 -0.000002
vn 0.707107 -0.707107 -0.000002
vn 0.707107 -0.707107 -0.000001
vn 0.707107 -0.707107 -0.000001
vn 0.707107 -0.707107 -0.000001
vn 0.258819 -0.965926 -0.000003
vn 0.258819 -0.965926 -0.000003
vn 0.258819 -0.965926 -0.000003
vn 0.258819 -0.965926 -0.000001
vn 0.258819 -0.965926 -0.000001
vn 0.258819 -0.965926 -0.000001
vn -0.258819 -0.965926 -0.000003
vn -0.258819 -0.965926 -0.000003
vn -0.258819 -0.965926 -0.000003
vn -0.258819 -0.965926 -0.000001
vn -0.258819 -0.965926 -0.000001
vn -0.258819 -0.965926 -0.000001
vn -0.707107 -0.707107 -0.000002
vn -0.707107 -0.707107 -0.000002
vn -0.707107 -0.707107 -0.000002
vn -0.707107 -0.707107 -0.000001
vn -0.707107 -0.707107 -0.000001
vn -0.707107 -0.707107 -0.000001
vn -0.965926 -0.258819 -0
vn -0.965926 -0.258819 -0
vn -0.965926 -0.258819 -0
vn -0.965926 -0.258819 -0.000001
vn -0.965926 -0.258819 -0.000001
vn -0.965926 -0.258819 -0.000001
vn -0.965926 0.258819 0.000001
vn -0.965926 0.258819 0.000001
vn -0.965926 0.258819 0.000001
vn -0.965926 0.258819 0
vn -0.965926 0.258819 0
vn -0.965926 0.258819 0
vn -0.707107 0.707107 0.000001
vn -0.707107 0.707107 0.000001
vn -0.707107 0.707107 0.000001
vn -0.707107 0.707107 0.000002
vn -0.707107 0.707107 0.000002
vn -0.707107 0.707107 0.000002
vn -0.258819 0.965926 0.000001
vn -0.258819 0.965926 0.000001
vn -0.258819 0.965926 0.000001
vn -0.258819 0.965926 0.000001
vn 0.258819 0.965926 0.000001
vn 0.258819 0.965926 0.000001
vn 0.258819 0.965926 0.000001
vn 0.258819 0.965926 0.000001
vn 0.707107 0.707107 0.000001
vn 0.707107 0.707107 0.000001
vn 0.707107 0.707107 0.000001
vn 0.707107 0.707107 0.000002
vn 0.707107 0.707107 0.000002
vn 0.707107 0.707107 0.000002
vn 0.965926 0.258819 0.000001
vn 0.965926 0.258819 0.000001
vn 0.965926 0.258819 0.000001
vn 0.965926 0.258819 0
vn 0.965926 0.258819 0
vn 0.965926 0.258819 0
vn -0 0.000002 -1
vn -0 0.000002 -1
vn -0 0.000002 -1
vn -0 0.000002 -1
vn -0 0.000002 -1
vn -0 0.000002 -1
vn -0 0.000002 -1
vn -0 0.000002 -1
vn -0 0.000002 -1
vn -0 0.000002 -1
vn -0 0.000002 -1
vn -0 0.000002 -1
vn -0.864575 0.499163 -0.057856
vn -0.864575 0.499163 -0.057856
vn -0.864575 0.499163 -0.057856
vn -0.864575 0.499163 -0.057856
vn 0 0.998325 -0.057855
vn 0 0.998325 -0.057855
vn 0 0.998325 -0.057855
vn 0 0.998325 -0.057855
vn 0.864575 0.499162 -0.057856
vn 0.864575 0.499162 -0.057856
vn 0.864575 0.499162 -0.057856
vn 0.864575 0.499163 -0.057856
vn 0.864575 0.499163 -0.057856
vn 0.864575 0.499163 -0.057856
vn -0.864575 -0.499162 -0.057858
vn -0.864575 -0.499162 -0.057858
vn -0.864575 -0.499162 -0.057858
vn -0.864575 -0.499162 -0.057858
vn 0 -0.998325 -0.057859
vn 0 -0.998325 -0.057859
vn 0 -0.998325 -0.057859
vn 0 -0.998325 -0.05786
vn 0 -0.998325 -0.05786
vn 0 -0.998325 -0.05786
vn 0.864575 -0.499162 -0.057858
vn 0.864575 -0.499162 -0.057858
vn 0.864575 -0.499162 -0.057858
vn 0.864575 -0.499162 -0.057858
vn -0.908182 0.243348 -0.340568
vn -0.908182 0.243348 -0.340568
vn -0.908182 0.243348 -0.340568
vn -0.908183 0.243347 -0.340568
vn -0.908183 0.243347 -0.340568
vn -0.908183 0.243347 -0.340568
vn -0.664835 0.664836 -0.340568
vn -0.664835 0.664836 -0.340568
vn -0.664835 0.664836 -0.340568
vn -0.664836 0.664836 -0.340567
vn -0.664836 0.664836 -0.340567
vn -0.664836 0.664836 -0.340567
vn -0.243347 0.908183 -0.340566
vn -0.243347 0.908183 -0.340566
vn -0.243347 0.908183 -0.340566
vn -0.243346 0.908183 -0.340566
vn -0.243346 0.908183 -0.340566
vn -0.243346 0.908183 -0.340566
vn 0.243347 0.908183 -0.340566
vn 0.243347 0.908183 -0.340566
vn 0.243347 0.908183 -0.340566
vn 0.243347 0.908183 -0.340566
vn 0.664836 0.664836 -0.340568
vn 0.664836 0.664836 -0.340568
vn 0.664836 0.664836 -0.340568
vn 0.664836 0.664836 -0.340567
vn 0.664836 0.664836 -0.340567
vn 0.664836 0.664836 -0.340567
vn 0.908182 0.243348 -0.340568
vn 0.908182 0.243348 -0.340568
vn 0.908182 0.243348 -0.340568
vn 0.908183 0.243347 -0.340568
vn 0.908183 0.243347 -0.340568
vn 0.908183 0.243347 -0.340568
vn 0.908182 -0.243346 -0.34057
vn 0.908182 -0.243346 -0.34057
vn 0.908182 -0.243346 -0.34057
vn 0.908182 -0.243346 -0.340569
vn 0.908182 -0.243346 -0.340569
vn 0.908182 -0.243346 -0.340569
vn 0.664836 -0.664835 -0.34057
vn 0.664836 -0.664835 -0.34057
vn 0.664836 -0.664835 -0.34057
vn 0.664836 -0.664835 -0.34057
vn 0.243346 -0.908182 -0.34057
vn 0.243346 -0.908182 -0.34057
vn 0.243346 -0.908182 -0.34057
vn 0.243347 -0.908182 -0.340571
vn 0.243347 -0.908182 -0.340571
vn 0.243347 -0.908182 -0.340571
vn -0.243346 -0.908182 -0.34057
vn -0.243346 -0.908182 -0.34057
vn -0.243346 -0.908182 -0.34057
vn -0.243347 -0.908182 -0.340571
vn -0.243347 -0.908182 -0.340571
vn -0.243347 -0.908182 -0.340571
vn -0.664836 -0.664835 -0.34057
vn -0.664836 -0.664835 -0.34057
vn -0.664836 -0.664835 -0.34057
vn -0.664835 -0.664835 -0.34057
vn -0.664835 -0.664835 -0.34057
vn -0.664835 -0.664835 -0.34057
vn -0.908182 -0.243346 -0.34057
vn -0.908182 -0.243346 -0.34057
vn -0.908182 -0.243346 -0.34057
vn -0.908182 -0.243346 -0.34057
vn -0 0.000002 -1
vn -0 0.000002 -1
vn -0 0.000002 -1
vn -0 0.000002 -1
vn -0 0.000002 -1
vn -0 0.000002 -1
vn -0 0.000002 -1
vn -0 0.000002 -1
vn -0 0.000002 -1
vn -0 0.000002 -1
vn -0 0.000002 -1
vn -0 0.000002 -1
vn -0 0.000002 -1
vn -0 0.000002 -1
vn -0 0.000002 -1
vn -0 0.000002 -1
vn -0.000001 0.000002 -1
vn -0.000001 0.000002 -1
vn -0.000001 0.000002 -1
vn -0 0.000002 -1
vn -0 0.000002 -1
vn -0 0.000002 -1
vn -0 0.000002 -1
vn -0 0.000002 -1
vn -0 0.000002 -1
vn -0 0.000002 -1
vn -0 0.000002 -1
vn -0 0.000002 -1
vn -0 0.000002 -1
vn -0 0.000002 -1
vn -0 0.000002 -1
vn -0 0.000002 -1
vn -0 0.000002 -1
vn -0 0.000002 -1
f 3/3/3 2/2/2 1/1/1
f 6/6/6 5/5/5 4/4/4
f 9/9/9 8/8/8 7/7/7
f 12/12/12 11/11/11 10/10/10
f 15/15/15 14/14/14 13/13/13
f 18/18/18 17/17/17 16/16/16
f 21/21/21 20/20/20 19/19/19
f 24/24/24 23/23/23 22/22/22
f 27/27/27 26/26/26 25/25/25
f 30/30/30 29/29/29 28/28/28
f 33/33/33 32/32/32 31/31/31
f 36/36/36 35/35/35 34/34/34
f 39/39/39 38/38/38 37/37/37
f 42/42/42 41/41/41 40/40/40
f 45/45/45 44/44/44 43/43/43
f 48/48/48 47/47/47 46/46/46
f 51/51/51 50/50/50 49/49/49
f 49/49/49 52/52/52 51/51/51
f 55/55/55 54/54/54 53/53/53
f 53/53/53 56/56/56 55/55/55
f 59/59/59 58/58/58 57/57/57
f 62/62/62 61/61/61 60/60/60
f 65/65/65 64/64/64 63/63/63
f 68/68/68 67/67/67 66/66/66
f 71/71/71 70/70/70 69/69/69
f 69/69/69 73/73/73 72/72/72
f 77/77/77 76/76/76 71/71/71
f 75/75/75 72/72/72 74/74/74
f 79/79/79 78/78/78 77/77/77
f 75/75/75 80/80/80 79/79/79
f 83/83/83 82/82/82 81/81/81
f 81/81/81 84/84/84 83/83/83
f 87/87/87 86/86/86 85/85/85
f 85/85/85 88/88/88 87/87/87
f 91/91/91 90/90/90 89/89/89
f 94/94/94 93/93/93 92/92/92
f 97/97/97 96/96/96 95/95/95
f 95/95/95 98/98/98 97/97/97
f 101/101/101 100/100/100 99/99/99
f 104/104/104 103/103/103 102/102/102
f 107/107/107 106/106/106 105/105/105
f 105/105/105 108/108/108 107/107/107
f 111/111/111 110/110/110 109/109/109
f 114/114/114 113/113/113 112/112/112
f 117/117/117 116/116/116 115/115/115
f 120/120/120 119/119/119 118/118/118
f 123/123/123 122/122/122 121/121/121
f 126/126/126 125/125/125 124/124/124
f 129/129/129 128/128/128 127/127/127
f 127/127/127 130/130/130 129/129/129
f 133/133/133 132/132/132 131/131/131
f 136/136/136 135/135/135 134/134/134
f 139/139/139 138/138/138 137/137/137
f 142/142/142 141/141/141 140/140/140
f 145/145/145 144/144/144 143/143/143
f 148/148/148 147/147/147 146/146/146
f 151/151/151 150/150/150 149/149/149
f 149/149/149 152/152/152 151/151/151
f 155/155/155 154/154/154 153/153/153
f 158/158/158 157/157/157 156/156/156
f 161/161/161 160/160/160 159/159/159
f 164/164/164 163/163/163 162/162/162
f 167/167/167 166/166/166 165/165/165
f 170/170/170 169/169/169 168/168/168
f 173/173/173 172/172/172 171/171/171
f 171/171/171 174/174/174 173/173/173
f 177/177/177 176/176/176 175/175/175
f 176/176/176 178/178/178 175/175/175
f 175/175/175 179/179/179 177/177/177
f 194/194/194 175/175/175 178/178/178
f 180/180/180 177/177/177 179/179/179
f 178/178/178 195/195/195 194/194/194
f 195/195/195 190/190/190 194/194/194
f 181/181/181 180/180/180 179/179/179
f 179/179/179 182/182/182 181/181/181
f 182/182/182 183/183/183 181/181/181
f 184/184/184 183/183/183 182/182/182
f 182/182/182 185/185/185 184/184/184
f 186/186/186 184/184/184 185/185/185
f 187/187/187 186/186/186 185/185/185
f 187/187/187 185/185/185 188/188/188
f 190/190/190 189/189/189 188/188/188
f 189/189/189 187/187/187 188/188/188
f 193/193/193 192/192/192 191/191/191
f 198/198/198 197/197/197 196/196/196
f 198/198/198 196/196/196 199/199/199
f 198/198/198 208/208/208 197/197/197
f 198/198/198 199/199/199 200/200/200
f 198/198/198 207/207/207 208/208/208
f 198/198/198 200/200/200 201/201/201
f 198/198/198 206/206/206 207/207/207
f 198/198/198 201/201/201 202/202/202
f 198/198/198 205/205/205 206/206/206
f 198/198/198 202/202/202 203/203/203
f 198/198/198 204/204/204 205/205/205
f 198/198/198 203/203/203 204/204/204
